ISO-10303-21;
HEADER;
FILE_DESCRIPTION (( 'STEP AP203' ),
    '1' );
FILE_NAME ('Chassis Side Wall.STEP',
    '2026-04-28T03:58:04',
    ( '' ),
    ( '' ),
    'SwSTEP 2.0',
    'SolidWorks 2025',
    '' );
FILE_SCHEMA (( 'CONFIG_CONTROL_DESIGN' ));
ENDSEC;

DATA;
#1 = ORIENTED_EDGE ( 'NONE', *, *, #1018, .T. ) ;
#2 = APPROVAL_ROLE ( '' ) ;
#3 = EDGE_CURVE ( 'NONE', #196, #911, #916, .T. ) ;
#4 = AXIS2_PLACEMENT_3D ( 'NONE', #881, #661, #801 ) ;
#5 = DIRECTION ( 'NONE',  ( -0.000000000000000000, -0.000000000000000000, 1.000000000000000000 ) ) ;
#6 = ORIENTED_EDGE ( 'NONE', *, *, #405, .T. ) ;
#7 = CARTESIAN_POINT ( 'NONE',  ( -1.153051180000000064, 0.3799999999999999489, 0.2500000000000000000 ) ) ;
#8 = EDGE_CURVE ( 'NONE', #598, #434, #528, .T. ) ;
#9 = AXIS2_PLACEMENT_3D ( 'NONE', #515, #502, #277 ) ;
#10 = ORIENTED_EDGE ( 'NONE', *, *, #520, .F. ) ;
#11 = DIRECTION ( 'NONE',  ( 1.000000000000000000, 0.000000000000000000, 0.000000000000000000 ) ) ;
#12 = ORIENTED_EDGE ( 'NONE', *, *, #512, .F. ) ;
#13 = CARTESIAN_POINT ( 'NONE',  ( -0.6105314950000001462, 0.1155314949999999424, 0.000000000000000000 ) ) ;
#14 = CARTESIAN_POINT ( 'NONE',  ( -1.072539371141732589, 0.1155314949999999424, 0.2500000000000000000 ) ) ;
#15 = DIRECTION ( 'NONE',  ( 1.000000000000000000, 0.000000000000000000, -0.000000000000000000 ) ) ;
#16 = VECTOR ( 'NONE', #343, 39.37007874015748143 ) ;
#17 = PLANE ( 'NONE',  #175 ) ;
#18 = ORIENTED_EDGE ( 'NONE', *, *, #814, .F. ) ;
#19 = ADVANCED_FACE ( 'NONE', ( #50 ), #920, .F. ) ;
#20 = DIRECTION ( 'NONE',  ( 1.000000000000000000, 0.000000000000000000, 0.000000000000000000 ) ) ;
#21 = VECTOR ( 'NONE', #763, 39.37007874015748143 ) ;
#22 = DIRECTION ( 'NONE',  ( -0.000000000000000000, -0.000000000000000000, 1.000000000000000000 ) ) ;
#23 = CARTESIAN_POINT ( 'NONE',  ( -1.624999999999999778, 0.4999999999999999445, 0.1250000000000002498 ) ) ;
#24 = VERTEX_POINT ( 'NONE', #931 ) ;
#25 = AXIS2_PLACEMENT_3D ( 'NONE', #575, #337, #101 ) ;
#26 = CC_DESIGN_APPROVAL ( #800, ( #117 ) ) ;
#27 = LINE ( 'NONE', #351, #650 ) ;
#28 = EDGE_CURVE ( 'NONE', #501, #63, #697, .T. ) ;
#29 = CARTESIAN_POINT ( 'NONE',  ( -1.625000000000000000, 0.6145161051755374526, 0.1250000000000002498 ) ) ;
#30 = DIRECTION ( 'NONE',  ( -0.000000000000000000, 1.000000000000000000, -0.000000000000000000 ) ) ;
#31 = ORIENTED_EDGE ( 'NONE', *, *, #405, .F. ) ;
#32 = CARTESIAN_POINT ( 'NONE',  ( 0.000000000000000000, 0.000000000000000000, 0.2500000000000000000 ) ) ;
#33 = VERTEX_POINT ( 'NONE', #221 ) ;
#34 = DIRECTION ( 'NONE',  ( 0.000000000000000000, -0.000000000000000000, 1.000000000000000000 ) ) ;
#35 = DIRECTION ( 'NONE',  ( 1.000000000000000000, 0.000000000000000000, 0.000000000000000000 ) ) ;
#36 = EDGE_CURVE ( 'NONE', #648, #514, #945, .T. ) ;
#37 = AXIS2_PLACEMENT_3D ( 'NONE', #578, #953, #805 ) ;
#38 = EDGE_LOOP ( 'NONE', ( #585, #505, #979, #876 ) ) ;
#39 = DIRECTION ( 'NONE',  ( -0.000000000000000000, -0.000000000000000000, 1.000000000000000000 ) ) ;
#40 = ORIENTED_EDGE ( 'NONE', *, *, #68, .T. ) ;
#41 = DIRECTION ( 'NONE',  ( -0.000000000000000000, -0.000000000000000000, -1.000000000000000000 ) ) ;
#42 = CARTESIAN_POINT ( 'NONE',  ( -1.139468505000000187, 0.1155314949999999424, 0.000000000000000000 ) ) ;
#43 = FACE_OUTER_BOUND ( 'NONE', #291, .T. ) ;
#44 = ORIENTED_EDGE ( 'NONE', *, *, #226, .T. ) ;
#45 = EDGE_LOOP ( 'NONE', ( #679, #12 ) ) ;
#46 = CIRCLE ( 'NONE', #874, 0.06692913385826758377 ) ;
#47 = PERSON_AND_ORGANIZATION ( #891, #311 ) ;
#48 = DIRECTION ( 'NONE',  ( -0.000000000000000000, 0.000000000000000000, -1.000000000000000000 ) ) ;
#49 = CYLINDRICAL_SURFACE ( 'NONE', #57, 0.06692913385826758377 ) ;
#50 = FACE_OUTER_BOUND ( 'NONE', #350, .T. ) ;
#51 = ADVANCED_FACE ( 'NONE', ( #927 ), #301, .F. ) ;
#52 = EDGE_LOOP ( 'NONE', ( #622, #348, #989, #669 ) ) ;
#53 = PERSON_AND_ORGANIZATION_ROLE ( 'creator' ) ;
#54 = CARTESIAN_POINT ( 'NONE',  ( -0.1249999999999998335, 0.5000000000000001110, 0.1840551181102355882 ) ) ;
#55 = LINE ( 'NONE', #293, #326 ) ;
#56 = LINE ( 'NONE', #788, #850 ) ;
#57 = AXIS2_PLACEMENT_3D ( 'NONE', #584, #892, #292 ) ;
#58 = ORIENTED_EDGE ( 'NONE', *, *, #984, .F. ) ;
#59 = EDGE_CURVE ( 'NONE', #24, #840, #445, .T. ) ;
#60 = DIRECTION ( 'NONE',  ( 1.000000000000000000, 0.000000000000000000, 0.000000000000000000 ) ) ;
#61 = DIRECTION ( 'NONE',  ( -0.000000000000000000, 1.000000000000000000, -0.000000000000000000 ) ) ;
#62 = FACE_OUTER_BOUND ( 'NONE', #799, .T. ) ;
#63 = VERTEX_POINT ( 'NONE', #241 ) ;
#64 = CYLINDRICAL_SURFACE ( 'NONE', #1021, 0.2780511800000000644 ) ;
#65 = CARTESIAN_POINT ( 'NONE',  ( -0.6105314950000001462, 0.6444685050000000803, 0.2500000000000000000 ) ) ;
#66 = CONICAL_SURFACE ( 'NONE', #955, 0.05905511811023603230, 1.029744258676652091 ) ;
#67 = AXIS2_PLACEMENT_3D ( 'NONE', #435, #102, #734 ) ;
#68 = EDGE_CURVE ( 'NONE', #248, #986, #266, .T. ) ;
#69 = CARTESIAN_POINT ( 'NONE',  ( -1.625000000000000000, 1.149999999999999689, 0.06594488188976450893 ) ) ;
#70 = ORIENTED_EDGE ( 'NONE', *, *, #92, .F. ) ;
#71 =( LENGTH_UNIT ( ) NAMED_UNIT ( * ) SI_UNIT ( $, .METRE. ) );
#72 = CARTESIAN_POINT ( 'NONE',  ( -0.1249999999999999584, 1.149999999999999911, 0.06594488188976395382 ) ) ;
#73 = ADVANCED_FACE ( 'NONE', ( #78 ), #103, .F. ) ;
#74 = CARTESIAN_POINT ( 'NONE',  ( -1.624999999999999778, 0.4999999999999999445, 0.06594488188976450893 ) ) ;
#75 = CARTESIAN_POINT ( 'NONE',  ( -1.206397638858267785, 0.6444685050000000803, 0.2500000000000000000 ) ) ;
#76 = VERTEX_POINT ( 'NONE', #69 ) ;
#77 = VECTOR ( 'NONE', #833, 39.37007874015748854 ) ;
#78 = FACE_OUTER_BOUND ( 'NONE', #511, .T. ) ;
#79 = DIRECTION ( 'NONE',  ( 0.000000000000000000, 0.000000000000000000, -1.000000000000000000 ) ) ;
#80 = EDGE_LOOP ( 'NONE', ( #469, #256, #193, #918 ) ) ;
#81 = CALENDAR_DATE ( 2026, 27, 4 ) ;
#82 = PRODUCT_DEFINITION_FORMATION_WITH_SPECIFIED_SOURCE ( 'ANY', '', #312, .NOT_KNOWN. ) ;
#83 = CC_DESIGN_APPROVAL ( #455, ( #535 ) ) ;
#84 = DIRECTION ( 'NONE',  ( -1.000000000000000000, 0.000000000000000000, 0.000000000000000000 ) ) ;
#85 = FACE_OUTER_BOUND ( 'NONE', #423, .T. ) ;
#86 = ORIENTED_EDGE ( 'NONE', *, *, #720, .T. ) ;
#87 = APPROVAL ( #846, 'UNSPECIFIED' ) ;
#88 = DATE_AND_TIME ( #719, #299 ) ;
#89 = DIRECTION ( 'NONE',  ( -0.000000000000000000, 1.000000000000000000, -0.000000000000000000 ) ) ;
#90 = ORIENTED_EDGE ( 'NONE', *, *, #377, .T. ) ;
#91 = VECTOR ( 'NONE', #251, 39.37007874015748143 ) ;
#92 = EDGE_CURVE ( 'NONE', #985, #542, #468, .T. ) ;
#93 = DIRECTION ( 'NONE',  ( 0.000000000000000000, -0.000000000000000000, 1.000000000000000000 ) ) ;
#94 = VERTEX_POINT ( 'NONE', #630 ) ;
#95 = EDGE_CURVE ( 'NONE', #33, #519, #678, .T. ) ;
#96 = DIRECTION ( 'NONE',  ( 0.000000000000000000, -0.000000000000000000, 1.000000000000000000 ) ) ;
#97 = AXIS2_PLACEMENT_3D ( 'NONE', #759, #687, #290 ) ;
#98 =( GEOMETRIC_REPRESENTATION_CONTEXT ( 3 ) GLOBAL_UNCERTAINTY_ASSIGNED_CONTEXT ( ( #654 ) ) GLOBAL_UNIT_ASSIGNED_CONTEXT ( ( #849, #458, #531 ) ) REPRESENTATION_CONTEXT ( 'NONE', 'WORKASPACE' ) );
#99 = CARTESIAN_POINT ( 'NONE',  ( -1.072539371141732589, 0.6444685050000000803, 0.2500000000000000000 ) ) ;
#100 = ORIENTED_EDGE ( 'NONE', *, *, #720, .F. ) ;
#101 = DIRECTION ( 'NONE',  ( 0.000000000000000000, 0.000000000000000000, -1.000000000000000000 ) ) ;
#102 = DIRECTION ( 'NONE',  ( -0.000000000000000000, 1.000000000000000000, -0.000000000000000000 ) ) ;
#103 = CONICAL_SURFACE ( 'NONE', #1025, 0.05905511811023603230, 1.029744258676652091 ) ;
#104 = CYLINDRICAL_SURFACE ( 'NONE', #629, 0.05905511811023586577 ) ;
#105 = ORIENTED_EDGE ( 'NONE', *, *, #345, .T. ) ;
#106 = LINE ( 'NONE', #420, #1005 ) ;
#107 = DIRECTION ( 'NONE',  ( -0.000000000000000000, -0.000000000000000000, 1.000000000000000000 ) ) ;
#108 = AXIS2_PLACEMENT_3D ( 'NONE', #983, #443, #756 ) ;
#109 = CYLINDRICAL_SURFACE ( 'NONE', #564, 0.05905511811023576169 ) ;
#110 = EDGE_LOOP ( 'NONE', ( #417, #676, #609, #336 ) ) ;
#111 = FACE_OUTER_BOUND ( 'NONE', #401, .T. ) ;
#112 = ORIENTED_EDGE ( 'NONE', *, *, #59, .T. ) ;
#113 = VECTOR ( 'NONE', #477, 39.37007874015748143 ) ;
#114 = CIRCLE ( 'NONE', #216, 0.06692913385826758377 ) ;
#115 = LOCAL_TIME ( 20, 58, 4.000000000000000000, #939 ) ;
#116 = ORIENTED_EDGE ( 'NONE', *, *, #863, .T. ) ;
#117 = PRODUCT_DEFINITION ( 'UNKNOWN', '', #82, #201 ) ;
#118 = CARTESIAN_POINT ( 'NONE',  ( -1.072539371141732589, 0.6444685050000000803, 0.2500000000000000000 ) ) ;
#119 = ORIENTED_EDGE ( 'NONE', *, *, #904, .T. ) ;
#120 = ORIENTED_EDGE ( 'NONE', *, *, #413, .T. ) ;
#121 = LINE ( 'NONE', #441, #464 ) ;
#122 = ADVANCED_FACE ( 'NONE', ( #62 ), #308, .F. ) ;
#123 = DIRECTION ( 'NONE',  ( 0.000000000000000000, 0.000000000000000000, 1.000000000000000000 ) ) ;
#124 = VERTEX_POINT ( 'NONE', #225 ) ;
#125 = EDGE_LOOP ( 'NONE', ( #638, #298, #565, #959 ) ) ;
#126 = DIRECTION ( 'NONE',  ( 1.000000000000000000, 0.000000000000000000, 0.000000000000000000 ) ) ;
#127 = CARTESIAN_POINT ( 'NONE',  ( 0.000000000000000000, 0.000000000000000000, 0.000000000000000000 ) ) ;
#128 = DIRECTION ( 'NONE',  ( -1.000000000000000000, -1.561055996379578982E-16, 0.000000000000000000 ) ) ;
#129 = AXIS2_PLACEMENT_3D ( 'NONE', #23, #340, #665 ) ;
#130 = EDGE_LOOP ( 'NONE', ( #828, #6 ) ) ;
#131 = CALENDAR_DATE ( 2026, 27, 4 ) ;
#132 = EDGE_CURVE ( 'NONE', #682, #830, #820, .T. ) ;
#133 = CARTESIAN_POINT ( 'NONE',  ( -0.5969488199999999356, 0.3799999999999999489, 0.000000000000000000 ) ) ;
#134 = DIRECTION ( 'NONE',  ( 0.000000000000000000, 0.000000000000000000, 1.000000000000000000 ) ) ;
#135 = AXIS2_PLACEMENT_3D ( 'NONE', #551, #134, #776 ) ;
#136 = DIRECTION ( 'NONE',  ( -0.000000000000000000, -0.000000000000000000, 1.000000000000000000 ) ) ;
#137 = DIRECTION ( 'NONE',  ( -0.000000000000000000, -1.000000000000000000, -0.000000000000000000 ) ) ;
#138 = EDGE_LOOP ( 'NONE', ( #70, #938, #577, #879 ) ) ;
#139 = COORDINATED_UNIVERSAL_TIME_OFFSET ( 8, 0, .BEHIND. ) ;
#140 = DIRECTION ( 'NONE',  ( 1.000000000000000000, 0.000000000000000000, 0.000000000000000000 ) ) ;
#141 = VECTOR ( 'NONE', #255, 39.37007874015748143 ) ;
#142 = EDGE_LOOP ( 'NONE', ( #522, #267, #1010, #843 ) ) ;
#143 = CC_DESIGN_DATE_AND_TIME_ASSIGNMENT ( #951, #868, ( #535 ) ) ;
#144 = LINE ( 'NONE', #699, #858 ) ;
#145 = DIRECTION ( 'NONE',  ( 0.000000000000000000, 0.000000000000000000, 1.000000000000000000 ) ) ;
#146 = DIRECTION ( 'NONE',  ( -0.000000000000000000, 0.000000000000000000, -1.000000000000000000 ) ) ;
#147 = ORIENTED_EDGE ( 'NONE', *, *, #426, .F. ) ;
#148 = LINE ( 'NONE', #203, #411 ) ;
#149 = EDGE_CURVE ( 'NONE', #779, #986, #1013, .T. ) ;
#150 = AXIS2_PLACEMENT_3D ( 'NONE', #836, #597, #922 ) ;
#151 = CONICAL_SURFACE ( 'NONE', #67, 0.05905511811023600455, 1.029744258676652979 ) ;
#152 = FACE_OUTER_BOUND ( 'NONE', #1020, .T. ) ;
#153 = DIRECTION ( 'NONE',  ( 0.000000000000000000, 0.000000000000000000, 1.000000000000000000 ) ) ;
#154 = ORIENTED_EDGE ( 'NONE', *, *, #59, .F. ) ;
#155 = EDGE_CURVE ( 'NONE', #440, #446, #509, .T. ) ;
#156 = DIRECTION ( 'NONE',  ( 0.000000000000000000, -0.000000000000000000, 1.000000000000000000 ) ) ;
#157 = CARTESIAN_POINT ( 'NONE',  ( -0.1249999999999999584, 1.149999999999999911, 0.1249999999999998612 ) ) ;
#158 = ORIENTED_EDGE ( 'NONE', *, *, #573, .F. ) ;
#159 = CIRCLE ( 'NONE', #271, 0.06692913385826758377 ) ;
#160 = PERSON_AND_ORGANIZATION ( #891, #311 ) ;
#161 = EDGE_CURVE ( 'NONE', #76, #187, #852, .T. ) ;
#162 = DIRECTION ( 'NONE',  ( -0.000000000000000000, -1.000000000000000000, -0.000000000000000000 ) ) ;
#163 = ORIENTED_EDGE ( 'NONE', *, *, #744, .T. ) ;
#164 = APPROVAL_STATUS ( 'not_yet_approved' ) ;
#165 = CIRCLE ( 'NONE', #987, 0.2780511800000000644 ) ;
#166 = VECTOR ( 'NONE', #808, 39.37007874015748143 ) ;
#167 = CARTESIAN_POINT ( 'NONE',  ( -1.624999999999999778, 0.5354838948244621255, 0.1250000000000002498 ) ) ;
#168 = EDGE_CURVE ( 'NONE', #667, #893, #56, .T. ) ;
#169 = VERTEX_POINT ( 'NONE', #74 ) ;
#170 = DIRECTION ( 'NONE',  ( -0.000000000000000000, 1.000000000000000000, -0.000000000000000000 ) ) ;
#171 = CARTESIAN_POINT ( 'NONE',  ( -0.1249999999999998335, 0.5000000000000001110, 0.06594488188976413423 ) ) ;
#172 = DIRECTION ( 'NONE',  ( 1.000000000000000000, 0.000000000000000000, 0.000000000000000000 ) ) ;
#173 = EDGE_LOOP ( 'NONE', ( #269, #591, #314 ) ) ;
#174 = EDGE_CURVE ( 'NONE', #911, #923, #159, .T. ) ;
#175 = AXIS2_PLACEMENT_3D ( 'NONE', #965, #84, #871 ) ;
#176 = FACE_OUTER_BOUND ( 'NONE', #956, .T. ) ;
#177 = ORIENTED_EDGE ( 'NONE', *, *, #413, .F. ) ;
#178 = ADVANCED_FACE ( 'NONE', ( #389, #783, #771, #1007, #380, #853 ), #859, .T. ) ;
#179 = LINE ( 'NONE', #963, #723 ) ;
#180 = CARTESIAN_POINT ( 'NONE',  ( -0.1249999999999998335, -6.930825881001249877E-17, 0.1840551181102356715 ) ) ;
#181 = AXIS2_PLACEMENT_3D ( 'NONE', #778, #958, #172 ) ;
#182 = VERTEX_POINT ( 'NONE', #1026 ) ;
#183 = DIRECTION ( 'NONE',  ( 0.000000000000000000, 0.000000000000000000, 1.000000000000000000 ) ) ;
#184 = AXIS2_PLACEMENT_3D ( 'NONE', #157, #459, #563 ) ;
#185 = LINE ( 'NONE', #813, #16 ) ;
#186 = EDGE_CURVE ( 'NONE', #94, #76, #258, .T. ) ;
#187 = VERTEX_POINT ( 'NONE', #725 ) ;
#188 = CARTESIAN_POINT ( 'NONE',  ( -1.625000000000000000, 0.6499999999999995781, 0.1250000000000002498 ) ) ;
#189 = PRODUCT_RELATED_PRODUCT_CATEGORY ( 'detail', '', ( #312 ) ) ;
#190 = VERTEX_POINT ( 'NONE', #323 ) ;
#191 = ORIENTED_EDGE ( 'NONE', *, *, #526, .F. ) ;
#192 = DIRECTION ( 'NONE',  ( -0.000000000000000000, -0.000000000000000000, 1.000000000000000000 ) ) ;
#193 = ORIENTED_EDGE ( 'NONE', *, *, #595, .T. ) ;
#194 = CIRCLE ( 'NONE', #907, 0.06692913385826758377 ) ;
#195 = FACE_OUTER_BOUND ( 'NONE', #52, .T. ) ;
#196 = VERTEX_POINT ( 'NONE', #500 ) ;
#197 = ADVANCED_FACE ( 'NONE', ( #566 ), #412, .F. ) ;
#198 = DIRECTION ( 'NONE',  ( -0.000000000000000000, -0.000000000000000000, 1.000000000000000000 ) ) ;
#199 = FACE_OUTER_BOUND ( 'NONE', #125, .T. ) ;
#200 = ORIENTED_EDGE ( 'NONE', *, *, #618, .F. ) ;
#201 = DESIGN_CONTEXT ( 'detailed design', #677, 'design' ) ;
#202 = EDGE_LOOP ( 'NONE', ( #747, #105, #488, #369 ) ) ;
#203 = CARTESIAN_POINT ( 'NONE',  ( 0.000000000000000000, 1.149999999999999911, 0.2500000000000000000 ) ) ;
#204 = ADVANCED_FACE ( 'NONE', ( #949 ), #318, .F. ) ;
#205 = FACE_BOUND ( 'NONE', #414, .T. ) ;
#206 = AXIS2_PLACEMENT_3D ( 'NONE', #655, #96, #400 ) ;
#207 = DIRECTION ( 'NONE',  ( -0.000000000000000000, -0.000000000000000000, 1.000000000000000000 ) ) ;
#208 = CARTESIAN_POINT ( 'NONE',  ( -0.1249999999999999584, 1.149999999999999911, 0.1840551181102357547 ) ) ;
#209 = ORIENTED_EDGE ( 'NONE', *, *, #977, .T. ) ;
#210 = DATE_AND_TIME ( #131, #451 ) ;
#211 = VECTOR ( 'NONE', #128, 39.37007874015748143 ) ;
#212 = EDGE_CURVE ( 'NONE', #514, #239, #482, .T. ) ;
#213 = DIRECTION ( 'NONE',  ( -0.000000000000000000, -0.000000000000000000, 1.000000000000000000 ) ) ;
#214 = DIRECTION ( 'NONE',  ( -0.000000000000000000, -1.000000000000000000, -0.000000000000000000 ) ) ;
#215 = VECTOR ( 'NONE', #170, 39.37007874015748143 ) ;
#216 = AXIS2_PLACEMENT_3D ( 'NONE', #339, #969, #265 ) ;
#217 = VERTEX_POINT ( 'NONE', #167 ) ;
#218 = DATE_AND_TIME ( #617, #583 ) ;
#219 = DIRECTION ( 'NONE',  ( 1.000000000000000000, 0.000000000000000000, 0.000000000000000000 ) ) ;
#220 = EDGE_CURVE ( 'NONE', #645, #190, #897, .T. ) ;
#221 = CARTESIAN_POINT ( 'NONE',  ( -0.5436023611417326595, 0.6444685050000000803, 0.000000000000000000 ) ) ;
#222 = DIRECTION ( 'NONE',  ( 0.000000000000000000, 0.000000000000000000, -1.000000000000000000 ) ) ;
#223 = ORIENTED_EDGE ( 'NONE', *, *, #226, .F. ) ;
#224 = CARTESIAN_POINT ( 'NONE',  ( 0.000000000000000000, 0.000000000000000000, 0.000000000000000000 ) ) ;
#225 = CARTESIAN_POINT ( 'NONE',  ( -1.750000000000000000, 1.149999999999999689, 0.2500000000000000000 ) ) ;
#226 = EDGE_CURVE ( 'NONE', #648, #281, #873, .T. ) ;
#227 = DIRECTION ( 'NONE',  ( -0.000000000000000000, -1.000000000000000000, -0.000000000000000000 ) ) ;
#228 = ORIENTED_EDGE ( 'NONE', *, *, #618, .T. ) ;
#229 = DIRECTION ( 'NONE',  ( -0.000000000000000000, -0.000000000000000000, 1.000000000000000000 ) ) ;
#230 = DIRECTION ( 'NONE',  ( 1.000000000000000000, 1.224646799147353207E-16, 0.000000000000000000 ) ) ;
#231 = CARTESIAN_POINT ( 'NONE',  ( -0.1249999999999999584, 1.149999999999999911, 0.1249999999999998612 ) ) ;
#232 = ORIENTED_EDGE ( 'NONE', *, *, #377, .F. ) ;
#233 = EDGE_CURVE ( 'NONE', #331, #182, #716, .T. ) ;
#234 = DIRECTION ( 'NONE',  ( 1.000000000000000000, 0.000000000000000000, 0.000000000000000000 ) ) ;
#235 = VECTOR ( 'NONE', #942, 39.37007874015748143 ) ;
#236 = AXIS2_PLACEMENT_3D ( 'NONE', #1015, #156, #307 ) ;
#237 = FACE_BOUND ( 'NONE', #306, .T. ) ;
#238 = DIRECTION ( 'NONE',  ( -0.000000000000000000, 1.000000000000000000, -0.000000000000000000 ) ) ;
#239 = VERTEX_POINT ( 'NONE', #180 ) ;
#240 = ADVANCED_FACE ( 'NONE', ( #647 ), #104, .F. ) ;
#241 = CARTESIAN_POINT ( 'NONE',  ( -1.625000000000000000, 0.6499999999999995781, 0.1840551181102362266 ) ) ;
#242 = ORIENTED_EDGE ( 'NONE', *, *, #316, .T. ) ;
#243 = CIRCLE ( 'NONE', #332, 0.05905511811023572699 ) ;
#244 = CYLINDRICAL_SURFACE ( 'NONE', #695, 0.05905511811023572699 ) ;
#245 = DIRECTION ( 'NONE',  ( 0.000000000000000000, 0.000000000000000000, -1.000000000000000000 ) ) ;
#246 = ADVANCED_FACE ( 'NONE', ( #176 ), #486, .F. ) ;
#247 = DIRECTION ( 'NONE',  ( 0.000000000000000000, 1.000000000000000000, 0.000000000000000000 ) ) ;
#248 = VERTEX_POINT ( 'NONE', #7 ) ;
#249 = FACE_OUTER_BOUND ( 'NONE', #530, .T. ) ;
#250 = VECTOR ( 'NONE', #247, 39.37007874015748143 ) ;
#251 = DIRECTION ( 'NONE',  ( 0.000000000000000000, -0.5150380749100579303, -0.8571673007021100021 ) ) ;
#252 = EDGE_CURVE ( 'NONE', #169, #985, #592, .T. ) ;
#253 = ORIENTED_EDGE ( 'NONE', *, *, #174, .F. ) ;
#254 = PERSON_AND_ORGANIZATION ( #891, #311 ) ;
#255 = DIRECTION ( 'NONE',  ( -0.000000000000000000, -1.000000000000000000, -0.000000000000000000 ) ) ;
#256 = ORIENTED_EDGE ( 'NONE', *, *, #168, .T. ) ;
#257 = EDGE_CURVE ( 'NONE', #830, #682, #690, .T. ) ;
#258 = LINE ( 'NONE', #651, #613 ) ;
#259 = EDGE_LOOP ( 'NONE', ( #980, #705, #438 ) ) ;
#260 = LINE ( 'NONE', #521, #793 ) ;
#261 = VECTOR ( 'NONE', #136, 39.37007874015748143 ) ;
#262 = CIRCLE ( 'NONE', #737, 0.06692913385826765316 ) ;
#263 = CARTESIAN_POINT ( 'NONE',  ( 0.000000000000000000, 0.000000000000000000, 0.2500000000000000000 ) ) ;
#264 = ORIENTED_EDGE ( 'NONE', *, *, #370, .F. ) ;
#265 = DIRECTION ( 'NONE',  ( 1.000000000000000000, 0.000000000000000000, 0.000000000000000000 ) ) ;
#266 = CIRCLE ( 'NONE', #135, 0.2780511800000000644 ) ;
#267 = ORIENTED_EDGE ( 'NONE', *, *, #92, .T. ) ;
#268 = DIRECTION ( 'NONE',  ( -0.000000000000000000, -0.000000000000000000, 1.000000000000000000 ) ) ;
#269 = ORIENTED_EDGE ( 'NONE', *, *, #28, .F. ) ;
#270 = DIRECTION ( 'NONE',  ( 0.000000000000000000, 1.000000000000000000, 0.000000000000000000 ) ) ;
#271 = AXIS2_PLACEMENT_3D ( 'NONE', #864, #847, #140 ) ;
#272 = CARTESIAN_POINT ( 'NONE',  ( -0.1249999999999999584, 0.6499999999999999112, 0.06594488188976384280 ) ) ;
#273 = ORIENTED_EDGE ( 'NONE', *, *, #394, .F. ) ;
#274 = DIRECTION ( 'NONE',  ( -0.000000000000000000, 1.000000000000000000, -0.000000000000000000 ) ) ;
#275 = ORIENTED_EDGE ( 'NONE', *, *, #168, .F. ) ;
#276 = AXIS2_PLACEMENT_3D ( 'NONE', #1017, #385, #1001 ) ;
#277 = DIRECTION ( 'NONE',  ( 1.000000000000000000, 0.000000000000000000, 0.000000000000000000 ) ) ;
#278 = ORIENTED_EDGE ( 'NONE', *, *, #562, .F. ) ;
#279 = CONICAL_SURFACE ( 'NONE', #857, 0.05905511811023572699, 1.029744258676650981 ) ;
#280 = VECTOR ( 'NONE', #935, 39.37007874015748143 ) ;
#281 = VERTEX_POINT ( 'NONE', #885 ) ;
#282 = DIRECTION ( 'NONE',  ( -0.000000000000000000, -0.000000000000000000, -1.000000000000000000 ) ) ;
#283 = DIRECTION ( 'NONE',  ( -0.000000000000000000, -1.000000000000000000, -0.000000000000000000 ) ) ;
#284 = ORIENTED_EDGE ( 'NONE', *, *, #155, .F. ) ;
#285 = LENGTH_MEASURE_WITH_UNIT ( LENGTH_MEASURE( 0.02539999999999999897 ), #71 );
#286 = DIRECTION ( 'NONE',  ( 0.000000000000000000, 0.000000000000000000, 1.000000000000000000 ) ) ;
#287 = AXIS2_PLACEMENT_3D ( 'NONE', #422, #588, #834 ) ;
#288 = CARTESIAN_POINT ( 'NONE',  ( -0.6105314950000001462, 0.6444685050000000803, 0.2500000000000000000 ) ) ;
#289 = ORIENTED_EDGE ( 'NONE', *, *, #623, .T. ) ;
#290 = DIRECTION ( 'NONE',  ( 1.000000000000000000, 0.000000000000000000, 0.000000000000000000 ) ) ;
#291 = EDGE_LOOP ( 'NONE', ( #741, #147, #961, #1 ) ) ;
#292 = DIRECTION ( 'NONE',  ( 1.000000000000000000, 0.000000000000000000, 0.000000000000000000 ) ) ;
#293 = CARTESIAN_POINT ( 'NONE',  ( -0.1249999999999999584, 0.6499999999999999112, 0.1840551181102358935 ) ) ;
#294 = DIRECTION ( 'NONE',  ( -0.000000000000000000, -0.000000000000000000, 1.000000000000000000 ) ) ;
#295 = CARTESIAN_POINT ( 'NONE',  ( -1.750000000000000000, -2.143131898507868051E-16, 0.000000000000000000 ) ) ;
#296 = AXIS2_PLACEMENT_3D ( 'NONE', #1009, #395, #701 ) ;
#297 = CIRCLE ( 'NONE', #181, 0.2780511800000000644 ) ;
#298 = ORIENTED_EDGE ( 'NONE', *, *, #606, .F. ) ;
#299 = LOCAL_TIME ( 20, 58, 4.000000000000000000, #639 ) ;
#300 = ADVANCED_FACE ( 'NONE', ( #729 ), #17, .F. ) ;
#301 = CYLINDRICAL_SURFACE ( 'NONE', #1016, 0.05905511811023590046 ) ;
#302 = LINE ( 'NONE', #626, #967 ) ;
#303 = ORIENTED_EDGE ( 'NONE', *, *, #186, .T. ) ;
#304 = DIRECTION ( 'NONE',  ( 1.000000000000000000, 0.000000000000000000, 0.000000000000000000 ) ) ;
#305 = CARTESIAN_POINT ( 'NONE',  ( -0.1249999999999998335, 0.5000000000000001110, 0.1249999999999998612 ) ) ;
#306 = EDGE_LOOP ( 'NONE', ( #325, #722 ) ) ;
#307 = DIRECTION ( 'NONE',  ( 1.000000000000000000, 0.000000000000000000, 0.000000000000000000 ) ) ;
#308 = CYLINDRICAL_SURFACE ( 'NONE', #790, 0.05905511811023586577 ) ;
#309 = CARTESIAN_POINT ( 'NONE',  ( -0.1249999999999998335, -1.530808498934189352E-17, 0.1249999999999998612 ) ) ;
#310 = VERTEX_POINT ( 'NONE', #644 ) ;
#311 = ORGANIZATION ( 'UNSPECIFIED', 'UNSPECIFIED', '' ) ;
#312 = PRODUCT ( 'Chassis Side Wall', 'Chassis Side Wall', '', ( #913 ) ) ;
#313 = DIRECTION ( 'NONE',  ( -1.000000000000000000, -1.224646799147353207E-16, 0.000000000000000000 ) ) ;
#314 = ORIENTED_EDGE ( 'NONE', *, *, #388, .T. ) ;
#315 = CALENDAR_DATE ( 2026, 27, 4 ) ;
#316 = EDGE_CURVE ( 'NONE', #514, #281, #243, .T. ) ;
#317 = DIRECTION ( 'NONE',  ( -0.000000000000000000, -1.000000000000000000, -0.000000000000000000 ) ) ;
#318 = CYLINDRICAL_SURFACE ( 'NONE', #475, 0.06692913385826758377 ) ;
#319 = ORIENTED_EDGE ( 'NONE', *, *, #658, .F. ) ;
#320 = VECTOR ( 'NONE', #503, 39.37007874015748143 ) ;
#321 = PERSON_AND_ORGANIZATION ( #891, #311 ) ;
#322 = LINE ( 'NONE', #952, #463 ) ;
#323 = CARTESIAN_POINT ( 'NONE',  ( -0.6774606288582679658, 0.1155314949999999424, 0.2500000000000000000 ) ) ;
#324 = CARTESIAN_POINT ( 'NONE',  ( -1.139468505000000187, 0.6444685050000000803, 0.2500000000000000000 ) ) ;
#325 = ORIENTED_EDGE ( 'NONE', *, *, #548, .F. ) ;
#326 = VECTOR ( 'NONE', #507, 39.37007874015748854 ) ;
#327 = EDGE_CURVE ( 'NONE', #182, #331, #996, .T. ) ;
#328 = DIRECTION ( 'NONE',  ( 1.000000000000000000, 0.000000000000000000, -0.000000000000000000 ) ) ;
#329 = ORIENTED_EDGE ( 'NONE', *, *, #257, .F. ) ;
#330 = CARTESIAN_POINT ( 'NONE',  ( -0.1249999999999998335, -1.530808498934189352E-17, 0.1840551181102356160 ) ) ;
#331 = VERTEX_POINT ( 'NONE', #993 ) ;
#332 = AXIS2_PLACEMENT_3D ( 'NONE', #403, #162, #245 ) ;
#333 = ADVANCED_BREP_SHAPE_REPRESENTATION ( 'Chassis Side Wall', ( #954, #940 ), #98 ) ;
#334 = CARTESIAN_POINT ( 'NONE',  ( -0.6774606288582677438, 0.1155314949999999424, 0.000000000000000000 ) ) ;
#335 = CARTESIAN_POINT ( 'NONE',  ( -0.6105314950000001462, 0.1155314949999999424, 0.2500000000000000000 ) ) ;
#336 = ORIENTED_EDGE ( 'NONE', *, *, #932, .T. ) ;
#337 = DIRECTION ( 'NONE',  ( -0.000000000000000000, -1.000000000000000000, -0.000000000000000000 ) ) ;
#338 = ADVANCED_FACE ( 'NONE', ( #674, #971, #43 ), #819, .F. ) ;
#339 = CARTESIAN_POINT ( 'NONE',  ( -1.139468505000000187, 0.1155314949999999424, 0.2500000000000000000 ) ) ;
#340 = DIRECTION ( 'NONE',  ( -0.000000000000000000, -1.000000000000000000, -0.000000000000000000 ) ) ;
#341 = CIRCLE ( 'NONE', #774, 0.05905511811023579638 ) ;
#342 = AXIS2_PLACEMENT_3D ( 'NONE', #188, #909, #183 ) ;
#343 = DIRECTION ( 'NONE',  ( -0.000000000000000000, -0.000000000000000000, 1.000000000000000000 ) ) ;
#344 = DIRECTION ( 'NONE',  ( 0.000000000000000000, 0.000000000000000000, -1.000000000000000000 ) ) ;
#345 = EDGE_CURVE ( 'NONE', #519, #440, #185, .T. ) ;
#346 = CARTESIAN_POINT ( 'NONE',  ( -1.750000000000000000, -2.143131898507868051E-16, 0.000000000000000000 ) ) ;
#347 = ADVANCED_FACE ( 'NONE', ( #431 ), #524, .F. ) ;
#348 = ORIENTED_EDGE ( 'NONE', *, *, #573, .T. ) ;
#349 = DIRECTION ( 'NONE',  ( 0.000000000000000000, 1.000000000000000000, 0.000000000000000000 ) ) ;
#350 = EDGE_LOOP ( 'NONE', ( #177, #943, #784 ) ) ;
#351 = CARTESIAN_POINT ( 'NONE',  ( -0.1249999999999998335, -1.530808498934189352E-17, 0.06594488188976409260 ) ) ;
#352 = DIRECTION ( 'NONE',  ( -0.000000000000000000, -0.000000000000000000, -1.000000000000000000 ) ) ;
#353 = CIRCLE ( 'NONE', #769, 0.06692913385826758377 ) ;
#354 = ADVANCED_FACE ( 'NONE', ( #902 ), #109, .F. ) ;
#355 = CARTESIAN_POINT ( 'NONE',  ( -1.072539371141732589, 0.1155314949999999424, 0.2500000000000000000 ) ) ;
#356 = CARTESIAN_POINT ( 'NONE',  ( -0.1249999999999999445, 0.5354838948244623476, 0.1249999999999998612 ) ) ;
#357 = ORIENTED_EDGE ( 'NONE', *, *, #968, .F. ) ;
#358 = DIRECTION ( 'NONE',  ( 0.000000000000000000, 1.000000000000000000, 0.000000000000000000 ) ) ;
#359 = CARTESIAN_POINT ( 'NONE',  ( -1.750000000000000000, 1.149999999999999689, 0.000000000000000000 ) ) ;
#360 = CARTESIAN_POINT ( 'NONE',  ( -1.624999999999999778, -2.530052786821154182E-16, 0.1250000000000002498 ) ) ;
#361 = EDGE_LOOP ( 'NONE', ( #698, #10, #731, #1002 ) ) ;
#362 = AXIS2_PLACEMENT_3D ( 'NONE', #930, #782, #230 ) ;
#363 = LINE ( 'NONE', #208, #619 ) ;
#364 = EDGE_LOOP ( 'NONE', ( #579, #120, #748 ) ) ;
#365 = PERSON_AND_ORGANIZATION ( #891, #311 ) ;
#366 = LINE ( 'NONE', #272, #419 ) ;
#367 = ORIENTED_EDGE ( 'NONE', *, *, #606, .T. ) ;
#368 = CARTESIAN_POINT ( 'NONE',  ( -0.5436023611417325485, 0.1155314949999999424, 0.2500000000000000000 ) ) ;
#369 = ORIENTED_EDGE ( 'NONE', *, *, #856, .F. ) ;
#370 = EDGE_CURVE ( 'NONE', #187, #76, #978, .T. ) ;
#371 = APPROVAL_STATUS ( 'not_yet_approved' ) ;
#372 = AXIS2_PLACEMENT_3D ( 'NONE', #1022, #238, #145 ) ;
#373 = CYLINDRICAL_SURFACE ( 'NONE', #775, 0.06692913385826758377 ) ;
#374 = CARTESIAN_POINT ( 'NONE',  ( -1.625000000000000000, 0.6499999999999995781, 0.1840551181102362266 ) ) ;
#375 = ORIENTED_EDGE ( 'NONE', *, *, #327, .T. ) ;
#376 = APPROVAL_ROLE ( '' ) ;
#377 = EDGE_CURVE ( 'NONE', #662, #182, #366, .T. ) ;
#378 = LINE ( 'NONE', #72, #215 ) ;
#379 = PLANE ( 'NONE',  #362 ) ;
#380 = FACE_BOUND ( 'NONE', #998, .T. ) ;
#381 = AXIS2_PLACEMENT_3D ( 'NONE', #533, #994, #770 ) ;
#382 = ORIENTED_EDGE ( 'NONE', *, *, #863, .F. ) ;
#383 = DIRECTION ( 'NONE',  ( -0.000000000000000000, -0.000000000000000000, 1.000000000000000000 ) ) ;
#384 = CARTESIAN_POINT ( 'NONE',  ( 0.000000000000000000, 1.149999999999999911, 0.2500000000000000000 ) ) ;
#385 = DIRECTION ( 'NONE',  ( 0.000000000000000000, -0.000000000000000000, 1.000000000000000000 ) ) ;
#386 = CARTESIAN_POINT ( 'NONE',  ( -1.206397638858267785, 0.6444685050000000803, 0.2500000000000000000 ) ) ;
#387 = VERTEX_POINT ( 'NONE', #751 ) ;
#388 = EDGE_CURVE ( 'NONE', #94, #63, #917, .T. ) ;
#389 = FACE_BOUND ( 'NONE', #995, .T. ) ;
#390 = ORIENTED_EDGE ( 'NONE', *, *, #623, .F. ) ;
#391 = PERSON_AND_ORGANIZATION_ROLE ( 'design_supplier' ) ;
#392 = DIRECTION ( 'NONE',  ( -1.000000000000000000, 0.000000000000000000, 0.000000000000000000 ) ) ;
#393 = DIRECTION ( 'NONE',  ( 0.000000000000000000, 0.5150380749100553768, 0.8571673007021114454 ) ) ;
#394 = EDGE_CURVE ( 'NONE', #310, #542, #506, .T. ) ;
#395 = DIRECTION ( 'NONE',  ( 0.000000000000000000, -0.000000000000000000, 1.000000000000000000 ) ) ;
#396 = EDGE_LOOP ( 'NONE', ( #709, #567 ) ) ;
#397 = AXIS2_PLACEMENT_3D ( 'NONE', #439, #39, #860 ) ;
#398 = CIRCLE ( 'NONE', #381, 0.05905511811023579638 ) ;
#399 = CC_DESIGN_SECURITY_CLASSIFICATION ( #535, ( #82 ) ) ;
#400 = DIRECTION ( 'NONE',  ( 1.000000000000000000, 0.000000000000000000, 0.000000000000000000 ) ) ;
#401 = EDGE_LOOP ( 'NONE', ( #31, #228, #209, #823 ) ) ;
#402 = ADVANCED_FACE ( 'NONE', ( #608 ), #49, .F. ) ;
#403 = CARTESIAN_POINT ( 'NONE',  ( -0.1249999999999998335, 0.5000000000000001110, 0.1249999999999998612 ) ) ;
#404 = EDGE_LOOP ( 'NONE', ( #200, #972, #882, #653 ) ) ;
#405 = EDGE_CURVE ( 'NONE', #450, #196, #353, .T. ) ;
#406 = CARTESIAN_POINT ( 'NONE',  ( -0.1249999999999999584, 1.149999999999999911, 0.1249999999999998612 ) ) ;
#407 = CARTESIAN_POINT ( 'NONE',  ( 0.000000000000000000, 1.149999999999999911, 0.000000000000000000 ) ) ;
#408 = EDGE_LOOP ( 'NONE', ( #278, #806, #816, #743 ) ) ;
#409 = APPROVAL_DATE_TIME ( #555, #87 ) ;
#410 = CIRCLE ( 'NONE', #580, 0.05905511811023579638 ) ;
#411 = VECTOR ( 'NONE', #1011, 39.37007874015748143 ) ;
#412 = CYLINDRICAL_SURFACE ( 'NONE', #671, 0.05905511811023590046 ) ;
#413 = EDGE_CURVE ( 'NONE', #217, #169, #660, .T. ) ;
#414 = EDGE_LOOP ( 'NONE', ( #848, #760 ) ) ;
#415 = DIRECTION ( 'NONE',  ( 1.000000000000000000, 0.000000000000000000, 0.000000000000000000 ) ) ;
#416 = CARTESIAN_POINT ( 'NONE',  ( -1.625000000000000000, 1.149999999999999689, 0.1250000000000002498 ) ) ;
#417 = ORIENTED_EDGE ( 'NONE', *, *, #832, .T. ) ;
#418 = DIRECTION ( 'NONE',  ( 0.000000000000000000, -0.000000000000000000, 1.000000000000000000 ) ) ;
#419 = VECTOR ( 'NONE', #448, 39.37007874015748854 ) ;
#420 = CARTESIAN_POINT ( 'NONE',  ( -0.5436023611417326595, 0.1155314949999999424, 0.2500000000000000000 ) ) ;
#421 = FACE_OUTER_BOUND ( 'NONE', #80, .T. ) ;
#422 = CARTESIAN_POINT ( 'NONE',  ( -0.1249999999999998335, 0.5000000000000001110, 0.1249999999999998612 ) ) ;
#423 = EDGE_LOOP ( 'NONE', ( #158, #329, #726, #478 ) ) ;
#424 = EDGE_CURVE ( 'NONE', #501, #94, #739, .T. ) ;
#425 = CARTESIAN_POINT ( 'NONE',  ( -1.139468505000000187, 0.6444685050000000803, 0.2500000000000000000 ) ) ;
#426 = EDGE_CURVE ( 'NONE', #124, #434, #914, .T. ) ;
#427 = CARTESIAN_POINT ( 'NONE',  ( -1.750000000000000000, -2.143131898507868051E-16, 0.2500000000000000000 ) ) ;
#428 = DIRECTION ( 'NONE',  ( 0.000000000000000000, 0.000000000000000000, 1.000000000000000000 ) ) ;
#429 = CIRCLE ( 'NONE', #296, 0.06692913385826758377 ) ;
#430 = AXIS2_PLACEMENT_3D ( 'NONE', #981, #599, #831 ) ;
#431 = FACE_OUTER_BOUND ( 'NONE', #934, .T. ) ;
#432 = VERTEX_POINT ( 'NONE', #600 ) ;
#433 = CARTESIAN_POINT ( 'NONE',  ( 0.000000000000000000, 0.000000000000000000, 0.000000000000000000 ) ) ;
#434 = VERTEX_POINT ( 'NONE', #359 ) ;
#435 = CARTESIAN_POINT ( 'NONE',  ( -1.625000000000000000, 0.6499999999999995781, 0.1250000000000002498 ) ) ;
#436 = CC_DESIGN_PERSON_AND_ORGANIZATION_ASSIGNMENT ( #160, #391, ( #82 ) ) ;
#437 = CARTESIAN_POINT ( 'NONE',  ( -1.625000000000000000, 0.6499999999999995781, 0.06594488188976423138 ) ) ;
#438 = ORIENTED_EDGE ( 'NONE', *, *, #520, .T. ) ;
#439 = CARTESIAN_POINT ( 'NONE',  ( -1.139468505000000187, 0.6444685050000000803, 0.2500000000000000000 ) ) ;
#440 = VERTEX_POINT ( 'NONE', #812 ) ;
#441 = CARTESIAN_POINT ( 'NONE',  ( 0.000000000000000000, 0.000000000000000000, 0.000000000000000000 ) ) ;
#442 = FACE_BOUND ( 'NONE', #130, .T. ) ;
#443 = DIRECTION ( 'NONE',  ( -0.000000000000000000, 1.000000000000000000, -0.000000000000000000 ) ) ;
#444 = ORIENTED_EDGE ( 'NONE', *, *, #548, .T. ) ;
#445 = CIRCLE ( 'NONE', #184, 0.05905511811023579638 ) ;
#446 = VERTEX_POINT ( 'NONE', #525 ) ;
#447 = APPLICATION_PROTOCOL_DEFINITION ( 'international standard', 'config_control_design', 1994, #786 ) ;
#448 = DIRECTION ( 'NONE',  ( 1.049727191138617093E-16, 0.5150380749100561539, -0.8571673007021108903 ) ) ;
#449 = ADVANCED_FACE ( 'NONE', ( #199 ), #889, .F. ) ;
#450 = VERTEX_POINT ( 'NONE', #594 ) ;
#451 = LOCAL_TIME ( 20, 58, 4.000000000000000000, #919 ) ;
#452 = ORIENTED_EDGE ( 'NONE', *, *, #233, .F. ) ;
#453 = APPROVAL_DATE_TIME ( #210, #800 ) ;
#454 = CARTESIAN_POINT ( 'NONE',  ( -1.625000000000000000, 1.149999999999999689, 0.1250000000000002498 ) ) ;
#455 = APPROVAL ( #164, 'UNSPECIFIED' ) ;
#456 = DIRECTION ( 'NONE',  ( 1.000000000000000000, 0.000000000000000000, 0.000000000000000000 ) ) ;
#457 = ORIENTED_EDGE ( 'NONE', *, *, #675, .T. ) ;
#458 =( NAMED_UNIT ( * ) PLANE_ANGLE_UNIT ( ) SI_UNIT ( $, .RADIAN. ) );
#459 = DIRECTION ( 'NONE',  ( -0.000000000000000000, 1.000000000000000000, -0.000000000000000000 ) ) ;
#460 = ORIENTED_EDGE ( 'NONE', *, *, #890, .T. ) ;
#461 = DIRECTION ( 'NONE',  ( -0.000000000000000000, 1.000000000000000000, -0.000000000000000000 ) ) ;
#462 = DIRECTION ( 'NONE',  ( 0.000000000000000000, 0.000000000000000000, -1.000000000000000000 ) ) ;
#463 = VECTOR ( 'NONE', #268, 39.37007874015748143 ) ;
#464 = VECTOR ( 'NONE', #270, 39.37007874015748143 ) ;
#465 = EDGE_LOOP ( 'NONE', ( #367, #460 ) ) ;
#466 = DIRECTION ( 'NONE',  ( -0.000000000000000000, -0.000000000000000000, 1.000000000000000000 ) ) ;
#467 = CC_DESIGN_DATE_AND_TIME_ASSIGNMENT ( #218, #768, ( #117 ) ) ;
#468 = LINE ( 'NONE', #640, #845 ) ;
#469 = ORIENTED_EDGE ( 'NONE', *, *, #832, .F. ) ;
#470 = SECURITY_CLASSIFICATION_LEVEL ( 'unclassified' ) ;
#471 = DIRECTION ( 'NONE',  ( 0.000000000000000000, 0.000000000000000000, -1.000000000000000000 ) ) ;
#472 = ADVANCED_FACE ( 'NONE', ( #205, #442, #901, #838, #982, #421 ), #750, .F. ) ;
#473 = FACE_OUTER_BOUND ( 'NONE', #202, .T. ) ;
#474 = DIRECTION ( 'NONE',  ( 0.000000000000000000, 0.000000000000000000, 1.000000000000000000 ) ) ;
#475 = AXIS2_PLACEMENT_3D ( 'NONE', #957, #5, #960 ) ;
#476 = PRODUCT_DEFINITION_SHAPE ( 'NONE', 'NONE',  #117 ) ;
#477 = DIRECTION ( 'NONE',  ( -0.000000000000000000, 1.000000000000000000, -0.000000000000000000 ) ) ;
#478 = ORIENTED_EDGE ( 'NONE', *, *, #658, .T. ) ;
#479 = CARTESIAN_POINT ( 'NONE',  ( -1.624999999999999778, -2.530052786821154182E-16, 0.1840551181102359768 ) ) ;
#480 = AXIS2_PLACEMENT_3D ( 'NONE', #921, #214, #344 ) ;
#481 = VECTOR ( 'NONE', #294, 39.37007874015748143 ) ;
#482 = LINE ( 'NONE', #330, #141 ) ;
#483 = ORIENTED_EDGE ( 'NONE', *, *, #984, .T. ) ;
#484 = CIRCLE ( 'NONE', #129, 0.05905511811023572699 ) ;
#485 = LOCAL_TIME ( 20, 58, 4.000000000000000000, #797 ) ;
#486 = CYLINDRICAL_SURFACE ( 'NONE', #947, 0.2780511800000000644 ) ;
#487 = CARTESIAN_POINT ( 'NONE',  ( -1.750000000000000000, -2.143131898507868051E-16, 0.2500000000000000000 ) ) ;
#488 = ORIENTED_EDGE ( 'NONE', *, *, #155, .T. ) ;
#489 = EDGE_CURVE ( 'NONE', #985, #169, #484, .T. ) ;
#490 = DIRECTION ( 'NONE',  ( 1.000000000000000000, 0.000000000000000000, 0.000000000000000000 ) ) ;
#491 = DIRECTION ( 'NONE',  ( -0.000000000000000000, -0.000000000000000000, 1.000000000000000000 ) ) ;
#492 = EDGE_LOOP ( 'NONE', ( #264, #1014 ) ) ;
#493 = AXIS2_PLACEMENT_3D ( 'NONE', #335, #576, #490 ) ;
#494 = FACE_OUTER_BOUND ( 'NONE', #142, .T. ) ;
#495 = ADVANCED_FACE ( 'NONE', ( #587 ), #66, .F. ) ;
#496 = DIRECTION ( 'NONE',  ( 0.000000000000000000, 0.000000000000000000, 1.000000000000000000 ) ) ;
#497 = ORIENTED_EDGE ( 'NONE', *, *, #746, .T. ) ;
#498 = CARTESIAN_POINT ( 'NONE',  ( -1.072539371141732589, 0.6444685050000000803, 0.000000000000000000 ) ) ;
#499 = VECTOR ( 'NONE', #198, 39.37007874015748143 ) ;
#500 = CARTESIAN_POINT ( 'NONE',  ( -1.072539371141732589, 0.1155314949999999424, 0.000000000000000000 ) ) ;
#501 = VERTEX_POINT ( 'NONE', #29 ) ;
#502 = DIRECTION ( 'NONE',  ( -0.000000000000000000, -0.000000000000000000, 1.000000000000000000 ) ) ;
#503 = DIRECTION ( 'NONE',  ( 0.000000000000000000, -0.5150380749100571531, -0.8571673007021105573 ) ) ;
#504 = ADVANCED_FACE ( 'NONE', ( #851 ), #780, .F. ) ;
#505 = ORIENTED_EDGE ( 'NONE', *, *, #212, .T. ) ;
#506 = CIRCLE ( 'NONE', #544, 0.05905511811023572699 ) ;
#507 = DIRECTION ( 'NONE',  ( 0.000000000000000000, 0.5150380749100561539, 0.8571673007021108903 ) ) ;
#508 = DIRECTION ( 'NONE',  ( 1.000000000000000000, 0.000000000000000000, 0.000000000000000000 ) ) ;
#509 = CIRCLE ( 'NONE', #733, 0.06692913385826765316 ) ;
#510 = DIRECTION ( 'NONE',  ( 1.561055996379578982E-16, -1.000000000000000000, 0.000000000000000000 ) ) ;
#511 = EDGE_LOOP ( 'NONE', ( #18, #90, #375 ) ) ;
#512 = EDGE_CURVE ( 'NONE', #627, #779, #165, .T. ) ;
#513 = DIRECTION ( 'NONE',  ( 1.000000000000000000, 0.000000000000000000, 0.000000000000000000 ) ) ;
#514 = VERTEX_POINT ( 'NONE', #54 ) ;
#515 = CARTESIAN_POINT ( 'NONE',  ( -1.139468505000000187, 0.1155314949999999424, 0.2500000000000000000 ) ) ;
#516 = AXIS2_PLACEMENT_3D ( 'NONE', #127, #728, #15 ) ;
#517 = CIRCLE ( 'NONE', #696, 0.05905511811023572699 ) ;
#518 = ORIENTED_EDGE ( 'NONE', *, *, #948, .T. ) ;
#519 = VERTEX_POINT ( 'NONE', #992 ) ;
#520 = EDGE_CURVE ( 'NONE', #63, #94, #649, .T. ) ;
#521 = CARTESIAN_POINT ( 'NONE',  ( -0.5436023611417326595, 0.6444685050000000803, 0.2500000000000000000 ) ) ;
#522 = ORIENTED_EDGE ( 'NONE', *, *, #489, .F. ) ;
#523 = ORIENTED_EDGE ( 'NONE', *, *, #426, .T. ) ;
#524 = CONICAL_SURFACE ( 'NONE', #287, 0.05905511811023572699, 1.029744258676650093 ) ;
#525 = CARTESIAN_POINT ( 'NONE',  ( -0.5436023611417325485, 0.6444685050000000803, 0.2500000000000000000 ) ) ;
#526 = EDGE_CURVE ( 'NONE', #182, #840, #378, .T. ) ;
#527 = DIRECTION ( 'NONE',  ( -0.000000000000000000, -1.000000000000000000, -0.000000000000000000 ) ) ;
#528 = LINE ( 'NONE', #758, #211 ) ;
#529 = FACE_OUTER_BOUND ( 'NONE', #138, .T. ) ;
#530 = EDGE_LOOP ( 'NONE', ( #841, #547, #718, #523 ) ) ;
#531 =( NAMED_UNIT ( * ) SI_UNIT ( $, .STERADIAN. ) SOLID_ANGLE_UNIT ( ) );
#532 = AXIS2_PLACEMENT_3D ( 'NONE', #65, #229, #234 ) ;
#533 = CARTESIAN_POINT ( 'NONE',  ( -0.1249999999999998335, -6.930825881001249877E-17, 0.1249999999999998612 ) ) ;
#534 = ORIENTED_EDGE ( 'NONE', *, *, #977, .F. ) ;
#535 = SECURITY_CLASSIFICATION ( '', '', #470 ) ;
#536 = LINE ( 'NONE', #295, #250 ) ;
#537 = ORIENTED_EDGE ( 'NONE', *, *, #652, .T. ) ;
#538 = PERSON_AND_ORGANIZATION ( #891, #311 ) ;
#539 = ADVANCED_FACE ( 'NONE', ( #494 ), #244, .F. ) ;
#540 = DIRECTION ( 'NONE',  ( 0.000000000000000000, -0.000000000000000000, 1.000000000000000000 ) ) ;
#541 = ADVANCED_FACE ( 'NONE', ( #249 ), #570, .T. ) ;
#542 = VERTEX_POINT ( 'NONE', #479 ) ;
#543 = VECTOR ( 'NONE', #207, 39.37007874015748143 ) ;
#544 = AXIS2_PLACEMENT_3D ( 'NONE', #360, #283, #685 ) ;
#545 = DIRECTION ( 'NONE',  ( -0.000000000000000000, 1.000000000000000000, -0.000000000000000000 ) ) ;
#546 = DIRECTION ( 'NONE',  ( -0.000000000000000000, 1.000000000000000000, -0.000000000000000000 ) ) ;
#547 = ORIENTED_EDGE ( 'NONE', *, *, #904, .F. ) ;
#548 = EDGE_CURVE ( 'NONE', #387, #239, #341, .T. ) ;
#549 = CARTESIAN_POINT ( 'NONE',  ( -0.5969488199999999356, 0.3799999999999999489, 0.2500000000000000000 ) ) ;
#550 = CARTESIAN_POINT ( 'NONE',  ( -1.625000000000000000, 0.6499999999999995781, 0.1250000000000002498 ) ) ;
#551 = CARTESIAN_POINT ( 'NONE',  ( -0.8750000000000000000, 0.3799999999999999489, 0.2500000000000000000 ) ) ;
#552 = CIRCLE ( 'NONE', #97, 0.06692913385826765316 ) ;
#553 = AXIS2_PLACEMENT_3D ( 'NONE', #593, #668, #817 ) ;
#554 = VERTEX_POINT ( 'NONE', #933 ) ;
#555 = DATE_AND_TIME ( #81, #485 ) ;
#556 = ADVANCED_FACE ( 'NONE', ( #559 ), #997, .F. ) ;
#557 = CARTESIAN_POINT ( 'NONE',  ( -0.8750000000000000000, 0.3799999999999999489, 0.000000000000000000 ) ) ;
#558 = DIRECTION ( 'NONE',  ( 0.000000000000000000, 0.000000000000000000, 1.000000000000000000 ) ) ;
#559 = FACE_OUTER_BOUND ( 'NONE', #861, .T. ) ;
#560 = ORIENTED_EDGE ( 'NONE', *, *, #345, .F. ) ;
#561 = DIRECTION ( 'NONE',  ( 0.000000000000000000, 0.000000000000000000, 1.000000000000000000 ) ) ;
#562 = EDGE_CURVE ( 'NONE', #627, #248, #615, .T. ) ;
#563 = DIRECTION ( 'NONE',  ( 0.000000000000000000, 0.000000000000000000, 1.000000000000000000 ) ) ;
#564 = AXIS2_PLACEMENT_3D ( 'NONE', #740, #527, #976 ) ;
#565 = ORIENTED_EDGE ( 'NONE', *, *, #968, .T. ) ;
#566 = FACE_OUTER_BOUND ( 'NONE', #906, .T. ) ;
#567 = ORIENTED_EDGE ( 'NONE', *, *, #724, .T. ) ;
#568 = AXIS2_PLACEMENT_3D ( 'NONE', #425, #899, #513 ) ;
#569 = VECTOR ( 'NONE', #358, 39.37007874015748143 ) ;
#570 = PLANE ( 'NONE',  #792 ) ;
#571 = CARTESIAN_POINT ( 'NONE',  ( -0.8750000000000000000, 0.3799999999999999489, -3.937007874016270969E-05 ) ) ;
#572 = VERTEX_POINT ( 'NONE', #75 ) ;
#573 = EDGE_CURVE ( 'NONE', #682, #572, #777, .T. ) ;
#574 = PERSON_AND_ORGANIZATION ( #891, #311 ) ;
#575 = CARTESIAN_POINT ( 'NONE',  ( -1.624999999999999778, -2.530052786821154182E-16, 0.1250000000000002498 ) ) ;
#576 = DIRECTION ( 'NONE',  ( -0.000000000000000000, -0.000000000000000000, 1.000000000000000000 ) ) ;
#577 = ORIENTED_EDGE ( 'NONE', *, *, #1006, .T. ) ;
#578 = CARTESIAN_POINT ( 'NONE',  ( -1.624999999999999778, 0.4999999999999999445, 0.1250000000000002498 ) ) ;
#579 = ORIENTED_EDGE ( 'NONE', *, *, #732, .F. ) ;
#580 = AXIS2_PLACEMENT_3D ( 'NONE', #772, #546, #854 ) ;
#581 = EDGE_CURVE ( 'NONE', #63, #187, #764, .T. ) ;
#582 = DIRECTION ( 'NONE',  ( -1.000000000000000000, -1.561055996379578982E-16, 0.000000000000000000 ) ) ;
#583 = LOCAL_TIME ( 20, 58, 4.000000000000000000, #139 ) ;
#584 = CARTESIAN_POINT ( 'NONE',  ( -0.6105314950000001462, 0.1155314949999999424, 0.2500000000000000000 ) ) ;
#585 = ORIENTED_EDGE ( 'NONE', *, *, #316, .F. ) ;
#586 = CARTESIAN_POINT ( 'NONE',  ( -0.6105314950000001462, 0.1155314949999999424, 0.2500000000000000000 ) ) ;
#587 = FACE_OUTER_BOUND ( 'NONE', #702, .T. ) ;
#588 = DIRECTION ( 'NONE',  ( -0.000000000000000000, -1.000000000000000000, -0.000000000000000000 ) ) ;
#589 = ORIENTED_EDGE ( 'NONE', *, *, #884, .T. ) ;
#590 = CYLINDRICAL_SURFACE ( 'NONE', #150, 0.05905511811023572699 ) ;
#591 = ORIENTED_EDGE ( 'NONE', *, *, #424, .T. ) ;
#592 = CIRCLE ( 'NONE', #37, 0.05905511811023572699 ) ;
#593 = CARTESIAN_POINT ( 'NONE',  ( -1.139468505000000187, 0.6444685050000000803, 0.2500000000000000000 ) ) ;
#594 = CARTESIAN_POINT ( 'NONE',  ( -1.206397638858267785, 0.1155314949999999424, 0.000000000000000000 ) ) ;
#595 = EDGE_CURVE ( 'NONE', #893, #434, #536, .T. ) ;
#596 = VERTEX_POINT ( 'NONE', #487 ) ;
#597 = DIRECTION ( 'NONE',  ( -0.000000000000000000, -1.000000000000000000, -0.000000000000000000 ) ) ;
#598 = VERTEX_POINT ( 'NONE', #407 ) ;
#599 = DIRECTION ( 'NONE',  ( -0.000000000000000000, -1.000000000000000000, -0.000000000000000000 ) ) ;
#600 = CARTESIAN_POINT ( 'NONE',  ( 0.000000000000000000, 0.000000000000000000, 0.2500000000000000000 ) ) ;
#601 = VECTOR ( 'NONE', #349, 39.37007874015748143 ) ;
#602 = VECTOR ( 'NONE', #282, 39.37007874015748143 ) ;
#603 = CARTESIAN_POINT ( 'NONE',  ( 0.000000000000000000, 1.149999999999999911, 0.2500000000000000000 ) ) ;
#604 = VERTEX_POINT ( 'NONE', #99 ) ;
#605 = ORIENTED_EDGE ( 'NONE', *, *, #757, .F. ) ;
#606 = EDGE_CURVE ( 'NONE', #554, #928, #194, .T. ) ;
#607 = CARTESIAN_POINT ( 'NONE',  ( -1.624999999999999778, 0.4999999999999999445, 0.1840551181102359768 ) ) ;
#608 = FACE_OUTER_BOUND ( 'NONE', #735, .T. ) ;
#609 = ORIENTED_EDGE ( 'NONE', *, *, #675, .F. ) ;
#610 = ORIENTED_EDGE ( 'NONE', *, *, #856, .T. ) ;
#611 = APPROVAL_ROLE ( '' ) ;
#612 = EDGE_CURVE ( 'NONE', #542, #310, #842, .T. ) ;
#613 = VECTOR ( 'NONE', #711, 39.37007874015748143 ) ;
#614 = EDGE_LOOP ( 'NONE', ( #560, #754, #610, #537 ) ) ;
#615 = LINE ( 'NONE', #632, #261 ) ;
#616 = ORIENTED_EDGE ( 'NONE', *, *, #1012, .T. ) ;
#617 = CALENDAR_DATE ( 2026, 27, 4 ) ;
#618 = EDGE_CURVE ( 'NONE', #450, #923, #322, .T. ) ;
#619 = VECTOR ( 'NONE', #274, 39.37007874015748143 ) ;
#620 = CC_DESIGN_APPROVAL ( #87, ( #82 ) ) ;
#621 = CARTESIAN_POINT ( 'NONE',  ( -0.1249999999999998335, 0.5000000000000001110, 0.1840551181102355882 ) ) ;
#622 = ORIENTED_EDGE ( 'NONE', *, *, #132, .F. ) ;
#623 = EDGE_CURVE ( 'NONE', #331, #24, #363, .T. ) ;
#624 = DIRECTION ( 'NONE',  ( -0.000000000000000000, -1.000000000000000000, -0.000000000000000000 ) ) ;
#625 = DIRECTION ( 'NONE',  ( 0.000000000000000000, 0.000000000000000000, -1.000000000000000000 ) ) ;
#626 = CARTESIAN_POINT ( 'NONE',  ( -1.624999999999999778, 0.4999999999999999445, 0.1840551181102359768 ) ) ;
#627 = VERTEX_POINT ( 'NONE', #753 ) ;
#628 = CARTESIAN_POINT ( 'NONE',  ( -0.8750000000000000000, 0.3799999999999999489, -3.937007874016270969E-05 ) ) ;
#629 = AXIS2_PLACEMENT_3D ( 'NONE', #416, #791, #809 ) ;
#630 = CARTESIAN_POINT ( 'NONE',  ( -1.625000000000000000, 0.6499999999999995781, 0.06594488188976423138 ) ) ;
#631 = ADVANCED_FACE ( 'NONE', ( #529 ), #590, .F. ) ;
#632 = CARTESIAN_POINT ( 'NONE',  ( -1.153051180000000064, 0.3799999999999999489, -3.937007874016270969E-05 ) ) ;
#633 = ORIENTED_EDGE ( 'NONE', *, *, #36, .F. ) ;
#634 = AXIS2_PLACEMENT_3D ( 'NONE', #691, #540, #706 ) ;
#635 = CARTESIAN_POINT ( 'NONE',  ( -0.5969488199999999356, 0.3799999999999999489, -3.937007874016270969E-05 ) ) ;
#636 = CARTESIAN_POINT ( 'NONE',  ( -1.624999999999999778, 0.4999999999999999445, 0.1250000000000002498 ) ) ;
#637 = CONICAL_SURFACE ( 'NONE', #430, 0.05905511811023572699, 1.029744258676650093 ) ;
#638 = ORIENTED_EDGE ( 'NONE', *, *, #1012, .F. ) ;
#639 = COORDINATED_UNIVERSAL_TIME_OFFSET ( 8, 0, .BEHIND. ) ;
#640 = CARTESIAN_POINT ( 'NONE',  ( -1.624999999999999778, -1.990051048614448376E-16, 0.1840551181102359768 ) ) ;
#641 = EDGE_LOOP ( 'NONE', ( #835, #872, #86, #390 ) ) ;
#642 = CARTESIAN_POINT ( 'NONE',  ( -1.750000000000000000, -2.143131898507868051E-16, 0.2500000000000000000 ) ) ;
#643 = CC_DESIGN_PERSON_AND_ORGANIZATION_ASSIGNMENT ( #254, #713, ( #82 ) ) ;
#644 = CARTESIAN_POINT ( 'NONE',  ( -1.624999999999999778, -2.530052786821154182E-16, 0.06594488188976450893 ) ) ;
#645 = VERTEX_POINT ( 'NONE', #368 ) ;
#646 = SHAPE_DEFINITION_REPRESENTATION ( #476, #333 ) ;
#647 = FACE_OUTER_BOUND ( 'NONE', #361, .T. ) ;
#648 = VERTEX_POINT ( 'NONE', #356 ) ;
#649 = CIRCLE ( 'NONE', #707, 0.05905511811023600455 ) ;
#650 = VECTOR ( 'NONE', #973, 39.37007874015748143 ) ;
#651 = CARTESIAN_POINT ( 'NONE',  ( -1.625000000000000000, 1.149999999999999689, 0.06594488188976437015 ) ) ;
#652 = EDGE_CURVE ( 'NONE', #446, #440, #552, .T. ) ;
#653 = ORIENTED_EDGE ( 'NONE', *, *, #174, .T. ) ;
#654 = UNCERTAINTY_MEASURE_WITH_UNIT (LENGTH_MEASURE( 1.000000000000000082E-05 ), #849, 'distance_accuracy_value', 'NONE');
#655 = CARTESIAN_POINT ( 'NONE',  ( -1.139468505000000187, 0.6444685050000000803, 0.000000000000000000 ) ) ;
#656 = VECTOR ( 'NONE', #352, 39.37007874015748143 ) ;
#657 = ORIENTED_EDGE ( 'NONE', *, *, #932, .F. ) ;
#658 = EDGE_CURVE ( 'NONE', #604, #572, #736, .T. ) ;
#659 = CARTESIAN_POINT ( 'NONE',  ( -1.206397638858267785, 0.1155314949999999424, 0.2500000000000000000 ) ) ;
#660 = LINE ( 'NONE', #964, #320 ) ;
#661 = DIRECTION ( 'NONE',  ( -0.000000000000000000, 1.000000000000000000, -0.000000000000000000 ) ) ;
#662 = VERTEX_POINT ( 'NONE', #822 ) ;
#663 = APPROVAL_PERSON_ORGANIZATION ( #538, #87, #376 ) ;
#664 = FACE_OUTER_BOUND ( 'NONE', #802, .T. ) ;
#665 = DIRECTION ( 'NONE',  ( 0.000000000000000000, 0.000000000000000000, -1.000000000000000000 ) ) ;
#666 = DIRECTION ( 'NONE',  ( 1.000000000000000000, 1.561055996379578982E-16, 0.000000000000000000 ) ) ;
#667 = VERTEX_POINT ( 'NONE', #433 ) ;
#668 = DIRECTION ( 'NONE',  ( -0.000000000000000000, -0.000000000000000000, 1.000000000000000000 ) ) ;
#669 = ORIENTED_EDGE ( 'NONE', *, *, #870, .F. ) ;
#670 = ORIENTED_EDGE ( 'NONE', *, *, #652, .F. ) ;
#671 = AXIS2_PLACEMENT_3D ( 'NONE', #406, #721, #496 ) ;
#672 = FACE_OUTER_BOUND ( 'NONE', #259, .T. ) ;
#673 = CARTESIAN_POINT ( 'NONE',  ( -0.6105314950000001462, 0.1155314949999999424, 0.2500000000000000000 ) ) ;
#674 = FACE_BOUND ( 'NONE', #492, .T. ) ;
#675 = EDGE_CURVE ( 'NONE', #432, #773, #742, .T. ) ;
#676 = ORIENTED_EDGE ( 'NONE', *, *, #1018, .F. ) ;
#677 = APPLICATION_CONTEXT ( 'configuration controlled 3d designs of mechanical parts and assemblies' ) ;
#678 = CIRCLE ( 'NONE', #634, 0.06692913385826758377 ) ;
#679 = ORIENTED_EDGE ( 'NONE', *, *, #744, .F. ) ;
#680 = LINE ( 'NONE', #988, #602 ) ;
#681 = AXIS2_PLACEMENT_3D ( 'NONE', #673, #107, #508 ) ;
#682 = VERTEX_POINT ( 'NONE', #905 ) ;
#683 = ADVANCED_FACE ( 'NONE', ( #195 ), #829, .F. ) ;
#684 = FACE_OUTER_BOUND ( 'NONE', #408, .T. ) ;
#685 = DIRECTION ( 'NONE',  ( 0.000000000000000000, 0.000000000000000000, -1.000000000000000000 ) ) ;
#686 = EDGE_LOOP ( 'NONE', ( #253, #534 ) ) ;
#687 = DIRECTION ( 'NONE',  ( -0.000000000000000000, -0.000000000000000000, 1.000000000000000000 ) ) ;
#688 = EDGE_LOOP ( 'NONE', ( #898, #58 ) ) ;
#689 = PERSON_AND_ORGANIZATION_ROLE ( 'design_owner' ) ;
#690 = CIRCLE ( 'NONE', #206, 0.06692913385826758377 ) ;
#691 = CARTESIAN_POINT ( 'NONE',  ( -0.6105314950000001462, 0.6444685050000000803, 0.000000000000000000 ) ) ;
#692 = EDGE_LOOP ( 'NONE', ( #273, #886 ) ) ;
#693 = CARTESIAN_POINT ( 'NONE',  ( -1.624999999999999778, -1.990051048614448376E-16, 0.06594488188976450893 ) ) ;
#694 = CC_DESIGN_PERSON_AND_ORGANIZATION_ASSIGNMENT ( #321, #862, ( #535 ) ) ;
#695 = AXIS2_PLACEMENT_3D ( 'NONE', #944, #317, #471 ) ;
#696 = AXIS2_PLACEMENT_3D ( 'NONE', #305, #765, #462 ) ;
#697 = LINE ( 'NONE', #374, #962 ) ;
#698 = ORIENTED_EDGE ( 'NONE', *, *, #186, .F. ) ;
#699 = CARTESIAN_POINT ( 'NONE',  ( -0.6774606288582677438, 0.1155314949999999424, 0.2500000000000000000 ) ) ;
#700 = DIRECTION ( 'NONE',  ( -0.000000000000000000, 1.000000000000000000, -0.000000000000000000 ) ) ;
#701 = DIRECTION ( 'NONE',  ( 1.000000000000000000, 0.000000000000000000, 0.000000000000000000 ) ) ;
#702 = EDGE_LOOP ( 'NONE', ( #232, #837, #903 ) ) ;
#703 = DIRECTION ( 'NONE',  ( 0.000000000000000000, 0.000000000000000000, 1.000000000000000000 ) ) ;
#704 = DIRECTION ( 'NONE',  ( -0.000000000000000000, -0.000000000000000000, 1.000000000000000000 ) ) ;
#705 = ORIENTED_EDGE ( 'NONE', *, *, #28, .T. ) ;
#706 = DIRECTION ( 'NONE',  ( 1.000000000000000000, 0.000000000000000000, 0.000000000000000000 ) ) ;
#707 = AXIS2_PLACEMENT_3D ( 'NONE', #550, #61, #286 ) ;
#708 = CIRCLE ( 'NONE', #553, 0.06692913385826758377 ) ;
#709 = ORIENTED_EDGE ( 'NONE', *, *, #95, .T. ) ;
#710 = CC_DESIGN_PERSON_AND_ORGANIZATION_ASSIGNMENT ( #47, #689, ( #312 ) ) ;
#711 = DIRECTION ( 'NONE',  ( -0.000000000000000000, 1.000000000000000000, -0.000000000000000000 ) ) ;
#712 = EDGE_LOOP ( 'NONE', ( #670, #284 ) ) ;
#713 = PERSON_AND_ORGANIZATION_ROLE ( 'creator' ) ;
#714 = ADVANCED_FACE ( 'NONE', ( #866 ), #279, .F. ) ;
#715 = DIRECTION ( 'NONE',  ( 0.000000000000000000, 0.000000000000000000, 1.000000000000000000 ) ) ;
#716 = CIRCLE ( 'NONE', #4, 0.05905511811023603230 ) ;
#717 = CYLINDRICAL_SURFACE ( 'NONE', #826, 0.06692913385826758377 ) ;
#718 = ORIENTED_EDGE ( 'NONE', *, *, #926, .T. ) ;
#719 = CALENDAR_DATE ( 2026, 27, 4 ) ;
#720 = EDGE_CURVE ( 'NONE', #840, #24, #410, .T. ) ;
#721 = DIRECTION ( 'NONE',  ( -0.000000000000000000, 1.000000000000000000, -0.000000000000000000 ) ) ;
#722 = ORIENTED_EDGE ( 'NONE', *, *, #794, .F. ) ;
#723 = VECTOR ( 'NONE', #582, 39.37007874015748143 ) ;
#724 = EDGE_CURVE ( 'NONE', #519, #33, #429, .T. ) ;
#725 = CARTESIAN_POINT ( 'NONE',  ( -1.625000000000000000, 1.149999999999999689, 0.1840551181102359768 ) ) ;
#726 = ORIENTED_EDGE ( 'NONE', *, *, #870, .T. ) ;
#727 = CARTESIAN_POINT ( 'NONE',  ( 0.000000000000000000, 0.000000000000000000, 0.2500000000000000000 ) ) ;
#728 = DIRECTION ( 'NONE',  ( 0.000000000000000000, -0.000000000000000000, 1.000000000000000000 ) ) ;
#729 = FACE_OUTER_BOUND ( 'NONE', #110, .T. ) ;
#730 = AXIS2_PLACEMENT_3D ( 'NONE', #603, #510, #666 ) ;
#731 = ORIENTED_EDGE ( 'NONE', *, *, #581, .T. ) ;
#732 = EDGE_CURVE ( 'NONE', #217, #985, #302, .T. ) ;
#733 = AXIS2_PLACEMENT_3D ( 'NONE', #941, #704, #304 ) ;
#734 = DIRECTION ( 'NONE',  ( 0.000000000000000000, 0.000000000000000000, 1.000000000000000000 ) ) ;
#735 = EDGE_LOOP ( 'NONE', ( #912, #616, #483, #357 ) ) ;
#736 = CIRCLE ( 'NONE', #568, 0.06692913385826758377 ) ;
#737 = AXIS2_PLACEMENT_3D ( 'NONE', #586, #466, #126 ) ;
#738 = CYLINDRICAL_SURFACE ( 'NONE', #9, 0.06692913385826758377 ) ;
#739 = LINE ( 'NONE', #437, #77 ) ;
#740 = CARTESIAN_POINT ( 'NONE',  ( -0.1249999999999998335, -1.530808498934189352E-17, 0.1249999999999998612 ) ) ;
#741 = ORIENTED_EDGE ( 'NONE', *, *, #8, .T. ) ;
#742 = LINE ( 'NONE', #32, #601 ) ;
#743 = ORIENTED_EDGE ( 'NONE', *, *, #757, .T. ) ;
#744 = EDGE_CURVE ( 'NONE', #779, #627, #1004, .T. ) ;
#745 = CARTESIAN_POINT ( 'NONE',  ( -0.6105314950000001462, 0.1155314949999999424, 0.000000000000000000 ) ) ;
#746 = EDGE_CURVE ( 'NONE', #281, #514, #517, .T. ) ;
#747 = ORIENTED_EDGE ( 'NONE', *, *, #724, .F. ) ;
#748 = ORIENTED_EDGE ( 'NONE', *, *, #252, .T. ) ;
#749 = LINE ( 'NONE', #427, #925 ) ;
#750 = PLANE ( 'NONE',  #516 ) ;
#751 = CARTESIAN_POINT ( 'NONE',  ( -0.1249999999999998335, -6.930825881001249877E-17, 0.06594488188976406484 ) ) ;
#752 = EDGE_LOOP ( 'NONE', ( #457, #518, #810, #382 ) ) ;
#753 = CARTESIAN_POINT ( 'NONE',  ( -1.153051180000000064, 0.3799999999999999489, 0.000000000000000000 ) ) ;
#754 = ORIENTED_EDGE ( 'NONE', *, *, #95, .F. ) ;
#755 = AXIS2_PLACEMENT_3D ( 'NONE', #1023, #146, #456 ) ;
#756 = DIRECTION ( 'NONE',  ( 0.000000000000000000, 0.000000000000000000, 1.000000000000000000 ) ) ;
#757 = EDGE_CURVE ( 'NONE', #986, #248, #297, .T. ) ;
#758 = CARTESIAN_POINT ( 'NONE',  ( 0.000000000000000000, 1.149999999999999911, 0.000000000000000000 ) ) ;
#759 = CARTESIAN_POINT ( 'NONE',  ( -0.6105314950000001462, 0.6444685050000000803, 0.2500000000000000000 ) ) ;
#760 = ORIENTED_EDGE ( 'NONE', *, *, #132, .T. ) ;
#761 = APPLICATION_PROTOCOL_DEFINITION ( 'international standard', 'config_control_design', 1994, #677 ) ;
#762 = DIRECTION ( 'NONE',  ( 1.000000000000000000, 0.000000000000000000, 0.000000000000000000 ) ) ;
#763 = DIRECTION ( 'NONE',  ( 1.049727191138615861E-16, -0.5150380749100579303, 0.8571673007021100021 ) ) ;
#764 = LINE ( 'NONE', #865, #113 ) ;
#765 = DIRECTION ( 'NONE',  ( -0.000000000000000000, -1.000000000000000000, -0.000000000000000000 ) ) ;
#766 = ORIENTED_EDGE ( 'NONE', *, *, #149, .F. ) ;
#767 = ADVANCED_FACE ( 'NONE', ( #85 ), #717, .F. ) ;
#768 = DATE_TIME_ROLE ( 'creation_date' ) ;
#769 = AXIS2_PLACEMENT_3D ( 'NONE', #42, #970, #35 ) ;
#770 = DIRECTION ( 'NONE',  ( 0.000000000000000000, 0.000000000000000000, -1.000000000000000000 ) ) ;
#771 = FACE_BOUND ( 'NONE', #688, .T. ) ;
#772 = CARTESIAN_POINT ( 'NONE',  ( -0.1249999999999999584, 1.149999999999999911, 0.1249999999999998612 ) ) ;
#773 = VERTEX_POINT ( 'NONE', #384 ) ;
#774 = AXIS2_PLACEMENT_3D ( 'NONE', #1019, #1008, #625 ) ;
#775 = AXIS2_PLACEMENT_3D ( 'NONE', #288, #213, #762 ) ;
#776 = DIRECTION ( 'NONE',  ( 1.000000000000000000, 0.000000000000000000, 0.000000000000000000 ) ) ;
#777 = LINE ( 'NONE', #386, #235 ) ;
#778 = CARTESIAN_POINT ( 'NONE',  ( -0.8750000000000000000, 0.3799999999999999489, 0.2500000000000000000 ) ) ;
#779 = VERTEX_POINT ( 'NONE', #133 ) ;
#780 = CYLINDRICAL_SURFACE ( 'NONE', #532, 0.06692913385826758377 ) ;
#781 = ADVANCED_FACE ( 'NONE', ( #237, #936, #152 ), #379, .T. ) ;
#782 = DIRECTION ( 'NONE',  ( 1.224646799147353207E-16, -1.000000000000000000, 0.000000000000000000 ) ) ;
#783 = FACE_BOUND ( 'NONE', #686, .T. ) ;
#784 = ORIENTED_EDGE ( 'NONE', *, *, #489, .T. ) ;
#785 = AXIS2_PLACEMENT_3D ( 'NONE', #263, #93, #328 ) ;
#786 = APPLICATION_CONTEXT ( 'configuration controlled 3d designs of mechanical parts and assemblies' ) ;
#787 = EDGE_CURVE ( 'NONE', #196, #450, #887, .T. ) ;
#788 = CARTESIAN_POINT ( 'NONE',  ( 0.000000000000000000, 0.000000000000000000, 0.000000000000000000 ) ) ;
#789 = ORIENTED_EDGE ( 'NONE', *, *, #581, .F. ) ;
#790 = AXIS2_PLACEMENT_3D ( 'NONE', #454, #545, #558 ) ;
#791 = DIRECTION ( 'NONE',  ( -0.000000000000000000, 1.000000000000000000, -0.000000000000000000 ) ) ;
#792 = AXIS2_PLACEMENT_3D ( 'NONE', #642, #392, #561 ) ;
#793 = VECTOR ( 'NONE', #192, 39.37007874015748143 ) ;
#794 = EDGE_CURVE ( 'NONE', #239, #387, #398, .T. ) ;
#795 = ORIENTED_EDGE ( 'NONE', *, *, #388, .F. ) ;
#796 = ADVANCED_FACE ( 'NONE', ( #473 ), #373, .F. ) ;
#797 = COORDINATED_UNIVERSAL_TIME_OFFSET ( 8, 0, .BEHIND. ) ;
#798 = CARTESIAN_POINT ( 'NONE',  ( -0.1249999999999999584, 0.6499999999999999112, 0.1249999999999998612 ) ) ;
#799 = EDGE_LOOP ( 'NONE', ( #795, #303, #867, #789 ) ) ;
#800 = APPROVAL ( #371, 'UNSPECIFIED' ) ;
#801 = DIRECTION ( 'NONE',  ( 0.000000000000000000, 0.000000000000000000, 1.000000000000000000 ) ) ;
#802 = EDGE_LOOP ( 'NONE', ( #633, #44, #497 ) ) ;
#803 = APPROVAL_DATE_TIME ( #88, #455 ) ;
#804 = DIMENSIONAL_EXPONENTS ( 1.000000000000000000, 0.000000000000000000, 0.000000000000000000, 0.000000000000000000, 0.000000000000000000, 0.000000000000000000, 0.000000000000000000 ) ;
#805 = DIRECTION ( 'NONE',  ( 0.000000000000000000, 0.000000000000000000, -1.000000000000000000 ) ) ;
#806 = ORIENTED_EDGE ( 'NONE', *, *, #512, .T. ) ;
#807 = APPROVAL_PERSON_ORGANIZATION ( #365, #800, #611 ) ;
#808 = DIRECTION ( 'NONE',  ( -1.000000000000000000, -1.224646799147353207E-16, 0.000000000000000000 ) ) ;
#809 = DIRECTION ( 'NONE',  ( 0.000000000000000000, 0.000000000000000000, 1.000000000000000000 ) ) ;
#810 = ORIENTED_EDGE ( 'NONE', *, *, #926, .F. ) ;
#811 = LINE ( 'NONE', #888, #569 ) ;
#812 = CARTESIAN_POINT ( 'NONE',  ( -0.6774606288582679658, 0.6444685050000000803, 0.2500000000000000000 ) ) ;
#813 = CARTESIAN_POINT ( 'NONE',  ( -0.6774606288582677438, 0.6444685050000000803, 0.2500000000000000000 ) ) ;
#814 = EDGE_CURVE ( 'NONE', #662, #331, #55, .T. ) ;
#815 = AXIS2_PLACEMENT_3D ( 'NONE', #798, #89, #715 ) ;
#816 = ORIENTED_EDGE ( 'NONE', *, *, #149, .T. ) ;
#817 = DIRECTION ( 'NONE',  ( 1.000000000000000000, 0.000000000000000000, 0.000000000000000000 ) ) ;
#818 = DIRECTION ( 'NONE',  ( -0.000000000000000000, 1.000000000000000000, -0.000000000000000000 ) ) ;
#819 = PLANE ( 'NONE',  #730 ) ;
#820 = CIRCLE ( 'NONE', #276, 0.06692913385826758377 ) ;
#821 = ORIENTED_EDGE ( 'NONE', *, *, #36, .T. ) ;
#822 = CARTESIAN_POINT ( 'NONE',  ( -0.1250000000000001110, 0.6145161051755376747, 0.1249999999999998612 ) ) ;
#823 = ORIENTED_EDGE ( 'NONE', *, *, #3, .F. ) ;
#824 = EDGE_CURVE ( 'NONE', #572, #604, #708, .T. ) ;
#825 = AXIS2_PLACEMENT_3D ( 'NONE', #309, #227, #222 ) ;
#826 = AXIS2_PLACEMENT_3D ( 'NONE', #324, #491, #878 ) ;
#827 = FACE_OUTER_BOUND ( 'NONE', #173, .T. ) ;
#828 = ORIENTED_EDGE ( 'NONE', *, *, #787, .T. ) ;
#829 = CYLINDRICAL_SURFACE ( 'NONE', #397, 0.06692913385826758377 ) ;
#830 = VERTEX_POINT ( 'NONE', #498 ) ;
#831 = DIRECTION ( 'NONE',  ( 0.000000000000000000, 0.000000000000000000, -1.000000000000000000 ) ) ;
#832 = EDGE_CURVE ( 'NONE', #667, #598, #121, .T. ) ;
#833 = DIRECTION ( 'NONE',  ( 1.049727191138617463E-16, 0.5150380749100553768, -0.8571673007021114454 ) ) ;
#834 = DIRECTION ( 'NONE',  ( 0.000000000000000000, 0.000000000000000000, -1.000000000000000000 ) ) ;
#835 = ORIENTED_EDGE ( 'NONE', *, *, #327, .F. ) ;
#836 = CARTESIAN_POINT ( 'NONE',  ( -1.624999999999999778, -1.990051048614448376E-16, 0.1250000000000002498 ) ) ;
#837 = ORIENTED_EDGE ( 'NONE', *, *, #814, .T. ) ;
#838 = FACE_BOUND ( 'NONE', #396, .T. ) ;
#839 = ADVANCED_FACE ( 'NONE', ( #827 ), #908, .F. ) ;
#840 = VERTEX_POINT ( 'NONE', #900 ) ;
#841 = ORIENTED_EDGE ( 'NONE', *, *, #595, .F. ) ;
#842 = CIRCLE ( 'NONE', #25, 0.05905511811023572699 ) ;
#843 = ORIENTED_EDGE ( 'NONE', *, *, #1006, .F. ) ;
#844 = DIRECTION ( 'NONE',  ( 1.049727191138616477E-16, -0.5150380749100571531, 0.8571673007021105573 ) ) ;
#845 = VECTOR ( 'NONE', #624, 39.37007874015748143 ) ;
#846 = APPROVAL_STATUS ( 'not_yet_approved' ) ;
#847 = DIRECTION ( 'NONE',  ( -0.000000000000000000, -0.000000000000000000, 1.000000000000000000 ) ) ;
#848 = ORIENTED_EDGE ( 'NONE', *, *, #257, .T. ) ;
#849 =( CONVERSION_BASED_UNIT ( 'INCH', #285 ) LENGTH_UNIT ( ) NAMED_UNIT ( #804 ) );
#850 = VECTOR ( 'NONE', #313, 39.37007874015748143 ) ;
#851 = FACE_OUTER_BOUND ( 'NONE', #614, .T. ) ;
#852 = CIRCLE ( 'NONE', #372, 0.05905511811023572699 ) ;
#853 = FACE_OUTER_BOUND ( 'NONE', #752, .T. ) ;
#854 = DIRECTION ( 'NONE',  ( 0.000000000000000000, 0.000000000000000000, 1.000000000000000000 ) ) ;
#855 = ORIENTED_EDGE ( 'NONE', *, *, #824, .F. ) ;
#856 = EDGE_CURVE ( 'NONE', #33, #446, #260, .T. ) ;
#857 = AXIS2_PLACEMENT_3D ( 'NONE', #636, #137, #79 ) ;
#858 = VECTOR ( 'NONE', #1003, 39.37007874015748143 ) ;
#859 = PLANE ( 'NONE',  #785 ) ;
#860 = DIRECTION ( 'NONE',  ( 1.000000000000000000, 0.000000000000000000, 0.000000000000000000 ) ) ;
#861 = EDGE_LOOP ( 'NONE', ( #946, #1024, #589, #444 ) ) ;
#862 = PERSON_AND_ORGANIZATION_ROLE ( 'classification_officer' ) ;
#863 = EDGE_CURVE ( 'NONE', #432, #596, #883, .T. ) ;
#864 = CARTESIAN_POINT ( 'NONE',  ( -1.139468505000000187, 0.1155314949999999424, 0.2500000000000000000 ) ) ;
#865 = CARTESIAN_POINT ( 'NONE',  ( -1.625000000000000000, 1.149999999999999689, 0.1840551181102361156 ) ) ;
#866 = FACE_OUTER_BOUND ( 'NONE', #364, .T. ) ;
#867 = ORIENTED_EDGE ( 'NONE', *, *, #161, .T. ) ;
#868 = DATE_TIME_ROLE ( 'classification_date' ) ;
#869 = AXIS2_PLACEMENT_3D ( 'NONE', #915, #30, #123 ) ;
#870 = EDGE_CURVE ( 'NONE', #830, #604, #894, .T. ) ;
#871 = DIRECTION ( 'NONE',  ( 0.000000000000000000, 0.000000000000000000, 1.000000000000000000 ) ) ;
#872 = ORIENTED_EDGE ( 'NONE', *, *, #526, .T. ) ;
#873 = LINE ( 'NONE', #171, #91 ) ;
#874 = AXIS2_PLACEMENT_3D ( 'NONE', #745, #34, #415 ) ;
#875 = ADVANCED_FACE ( 'NONE', ( #111 ), #738, .F. ) ;
#876 = ORIENTED_EDGE ( 'NONE', *, *, #884, .F. ) ;
#877 = DIRECTION ( 'NONE',  ( -0.000000000000000000, -0.000000000000000000, 1.000000000000000000 ) ) ;
#878 = DIRECTION ( 'NONE',  ( 1.000000000000000000, 0.000000000000000000, 0.000000000000000000 ) ) ;
#879 = ORIENTED_EDGE ( 'NONE', *, *, #394, .T. ) ;
#880 = ADVANCED_FACE ( 'NONE', ( #672 ), #151, .F. ) ;
#881 = CARTESIAN_POINT ( 'NONE',  ( -0.1249999999999999584, 0.6499999999999999112, 0.1249999999999998612 ) ) ;
#882 = ORIENTED_EDGE ( 'NONE', *, *, #3, .T. ) ;
#883 = LINE ( 'NONE', #727, #166 ) ;
#884 = EDGE_CURVE ( 'NONE', #281, #387, #27, .T. ) ;
#885 = CARTESIAN_POINT ( 'NONE',  ( -0.1249999999999998335, 0.5000000000000001110, 0.06594488188976413423 ) ) ;
#886 = ORIENTED_EDGE ( 'NONE', *, *, #612, .F. ) ;
#887 = CIRCLE ( 'NONE', #236, 0.06692913385826758377 ) ;
#888 = CARTESIAN_POINT ( 'NONE',  ( -1.750000000000000000, -2.143131898507868051E-16, 0.2500000000000000000 ) ) ;
#889 = CYLINDRICAL_SURFACE ( 'NONE', #681, 0.06692913385826758377 ) ;
#890 = EDGE_CURVE ( 'NONE', #928, #554, #46, .T. ) ;
#891 = PERSON ( 'UNSPECIFIED', 'UNSPECIFIED', 'UNSPECIFIED', ('UNSPECIFIED'), ('UNSPECIFIED'), ('UNSPECIFIED') ) ;
#892 = DIRECTION ( 'NONE',  ( -0.000000000000000000, -0.000000000000000000, 1.000000000000000000 ) ) ;
#893 = VERTEX_POINT ( 'NONE', #346 ) ;
#894 = LINE ( 'NONE', #118, #499 ) ;
#895 = CARTESIAN_POINT ( 'NONE',  ( -0.1249999999999999584, 0.6499999999999999112, 0.1249999999999998612 ) ) ;
#896 = ADVANCED_FACE ( 'NONE', ( #664 ), #637, .F. ) ;
#897 = CIRCLE ( 'NONE', #493, 0.06692913385826765316 ) ;
#898 = ORIENTED_EDGE ( 'NONE', *, *, #220, .F. ) ;
#899 = DIRECTION ( 'NONE',  ( -0.000000000000000000, -0.000000000000000000, 1.000000000000000000 ) ) ;
#900 = CARTESIAN_POINT ( 'NONE',  ( -0.1249999999999999584, 1.149999999999999911, 0.06594488188976406484 ) ) ;
#901 = FACE_BOUND ( 'NONE', #465, .T. ) ;
#902 = FACE_OUTER_BOUND ( 'NONE', #38, .T. ) ;
#903 = ORIENTED_EDGE ( 'NONE', *, *, #233, .T. ) ;
#904 = EDGE_CURVE ( 'NONE', #596, #893, #749, .T. ) ;
#905 = CARTESIAN_POINT ( 'NONE',  ( -1.206397638858267785, 0.6444685050000000803, 0.000000000000000000 ) ) ;
#906 = EDGE_LOOP ( 'NONE', ( #191, #452, #289, #112 ) ) ;
#907 = AXIS2_PLACEMENT_3D ( 'NONE', #13, #418, #20 ) ;
#908 = CONICAL_SURFACE ( 'NONE', #342, 0.05905511811023600455, 1.029744258676652979 ) ;
#909 = DIRECTION ( 'NONE',  ( -0.000000000000000000, 1.000000000000000000, -0.000000000000000000 ) ) ;
#910 = APPROVAL_PERSON_ORGANIZATION ( #574, #455, #2 ) ;
#911 = VERTEX_POINT ( 'NONE', #14 ) ;
#912 = ORIENTED_EDGE ( 'NONE', *, *, #890, .F. ) ;
#913 = MECHANICAL_CONTEXT ( 'NONE', #786, 'mechanical' ) ;
#914 = LINE ( 'NONE', #974, #656 ) ;
#915 = CARTESIAN_POINT ( 'NONE',  ( -1.625000000000000000, 1.149999999999999689, 0.1250000000000002498 ) ) ;
#916 = LINE ( 'NONE', #355, #543 ) ;
#917 = CIRCLE ( 'NONE', #108, 0.05905511811023600455 ) ;
#918 = ORIENTED_EDGE ( 'NONE', *, *, #8, .F. ) ;
#919 = COORDINATED_UNIVERSAL_TIME_OFFSET ( 8, 0, .BEHIND. ) ;
#920 = CONICAL_SURFACE ( 'NONE', #480, 0.05905511811023572699, 1.029744258676650981 ) ;
#921 = CARTESIAN_POINT ( 'NONE',  ( -1.624999999999999778, 0.4999999999999999445, 0.1250000000000002498 ) ) ;
#922 = DIRECTION ( 'NONE',  ( 0.000000000000000000, 0.000000000000000000, -1.000000000000000000 ) ) ;
#923 = VERTEX_POINT ( 'NONE', #659 ) ;
#924 = DIRECTION ( 'NONE',  ( 1.000000000000000000, 0.000000000000000000, 0.000000000000000000 ) ) ;
#925 = VECTOR ( 'NONE', #41, 39.37007874015748143 ) ;
#926 = EDGE_CURVE ( 'NONE', #596, #124, #811, .T. ) ;
#927 = FACE_OUTER_BOUND ( 'NONE', #641, .T. ) ;
#928 = VERTEX_POINT ( 'NONE', #334 ) ;
#929 = LINE ( 'NONE', #693, #280 ) ;
#930 = CARTESIAN_POINT ( 'NONE',  ( 0.000000000000000000, 0.000000000000000000, 0.2500000000000000000 ) ) ;
#931 = CARTESIAN_POINT ( 'NONE',  ( -0.1249999999999999584, 1.149999999999999911, 0.1840551181102356715 ) ) ;
#932 = EDGE_CURVE ( 'NONE', #432, #667, #680, .T. ) ;
#933 = CARTESIAN_POINT ( 'NONE',  ( -0.5436023611417326595, 0.1155314949999999424, 0.000000000000000000 ) ) ;
#934 = EDGE_LOOP ( 'NONE', ( #223, #821, #242 ) ) ;
#935 = DIRECTION ( 'NONE',  ( -0.000000000000000000, -1.000000000000000000, -0.000000000000000000 ) ) ;
#936 = FACE_BOUND ( 'NONE', #692, .T. ) ;
#937 = CARTESIAN_POINT ( 'NONE',  ( -0.1249999999999999584, 0.6499999999999999112, 0.1249999999999998612 ) ) ;
#938 = ORIENTED_EDGE ( 'NONE', *, *, #252, .F. ) ;
#939 = COORDINATED_UNIVERSAL_TIME_OFFSET ( 8, 0, .BEHIND. ) ;
#940 = AXIS2_PLACEMENT_3D ( 'NONE', #224, #703, #60 ) ;
#941 = CARTESIAN_POINT ( 'NONE',  ( -0.6105314950000001462, 0.6444685050000000803, 0.2500000000000000000 ) ) ;
#942 = DIRECTION ( 'NONE',  ( -0.000000000000000000, -0.000000000000000000, 1.000000000000000000 ) ) ;
#943 = ORIENTED_EDGE ( 'NONE', *, *, #732, .T. ) ;
#944 = CARTESIAN_POINT ( 'NONE',  ( -1.624999999999999778, -1.990051048614448376E-16, 0.1250000000000002498 ) ) ;
#945 = LINE ( 'NONE', #621, #21 ) ;
#946 = ORIENTED_EDGE ( 'NONE', *, *, #212, .F. ) ;
#947 = AXIS2_PLACEMENT_3D ( 'NONE', #571, #877, #11 ) ;
#948 = EDGE_CURVE ( 'NONE', #773, #124, #179, .T. ) ;
#949 = FACE_OUTER_BOUND ( 'NONE', #404, .T. ) ;
#950 = ORIENTED_EDGE ( 'NONE', *, *, #68, .F. ) ;
#951 = DATE_AND_TIME ( #315, #115 ) ;
#952 = CARTESIAN_POINT ( 'NONE',  ( -1.206397638858267785, 0.1155314949999999424, 0.2500000000000000000 ) ) ;
#953 = DIRECTION ( 'NONE',  ( -0.000000000000000000, -1.000000000000000000, -0.000000000000000000 ) ) ;
#954 = MANIFOLD_SOLID_BREP ( '\X2\00d8\X0\3.0mm Dowel Hole2', #975 ) ;
#955 = AXIS2_PLACEMENT_3D ( 'NONE', #895, #818, #428 ) ;
#956 = EDGE_LOOP ( 'NONE', ( #163, #990, #40, #766 ) ) ;
#957 = CARTESIAN_POINT ( 'NONE',  ( -1.139468505000000187, 0.1155314949999999424, 0.2500000000000000000 ) ) ;
#958 = DIRECTION ( 'NONE',  ( 0.000000000000000000, 0.000000000000000000, 1.000000000000000000 ) ) ;
#959 = ORIENTED_EDGE ( 'NONE', *, *, #220, .T. ) ;
#960 = DIRECTION ( 'NONE',  ( 1.000000000000000000, 0.000000000000000000, 0.000000000000000000 ) ) ;
#961 = ORIENTED_EDGE ( 'NONE', *, *, #948, .F. ) ;
#962 = VECTOR ( 'NONE', #393, 39.37007874015748854 ) ;
#963 = CARTESIAN_POINT ( 'NONE',  ( 0.000000000000000000, 1.149999999999999911, 0.2500000000000000000 ) ) ;
#964 = CARTESIAN_POINT ( 'NONE',  ( -1.624999999999999778, 0.4999999999999999445, 0.06594488188976450893 ) ) ;
#965 = CARTESIAN_POINT ( 'NONE',  ( 0.000000000000000000, 0.000000000000000000, 0.2500000000000000000 ) ) ;
#966 = EDGE_LOOP ( 'NONE', ( #154, #100 ) ) ;
#967 = VECTOR ( 'NONE', #844, 39.37007874015748143 ) ;
#968 = EDGE_CURVE ( 'NONE', #554, #645, #106, .T. ) ;
#969 = DIRECTION ( 'NONE',  ( -0.000000000000000000, -0.000000000000000000, 1.000000000000000000 ) ) ;
#970 = DIRECTION ( 'NONE',  ( 0.000000000000000000, -0.000000000000000000, 1.000000000000000000 ) ) ;
#971 = FACE_BOUND ( 'NONE', #966, .T. ) ;
#972 = ORIENTED_EDGE ( 'NONE', *, *, #787, .F. ) ;
#973 = DIRECTION ( 'NONE',  ( -0.000000000000000000, -1.000000000000000000, -0.000000000000000000 ) ) ;
#974 = CARTESIAN_POINT ( 'NONE',  ( -1.750000000000000000, 1.149999999999999689, 0.2500000000000000000 ) ) ;
#975 = CLOSED_SHELL ( 'NONE', ( #354, #347, #539, #19, #683, #875, #402, #796, #246, #122, #839, #51, #73, #300, #338, #541, #781, #178, #472, #495, #197, #880, #240, #991, #504, #449, #204, #767, #714, #631, #896, #556 ) ) ;
#976 = DIRECTION ( 'NONE',  ( 0.000000000000000000, 0.000000000000000000, -1.000000000000000000 ) ) ;
#977 = EDGE_CURVE ( 'NONE', #923, #911, #114, .T. ) ;
#978 = CIRCLE ( 'NONE', #869, 0.05905511811023572699 ) ;
#979 = ORIENTED_EDGE ( 'NONE', *, *, #794, .T. ) ;
#980 = ORIENTED_EDGE ( 'NONE', *, *, #424, .F. ) ;
#981 = CARTESIAN_POINT ( 'NONE',  ( -0.1249999999999998335, 0.5000000000000001110, 0.1249999999999998612 ) ) ;
#982 = FACE_BOUND ( 'NONE', #45, .T. ) ;
#983 = CARTESIAN_POINT ( 'NONE',  ( -1.625000000000000000, 0.6499999999999995781, 0.1250000000000002498 ) ) ;
#984 = EDGE_CURVE ( 'NONE', #190, #645, #262, .T. ) ;
#985 = VERTEX_POINT ( 'NONE', #607 ) ;
#986 = VERTEX_POINT ( 'NONE', #549 ) ;
#987 = AXIS2_PLACEMENT_3D ( 'NONE', #557, #48, #219 ) ;
#988 = CARTESIAN_POINT ( 'NONE',  ( 0.000000000000000000, 0.000000000000000000, 0.2500000000000000000 ) ) ;
#989 = ORIENTED_EDGE ( 'NONE', *, *, #824, .T. ) ;
#990 = ORIENTED_EDGE ( 'NONE', *, *, #562, .T. ) ;
#991 = ADVANCED_FACE ( 'NONE', ( #684 ), #64, .F. ) ;
#992 = CARTESIAN_POINT ( 'NONE',  ( -0.6774606288582677438, 0.6444685050000000803, 0.000000000000000000 ) ) ;
#993 = CARTESIAN_POINT ( 'NONE',  ( -0.1249999999999999584, 0.6499999999999999112, 0.1840551181102358935 ) ) ;
#994 = DIRECTION ( 'NONE',  ( -0.000000000000000000, -1.000000000000000000, -0.000000000000000000 ) ) ;
#995 = EDGE_LOOP ( 'NONE', ( #319, #855 ) ) ;
#996 = CIRCLE ( 'NONE', #815, 0.05905511811023603230 ) ;
#997 = CYLINDRICAL_SURFACE ( 'NONE', #825, 0.05905511811023576169 ) ;
#998 = EDGE_LOOP ( 'NONE', ( #605, #950 ) ) ;
#999 = PERSON_AND_ORGANIZATION ( #891, #311 ) ;
#1000 = CC_DESIGN_PERSON_AND_ORGANIZATION_ASSIGNMENT ( #999, #53, ( #117 ) ) ;
#1001 = DIRECTION ( 'NONE',  ( 1.000000000000000000, 0.000000000000000000, 0.000000000000000000 ) ) ;
#1002 = ORIENTED_EDGE ( 'NONE', *, *, #370, .T. ) ;
#1003 = DIRECTION ( 'NONE',  ( -0.000000000000000000, -0.000000000000000000, 1.000000000000000000 ) ) ;
#1004 = CIRCLE ( 'NONE', #755, 0.2780511800000000644 ) ;
#1005 = VECTOR ( 'NONE', #22, 39.37007874015748143 ) ;
#1006 = EDGE_CURVE ( 'NONE', #169, #310, #929, .T. ) ;
#1007 = FACE_BOUND ( 'NONE', #712, .T. ) ;
#1008 = DIRECTION ( 'NONE',  ( -0.000000000000000000, -1.000000000000000000, -0.000000000000000000 ) ) ;
#1009 = CARTESIAN_POINT ( 'NONE',  ( -0.6105314950000001462, 0.6444685050000000803, 0.000000000000000000 ) ) ;
#1010 = ORIENTED_EDGE ( 'NONE', *, *, #612, .T. ) ;
#1011 = DIRECTION ( 'NONE',  ( -0.000000000000000000, -0.000000000000000000, -1.000000000000000000 ) ) ;
#1012 = EDGE_CURVE ( 'NONE', #928, #190, #144, .T. ) ;
#1013 = LINE ( 'NONE', #635, #481 ) ;
#1014 = ORIENTED_EDGE ( 'NONE', *, *, #161, .F. ) ;
#1015 = CARTESIAN_POINT ( 'NONE',  ( -1.139468505000000187, 0.1155314949999999424, 0.000000000000000000 ) ) ;
#1016 = AXIS2_PLACEMENT_3D ( 'NONE', #231, #700, #153 ) ;
#1017 = CARTESIAN_POINT ( 'NONE',  ( -1.139468505000000187, 0.6444685050000000803, 0.000000000000000000 ) ) ;
#1018 = EDGE_CURVE ( 'NONE', #773, #598, #148, .T. ) ;
#1019 = CARTESIAN_POINT ( 'NONE',  ( -0.1249999999999998335, -6.930825881001249877E-17, 0.1249999999999998612 ) ) ;
#1020 = EDGE_LOOP ( 'NONE', ( #275, #657, #116, #119 ) ) ;
#1021 = AXIS2_PLACEMENT_3D ( 'NONE', #628, #383, #924 ) ;
#1022 = CARTESIAN_POINT ( 'NONE',  ( -1.625000000000000000, 1.149999999999999689, 0.1250000000000002498 ) ) ;
#1023 = CARTESIAN_POINT ( 'NONE',  ( -0.8750000000000000000, 0.3799999999999999489, 0.000000000000000000 ) ) ;
#1024 = ORIENTED_EDGE ( 'NONE', *, *, #746, .F. ) ;
#1025 = AXIS2_PLACEMENT_3D ( 'NONE', #937, #461, #474 ) ;
#1026 = CARTESIAN_POINT ( 'NONE',  ( -0.1249999999999999584, 0.6499999999999999112, 0.06594488188976384280 ) ) ;
ENDSEC;
END-ISO-10303-21;
