ISO-10303-21;
HEADER;
FILE_DESCRIPTION (( 'STEP AP203' ),
    '1' );
FILE_NAME ('Wall Rod.STEP',
    '2026-04-28T03:57:26',
    ( '' ),
    ( '' ),
    'SwSTEP 2.0',
    'SolidWorks 2025',
    '' );
FILE_SCHEMA (( 'CONFIG_CONTROL_DESIGN' ));
ENDSEC;

DATA;
#1 = PRODUCT ( 'Wall Rod', 'Wall Rod', '', ( #195 ) ) ;
#2 = AXIS2_PLACEMENT_3D ( 'NONE', #422, #306, #1175 ) ;
#3 = ORIENTED_EDGE ( 'NONE', *, *, #528, .F. ) ;
#4 = VECTOR ( 'NONE', #446, 39.37007874015748143 ) ;
#5 = ORIENTED_EDGE ( 'NONE', *, *, #879, .F. ) ;
#6 = DIRECTION ( 'NONE',  ( 1.365923996832131856E-16, 0.000000000000000000, 1.000000000000000000 ) ) ;
#7 = DIRECTION ( 'NONE',  ( -1.000000000000000000, -0.000000000000000000, -0.000000000000000000 ) ) ;
#8 = CARTESIAN_POINT ( 'NONE',  ( 0.000000000000000000, 0.000000000000000000, 0.000000000000000000 ) ) ;
#9 = ORIENTED_EDGE ( 'NONE', *, *, #69, .F. ) ;
#10 = DIRECTION ( 'NONE',  ( -1.000000000000000000, 0.000000000000000000, 6.829619984160660511E-17 ) ) ;
#11 = AXIS2_PLACEMENT_3D ( 'NONE', #1097, #1007, #361 ) ;
#12 = AXIS2_PLACEMENT_3D ( 'NONE', #1019, #832, #726 ) ;
#13 = CIRCLE ( 'NONE', #1059, 0.04921259842519634664 ) ;
#14 = CYLINDRICAL_SURFACE ( 'NONE', #161, 0.2500000000000000000 ) ;
#15 = ADVANCED_FACE ( 'NONE', ( #183, #92 ), #580, .F. ) ;
#16 = ORIENTED_EDGE ( 'NONE', *, *, #894, .F. ) ;
#17 = CARTESIAN_POINT ( 'NONE',  ( 0.1250000000000000000, 1.012943895113159742, 0.2589192820815864327 ) ) ;
#18 = DIRECTION ( 'NONE',  ( 1.000000000000000000, -0.000000000000000000, -6.829619984160659279E-17 ) ) ;
#19 = EDGE_CURVE ( 'NONE', #263, #1036, #1143, .T. ) ;
#20 = CARTESIAN_POINT ( 'NONE',  ( 0.005000000000000185719, 0.8749999999999997780, 0.2000000000000000111 ) ) ;
#21 = ORIENTED_EDGE ( 'NONE', *, *, #199, .F. ) ;
#22 = CARTESIAN_POINT ( 'NONE',  ( -0.1250000000000000000, 0.7401172384068295251, 0.2656250000000000000 ) ) ;
#23 = CARTESIAN_POINT ( 'NONE',  ( 0.1250000000000000000, 0.4098827615931701085, 0.2656250000000000000 ) ) ;
#24 = CIRCLE ( 'NONE', #885, 0.2500000000000000000 ) ;
#25 = CARTESIAN_POINT ( 'NONE',  ( 0.000000000000000000, 1.149999999999999911, 0.04921259842519641603 ) ) ;
#26 = EDGE_LOOP ( 'NONE', ( #952, #206, #1226, #541 ) ) ;
#27 = DIRECTION ( 'NONE',  ( -1.365923996832131609E-16, 0.000000000000000000, -1.000000000000000000 ) ) ;
#28 = CARTESIAN_POINT ( 'NONE',  ( -0.1250000000000000278, 0.6346873642484540667, -0.3749999999999998890 ) ) ;
#29 = PRODUCT_RELATED_PRODUCT_CATEGORY ( 'detail', '', ( #1 ) ) ;
#30 = AXIS2_PLACEMENT_3D ( 'NONE', #1088, #122, #309 ) ;
#31 = FACE_OUTER_BOUND ( 'NONE', #369, .T. ) ;
#32 = EDGE_LOOP ( 'NONE', ( #1110, #1031, #667 ) ) ;
#33 = CARTESIAN_POINT ( 'NONE',  ( 0.000000000000000000, -5.520553484345342928E-17, -0.04921259842519641603 ) ) ;
#34 = ADVANCED_FACE ( 'NONE', ( #776 ), #1154, .T. ) ;
#35 = DIRECTION ( 'NONE',  ( -1.000000000000000000, -0.000000000000000000, -0.000000000000000000 ) ) ;
#36 = ADVANCED_FACE ( 'NONE', ( #568 ), #494, .T. ) ;
#37 = LINE ( 'NONE', #789, #234 ) ;
#38 = ORIENTED_EDGE ( 'NONE', *, *, #597, .T. ) ;
#39 = DIRECTION ( 'NONE',  ( 1.000000000000000000, -0.000000000000000000, -6.829619984160659279E-17 ) ) ;
#40 = CARTESIAN_POINT ( 'NONE',  ( 0.1249999999999999584, 0.8749999999999997780, -0.2000000000000000111 ) ) ;
#41 = AXIS2_PLACEMENT_3D ( 'NONE', #813, #610, #1189 ) ;
#42 = CARTESIAN_POINT ( 'NONE',  ( 0.1250000000000000000, 0.2750000000000000777, -0.2000000000000000111 ) ) ;
#43 = EDGE_CURVE ( 'NONE', #1056, #555, #944, .T. ) ;
#44 = ORIENTED_EDGE ( 'NONE', *, *, #287, .T. ) ;
#45 = DIRECTION ( 'NONE',  ( 1.000000000000000000, -0.000000000000000000, -6.829619984160659279E-17 ) ) ;
#46 = DIRECTION ( 'NONE',  ( -0.000000000000000000, 1.000000000000000000, -0.000000000000000000 ) ) ;
#47 = APPROVAL_PERSON_ORGANIZATION ( #1048, #907, #1004 ) ;
#48 = PLANE ( 'NONE',  #280 ) ;
#49 = ADVANCED_FACE ( 'NONE', ( #901 ), #126, .F. ) ;
#50 = ORIENTED_EDGE ( 'NONE', *, *, #790, .F. ) ;
#51 = CARTESIAN_POINT ( 'NONE',  ( 0.000000000000000000, 1.024999999999999911, 0.04921259842519658950 ) ) ;
#52 = ORIENTED_EDGE ( 'NONE', *, *, #1197, .F. ) ;
#53 = DIRECTION ( 'NONE',  ( -0.000000000000000000, -1.000000000000000000, -0.000000000000000000 ) ) ;
#54 = CARTESIAN_POINT ( 'NONE',  ( 0.1249999999999999584, 1.149999999999999911, -0.1249999999999999861 ) ) ;
#55 = AXIS2_PLACEMENT_3D ( 'NONE', #544, #531, #642 ) ;
#56 = EDGE_CURVE ( 'NONE', #425, #871, #766, .T. ) ;
#57 = VERTEX_POINT ( 'NONE', #313 ) ;
#58 = PLANE ( 'NONE',  #960 ) ;
#59 = VERTEX_POINT ( 'NONE', #25 ) ;
#60 = CARTESIAN_POINT ( 'NONE',  ( 0.1250000000000000000, 0.2749999999999999112, 0.2000000000000000944 ) ) ;
#61 = VECTOR ( 'NONE', #109, 39.37007874015748143 ) ;
#62 = AXIS2_PLACEMENT_3D ( 'NONE', #1231, #674, #585 ) ;
#63 = AXIS2_PLACEMENT_3D ( 'NONE', #1202, #1032, #934 ) ;
#64 = DIRECTION ( 'NONE',  ( 0.000000000000000000, 0.000000000000000000, -1.000000000000000000 ) ) ;
#65 = EDGE_LOOP ( 'NONE', ( #50, #301, #38, #44 ) ) ;
#66 = DIRECTION ( 'NONE',  ( 0.000000000000000000, 3.414809992080328530E-16, 1.000000000000000000 ) ) ;
#67 = EDGE_LOOP ( 'NONE', ( #747, #143 ) ) ;
#68 = DIRECTION ( 'NONE',  ( 1.000000000000000000, -0.000000000000000000, -6.829619984160659279E-17 ) ) ;
#69 = EDGE_CURVE ( 'NONE', #755, #1134, #37, .T. ) ;
#70 = EDGE_CURVE ( 'NONE', #737, #86, #572, .T. ) ;
#71 = ADVANCED_FACE ( 'NONE', ( #299 ), #704, .F. ) ;
#72 = CARTESIAN_POINT ( 'NONE',  ( 0.1250000000000000000, 0.1370561048868401133, -0.2589192820815863771 ) ) ;
#73 = ORIENTED_EDGE ( 'NONE', *, *, #692, .F. ) ;
#74 = LINE ( 'NONE', #457, #1213 ) ;
#75 = CIRCLE ( 'NONE', #1094, 0.04921259842519634664 ) ;
#76 = CIRCLE ( 'NONE', #567, 0.2500000000000000000 ) ;
#77 = ORIENTED_EDGE ( 'NONE', *, *, #565, .F. ) ;
#78 = DIRECTION ( 'NONE',  ( -1.000000000000000000, -0.000000000000000000, -0.000000000000000000 ) ) ;
#79 = EDGE_CURVE ( 'NONE', #277, #445, #867, .T. ) ;
#80 = DIRECTION ( 'NONE',  ( 1.000000000000000000, 0.000000000000000000, 0.000000000000000000 ) ) ;
#81 = ORIENTED_EDGE ( 'NONE', *, *, #19, .T. ) ;
#82 = FACE_OUTER_BOUND ( 'NONE', #360, .T. ) ;
#83 = ORIENTED_EDGE ( 'NONE', *, *, #362, .T. ) ;
#84 = CYLINDRICAL_SURFACE ( 'NONE', #123, 0.04921259842519658950 ) ;
#85 = DIRECTION ( 'NONE',  ( -6.505213034913093164E-17, 0.000000000000000000, -1.000000000000000000 ) ) ;
#86 = VERTEX_POINT ( 'NONE', #205 ) ;
#87 = SECURITY_CLASSIFICATION_LEVEL ( 'unclassified' ) ;
#88 = ADVANCED_FACE ( 'NONE', ( #1169 ), #686, .F. ) ;
#89 = VERTEX_POINT ( 'NONE', #600 ) ;
#90 = CARTESIAN_POINT ( 'NONE',  ( 0.1250000000000000000, 0.5153126357515458444, 0.3749999999999998890 ) ) ;
#91 = DIRECTION ( 'NONE',  ( 0.000000000000000000, 0.000000000000000000, -1.000000000000000000 ) ) ;
#92 = FACE_OUTER_BOUND ( 'NONE', #373, .T. ) ;
#93 =( LENGTH_UNIT ( ) NAMED_UNIT ( * ) SI_UNIT ( $, .METRE. ) );
#94 = EDGE_CURVE ( 'NONE', #86, #224, #606, .T. ) ;
#95 = EDGE_LOOP ( 'NONE', ( #73, #1087 ) ) ;
#96 = AXIS2_PLACEMENT_3D ( 'NONE', #426, #419, #903 ) ;
#97 = LINE ( 'NONE', #293, #999 ) ;
#98 = DIRECTION ( 'NONE',  ( 0.000000000000000000, -0.000000000000000000, 1.000000000000000000 ) ) ;
#99 = PERSON_AND_ORGANIZATION ( #119, #680 ) ;
#100 = ORIENTED_EDGE ( 'NONE', *, *, #1086, .F. ) ;
#101 = DIRECTION ( 'NONE',  ( 0.000000000000000000, 0.000000000000000000, 1.000000000000000000 ) ) ;
#102 = AXIS2_PLACEMENT_3D ( 'NONE', #42, #229, #626 ) ;
#103 = DIRECTION ( 'NONE',  ( 0.000000000000000000, 0.000000000000000000, 1.000000000000000000 ) ) ;
#104 = CALENDAR_DATE ( 2026, 27, 4 ) ;
#105 = VECTOR ( 'NONE', #344, 39.37007874015748143 ) ;
#106 = EDGE_LOOP ( 'NONE', ( #475, #1024, #589 ) ) ;
#107 = CARTESIAN_POINT ( 'NONE',  ( -0.1250000000000000000, 0.8749999999999997780, -0.2000000000000000111 ) ) ;
#108 = EDGE_CURVE ( 'NONE', #833, #718, #1146, .T. ) ;
#109 = DIRECTION ( 'NONE',  ( 1.000000000000000000, -0.000000000000000000, -6.829619984160659279E-17 ) ) ;
#110 = LENGTH_MEASURE_WITH_UNIT ( LENGTH_MEASURE( 0.02539999999999999897 ), #93 );
#111 = EDGE_LOOP ( 'NONE', ( #1181, #257, #552, #1014 ) ) ;
#112 = CARTESIAN_POINT ( 'NONE',  ( 0.005000000000000154494, 0.2750000000000000777, -0.1507874015748036645 ) ) ;
#113 = CARTESIAN_POINT ( 'NONE',  ( 0.005000000000000151892, 0.8749999999999997780, -0.2000000000000000111 ) ) ;
#114 = EDGE_CURVE ( 'NONE', #877, #755, #217, .T. ) ;
#115 = DIRECTION ( 'NONE',  ( -0.000000000000000000, -1.000000000000000000, 3.414809992080328530E-16 ) ) ;
#116 = DIRECTION ( 'NONE',  ( 6.829619984160658046E-17, 0.000000000000000000, 1.000000000000000000 ) ) ;
#117 = DIRECTION ( 'NONE',  ( -1.000000000000000000, -0.000000000000000000, -0.000000000000000000 ) ) ;
#118 = CIRCLE ( 'NONE', #276, 0.04921259842519658950 ) ;
#119 = PERSON ( 'UNSPECIFIED', 'UNSPECIFIED', 'UNSPECIFIED', ('UNSPECIFIED'), ('UNSPECIFIED'), ('UNSPECIFIED') ) ;
#120 = CARTESIAN_POINT ( 'NONE',  ( -0.02456991235371808191, 0.8749999999999996669, -0.2000000000000000111 ) ) ;
#121 = ORIENTED_EDGE ( 'NONE', *, *, #204, .F. ) ;
#122 = DIRECTION ( 'NONE',  ( 1.000000000000000000, 0.000000000000000000, 0.000000000000000000 ) ) ;
#123 = AXIS2_PLACEMENT_3D ( 'NONE', #1230, #53, #370 ) ;
#124 = EDGE_CURVE ( 'NONE', #425, #796, #992, .T. ) ;
#125 = DIRECTION ( 'NONE',  ( -1.000000000000000000, -0.000000000000000000, -0.000000000000000000 ) ) ;
#126 = CYLINDRICAL_SURFACE ( 'NONE', #317, 0.04921259842519638134 ) ;
#127 = ORIENTED_EDGE ( 'NONE', *, *, #351, .T. ) ;
#128 = CARTESIAN_POINT ( 'NONE',  ( 0.1250000000000000000, 0.8749999999999997780, 0.2000000000000000111 ) ) ;
#129 = EDGE_CURVE ( 'NONE', #786, #1132, #650, .T. ) ;
#130 = DIRECTION ( 'NONE',  ( 1.000000000000000000, 0.000000000000000000, -1.365923996832132102E-16 ) ) ;
#131 = LOCAL_TIME ( 20, 57, 26.00000000000000000, #754 ) ;
#132 = CIRCLE ( 'NONE', #601, 0.2500000000000000000 ) ;
#133 = FACE_OUTER_BOUND ( 'NONE', #1229, .T. ) ;
#134 = ORIENTED_EDGE ( 'NONE', *, *, #955, .F. ) ;
#135 = DIRECTION ( 'NONE',  ( 1.000000000000000000, 0.000000000000000000, 0.000000000000000000 ) ) ;
#136 = CYLINDRICAL_SURFACE ( 'NONE', #41, 0.04921259842519634664 ) ;
#137 = CARTESIAN_POINT ( 'NONE',  ( 0.1250000000000000555, 0.8749999999999997780, 0.2492125984251963577 ) ) ;
#138 = ORIENTED_EDGE ( 'NONE', *, *, #1052, .T. ) ;
#139 = DIRECTION ( 'NONE',  ( 1.000000000000000000, -0.000000000000000000, -6.829619984160659279E-17 ) ) ;
#140 = LINE ( 'NONE', #912, #1126 ) ;
#141 = AXIS2_PLACEMENT_3D ( 'NONE', #60, #78, #756 ) ;
#142 = CARTESIAN_POINT ( 'NONE',  ( 0.000000000000000000, 1.149999999999999911, 0.000000000000000000 ) ) ;
#143 = ORIENTED_EDGE ( 'NONE', *, *, #410, .F. ) ;
#144 = LINE ( 'NONE', #1119, #997 ) ;
#145 = ORIENTED_EDGE ( 'NONE', *, *, #484, .T. ) ;
#146 = CARTESIAN_POINT ( 'NONE',  ( 0.000000000000000000, -5.520553484345342928E-17, 0.000000000000000000 ) ) ;
#147 = CIRCLE ( 'NONE', #781, 0.2500000000000000000 ) ;
#148 = DIRECTION ( 'NONE',  ( 1.000000000000000000, 0.000000000000000000, 0.000000000000000000 ) ) ;
#149 = VERTEX_POINT ( 'NONE', #985 ) ;
#150 = CYLINDRICAL_SURFACE ( 'NONE', #1037, 0.1499999999999998557 ) ;
#151 = ORIENTED_EDGE ( 'NONE', *, *, #782, .F. ) ;
#152 = CARTESIAN_POINT ( 'NONE',  ( 0.005000000000000189189, 0.2749999999999999112, 0.2492125984251964410 ) ) ;
#153 = DIRECTION ( 'NONE',  ( -1.365923996832132102E-16, 0.000000000000000000, -1.000000000000000000 ) ) ;
#154 = AXIS2_PLACEMENT_3D ( 'NONE', #20, #222, #1080 ) ;
#155 = VECTOR ( 'NONE', #927, 39.37007874015748143 ) ;
#156 = ORIENTED_EDGE ( 'NONE', *, *, #1197, .T. ) ;
#157 = CARTESIAN_POINT ( 'NONE',  ( 0.005000000000000148423, 0.8749999999999997780, -0.2492125984251963577 ) ) ;
#158 = VERTEX_POINT ( 'NONE', #120 ) ;
#159 = DIRECTION ( 'NONE',  ( -1.365923996832131609E-16, 0.000000000000000000, -1.000000000000000000 ) ) ;
#160 = CC_DESIGN_PERSON_AND_ORGANIZATION_ASSIGNMENT ( #190, #682, ( #171 ) ) ;
#161 = AXIS2_PLACEMENT_3D ( 'NONE', #614, #804, #319 ) ;
#162 = CIRCLE ( 'NONE', #384, 0.04921259842519634664 ) ;
#163 = CARTESIAN_POINT ( 'NONE',  ( 0.1250000000000000000, 1.012943895113159742, -0.2589192820815863771 ) ) ;
#164 = ADVANCED_BREP_SHAPE_REPRESENTATION ( 'Wall Rod', ( #890, #352 ), #433 ) ;
#165 = ORIENTED_EDGE ( 'NONE', *, *, #511, .F. ) ;
#166 = LINE ( 'NONE', #258, #454 ) ;
#167 = EDGE_CURVE ( 'NONE', #918, #755, #1183, .T. ) ;
#168 = ORIENTED_EDGE ( 'NONE', *, *, #673, .F. ) ;
#169 = CARTESIAN_POINT ( 'NONE',  ( 0.005000000000000148423, 0.8749999999999997780, -0.2492125984251963577 ) ) ;
#170 = DIRECTION ( 'NONE',  ( 0.000000000000000000, 0.000000000000000000, 1.000000000000000000 ) ) ;
#171 = PRODUCT_DEFINITION_FORMATION_WITH_SPECIFIED_SOURCE ( 'ANY', '', #1, .NOT_KNOWN. ) ;
#172 = EDGE_LOOP ( 'NONE', ( #526, #753, #375, #714 ) ) ;
#173 = LINE ( 'NONE', #473, #479 ) ;
#174 = VERTEX_POINT ( 'NONE', #891 ) ;
#175 = CARTESIAN_POINT ( 'NONE',  ( -0.1250000000000000000, 0.8749999999999997780, 0.3500000000000000888 ) ) ;
#176 = CARTESIAN_POINT ( 'NONE',  ( 0.000000000000000000, -5.520553484345342928E-17, 0.000000000000000000 ) ) ;
#177 = ORIENTED_EDGE ( 'NONE', *, *, #1217, .F. ) ;
#178 = DATE_TIME_ROLE ( 'creation_date' ) ;
#179 = EDGE_LOOP ( 'NONE', ( #728, #1201, #865, #253 ) ) ;
#180 = CARTESIAN_POINT ( 'NONE',  ( -0.1250000000000000000, 0.1370561048868401133, 0.2589192820815863771 ) ) ;
#181 = ADVANCED_FACE ( 'NONE', ( #31 ), #14, .F. ) ;
#182 = DIRECTION ( 'NONE',  ( 0.000000000000000000, 0.000000000000000000, 1.000000000000000000 ) ) ;
#183 = FACE_BOUND ( 'NONE', #95, .T. ) ;
#184 = PERSON_AND_ORGANIZATION_ROLE ( 'creator' ) ;
#185 = VERTEX_POINT ( 'NONE', #201 ) ;
#186 = CARTESIAN_POINT ( 'NONE',  ( 0.1249999999999999861, 1.242850386968426202, 0.3571180855508968577 ) ) ;
#187 = CARTESIAN_POINT ( 'NONE',  ( 0.000000000000000000, 0.1250000000000001110, 0.000000000000000000 ) ) ;
#188 = ADVANCED_FACE ( 'NONE', ( #133 ), #881, .T. ) ;
#189 = EDGE_LOOP ( 'NONE', ( #1205, #631 ) ) ;
#190 = PERSON_AND_ORGANIZATION ( #119, #680 ) ;
#191 = VERTEX_POINT ( 'NONE', #829 ) ;
#192 = VECTOR ( 'NONE', #1124, 39.37007874015748143 ) ;
#193 = DIRECTION ( 'NONE',  ( 0.5150380749100554878, 1.049727191138617463E-16, 0.8571673007021114454 ) ) ;
#194 = EDGE_LOOP ( 'NONE', ( #957, #857 ) ) ;
#195 = MECHANICAL_CONTEXT ( 'NONE', #1236, 'mechanical' ) ;
#196 = ORIENTED_EDGE ( 'NONE', *, *, #710, .F. ) ;
#197 = DIRECTION ( 'NONE',  ( -1.000000000000000000, 0.000000000000000000, 6.829619984160660511E-17 ) ) ;
#198 = EDGE_CURVE ( 'NONE', #445, #661, #429, .T. ) ;
#199 = EDGE_CURVE ( 'NONE', #445, #1049, #492, .T. ) ;
#200 = EDGE_CURVE ( 'NONE', #980, #327, #1016, .T. ) ;
#201 = CARTESIAN_POINT ( 'NONE',  ( 0.1250000000000000000, 0.2749999999999999112, 0.3499999999999999778 ) ) ;
#202 = ORIENTED_EDGE ( 'NONE', *, *, #1129, .F. ) ;
#203 = CARTESIAN_POINT ( 'NONE',  ( -0.1249999999999999861, 1.242850386968426202, 0.3571180855508968577 ) ) ;
#204 = EDGE_CURVE ( 'NONE', #185, #1134, #808, .T. ) ;
#205 = CARTESIAN_POINT ( 'NONE',  ( 0.005000000000000189189, 0.8749999999999997780, 0.2492125984251963577 ) ) ;
#206 = ORIENTED_EDGE ( 'NONE', *, *, #710, .T. ) ;
#207 = DIRECTION ( 'NONE',  ( 6.829619984160658046E-17, 0.000000000000000000, 1.000000000000000000 ) ) ;
#208 = VECTOR ( 'NONE', #438, 39.37007874015748143 ) ;
#209 = CARTESIAN_POINT ( 'NONE',  ( 0.1250000000000000000, 0.8749999999999997780, 0.2000000000000000111 ) ) ;
#210 = CARTESIAN_POINT ( 'NONE',  ( 0.005000000000000151892, 0.2750000000000000777, -0.2000000000000000111 ) ) ;
#211 = ADVANCED_FACE ( 'NONE', ( #814 ), #48, .F. ) ;
#212 = EDGE_LOOP ( 'NONE', ( #923, #269 ) ) ;
#213 = DIRECTION ( 'NONE',  ( 0.000000000000000000, 0.000000000000000000, -1.000000000000000000 ) ) ;
#214 = DIRECTION ( 'NONE',  ( -6.505213034913093164E-17, 0.000000000000000000, -1.000000000000000000 ) ) ;
#215 = AXIS2_PLACEMENT_3D ( 'NONE', #1107, #822, #1198 ) ;
#216 = DIRECTION ( 'NONE',  ( 0.000000000000000000, 0.000000000000000000, -1.000000000000000000 ) ) ;
#217 = CIRCLE ( 'NONE', #2, 0.1499999999999998557 ) ;
#218 = ORIENTED_EDGE ( 'NONE', *, *, #19, .F. ) ;
#219 = CARTESIAN_POINT ( 'NONE',  ( -0.1250000000000000000, 0.2749999999999999112, 0.3499999999999999778 ) ) ;
#220 = VECTOR ( 'NONE', #1142, 39.37007874015748143 ) ;
#221 = FACE_OUTER_BOUND ( 'NONE', #820, .T. ) ;
#222 = DIRECTION ( 'NONE',  ( 1.000000000000000000, -0.000000000000000000, -6.829619984160659279E-17 ) ) ;
#223 = CALENDAR_DATE ( 2026, 27, 4 ) ;
#224 = VERTEX_POINT ( 'NONE', #137 ) ;
#225 = CYLINDRICAL_SURFACE ( 'NONE', #310, 0.1500000000000000777 ) ;
#226 = FACE_BOUND ( 'NONE', #1199, .T. ) ;
#227 = AXIS2_PLACEMENT_3D ( 'NONE', #812, #911, #1000 ) ;
#228 = CIRCLE ( 'NONE', #683, 0.1500000000000000777 ) ;
#229 = DIRECTION ( 'NONE',  ( 1.000000000000000000, 0.000000000000000000, -0.000000000000000000 ) ) ;
#230 = ORIENTED_EDGE ( 'NONE', *, *, #114, .T. ) ;
#231 = CARTESIAN_POINT ( 'NONE',  ( 0.1249999999999999584, 0.2750000000000000777, -0.2000000000000000111 ) ) ;
#232 = EDGE_CURVE ( 'NONE', #1056, #637, #988, .T. ) ;
#233 = FACE_BOUND ( 'NONE', #189, .T. ) ;
#234 = VECTOR ( 'NONE', #411, 39.37007874015748143 ) ;
#235 = EDGE_CURVE ( 'NONE', #489, #1036, #736, .T. ) ;
#236 = CARTESIAN_POINT ( 'NONE',  ( 0.1250000000000000000, 0.7401172384068295251, 0.2656250000000000000 ) ) ;
#237 = VERTEX_POINT ( 'NONE', #1112 ) ;
#238 = DIRECTION ( 'NONE',  ( 1.000000000000000000, 0.000000000000000000, 0.000000000000000000 ) ) ;
#239 = CIRCLE ( 'NONE', #403, 0.04921259842519634664 ) ;
#240 = DIRECTION ( 'NONE',  ( 6.829619984160660511E-17, 0.000000000000000000, 1.000000000000000000 ) ) ;
#241 = CARTESIAN_POINT ( 'NONE',  ( 0.1249999999999999584, 0.000000000000000000, -0.1249999999999999861 ) ) ;
#242 = EDGE_CURVE ( 'NONE', #590, #263, #381, .T. ) ;
#243 = VERTEX_POINT ( 'NONE', #249 ) ;
#244 = LINE ( 'NONE', #922, #623 ) ;
#245 = CIRCLE ( 'NONE', #1068, 0.1499999999999998557 ) ;
#246 = EDGE_LOOP ( 'NONE', ( #177, #869, #1171 ) ) ;
#247 = CARTESIAN_POINT ( 'NONE',  ( 0.005000000000000185719, 0.2749999999999999112, 0.2000000000000000944 ) ) ;
#248 = DESIGN_CONTEXT ( 'detailed design', #471, 'design' ) ;
#249 = CARTESIAN_POINT ( 'NONE',  ( -0.1250000000000000278, 1.149999999999999911, -0.1249999999999999861 ) ) ;
#250 = CC_DESIGN_DATE_AND_TIME_ASSIGNMENT ( #495, #392, ( #502 ) ) ;
#251 = EDGE_LOOP ( 'NONE', ( #134, #168, #100, #472 ) ) ;
#252 = FACE_OUTER_BOUND ( 'NONE', #1102, .T. ) ;
#253 = ORIENTED_EDGE ( 'NONE', *, *, #599, .T. ) ;
#254 = DIRECTION ( 'NONE',  ( 1.000000000000000000, -0.000000000000000000, -6.829619984160659279E-17 ) ) ;
#255 = DIRECTION ( 'NONE',  ( -1.000000000000000000, -0.000000000000000000, -0.000000000000000000 ) ) ;
#256 = ADVANCED_FACE ( 'NONE', ( #630 ), #435, .F. ) ;
#257 = ORIENTED_EDGE ( 'NONE', *, *, #232, .F. ) ;
#258 = CARTESIAN_POINT ( 'NONE',  ( -0.1249999999999999861, 0.000000000000000000, 0.1249999999999999861 ) ) ;
#259 = ORIENTED_EDGE ( 'NONE', *, *, #167, .F. ) ;
#260 = DIRECTION ( 'NONE',  ( 1.000000000000000000, -0.000000000000000000, -6.829619984160659279E-17 ) ) ;
#261 = AXIS2_PLACEMENT_3D ( 'NONE', #699, #1065, #1074 ) ;
#262 = DIRECTION ( 'NONE',  ( 1.000000000000000000, 0.000000000000000000, 0.000000000000000000 ) ) ;
#263 = VERTEX_POINT ( 'NONE', #455 ) ;
#264 = CARTESIAN_POINT ( 'NONE',  ( 0.1250000000000000278, 0.2750000000000000777, -0.2000000000000000111 ) ) ;
#265 = ORIENTED_EDGE ( 'NONE', *, *, #651, .T. ) ;
#266 = LINE ( 'NONE', #1121, #4 ) ;
#267 = ADVANCED_FACE ( 'NONE', ( #558 ), #607, .F. ) ;
#268 = DIRECTION ( 'NONE',  ( 1.000000000000000000, 0.000000000000000000, -1.365923996832132102E-16 ) ) ;
#269 = ORIENTED_EDGE ( 'NONE', *, *, #421, .F. ) ;
#270 =( NAMED_UNIT ( * ) SI_UNIT ( $, .STERADIAN. ) SOLID_ANGLE_UNIT ( ) );
#271 = CC_DESIGN_APPROVAL ( #907, ( #502 ) ) ;
#272 = ORIENTED_EDGE ( 'NONE', *, *, #955, .T. ) ;
#273 = CYLINDRICAL_SURFACE ( 'NONE', #141, 0.1499999999999998557 ) ;
#274 = DIRECTION ( 'NONE',  ( -0.000000000000000000, 1.000000000000000000, -0.000000000000000000 ) ) ;
#275 = ORIENTED_EDGE ( 'NONE', *, *, #423, .T. ) ;
#276 = AXIS2_PLACEMENT_3D ( 'NONE', #1117, #647, #64 ) ;
#277 = VERTEX_POINT ( 'NONE', #241 ) ;
#278 = CARTESIAN_POINT ( 'NONE',  ( 0.000000000000000000, 1.149999999999999911, 0.000000000000000000 ) ) ;
#279 = ADVANCED_FACE ( 'NONE', ( #340 ), #935, .F. ) ;
#280 = AXIS2_PLACEMENT_3D ( 'NONE', #441, #1028, #536 ) ;
#281 = CARTESIAN_POINT ( 'NONE',  ( 0.000000000000000000, 1.149999999999999911, 0.000000000000000000 ) ) ;
#282 = CIRCLE ( 'NONE', #1150, 0.2500000000000000000 ) ;
#283 = ORIENTED_EDGE ( 'NONE', *, *, #521, .T. ) ;
#284 = DATE_AND_TIME ( #863, #880 ) ;
#285 = EDGE_LOOP ( 'NONE', ( #121, #961, #230, #586 ) ) ;
#286 = DIRECTION ( 'NONE',  ( 6.829619984160658046E-17, 0.000000000000000000, 1.000000000000000000 ) ) ;
#287 = EDGE_CURVE ( 'NONE', #59, #347, #825, .T. ) ;
#288 = ORIENTED_EDGE ( 'NONE', *, *, #692, .T. ) ;
#289 = COORDINATED_UNIVERSAL_TIME_OFFSET ( 8, 0, .BEHIND. ) ;
#290 = EDGE_CURVE ( 'NONE', #1047, #508, #920, .T. ) ;
#291 = ORIENTED_EDGE ( 'NONE', *, *, #108, .F. ) ;
#292 = AXIS2_PLACEMENT_3D ( 'NONE', #1172, #527, #1082 ) ;
#293 = CARTESIAN_POINT ( 'NONE',  ( 6.026805113914107820E-18, 1.149999999999999911, -0.04921259842519658950 ) ) ;
#294 = AXIS2_PLACEMENT_3D ( 'NONE', #203, #596, #974 ) ;
#295 = DIRECTION ( 'NONE',  ( 0.000000000000000000, 0.000000000000000000, -1.000000000000000000 ) ) ;
#296 = DIRECTION ( 'NONE',  ( 1.000000000000000000, 0.000000000000000000, 0.000000000000000000 ) ) ;
#297 = ORIENTED_EDGE ( 'NONE', *, *, #390, .T. ) ;
#298 = FACE_OUTER_BOUND ( 'NONE', #963, .T. ) ;
#299 = FACE_OUTER_BOUND ( 'NONE', #595, .T. ) ;
#300 = SHAPE_DEFINITION_REPRESENTATION ( #1054, #164 ) ;
#301 = ORIENTED_EDGE ( 'NONE', *, *, #305, .F. ) ;
#302 = CARTESIAN_POINT ( 'NONE',  ( 0.1249999999999999584, 0.2750000000000000777, -0.2000000000000000111 ) ) ;
#303 = AXIS2_PLACEMENT_3D ( 'NONE', #1128, #254, #1026 ) ;
#304 = CARTESIAN_POINT ( 'NONE',  ( -0.1249999999999999861, -0.09285038696842640160, 0.3571180855508969132 ) ) ;
#305 = EDGE_CURVE ( 'NONE', #1132, #786, #118, .T. ) ;
#306 = DIRECTION ( 'NONE',  ( 1.000000000000000000, 0.000000000000000000, -0.000000000000000000 ) ) ;
#307 = VECTOR ( 'NONE', #262, 39.37007874015748143 ) ;
#308 = EDGE_LOOP ( 'NONE', ( #1195, #1066, #1162, #341, #283, #1063, #547, #739, #852, #1095, #1239, #467, #1127, #801, #418, #986 ) ) ;
#309 = DIRECTION ( 'NONE',  ( 0.000000000000000000, 0.000000000000000000, -1.000000000000000000 ) ) ;
#310 = AXIS2_PLACEMENT_3D ( 'NONE', #128, #603, #806 ) ;
#311 = FACE_OUTER_BOUND ( 'NONE', #1211, .T. ) ;
#312 = ADVANCED_FACE ( 'NONE', ( #353 ), #886, .F. ) ;
#313 = CARTESIAN_POINT ( 'NONE',  ( 0.005000000000000154494, 0.8749999999999997780, -0.1507874015748036645 ) ) ;
#314 = ORIENTED_EDGE ( 'NONE', *, *, #530, .F. ) ;
#315 = DIRECTION ( 'NONE',  ( 0.000000000000000000, 0.000000000000000000, -1.000000000000000000 ) ) ;
#316 = CARTESIAN_POINT ( 'NONE',  ( 0.1249999999999999861, 1.242850386968426202, -0.3571180855508968577 ) ) ;
#317 = AXIS2_PLACEMENT_3D ( 'NONE', #1165, #809, #887 ) ;
#318 = EDGE_CURVE ( 'NONE', #185, #877, #334, .T. ) ;
#319 = DIRECTION ( 'NONE',  ( 0.000000000000000000, 0.000000000000000000, 1.000000000000000000 ) ) ;
#320 = AXIS2_PLACEMENT_3D ( 'NONE', #525, #397, #837 ) ;
#321 = ORIENTED_EDGE ( 'NONE', *, *, #879, .T. ) ;
#322 = CARTESIAN_POINT ( 'NONE',  ( 0.1250000000000000278, 0.8749999999999997780, -0.2000000000000000111 ) ) ;
#323 = CIRCLE ( 'NONE', #493, 0.04921259842519641603 ) ;
#324 = CARTESIAN_POINT ( 'NONE',  ( -0.1250000000000000278, 1.149999999999999911, -0.1249999999999999861 ) ) ;
#325 = DIRECTION ( 'NONE',  ( -6.505213034913093164E-17, 0.000000000000000000, -1.000000000000000000 ) ) ;
#326 = EDGE_CURVE ( 'NONE', #191, #980, #1044, .T. ) ;
#327 = VERTEX_POINT ( 'NONE', #665 ) ;
#328 = LINE ( 'NONE', #1071, #372 ) ;
#329 = ADVANCED_FACE ( 'NONE', ( #1039 ), #752, .F. ) ;
#330 = EDGE_CURVE ( 'NONE', #637, #480, #579, .T. ) ;
#331 = CARTESIAN_POINT ( 'NONE',  ( -0.1250000000000000278, 1.242850386968426202, -0.3571180855508968577 ) ) ;
#332 = CC_DESIGN_APPROVAL ( #1145, ( #171 ) ) ;
#333 = AXIS2_PLACEMENT_3D ( 'NONE', #278, #672, #1050 ) ;
#334 = LINE ( 'NONE', #1092, #868 ) ;
#335 = ORIENTED_EDGE ( 'NONE', *, *, #932, .T. ) ;
#336 = FACE_OUTER_BOUND ( 'NONE', #451, .T. ) ;
#337 = ORIENTED_EDGE ( 'NONE', *, *, #690, .T. ) ;
#338 = CARTESIAN_POINT ( 'NONE',  ( -0.1250000000000000000, 0.5749999999999999556, -0.1322297000268105038 ) ) ;
#339 = AXIS2_PLACEMENT_3D ( 'NONE', #1186, #742, #325 ) ;
#340 = FACE_OUTER_BOUND ( 'NONE', #308, .T. ) ;
#341 = ORIENTED_EDGE ( 'NONE', *, *, #774, .F. ) ;
#342 = CARTESIAN_POINT ( 'NONE',  ( 0.1250000000000000000, 0.1370561048868401133, 0.2589192820815863771 ) ) ;
#343 = ORIENTED_EDGE ( 'NONE', *, *, #758, .T. ) ;
#344 = DIRECTION ( 'NONE',  ( -1.000000000000000000, -0.000000000000000000, -0.000000000000000000 ) ) ;
#345 = EDGE_CURVE ( 'NONE', #1187, #877, #663, .T. ) ;
#346 = DIRECTION ( 'NONE',  ( -6.505213034913093164E-17, 0.000000000000000000, -1.000000000000000000 ) ) ;
#347 = VERTEX_POINT ( 'NONE', #1122 ) ;
#348 = DIRECTION ( 'NONE',  ( 1.000000000000000000, -0.000000000000000000, -6.829619984160659279E-17 ) ) ;
#349 = ORIENTED_EDGE ( 'NONE', *, *, #463, .T. ) ;
#350 = LINE ( 'NONE', #1116, #1011 ) ;
#351 = EDGE_CURVE ( 'NONE', #845, #327, #815, .T. ) ;
#352 = AXIS2_PLACEMENT_3D ( 'NONE', #8, #500, #296 ) ;
#353 = FACE_OUTER_BOUND ( 'NONE', #32, .T. ) ;
#354 = CONICAL_SURFACE ( 'NONE', #1096, 0.04921259842519634664, 1.029744258676652979 ) ;
#355 = EDGE_LOOP ( 'NONE', ( #811, #297, #337, #958 ) ) ;
#356 = CARTESIAN_POINT ( 'NONE',  ( 0.005000000000000182250, 0.2749999999999999112, 0.1507874015748037477 ) ) ;
#357 = ORIENTED_EDGE ( 'NONE', *, *, #124, .F. ) ;
#358 = FACE_OUTER_BOUND ( 'NONE', #1207, .T. ) ;
#359 = DIRECTION ( 'NONE',  ( 1.000000000000000000, -0.000000000000000000, -6.829619984160659279E-17 ) ) ;
#360 = EDGE_LOOP ( 'NONE', ( #442, #1006, #892, #1070 ) ) ;
#361 = DIRECTION ( 'NONE',  ( -6.505213034913093164E-17, 0.000000000000000000, -1.000000000000000000 ) ) ;
#362 = EDGE_CURVE ( 'NONE', #949, #930, #453, .T. ) ;
#363 = ORIENTED_EDGE ( 'NONE', *, *, #407, .T. ) ;
#364 = FACE_OUTER_BOUND ( 'NONE', #1166, .T. ) ;
#365 = CARTESIAN_POINT ( 'NONE',  ( 0.005000000000000185719, 0.2749999999999999112, 0.2000000000000000944 ) ) ;
#366 = ORIENTED_EDGE ( 'NONE', *, *, #843, .F. ) ;
#367 = CALENDAR_DATE ( 2026, 27, 4 ) ;
#368 = EDGE_CURVE ( 'NONE', #602, #1047, #371, .T. ) ;
#369 = EDGE_LOOP ( 'NONE', ( #615, #151, #587, #1151 ) ) ;
#370 = DIRECTION ( 'NONE',  ( 0.000000000000000000, 0.000000000000000000, -1.000000000000000000 ) ) ;
#371 = LINE ( 'NONE', #604, #307 ) ;
#372 = VECTOR ( 'NONE', #135, 39.37007874015748143 ) ;
#373 = EDGE_LOOP ( 'NONE', ( #838, #202, #366, #1157 ) ) ;
#374 = COORDINATED_UNIVERSAL_TIME_OFFSET ( 8, 0, .BEHIND. ) ;
#375 = ORIENTED_EDGE ( 'NONE', *, *, #421, .T. ) ;
#376 = CARTESIAN_POINT ( 'NONE',  ( 0.005000000000000182250, 0.8749999999999997780, 0.1507874015748036645 ) ) ;
#377 = DIMENSIONAL_EXPONENTS ( 1.000000000000000000, 0.000000000000000000, 0.000000000000000000, 0.000000000000000000, 0.000000000000000000, 0.000000000000000000, 0.000000000000000000 ) ;
#378 = CARTESIAN_POINT ( 'NONE',  ( 0.1250000000000000555, 0.8749999999999997780, 0.2000000000000000111 ) ) ;
#379 = DIRECTION ( 'NONE',  ( 0.000000000000000000, 1.000000000000000000, 0.000000000000000000 ) ) ;
#380 = PERSON_AND_ORGANIZATION ( #119, #680 ) ;
#381 = CIRCLE ( 'NONE', #215, 0.2500000000000000000 ) ;
#382 = ORIENTED_EDGE ( 'NONE', *, *, #656, .T. ) ;
#383 = CARTESIAN_POINT ( 'NONE',  ( 6.026805113914107820E-18, 1.024999999999999911, -0.04921259842519658950 ) ) ;
#384 = AXIS2_PLACEMENT_3D ( 'NONE', #556, #947, #840 ) ;
#385 = EDGE_CURVE ( 'NONE', #224, #430, #914, .T. ) ;
#386 = VERTEX_POINT ( 'NONE', #697 ) ;
#387 = EDGE_LOOP ( 'NONE', ( #1041, #937, #946 ) ) ;
#388 = CARTESIAN_POINT ( 'NONE',  ( 0.1250000000000000000, 0.8749999999999997780, 0.3500000000000000888 ) ) ;
#389 = EDGE_CURVE ( 'NONE', #761, #701, #1051, .T. ) ;
#390 = EDGE_CURVE ( 'NONE', #57, #413, #1072, .T. ) ;
#391 = DIRECTION ( 'NONE',  ( 0.000000000000000000, 0.000000000000000000, 1.000000000000000000 ) ) ;
#392 = DATE_TIME_ROLE ( 'classification_date' ) ;
#393 = ORIENTED_EDGE ( 'NONE', *, *, #965, .T. ) ;
#394 = VECTOR ( 'NONE', #465, 39.37007874015748854 ) ;
#395 = CARTESIAN_POINT ( 'NONE',  ( 6.026805113914107820E-18, 0.1250000000000001110, 0.04921259842519658950 ) ) ;
#396 = AXIS2_PLACEMENT_3D ( 'NONE', #1105, #1090, #529 ) ;
#397 = DIRECTION ( 'NONE',  ( -1.000000000000000000, -0.000000000000000000, -0.000000000000000000 ) ) ;
#398 = DATE_AND_TIME ( #223, #434 ) ;
#399 = AXIS2_PLACEMENT_3D ( 'NONE', #417, #1069, #712 ) ;
#400 = ORIENTED_EDGE ( 'NONE', *, *, #43, .F. ) ;
#401 = DIRECTION ( 'NONE',  ( 1.000000000000000000, 0.000000000000000000, -0.000000000000000000 ) ) ;
#402 = LINE ( 'NONE', #884, #1203 ) ;
#403 = AXIS2_PLACEMENT_3D ( 'NONE', #113, #18, #1218 ) ;
#404 = CARTESIAN_POINT ( 'NONE',  ( 0.000000000000000000, 0.000000000000000000, 0.000000000000000000 ) ) ;
#405 = ORIENTED_EDGE ( 'NONE', *, *, #198, .T. ) ;
#406 = FACE_OUTER_BOUND ( 'NONE', #246, .T. ) ;
#407 = EDGE_CURVE ( 'NONE', #910, #277, #1237, .T. ) ;
#408 = CARTESIAN_POINT ( 'NONE',  ( 0.1250000000000000555, 0.2749999999999999112, 0.1507874015748036645 ) ) ;
#409 = AXIS2_PLACEMENT_3D ( 'NONE', #510, #721, #214 ) ;
#410 = EDGE_CURVE ( 'NONE', #480, #555, #936, .T. ) ;
#411 = DIRECTION ( 'NONE',  ( 1.000000000000000000, 0.000000000000000000, 0.000000000000000000 ) ) ;
#412 = AXIS2_PLACEMENT_3D ( 'NONE', #176, #746, #573 ) ;
#413 = VERTEX_POINT ( 'NONE', #844 ) ;
#414 = DIRECTION ( 'NONE',  ( -1.000000000000000000, 0.000000000000000000, 6.829619984160660511E-17 ) ) ;
#415 = EDGE_CURVE ( 'NONE', #718, #833, #540, .T. ) ;
#416 = DIRECTION ( 'NONE',  ( 6.829619984160658046E-17, 0.000000000000000000, 1.000000000000000000 ) ) ;
#417 = CARTESIAN_POINT ( 'NONE',  ( 0.1249999999999999861, -0.09285038696842640160, -0.3571180855508968577 ) ) ;
#418 = ORIENTED_EDGE ( 'NONE', *, *, #463, .F. ) ;
#419 = DIRECTION ( 'NONE',  ( -0.000000000000000000, 1.000000000000000000, -0.000000000000000000 ) ) ;
#420 = LINE ( 'NONE', #624, #1106 ) ;
#421 = EDGE_CURVE ( 'NONE', #347, #59, #698, .T. ) ;
#422 = CARTESIAN_POINT ( 'NONE',  ( -0.1250000000000000000, 0.2749999999999999112, 0.2000000000000000944 ) ) ;
#423 = EDGE_CURVE ( 'NONE', #701, #652, #477, .T. ) ;
#424 = EDGE_CURVE ( 'NONE', #637, #1056, #578, .T. ) ;
#425 = VERTEX_POINT ( 'NONE', #469 ) ;
#426 = CARTESIAN_POINT ( 'NONE',  ( 0.000000000000000000, 1.149999999999999911, 0.000000000000000000 ) ) ;
#427 = LINE ( 'NONE', #889, #798 ) ;
#428 = EDGE_CURVE ( 'NONE', #1222, #737, #402, .T. ) ;
#429 = LINE ( 'NONE', #72, #872 ) ;
#430 = VERTEX_POINT ( 'NONE', #975 ) ;
#431 = FACE_OUTER_BOUND ( 'NONE', #26, .T. ) ;
#432 = CARTESIAN_POINT ( 'NONE',  ( -0.1250000000000000000, 1.012943895113159742, -0.2589192820815864327 ) ) ;
#433 =( GEOMETRIC_REPRESENTATION_CONTEXT ( 3 ) GLOBAL_UNCERTAINTY_ASSIGNED_CONTEXT ( ( #598 ) ) GLOBAL_UNIT_ASSIGNED_CONTEXT ( ( #1140, #770, #270 ) ) REPRESENTATION_CONTEXT ( 'NONE', 'WORKASPACE' ) );
#434 = LOCAL_TIME ( 20, 57, 26.00000000000000000, #713 ) ;
#435 = CYLINDRICAL_SURFACE ( 'NONE', #1079, 0.2500000000000000000 ) ;
#436 = EDGE_LOOP ( 'NONE', ( #503, #464, #218, #862 ) ) ;
#437 = AXIS2_PLACEMENT_3D ( 'NONE', #803, #729, #240 ) ;
#438 = DIRECTION ( 'NONE',  ( -1.000000000000000000, -0.000000000000000000, -0.000000000000000000 ) ) ;
#439 = DIRECTION ( 'NONE',  ( 1.000000000000000000, -0.000000000000000000, -6.829619984160659279E-17 ) ) ;
#440 = CLOSED_SHELL ( 'NONE', ( #1153, #267, #691, #605, #49, #617, #991, #1009, #979, #622, #785, #88, #722, #984, #524, #279, #1098, #15, #211, #1055, #1125, #34, #188, #36, #874, #734, #727, #778, #312, #491, #660, #564, #329, #71, #256, #836, #181, #990, #466, #864 ) ) ;
#441 = CARTESIAN_POINT ( 'NONE',  ( 0.1250000000000000000, 1.024999999999999911, 0.2000000000000000111 ) ) ;
#442 = ORIENTED_EDGE ( 'NONE', *, *, #1083, .F. ) ;
#443 = LINE ( 'NONE', #546, #394 ) ;
#444 = AXIS2_PLACEMENT_3D ( 'NONE', #1210, #1101, #346 ) ;
#445 = VERTEX_POINT ( 'NONE', #669 ) ;
#446 = DIRECTION ( 'NONE',  ( 1.000000000000000000, -0.000000000000000000, -6.829619984160659279E-17 ) ) ;
#447 = AXIS2_PLACEMENT_3D ( 'NONE', #302, #1042, #764 ) ;
#448 = DIRECTION ( 'NONE',  ( 0.000000000000000000, 0.000000000000000000, 1.000000000000000000 ) ) ;
#449 = ORIENTED_EDGE ( 'NONE', *, *, #908, .F. ) ;
#450 = CARTESIAN_POINT ( 'NONE',  ( 0.005000000000000185719, 0.8749999999999997780, 0.2000000000000000111 ) ) ;
#451 = EDGE_LOOP ( 'NONE', ( #1238, #671, #349, #514 ) ) ;
#452 = CARTESIAN_POINT ( 'NONE',  ( -0.1250000000000000000, 0.1370561048868401133, -0.2589192820815863771 ) ) ;
#453 = CIRCLE ( 'NONE', #412, 0.04921259842519641603 ) ;
#454 = VECTOR ( 'NONE', #238, 39.37007874015748143 ) ;
#455 = CARTESIAN_POINT ( 'NONE',  ( 0.1250000000000000000, 0.7401172384068295251, -0.2656250000000000000 ) ) ;
#456 = ORIENTED_EDGE ( 'NONE', *, *, #199, .T. ) ;
#457 = CARTESIAN_POINT ( 'NONE',  ( 0.005000000000000148423, 0.2750000000000000777, -0.2492125984251963577 ) ) ;
#458 = ORIENTED_EDGE ( 'NONE', *, *, #389, .T. ) ;
#459 = CARTESIAN_POINT ( 'NONE',  ( -0.1250000000000000278, 0.000000000000000000, -0.1249999999999999861 ) ) ;
#460 = VECTOR ( 'NONE', #593, 39.37007874015748143 ) ;
#461 = EDGE_CURVE ( 'NONE', #57, #675, #239, .T. ) ;
#462 = CARTESIAN_POINT ( 'NONE',  ( 0.1249999999999999584, 0.000000000000000000, -0.1249999999999999861 ) ) ;
#463 = EDGE_CURVE ( 'NONE', #243, #602, #1168, .T. ) ;
#464 = ORIENTED_EDGE ( 'NONE', *, *, #235, .T. ) ;
#465 = DIRECTION ( 'NONE',  ( 0.5150380749100554878, 1.049727191138617463E-16, 0.8571673007021114454 ) ) ;
#466 = ADVANCED_FACE ( 'NONE', ( #221 ), #904, .F. ) ;
#467 = ORIENTED_EDGE ( 'NONE', *, *, #970, .F. ) ;
#468 = DIRECTION ( 'NONE',  ( 0.000000000000000000, 0.000000000000000000, -1.000000000000000000 ) ) ;
#469 = CARTESIAN_POINT ( 'NONE',  ( 0.005000000000000148423, 0.2750000000000000777, -0.2492125984251963577 ) ) ;
#470 = VECTOR ( 'NONE', #35, 39.37007874015748143 ) ;
#471 = APPLICATION_CONTEXT ( 'configuration controlled 3d designs of mechanical parts and assemblies' ) ;
#472 = ORIENTED_EDGE ( 'NONE', *, *, #242, .F. ) ;
#473 = CARTESIAN_POINT ( 'NONE',  ( 0.005000000000000154494, 0.2750000000000000777, -0.1507874015748036645 ) ) ;
#474 = VECTOR ( 'NONE', #716, 39.37007874015748143 ) ;
#475 = ORIENTED_EDGE ( 'NONE', *, *, #484, .F. ) ;
#476 = CARTESIAN_POINT ( 'NONE',  ( 0.1250000000000000000, 0.2749999999999999112, 0.2000000000000000944 ) ) ;
#477 = CIRCLE ( 'NONE', #62, 0.1500000000000000500 ) ;
#478 = DIRECTION ( 'NONE',  ( 0.000000000000000000, 0.000000000000000000, 1.000000000000000000 ) ) ;
#479 = VECTOR ( 'NONE', #687, 39.37007874015748854 ) ;
#480 = VERTEX_POINT ( 'NONE', #1084 ) ;
#481 = APPROVAL_DATE_TIME ( #594, #705 ) ;
#482 = EDGE_LOOP ( 'NONE', ( #574, #272, #1118, #1234 ) ) ;
#483 = DIRECTION ( 'NONE',  ( 6.829619984160658046E-17, 0.000000000000000000, 1.000000000000000000 ) ) ;
#484 = EDGE_CURVE ( 'NONE', #89, #637, #420, .T. ) ;
#485 = CC_DESIGN_PERSON_AND_ORGANIZATION_ASSIGNMENT ( #876, #972, ( #1002 ) ) ;
#486 = CARTESIAN_POINT ( 'NONE',  ( 0.1250000000000000000, 0.8749999999999997780, 0.2000000000000000111 ) ) ;
#487 = APPROVAL_DATE_TIME ( #284, #1145 ) ;
#488 = AXIS2_PLACEMENT_3D ( 'NONE', #517, #694, #295 ) ;
#489 = VERTEX_POINT ( 'NONE', #432 ) ;
#490 = DIRECTION ( 'NONE',  ( -1.000000000000000000, -0.000000000000000000, -0.000000000000000000 ) ) ;
#491 = ADVANCED_FACE ( 'NONE', ( #821 ), #895, .F. ) ;
#492 = CIRCLE ( 'NONE', #102, 0.1500000000000000500 ) ;
#493 = AXIS2_PLACEMENT_3D ( 'NONE', #146, #542, #653 ) ;
#494 = CYLINDRICAL_SURFACE ( 'NONE', #1043, 0.1500000000000000500 ) ;
#495 = DATE_AND_TIME ( #104, #1135 ) ;
#496 = VERTEX_POINT ( 'NONE', #338 ) ;
#497 = DIRECTION ( 'NONE',  ( 1.000000000000000000, 0.000000000000000000, 0.000000000000000000 ) ) ;
#498 = AXIS2_PLACEMENT_3D ( 'NONE', #304, #117, #182 ) ;
#499 = DIRECTION ( 'NONE',  ( 1.000000000000000000, -0.000000000000000000, -6.829619984160659279E-17 ) ) ;
#500 = DIRECTION ( 'NONE',  ( 0.000000000000000000, 0.000000000000000000, 1.000000000000000000 ) ) ;
#501 = EDGE_CURVE ( 'NONE', #1187, #191, #612, .T. ) ;
#502 = SECURITY_CLASSIFICATION ( '', '', #87 ) ;
#503 = ORIENTED_EDGE ( 'NONE', *, *, #851, .T. ) ;
#504 = FACE_OUTER_BOUND ( 'NONE', #1193, .T. ) ;
#505 = DIRECTION ( 'NONE',  ( 1.000000000000000000, -0.000000000000000000, -6.829619984160659279E-17 ) ) ;
#506 = CARTESIAN_POINT ( 'NONE',  ( 0.1250000000000000000, 0.2749999999999999112, 0.1507874015748036922 ) ) ;
#507 = AXIS2_PLACEMENT_3D ( 'NONE', #724, #268, #942 ) ;
#508 = VERTEX_POINT ( 'NONE', #535 ) ;
#509 = CARTESIAN_POINT ( 'NONE',  ( 6.026805113914097034E-18, -5.520553484345342928E-17, 0.04921259842519641603 ) ) ;
#510 = CARTESIAN_POINT ( 'NONE',  ( 0.005000000000000151892, 0.8749999999999997780, -0.2000000000000000111 ) ) ;
#511 = EDGE_CURVE ( 'NONE', #1036, #508, #1099, .T. ) ;
#512 = VECTOR ( 'NONE', #1001, 39.37007874015748143 ) ;
#513 = CARTESIAN_POINT ( 'NONE',  ( -0.1249999999999999445, -0.09285038696842640160, 0.3571180855508969132 ) ) ;
#514 = ORIENTED_EDGE ( 'NONE', *, *, #368, .T. ) ;
#515 = FACE_OUTER_BOUND ( 'NONE', #733, .T. ) ;
#516 = DIRECTION ( 'NONE',  ( 1.000000000000000000, 0.000000000000000000, -0.000000000000000000 ) ) ;
#517 = CARTESIAN_POINT ( 'NONE',  ( -0.1250000000000000278, -0.09285038696842640160, -0.3571180855508968577 ) ) ;
#518 = ORIENTED_EDGE ( 'NONE', *, *, #70, .T. ) ;
#519 = DIRECTION ( 'NONE',  ( 0.000000000000000000, 0.000000000000000000, -1.000000000000000000 ) ) ;
#520 = AXIS2_PLACEMENT_3D ( 'NONE', #1076, #39, #213 ) ;
#521 = EDGE_CURVE ( 'NONE', #661, #627, #24, .T. ) ;
#522 = FACE_OUTER_BOUND ( 'NONE', #902, .T. ) ;
#523 = AXIS2_PLACEMENT_3D ( 'NONE', #90, #1235, #1064 ) ;
#524 = ADVANCED_FACE ( 'NONE', ( #233, #226, #900, #807, #311 ), #1100, .F. ) ;
#525 = CARTESIAN_POINT ( 'NONE',  ( 0.1250000000000000000, 0.2750000000000000777, -0.2000000000000000111 ) ) ;
#526 = ORIENTED_EDGE ( 'NONE', *, *, #129, .F. ) ;
#527 = DIRECTION ( 'NONE',  ( 1.000000000000000000, -0.000000000000000000, -6.829619984160659279E-17 ) ) ;
#528 = EDGE_CURVE ( 'NONE', #833, #949, #427, .T. ) ;
#529 = DIRECTION ( 'NONE',  ( -1.365923996832131609E-16, 0.000000000000000000, -1.000000000000000000 ) ) ;
#530 = EDGE_CURVE ( 'NONE', #608, #1187, #1077, .T. ) ;
#531 = DIRECTION ( 'NONE',  ( 1.000000000000000000, -0.000000000000000000, -6.829619984160659279E-17 ) ) ;
#532 = ORIENTED_EDGE ( 'NONE', *, *, #565, .T. ) ;
#533 = DIRECTION ( 'NONE',  ( 1.000000000000000000, 0.000000000000000000, -1.365923996832132102E-16 ) ) ;
#534 = AXIS2_PLACEMENT_3D ( 'NONE', #1022, #439, #827 ) ;
#535 = CARTESIAN_POINT ( 'NONE',  ( 0.1249999999999999584, 1.149999999999999911, -0.1249999999999999861 ) ) ;
#536 = DIRECTION ( 'NONE',  ( 0.000000000000000000, -0.000000000000000000, -1.000000000000000000 ) ) ;
#537 = EDGE_CURVE ( 'NONE', #508, #243, #1184, .T. ) ;
#538 = ORIENTED_EDGE ( 'NONE', *, *, #345, .T. ) ;
#539 = FACE_OUTER_BOUND ( 'NONE', #823, .T. ) ;
#540 = CIRCLE ( 'NONE', #1232, 0.04921259842519658950 ) ;
#541 = ORIENTED_EDGE ( 'NONE', *, *, #200, .T. ) ;
#542 = DIRECTION ( 'NONE',  ( -0.000000000000000000, -1.000000000000000000, -0.000000000000000000 ) ) ;
#543 = CONICAL_SURFACE ( 'NONE', #292, 0.04921259842519634664, 1.029744258676652979 ) ;
#544 = CARTESIAN_POINT ( 'NONE',  ( 0.005000000000000185719, 0.8749999999999997780, 0.2000000000000000111 ) ) ;
#545 = ORIENTED_EDGE ( 'NONE', *, *, #415, .T. ) ;
#546 = CARTESIAN_POINT ( 'NONE',  ( 0.005000000000000189189, 0.8749999999999997780, 0.2492125984251963577 ) ) ;
#547 = ORIENTED_EDGE ( 'NONE', *, *, #167, .T. ) ;
#548 = DIRECTION ( 'NONE',  ( 1.000000000000000000, -0.000000000000000000, -6.829619984160659279E-17 ) ) ;
#549 = AXIS2_PLACEMENT_3D ( 'NONE', #486, #1060, #103 ) ;
#550 = DIRECTION ( 'NONE',  ( -0.000000000000000000, 1.000000000000000000, -0.000000000000000000 ) ) ;
#551 = EDGE_CURVE ( 'NONE', #675, #57, #635, .T. ) ;
#552 = ORIENTED_EDGE ( 'NONE', *, *, #43, .T. ) ;
#553 = CARTESIAN_POINT ( 'NONE',  ( 0.005000000000000182250, 0.2749999999999999112, 0.1507874015748037477 ) ) ;
#554 = AXIS2_PLACEMENT_3D ( 'NONE', #978, #115, #794 ) ;
#555 = VERTEX_POINT ( 'NONE', #408 ) ;
#556 = CARTESIAN_POINT ( 'NONE',  ( 0.1250000000000000278, 0.8749999999999997780, -0.2000000000000000111 ) ) ;
#557 = CIRCLE ( 'NONE', #63, 0.2500000000000000000 ) ;
#558 = FACE_OUTER_BOUND ( 'NONE', #1104, .T. ) ;
#559 = ORIENTED_EDGE ( 'NONE', *, *, #424, .T. ) ;
#560 = DIRECTION ( 'NONE',  ( 1.000000000000000000, -0.000000000000000000, -6.829619984160659279E-17 ) ) ;
#561 = ORIENTED_EDGE ( 'NONE', *, *, #1083, .T. ) ;
#562 = LINE ( 'NONE', #735, #105 ) ;
#563 = VECTOR ( 'NONE', #1033, 39.37007874015748143 ) ;
#564 = ADVANCED_FACE ( 'NONE', ( #522 ), #136, .F. ) ;
#565 = EDGE_CURVE ( 'NONE', #608, #185, #245, .T. ) ;
#566 = CARTESIAN_POINT ( 'NONE',  ( 0.1250000000000000555, 0.2749999999999999112, 0.2000000000000000944 ) ) ;
#567 = AXIS2_PLACEMENT_3D ( 'NONE', #186, #197, #286 ) ;
#568 = FACE_OUTER_BOUND ( 'NONE', #436, .T. ) ;
#569 = DIRECTION ( 'NONE',  ( -1.000000000000000000, -0.000000000000000000, -0.000000000000000000 ) ) ;
#570 = EDGE_LOOP ( 'NONE', ( #1108, #1120, #156, #357 ) ) ;
#571 = DIRECTION ( 'NONE',  ( -6.505213034913093164E-17, 0.000000000000000000, -1.000000000000000000 ) ) ;
#572 = CIRCLE ( 'NONE', #154, 0.04921259842519634664 ) ;
#573 = DIRECTION ( 'NONE',  ( 0.000000000000000000, 0.000000000000000000, -1.000000000000000000 ) ) ;
#574 = ORIENTED_EDGE ( 'NONE', *, *, #582, .F. ) ;
#575 = APPROVAL_STATUS ( 'not_yet_approved' ) ;
#576 = ORIENTED_EDGE ( 'NONE', *, *, #415, .F. ) ;
#577 = CYLINDRICAL_SURFACE ( 'NONE', #1160, 0.04921259842519638134 ) ;
#578 = CIRCLE ( 'NONE', #928, 0.04921259842519634664 ) ;
#579 = LINE ( 'NONE', #760, #1190 ) ;
#580 = PLANE ( 'NONE',  #788 ) ;
#581 = APPLICATION_PROTOCOL_DEFINITION ( 'international standard', 'config_control_design', 1994, #471 ) ;
#582 = EDGE_CURVE ( 'NONE', #496, #237, #956, .T. ) ;
#583 = ORIENTED_EDGE ( 'NONE', *, *, #1078, .T. ) ;
#584 = DIRECTION ( 'NONE',  ( 0.000000000000000000, 0.000000000000000000, -1.000000000000000000 ) ) ;
#585 = DIRECTION ( 'NONE',  ( 0.000000000000000000, 0.000000000000000000, -1.000000000000000000 ) ) ;
#586 = ORIENTED_EDGE ( 'NONE', *, *, #69, .T. ) ;
#587 = ORIENTED_EDGE ( 'NONE', *, *, #200, .F. ) ;
#588 = CYLINDRICAL_SURFACE ( 'NONE', #625, 0.2500000000000000000 ) ;
#589 = ORIENTED_EDGE ( 'NONE', *, *, #232, .T. ) ;
#590 = VERTEX_POINT ( 'NONE', #709 ) ;
#591 = DIRECTION ( 'NONE',  ( -6.505213034913093164E-17, 0.000000000000000000, -1.000000000000000000 ) ) ;
#592 = CIRCLE ( 'NONE', #751, 0.04921259842519641603 ) ;
#593 = DIRECTION ( 'NONE',  ( 1.000000000000000000, -0.000000000000000000, -6.829619984160659279E-17 ) ) ;
#594 = DATE_AND_TIME ( #367, #720 ) ;
#595 = EDGE_LOOP ( 'NONE', ( #707, #265, #1034, #695 ) ) ;
#596 = DIRECTION ( 'NONE',  ( 1.000000000000000000, 0.000000000000000000, 0.000000000000000000 ) ) ;
#597 = EDGE_CURVE ( 'NONE', #1132, #59, #140, .T. ) ;
#598 = UNCERTAINTY_MEASURE_WITH_UNIT (LENGTH_MEASURE( 1.000000000000000082E-05 ), #1140, 'distance_accuracy_value', 'NONE');
#599 = EDGE_CURVE ( 'NONE', #796, #174, #592, .T. ) ;
#600 = CARTESIAN_POINT ( 'NONE',  ( -0.02456991235371804722, 0.2749999999999998002, 0.2000000000000000944 ) ) ;
#601 = AXIS2_PLACEMENT_3D ( 'NONE', #987, #414, #116 ) ;
#602 = VERTEX_POINT ( 'NONE', #668 ) ;
#603 = DIRECTION ( 'NONE',  ( -1.000000000000000000, -0.000000000000000000, -0.000000000000000000 ) ) ;
#604 = CARTESIAN_POINT ( 'NONE',  ( -0.1249999999999999861, 1.149999999999999911, 0.1249999999999999861 ) ) ;
#605 = ADVANCED_FACE ( 'NONE', ( #853 ), #909, .F. ) ;
#606 = LINE ( 'NONE', #800, #61 ) ;
#607 = CONICAL_SURFACE ( 'NONE', #55, 0.04921259842519634664, 1.029744258676652979 ) ;
#608 = VERTEX_POINT ( 'NONE', #750 ) ;
#609 = CARTESIAN_POINT ( 'NONE',  ( 0.005000000000000151892, 0.2750000000000000777, -0.2000000000000000111 ) ) ;
#610 = DIRECTION ( 'NONE',  ( 1.000000000000000000, -0.000000000000000000, -6.829619984160659279E-17 ) ) ;
#611 = VECTOR ( 'NONE', #913, 39.37007874015748143 ) ;
#612 = CIRCLE ( 'NONE', #396, 0.2500000000000000000 ) ;
#613 = CIRCLE ( 'NONE', #711, 0.2500000000000000000 ) ;
#614 = CARTESIAN_POINT ( 'NONE',  ( 0.1250000000000000000, 0.5153126357515458444, 0.3749999999999998890 ) ) ;
#615 = ORIENTED_EDGE ( 'NONE', *, *, #943, .F. ) ;
#616 = DIRECTION ( 'NONE',  ( -1.000000000000000000, -0.000000000000000000, -0.000000000000000000 ) ) ;
#617 = ADVANCED_FACE ( 'NONE', ( #924 ), #1228, .F. ) ;
#618 = CARTESIAN_POINT ( 'NONE',  ( -0.1250000000000000555, -0.09285038696842640160, -0.3571180855508968577 ) ) ;
#619 = DIRECTION ( 'NONE',  ( -0.000000000000000000, -1.000000000000000000, -0.000000000000000000 ) ) ;
#620 = ORIENTED_EDGE ( 'NONE', *, *, #389, .F. ) ;
#621 = CYLINDRICAL_SURFACE ( 'NONE', #96, 0.04921259842519658950 ) ;
#622 = ADVANCED_FACE ( 'NONE', ( #834 ), #273, .T. ) ;
#623 = VECTOR ( 'NONE', #850, 39.37007874015748143 ) ;
#624 = CARTESIAN_POINT ( 'NONE',  ( 0.005000000000000189189, 0.2749999999999999112, 0.2492125984251964410 ) ) ;
#625 = AXIS2_PLACEMENT_3D ( 'NONE', #964, #490, #101 ) ;
#626 = DIRECTION ( 'NONE',  ( 0.000000000000000000, 0.000000000000000000, 1.000000000000000000 ) ) ;
#627 = VERTEX_POINT ( 'NONE', #459 ) ;
#628 = FACE_OUTER_BOUND ( 'NONE', #65, .T. ) ;
#629 = DIRECTION ( 'NONE',  ( 0.000000000000000000, 0.000000000000000000, 1.000000000000000000 ) ) ;
#630 = FACE_OUTER_BOUND ( 'NONE', #251, .T. ) ;
#631 = ORIENTED_EDGE ( 'NONE', *, *, #385, .F. ) ;
#632 = CARTESIAN_POINT ( 'NONE',  ( 0.1249999999999999861, 0.5749999999999998446, 0.1322297000268104761 ) ) ;
#633 = ORIENTED_EDGE ( 'NONE', *, *, #1225, .F. ) ;
#634 = DIRECTION ( 'NONE',  ( -0.000000000000000000, -1.000000000000000000, -0.000000000000000000 ) ) ;
#635 = CIRCLE ( 'NONE', #409, 0.04921259842519634664 ) ;
#636 = CARTESIAN_POINT ( 'NONE',  ( 0.1250000000000000000, 0.2749999999999999112, 0.2000000000000000944 ) ) ;
#637 = VERTEX_POINT ( 'NONE', #152 ) ;
#638 = DIRECTION ( 'NONE',  ( -6.505213034913093164E-17, 0.000000000000000000, -1.000000000000000000 ) ) ;
#639 = FACE_OUTER_BOUND ( 'NONE', #106, .T. ) ;
#640 = VECTOR ( 'NONE', #616, 39.37007874015748143 ) ;
#641 = EDGE_CURVE ( 'NONE', #555, #480, #854, .T. ) ;
#642 = DIRECTION ( 'NONE',  ( -6.505213034913093164E-17, 0.000000000000000000, -1.000000000000000000 ) ) ;
#643 = ORIENTED_EDGE ( 'NONE', *, *, #905, .T. ) ;
#644 = DIRECTION ( 'NONE',  ( 1.000000000000000000, -0.000000000000000000, -6.829619984160659279E-17 ) ) ;
#645 = ORIENTED_EDGE ( 'NONE', *, *, #1089, .F. ) ;
#646 = DIRECTION ( 'NONE',  ( 1.000000000000000000, 0.000000000000000000, -1.365923996832132102E-16 ) ) ;
#647 = DIRECTION ( 'NONE',  ( -0.000000000000000000, 1.000000000000000000, -0.000000000000000000 ) ) ;
#648 = ORIENTED_EDGE ( 'NONE', *, *, #765, .T. ) ;
#649 = CARTESIAN_POINT ( 'NONE',  ( 0.1249999999999999584, 0.2750000000000000777, -0.1507874015748036367 ) ) ;
#650 = CIRCLE ( 'NONE', #261, 0.04921259842519658950 ) ;
#651 = EDGE_CURVE ( 'NONE', #277, #627, #350, .T. ) ;
#652 = VERTEX_POINT ( 'NONE', #175 ) ;
#653 = DIRECTION ( 'NONE',  ( 0.000000000000000000, 0.000000000000000000, -1.000000000000000000 ) ) ;
#654 = AXIS2_PLACEMENT_3D ( 'NONE', #662, #548, #571 ) ;
#655 = CC_DESIGN_PERSON_AND_ORGANIZATION_ASSIGNMENT ( #99, #676, ( #502 ) ) ;
#656 = EDGE_CURVE ( 'NONE', #675, #1040, #266, .T. ) ;
#657 = CARTESIAN_POINT ( 'NONE',  ( -0.1250000000000000000, 0.2749999999999999112, 0.2000000000000000944 ) ) ;
#658 = CARTESIAN_POINT ( 'NONE',  ( 0.000000000000000000, 0.000000000000000000, 0.000000000000000000 ) ) ;
#659 = PLANE ( 'NONE',  #12 ) ;
#660 = ADVANCED_FACE ( 'NONE', ( #358 ), #929, .F. ) ;
#661 = VERTEX_POINT ( 'NONE', #452 ) ;
#662 = CARTESIAN_POINT ( 'NONE',  ( 0.005000000000000185719, 0.8749999999999997780, 0.2000000000000000111 ) ) ;
#663 = CIRCLE ( 'NONE', #1091, 0.1499999999999998557 ) ;
#664 = CIRCLE ( 'NONE', #977, 0.04921259842519641603 ) ;
#665 = CARTESIAN_POINT ( 'NONE',  ( 0.1250000000000000000, 0.7401172384068295251, 0.2656250000000000000 ) ) ;
#666 = ORIENTED_EDGE ( 'NONE', *, *, #390, .F. ) ;
#667 = ORIENTED_EDGE ( 'NONE', *, *, #551, .T. ) ;
#668 = CARTESIAN_POINT ( 'NONE',  ( -0.1249999999999999861, 1.149999999999999911, 0.1249999999999999861 ) ) ;
#669 = CARTESIAN_POINT ( 'NONE',  ( 0.1250000000000000000, 0.1370561048868401133, -0.2589192820815863771 ) ) ;
#670 = ORIENTED_EDGE ( 'NONE', *, *, #428, .T. ) ;
#671 = ORIENTED_EDGE ( 'NONE', *, *, #537, .T. ) ;
#672 = DIRECTION ( 'NONE',  ( -0.000000000000000000, 1.000000000000000000, -0.000000000000000000 ) ) ;
#673 = EDGE_CURVE ( 'NONE', #386, #496, #613, .T. ) ;
#674 = DIRECTION ( 'NONE',  ( 1.000000000000000000, 0.000000000000000000, 0.000000000000000000 ) ) ;
#675 = VERTEX_POINT ( 'NONE', #169 ) ;
#676 = PERSON_AND_ORGANIZATION_ROLE ( 'classification_officer' ) ;
#677 = ORIENTED_EDGE ( 'NONE', *, *, #511, .T. ) ;
#678 = LINE ( 'NONE', #878, #1214 ) ;
#679 = EDGE_CURVE ( 'NONE', #701, #602, #557, .T. ) ;
#680 = ORGANIZATION ( 'UNSPECIFIED', 'UNSPECIFIED', '' ) ;
#681 = DIRECTION ( 'NONE',  ( 0.000000000000000000, 0.000000000000000000, -1.000000000000000000 ) ) ;
#682 = PERSON_AND_ORGANIZATION_ROLE ( 'design_supplier' ) ;
#683 = AXIS2_PLACEMENT_3D ( 'NONE', #107, #497, #1163 ) ;
#684 = ORIENTED_EDGE ( 'NONE', *, *, #108, .T. ) ;
#685 = CARTESIAN_POINT ( 'NONE',  ( -0.1250000000000000000, 0.2750000000000000777, -0.2000000000000000111 ) ) ;
#686 = CYLINDRICAL_SURFACE ( 'NONE', #772, 0.04921259842519658950 ) ;
#687 = DIRECTION ( 'NONE',  ( 0.5150380749100554878, 1.049727191138617463E-16, 0.8571673007021114454 ) ) ;
#688 = ORIENTED_EDGE ( 'NONE', *, *, #290, .F. ) ;
#689 = CYLINDRICAL_SURFACE ( 'NONE', #294, 0.2500000000000000000 ) ;
#690 = EDGE_CURVE ( 'NONE', #413, #1040, #162, .T. ) ;
#691 = ADVANCED_FACE ( 'NONE', ( #1136 ), #1223, .F. ) ;
#692 = EDGE_CURVE ( 'NONE', #930, #949, #323, .T. ) ;
#693 = AXIS2_PLACEMENT_3D ( 'NONE', #247, #68, #740 ) ;
#694 = DIRECTION ( 'NONE',  ( 1.000000000000000000, 0.000000000000000000, 0.000000000000000000 ) ) ;
#695 = ORIENTED_EDGE ( 'NONE', *, *, #198, .F. ) ;
#696 = CARTESIAN_POINT ( 'NONE',  ( 0.1249999999999999861, -0.09285038696842640160, 0.3571180855508969132 ) ) ;
#697 = CARTESIAN_POINT ( 'NONE',  ( -0.1250000000000000000, 0.7401172384068295251, -0.2656250000000000000 ) ) ;
#698 = CIRCLE ( 'NONE', #1017, 0.04921259842519641603 ) ;
#699 = CARTESIAN_POINT ( 'NONE',  ( 0.000000000000000000, 1.024999999999999911, 0.000000000000000000 ) ) ;
#700 = AXIS2_PLACEMENT_3D ( 'NONE', #1182, #533, #27 ) ;
#701 = VERTEX_POINT ( 'NONE', #919 ) ;
#702 = DIRECTION ( 'NONE',  ( 1.000000000000000000, -0.000000000000000000, -6.829619984160659279E-17 ) ) ;
#703 = DIRECTION ( 'NONE',  ( -1.000000000000000000, 0.000000000000000000, 6.829619984160660511E-17 ) ) ;
#704 = CYLINDRICAL_SURFACE ( 'NONE', #488, 0.2500000000000000000 ) ;
#705 = APPROVAL ( #777, 'UNSPECIFIED' ) ;
#706 = AXIS2_PLACEMENT_3D ( 'NONE', #730, #1023, #153 ) ;
#707 = ORIENTED_EDGE ( 'NONE', *, *, #79, .F. ) ;
#708 = CYLINDRICAL_SURFACE ( 'NONE', #227, 0.2500000000000000000 ) ;
#709 = CARTESIAN_POINT ( 'NONE',  ( 0.1249999999999999584, 0.5749999999999999556, -0.1322297000268105038 ) ) ;
#710 = EDGE_CURVE ( 'NONE', #845, #652, #562, .T. ) ;
#711 = AXIS2_PLACEMENT_3D ( 'NONE', #1209, #646, #159 ) ;
#712 = DIRECTION ( 'NONE',  ( 6.829619984160658046E-17, 0.000000000000000000, 1.000000000000000000 ) ) ;
#713 = COORDINATED_UNIVERSAL_TIME_OFFSET ( 8, 0, .BEHIND. ) ;
#714 = ORIENTED_EDGE ( 'NONE', *, *, #597, .F. ) ;
#715 = CARTESIAN_POINT ( 'NONE',  ( 3.414809992080329023E-17, 0.5749999999999998446, 0.1322297000268104761 ) ) ;
#716 = DIRECTION ( 'NONE',  ( -1.000000000000000000, -0.000000000000000000, -0.000000000000000000 ) ) ;
#717 = CARTESIAN_POINT ( 'NONE',  ( 0.1250000000000000000, 0.5153126357515458444, -0.3749999999999998890 ) ) ;
#718 = VERTEX_POINT ( 'NONE', #847 ) ;
#719 = CARTESIAN_POINT ( 'NONE',  ( 0.1250000000000000278, 0.8749999999999997780, -0.2492125984251963577 ) ) ;
#720 = LOCAL_TIME ( 20, 57, 26.00000000000000000, #374 ) ;
#721 = DIRECTION ( 'NONE',  ( 1.000000000000000000, -0.000000000000000000, -6.829619984160659279E-17 ) ) ;
#722 = ADVANCED_FACE ( 'NONE', ( #364 ), #84, .F. ) ;
#723 = AXIS2_PLACEMENT_3D ( 'NONE', #685, #401, #873 ) ;
#724 = CARTESIAN_POINT ( 'NONE',  ( -0.1249999999999999306, 0.5153126357515458444, 0.3749999999999998890 ) ) ;
#725 = EDGE_LOOP ( 'NONE', ( #291, #973, #83, #763 ) ) ;
#726 = DIRECTION ( 'NONE',  ( 0.000000000000000000, -0.000000000000000000, 1.000000000000000000 ) ) ;
#727 = ADVANCED_FACE ( 'NONE', ( #639 ), #830, .F. ) ;
#728 = ORIENTED_EDGE ( 'NONE', *, *, #1164, .F. ) ;
#729 = DIRECTION ( 'NONE',  ( -1.000000000000000000, 0.000000000000000000, 6.829619984160660511E-17 ) ) ;
#730 = CARTESIAN_POINT ( 'NONE',  ( -0.1250000000000000278, 1.149999999999999911, -0.1249999999999999861 ) ) ;
#731 = ORIENTED_EDGE ( 'NONE', *, *, #774, .T. ) ;
#732 = CARTESIAN_POINT ( 'NONE',  ( 0.1250000000000000000, 0.8749999999999997780, 0.2000000000000000111 ) ) ;
#733 = EDGE_LOOP ( 'NONE', ( #16, #939, #749, #314 ) ) ;
#734 = ADVANCED_FACE ( 'NONE', ( #866 ), #1067, .F. ) ;
#735 = CARTESIAN_POINT ( 'NONE',  ( 0.1250000000000000000, 0.8749999999999997780, 0.3500000000000000888 ) ) ;
#736 = LINE ( 'NONE', #163, #767 ) ;
#737 = VERTEX_POINT ( 'NONE', #376 ) ;
#738 = LINE ( 'NONE', #748, #208 ) ;
#739 = ORIENTED_EDGE ( 'NONE', *, *, #114, .F. ) ;
#740 = DIRECTION ( 'NONE',  ( -6.505213034913093164E-17, 0.000000000000000000, -1.000000000000000000 ) ) ;
#741 = AXIS2_PLACEMENT_3D ( 'NONE', #231, #702, #315 ) ;
#742 = DIRECTION ( 'NONE',  ( 1.000000000000000000, -0.000000000000000000, -6.829619984160659279E-17 ) ) ;
#743 = ORIENTED_EDGE ( 'NONE', *, *, #330, .T. ) ;
#744 = DIRECTION ( 'NONE',  ( 0.000000000000000000, 0.000000000000000000, 1.000000000000000000 ) ) ;
#745 = DIRECTION ( 'NONE',  ( -1.000000000000000000, -0.000000000000000000, -0.000000000000000000 ) ) ;
#746 = DIRECTION ( 'NONE',  ( -0.000000000000000000, -1.000000000000000000, -0.000000000000000000 ) ) ;
#747 = ORIENTED_EDGE ( 'NONE', *, *, #641, .F. ) ;
#748 = CARTESIAN_POINT ( 'NONE',  ( 0.1250000000000000000, 0.7401172384068295251, -0.2656250000000000000 ) ) ;
#749 = ORIENTED_EDGE ( 'NONE', *, *, #501, .F. ) ;
#750 = CARTESIAN_POINT ( 'NONE',  ( 0.1250000000000000000, 0.4098827615931701085, 0.2656250000000000000 ) ) ;
#751 = AXIS2_PLACEMENT_3D ( 'NONE', #940, #1038, #1216 ) ;
#752 = CYLINDRICAL_SURFACE ( 'NONE', #498, 0.2500000000000000000 ) ;
#753 = ORIENTED_EDGE ( 'NONE', *, *, #790, .T. ) ;
#754 = COORDINATED_UNIVERSAL_TIME_OFFSET ( 8, 0, .BEHIND. ) ;
#755 = VERTEX_POINT ( 'NONE', #180 ) ;
#756 = DIRECTION ( 'NONE',  ( 0.000000000000000000, 0.000000000000000000, 1.000000000000000000 ) ) ;
#757 = AXIS2_PLACEMENT_3D ( 'NONE', #209, #80, #91 ) ;
#758 = EDGE_CURVE ( 'NONE', #1049, #590, #282, .T. ) ;
#759 = AXIS2_PLACEMENT_3D ( 'NONE', #797, #994, #1177 ) ;
#760 = CARTESIAN_POINT ( 'NONE',  ( 0.1250000000000000000, 0.2749999999999999112, 0.2492125984251964688 ) ) ;
#761 = VERTEX_POINT ( 'NONE', #17 ) ;
#762 = CALENDAR_DATE ( 2026, 27, 4 ) ;
#763 = ORIENTED_EDGE ( 'NONE', *, *, #1052, .F. ) ;
#764 = DIRECTION ( 'NONE',  ( 0.000000000000000000, 0.000000000000000000, -1.000000000000000000 ) ) ;
#765 = EDGE_CURVE ( 'NONE', #237, #1049, #1158, .T. ) ;
#766 = CIRCLE ( 'NONE', #1179, 0.04921259842519634664 ) ;
#767 = VECTOR ( 'NONE', #148, 39.37007874015748143 ) ;
#768 = DIRECTION ( 'NONE',  ( 0.000000000000000000, 0.000000000000000000, -1.000000000000000000 ) ) ;
#769 = ORIENTED_EDGE ( 'NONE', *, *, #537, .F. ) ;
#770 =( NAMED_UNIT ( * ) PLANE_ANGLE_UNIT ( ) SI_UNIT ( $, .RADIAN. ) );
#771 = ORIENTED_EDGE ( 'NONE', *, *, #679, .F. ) ;
#772 = AXIS2_PLACEMENT_3D ( 'NONE', #404, #619, #216 ) ;
#773 = DIRECTION ( 'NONE',  ( -0.000000000000000000, 1.000000000000000000, -0.000000000000000000 ) ) ;
#774 = EDGE_CURVE ( 'NONE', #661, #237, #941, .T. ) ;
#775 = AXIS2_PLACEMENT_3D ( 'NONE', #1167, #780, #591 ) ;
#776 = FACE_OUTER_BOUND ( 'NONE', #921, .T. ) ;
#777 = APPROVAL_STATUS ( 'not_yet_approved' ) ;
#778 = ADVANCED_FACE ( 'NONE', ( #792 ), #577, .F. ) ;
#779 = ORIENTED_EDGE ( 'NONE', *, *, #816, .F. ) ;
#780 = DIRECTION ( 'NONE',  ( 1.000000000000000000, -0.000000000000000000, -6.829619984160659279E-17 ) ) ;
#781 = AXIS2_PLACEMENT_3D ( 'NONE', #696, #802, #207 ) ;
#782 = EDGE_CURVE ( 'NONE', #327, #1176, #842, .T. ) ;
#783 = ORIENTED_EDGE ( 'NONE', *, *, #782, .T. ) ;
#784 = VECTOR ( 'NONE', #6, 39.37007874015748143 ) ;
#785 = ADVANCED_FACE ( 'NONE', ( #959 ), #1240, .F. ) ;
#786 = VERTEX_POINT ( 'NONE', #383 ) ;
#787 = LINE ( 'NONE', #969, #784 ) ;
#788 = AXIS2_PLACEMENT_3D ( 'NONE', #658, #379, #98 ) ;
#789 = CARTESIAN_POINT ( 'NONE',  ( 0.1250000000000000000, 0.1370561048868400855, 0.2589192820815863771 ) ) ;
#790 = EDGE_CURVE ( 'NONE', #786, #347, #97, .T. ) ;
#791 = ORIENTED_EDGE ( 'NONE', *, *, #56, .T. ) ;
#792 = FACE_OUTER_BOUND ( 'NONE', #111, .T. ) ;
#793 = DIRECTION ( 'NONE',  ( 0.000000000000000000, 0.000000000000000000, -1.000000000000000000 ) ) ;
#794 = DIRECTION ( 'NONE',  ( 0.000000000000000000, 3.469446951953632924E-16, 1.000000000000000000 ) ) ;
#795 = APPROVAL_DATE_TIME ( #398, #907 ) ;
#796 = VERTEX_POINT ( 'NONE', #1152 ) ;
#797 = CARTESIAN_POINT ( 'NONE',  ( -0.1250000000000000000, 0.8749999999999997780, 0.2000000000000000111 ) ) ;
#798 = VECTOR ( 'NONE', #634, 39.37007874015748143 ) ;
#799 = DIRECTION ( 'NONE',  ( 0.5150380749100554878, 1.049727191138617463E-16, 0.8571673007021114454 ) ) ;
#800 = CARTESIAN_POINT ( 'NONE',  ( 0.1250000000000000000, 0.8749999999999997780, 0.2492125984251963577 ) ) ;
#801 = ORIENTED_EDGE ( 'NONE', *, *, #679, .T. ) ;
#802 = DIRECTION ( 'NONE',  ( -1.000000000000000000, 0.000000000000000000, 6.829619984160660511E-17 ) ) ;
#803 = CARTESIAN_POINT ( 'NONE',  ( 0.1249999999999999584, 1.149999999999999911, -0.1249999999999999861 ) ) ;
#804 = DIRECTION ( 'NONE',  ( -1.000000000000000000, -0.000000000000000000, -0.000000000000000000 ) ) ;
#805 = EDGE_LOOP ( 'NONE', ( #1018, #52 ) ) ;
#806 = DIRECTION ( 'NONE',  ( 0.000000000000000000, 0.000000000000000000, 1.000000000000000000 ) ) ;
#807 = FACE_BOUND ( 'NONE', #805, .T. ) ;
#808 = CIRCLE ( 'NONE', #828, 0.1499999999999998557 ) ;
#809 = DIRECTION ( 'NONE',  ( 1.000000000000000000, -0.000000000000000000, -6.829619984160659279E-17 ) ) ;
#810 = CC_DESIGN_DATE_AND_TIME_ASSIGNMENT ( #1133, #178, ( #1002 ) ) ;
#811 = ORIENTED_EDGE ( 'NONE', *, *, #461, .F. ) ;
#812 = CARTESIAN_POINT ( 'NONE',  ( 0.1250000000000000000, 0.6346873642484538447, 0.3749999999999998890 ) ) ;
#813 = CARTESIAN_POINT ( 'NONE',  ( 0.1250000000000000000, 0.8749999999999997780, 0.2000000000000000111 ) ) ;
#814 = FACE_OUTER_BOUND ( 'NONE', #194, .T. ) ;
#815 = CIRCLE ( 'NONE', #757, 0.1500000000000000500 ) ;
#816 = EDGE_CURVE ( 'NONE', #1047, #761, #76, .T. ) ;
#817 = ORIENTED_EDGE ( 'NONE', *, *, #235, .F. ) ;
#818 = CARTESIAN_POINT ( 'NONE',  ( 0.1249999999999999861, 0.000000000000000000, 0.1249999999999999861 ) ) ;
#819 = EDGE_CURVE ( 'NONE', #158, #57, #678, .T. ) ;
#820 = EDGE_LOOP ( 'NONE', ( #449, #769, #165, #817 ) ) ;
#821 = FACE_OUTER_BOUND ( 'NONE', #1233, .T. ) ;
#822 = DIRECTION ( 'NONE',  ( -1.000000000000000000, 0.000000000000000000, 6.829619984160660511E-17 ) ) ;
#823 = EDGE_LOOP ( 'NONE', ( #545, #684 ) ) ;
#824 = DIRECTION ( 'NONE',  ( 0.000000000000000000, 1.000000000000000000, -3.414809992080328530E-16 ) ) ;
#825 = CIRCLE ( 'NONE', #983, 0.04921259842519641603 ) ;
#826 = EDGE_LOOP ( 'NONE', ( #645, #145, #559 ) ) ;
#827 = DIRECTION ( 'NONE',  ( -6.505213034913093164E-17, 0.000000000000000000, -1.000000000000000000 ) ) ;
#828 = AXIS2_PLACEMENT_3D ( 'NONE', #636, #1003, #1204 ) ;
#829 = CARTESIAN_POINT ( 'NONE',  ( -0.1249999999999999584, 0.5749999999999998446, 0.1322297000268104761 ) ) ;
#830 = CONICAL_SURFACE ( 'NONE', #775, 0.04921259842519634664, 1.029744258676652979 ) ;
#831 = ORIENTED_EDGE ( 'NONE', *, *, #551, .F. ) ;
#832 = DIRECTION ( 'NONE',  ( 0.000000000000000000, 1.000000000000000000, 0.000000000000000000 ) ) ;
#833 = VERTEX_POINT ( 'NONE', #395 ) ;
#834 = FACE_OUTER_BOUND ( 'NONE', #285, .T. ) ;
#835 = AXIS2_PLACEMENT_3D ( 'NONE', #316, #703, #416 ) ;
#836 = ADVANCED_FACE ( 'NONE', ( #1057 ), #588, .F. ) ;
#837 = DIRECTION ( 'NONE',  ( 0.000000000000000000, 0.000000000000000000, 1.000000000000000000 ) ) ;
#838 = ORIENTED_EDGE ( 'NONE', *, *, #407, .F. ) ;
#839 = DIRECTION ( 'NONE',  ( 0.5150380749100553768, 0.000000000000000000, -0.8571673007021116675 ) ) ;
#840 = DIRECTION ( 'NONE',  ( 0.000000000000000000, 0.000000000000000000, -1.000000000000000000 ) ) ;
#841 = APPROVAL_PERSON_ORGANIZATION ( #1155, #1145, #962 ) ;
#842 = CIRCLE ( 'NONE', #523, 0.2500000000000000000 ) ;
#843 = EDGE_CURVE ( 'NONE', #627, #918, #787, .T. ) ;
#844 = CARTESIAN_POINT ( 'NONE',  ( 0.1250000000000000278, 0.8749999999999997780, -0.1507874015748036645 ) ) ;
#845 = VERTEX_POINT ( 'NONE', #388 ) ;
#846 = DIRECTION ( 'NONE',  ( 0.5150380749100553768, 0.000000000000000000, -0.8571673007021116675 ) ) ;
#847 = CARTESIAN_POINT ( 'NONE',  ( 0.000000000000000000, 0.1250000000000000833, -0.04921259842519658950 ) ) ;
#848 = DIRECTION ( 'NONE',  ( -0.000000000000000000, -1.000000000000000000, 3.414809992080328530E-16 ) ) ;
#849 = ORIENTED_EDGE ( 'NONE', *, *, #1217, .T. ) ;
#850 = DIRECTION ( 'NONE',  ( 1.000000000000000000, -0.000000000000000000, -6.829619984160659279E-17 ) ) ;
#851 = EDGE_CURVE ( 'NONE', #386, #489, #228, .T. ) ;
#852 = ORIENTED_EDGE ( 'NONE', *, *, #345, .F. ) ;
#853 = FACE_OUTER_BOUND ( 'NONE', #387, .T. ) ;
#854 = CIRCLE ( 'NONE', #303, 0.04921259842519641603 ) ;
#855 = DIRECTION ( 'NONE',  ( 0.5150380749100553768, 0.000000000000000000, -0.8571673007021116675 ) ) ;
#856 = ORIENTED_EDGE ( 'NONE', *, *, #318, .F. ) ;
#857 = ORIENTED_EDGE ( 'NONE', *, *, #129, .T. ) ;
#858 = DIRECTION ( 'NONE',  ( 1.000000000000000000, -0.000000000000000000, -6.829619984160659279E-17 ) ) ;
#859 = AXIS2_PLACEMENT_3D ( 'NONE', #378, #505, #793 ) ;
#860 = CIRCLE ( 'NONE', #11, 0.04921259842519634664 ) ;
#861 = CARTESIAN_POINT ( 'NONE',  ( 0.1249999999999999584, 0.8749999999999997780, -0.1507874015748036645 ) ) ;
#862 = ORIENTED_EDGE ( 'NONE', *, *, #1086, .T. ) ;
#863 = CALENDAR_DATE ( 2026, 27, 4 ) ;
#864 = ADVANCED_FACE ( 'NONE', ( #298 ), #689, .F. ) ;
#865 = ORIENTED_EDGE ( 'NONE', *, *, #124, .T. ) ;
#866 = FACE_OUTER_BOUND ( 'NONE', #179, .T. ) ;
#867 = CIRCLE ( 'NONE', #399, 0.2500000000000000000 ) ;
#868 = VECTOR ( 'NONE', #906, 39.37007874015748143 ) ;
#869 = ORIENTED_EDGE ( 'NONE', *, *, #1225, .T. ) ;
#870 = APPLICATION_PROTOCOL_DEFINITION ( 'international standard', 'config_control_design', 1994, #1236 ) ;
#871 = VERTEX_POINT ( 'NONE', #112 ) ;
#872 = VECTOR ( 'NONE', #255, 39.37007874015748143 ) ;
#873 = DIRECTION ( 'NONE',  ( 0.000000000000000000, 0.000000000000000000, 1.000000000000000000 ) ) ;
#874 = ADVANCED_FACE ( 'NONE', ( #504 ), #354, .F. ) ;
#875 = CARTESIAN_POINT ( 'NONE',  ( 0.1250000000000000000, 0.8749999999999997780, -0.2000000000000000111 ) ) ;
#876 = PERSON_AND_ORGANIZATION ( #119, #680 ) ;
#877 = VERTEX_POINT ( 'NONE', #219 ) ;
#878 = CARTESIAN_POINT ( 'NONE',  ( 0.005000000000000154494, 0.8749999999999997780, -0.1507874015748036645 ) ) ;
#879 = EDGE_CURVE ( 'NONE', #1040, #413, #13, .T. ) ;
#880 = LOCAL_TIME ( 20, 57, 26.00000000000000000, #289 ) ;
#881 = CYLINDRICAL_SURFACE ( 'NONE', #320, 0.1500000000000000500 ) ;
#882 = ORIENTED_EDGE ( 'NONE', *, *, #894, .T. ) ;
#883 = CARTESIAN_POINT ( 'NONE',  ( 0.1249999999999999445, 0.6346873642484540667, -0.3749999999999998890 ) ) ;
#884 = CARTESIAN_POINT ( 'NONE',  ( 0.005000000000000182250, 0.8749999999999997780, 0.1507874015748036645 ) ) ;
#885 = AXIS2_PLACEMENT_3D ( 'NONE', #618, #130, #995 ) ;
#886 = CONICAL_SURFACE ( 'NONE', #339, 0.04921259842519634664, 1.029744258676652979 ) ;
#887 = DIRECTION ( 'NONE',  ( 0.000000000000000000, 0.000000000000000000, -1.000000000000000000 ) ) ;
#888 = CYLINDRICAL_SURFACE ( 'NONE', #741, 0.04921259842519638134 ) ;
#889 = CARTESIAN_POINT ( 'NONE',  ( 6.026805113914107820E-18, 0.000000000000000000, 0.04921259842519658950 ) ) ;
#890 = MANIFOLD_SOLID_BREP ( 'Fillet1', #440 ) ;
#891 = CARTESIAN_POINT ( 'NONE',  ( 0.1250000000000000278, 0.2750000000000000777, -0.1507874015748036090 ) ) ;
#892 = ORIENTED_EDGE ( 'NONE', *, *, #385, .T. ) ;
#893 = FACE_OUTER_BOUND ( 'NONE', #570, .T. ) ;
#894 = EDGE_CURVE ( 'NONE', #1176, #608, #132, .T. ) ;
#895 = CYLINDRICAL_SURFACE ( 'NONE', #951, 0.04921259842519634664 ) ;
#896 = DIRECTION ( 'NONE',  ( 1.000000000000000000, 0.000000000000000000, -1.365923996832132102E-16 ) ) ;
#897 = APPROVAL_PERSON_ORGANIZATION ( #1227, #705, #1061 ) ;
#898 = ORIENTED_EDGE ( 'NONE', *, *, #79, .T. ) ;
#899 = CARTESIAN_POINT ( 'NONE',  ( -0.1249999999999999861, 0.000000000000000000, 0.1249999999999999861 ) ) ;
#900 = FACE_BOUND ( 'NONE', #67, .T. ) ;
#901 = FACE_OUTER_BOUND ( 'NONE', #1081, .T. ) ;
#902 = EDGE_LOOP ( 'NONE', ( #1113, #1021, #1012, #643 ) ) ;
#903 = DIRECTION ( 'NONE',  ( 0.000000000000000000, 0.000000000000000000, 1.000000000000000000 ) ) ;
#904 = CYLINDRICAL_SURFACE ( 'NONE', #1149, 0.2500000000000000000 ) ;
#905 = EDGE_CURVE ( 'NONE', #430, #224, #1115, .T. ) ;
#906 = DIRECTION ( 'NONE',  ( -1.000000000000000000, -0.000000000000000000, -0.000000000000000000 ) ) ;
#907 = APPROVAL ( #1093, 'UNSPECIFIED' ) ;
#908 = EDGE_CURVE ( 'NONE', #243, #489, #1073, .T. ) ;
#909 = CONICAL_SURFACE ( 'NONE', #534, 0.04921259842519634664, 1.029744258676652979 ) ;
#910 = VERTEX_POINT ( 'NONE', #818 ) ;
#911 = DIRECTION ( 'NONE',  ( -1.000000000000000000, -0.000000000000000000, -0.000000000000000000 ) ) ;
#912 = CARTESIAN_POINT ( 'NONE',  ( 0.000000000000000000, 1.149999999999999911, 0.04921259842519658950 ) ) ;
#913 = DIRECTION ( 'NONE',  ( 1.000000000000000000, 0.000000000000000000, 0.000000000000000000 ) ) ;
#914 = CIRCLE ( 'NONE', #859, 0.04921259842519634664 ) ;
#915 = ORIENTED_EDGE ( 'NONE', *, *, #1078, .F. ) ;
#916 = LINE ( 'NONE', #553, #192 ) ;
#917 = AXIS2_PLACEMENT_3D ( 'NONE', #732, #644, #1206 ) ;
#918 = VERTEX_POINT ( 'NONE', #899 ) ;
#919 = CARTESIAN_POINT ( 'NONE',  ( -0.1250000000000000000, 1.012943895113159742, 0.2589192820815864327 ) ) ;
#920 = LINE ( 'NONE', #54, #155 ) ;
#921 = EDGE_LOOP ( 'NONE', ( #196, #1215, #458, #275 ) ) ;
#922 = CARTESIAN_POINT ( 'NONE',  ( 0.1250000000000000000, 0.8749999999999997780, 0.1507874015748036645 ) ) ;
#923 = ORIENTED_EDGE ( 'NONE', *, *, #287, .F. ) ;
#924 = FACE_OUTER_BOUND ( 'NONE', #826, .T. ) ;
#925 = CC_DESIGN_PERSON_AND_ORGANIZATION_ASSIGNMENT ( #950, #184, ( #171 ) ) ;
#926 = VECTOR ( 'NONE', #1180, 39.37007874015748143 ) ;
#927 = DIRECTION ( 'NONE',  ( -6.829619984160659279E-17, -0.000000000000000000, -1.000000000000000000 ) ) ;
#928 = AXIS2_PLACEMENT_3D ( 'NONE', #365, #1130, #85 ) ;
#929 = CONICAL_SURFACE ( 'NONE', #654, 0.04921259842519634664, 1.029744258676652979 ) ;
#930 = VERTEX_POINT ( 'NONE', #33 ) ;
#931 = LINE ( 'NONE', #649, #1159 ) ;
#932 = EDGE_CURVE ( 'NONE', #1134, #910, #147, .T. ) ;
#933 = ORIENTED_EDGE ( 'NONE', *, *, #428, .F. ) ;
#934 = DIRECTION ( 'NONE',  ( -1.365923996832131609E-16, 0.000000000000000000, -1.000000000000000000 ) ) ;
#935 = PLANE ( 'NONE',  #706 ) ;
#936 = CIRCLE ( 'NONE', #1156, 0.04921259842519641603 ) ;
#937 = ORIENTED_EDGE ( 'NONE', *, *, #819, .T. ) ;
#938 = LINE ( 'NONE', #157, #1020 ) ;
#939 = ORIENTED_EDGE ( 'NONE', *, *, #943, .T. ) ;
#940 = CARTESIAN_POINT ( 'NONE',  ( 0.1250000000000000278, 0.2750000000000000777, -0.2000000000000000111 ) ) ;
#941 = CIRCLE ( 'NONE', #723, 0.1500000000000000500 ) ;
#942 = DIRECTION ( 'NONE',  ( -1.365923996832131609E-16, 0.000000000000000000, -1.000000000000000000 ) ) ;
#943 = EDGE_CURVE ( 'NONE', #1176, #191, #981, .T. ) ;
#944 = LINE ( 'NONE', #506, #460 ) ;
#945 = CARTESIAN_POINT ( 'NONE',  ( 0.1250000000000000000, 0.1250000000000001665, 0.2000000000000000111 ) ) ;
#946 = ORIENTED_EDGE ( 'NONE', *, *, #461, .T. ) ;
#947 = DIRECTION ( 'NONE',  ( 1.000000000000000000, -0.000000000000000000, -6.829619984160659279E-17 ) ) ;
#948 = DIRECTION ( 'NONE',  ( 1.000000000000000000, -0.000000000000000000, -6.829619984160659279E-17 ) ) ;
#949 = VERTEX_POINT ( 'NONE', #509 ) ;
#950 = PERSON_AND_ORGANIZATION ( #119, #680 ) ;
#951 = AXIS2_PLACEMENT_3D ( 'NONE', #40, #1173, #1196 ) ;
#952 = ORIENTED_EDGE ( 'NONE', *, *, #351, .F. ) ;
#953 = CARTESIAN_POINT ( 'NONE',  ( 0.1250000000000000000, 0.4098827615931703860, -0.2656250000000000000 ) ) ;
#954 = DIRECTION ( 'NONE',  ( 1.000000000000000000, 0.000000000000000000, -0.000000000000000000 ) ) ;
#955 = EDGE_CURVE ( 'NONE', #496, #590, #328, .T. ) ;
#956 = CIRCLE ( 'NONE', #1170, 0.2500000000000000000 ) ;
#957 = ORIENTED_EDGE ( 'NONE', *, *, #305, .T. ) ;
#958 = ORIENTED_EDGE ( 'NONE', *, *, #656, .F. ) ;
#959 = FACE_OUTER_BOUND ( 'NONE', #172, .T. ) ;
#960 = AXIS2_PLACEMENT_3D ( 'NONE', #945, #824, #66 ) ;
#961 = ORIENTED_EDGE ( 'NONE', *, *, #318, .T. ) ;
#962 = APPROVAL_ROLE ( '' ) ;
#963 = EDGE_LOOP ( 'NONE', ( #779, #998, #771, #620 ) ) ;
#964 = CARTESIAN_POINT ( 'NONE',  ( 0.1250000000000000000, 0.6346873642484540667, -0.3749999999999998890 ) ) ;
#965 = EDGE_CURVE ( 'NONE', #761, #845, #1191, .T. ) ;
#966 = ORIENTED_EDGE ( 'NONE', *, *, #690, .F. ) ;
#967 = COORDINATED_UNIVERSAL_TIME_OFFSET ( 8, 0, .BEHIND. ) ;
#968 = ORIENTED_EDGE ( 'NONE', *, *, #424, .F. ) ;
#969 = CARTESIAN_POINT ( 'NONE',  ( -0.1250000000000000278, 0.000000000000000000, -0.1249999999999999861 ) ) ;
#970 = EDGE_CURVE ( 'NONE', #652, #980, #1174, .T. ) ;
#971 = DIRECTION ( 'NONE',  ( -6.505213034913093164E-17, 0.000000000000000000, -1.000000000000000000 ) ) ;
#972 = PERSON_AND_ORGANIZATION_ROLE ( 'creator' ) ;
#973 = ORIENTED_EDGE ( 'NONE', *, *, #528, .T. ) ;
#974 = DIRECTION ( 'NONE',  ( 0.000000000000000000, 0.000000000000000000, -1.000000000000000000 ) ) ;
#975 = CARTESIAN_POINT ( 'NONE',  ( 0.1250000000000000555, 0.8749999999999997780, 0.1507874015748036645 ) ) ;
#976 = VECTOR ( 'NONE', #982, 39.37007874015748143 ) ;
#977 = AXIS2_PLACEMENT_3D ( 'NONE', #264, #560, #1035 ) ;
#978 = CARTESIAN_POINT ( 'NONE',  ( 0.000000000000000000, 0.1250000000000001110, 0.000000000000000000 ) ) ;
#979 = ADVANCED_FACE ( 'NONE', ( #431 ), #225, .T. ) ;
#980 = VERTEX_POINT ( 'NONE', #22 ) ;
#981 = LINE ( 'NONE', #715, #640 ) ;
#982 = DIRECTION ( 'NONE',  ( -6.829619984160659279E-17, -0.000000000000000000, -1.000000000000000000 ) ) ;
#983 = AXIS2_PLACEMENT_3D ( 'NONE', #142, #550, #1192 ) ;
#984 = ADVANCED_FACE ( 'NONE', ( #628 ), #621, .F. ) ;
#985 = CARTESIAN_POINT ( 'NONE',  ( -0.02456991235371808191, 0.2749999999999999112, -0.2000000000000000111 ) ) ;
#986 = ORIENTED_EDGE ( 'NONE', *, *, #908, .T. ) ;
#987 = CARTESIAN_POINT ( 'NONE',  ( 0.1250000000000000000, 0.6346873642484538447, 0.3749999999999998890 ) ) ;
#988 = CIRCLE ( 'NONE', #444, 0.04921259842519634664 ) ;
#989 = CARTESIAN_POINT ( 'NONE',  ( 0.1250000000000000000, 0.2749999999999999112, 0.2000000000000000944 ) ) ;
#990 = ADVANCED_FACE ( 'NONE', ( #515 ), #708, .F. ) ;
#991 = ADVANCED_FACE ( 'NONE', ( #893 ), #888, .F. ) ;
#992 = LINE ( 'NONE', #1085, #926 ) ;
#993 = ORIENTED_EDGE ( 'NONE', *, *, #530, .T. ) ;
#994 = DIRECTION ( 'NONE',  ( 1.000000000000000000, 0.000000000000000000, 0.000000000000000000 ) ) ;
#995 = DIRECTION ( 'NONE',  ( -1.365923996832131609E-16, 0.000000000000000000, -1.000000000000000000 ) ) ;
#996 = DIRECTION ( 'NONE',  ( -1.365923996832131609E-16, 0.000000000000000000, -1.000000000000000000 ) ) ;
#997 = VECTOR ( 'NONE', #1200, 39.37007874015748143 ) ;
#998 = ORIENTED_EDGE ( 'NONE', *, *, #368, .F. ) ;
#999 = VECTOR ( 'NONE', #773, 39.37007874015748143 ) ;
#1000 = DIRECTION ( 'NONE',  ( 0.000000000000000000, 0.000000000000000000, 1.000000000000000000 ) ) ;
#1001 = DIRECTION ( 'NONE',  ( 1.365923996832131856E-16, 0.000000000000000000, 1.000000000000000000 ) ) ;
#1002 = PRODUCT_DEFINITION ( 'UNKNOWN', '', #171, #248 ) ;
#1003 = DIRECTION ( 'NONE',  ( 1.000000000000000000, 0.000000000000000000, -0.000000000000000000 ) ) ;
#1004 = APPROVAL_ROLE ( '' ) ;
#1005 = AXIS2_PLACEMENT_3D ( 'NONE', #1147, #1053, #681 ) ;
#1006 = ORIENTED_EDGE ( 'NONE', *, *, #94, .T. ) ;
#1007 = DIRECTION ( 'NONE',  ( 1.000000000000000000, -0.000000000000000000, -6.829619984160659279E-17 ) ) ;
#1008 = DIRECTION ( 'NONE',  ( -1.365923996832131609E-16, 0.000000000000000000, -1.000000000000000000 ) ) ;
#1009 = ADVANCED_FACE ( 'NONE', ( #406 ), #543, .F. ) ;
#1010 = DIRECTION ( 'NONE',  ( -1.000000000000000000, -0.000000000000000000, -0.000000000000000000 ) ) ;
#1011 = VECTOR ( 'NONE', #745, 39.37007874015748143 ) ;
#1012 = ORIENTED_EDGE ( 'NONE', *, *, #1062, .T. ) ;
#1013 = CARTESIAN_POINT ( 'NONE',  ( 0.1249999999999999861, 1.149999999999999911, 0.1249999999999999861 ) ) ;
#1014 = ORIENTED_EDGE ( 'NONE', *, *, #641, .T. ) ;
#1015 = DIRECTION ( 'NONE',  ( 0.000000000000000000, 0.000000000000000000, 1.000000000000000000 ) ) ;
#1016 = LINE ( 'NONE', #236, #611 ) ;
#1017 = AXIS2_PLACEMENT_3D ( 'NONE', #281, #274, #170 ) ;
#1018 = ORIENTED_EDGE ( 'NONE', *, *, #599, .F. ) ;
#1019 = CARTESIAN_POINT ( 'NONE',  ( 0.000000000000000000, 1.149999999999999911, 0.000000000000000000 ) ) ;
#1020 = VECTOR ( 'NONE', #839, 39.37007874015748143 ) ;
#1021 = ORIENTED_EDGE ( 'NONE', *, *, #70, .F. ) ;
#1022 = CARTESIAN_POINT ( 'NONE',  ( 0.005000000000000151892, 0.8749999999999997780, -0.2000000000000000111 ) ) ;
#1023 = DIRECTION ( 'NONE',  ( 1.000000000000000000, 0.000000000000000000, -1.365923996832132102E-16 ) ) ;
#1024 = ORIENTED_EDGE ( 'NONE', *, *, #1089, .T. ) ;
#1025 = CYLINDRICAL_SURFACE ( 'NONE', #917, 0.04921259842519634664 ) ;
#1026 = DIRECTION ( 'NONE',  ( 0.000000000000000000, 0.000000000000000000, -1.000000000000000000 ) ) ;
#1027 = AXIS2_PLACEMENT_3D ( 'NONE', #513, #896, #996 ) ;
#1028 = DIRECTION ( 'NONE',  ( 0.000000000000000000, -1.000000000000000000, 0.000000000000000000 ) ) ;
#1029 = ORIENTED_EDGE ( 'NONE', *, *, #932, .F. ) ;
#1030 = CARTESIAN_POINT ( 'NONE',  ( -0.1250000000000000000, 0.4098827615931701085, 0.2656250000000000000 ) ) ;
#1031 = ORIENTED_EDGE ( 'NONE', *, *, #1208, .T. ) ;
#1032 = DIRECTION ( 'NONE',  ( 1.000000000000000000, 0.000000000000000000, -1.365923996832132102E-16 ) ) ;
#1033 = DIRECTION ( 'NONE',  ( -1.000000000000000000, -0.000000000000000000, -0.000000000000000000 ) ) ;
#1034 = ORIENTED_EDGE ( 'NONE', *, *, #521, .F. ) ;
#1035 = DIRECTION ( 'NONE',  ( 0.000000000000000000, 0.000000000000000000, -1.000000000000000000 ) ) ;
#1036 = VERTEX_POINT ( 'NONE', #1188 ) ;
#1037 = AXIS2_PLACEMENT_3D ( 'NONE', #1103, #569, #744 ) ;
#1038 = DIRECTION ( 'NONE',  ( 1.000000000000000000, -0.000000000000000000, -6.829619984160659279E-17 ) ) ;
#1039 = FACE_OUTER_BOUND ( 'NONE', #1220, .T. ) ;
#1040 = VERTEX_POINT ( 'NONE', #719 ) ;
#1041 = ORIENTED_EDGE ( 'NONE', *, *, #1208, .F. ) ;
#1042 = DIRECTION ( 'NONE',  ( 1.000000000000000000, -0.000000000000000000, -6.829619984160659279E-17 ) ) ;
#1043 = AXIS2_PLACEMENT_3D ( 'NONE', #875, #7, #391 ) ;
#1044 = CIRCLE ( 'NONE', #507, 0.2500000000000000000 ) ;
#1045 = EDGE_CURVE ( 'NONE', #871, #425, #860, .T. ) ;
#1046 = CARTESIAN_POINT ( 'NONE',  ( -0.1250000000000000278, 1.149999999999999911, -0.1249999999999999861 ) ) ;
#1047 = VERTEX_POINT ( 'NONE', #1013 ) ;
#1048 = PERSON_AND_ORGANIZATION ( #119, #680 ) ;
#1049 = VERTEX_POINT ( 'NONE', #1109 ) ;
#1050 = DIRECTION ( 'NONE',  ( 0.000000000000000000, 0.000000000000000000, 1.000000000000000000 ) ) ;
#1051 = LINE ( 'NONE', #1138, #563 ) ;
#1052 = EDGE_CURVE ( 'NONE', #718, #930, #144, .T. ) ;
#1053 = DIRECTION ( 'NONE',  ( 1.000000000000000000, 0.000000000000000000, 0.000000000000000000 ) ) ;
#1054 = PRODUCT_DEFINITION_SHAPE ( 'NONE', 'NONE',  #1002 ) ;
#1055 = ADVANCED_FACE ( 'NONE', ( #539 ), #58, .F. ) ;
#1056 = VERTEX_POINT ( 'NONE', #356 ) ;
#1057 = FACE_OUTER_BOUND ( 'NONE', #482, .T. ) ;
#1058 = CC_DESIGN_APPROVAL ( #705, ( #1002 ) ) ;
#1059 = AXIS2_PLACEMENT_3D ( 'NONE', #322, #45, #519 ) ;
#1060 = DIRECTION ( 'NONE',  ( -1.000000000000000000, -0.000000000000000000, -0.000000000000000000 ) ) ;
#1061 = APPROVAL_ROLE ( '' ) ;
#1062 = EDGE_CURVE ( 'NONE', #737, #430, #244, .T. ) ;
#1063 = ORIENTED_EDGE ( 'NONE', *, *, #843, .T. ) ;
#1064 = DIRECTION ( 'NONE',  ( 6.829619984160658046E-17, 0.000000000000000000, 1.000000000000000000 ) ) ;
#1065 = DIRECTION ( 'NONE',  ( -0.000000000000000000, 1.000000000000000000, -0.000000000000000000 ) ) ;
#1066 = ORIENTED_EDGE ( 'NONE', *, *, #673, .T. ) ;
#1067 = CYLINDRICAL_SURFACE ( 'NONE', #447, 0.04921259842519638134 ) ;
#1068 = AXIS2_PLACEMENT_3D ( 'NONE', #989, #516, #629 ) ;
#1069 = DIRECTION ( 'NONE',  ( -1.000000000000000000, 0.000000000000000000, 6.829619984160660511E-17 ) ) ;
#1070 = ORIENTED_EDGE ( 'NONE', *, *, #1062, .F. ) ;
#1071 = CARTESIAN_POINT ( 'NONE',  ( 3.414809992080329023E-17, 0.5749999999999999556, -0.1322297000268105038 ) ) ;
#1072 = LINE ( 'NONE', #861, #1131 ) ;
#1073 = CIRCLE ( 'NONE', #700, 0.2500000000000000000 ) ;
#1074 = DIRECTION ( 'NONE',  ( 0.000000000000000000, 0.000000000000000000, -1.000000000000000000 ) ) ;
#1075 = ORIENTED_EDGE ( 'NONE', *, *, #410, .T. ) ;
#1076 = CARTESIAN_POINT ( 'NONE',  ( 0.1250000000000000555, 0.8749999999999997780, 0.2000000000000000111 ) ) ;
#1077 = LINE ( 'NONE', #23, #470 ) ;
#1078 = EDGE_CURVE ( 'NONE', #1222, #86, #443, .T. ) ;
#1079 = AXIS2_PLACEMENT_3D ( 'NONE', #717, #1010, #448 ) ;
#1080 = DIRECTION ( 'NONE',  ( -6.505213034913093164E-17, 0.000000000000000000, -1.000000000000000000 ) ) ;
#1081 = EDGE_LOOP ( 'NONE', ( #968, #743, #1075, #400 ) ) ;
#1082 = DIRECTION ( 'NONE',  ( -6.505213034913093164E-17, 0.000000000000000000, -1.000000000000000000 ) ) ;
#1083 = EDGE_CURVE ( 'NONE', #86, #737, #75, .T. ) ;
#1084 = CARTESIAN_POINT ( 'NONE',  ( 0.1250000000000000555, 0.2749999999999999112, 0.2492125984251964965 ) ) ;
#1085 = CARTESIAN_POINT ( 'NONE',  ( 0.1249999999999999584, 0.2750000000000000777, -0.2492125984251964133 ) ) ;
#1086 = EDGE_CURVE ( 'NONE', #263, #386, #738, .T. ) ;
#1087 = ORIENTED_EDGE ( 'NONE', *, *, #362, .F. ) ;
#1088 = CARTESIAN_POINT ( 'NONE',  ( 0.1250000000000000000, 0.8749999999999997780, 0.2000000000000000111 ) ) ;
#1089 = EDGE_CURVE ( 'NONE', #89, #1056, #916, .T. ) ;
#1090 = DIRECTION ( 'NONE',  ( 1.000000000000000000, 0.000000000000000000, -1.365923996832132102E-16 ) ) ;
#1091 = AXIS2_PLACEMENT_3D ( 'NONE', #657, #954, #478 ) ;
#1092 = CARTESIAN_POINT ( 'NONE',  ( 0.1250000000000000000, 0.2749999999999999112, 0.3499999999999999778 ) ) ;
#1093 = APPROVAL_STATUS ( 'not_yet_approved' ) ;
#1094 = AXIS2_PLACEMENT_3D ( 'NONE', #450, #348, #638 ) ;
#1095 = ORIENTED_EDGE ( 'NONE', *, *, #501, .T. ) ;
#1096 = AXIS2_PLACEMENT_3D ( 'NONE', #609, #139, #1194 ) ;
#1097 = CARTESIAN_POINT ( 'NONE',  ( 0.005000000000000151892, 0.2750000000000000777, -0.2000000000000000111 ) ) ;
#1098 = ADVANCED_FACE ( 'NONE', ( #1114, #336 ), #659, .T. ) ;
#1099 = CIRCLE ( 'NONE', #835, 0.2500000000000000000 ) ;
#1100 = PLANE ( 'NONE',  #437 ) ;
#1101 = DIRECTION ( 'NONE',  ( 1.000000000000000000, -0.000000000000000000, -6.829619984160659279E-17 ) ) ;
#1102 = EDGE_LOOP ( 'NONE', ( #856, #77, #993, #538 ) ) ;
#1103 = CARTESIAN_POINT ( 'NONE',  ( 0.1250000000000000000, 0.2749999999999999112, 0.2000000000000000944 ) ) ;
#1104 = EDGE_LOOP ( 'NONE', ( #933, #583, #561 ) ) ;
#1105 = CARTESIAN_POINT ( 'NONE',  ( -0.1249999999999999306, 0.6346873642484538447, 0.3749999999999998890 ) ) ;
#1106 = VECTOR ( 'NONE', #799, 39.37007874015748854 ) ;
#1107 = CARTESIAN_POINT ( 'NONE',  ( 0.1249999999999999445, 0.5153126357515458444, -0.3749999999999998890 ) ) ;
#1108 = ORIENTED_EDGE ( 'NONE', *, *, #1045, .F. ) ;
#1109 = CARTESIAN_POINT ( 'NONE',  ( 0.1250000000000000000, 0.4098827615931703860, -0.2656250000000000000 ) ) ;
#1110 = ORIENTED_EDGE ( 'NONE', *, *, #819, .F. ) ;
#1111 = CARTESIAN_POINT ( 'NONE',  ( 0.1249999999999999584, 0.8749999999999997780, -0.2000000000000000111 ) ) ;
#1112 = CARTESIAN_POINT ( 'NONE',  ( -0.1250000000000000000, 0.4098827615931703860, -0.2656250000000000000 ) ) ;
#1113 = ORIENTED_EDGE ( 'NONE', *, *, #94, .F. ) ;
#1114 = FACE_BOUND ( 'NONE', #212, .T. ) ;
#1115 = CIRCLE ( 'NONE', #520, 0.04921259842519634664 ) ;
#1116 = CARTESIAN_POINT ( 'NONE',  ( -0.1250000000000000278, 0.000000000000000000, -0.1249999999999999861 ) ) ;
#1117 = CARTESIAN_POINT ( 'NONE',  ( 0.000000000000000000, 1.024999999999999911, 0.000000000000000000 ) ) ;
#1118 = ORIENTED_EDGE ( 'NONE', *, *, #758, .F. ) ;
#1119 = CARTESIAN_POINT ( 'NONE',  ( 0.000000000000000000, 0.000000000000000000, -0.04921259842519658950 ) ) ;
#1120 = ORIENTED_EDGE ( 'NONE', *, *, #1164, .T. ) ;
#1121 = CARTESIAN_POINT ( 'NONE',  ( 0.1249999999999999584, 0.8749999999999997780, -0.2492125984251963577 ) ) ;
#1122 = CARTESIAN_POINT ( 'NONE',  ( 6.026805113914097034E-18, 1.149999999999999911, -0.04921259842519641603 ) ) ;
#1123 = ORIENTED_EDGE ( 'NONE', *, *, #816, .T. ) ;
#1124 = DIRECTION ( 'NONE',  ( 0.5150380749100553768, 0.000000000000000000, -0.8571673007021116675 ) ) ;
#1125 = ADVANCED_FACE ( 'NONE', ( #252 ), #150, .T. ) ;
#1126 = VECTOR ( 'NONE', #46, 39.37007874015748143 ) ;
#1127 = ORIENTED_EDGE ( 'NONE', *, *, #423, .F. ) ;
#1128 = CARTESIAN_POINT ( 'NONE',  ( 0.1250000000000000555, 0.2749999999999999112, 0.2000000000000000944 ) ) ;
#1129 = EDGE_CURVE ( 'NONE', #918, #910, #166, .T. ) ;
#1130 = DIRECTION ( 'NONE',  ( 1.000000000000000000, -0.000000000000000000, -6.829619984160659279E-17 ) ) ;
#1131 = VECTOR ( 'NONE', #948, 39.37007874015748143 ) ;
#1132 = VERTEX_POINT ( 'NONE', #51 ) ;
#1133 = DATE_AND_TIME ( #762, #131 ) ;
#1134 = VERTEX_POINT ( 'NONE', #342 ) ;
#1135 = LOCAL_TIME ( 20, 57, 26.00000000000000000, #967 ) ;
#1136 = FACE_OUTER_BOUND ( 'NONE', #355, .T. ) ;
#1137 = CC_DESIGN_SECURITY_CLASSIFICATION ( #502, ( #171 ) ) ;
#1138 = CARTESIAN_POINT ( 'NONE',  ( 0.1250000000000000000, 1.012943895113159742, 0.2589192820815863771 ) ) ;
#1139 = ORIENTED_EDGE ( 'NONE', *, *, #204, .T. ) ;
#1140 =( CONVERSION_BASED_UNIT ( 'INCH', #110 ) LENGTH_UNIT ( ) NAMED_UNIT ( #377 ) );
#1141 = ORIENTED_EDGE ( 'NONE', *, *, #1129, .T. ) ;
#1142 = DIRECTION ( 'NONE',  ( 1.000000000000000000, 0.000000000000000000, 0.000000000000000000 ) ) ;
#1143 = CIRCLE ( 'NONE', #1005, 0.1500000000000000777 ) ;
#1144 = DIRECTION ( 'NONE',  ( 0.000000000000000000, 3.469446951953632924E-16, 1.000000000000000000 ) ) ;
#1145 = APPROVAL ( #575, 'UNSPECIFIED' ) ;
#1146 = CIRCLE ( 'NONE', #554, 0.04921259842519658950 ) ;
#1147 = CARTESIAN_POINT ( 'NONE',  ( 0.1250000000000000000, 0.8749999999999997780, -0.2000000000000000111 ) ) ;
#1148 = PERSON_AND_ORGANIZATION_ROLE ( 'design_owner' ) ;
#1149 = AXIS2_PLACEMENT_3D ( 'NONE', #331, #125, #1015 ) ;
#1150 = AXIS2_PLACEMENT_3D ( 'NONE', #883, #10, #483 ) ;
#1151 = ORIENTED_EDGE ( 'NONE', *, *, #326, .F. ) ;
#1152 = CARTESIAN_POINT ( 'NONE',  ( 0.1250000000000000278, 0.2750000000000000777, -0.2492125984251964410 ) ) ;
#1153 = ADVANCED_FACE ( 'NONE', ( #82 ), #1025, .F. ) ;
#1154 = CYLINDRICAL_SURFACE ( 'NONE', #549, 0.1500000000000000777 ) ;
#1155 = PERSON_AND_ORGANIZATION ( #119, #680 ) ;
#1156 = AXIS2_PLACEMENT_3D ( 'NONE', #566, #1224, #768 ) ;
#1157 = ORIENTED_EDGE ( 'NONE', *, *, #651, .F. ) ;
#1158 = LINE ( 'NONE', #953, #220 ) ;
#1159 = VECTOR ( 'NONE', #1212, 39.37007874015748143 ) ;
#1160 = AXIS2_PLACEMENT_3D ( 'NONE', #476, #858, #584 ) ;
#1161 = ORIENTED_EDGE ( 'NONE', *, *, #242, .T. ) ;
#1162 = ORIENTED_EDGE ( 'NONE', *, *, #582, .T. ) ;
#1163 = DIRECTION ( 'NONE',  ( 0.000000000000000000, 0.000000000000000000, -1.000000000000000000 ) ) ;
#1164 = EDGE_CURVE ( 'NONE', #871, #174, #931, .T. ) ;
#1165 = CARTESIAN_POINT ( 'NONE',  ( 0.1250000000000000000, 0.2749999999999999112, 0.2000000000000000944 ) ) ;
#1166 = EDGE_LOOP ( 'NONE', ( #3, #576, #138, #288 ) ) ;
#1167 = CARTESIAN_POINT ( 'NONE',  ( 0.005000000000000185719, 0.2749999999999999112, 0.2000000000000000944 ) ) ;
#1168 = LINE ( 'NONE', #1046, #512 ) ;
#1169 = FACE_OUTER_BOUND ( 'NONE', #725, .T. ) ;
#1170 = AXIS2_PLACEMENT_3D ( 'NONE', #28, #1178, #1008 ) ;
#1171 = ORIENTED_EDGE ( 'NONE', *, *, #1045, .T. ) ;
#1172 = CARTESIAN_POINT ( 'NONE',  ( 0.005000000000000151892, 0.2750000000000000777, -0.2000000000000000111 ) ) ;
#1173 = DIRECTION ( 'NONE',  ( 1.000000000000000000, -0.000000000000000000, -6.829619984160659279E-17 ) ) ;
#1174 = CIRCLE ( 'NONE', #759, 0.1500000000000000500 ) ;
#1175 = DIRECTION ( 'NONE',  ( 0.000000000000000000, 0.000000000000000000, 1.000000000000000000 ) ) ;
#1176 = VERTEX_POINT ( 'NONE', #632 ) ;
#1177 = DIRECTION ( 'NONE',  ( 0.000000000000000000, 0.000000000000000000, -1.000000000000000000 ) ) ;
#1178 = DIRECTION ( 'NONE',  ( 1.000000000000000000, 0.000000000000000000, -1.365923996832132102E-16 ) ) ;
#1179 = AXIS2_PLACEMENT_3D ( 'NONE', #210, #499, #971 ) ;
#1180 = DIRECTION ( 'NONE',  ( 1.000000000000000000, -0.000000000000000000, -6.829619984160659279E-17 ) ) ;
#1181 = ORIENTED_EDGE ( 'NONE', *, *, #330, .F. ) ;
#1182 = CARTESIAN_POINT ( 'NONE',  ( -0.1250000000000000555, 1.242850386968426202, -0.3571180855508968577 ) ) ;
#1183 = CIRCLE ( 'NONE', #1027, 0.2500000000000000000 ) ;
#1184 = LINE ( 'NONE', #324, #474 ) ;
#1185 = AXIS2_PLACEMENT_3D ( 'NONE', #1111, #260, #468 ) ;
#1186 = CARTESIAN_POINT ( 'NONE',  ( 0.005000000000000151892, 0.8749999999999997780, -0.2000000000000000111 ) ) ;
#1187 = VERTEX_POINT ( 'NONE', #1030 ) ;
#1188 = CARTESIAN_POINT ( 'NONE',  ( 0.1250000000000000000, 1.012943895113159742, -0.2589192820815864327 ) ) ;
#1189 = DIRECTION ( 'NONE',  ( 0.000000000000000000, 0.000000000000000000, -1.000000000000000000 ) ) ;
#1190 = VECTOR ( 'NONE', #359, 39.37007874015748143 ) ;
#1191 = CIRCLE ( 'NONE', #30, 0.1500000000000000500 ) ;
#1192 = DIRECTION ( 'NONE',  ( 0.000000000000000000, 0.000000000000000000, 1.000000000000000000 ) ) ;
#1193 = EDGE_LOOP ( 'NONE', ( #633, #849, #791 ) ) ;
#1194 = DIRECTION ( 'NONE',  ( -6.505213034913093164E-17, 0.000000000000000000, -1.000000000000000000 ) ) ;
#1195 = ORIENTED_EDGE ( 'NONE', *, *, #851, .F. ) ;
#1196 = DIRECTION ( 'NONE',  ( 0.000000000000000000, 0.000000000000000000, -1.000000000000000000 ) ) ;
#1197 = EDGE_CURVE ( 'NONE', #174, #796, #664, .T. ) ;
#1198 = DIRECTION ( 'NONE',  ( 6.829619984160658046E-17, 0.000000000000000000, 1.000000000000000000 ) ) ;
#1199 = EDGE_LOOP ( 'NONE', ( #5, #966 ) ) ;
#1200 = DIRECTION ( 'NONE',  ( -0.000000000000000000, -1.000000000000000000, -0.000000000000000000 ) ) ;
#1201 = ORIENTED_EDGE ( 'NONE', *, *, #56, .F. ) ;
#1202 = CARTESIAN_POINT ( 'NONE',  ( -0.1249999999999999445, 1.242850386968426202, 0.3571180855508968577 ) ) ;
#1203 = VECTOR ( 'NONE', #855, 39.37007874015748143 ) ;
#1204 = DIRECTION ( 'NONE',  ( 0.000000000000000000, 0.000000000000000000, 1.000000000000000000 ) ) ;
#1205 = ORIENTED_EDGE ( 'NONE', *, *, #905, .F. ) ;
#1206 = DIRECTION ( 'NONE',  ( 0.000000000000000000, 0.000000000000000000, -1.000000000000000000 ) ) ;
#1207 = EDGE_LOOP ( 'NONE', ( #915, #670, #518 ) ) ;
#1208 = EDGE_CURVE ( 'NONE', #158, #675, #938, .T. ) ;
#1209 = CARTESIAN_POINT ( 'NONE',  ( -0.1250000000000000278, 0.5153126357515458444, -0.3749999999999998890 ) ) ;
#1210 = CARTESIAN_POINT ( 'NONE',  ( 0.005000000000000185719, 0.2749999999999999112, 0.2000000000000000944 ) ) ;
#1211 = EDGE_LOOP ( 'NONE', ( #343, #1161, #81, #677, #688, #1123, #393, #127, #783, #882, #532, #1139, #335, #363, #898, #456 ) ) ;
#1212 = DIRECTION ( 'NONE',  ( 1.000000000000000000, -0.000000000000000000, -6.829619984160659279E-17 ) ) ;
#1213 = VECTOR ( 'NONE', #846, 39.37007874015748143 ) ;
#1214 = VECTOR ( 'NONE', #193, 39.37007874015748854 ) ;
#1215 = ORIENTED_EDGE ( 'NONE', *, *, #965, .F. ) ;
#1216 = DIRECTION ( 'NONE',  ( 0.000000000000000000, 0.000000000000000000, -1.000000000000000000 ) ) ;
#1217 = EDGE_CURVE ( 'NONE', #149, #425, #74, .T. ) ;
#1218 = DIRECTION ( 'NONE',  ( -6.505213034913093164E-17, 0.000000000000000000, -1.000000000000000000 ) ) ;
#1219 = CC_DESIGN_PERSON_AND_ORGANIZATION_ASSIGNMENT ( #380, #1148, ( #1 ) ) ;
#1220 = EDGE_LOOP ( 'NONE', ( #259, #1141, #1029, #9 ) ) ;
#1221 = CARTESIAN_POINT ( 'NONE',  ( -0.02456991235371804722, 0.8749999999999996669, 0.2000000000000000111 ) ) ;
#1222 = VERTEX_POINT ( 'NONE', #1221 ) ;
#1223 = CYLINDRICAL_SURFACE ( 'NONE', #1185, 0.04921259842519634664 ) ;
#1224 = DIRECTION ( 'NONE',  ( 1.000000000000000000, -0.000000000000000000, -6.829619984160659279E-17 ) ) ;
#1225 = EDGE_CURVE ( 'NONE', #149, #871, #173, .T. ) ;
#1226 = ORIENTED_EDGE ( 'NONE', *, *, #970, .T. ) ;
#1227 = PERSON_AND_ORGANIZATION ( #119, #680 ) ;
#1228 = CONICAL_SURFACE ( 'NONE', #693, 0.04921259842519634664, 1.029744258676652979 ) ;
#1229 = EDGE_LOOP ( 'NONE', ( #21, #405, #731, #648 ) ) ;
#1230 = CARTESIAN_POINT ( 'NONE',  ( 0.000000000000000000, 0.000000000000000000, 0.000000000000000000 ) ) ;
#1231 = CARTESIAN_POINT ( 'NONE',  ( -0.1250000000000000000, 0.8749999999999997780, 0.2000000000000000111 ) ) ;
#1232 = AXIS2_PLACEMENT_3D ( 'NONE', #187, #848, #1144 ) ;
#1233 = EDGE_LOOP ( 'NONE', ( #666, #831, #382, #321 ) ) ;
#1234 = ORIENTED_EDGE ( 'NONE', *, *, #765, .F. ) ;
#1235 = DIRECTION ( 'NONE',  ( -1.000000000000000000, 0.000000000000000000, 6.829619984160660511E-17 ) ) ;
#1236 = APPLICATION_CONTEXT ( 'configuration controlled 3d designs of mechanical parts and assemblies' ) ;
#1237 = LINE ( 'NONE', #462, #976 ) ;
#1238 = ORIENTED_EDGE ( 'NONE', *, *, #290, .T. ) ;
#1239 = ORIENTED_EDGE ( 'NONE', *, *, #326, .T. ) ;
#1240 = CYLINDRICAL_SURFACE ( 'NONE', #333, 0.04921259842519658950 ) ;
ENDSEC;
END-ISO-10303-21;
