ISO-10303-21;
HEADER;
FILE_DESCRIPTION (( 'STEP AP203' ),
    '1' );
FILE_NAME ('2.375 T40 Wheel.STEP',
    '2026-03-20T23:24:27',
    ( '' ),
    ( '' ),
    'SwSTEP 2.0',
    'SolidWorks 2025',
    '' );
FILE_SCHEMA (( 'CONFIG_CONTROL_DESIGN' ));
ENDSEC;

DATA;
#1 = VECTOR ( 'NONE', #145, 39.37007874015749564 ) ;
#2 =( CONVERSION_BASED_UNIT ( 'INCH', #92 ) LENGTH_UNIT ( ) NAMED_UNIT ( #40 ) );
#3 = ORIENTED_EDGE ( 'NONE', *, *, #223, .F. ) ;
#4 = ORIENTED_EDGE ( 'NONE', *, *, #22, .F. ) ;
#5 = PERSON_AND_ORGANIZATION_ROLE ( 'classification_officer' ) ;
#6 = DIRECTION ( 'NONE',  ( 0.8660254037844384856, -0.5000000000000004441, 0.000000000000000000 ) ) ;
#7 = APPROVAL_ROLE ( '' ) ;
#8 = AXIS2_PLACEMENT_3D ( 'NONE', #248, #128, #78 ) ;
#9 = CARTESIAN_POINT ( 'NONE',  ( -0.1443375672974064050, 0.2500000000000000555, 0.4000000000000000222 ) ) ;
#10 = CC_DESIGN_PERSON_AND_ORGANIZATION_ASSIGNMENT ( #332, #308, ( #133 ) ) ;
#11 = PERSON_AND_ORGANIZATION ( #255, #330 ) ;
#12 = FACE_OUTER_BOUND ( 'NONE', #242, .T. ) ;
#13 = ORIENTED_EDGE ( 'NONE', *, *, #363, .T. ) ;
#14 = PERSON_AND_ORGANIZATION_ROLE ( 'creator' ) ;
#15 = AXIS2_PLACEMENT_3D ( 'NONE', #370, #348, #85 ) ;
#16 = ORIENTED_EDGE ( 'NONE', *, *, #369, .F. ) ;
#17 = CARTESIAN_POINT ( 'NONE',  ( -0.2886751345948129210, 1.365923996832131609E-16, 0.4000000000000000222 ) ) ;
#18 = FACE_OUTER_BOUND ( 'NONE', #90, .T. ) ;
#19 = DIRECTION ( 'NONE',  ( -1.000000000000000000, 1.182924880895401264E-16, 0.000000000000000000 ) ) ;
#20 = CIRCLE ( 'NONE', #137, 1.187500000000000000 ) ;
#21 = ORIENTED_EDGE ( 'NONE', *, *, #141, .T. ) ;
#22 = EDGE_CURVE ( 'NONE', #260, #154, #77, .T. ) ;
#23 = DIRECTION ( 'NONE',  ( -0.000000000000000000, -0.000000000000000000, -1.000000000000000000 ) ) ;
#24 = VERTEX_POINT ( 'NONE', #368 ) ;
#25 = LINE ( 'NONE', #17, #158 ) ;
#26 = ORIENTED_EDGE ( 'NONE', *, *, #339, .F. ) ;
#27 = LINE ( 'NONE', #294, #170 ) ;
#28 = ADVANCED_FACE ( 'NONE', ( #311 ), #73, .T. ) ;
#29 = AXIS2_PLACEMENT_3D ( 'NONE', #371, #313, #319 ) ;
#30 = LINE ( 'NONE', #147, #286 ) ;
#31 = APPLICATION_CONTEXT ( 'configuration controlled 3d designs of mechanical parts and assemblies' ) ;
#32 =( NAMED_UNIT ( * ) PLANE_ANGLE_UNIT ( ) SI_UNIT ( $, .RADIAN. ) );
#33 = ADVANCED_FACE ( 'NONE', ( #218 ), #224, .T. ) ;
#34 = PERSON_AND_ORGANIZATION ( #255, #330 ) ;
#35 = ORIENTED_EDGE ( 'NONE', *, *, #339, .T. ) ;
#36 = LOCAL_TIME ( 16, 24, 27.00000000000000000, #215 ) ;
#37 = DIRECTION ( 'NONE',  ( 0.000000000000000000, 0.000000000000000000, 1.000000000000000000 ) ) ;
#38 = ORIENTED_EDGE ( 'NONE', *, *, #124, .T. ) ;
#39 = CARTESIAN_POINT ( 'NONE',  ( 0.2886751345948129766, -1.365923996832131609E-16, 0.4000000000000000222 ) ) ;
#40 = DIMENSIONAL_EXPONENTS ( 1.000000000000000000, 0.000000000000000000, 0.000000000000000000, 0.000000000000000000, 0.000000000000000000, 0.000000000000000000, 0.000000000000000000 ) ;
#41 = CALENDAR_DATE ( 2026, 20, 3 ) ;
#42 = FACE_OUTER_BOUND ( 'NONE', #174, .T. ) ;
#43 = AXIS2_PLACEMENT_3D ( 'NONE', #377, #197, #83 ) ;
#44 = DIRECTION ( 'NONE',  ( -0.000000000000000000, -0.000000000000000000, -1.000000000000000000 ) ) ;
#45 = DIRECTION ( 'NONE',  ( -0.5000000000000002220, -0.8660254037844384856, 0.000000000000000000 ) ) ;
#46 = APPROVAL_DATE_TIME ( #132, #290 ) ;
#47 = EDGE_CURVE ( 'NONE', #64, #258, #157, .T. ) ;
#48 = ORIENTED_EDGE ( 'NONE', *, *, #284, .T. ) ;
#49 = CC_DESIGN_APPROVAL ( #290, ( #295 ) ) ;
#50 = DIRECTION ( 'NONE',  ( 0.000000000000000000, 0.000000000000000000, 1.000000000000000000 ) ) ;
#51 = FACE_OUTER_BOUND ( 'NONE', #280, .T. ) ;
#52 = CARTESIAN_POINT ( 'NONE',  ( -0.2886751345948129210, 1.365923996832131609E-16, 0.000000000000000000 ) ) ;
#53 = EDGE_CURVE ( 'NONE', #56, #347, #251, .T. ) ;
#54 = CARTESIAN_POINT ( 'NONE',  ( 0.1443375672974065993, -0.2499999999999998890, 0.4000000000000000222 ) ) ;
#55 = AXIS2_PLACEMENT_3D ( 'NONE', #337, #76, #278 ) ;
#56 = VERTEX_POINT ( 'NONE', #189 ) ;
#57 = CARTESIAN_POINT ( 'NONE',  ( -0.1443375672974064050, 0.2500000000000000555, 0.4000000000000000222 ) ) ;
#58 = DIRECTION ( 'NONE',  ( -1.000000000000000000, 0.000000000000000000, 0.000000000000000000 ) ) ;
#59 = ADVANCED_FACE ( 'NONE', ( #42, #341 ), #186, .T. ) ;
#60 =( LENGTH_UNIT ( ) NAMED_UNIT ( * ) SI_UNIT ( $, .METRE. ) );
#61 = VECTOR ( 'NONE', #316, 39.37007874015748143 ) ;
#62 = PLANE ( 'NONE',  #75 ) ;
#63 = DESIGN_CONTEXT ( 'detailed design', #31, 'design' ) ;
#64 = VERTEX_POINT ( 'NONE', #222 ) ;
#65 = MANIFOLD_SOLID_BREP ( 'Boss-Extrude2', #379 ) ;
#66 =( NAMED_UNIT ( * ) SI_UNIT ( $, .STERADIAN. ) SOLID_ANGLE_UNIT ( ) );
#67 = VERTEX_POINT ( 'NONE', #305 ) ;
#68 = CC_DESIGN_APPROVAL ( #229, ( #133 ) ) ;
#69 = ORIENTED_EDGE ( 'NONE', *, *, #284, .F. ) ;
#70 = COORDINATED_UNIVERSAL_TIME_OFFSET ( 8, 0, .BEHIND. ) ;
#71 = DIRECTION ( 'NONE',  ( 0.5000000000000001110, -0.8660254037844385966, 0.000000000000000000 ) ) ;
#72 = PERSON_AND_ORGANIZATION ( #255, #330 ) ;
#73 = PLANE ( 'NONE',  #107 ) ;
#74 = APPROVAL_DATE_TIME ( #159, #229 ) ;
#75 = AXIS2_PLACEMENT_3D ( 'NONE', #292, #323, #241 ) ;
#76 = DIRECTION ( 'NONE',  ( 0.000000000000000000, 1.000000000000000000, 0.000000000000000000 ) ) ;
#77 = LINE ( 'NONE', #155, #256 ) ;
#78 = DIRECTION ( 'NONE',  ( 1.000000000000000000, 0.000000000000000000, -0.000000000000000000 ) ) ;
#79 = VECTOR ( 'NONE', #246, 39.37007874015748143 ) ;
#80 = CARTESIAN_POINT ( 'NONE',  ( 0.000000000000000000, 0.000000000000000000, 0.4000000000000000222 ) ) ;
#81 = DIRECTION ( 'NONE',  ( 0.5000000000000001110, -0.8660254037844385966, 0.000000000000000000 ) ) ;
#82 = CC_DESIGN_PERSON_AND_ORGANIZATION_ASSIGNMENT ( #100, #279, ( #295 ) ) ;
#83 = DIRECTION ( 'NONE',  ( 1.000000000000000000, 0.000000000000000000, 0.000000000000000000 ) ) ;
#84 = ORIENTED_EDGE ( 'NONE', *, *, #249, .F. ) ;
#85 = DIRECTION ( 'NONE',  ( 1.000000000000000000, 0.000000000000000000, 0.000000000000000000 ) ) ;
#86 = VECTOR ( 'NONE', #360, 39.37007874015747433 ) ;
#87 = ORIENTED_EDGE ( 'NONE', *, *, #53, .F. ) ;
#88 = EDGE_CURVE ( 'NONE', #331, #213, #303, .T. ) ;
#89 = APPROVAL_ROLE ( '' ) ;
#90 = EDGE_LOOP ( 'NONE', ( #110, #374, #179, #172 ) ) ;
#91 = CARTESIAN_POINT ( 'NONE',  ( 0.000000000000000000, 0.000000000000000000, 0.4000000000000000222 ) ) ;
#92 = LENGTH_MEASURE_WITH_UNIT ( LENGTH_MEASURE( 0.02539999999999999897 ), #60 );
#93 = CARTESIAN_POINT ( 'NONE',  ( 0.1443375672974065993, -0.2499999999999998890, 0.000000000000000000 ) ) ;
#94 = ORIENTED_EDGE ( 'NONE', *, *, #88, .F. ) ;
#95 = EDGE_LOOP ( 'NONE', ( #356, #84, #378, #48 ) ) ;
#96 = ADVANCED_FACE ( 'NONE', ( #101 ), #99, .T. ) ;
#97 = PERSON_AND_ORGANIZATION ( #255, #330 ) ;
#98 = CARTESIAN_POINT ( 'NONE',  ( 0.1443375672974064050, 0.2500000000000000000, 0.4000000000000000222 ) ) ;
#99 = PLANE ( 'NONE',  #176 ) ;
#100 = PERSON_AND_ORGANIZATION ( #255, #330 ) ;
#101 = FACE_OUTER_BOUND ( 'NONE', #112, .T. ) ;
#102 = EDGE_CURVE ( 'NONE', #160, #335, #272, .T. ) ;
#103 = CARTESIAN_POINT ( 'NONE',  ( -0.1443375672974064050, 0.2500000000000000555, 0.4000000000000000222 ) ) ;
#104 = ORIENTED_EDGE ( 'NONE', *, *, #180, .F. ) ;
#105 = CARTESIAN_POINT ( 'NONE',  ( -0.1443375672974064050, -0.2499999999999998890, 0.4000000000000000222 ) ) ;
#106 = CC_DESIGN_PERSON_AND_ORGANIZATION_ASSIGNMENT ( #72, #14, ( #133 ) ) ;
#107 = AXIS2_PLACEMENT_3D ( 'NONE', #103, #6, #276 ) ;
#108 = CARTESIAN_POINT ( 'NONE',  ( 0.1443375672974064050, 0.2500000000000000000, 0.000000000000000000 ) ) ;
#109 = DIRECTION ( 'NONE',  ( -0.000000000000000000, -0.000000000000000000, -1.000000000000000000 ) ) ;
#110 = ORIENTED_EDGE ( 'NONE', *, *, #235, .F. ) ;
#111 = CARTESIAN_POINT ( 'NONE',  ( 0.1443375672974064050, 0.2500000000000000000, 0.4000000000000000222 ) ) ;
#112 = EDGE_LOOP ( 'NONE', ( #184, #300, #349, #317 ) ) ;
#113 = CARTESIAN_POINT ( 'NONE',  ( 1.187500000000000000, 1.454268073987482103E-16, 0.4000000000000000222 ) ) ;
#114 = LOCAL_TIME ( 16, 24, 27.00000000000000000, #183 ) ;
#115 = ORIENTED_EDGE ( 'NONE', *, *, #217, .F. ) ;
#116 = PLANE ( 'NONE',  #126 ) ;
#117 = CARTESIAN_POINT ( 'NONE',  ( 0.000000000000000000, 0.000000000000000000, 0.000000000000000000 ) ) ;
#118 = ADVANCED_FACE ( 'NONE', ( #12 ), #220, .T. ) ;
#119 = VECTOR ( 'NONE', #44, 39.37007874015748143 ) ;
#120 = DIRECTION ( 'NONE',  ( 0.8660254037844385966, 0.5000000000000002220, -0.000000000000000000 ) ) ;
#121 = ORIENTED_EDGE ( 'NONE', *, *, #329, .F. ) ;
#122 = PERSON_AND_ORGANIZATION_ROLE ( 'design_owner' ) ;
#123 = VERTEX_POINT ( 'NONE', #130 ) ;
#124 = EDGE_CURVE ( 'NONE', #269, #64, #20, .T. ) ;
#125 = CARTESIAN_POINT ( 'NONE',  ( -1.187500000000000000, 0.000000000000000000, 0.4000000000000000222 ) ) ;
#126 = AXIS2_PLACEMENT_3D ( 'NONE', #355, #120, #208 ) ;
#127 = CARTESIAN_POINT ( 'NONE',  ( 0.1443375672974065993, -0.2499999999999998890, 0.4000000000000000222 ) ) ;
#128 = DIRECTION ( 'NONE',  ( 0.000000000000000000, 0.000000000000000000, 1.000000000000000000 ) ) ;
#129 = APPROVAL ( #304, 'UNSPECIFIED' ) ;
#130 = CARTESIAN_POINT ( 'NONE',  ( 1.187500000000000000, 1.454268073987482103E-16, 0.000000000000000000 ) ) ;
#131 = VECTOR ( 'NONE', #136, 39.37007874015749564 ) ;
#132 = DATE_AND_TIME ( #321, #200 ) ;
#133 = PRODUCT_DEFINITION_FORMATION_WITH_SPECIFIED_SOURCE ( 'ANY', '', #205, .NOT_KNOWN. ) ;
#134 = ORIENTED_EDGE ( 'NONE', *, *, #148, .F. ) ;
#135 = LINE ( 'NONE', #54, #131 ) ;
#136 = DIRECTION ( 'NONE',  ( 0.5000000000000002220, 0.8660254037844384856, 0.000000000000000000 ) ) ;
#137 = AXIS2_PLACEMENT_3D ( 'NONE', #365, #50, #375 ) ;
#138 = LINE ( 'NONE', #252, #372 ) ;
#139 = ORIENTED_EDGE ( 'NONE', *, *, #249, .T. ) ;
#140 = DIRECTION ( 'NONE',  ( 0.000000000000000000, 0.000000000000000000, 1.000000000000000000 ) ) ;
#141 = EDGE_CURVE ( 'NONE', #56, #331, #135, .T. ) ;
#142 = EDGE_LOOP ( 'NONE', ( #4, #134, #268, #139 ) ) ;
#143 = DIRECTION ( 'NONE',  ( -1.000000000000000000, 0.000000000000000000, 0.000000000000000000 ) ) ;
#144 = ORIENTED_EDGE ( 'NONE', *, *, #88, .T. ) ;
#145 = DIRECTION ( 'NONE',  ( 0.5000000000000002220, 0.8660254037844384856, 0.000000000000000000 ) ) ;
#146 = VECTOR ( 'NONE', #196, 39.37007874015748143 ) ;
#147 = CARTESIAN_POINT ( 'NONE',  ( 0.2886751345948129766, -1.365923996832131609E-16, 0.000000000000000000 ) ) ;
#148 = EDGE_CURVE ( 'NONE', #160, #260, #173, .T. ) ;
#149 = FACE_OUTER_BOUND ( 'NONE', #351, .T. ) ;
#150 = ADVANCED_BREP_SHAPE_REPRESENTATION ( '2.375 T40 Wheel', ( #65, #165 ), #366 ) ;
#151 = DIRECTION ( 'NONE',  ( -0.000000000000000000, -0.000000000000000000, -1.000000000000000000 ) ) ;
#152 = ORIENTED_EDGE ( 'NONE', *, *, #124, .F. ) ;
#153 = EDGE_CURVE ( 'NONE', #309, #56, #289, .T. ) ;
#154 = VERTEX_POINT ( 'NONE', #52 ) ;
#155 = CARTESIAN_POINT ( 'NONE',  ( -0.1443375672974064050, 0.2500000000000000555, 0.000000000000000000 ) ) ;
#156 = APPROVAL_DATE_TIME ( #361, #129 ) ;
#157 = LINE ( 'NONE', #125, #119 ) ;
#158 = VECTOR ( 'NONE', #81, 39.37007874015748854 ) ;
#159 = DATE_AND_TIME ( #310, #298 ) ;
#160 = VERTEX_POINT ( 'NONE', #283 ) ;
#161 = CC_DESIGN_PERSON_AND_ORGANIZATION_ASSIGNMENT ( #190, #5, ( #281 ) ) ;
#162 = DIRECTION ( 'NONE',  ( -1.182924880895401264E-16, -1.000000000000000000, 0.000000000000000000 ) ) ;
#163 = APPROVAL_STATUS ( 'not_yet_approved' ) ;
#164 = EDGE_LOOP ( 'NONE', ( #297, #234, #202, #13, #288, #181 ) ) ;
#165 = AXIS2_PLACEMENT_3D ( 'NONE', #117, #37, #239 ) ;
#166 = CYLINDRICAL_SURFACE ( 'NONE', #194, 1.187500000000000000 ) ;
#167 = ADVANCED_FACE ( 'NONE', ( #18 ), #166, .T. ) ;
#168 = CYLINDRICAL_SURFACE ( 'NONE', #209, 1.187500000000000000 ) ;
#169 = CARTESIAN_POINT ( 'NONE',  ( 0.1443375672974064050, 0.2500000000000000000, 0.4000000000000000222 ) ) ;
#170 = VECTOR ( 'NONE', #177, 39.37007874015748854 ) ;
#171 = CARTESIAN_POINT ( 'NONE',  ( -1.187500000000000000, 0.000000000000000000, 0.000000000000000000 ) ) ;
#172 = ORIENTED_EDGE ( 'NONE', *, *, #217, .T. ) ;
#173 = LINE ( 'NONE', #57, #354 ) ;
#174 = EDGE_LOOP ( 'NONE', ( #230, #38 ) ) ;
#175 = DIRECTION ( 'NONE',  ( -0.000000000000000000, -0.000000000000000000, -1.000000000000000000 ) ) ;
#176 = AXIS2_PLACEMENT_3D ( 'NONE', #98, #162, #216 ) ;
#177 = DIRECTION ( 'NONE',  ( 0.5000000000000001110, -0.8660254037844385966, 0.000000000000000000 ) ) ;
#178 = PERSON_AND_ORGANIZATION ( #255, #330 ) ;
#179 = ORIENTED_EDGE ( 'NONE', *, *, #47, .T. ) ;
#180 = EDGE_CURVE ( 'NONE', #335, #309, #25, .T. ) ;
#181 = ORIENTED_EDGE ( 'NONE', *, *, #369, .T. ) ;
#182 = CIRCLE ( 'NONE', #43, 1.187500000000000000 ) ;
#183 = COORDINATED_UNIVERSAL_TIME_OFFSET ( 8, 0, .BEHIND. ) ;
#184 = ORIENTED_EDGE ( 'NONE', *, *, #302, .F. ) ;
#185 = DATE_TIME_ROLE ( 'classification_date' ) ;
#186 = PLANE ( 'NONE',  #8 ) ;
#187 = CARTESIAN_POINT ( 'NONE',  ( 0.2886751345948129766, -1.365923996832131609E-16, 0.4000000000000000222 ) ) ;
#188 = VECTOR ( 'NONE', #287, 39.37007874015748143 ) ;
#189 = CARTESIAN_POINT ( 'NONE',  ( 0.1443375672974065715, -0.2499999999999998612, 0.4000000000000000222 ) ) ;
#190 = PERSON_AND_ORGANIZATION ( #255, #330 ) ;
#191 = VERTEX_POINT ( 'NONE', #108 ) ;
#192 = ADVANCED_FACE ( 'NONE', ( #373 ), #254, .T. ) ;
#193 = CARTESIAN_POINT ( 'NONE',  ( 0.1443375672974064050, 0.2500000000000000000, 0.000000000000000000 ) ) ;
#194 = AXIS2_PLACEMENT_3D ( 'NONE', #346, #282, #143 ) ;
#195 = DIRECTION ( 'NONE',  ( 1.000000000000000000, 0.000000000000000000, 0.000000000000000000 ) ) ;
#196 = DIRECTION ( 'NONE',  ( 1.000000000000000000, 0.000000000000000000, 0.000000000000000000 ) ) ;
#197 = DIRECTION ( 'NONE',  ( 0.000000000000000000, 0.000000000000000000, 1.000000000000000000 ) ) ;
#198 = CC_DESIGN_DATE_AND_TIME_ASSIGNMENT ( #334, #185, ( #281 ) ) ;
#199 = ORIENTED_EDGE ( 'NONE', *, *, #314, .T. ) ;
#200 = LOCAL_TIME ( 16, 24, 27.00000000000000000, #203 ) ;
#201 = DIRECTION ( 'NONE',  ( 1.000000000000000000, 0.000000000000000000, 0.000000000000000000 ) ) ;
#202 = ORIENTED_EDGE ( 'NONE', *, *, #22, .T. ) ;
#203 = COORDINATED_UNIVERSAL_TIME_OFFSET ( 8, 0, .BEHIND. ) ;
#204 = ORIENTED_EDGE ( 'NONE', *, *, #102, .F. ) ;
#205 = PRODUCT ( '2.375 T40 Wheel', '2.375 T40 Wheel', '', ( #327 ) ) ;
#206 = DIRECTION ( 'NONE',  ( -0.5000000000000002220, 0.8660254037844385966, 0.000000000000000000 ) ) ;
#207 = EDGE_CURVE ( 'NONE', #213, #160, #261, .T. ) ;
#208 = DIRECTION ( 'NONE',  ( -0.5000000000000002220, 0.8660254037844385966, 0.000000000000000000 ) ) ;
#209 = AXIS2_PLACEMENT_3D ( 'NONE', #91, #151, #58 ) ;
#210 = UNCERTAINTY_MEASURE_WITH_UNIT (LENGTH_MEASURE( 1.000000000000000082E-05 ), #2, 'distance_accuracy_value', 'NONE');
#211 = CARTESIAN_POINT ( 'NONE',  ( -0.2886751345948129210, 1.365923996832131609E-16, 0.4000000000000000222 ) ) ;
#212 = ORIENTED_EDGE ( 'NONE', *, *, #47, .F. ) ;
#213 = VERTEX_POINT ( 'NONE', #227 ) ;
#214 = VECTOR ( 'NONE', #259, 39.37007874015748143 ) ;
#215 = COORDINATED_UNIVERSAL_TIME_OFFSET ( 8, 0, .BEHIND. ) ;
#216 = DIRECTION ( 'NONE',  ( 1.000000000000000000, -1.182924880895401264E-16, 0.000000000000000000 ) ) ;
#217 = EDGE_CURVE ( 'NONE', #258, #123, #182, .T. ) ;
#218 = FACE_OUTER_BOUND ( 'NONE', #328, .T. ) ;
#219 = DATE_TIME_ROLE ( 'creation_date' ) ;
#220 = PLANE ( 'NONE',  #55 ) ;
#221 = VECTOR ( 'NONE', #23, 39.37007874015748143 ) ;
#222 = CARTESIAN_POINT ( 'NONE',  ( -1.187500000000000000, 0.000000000000000000, 0.4000000000000000222 ) ) ;
#223 = EDGE_CURVE ( 'NONE', #24, #347, #345, .T. ) ;
#224 = PLANE ( 'NONE',  #250 ) ;
#225 = CARTESIAN_POINT ( 'NONE',  ( -0.1443375672974064050, -0.2499999999999998890, 0.4000000000000000222 ) ) ;
#226 = VECTOR ( 'NONE', #19, 39.37007874015748143 ) ;
#227 = CARTESIAN_POINT ( 'NONE',  ( 0.1443375672974064050, 0.2500000000000000000, 0.4000000000000000222 ) ) ;
#228 = CARTESIAN_POINT ( 'NONE',  ( -0.1443375672974064050, -0.2499999999999998890, 0.000000000000000000 ) ) ;
#229 = APPROVAL ( #163, 'UNSPECIFIED' ) ;
#230 = ORIENTED_EDGE ( 'NONE', *, *, #318, .T. ) ;
#231 = CARTESIAN_POINT ( 'NONE',  ( -0.1443375672974064050, 0.2500000000000000555, 0.000000000000000000 ) ) ;
#232 = APPROVAL_PERSON_ORGANIZATION ( #34, #290, #89 ) ;
#233 = LINE ( 'NONE', #225, #61 ) ;
#234 = ORIENTED_EDGE ( 'NONE', *, *, #302, .T. ) ;
#235 = EDGE_CURVE ( 'NONE', #269, #123, #138, .T. ) ;
#236 = LINE ( 'NONE', #238, #293 ) ;
#237 = PRODUCT_DEFINITION_SHAPE ( 'NONE', 'NONE',  #295 ) ;
#238 = CARTESIAN_POINT ( 'NONE',  ( 0.2886751345948129766, -1.365923996832131609E-16, 0.4000000000000000222 ) ) ;
#239 = DIRECTION ( 'NONE',  ( 1.000000000000000000, 0.000000000000000000, 0.000000000000000000 ) ) ;
#240 = PRODUCT_RELATED_PRODUCT_CATEGORY ( 'detail', '', ( #205 ) ) ;
#241 = DIRECTION ( 'NONE',  ( 1.000000000000000000, 0.000000000000000000, -0.000000000000000000 ) ) ;
#242 = EDGE_LOOP ( 'NONE', ( #3, #69, #340, #291 ) ) ;
#243 = APPROVAL_STATUS ( 'not_yet_approved' ) ;
#244 = ORIENTED_EDGE ( 'NONE', *, *, #277, .T. ) ;
#245 = COORDINATED_UNIVERSAL_TIME_OFFSET ( 8, 0, .BEHIND. ) ;
#246 = DIRECTION ( 'NONE',  ( -0.000000000000000000, -0.000000000000000000, -1.000000000000000000 ) ) ;
#247 = DIRECTION ( 'NONE',  ( -0.5000000000000002220, -0.8660254037844384856, 0.000000000000000000 ) ) ;
#248 = CARTESIAN_POINT ( 'NONE',  ( 0.000000000000000000, 0.000000000000000000, 0.4000000000000000222 ) ) ;
#249 = EDGE_CURVE ( 'NONE', #335, #154, #315, .T. ) ;
#250 = AXIS2_PLACEMENT_3D ( 'NONE', #187, #362, #71 ) ;
#251 = LINE ( 'NONE', #127, #79 ) ;
#252 = CARTESIAN_POINT ( 'NONE',  ( 1.187500000000000000, 1.454268073987482103E-16, 0.4000000000000000222 ) ) ;
#253 = APPLICATION_CONTEXT ( 'configuration controlled 3d designs of mechanical parts and assemblies' ) ;
#254 = PLANE ( 'NONE',  #29 ) ;
#255 = PERSON ( 'UNSPECIFIED', 'UNSPECIFIED', 'UNSPECIFIED', ('UNSPECIFIED'), ('UNSPECIFIED'), ('UNSPECIFIED') ) ;
#256 = VECTOR ( 'NONE', #45, 39.37007874015748854 ) ;
#257 = CARTESIAN_POINT ( 'NONE',  ( -0.2886751345948129210, 1.365923996832131609E-16, 0.4000000000000000222 ) ) ;
#258 = VERTEX_POINT ( 'NONE', #171 ) ;
#259 = DIRECTION ( 'NONE',  ( -0.000000000000000000, -0.000000000000000000, -1.000000000000000000 ) ) ;
#260 = VERTEX_POINT ( 'NONE', #231 ) ;
#261 = LINE ( 'NONE', #169, #226 ) ;
#262 = APPROVAL_PERSON_ORGANIZATION ( #11, #129, #7 ) ;
#263 = CARTESIAN_POINT ( 'NONE',  ( 0.1443375672974065993, -0.2499999999999998890, 0.000000000000000000 ) ) ;
#264 = APPLICATION_PROTOCOL_DEFINITION ( 'international standard', 'config_control_design', 1994, #253 ) ;
#265 = CARTESIAN_POINT ( 'NONE',  ( 0.2886751345948129766, -1.365923996832131609E-16, 0.4000000000000000222 ) ) ;
#266 = FACE_BOUND ( 'NONE', #164, .T. ) ;
#267 = CC_DESIGN_DATE_AND_TIME_ASSIGNMENT ( #306, #219, ( #295 ) ) ;
#268 = ORIENTED_EDGE ( 'NONE', *, *, #102, .T. ) ;
#269 = VERTEX_POINT ( 'NONE', #113 ) ;
#270 = ORIENTED_EDGE ( 'NONE', *, *, #207, .F. ) ;
#271 = SHAPE_DEFINITION_REPRESENTATION ( #237, #150 ) ;
#272 = LINE ( 'NONE', #9, #344 ) ;
#273 = CIRCLE ( 'NONE', #299, 1.187500000000000000 ) ;
#274 = CC_DESIGN_APPROVAL ( #129, ( #281 ) ) ;
#275 = CALENDAR_DATE ( 2026, 20, 3 ) ;
#276 = DIRECTION ( 'NONE',  ( 0.5000000000000003331, 0.8660254037844383745, 0.000000000000000000 ) ) ;
#277 = EDGE_CURVE ( 'NONE', #123, #258, #338, .T. ) ;
#278 = DIRECTION ( 'NONE',  ( 0.000000000000000000, -0.000000000000000000, 1.000000000000000000 ) ) ;
#279 = PERSON_AND_ORGANIZATION_ROLE ( 'creator' ) ;
#280 = EDGE_LOOP ( 'NONE', ( #152, #333, #244, #212 ) ) ;
#281 = SECURITY_CLASSIFICATION ( '', '', #301 ) ;
#282 = DIRECTION ( 'NONE',  ( -0.000000000000000000, -0.000000000000000000, -1.000000000000000000 ) ) ;
#283 = CARTESIAN_POINT ( 'NONE',  ( -0.1443375672974064050, 0.2500000000000000555, 0.4000000000000000222 ) ) ;
#284 = EDGE_CURVE ( 'NONE', #309, #24, #233, .T. ) ;
#285 = DIRECTION ( 'NONE',  ( -0.000000000000000000, -0.000000000000000000, -1.000000000000000000 ) ) ;
#286 = VECTOR ( 'NONE', #206, 39.37007874015747433 ) ;
#287 = DIRECTION ( 'NONE',  ( -1.000000000000000000, 1.182924880895401264E-16, 0.000000000000000000 ) ) ;
#288 = ORIENTED_EDGE ( 'NONE', *, *, #223, .T. ) ;
#289 = LINE ( 'NONE', #312, #324 ) ;
#290 = APPROVAL ( #243, 'UNSPECIFIED' ) ;
#291 = ORIENTED_EDGE ( 'NONE', *, *, #53, .T. ) ;
#292 = CARTESIAN_POINT ( 'NONE',  ( 0.000000000000000000, 0.000000000000000000, 0.000000000000000000 ) ) ;
#293 = VECTOR ( 'NONE', #175, 39.37007874015748143 ) ;
#294 = CARTESIAN_POINT ( 'NONE',  ( -0.2886751345948129210, 1.365923996832131609E-16, 0.000000000000000000 ) ) ;
#295 = PRODUCT_DEFINITION ( 'UNKNOWN', '', #133, #63 ) ;
#296 = APPLICATION_PROTOCOL_DEFINITION ( 'international standard', 'config_control_design', 1994, #31 ) ;
#297 = ORIENTED_EDGE ( 'NONE', *, *, #329, .T. ) ;
#298 = LOCAL_TIME ( 16, 24, 27.00000000000000000, #245 ) ;
#299 = AXIS2_PLACEMENT_3D ( 'NONE', #80, #140, #195 ) ;
#300 = ORIENTED_EDGE ( 'NONE', *, *, #314, .F. ) ;
#301 = SECURITY_CLASSIFICATION_LEVEL ( 'unclassified' ) ;
#302 = EDGE_CURVE ( 'NONE', #191, #260, #350, .T. ) ;
#303 = LINE ( 'NONE', #39, #86 ) ;
#304 = APPROVAL_STATUS ( 'not_yet_approved' ) ;
#305 = CARTESIAN_POINT ( 'NONE',  ( 0.2886751345948129766, -1.195183497228115035E-16, 0.000000000000000000 ) ) ;
#306 = DATE_AND_TIME ( #336, #36 ) ;
#307 = ORIENTED_EDGE ( 'NONE', *, *, #277, .F. ) ;
#308 = PERSON_AND_ORGANIZATION_ROLE ( 'design_supplier' ) ;
#309 = VERTEX_POINT ( 'NONE', #105 ) ;
#310 = CALENDAR_DATE ( 2026, 20, 3 ) ;
#311 = FACE_OUTER_BOUND ( 'NONE', #142, .T. ) ;
#312 = CARTESIAN_POINT ( 'NONE',  ( -0.1443375672974064050, -0.2499999999999998890, 0.4000000000000000222 ) ) ;
#313 = DIRECTION ( 'NONE',  ( -0.8660254037844385966, 0.5000000000000003331, 0.000000000000000000 ) ) ;
#314 = EDGE_CURVE ( 'NONE', #213, #191, #343, .T. ) ;
#315 = LINE ( 'NONE', #257, #214 ) ;
#316 = DIRECTION ( 'NONE',  ( -0.000000000000000000, -0.000000000000000000, -1.000000000000000000 ) ) ;
#317 = ORIENTED_EDGE ( 'NONE', *, *, #148, .T. ) ;
#318 = EDGE_CURVE ( 'NONE', #64, #269, #273, .T. ) ;
#319 = DIRECTION ( 'NONE',  ( -0.5000000000000002220, -0.8660254037844384856, 0.000000000000000000 ) ) ;
#320 = EDGE_LOOP ( 'NONE', ( #270, #94, #364, #322, #104, #204 ) ) ;
#321 = CALENDAR_DATE ( 2026, 20, 3 ) ;
#322 = ORIENTED_EDGE ( 'NONE', *, *, #153, .F. ) ;
#323 = DIRECTION ( 'NONE',  ( 0.000000000000000000, 0.000000000000000000, 1.000000000000000000 ) ) ;
#324 = VECTOR ( 'NONE', #201, 39.37007874015748143 ) ;
#325 = CC_DESIGN_SECURITY_CLASSIFICATION ( #281, ( #133 ) ) ;
#326 = ADVANCED_FACE ( 'NONE', ( #51 ), #168, .T. ) ;
#327 = MECHANICAL_CONTEXT ( 'NONE', #253, 'mechanical' ) ;
#328 = EDGE_LOOP ( 'NONE', ( #121, #26, #144, #199 ) ) ;
#329 = EDGE_CURVE ( 'NONE', #67, #191, #30, .T. ) ;
#330 = ORGANIZATION ( 'UNSPECIFIED', 'UNSPECIFIED', '' ) ;
#331 = VERTEX_POINT ( 'NONE', #265 ) ;
#332 = PERSON_AND_ORGANIZATION ( #255, #330 ) ;
#333 = ORIENTED_EDGE ( 'NONE', *, *, #235, .T. ) ;
#334 = DATE_AND_TIME ( #275, #114 ) ;
#335 = VERTEX_POINT ( 'NONE', #211 ) ;
#336 = CALENDAR_DATE ( 2026, 20, 3 ) ;
#337 = CARTESIAN_POINT ( 'NONE',  ( -0.1443375672974064050, -0.2499999999999998890, 0.4000000000000000222 ) ) ;
#338 = CIRCLE ( 'NONE', #15, 1.187500000000000000 ) ;
#339 = EDGE_CURVE ( 'NONE', #331, #67, #236, .T. ) ;
#340 = ORIENTED_EDGE ( 'NONE', *, *, #153, .T. ) ;
#341 = FACE_BOUND ( 'NONE', #320, .T. ) ;
#342 = ADVANCED_FACE ( 'NONE', ( #149, #266 ), #62, .F. ) ;
#343 = LINE ( 'NONE', #111, #221 ) ;
#344 = VECTOR ( 'NONE', #247, 39.37007874015748854 ) ;
#345 = LINE ( 'NONE', #228, #146 ) ;
#346 = CARTESIAN_POINT ( 'NONE',  ( 0.000000000000000000, 0.000000000000000000, 0.4000000000000000222 ) ) ;
#347 = VERTEX_POINT ( 'NONE', #93 ) ;
#348 = DIRECTION ( 'NONE',  ( 0.000000000000000000, 0.000000000000000000, 1.000000000000000000 ) ) ;
#349 = ORIENTED_EDGE ( 'NONE', *, *, #207, .T. ) ;
#350 = LINE ( 'NONE', #193, #188 ) ;
#351 = EDGE_LOOP ( 'NONE', ( #115, #307 ) ) ;
#352 = LINE ( 'NONE', #263, #1 ) ;
#353 = ADVANCED_FACE ( 'NONE', ( #380 ), #116, .T. ) ;
#354 = VECTOR ( 'NONE', #109, 39.37007874015748143 ) ;
#355 = CARTESIAN_POINT ( 'NONE',  ( -0.2886751345948129210, 1.365923996832131609E-16, 0.4000000000000000222 ) ) ;
#356 = ORIENTED_EDGE ( 'NONE', *, *, #363, .F. ) ;
#357 = CC_DESIGN_PERSON_AND_ORGANIZATION_ASSIGNMENT ( #178, #122, ( #205 ) ) ;
#358 = APPROVAL_ROLE ( '' ) ;
#359 = APPROVAL_PERSON_ORGANIZATION ( #97, #229, #358 ) ;
#360 = DIRECTION ( 'NONE',  ( -0.5000000000000002220, 0.8660254037844385966, 0.000000000000000000 ) ) ;
#361 = DATE_AND_TIME ( #41, #367 ) ;
#362 = DIRECTION ( 'NONE',  ( -0.8660254037844385966, -0.5000000000000001110, 0.000000000000000000 ) ) ;
#363 = EDGE_CURVE ( 'NONE', #154, #24, #27, .T. ) ;
#364 = ORIENTED_EDGE ( 'NONE', *, *, #141, .F. ) ;
#365 = CARTESIAN_POINT ( 'NONE',  ( 0.000000000000000000, 0.000000000000000000, 0.4000000000000000222 ) ) ;
#366 =( GEOMETRIC_REPRESENTATION_CONTEXT ( 3 ) GLOBAL_UNCERTAINTY_ASSIGNED_CONTEXT ( ( #210 ) ) GLOBAL_UNIT_ASSIGNED_CONTEXT ( ( #2, #32, #66 ) ) REPRESENTATION_CONTEXT ( 'NONE', 'WORKASPACE' ) );
#367 = LOCAL_TIME ( 16, 24, 27.00000000000000000, #70 ) ;
#368 = CARTESIAN_POINT ( 'NONE',  ( -0.1443375672974064050, -0.2499999999999998890, 0.000000000000000000 ) ) ;
#369 = EDGE_CURVE ( 'NONE', #347, #67, #352, .T. ) ;
#370 = CARTESIAN_POINT ( 'NONE',  ( 0.000000000000000000, 0.000000000000000000, 0.000000000000000000 ) ) ;
#371 = CARTESIAN_POINT ( 'NONE',  ( 0.1443375672974065993, -0.2499999999999998890, 0.4000000000000000222 ) ) ;
#372 = VECTOR ( 'NONE', #285, 39.37007874015748143 ) ;
#373 = FACE_OUTER_BOUND ( 'NONE', #376, .T. ) ;
#374 = ORIENTED_EDGE ( 'NONE', *, *, #318, .F. ) ;
#375 = DIRECTION ( 'NONE',  ( 1.000000000000000000, 0.000000000000000000, 0.000000000000000000 ) ) ;
#376 = EDGE_LOOP ( 'NONE', ( #16, #87, #21, #35 ) ) ;
#377 = CARTESIAN_POINT ( 'NONE',  ( 0.000000000000000000, 0.000000000000000000, 0.000000000000000000 ) ) ;
#378 = ORIENTED_EDGE ( 'NONE', *, *, #180, .T. ) ;
#379 = CLOSED_SHELL ( 'NONE', ( #326, #59, #342, #167, #33, #96, #28, #353, #118, #192 ) ) ;
#380 = FACE_OUTER_BOUND ( 'NONE', #95, .T. ) ;
ENDSEC;
END-ISO-10303-21;
