ISO-10303-21;
HEADER;
FILE_DESCRIPTION (( 'STEP AP203' ),
    '1' );
FILE_NAME ('Chassis Back Wall Design 4.STEP',
    '2026-03-20T23:16:32',
    ( '' ),
    ( '' ),
    'SwSTEP 2.0',
    'SolidWorks 2025',
    '' );
FILE_SCHEMA (( 'CONFIG_CONTROL_DESIGN' ));
ENDSEC;

DATA;
#1 = CARTESIAN_POINT ( 'NONE',  ( 0.3780776406404417478, -0.2500000000000008882, -1.650000000000000799 ) ) ;
#2 = ORIENTED_EDGE ( 'NONE', *, *, #500, .F. ) ;
#3 = DIRECTION ( 'NONE',  ( -0.000000000000000000, -1.000000000000000000, -0.000000000000000000 ) ) ;
#4 = CARTESIAN_POINT ( 'NONE',  ( 1.121922359359557309, -8.878505979408855953E-16, -1.550000000000000044 ) ) ;
#5 = EDGE_CURVE ( 'NONE', #642, #103, #335, .T. ) ;
#6 = ORIENTED_EDGE ( 'NONE', *, *, #92, .T. ) ;
#7 = DIRECTION ( 'NONE',  ( -1.000000000000000000, -0.000000000000000000, 1.469042086293732992E-15 ) ) ;
#8 = CIRCLE ( 'NONE', #710, 0.1000000000000000194 ) ;
#9 = CARTESIAN_POINT ( 'NONE',  ( 0.3780776406404417478, -8.878505979408855953E-16, -1.550000000000000044 ) ) ;
#10 = VERTEX_POINT ( 'NONE', #262 ) ;
#11 = ADVANCED_FACE ( 'NONE', ( #659 ), #779, .F. ) ;
#12 = DIRECTION ( 'NONE',  ( 0.000000000000000000, 0.000000000000000000, -1.000000000000000000 ) ) ;
#13 = DIRECTION ( 'NONE',  ( -0.000000000000000000, -1.000000000000000000, -0.000000000000000000 ) ) ;
#14 = CALENDAR_DATE ( 2026, 20, 3 ) ;
#15 = EDGE_CURVE ( 'NONE', #112, #415, #721, .T. ) ;
#16 = VERTEX_POINT ( 'NONE', #793 ) ;
#17 = CC_DESIGN_PERSON_AND_ORGANIZATION_ASSIGNMENT ( #280, #529, ( #705 ) ) ;
#18 = AXIS2_PLACEMENT_3D ( 'NONE', #166, #344, #616 ) ;
#19 = ORIENTED_EDGE ( 'NONE', *, *, #601, .F. ) ;
#20 = UNCERTAINTY_MEASURE_WITH_UNIT (LENGTH_MEASURE( 1.000000000000000082E-05 ), #406, 'distance_accuracy_value', 'NONE');
#21 = PERSON_AND_ORGANIZATION ( #345, #651 ) ;
#22 = DIRECTION ( 'NONE',  ( 0.000000000000000000, -1.000000000000000000, 0.000000000000000000 ) ) ;
#23 = DIRECTION ( 'NONE',  ( 0.000000000000000000, 0.000000000000000000, 1.000000000000000000 ) ) ;
#24 = APPROVAL ( #241, 'UNSPECIFIED' ) ;
#25 = CARTESIAN_POINT ( 'NONE',  ( 0.3780776406404414147, -8.878505979408855953E-16, 2.899999999999999467 ) ) ;
#26 = ADVANCED_FACE ( 'NONE', ( #269 ), #591, .F. ) ;
#27 = DIRECTION ( 'NONE',  ( 0.2425356250363326915, -0.000000000000000000, -0.9701425001453318764 ) ) ;
#28 = EDGE_CURVE ( 'NONE', #144, #310, #194, .T. ) ;
#29 = ORIENTED_EDGE ( 'NONE', *, *, #160, .F. ) ;
#30 = APPROVAL_DATE_TIME ( #163, #24 ) ;
#31 = ORIENTED_EDGE ( 'NONE', *, *, #829, .T. ) ;
#32 = CARTESIAN_POINT ( 'NONE',  ( 0.000000000000000000, -0.2500000000000008882, 3.499999999999999112 ) ) ;
#33 = CC_DESIGN_APPROVAL ( #804, ( #707 ) ) ;
#34 = VECTOR ( 'NONE', #739, 39.37007874015748143 ) ;
#35 = DIRECTION ( 'NONE',  ( 0.000000000000000000, -1.000000000000000000, 0.000000000000000000 ) ) ;
#36 = VECTOR ( 'NONE', #243, 39.37007874015748854 ) ;
#37 = ORIENTED_EDGE ( 'NONE', *, *, #534, .T. ) ;
#38 = CARTESIAN_POINT ( 'NONE',  ( 0.3780776406404414147, -0.2500000000000008882, 2.899999999999999467 ) ) ;
#39 = DIRECTION ( 'NONE',  ( 1.000000000000000000, -0.000000000000000000, -0.000000000000000000 ) ) ;
#40 = EDGE_LOOP ( 'NONE', ( #360, #218, #524, #600, #795, #321 ) ) ;
#41 = FACE_BOUND ( 'NONE', #690, .T. ) ;
#42 = EDGE_CURVE ( 'NONE', #530, #378, #550, .T. ) ;
#43 = CARTESIAN_POINT ( 'NONE',  ( 1.121922359359557531, -8.878505979408855953E-16, 2.899999999999999023 ) ) ;
#44 = VERTEX_POINT ( 'NONE', #676 ) ;
#45 = PERSON_AND_ORGANIZATION ( #345, #651 ) ;
#46 = DIRECTION ( 'NONE',  ( 1.000000000000000000, -0.000000000000000000, -0.000000000000000000 ) ) ;
#47 = DIRECTION ( 'NONE',  ( -0.000000000000000000, -1.000000000000000000, -0.000000000000000000 ) ) ;
#48 = VECTOR ( 'NONE', #752, 39.37007874015748854 ) ;
#49 = VECTOR ( 'NONE', #758, 39.37007874015748143 ) ;
#50 = ORIENTED_EDGE ( 'NONE', *, *, #216, .T. ) ;
#51 = DATE_AND_TIME ( #618, #567 ) ;
#52 = DIRECTION ( 'NONE',  ( 1.000000000000000000, -0.000000000000000000, -0.000000000000000000 ) ) ;
#53 = CYLINDRICAL_SURFACE ( 'NONE', #665, 0.04921259842519634664 ) ;
#54 = EDGE_CURVE ( 'NONE', #490, #66, #537, .T. ) ;
#55 = VERTEX_POINT ( 'NONE', #170 ) ;
#56 = DIRECTION ( 'NONE',  ( 0.000000000000000000, -1.000000000000000000, 0.000000000000000000 ) ) ;
#57 = CARTESIAN_POINT ( 'NONE',  ( 0.000000000000000000, -8.878505979408855953E-16, 3.499999999999999112 ) ) ;
#58 = ORIENTED_EDGE ( 'NONE', *, *, #216, .F. ) ;
#59 = EDGE_CURVE ( 'NONE', #55, #503, #724, .T. ) ;
#60 = DIRECTION ( 'NONE',  ( 0.000000000000000000, -1.000000000000000000, 0.000000000000000000 ) ) ;
#61 = LINE ( 'NONE', #495, #486 ) ;
#62 = ORIENTED_EDGE ( 'NONE', *, *, #687, .T. ) ;
#63 = VECTOR ( 'NONE', #444, 39.37007874015748143 ) ;
#64 = CARTESIAN_POINT ( 'NONE',  ( 0.000000000000000000, -0.1249999999999998751, -1.875000000000000444 ) ) ;
#65 = DIRECTION ( 'NONE',  ( -0.000000000000000000, -0.000000000000000000, -1.000000000000000000 ) ) ;
#66 = VERTEX_POINT ( 'NONE', #427 ) ;
#67 = DIRECTION ( 'NONE',  ( 0.000000000000000000, -1.000000000000000000, 0.000000000000000000 ) ) ;
#68 = EDGE_CURVE ( 'NONE', #828, #466, #595, .T. ) ;
#69 = LINE ( 'NONE', #387, #283 ) ;
#70 = ORIENTED_EDGE ( 'NONE', *, *, #425, .T. ) ;
#71 = FACE_BOUND ( 'NONE', #40, .T. ) ;
#72 = CARTESIAN_POINT ( 'NONE',  ( 0.000000000000000000, -0.1249999999999998751, -1.825787401574803681 ) ) ;
#73 = ORIENTED_EDGE ( 'NONE', *, *, #42, .F. ) ;
#74 = VECTOR ( 'NONE', #796, 39.37007874015748143 ) ;
#75 = VECTOR ( 'NONE', #13, 39.37007874015748143 ) ;
#76 = FACE_BOUND ( 'NONE', #623, .T. ) ;
#77 = AXIS2_PLACEMENT_3D ( 'NONE', #827, #244, #759 ) ;
#78 = AXIS2_PLACEMENT_3D ( 'NONE', #25, #202, #720 ) ;
#79 = DIRECTION ( 'NONE',  ( -0.000000000000000000, -1.000000000000000000, -0.000000000000000000 ) ) ;
#80 = ORIENTED_EDGE ( 'NONE', *, *, #374, .F. ) ;
#81 = EDGE_CURVE ( 'NONE', #144, #94, #101, .T. ) ;
#82 = DIRECTION ( 'NONE',  ( -0.2425356250363327748, 0.000000000000000000, -0.9701425001453318764 ) ) ;
#83 = CARTESIAN_POINT ( 'NONE',  ( 1.218936609374090985, -8.878505979408855953E-16, 2.775746437496366070 ) ) ;
#84 = ORIENTED_EDGE ( 'NONE', *, *, #534, .F. ) ;
#85 = VECTOR ( 'NONE', #370, 39.37007874015748143 ) ;
#86 = EDGE_CURVE ( 'NONE', #371, #828, #106, .T. ) ;
#87 = AXIS2_PLACEMENT_3D ( 'NONE', #657, #799, #82 ) ;
#88 = DIRECTION ( 'NONE',  ( -0.000000000000000000, -1.000000000000000000, -0.000000000000000000 ) ) ;
#89 =( NAMED_UNIT ( * ) SI_UNIT ( $, .STERADIAN. ) SOLID_ANGLE_UNIT ( ) );
#90 = DIRECTION ( 'NONE',  ( 0.000000000000000000, 0.000000000000000000, -1.000000000000000000 ) ) ;
#91 = ORIENTED_EDGE ( 'NONE', *, *, #347, .F. ) ;
#92 = EDGE_CURVE ( 'NONE', #445, #338, #711, .T. ) ;
#93 = CARTESIAN_POINT ( 'NONE',  ( 1.218936609374090541, -8.878505979408855953E-16, 2.775746437496365182 ) ) ;
#94 = VERTEX_POINT ( 'NONE', #279 ) ;
#95 = DIRECTION ( 'NONE',  ( -0.9701425001453319874, 0.000000000000000000, -0.2425356250363327193 ) ) ;
#96 = CARTESIAN_POINT ( 'NONE',  ( 0.6529857499854663239, -8.878505979408855953E-16, 1.288057000058131951 ) ) ;
#97 = EDGE_LOOP ( 'NONE', ( #50, #402, #169, #206 ) ) ;
#98 = DIRECTION ( 'NONE',  ( 0.000000000000000000, 0.000000000000000000, 1.000000000000000000 ) ) ;
#99 = APPROVAL_PERSON_ORGANIZATION ( #403, #270, #148 ) ;
#100 = VECTOR ( 'NONE', #88, 39.37007874015748143 ) ;
#101 = LINE ( 'NONE', #153, #569 ) ;
#102 = VECTOR ( 'NONE', #133, 39.37007874015748143 ) ;
#103 = VERTEX_POINT ( 'NONE', #533 ) ;
#104 = EDGE_CURVE ( 'NONE', #310, #772, #348, .T. ) ;
#105 = CARTESIAN_POINT ( 'NONE',  ( 1.500000000000000222, -8.878505979408855953E-16, -2.250000000000000444 ) ) ;
#106 = LINE ( 'NONE', #597, #48 ) ;
#107 = ORIENTED_EDGE ( 'NONE', *, *, #806, .F. ) ;
#108 = APPROVAL_DATE_TIME ( #552, #270 ) ;
#109 = CARTESIAN_POINT ( 'NONE',  ( 1.121922359359557531, -0.2500000000000008882, 2.799999999999998934 ) ) ;
#110 = CARTESIAN_POINT ( 'NONE',  ( 0.000000000000000000, -0.1249999999999998751, -1.924212598425196985 ) ) ;
#111 = PRODUCT_RELATED_PRODUCT_CATEGORY ( 'detail', '', ( #705 ) ) ;
#112 = VERTEX_POINT ( 'NONE', #93 ) ;
#113 = LINE ( 'NONE', #308, #498 ) ;
#114 = LINE ( 'NONE', #306, #501 ) ;
#115 = AXIS2_PLACEMENT_3D ( 'NONE', #297, #22, #808 ) ;
#116 = CIRCLE ( 'NONE', #570, 0.04921259842519634664 ) ;
#117 = ORIENTED_EDGE ( 'NONE', *, *, #648, .T. ) ;
#118 = LINE ( 'NONE', #38, #397 ) ;
#119 = EDGE_CURVE ( 'NONE', #503, #55, #469, .T. ) ;
#120 = CARTESIAN_POINT ( 'NONE',  ( 0.2810633906259079051, -0.2500000000000008882, 2.775746437496366070 ) ) ;
#121 = ORIENTED_EDGE ( 'NONE', *, *, #545, .T. ) ;
#122 = DIRECTION ( 'NONE',  ( -1.000000000000000000, 0.000000000000000000, -1.469042086293733584E-15 ) ) ;
#123 = DIRECTION ( 'NONE',  ( 1.000000000000000000, -0.000000000000000000, -0.000000000000000000 ) ) ;
#124 = EDGE_LOOP ( 'NONE', ( #272, #539, #252, #645 ) ) ;
#125 = CARTESIAN_POINT ( 'NONE',  ( 0.000000000000000000, -8.878505979408855953E-16, -2.250000000000000444 ) ) ;
#126 = CARTESIAN_POINT ( 'NONE',  ( 0.8470142500145327880, -8.878505979408855953E-16, 1.288057000058131951 ) ) ;
#127 = ORIENTED_EDGE ( 'NONE', *, *, #589, .T. ) ;
#128 = CIRCLE ( 'NONE', #749, 0.1000000000000000194 ) ;
#129 = ADVANCED_FACE ( 'NONE', ( #685 ), #217, .F. ) ;
#130 = DIRECTION ( 'NONE',  ( 1.000000000000000000, -0.000000000000000000, -0.000000000000000000 ) ) ;
#131 = DIRECTION ( 'NONE',  ( 0.000000000000000000, 0.000000000000000000, -1.000000000000000000 ) ) ;
#132 = ORIENTED_EDGE ( 'NONE', *, *, #28, .F. ) ;
#133 = DIRECTION ( 'NONE',  ( -1.000000000000000000, -0.000000000000000000, -0.000000000000000000 ) ) ;
#134 = CARTESIAN_POINT ( 'NONE',  ( 0.8470142500145328990, -0.2500000000000008882, -0.03805700005813420633 ) ) ;
#135 = ORIENTED_EDGE ( 'NONE', *, *, #829, .F. ) ;
#136 = DIRECTION ( 'NONE',  ( 0.000000000000000000, 0.000000000000000000, -1.000000000000000000 ) ) ;
#137 = CYLINDRICAL_SURFACE ( 'NONE', #819, 0.1000000000000000194 ) ;
#138 = ORIENTED_EDGE ( 'NONE', *, *, #425, .F. ) ;
#139 = AXIS2_PLACEMENT_3D ( 'NONE', #558, #826, #159 ) ;
#140 = MECHANICAL_CONTEXT ( 'NONE', #496, 'mechanical' ) ;
#141 = AXIS2_PLACEMENT_3D ( 'NONE', #464, #747, #282 ) ;
#142 = CIRCLE ( 'NONE', #605, 0.04921259842519634664 ) ;
#143 = ORIENTED_EDGE ( 'NONE', *, *, #247, .F. ) ;
#144 = VERTEX_POINT ( 'NONE', #743 ) ;
#145 = VERTEX_POINT ( 'NONE', #352 ) ;
#146 =( NAMED_UNIT ( * ) PLANE_ANGLE_UNIT ( ) SI_UNIT ( $, .RADIAN. ) );
#147 = ORIENTED_EDGE ( 'NONE', *, *, #81, .T. ) ;
#148 = APPROVAL_ROLE ( '' ) ;
#149 = ADVANCED_FACE ( 'NONE', ( #606 ), #235, .F. ) ;
#150 = CARTESIAN_POINT ( 'NONE',  ( 0.7499999999999995559, -8.878505979408855953E-16, -0.06231056256176729230 ) ) ;
#151 = VECTOR ( 'NONE', #123, 39.37007874015748143 ) ;
#152 = CIRCLE ( 'NONE', #583, 0.1000000000000000194 ) ;
#153 = CARTESIAN_POINT ( 'NONE',  ( 0.3780776406404414147, -8.878505979408855953E-16, 2.899999999999999467 ) ) ;
#154 = EDGE_LOOP ( 'NONE', ( #767, #564, #132, #147 ) ) ;
#155 = CARTESIAN_POINT ( 'NONE',  ( 0.000000000000000000, -0.2500000000000008882, -2.250000000000000444 ) ) ;
#156 = DIRECTION ( 'NONE',  ( 0.000000000000000000, 0.000000000000000000, -1.000000000000000000 ) ) ;
#157 = DIRECTION ( 'NONE',  ( 0.000000000000000000, 0.000000000000000000, -1.000000000000000000 ) ) ;
#158 = ORIENTED_EDGE ( 'NONE', *, *, #669, .F. ) ;
#159 = DIRECTION ( 'NONE',  ( 0.000000000000000000, 0.000000000000000000, -1.000000000000000000 ) ) ;
#160 = EDGE_CURVE ( 'NONE', #640, #694, #802, .T. ) ;
#161 = CARTESIAN_POINT ( 'NONE',  ( 0.6529857499854663239, -8.878505979408855953E-16, -0.03805700005813398429 ) ) ;
#162 = ORIENTED_EDGE ( 'NONE', *, *, #5, .F. ) ;
#163 = DATE_AND_TIME ( #424, #526 ) ;
#164 = FACE_OUTER_BOUND ( 'NONE', #199, .T. ) ;
#165 = CC_DESIGN_SECURITY_CLASSIFICATION ( #418, ( #458 ) ) ;
#166 = CARTESIAN_POINT ( 'NONE',  ( 0.3780776406404414147, -8.878505979408855953E-16, 2.799999999999998934 ) ) ;
#167 = ORIENTED_EDGE ( 'NONE', *, *, #329, .F. ) ;
#168 = DIRECTION ( 'NONE',  ( -0.000000000000000000, 0.000000000000000000, -1.000000000000000000 ) ) ;
#169 = ORIENTED_EDGE ( 'NONE', *, *, #675, .F. ) ;
#170 = CARTESIAN_POINT ( 'NONE',  ( 1.500000000000000222, -0.1249999999999998751, -1.825787401574803903 ) ) ;
#171 = VERTEX_POINT ( 'NONE', #161 ) ;
#172 = ORIENTED_EDGE ( 'NONE', *, *, #374, .T. ) ;
#173 = PERSON_AND_ORGANIZATION ( #345, #651 ) ;
#174 = DIRECTION ( 'NONE',  ( 1.000000000000000000, 0.000000000000000000, -0.000000000000000000 ) ) ;
#175 = CARTESIAN_POINT ( 'NONE',  ( 1.500000000000000222, -0.1250000000000008327, 3.075787401574802793 ) ) ;
#176 = ORIENTED_EDGE ( 'NONE', *, *, #561, .T. ) ;
#177 = CALENDAR_DATE ( 2026, 20, 3 ) ;
#178 = CARTESIAN_POINT ( 'NONE',  ( 0.000000000000000000, -8.878505979408855953E-16, -2.250000000000000444 ) ) ;
#179 = EDGE_CURVE ( 'NONE', #757, #442, #331, .T. ) ;
#180 = AXIS2_PLACEMENT_3D ( 'NONE', #471, #339, #784 ) ;
#181 = CARTESIAN_POINT ( 'NONE',  ( 1.500000000000000222, -0.1250000000000008327, 3.075787401574802793 ) ) ;
#182 = AXIS2_PLACEMENT_3D ( 'NONE', #9, #265, #90 ) ;
#183 = EDGE_LOOP ( 'NONE', ( #431, #73, #761, #70 ) ) ;
#184 = LINE ( 'NONE', #633, #354 ) ;
#185 = CARTESIAN_POINT ( 'NONE',  ( 1.218936609374090541, -8.878505979408855953E-16, -1.525746437496366958 ) ) ;
#186 = EDGE_LOOP ( 'NONE', ( #121, #29, #143, #566 ) ) ;
#187 = LINE ( 'NONE', #125, #449 ) ;
#188 = CARTESIAN_POINT ( 'NONE',  ( 0.6529857499854663239, -8.878505979408855953E-16, 1.288057000058131951 ) ) ;
#189 = EDGE_CURVE ( 'NONE', #378, #513, #422, .T. ) ;
#190 = ORIENTED_EDGE ( 'NONE', *, *, #160, .T. ) ;
#191 = CARTESIAN_POINT ( 'NONE',  ( 1.500000000000000222, -0.2500000000000008882, -2.250000000000000444 ) ) ;
#192 = DIRECTION ( 'NONE',  ( 0.000000000000000000, -1.000000000000000000, 0.000000000000000000 ) ) ;
#193 = ORIENTED_EDGE ( 'NONE', *, *, #718, .T. ) ;
#194 = CIRCLE ( 'NONE', #18, 0.1000000000000000194 ) ;
#195 = VECTOR ( 'NONE', #260, 39.37007874015748143 ) ;
#196 = ADVANCED_BREP_SHAPE_REPRESENTATION ( 'Chassis Back Wall Design 4', ( #763, #358 ), #654 ) ;
#197 = CARTESIAN_POINT ( 'NONE',  ( 0.000000000000000000, -8.878505979408855953E-16, -2.250000000000000444 ) ) ;
#198 = CARTESIAN_POINT ( 'NONE',  ( 1.500000000000000222, 0.000000000000000000, 0.000000000000000000 ) ) ;
#199 = EDGE_LOOP ( 'NONE', ( #461, #656, #135, #367 ) ) ;
#200 = DIRECTION ( 'NONE',  ( 0.000000000000000000, 0.000000000000000000, 1.000000000000000000 ) ) ;
#201 = EDGE_CURVE ( 'NONE', #44, #298, #128, .T. ) ;
#202 = DIRECTION ( 'NONE',  ( 1.469042086293732992E-15, -0.000000000000000000, 1.000000000000000000 ) ) ;
#203 = ORIENTED_EDGE ( 'NONE', *, *, #632, .F. ) ;
#204 = EDGE_CURVE ( 'NONE', #375, #543, #231, .T. ) ;
#205 = DIRECTION ( 'NONE',  ( 0.000000000000000000, 0.000000000000000000, -1.000000000000000000 ) ) ;
#206 = ORIENTED_EDGE ( 'NONE', *, *, #585, .T. ) ;
#207 = APPROVAL_PERSON_ORGANIZATION ( #45, #24, #237 ) ;
#208 = CARTESIAN_POINT ( 'NONE',  ( 1.121922359359557531, -8.878505979408855953E-16, -1.649999999999999689 ) ) ;
#209 = VECTOR ( 'NONE', #255, 39.37007874015748143 ) ;
#210 = CIRCLE ( 'NONE', #288, 0.04921259842519662420 ) ;
#211 = ORIENTED_EDGE ( 'NONE', *, *, #104, .T. ) ;
#212 = COORDINATED_UNIVERSAL_TIME_OFFSET ( 8, 0, .BEHIND. ) ;
#213 = VERTEX_POINT ( 'NONE', #110 ) ;
#214 = EDGE_CURVE ( 'NONE', #772, #828, #627, .T. ) ;
#215 = DATE_AND_TIME ( #532, #313 ) ;
#216 = EDGE_CURVE ( 'NONE', #16, #415, #693, .T. ) ;
#217 = PLANE ( 'NONE',  #396 ) ;
#218 = ORIENTED_EDGE ( 'NONE', *, *, #500, .T. ) ;
#219 = FACE_OUTER_BOUND ( 'NONE', #97, .T. ) ;
#220 = DIRECTION ( 'NONE',  ( 0.000000000000000000, 0.000000000000000000, -1.000000000000000000 ) ) ;
#221 = AXIS2_PLACEMENT_3D ( 'NONE', #689, #706, #621 ) ;
#222 = VECTOR ( 'NONE', #3, 39.37007874015748143 ) ;
#223 = DIRECTION ( 'NONE',  ( -0.000000000000000000, -1.000000000000000000, -0.000000000000000000 ) ) ;
#224 = ORIENTED_EDGE ( 'NONE', *, *, #754, .F. ) ;
#225 = DIRECTION ( 'NONE',  ( -0.000000000000000000, -1.000000000000000000, -0.000000000000000000 ) ) ;
#226 = EDGE_CURVE ( 'NONE', #171, #338, #366, .T. ) ;
#227 = CARTESIAN_POINT ( 'NONE',  ( 1.500000000000000222, -8.878505979408855953E-16, -2.250000000000000444 ) ) ;
#228 = ORIENTED_EDGE ( 'NONE', *, *, #86, .T. ) ;
#229 = PERSON_AND_ORGANIZATION_ROLE ( 'design_supplier' ) ;
#230 = DIRECTION ( 'NONE',  ( 1.000000000000000000, -0.000000000000000000, -0.000000000000000000 ) ) ;
#231 = LINE ( 'NONE', #768, #581 ) ;
#232 = ORIENTED_EDGE ( 'NONE', *, *, #719, .T. ) ;
#233 = DIRECTION ( 'NONE',  ( 0.000000000000000000, -1.000000000000000000, 0.000000000000000000 ) ) ;
#234 = AXIS2_PLACEMENT_3D ( 'NONE', #359, #797, #417 ) ;
#235 = CYLINDRICAL_SURFACE ( 'NONE', #250, 0.04921259842519662420 ) ;
#236 = ORIENTED_EDGE ( 'NONE', *, *, #54, .T. ) ;
#237 = APPROVAL_ROLE ( '' ) ;
#238 = CYLINDRICAL_SURFACE ( 'NONE', #251, 0.1000000000000000194 ) ;
#239 = LINE ( 'NONE', #1, #818 ) ;
#240 = EDGE_LOOP ( 'NONE', ( #562, #805, #158, #190 ) ) ;
#241 = APPROVAL_STATUS ( 'not_yet_approved' ) ;
#242 = EDGE_CURVE ( 'NONE', #631, #320, #641, .T. ) ;
#243 = DIRECTION ( 'NONE',  ( -0.2425356250363326915, 0.000000000000000000, 0.9701425001453318764 ) ) ;
#244 = DIRECTION ( 'NONE',  ( 1.000000000000000000, -0.000000000000000000, -0.000000000000000000 ) ) ;
#245 = ORIENTED_EDGE ( 'NONE', *, *, #302, .F. ) ;
#246 = FACE_OUTER_BOUND ( 'NONE', #183, .T. ) ;
#247 = EDGE_CURVE ( 'NONE', #112, #640, #8, .T. ) ;
#248 = VECTOR ( 'NONE', #434, 39.37007874015748854 ) ;
#249 = CARTESIAN_POINT ( 'NONE',  ( 1.218936609374090985, -0.2500000000000008882, 2.775746437496366070 ) ) ;
#250 = AXIS2_PLACEMENT_3D ( 'NONE', #734, #409, #671 ) ;
#251 = AXIS2_PLACEMENT_3D ( 'NONE', #364, #225, #741 ) ;
#252 = ORIENTED_EDGE ( 'NONE', *, *, #302, .T. ) ;
#253 = FACE_BOUND ( 'NONE', #576, .T. ) ;
#254 = EDGE_CURVE ( 'NONE', #530, #375, #309, .T. ) ;
#255 = DIRECTION ( 'NONE',  ( 0.000000000000000000, -1.000000000000000000, 0.000000000000000000 ) ) ;
#256 = ORIENTED_EDGE ( 'NONE', *, *, #247, .T. ) ;
#257 = DIRECTION ( 'NONE',  ( 0.2425356250363327471, 0.000000000000000000, 0.9701425001453318764 ) ) ;
#258 = CARTESIAN_POINT ( 'NONE',  ( 1.500000000000000222, -8.878505979408855953E-16, 3.499999999999999112 ) ) ;
#259 = ORIENTED_EDGE ( 'NONE', *, *, #254, .F. ) ;
#260 = DIRECTION ( 'NONE',  ( -0.000000000000000000, -1.000000000000000000, -0.000000000000000000 ) ) ;
#261 = DIRECTION ( 'NONE',  ( -1.000000000000000000, -0.000000000000000000, -0.000000000000000000 ) ) ;
#262 = CARTESIAN_POINT ( 'NONE',  ( 1.500000000000000222, -8.878505979408855953E-16, -2.250000000000000444 ) ) ;
#263 = AXIS2_PLACEMENT_3D ( 'NONE', #778, #131, #523 ) ;
#264 = CARTESIAN_POINT ( 'NONE',  ( 0.3780776406404417478, -8.878505979408855953E-16, -1.650000000000000799 ) ) ;
#265 = DIRECTION ( 'NONE',  ( 0.000000000000000000, -1.000000000000000000, 0.000000000000000000 ) ) ;
#266 = ORIENTED_EDGE ( 'NONE', *, *, #726, .F. ) ;
#267 = EDGE_CURVE ( 'NONE', #814, #631, #447, .T. ) ;
#268 = DIRECTION ( 'NONE',  ( 0.000000000000000000, 0.000000000000000000, -1.000000000000000000 ) ) ;
#269 = FACE_OUTER_BOUND ( 'NONE', #608, .T. ) ;
#270 = APPROVAL ( #731, 'UNSPECIFIED' ) ;
#271 = APPROVAL_DATE_TIME ( #467, #804 ) ;
#272 = ORIENTED_EDGE ( 'NONE', *, *, #766, .F. ) ;
#273 = DIRECTION ( 'NONE',  ( 1.000000000000000000, 0.000000000000000000, 0.000000000000000000 ) ) ;
#274 = AXIS2_PLACEMENT_3D ( 'NONE', #487, #546, #157 ) ;
#275 = EDGE_CURVE ( 'NONE', #44, #466, #319, .T. ) ;
#276 = ORIENTED_EDGE ( 'NONE', *, *, #589, .F. ) ;
#277 = PERSON_AND_ORGANIZATION_ROLE ( 'creator' ) ;
#278 = EDGE_LOOP ( 'NONE', ( #6, #323, #557, #716 ) ) ;
#279 = CARTESIAN_POINT ( 'NONE',  ( 0.3780776406404414147, -0.2500000000000008882, 2.899999999999999467 ) ) ;
#280 = PERSON_AND_ORGANIZATION ( #345, #651 ) ;
#281 = FACE_OUTER_BOUND ( 'NONE', #154, .T. ) ;
#282 = DIRECTION ( 'NONE',  ( 0.2425356250363326915, 0.000000000000000000, -0.9701425001453318764 ) ) ;
#283 = VECTOR ( 'NONE', #324, 39.37007874015748143 ) ;
#284 = ORIENTED_EDGE ( 'NONE', *, *, #596, .F. ) ;
#285 = PERSON_AND_ORGANIZATION_ROLE ( 'creator' ) ;
#286 = DIRECTION ( 'NONE',  ( -0.000000000000000000, -1.000000000000000000, -0.000000000000000000 ) ) ;
#287 = AXIS2_PLACEMENT_3D ( 'NONE', #475, #39, #680 ) ;
#288 = AXIS2_PLACEMENT_3D ( 'NONE', #64, #322, #318 ) ;
#289 = CC_DESIGN_PERSON_AND_ORGANIZATION_ASSIGNMENT ( #821, #745, ( #418 ) ) ;
#290 = DIRECTION ( 'NONE',  ( 0.000000000000000000, 0.000000000000000000, 1.000000000000000000 ) ) ;
#291 = ORIENTED_EDGE ( 'NONE', *, *, #353, .T. ) ;
#292 = DIRECTION ( 'NONE',  ( -1.000000000000000000, -0.000000000000000000, 1.469042086293732992E-15 ) ) ;
#293 = CARTESIAN_POINT ( 'NONE',  ( 1.500000000000000222, -8.878505979408855953E-16, 3.499999999999999112 ) ) ;
#294 = ORIENTED_EDGE ( 'NONE', *, *, #340, .F. ) ;
#295 = CC_DESIGN_PERSON_AND_ORGANIZATION_ASSIGNMENT ( #173, #229, ( #458 ) ) ;
#296 = PLANE ( 'NONE',  #436 ) ;
#297 = CARTESIAN_POINT ( 'NONE',  ( 0.7499999999999995559, -0.2500000000000008882, -0.06231056256176729230 ) ) ;
#298 = VERTEX_POINT ( 'NONE', #126 ) ;
#299 = SHAPE_DEFINITION_REPRESENTATION ( #790, #196 ) ;
#300 = DIRECTION ( 'NONE',  ( -0.000000000000000000, -1.000000000000000000, -0.000000000000000000 ) ) ;
#301 = CIRCLE ( 'NONE', #681, 0.1000000000000000888 ) ;
#302 = EDGE_CURVE ( 'NONE', #213, #503, #61, .T. ) ;
#303 = DIRECTION ( 'NONE',  ( 1.000000000000000000, -0.000000000000000000, -0.000000000000000000 ) ) ;
#304 = ORIENTED_EDGE ( 'NONE', *, *, #201, .F. ) ;
#305 = CARTESIAN_POINT ( 'NONE',  ( 1.218936609374090541, -8.878505979408855953E-16, -1.525746437496366958 ) ) ;
#306 = CARTESIAN_POINT ( 'NONE',  ( 0.3780776406404417478, -8.878505979408855953E-16, -1.650000000000000799 ) ) ;
#307 = ORIENTED_EDGE ( 'NONE', *, *, #473, .T. ) ;
#308 = CARTESIAN_POINT ( 'NONE',  ( 0.6529857499854663239, -0.2500000000000008882, -0.03805700005813398429 ) ) ;
#309 = LINE ( 'NONE', #258, #209 ) ;
#310 = VERTEX_POINT ( 'NONE', #382 ) ;
#311 = ADVANCED_FACE ( 'NONE', ( #575 ), #53, .F. ) ;
#312 = CARTESIAN_POINT ( 'NONE',  ( 0.000000000000000000, -0.1250000000000008327, 3.075787401574802349 ) ) ;
#313 = LOCAL_TIME ( 16, 16, 32.00000000000000000, #212 ) ;
#314 = CARTESIAN_POINT ( 'NONE',  ( 1.500000000000000222, -0.1250000000000008327, 3.174212598425195431 ) ) ;
#315 = VECTOR ( 'NONE', #732, 39.37007874015748143 ) ;
#316 = AXIS2_PLACEMENT_3D ( 'NONE', #109, #56, #494 ) ;
#317 = ORIENTED_EDGE ( 'NONE', *, *, #601, .T. ) ;
#318 = DIRECTION ( 'NONE',  ( 0.000000000000000000, 0.000000000000000000, -1.000000000000000000 ) ) ;
#319 = LINE ( 'NONE', #440, #383 ) ;
#320 = VERTEX_POINT ( 'NONE', #823 ) ;
#321 = ORIENTED_EDGE ( 'NONE', *, *, #401, .T. ) ;
#322 = DIRECTION ( 'NONE',  ( 1.000000000000000000, -0.000000000000000000, -0.000000000000000000 ) ) ;
#323 = ORIENTED_EDGE ( 'NONE', *, *, #226, .F. ) ;
#324 = DIRECTION ( 'NONE',  ( -0.000000000000000000, -1.000000000000000000, -0.000000000000000000 ) ) ;
#325 = EDGE_LOOP ( 'NONE', ( #228, #713, #404, #193 ) ) ;
#326 = FACE_OUTER_BOUND ( 'NONE', #838, .T. ) ;
#327 = CARTESIAN_POINT ( 'NONE',  ( 1.500000000000000222, -8.878505979408855953E-16, -2.250000000000000444 ) ) ;
#328 = CLOSED_SHELL ( 'NONE', ( #149, #664, #816, #702, #493, #785, #129, #390, #655, #451, #413, #522, #518, #637, #812, #620, #729, #482, #26, #460, #742, #311, #11 ) ) ;
#329 = EDGE_CURVE ( 'NONE', #66, #833, #239, .T. ) ;
#330 = DIRECTION ( 'NONE',  ( 1.000000000000000000, -0.000000000000000000, -0.000000000000000000 ) ) ;
#331 = CIRCLE ( 'NONE', #287, 0.04921259842519689481 ) ;
#332 = VECTOR ( 'NONE', #130, 39.37007874015748143 ) ;
#333 = DIRECTION ( 'NONE',  ( 0.000000000000000000, -1.000000000000000000, 0.000000000000000000 ) ) ;
#334 = CARTESIAN_POINT ( 'NONE',  ( 0.6529857499854663239, -8.878505979408855953E-16, 1.288057000058131951 ) ) ;
#335 = LINE ( 'NONE', #454, #748 ) ;
#336 = LENGTH_MEASURE_WITH_UNIT ( LENGTH_MEASURE( 0.02539999999999999897 ), #411 );
#337 = DIMENSIONAL_EXPONENTS ( 1.000000000000000000, 0.000000000000000000, 0.000000000000000000, 0.000000000000000000, 0.000000000000000000, 0.000000000000000000, 0.000000000000000000 ) ;
#338 = VERTEX_POINT ( 'NONE', #491 ) ;
#339 = DIRECTION ( 'NONE',  ( -0.000000000000000000, -1.000000000000000000, -0.000000000000000000 ) ) ;
#340 = EDGE_CURVE ( 'NONE', #757, #355, #756, .T. ) ;
#341 = ORIENTED_EDGE ( 'NONE', *, *, #68, .T. ) ;
#342 = VECTOR ( 'NONE', #774, 39.37007874015748143 ) ;
#343 = AXIS2_PLACEMENT_3D ( 'NONE', #619, #46, #136 ) ;
#344 = DIRECTION ( 'NONE',  ( 0.000000000000000000, -1.000000000000000000, 0.000000000000000000 ) ) ;
#345 = PERSON ( 'UNSPECIFIED', 'UNSPECIFIED', 'UNSPECIFIED', ('UNSPECIFIED'), ('UNSPECIFIED'), ('UNSPECIFIED') ) ;
#346 = FACE_OUTER_BOUND ( 'NONE', #278, .T. ) ;
#347 = EDGE_CURVE ( 'NONE', #490, #814, #114, .T. ) ;
#348 = LINE ( 'NONE', #96, #421 ) ;
#349 = ORIENTED_EDGE ( 'NONE', *, *, #365, .F. ) ;
#350 = SECURITY_CLASSIFICATION_LEVEL ( 'unclassified' ) ;
#351 = DIRECTION ( 'NONE',  ( -0.2425356250363326915, 0.000000000000000000, 0.9701425001453318764 ) ) ;
#352 = CARTESIAN_POINT ( 'NONE',  ( 1.500000000000000222, -0.1250000000000008327, 3.174212598425195431 ) ) ;
#353 = EDGE_CURVE ( 'NONE', #442, #757, #607, .T. ) ;
#354 = VECTOR ( 'NONE', #443, 39.37007874015748854 ) ;
#355 = VERTEX_POINT ( 'NONE', #181 ) ;
#356 = LINE ( 'NONE', #361, #36 ) ;
#357 = VECTOR ( 'NONE', #508, 39.37007874015748854 ) ;
#358 = AXIS2_PLACEMENT_3D ( 'NONE', #598, #23, #273 ) ;
#359 = CARTESIAN_POINT ( 'NONE',  ( 1.500000000000000222, -0.1249999999999998751, -1.875000000000000444 ) ) ;
#360 = ORIENTED_EDGE ( 'NONE', *, *, #365, .T. ) ;
#361 = CARTESIAN_POINT ( 'NONE',  ( 1.218936609374090541, -0.2500000000000008882, -1.525746437496366958 ) ) ;
#362 = CARTESIAN_POINT ( 'NONE',  ( 0.7499999999999996669, -0.2500000000000008882, 1.312310562561765259 ) ) ;
#363 = ORIENTED_EDGE ( 'NONE', *, *, #275, .F. ) ;
#364 = CARTESIAN_POINT ( 'NONE',  ( 1.121922359359557531, -8.878505979408855953E-16, 2.799999999999998934 ) ) ;
#365 = EDGE_CURVE ( 'NONE', #171, #642, #698, .T. ) ;
#366 = LINE ( 'NONE', #502, #63 ) ;
#367 = ORIENTED_EDGE ( 'NONE', *, *, #189, .F. ) ;
#368 = LINE ( 'NONE', #372, #777 ) ;
#369 = CIRCLE ( 'NONE', #182, 0.1000000000000002970 ) ;
#370 = DIRECTION ( 'NONE',  ( 1.000000000000000000, -0.000000000000000000, -0.000000000000000000 ) ) ;
#371 = VERTEX_POINT ( 'NONE', #120 ) ;
#372 = CARTESIAN_POINT ( 'NONE',  ( 0.8470142500145327880, -8.878505979408855953E-16, 1.288057000058131951 ) ) ;
#373 = LINE ( 'NONE', #314, #151 ) ;
#374 = EDGE_CURVE ( 'NONE', #442, #145, #373, .T. ) ;
#375 = VERTEX_POINT ( 'NONE', #630 ) ;
#376 = EDGE_LOOP ( 'NONE', ( #423, #172, #117, #294 ) ) ;
#377 = DIRECTION ( 'NONE',  ( 1.000000000000000000, -0.000000000000000000, -0.000000000000000000 ) ) ;
#378 = VERTEX_POINT ( 'NONE', #57 ) ;
#379 = FACE_BOUND ( 'NONE', #769, .T. ) ;
#380 = EDGE_LOOP ( 'NONE', ( #727, #410, #825, #245 ) ) ;
#381 = LINE ( 'NONE', #452, #222 ) ;
#382 = CARTESIAN_POINT ( 'NONE',  ( 0.2810633906259079051, -8.878505979408855953E-16, 2.775746437496366070 ) ) ;
#383 = VECTOR ( 'NONE', #47, 39.37007874015748143 ) ;
#384 = ORIENTED_EDGE ( 'NONE', *, *, #610, .F. ) ;
#385 = EDGE_LOOP ( 'NONE', ( #363, #551, #388, #341 ) ) ;
#386 = FACE_OUTER_BOUND ( 'NONE', #470, .T. ) ;
#387 = CARTESIAN_POINT ( 'NONE',  ( 1.121922359359557309, -8.878505979408855953E-16, -1.649999999999999911 ) ) ;
#388 = ORIENTED_EDGE ( 'NONE', *, *, #214, .T. ) ;
#389 = CARTESIAN_POINT ( 'NONE',  ( 1.500000000000000222, -0.1249999999999998751, -1.825787401574803681 ) ) ;
#390 = ADVANCED_FACE ( 'NONE', ( #565, #379, #634 ), #541, .T. ) ;
#391 = CYLINDRICAL_SURFACE ( 'NONE', #538, 0.1000000000000000888 ) ;
#392 = EDGE_LOOP ( 'NONE', ( #614, #224, #259, #628 ) ) ;
#393 = CARTESIAN_POINT ( 'NONE',  ( 0.000000000000000000, -0.1249999999999998751, -1.875000000000000444 ) ) ;
#394 = CARTESIAN_POINT ( 'NONE',  ( 0.3780776406404414147, -8.878505979408855953E-16, 2.799999999999998934 ) ) ;
#395 = EDGE_LOOP ( 'NONE', ( #80, #672, #579, #635 ) ) ;
#396 = AXIS2_PLACEMENT_3D ( 'NONE', #227, #478, #468 ) ;
#397 = VECTOR ( 'NONE', #292, 39.37007874015748143 ) ;
#398 = APPROVAL_STATUS ( 'not_yet_approved' ) ;
#399 = APPLICATION_CONTEXT ( 'configuration controlled 3d designs of mechanical parts and assemblies' ) ;
#400 = EDGE_LOOP ( 'NONE', ( #31, #107, #509, #682 ) ) ;
#401 = EDGE_CURVE ( 'NONE', #809, #171, #301, .T. ) ;
#402 = ORIENTED_EDGE ( 'NONE', *, *, #15, .F. ) ;
#403 = PERSON_AND_ORGANIZATION ( #345, #651 ) ;
#404 = ORIENTED_EDGE ( 'NONE', *, *, #104, .F. ) ;
#405 = AXIS2_PLACEMENT_3D ( 'NONE', #362, #483, #602 ) ;
#406 =( CONVERSION_BASED_UNIT ( 'INCH', #336 ) LENGTH_UNIT ( ) NAMED_UNIT ( #337 ) );
#407 = CIRCLE ( 'NONE', #316, 0.1000000000000000194 ) ;
#408 = PLANE ( 'NONE',  #263 ) ;
#409 = DIRECTION ( 'NONE',  ( 1.000000000000000000, -0.000000000000000000, -0.000000000000000000 ) ) ;
#410 = ORIENTED_EDGE ( 'NONE', *, *, #766, .T. ) ;
#411 =( LENGTH_UNIT ( ) NAMED_UNIT ( * ) SI_UNIT ( $, .METRE. ) );
#412 = FACE_OUTER_BOUND ( 'NONE', #385, .T. ) ;
#413 = ADVANCED_FACE ( 'NONE', ( #644 ), #715, .F. ) ;
#414 = CARTESIAN_POINT ( 'NONE',  ( 0.7499999999999996669, -8.878505979408855953E-16, 1.312310562561765259 ) ) ;
#415 = VERTEX_POINT ( 'NONE', #782 ) ;
#416 = LINE ( 'NONE', #178, #836 ) ;
#417 = DIRECTION ( 'NONE',  ( 0.000000000000000000, 0.000000000000000000, -1.000000000000000000 ) ) ;
#418 = SECURITY_CLASSIFICATION ( '', '', #350 ) ;
#419 = ORIENTED_EDGE ( 'NONE', *, *, #68, .F. ) ;
#420 = DIRECTION ( 'NONE',  ( -0.2425356250363327471, 0.000000000000000000, -0.9701425001453318764 ) ) ;
#421 = VECTOR ( 'NONE', #27, 39.37007874015748854 ) ;
#422 = LINE ( 'NONE', #613, #34 ) ;
#423 = ORIENTED_EDGE ( 'NONE', *, *, #353, .F. ) ;
#424 = CALENDAR_DATE ( 2026, 20, 3 ) ;
#425 = EDGE_CURVE ( 'NONE', #10, #744, #786, .T. ) ;
#426 = FACE_OUTER_BOUND ( 'NONE', #376, .T. ) ;
#427 = CARTESIAN_POINT ( 'NONE',  ( 0.3780776406404417478, -0.2500000000000008882, -1.650000000000000799 ) ) ;
#428 = ORIENTED_EDGE ( 'NONE', *, *, #59, .F. ) ;
#429 = CARTESIAN_POINT ( 'NONE',  ( 1.500000000000000222, -0.1250000000000008327, 3.124999999999999112 ) ) ;
#430 = DIRECTION ( 'NONE',  ( 0.000000000000000000, 0.000000000000000000, 1.000000000000000000 ) ) ;
#431 = ORIENTED_EDGE ( 'NONE', *, *, #791, .T. ) ;
#432 = COORDINATED_UNIVERSAL_TIME_OFFSET ( 8, 0, .BEHIND. ) ;
#433 = AXIS2_PLACEMENT_3D ( 'NONE', #839, #333, #577 ) ;
#434 = DIRECTION ( 'NONE',  ( -0.2425356250363326915, 0.000000000000000000, 0.9701425001453318764 ) ) ;
#435 = AXIS2_PLACEMENT_3D ( 'NONE', #334, #95, #351 ) ;
#436 = AXIS2_PLACEMENT_3D ( 'NONE', #549, #174, #168 ) ;
#437 = DIRECTION ( 'NONE',  ( -0.000000000000000000, -1.000000000000000000, -0.000000000000000000 ) ) ;
#438 = EDGE_LOOP ( 'NONE', ( #58, #276, #419, #753, #703, #203, #479 ) ) ;
#439 = CARTESIAN_POINT ( 'NONE',  ( 0.8470142500145328990, -8.878505979408855953E-16, -0.03805700005813420633 ) ) ;
#440 = CARTESIAN_POINT ( 'NONE',  ( 0.7499999999999996669, -8.878505979408855953E-16, 1.212310562561765170 ) ) ;
#441 = ORIENTED_EDGE ( 'NONE', *, *, #510, .F. ) ;
#442 = VERTEX_POINT ( 'NONE', #587 ) ;
#443 = DIRECTION ( 'NONE',  ( 0.2425356250363327748, -0.000000000000000000, 0.9701425001453318764 ) ) ;
#444 = DIRECTION ( 'NONE',  ( -0.000000000000000000, -1.000000000000000000, -0.000000000000000000 ) ) ;
#445 = VERTEX_POINT ( 'NONE', #134 ) ;
#446 = CARTESIAN_POINT ( 'NONE',  ( 1.500000000000000222, -0.2500000000000008882, 3.499999999999999112 ) ) ;
#447 = CIRCLE ( 'NONE', #221, 0.09999999999999975575 ) ;
#448 = DIRECTION ( 'NONE',  ( -0.000000000000000000, -1.000000000000000000, -0.000000000000000000 ) ) ;
#449 = VECTOR ( 'NONE', #200, 39.37007874015748143 ) ;
#450 = ORIENTED_EDGE ( 'NONE', *, *, #92, .F. ) ;
#451 = ADVANCED_FACE ( 'NONE', ( #412 ), #738, .F. ) ;
#452 = CARTESIAN_POINT ( 'NONE',  ( 0.2810633906259079051, -8.878505979408855953E-16, 2.775746437496366070 ) ) ;
#453 = DIRECTION ( 'NONE',  ( -0.000000000000000000, 0.000000000000000000, -1.000000000000000000 ) ) ;
#454 = CARTESIAN_POINT ( 'NONE',  ( 0.2810633906259083492, -8.878505979408855953E-16, -1.525746437496366958 ) ) ;
#455 = CARTESIAN_POINT ( 'NONE',  ( 1.121922359359557531, -0.2500000000000008882, 2.899999999999999023 ) ) ;
#456 = CARTESIAN_POINT ( 'NONE',  ( 0.7499999999999996669, -8.878505979408855953E-16, 1.312310562561765259 ) ) ;
#457 = ORIENTED_EDGE ( 'NONE', *, *, #780, .T. ) ;
#458 = PRODUCT_DEFINITION_FORMATION_WITH_SPECIFIED_SOURCE ( 'ANY', '', #705, .NOT_KNOWN. ) ;
#459 = DIRECTION ( 'NONE',  ( -0.000000000000000000, -1.000000000000000000, -0.000000000000000000 ) ) ;
#460 = ADVANCED_FACE ( 'NONE', ( #807 ), #647, .F. ) ;
#461 = ORIENTED_EDGE ( 'NONE', *, *, #791, .F. ) ;
#462 = AXIS2_PLACEMENT_3D ( 'NONE', #554, #612, #98 ) ;
#463 = PLANE ( 'NONE',  #87 ) ;
#464 = CARTESIAN_POINT ( 'NONE',  ( 1.218936609374090541, -8.878505979408855953E-16, -1.525746437496366958 ) ) ;
#465 = CARTESIAN_POINT ( 'NONE',  ( 1.121922359359557309, -0.2500000000000008882, -1.649999999999999911 ) ) ;
#466 = VERTEX_POINT ( 'NONE', #582 ) ;
#467 = DATE_AND_TIME ( #14, #760 ) ;
#468 = DIRECTION ( 'NONE',  ( 1.000000000000000000, 0.000000000000000000, 0.000000000000000000 ) ) ;
#469 = CIRCLE ( 'NONE', #234, 0.04921259842519634664 ) ;
#470 = EDGE_LOOP ( 'NONE', ( #488, #162, #349, #783 ) ) ;
#471 = CARTESIAN_POINT ( 'NONE',  ( 0.7499999999999996669, -8.878505979408855953E-16, 1.312310562561765259 ) ) ;
#472 = VECTOR ( 'NONE', #7, 39.37007874015748143 ) ;
#473 = EDGE_CURVE ( 'NONE', #10, #530, #515, .T. ) ;
#474 = DIRECTION ( 'NONE',  ( 0.000000000000000000, -1.000000000000000000, 0.000000000000000000 ) ) ;
#475 = CARTESIAN_POINT ( 'NONE',  ( 0.000000000000000000, -0.1250000000000008327, 3.124999999999999112 ) ) ;
#476 = ORIENTED_EDGE ( 'NONE', *, *, #54, .F. ) ;
#477 = FACE_OUTER_BOUND ( 'NONE', #186, .T. ) ;
#478 = DIRECTION ( 'NONE',  ( -0.000000000000000000, 0.000000000000000000, 1.000000000000000000 ) ) ;
#479 = ORIENTED_EDGE ( 'NONE', *, *, #545, .F. ) ;
#480 = COORDINATED_UNIVERSAL_TIME_OFFSET ( 8, 0, .BEHIND. ) ;
#481 = DIRECTION ( 'NONE',  ( 0.000000000000000000, 0.000000000000000000, -1.000000000000000000 ) ) ;
#482 = ADVANCED_FACE ( 'NONE', ( #346 ), #391, .F. ) ;
#483 = DIRECTION ( 'NONE',  ( 0.000000000000000000, -1.000000000000000000, 0.000000000000000000 ) ) ;
#484 = ORIENTED_EDGE ( 'NONE', *, *, #675, .T. ) ;
#485 = DIRECTION ( 'NONE',  ( 0.000000000000000000, 0.000000000000000000, 1.000000000000000000 ) ) ;
#486 = VECTOR ( 'NONE', #303, 39.37007874015748143 ) ;
#487 = CARTESIAN_POINT ( 'NONE',  ( 1.500000000000000222, -0.1249999999999998751, -1.875000000000000444 ) ) ;
#488 = ORIENTED_EDGE ( 'NONE', *, *, #574, .T. ) ;
#489 = CARTESIAN_POINT ( 'NONE',  ( 1.218936609374090541, -8.878505979408855953E-16, -1.525746437496366958 ) ) ;
#490 = VERTEX_POINT ( 'NONE', #578 ) ;
#491 = CARTESIAN_POINT ( 'NONE',  ( 0.6529857499854663239, -0.2500000000000008882, -0.03805700005813398429 ) ) ;
#492 = EDGE_LOOP ( 'NONE', ( #560, #428 ) ) ;
#493 = ADVANCED_FACE ( 'NONE', ( #674 ), #408, .F. ) ;
#494 = DIRECTION ( 'NONE',  ( 0.000000000000000000, 0.000000000000000000, 1.000000000000000000 ) ) ;
#495 = CARTESIAN_POINT ( 'NONE',  ( 1.500000000000000222, -0.1249999999999998751, -1.924212598425196985 ) ) ;
#496 = APPLICATION_CONTEXT ( 'configuration controlled 3d designs of mechanical parts and assemblies' ) ;
#497 = VERTEX_POINT ( 'NONE', #72 ) ;
#498 = VECTOR ( 'NONE', #420, 39.37007874015748854 ) ;
#499 = DIRECTION ( 'NONE',  ( 1.469042086293733584E-15, 0.000000000000000000, -1.000000000000000000 ) ) ;
#500 = EDGE_CURVE ( 'NONE', #642, #490, #369, .T. ) ;
#501 = VECTOR ( 'NONE', #559, 39.37007874015748143 ) ;
#502 = CARTESIAN_POINT ( 'NONE',  ( 0.6529857499854663239, -8.878505979408855953E-16, -0.03805700005813398429 ) ) ;
#503 = VERTEX_POINT ( 'NONE', #604 ) ;
#504 = PLANE ( 'NONE',  #803 ) ;
#505 = DIRECTION ( 'NONE',  ( 1.000000000000000000, 0.000000000000000000, 1.469042086293733584E-15 ) ) ;
#506 = EDGE_LOOP ( 'NONE', ( #304, #547, #127, #699 ) ) ;
#507 = DIRECTION ( 'NONE',  ( 0.000000000000000000, 1.000000000000000000, 0.000000000000000000 ) ) ;
#508 = DIRECTION ( 'NONE',  ( 0.2425356250363327748, -0.000000000000000000, 0.9701425001453318764 ) ) ;
#509 = ORIENTED_EDGE ( 'NONE', *, *, #204, .F. ) ;
#510 = EDGE_CURVE ( 'NONE', #814, #833, #69, .T. ) ;
#511 = ORIENTED_EDGE ( 'NONE', *, *, #574, .F. ) ;
#512 = CARTESIAN_POINT ( 'NONE',  ( 0.3780776406404414147, -8.878505979408855953E-16, 2.899999999999999467 ) ) ;
#513 = VERTEX_POINT ( 'NONE', #32 ) ;
#514 = VECTOR ( 'NONE', #817, 39.37007874015748143 ) ;
#515 = LINE ( 'NONE', #712, #315 ) ;
#516 = AXIS2_PLACEMENT_3D ( 'NONE', #691, #696, #615 ) ;
#517 = EDGE_LOOP ( 'NONE', ( #176, #138, #84, #736 ) ) ;
#518 = ADVANCED_FACE ( 'NONE', ( #599 ), #520, .F. ) ;
#519 = FACE_OUTER_BOUND ( 'NONE', #400, .T. ) ;
#520 = PLANE ( 'NONE',  #78 ) ;
#521 = ORIENTED_EDGE ( 'NONE', *, *, #267, .F. ) ;
#522 = ADVANCED_FACE ( 'NONE', ( #281 ), #137, .F. ) ;
#523 = DIRECTION ( 'NONE',  ( -1.000000000000000000, 0.000000000000000000, -0.000000000000000000 ) ) ;
#524 = ORIENTED_EDGE ( 'NONE', *, *, #347, .T. ) ;
#525 = DATE_TIME_ROLE ( 'creation_date' ) ;
#526 = LOCAL_TIME ( 16, 16, 32.00000000000000000, #810 ) ;
#527 = ORIENTED_EDGE ( 'NONE', *, *, #661, .T. ) ;
#528 = VECTOR ( 'NONE', #261, 39.37007874015748143 ) ;
#529 = PERSON_AND_ORGANIZATION_ROLE ( 'design_owner' ) ;
#530 = VERTEX_POINT ( 'NONE', #536 ) ;
#531 = DESIGN_CONTEXT ( 'detailed design', #399, 'design' ) ;
#532 = CALENDAR_DATE ( 2026, 20, 3 ) ;
#533 = CARTESIAN_POINT ( 'NONE',  ( 0.2810633906259083492, -0.2500000000000008882, -1.525746437496366958 ) ) ;
#534 = EDGE_CURVE ( 'NONE', #543, #10, #800, .T. ) ;
#535 = PERSON_AND_ORGANIZATION ( #345, #651 ) ;
#536 = CARTESIAN_POINT ( 'NONE',  ( 1.500000000000000222, -8.878505979408855953E-16, 3.499999999999999112 ) ) ;
#537 = LINE ( 'NONE', #542, #100 ) ;
#538 = AXIS2_PLACEMENT_3D ( 'NONE', #150, #448, #156 ) ;
#539 = ORIENTED_EDGE ( 'NONE', *, *, #687, .F. ) ;
#540 = DATE_TIME_ROLE ( 'classification_date' ) ;
#541 = PLANE ( 'NONE',  #553 ) ;
#542 = CARTESIAN_POINT ( 'NONE',  ( 0.3780776406404417478, -8.878505979408855953E-16, -1.650000000000000799 ) ) ;
#543 = VERTEX_POINT ( 'NONE', #629 ) ;
#544 = CARTESIAN_POINT ( 'NONE',  ( 0.2810633906259083492, -8.878505979408855953E-16, -1.525746437496366958 ) ) ;
#545 = EDGE_CURVE ( 'NONE', #415, #694, #407, .T. ) ;
#546 = DIRECTION ( 'NONE',  ( 1.000000000000000000, -0.000000000000000000, -0.000000000000000000 ) ) ;
#547 = ORIENTED_EDGE ( 'NONE', *, *, #275, .T. ) ;
#548 = CC_DESIGN_PERSON_AND_ORGANIZATION_ASSIGNMENT ( #21, #277, ( #707 ) ) ;
#549 = CARTESIAN_POINT ( 'NONE',  ( 0.000000000000000000, 0.000000000000000000, 0.000000000000000000 ) ) ;
#550 = LINE ( 'NONE', #293, #514 ) ;
#551 = ORIENTED_EDGE ( 'NONE', *, *, #661, .F. ) ;
#552 = DATE_AND_TIME ( #177, #679 ) ;
#553 = AXIS2_PLACEMENT_3D ( 'NONE', #198, #670, #453 ) ;
#554 = CARTESIAN_POINT ( 'NONE',  ( 0.7499999999999996669, -0.2500000000000008882, 1.312310562561765259 ) ) ;
#555 = CIRCLE ( 'NONE', #462, 0.1000000000000000194 ) ;
#556 = CARTESIAN_POINT ( 'NONE',  ( 1.500000000000000222, -0.1250000000000008327, 3.124999999999999112 ) ) ;
#557 = ORIENTED_EDGE ( 'NONE', *, *, #401, .F. ) ;
#558 = CARTESIAN_POINT ( 'NONE',  ( 0.3780776406404417478, -8.878505979408855953E-16, -1.550000000000000044 ) ) ;
#559 = DIRECTION ( 'NONE',  ( 1.000000000000000000, 0.000000000000000000, 1.469042086293733584E-15 ) ) ;
#560 = ORIENTED_EDGE ( 'NONE', *, *, #119, .F. ) ;
#561 = EDGE_CURVE ( 'NONE', #594, #744, #416, .T. ) ;
#562 = ORIENTED_EDGE ( 'NONE', *, *, #632, .T. ) ;
#563 = CYLINDRICAL_SURFACE ( 'NONE', #139, 0.1000000000000002970 ) ;
#564 = ORIENTED_EDGE ( 'NONE', *, *, #718, .F. ) ;
#565 = FACE_BOUND ( 'NONE', #492, .T. ) ;
#566 = ORIENTED_EDGE ( 'NONE', *, *, #15, .T. ) ;
#567 = LOCAL_TIME ( 16, 16, 32.00000000000000000, #480 ) ;
#568 = LINE ( 'NONE', #389, #332 ) ;
#569 = VECTOR ( 'NONE', #813, 39.37007874015748143 ) ;
#570 = AXIS2_PLACEMENT_3D ( 'NONE', #429, #52, #822 ) ;
#571 = DIRECTION ( 'NONE',  ( 1.000000000000000000, -0.000000000000000000, -0.000000000000000000 ) ) ;
#572 = EDGE_LOOP ( 'NONE', ( #307, #775, #686, #37 ) ) ;
#573 = DIRECTION ( 'NONE',  ( 0.000000000000000000, 0.000000000000000000, -1.000000000000000000 ) ) ;
#574 = EDGE_CURVE ( 'NONE', #338, #103, #113, .T. ) ;
#575 = FACE_OUTER_BOUND ( 'NONE', #395, .T. ) ;
#576 = EDGE_LOOP ( 'NONE', ( #167, #740, #511, #450, #19, #603 ) ) ;
#577 = DIRECTION ( 'NONE',  ( 0.000000000000000000, -0.000000000000000000, -1.000000000000000000 ) ) ;
#578 = CARTESIAN_POINT ( 'NONE',  ( 0.3780776406404417478, -8.878505979408855953E-16, -1.650000000000000799 ) ) ;
#579 = ORIENTED_EDGE ( 'NONE', *, *, #340, .T. ) ;
#580 = PLANE ( 'NONE',  #433 ) ;
#581 = VECTOR ( 'NONE', #65, 39.37007874015748143 ) ;
#582 = CARTESIAN_POINT ( 'NONE',  ( 0.7499999999999996669, -0.2500000000000008882, 1.212310562561765170 ) ) ;
#583 = AXIS2_PLACEMENT_3D ( 'NONE', #650, #67, #573 ) ;
#584 = DIRECTION ( 'NONE',  ( 0.000000000000000000, 0.000000000000000000, -1.000000000000000000 ) ) ;
#585 = EDGE_CURVE ( 'NONE', #298, #16, #368, .T. ) ;
#586 = CYLINDRICAL_SURFACE ( 'NONE', #180, 0.1000000000000000194 ) ;
#587 = CARTESIAN_POINT ( 'NONE',  ( 0.000000000000000000, -0.1250000000000008327, 3.174212598425195875 ) ) ;
#588 = DIRECTION ( 'NONE',  ( -0.000000000000000000, -1.000000000000000000, -0.000000000000000000 ) ) ;
#589 = EDGE_CURVE ( 'NONE', #466, #16, #555, .T. ) ;
#590 = COORDINATED_UNIVERSAL_TIME_OFFSET ( 8, 0, .BEHIND. ) ;
#591 = PLANE ( 'NONE',  #141 ) ;
#592 = CC_DESIGN_DATE_AND_TIME_ASSIGNMENT ( #215, #525, ( #707 ) ) ;
#593 = CARTESIAN_POINT ( 'NONE',  ( 0.6529857499854663239, -0.2500000000000008882, 1.288057000058131951 ) ) ;
#594 = VERTEX_POINT ( 'NONE', #678 ) ;
#595 = CIRCLE ( 'NONE', #405, 0.1000000000000000194 ) ;
#596 = EDGE_CURVE ( 'NONE', #355, #145, #116, .T. ) ;
#597 = CARTESIAN_POINT ( 'NONE',  ( 0.6529857499854663239, -0.2500000000000008882, 1.288057000058131951 ) ) ;
#598 = CARTESIAN_POINT ( 'NONE',  ( 0.000000000000000000, 0.000000000000000000, 0.000000000000000000 ) ) ;
#599 = FACE_OUTER_BOUND ( 'NONE', #240, .T. ) ;
#600 = ORIENTED_EDGE ( 'NONE', *, *, #267, .T. ) ;
#601 = EDGE_CURVE ( 'NONE', #320, #445, #356, .T. ) ;
#602 = DIRECTION ( 'NONE',  ( 0.000000000000000000, 0.000000000000000000, 1.000000000000000000 ) ) ;
#603 = ORIENTED_EDGE ( 'NONE', *, *, #626, .F. ) ;
#604 = CARTESIAN_POINT ( 'NONE',  ( 1.500000000000000222, -0.1249999999999998751, -1.924212598425196763 ) ) ;
#605 = AXIS2_PLACEMENT_3D ( 'NONE', #755, #230, #481 ) ;
#606 = FACE_OUTER_BOUND ( 'NONE', #380, .T. ) ;
#607 = CIRCLE ( 'NONE', #77, 0.04921259842519689481 ) ;
#608 = EDGE_LOOP ( 'NONE', ( #317, #266, #384, #728 ) ) ;
#609 = ORIENTED_EDGE ( 'NONE', *, *, #28, .T. ) ;
#610 = EDGE_CURVE ( 'NONE', #631, #809, #624, .T. ) ;
#611 = AXIS2_PLACEMENT_3D ( 'NONE', #264, #499, #122 ) ;
#612 = DIRECTION ( 'NONE',  ( 0.000000000000000000, -1.000000000000000000, 0.000000000000000000 ) ) ;
#613 = CARTESIAN_POINT ( 'NONE',  ( 0.000000000000000000, -8.878505979408855953E-16, 3.499999999999999112 ) ) ;
#614 = ORIENTED_EDGE ( 'NONE', *, *, #189, .T. ) ;
#615 = DIRECTION ( 'NONE',  ( 0.000000000000000000, 0.000000000000000000, 1.000000000000000000 ) ) ;
#616 = DIRECTION ( 'NONE',  ( 0.000000000000000000, 0.000000000000000000, -1.000000000000000000 ) ) ;
#617 = ORIENTED_EDGE ( 'NONE', *, *, #201, .T. ) ;
#618 = CALENDAR_DATE ( 2026, 20, 3 ) ;
#619 = CARTESIAN_POINT ( 'NONE',  ( 1.500000000000000222, -0.1250000000000008327, 3.124999999999999112 ) ) ;
#620 = ADVANCED_FACE ( 'NONE', ( #751 ), #563, .F. ) ;
#621 = DIRECTION ( 'NONE',  ( 0.000000000000000000, 0.000000000000000000, 1.000000000000000000 ) ) ;
#622 = CC_DESIGN_DATE_AND_TIME_ASSIGNMENT ( #51, #540, ( #418 ) ) ;
#623 = EDGE_LOOP ( 'NONE', ( #211, #527, #617, #484, #256, #750, #609 ) ) ;
#624 = LINE ( 'NONE', #305, #248 ) ;
#625 = CIRCLE ( 'NONE', #723, 0.1000000000000000194 ) ;
#626 = EDGE_CURVE ( 'NONE', #833, #320, #832, .T. ) ;
#627 = LINE ( 'NONE', #188, #801 ) ;
#628 = ORIENTED_EDGE ( 'NONE', *, *, #42, .T. ) ;
#629 = CARTESIAN_POINT ( 'NONE',  ( 1.500000000000000222, -0.2500000000000008882, -2.250000000000000444 ) ) ;
#630 = CARTESIAN_POINT ( 'NONE',  ( 1.500000000000000222, -0.2500000000000008882, 3.499999999999999112 ) ) ;
#631 = VERTEX_POINT ( 'NONE', #489 ) ;
#632 = EDGE_CURVE ( 'NONE', #694, #94, #118, .T. ) ;
#633 = CARTESIAN_POINT ( 'NONE',  ( 1.218936609374090985, -8.878505979408855953E-16, 2.775746437496366070 ) ) ;
#634 = FACE_OUTER_BOUND ( 'NONE', #572, .T. ) ;
#635 = ORIENTED_EDGE ( 'NONE', *, *, #596, .T. ) ;
#636 = CC_DESIGN_APPROVAL ( #24, ( #418 ) ) ;
#637 = ADVANCED_FACE ( 'NONE', ( #477 ), #238, .F. ) ;
#638 = DIRECTION ( 'NONE',  ( 0.000000000000000000, 0.000000000000000000, -1.000000000000000000 ) ) ;
#639 = AXIS2_PLACEMENT_3D ( 'NONE', #4, #459, #12 ) ;
#640 = VERTEX_POINT ( 'NONE', #684 ) ;
#641 = LINE ( 'NONE', #185, #342 ) ;
#642 = VERTEX_POINT ( 'NONE', #544 ) ;
#643 = FACE_BOUND ( 'NONE', #438, .T. ) ;
#644 = FACE_OUTER_BOUND ( 'NONE', #325, .T. ) ;
#645 = ORIENTED_EDGE ( 'NONE', *, *, #119, .T. ) ;
#646 = CARTESIAN_POINT ( 'NONE',  ( 0.6529857499854663239, -8.878505979408855953E-16, 1.288057000058131951 ) ) ;
#647 = CYLINDRICAL_SURFACE ( 'NONE', #639, 0.09999999999999975575 ) ;
#648 = EDGE_CURVE ( 'NONE', #145, #355, #142, .T. ) ;
#649 = CARTESIAN_POINT ( 'NONE',  ( 1.500000000000000222, -0.1249999999999998751, -1.875000000000000444 ) ) ;
#650 = CARTESIAN_POINT ( 'NONE',  ( 0.3780776406404414147, -0.2500000000000008882, 2.799999999999998934 ) ) ;
#651 = ORGANIZATION ( 'UNSPECIFIED', 'UNSPECIFIED', '' ) ;
#652 = VECTOR ( 'NONE', #223, 39.37007874015748143 ) ;
#653 = CARTESIAN_POINT ( 'NONE',  ( 0.7499999999999995559, -8.878505979408855953E-16, -0.06231056256176729230 ) ) ;
#654 =( GEOMETRIC_REPRESENTATION_CONTEXT ( 3 ) GLOBAL_UNCERTAINTY_ASSIGNED_CONTEXT ( ( #20 ) ) GLOBAL_UNIT_ASSIGNED_CONTEXT ( ( #406, #146, #89 ) ) REPRESENTATION_CONTEXT ( 'NONE', 'WORKASPACE' ) );
#655 = ADVANCED_FACE ( 'NONE', ( #41, #746, #164 ), #296, .F. ) ;
#656 = ORIENTED_EDGE ( 'NONE', *, *, #561, .F. ) ;
#657 = CARTESIAN_POINT ( 'NONE',  ( 1.218936609374090985, -8.878505979408855953E-16, 2.775746437496366070 ) ) ;
#658 = CC_DESIGN_PERSON_AND_ORGANIZATION_ASSIGNMENT ( #695, #285, ( #458 ) ) ;
#659 = FACE_OUTER_BOUND ( 'NONE', #124, .T. ) ;
#660 = APPROVAL_ROLE ( '' ) ;
#661 = EDGE_CURVE ( 'NONE', #772, #44, #625, .T. ) ;
#662 = ORIENTED_EDGE ( 'NONE', *, *, #648, .F. ) ;
#663 = FACE_OUTER_BOUND ( 'NONE', #506, .T. ) ;
#664 = ADVANCED_FACE ( 'NONE', ( #426 ), #688, .F. ) ;
#665 = AXIS2_PLACEMENT_3D ( 'NONE', #556, #571, #837 ) ;
#666 = ORIENTED_EDGE ( 'NONE', *, *, #5, .T. ) ;
#667 = VECTOR ( 'NONE', #673, 39.37007874015748143 ) ;
#668 = APPLICATION_PROTOCOL_DEFINITION ( 'international standard', 'config_control_design', 1994, #496 ) ;
#669 = EDGE_CURVE ( 'NONE', #640, #144, #700, .T. ) ;
#670 = DIRECTION ( 'NONE',  ( 1.000000000000000000, 0.000000000000000000, -0.000000000000000000 ) ) ;
#671 = DIRECTION ( 'NONE',  ( 0.000000000000000000, 0.000000000000000000, -1.000000000000000000 ) ) ;
#672 = ORIENTED_EDGE ( 'NONE', *, *, #179, .F. ) ;
#673 = DIRECTION ( 'NONE',  ( -0.000000000000000000, -0.000000000000000000, -1.000000000000000000 ) ) ;
#674 = FACE_OUTER_BOUND ( 'NONE', #392, .T. ) ;
#675 = EDGE_CURVE ( 'NONE', #298, #112, #184, .T. ) ;
#676 = CARTESIAN_POINT ( 'NONE',  ( 0.7499999999999996669, -8.878505979408855953E-16, 1.212310562561765170 ) ) ;
#677 = ORIENTED_EDGE ( 'NONE', *, *, #179, .T. ) ;
#678 = CARTESIAN_POINT ( 'NONE',  ( 0.000000000000000000, -0.2500000000000008882, -2.250000000000000444 ) ) ;
#679 = LOCAL_TIME ( 16, 16, 32.00000000000000000, #432 ) ;
#680 = DIRECTION ( 'NONE',  ( 0.000000000000000000, 0.000000000000000000, -1.000000000000000000 ) ) ;
#681 = AXIS2_PLACEMENT_3D ( 'NONE', #653, #474, #220 ) ;
#682 = ORIENTED_EDGE ( 'NONE', *, *, #754, .T. ) ;
#683 = AXIS2_PLACEMENT_3D ( 'NONE', #393, #377, #638 ) ;
#684 = CARTESIAN_POINT ( 'NONE',  ( 1.121922359359557531, -8.878505979408855953E-16, 2.899999999999999023 ) ) ;
#685 = FACE_OUTER_BOUND ( 'NONE', #517, .T. ) ;
#686 = ORIENTED_EDGE ( 'NONE', *, *, #204, .T. ) ;
#687 = EDGE_CURVE ( 'NONE', #213, #497, #792, .T. ) ;
#688 = CYLINDRICAL_SURFACE ( 'NONE', #343, 0.04921259842519634664 ) ;
#689 = CARTESIAN_POINT ( 'NONE',  ( 1.121922359359557309, -8.878505979408855953E-16, -1.550000000000000044 ) ) ;
#690 = EDGE_LOOP ( 'NONE', ( #62, #457 ) ) ;
#691 = CARTESIAN_POINT ( 'NONE',  ( 1.121922359359557309, -0.2500000000000008882, -1.550000000000000044 ) ) ;
#692 = EDGE_CURVE ( 'NONE', #94, #371, #152, .T. ) ;
#693 = LINE ( 'NONE', #249, #357 ) ;
#694 = VERTEX_POINT ( 'NONE', #455 ) ;
#695 = PERSON_AND_ORGANIZATION ( #345, #651 ) ;
#696 = DIRECTION ( 'NONE',  ( 0.000000000000000000, -1.000000000000000000, 0.000000000000000000 ) ) ;
#697 = AXIS2_PLACEMENT_3D ( 'NONE', #776, #60, #709 ) ;
#698 = LINE ( 'NONE', #771, #834 ) ;
#699 = ORIENTED_EDGE ( 'NONE', *, *, #585, .F. ) ;
#700 = LINE ( 'NONE', #512, #472 ) ;
#701 = DIRECTION ( 'NONE',  ( -0.2425356250363327471, 0.000000000000000000, -0.9701425001453318764 ) ) ;
#702 = ADVANCED_FACE ( 'NONE', ( #71, #76, #246 ), #580, .F. ) ;
#703 = ORIENTED_EDGE ( 'NONE', *, *, #692, .F. ) ;
#704 = DIRECTION ( 'NONE',  ( -0.9701425001453319874, 0.000000000000000000, 0.2425356250363327748 ) ) ;
#705 = PRODUCT ( 'Chassis Back Wall Design 4', 'Chassis Back Wall Design 4', '', ( #140 ) ) ;
#706 = DIRECTION ( 'NONE',  ( 0.000000000000000000, -1.000000000000000000, 0.000000000000000000 ) ) ;
#707 = PRODUCT_DEFINITION ( 'UNKNOWN', '', #458, #531 ) ;
#708 = EDGE_LOOP ( 'NONE', ( #733, #820, #521, #798 ) ) ;
#709 = DIRECTION ( 'NONE',  ( 0.000000000000000000, 0.000000000000000000, -1.000000000000000000 ) ) ;
#710 = AXIS2_PLACEMENT_3D ( 'NONE', #831, #192, #430 ) ;
#711 = CIRCLE ( 'NONE', #115, 0.1000000000000000888 ) ;
#712 = CARTESIAN_POINT ( 'NONE',  ( 1.500000000000000222, -8.878505979408855953E-16, -2.250000000000000444 ) ) ;
#713 = ORIENTED_EDGE ( 'NONE', *, *, #214, .F. ) ;
#714 = LINE ( 'NONE', #446, #102 ) ;
#715 = PLANE ( 'NONE',  #435 ) ;
#716 = ORIENTED_EDGE ( 'NONE', *, *, #726, .T. ) ;
#717 = LINE ( 'NONE', #439, #195 ) ;
#718 = EDGE_CURVE ( 'NONE', #310, #371, #381, .T. ) ;
#719 = EDGE_CURVE ( 'NONE', #103, #66, #725, .T. ) ;
#720 = DIRECTION ( 'NONE',  ( 1.000000000000000000, 0.000000000000000000, -1.469042086293732992E-15 ) ) ;
#721 = LINE ( 'NONE', #83, #75 ) ;
#722 = CARTESIAN_POINT ( 'NONE',  ( 0.8470142500145328990, -8.878505979408855953E-16, -0.03805700005813420633 ) ) ;
#723 = AXIS2_PLACEMENT_3D ( 'NONE', #815, #233, #485 ) ;
#724 = CIRCLE ( 'NONE', #274, 0.04921259842519634664 ) ;
#725 = CIRCLE ( 'NONE', #697, 0.1000000000000002970 ) ;
#726 = EDGE_CURVE ( 'NONE', #809, #445, #717, .T. ) ;
#727 = ORIENTED_EDGE ( 'NONE', *, *, #780, .F. ) ;
#728 = ORIENTED_EDGE ( 'NONE', *, *, #242, .T. ) ;
#729 = ADVANCED_FACE ( 'NONE', ( #386 ), #835, .F. ) ;
#730 = ORIENTED_EDGE ( 'NONE', *, *, #329, .T. ) ;
#731 = APPROVAL_STATUS ( 'not_yet_approved' ) ;
#732 = DIRECTION ( 'NONE',  ( 0.000000000000000000, 0.000000000000000000, 1.000000000000000000 ) ) ;
#733 = ORIENTED_EDGE ( 'NONE', *, *, #626, .T. ) ;
#734 = CARTESIAN_POINT ( 'NONE',  ( 1.500000000000000222, -0.1249999999999998751, -1.875000000000000444 ) ) ;
#735 = AXIS2_PLACEMENT_3D ( 'NONE', #764, #704, #257 ) ;
#736 = ORIENTED_EDGE ( 'NONE', *, *, #806, .T. ) ;
#737 = LINE ( 'NONE', #155, #667 ) ;
#738 = CYLINDRICAL_SURFACE ( 'NONE', #789, 0.1000000000000000194 ) ;
#739 = DIRECTION ( 'NONE',  ( 0.000000000000000000, -1.000000000000000000, 0.000000000000000000 ) ) ;
#740 = ORIENTED_EDGE ( 'NONE', *, *, #719, .F. ) ;
#741 = DIRECTION ( 'NONE',  ( 0.000000000000000000, 0.000000000000000000, -1.000000000000000000 ) ) ;
#742 = ADVANCED_FACE ( 'NONE', ( #326 ), #830, .F. ) ;
#743 = CARTESIAN_POINT ( 'NONE',  ( 0.3780776406404414147, -8.878505979408855953E-16, 2.899999999999999467 ) ) ;
#744 = VERTEX_POINT ( 'NONE', #197 ) ;
#745 = PERSON_AND_ORGANIZATION_ROLE ( 'classification_officer' ) ;
#746 = FACE_BOUND ( 'NONE', #787, .T. ) ;
#747 = DIRECTION ( 'NONE',  ( 0.9701425001453319874, -0.000000000000000000, 0.2425356250363327193 ) ) ;
#748 = VECTOR ( 'NONE', #588, 39.37007874015748143 ) ;
#749 = AXIS2_PLACEMENT_3D ( 'NONE', #414, #35, #290 ) ;
#750 = ORIENTED_EDGE ( 'NONE', *, *, #669, .T. ) ;
#751 = FACE_OUTER_BOUND ( 'NONE', #824, .T. ) ;
#752 = DIRECTION ( 'NONE',  ( 0.2425356250363326915, -0.000000000000000000, -0.9701425001453318764 ) ) ;
#753 = ORIENTED_EDGE ( 'NONE', *, *, #86, .F. ) ;
#754 = EDGE_CURVE ( 'NONE', #375, #513, #714, .T. ) ;
#755 = CARTESIAN_POINT ( 'NONE',  ( 1.500000000000000222, -0.1250000000000008327, 3.124999999999999112 ) ) ;
#756 = LINE ( 'NONE', #175, #85 ) ;
#757 = VERTEX_POINT ( 'NONE', #312 ) ;
#758 = DIRECTION ( 'NONE',  ( -0.000000000000000000, 1.000000000000000000, -0.000000000000000000 ) ) ;
#759 = DIRECTION ( 'NONE',  ( 0.000000000000000000, 0.000000000000000000, -1.000000000000000000 ) ) ;
#760 = LOCAL_TIME ( 16, 16, 32.00000000000000000, #590 ) ;
#761 = ORIENTED_EDGE ( 'NONE', *, *, #473, .F. ) ;
#762 = AXIS2_PLACEMENT_3D ( 'NONE', #649, #330, #584 ) ;
#763 = MANIFOLD_SOLID_BREP ( 'M3x0.5 Tapped Hole1', #328 ) ;
#764 = CARTESIAN_POINT ( 'NONE',  ( 0.6529857499854663239, -8.878505979408855953E-16, -0.03805700005813398429 ) ) ;
#765 = APPROVAL_PERSON_ORGANIZATION ( #535, #804, #660 ) ;
#766 = EDGE_CURVE ( 'NONE', #497, #55, #568, .T. ) ;
#767 = ORIENTED_EDGE ( 'NONE', *, *, #692, .T. ) ;
#768 = CARTESIAN_POINT ( 'NONE',  ( 1.500000000000000222, -0.2500000000000008882, -2.250000000000000444 ) ) ;
#769 = EDGE_LOOP ( 'NONE', ( #284, #662 ) ) ;
#770 = CARTESIAN_POINT ( 'NONE',  ( 1.500000000000000222, -0.2500000000000008882, -2.250000000000000444 ) ) ;
#771 = CARTESIAN_POINT ( 'NONE',  ( 0.6529857499854663239, -8.878505979408855953E-16, -0.03805700005813398429 ) ) ;
#772 = VERTEX_POINT ( 'NONE', #646 ) ;
#773 = LINE ( 'NONE', #191, #74 ) ;
#774 = DIRECTION ( 'NONE',  ( -0.000000000000000000, -1.000000000000000000, -0.000000000000000000 ) ) ;
#775 = ORIENTED_EDGE ( 'NONE', *, *, #254, .T. ) ;
#776 = CARTESIAN_POINT ( 'NONE',  ( 0.3780776406404417478, -0.2500000000000008882, -1.550000000000000044 ) ) ;
#777 = VECTOR ( 'NONE', #300, 39.37007874015748143 ) ;
#778 = CARTESIAN_POINT ( 'NONE',  ( 1.500000000000000222, -8.878505979408855953E-16, 3.499999999999999112 ) ) ;
#779 = CYLINDRICAL_SURFACE ( 'NONE', #762, 0.04921259842519662420 ) ;
#780 = EDGE_CURVE ( 'NONE', #497, #213, #210, .T. ) ;
#781 = DIRECTION ( 'NONE',  ( 0.000000000000000000, -0.000000000000000000, 1.000000000000000000 ) ) ;
#782 = CARTESIAN_POINT ( 'NONE',  ( 1.218936609374090985, -0.2500000000000008882, 2.775746437496366070 ) ) ;
#783 = ORIENTED_EDGE ( 'NONE', *, *, #226, .T. ) ;
#784 = DIRECTION ( 'NONE',  ( 0.000000000000000000, 0.000000000000000000, -1.000000000000000000 ) ) ;
#785 = ADVANCED_FACE ( 'NONE', ( #253, #643, #519 ), #504, .F. ) ;
#786 = LINE ( 'NONE', #327, #528 ) ;
#787 = EDGE_LOOP ( 'NONE', ( #677, #291 ) ) ;
#788 = CC_DESIGN_APPROVAL ( #270, ( #458 ) ) ;
#789 = AXIS2_PLACEMENT_3D ( 'NONE', #456, #286, #205 ) ;
#790 = PRODUCT_DEFINITION_SHAPE ( 'NONE', 'NONE',  #707 ) ;
#791 = EDGE_CURVE ( 'NONE', #744, #378, #187, .T. ) ;
#792 = CIRCLE ( 'NONE', #683, 0.04921259842519662420 ) ;
#793 = CARTESIAN_POINT ( 'NONE',  ( 0.8470142500145324549, -0.2500000000000008882, 1.288057000058131729 ) ) ;
#794 = APPLICATION_PROTOCOL_DEFINITION ( 'international standard', 'config_control_design', 1994, #399 ) ;
#795 = ORIENTED_EDGE ( 'NONE', *, *, #610, .T. ) ;
#796 = DIRECTION ( 'NONE',  ( -1.000000000000000000, -0.000000000000000000, -0.000000000000000000 ) ) ;
#797 = DIRECTION ( 'NONE',  ( 1.000000000000000000, -0.000000000000000000, -0.000000000000000000 ) ) ;
#798 = ORIENTED_EDGE ( 'NONE', *, *, #510, .T. ) ;
#799 = DIRECTION ( 'NONE',  ( 0.9701425001453319874, 0.000000000000000000, -0.2425356250363328026 ) ) ;
#800 = LINE ( 'NONE', #105, #49 ) ;
#801 = VECTOR ( 'NONE', #437, 39.37007874015748143 ) ;
#802 = LINE ( 'NONE', #43, #652 ) ;
#803 = AXIS2_PLACEMENT_3D ( 'NONE', #770, #507, #781 ) ;
#804 = APPROVAL ( #398, 'UNSPECIFIED' ) ;
#805 = ORIENTED_EDGE ( 'NONE', *, *, #81, .F. ) ;
#806 = EDGE_CURVE ( 'NONE', #543, #594, #773, .T. ) ;
#807 = FACE_OUTER_BOUND ( 'NONE', #708, .T. ) ;
#808 = DIRECTION ( 'NONE',  ( 0.000000000000000000, 0.000000000000000000, -1.000000000000000000 ) ) ;
#809 = VERTEX_POINT ( 'NONE', #722 ) ;
#810 = COORDINATED_UNIVERSAL_TIME_OFFSET ( 8, 0, .BEHIND. ) ;
#811 = DIRECTION ( 'NONE',  ( -0.000000000000000000, 1.000000000000000000, -0.000000000000000000 ) ) ;
#812 = ADVANCED_FACE ( 'NONE', ( #219 ), #463, .F. ) ;
#813 = DIRECTION ( 'NONE',  ( -0.000000000000000000, -1.000000000000000000, -0.000000000000000000 ) ) ;
#814 = VERTEX_POINT ( 'NONE', #208 ) ;
#815 = CARTESIAN_POINT ( 'NONE',  ( 0.7499999999999996669, -8.878505979408855953E-16, 1.312310562561765259 ) ) ;
#816 = ADVANCED_FACE ( 'NONE', ( #663 ), #586, .F. ) ;
#817 = DIRECTION ( 'NONE',  ( -1.000000000000000000, -0.000000000000000000, -0.000000000000000000 ) ) ;
#818 = VECTOR ( 'NONE', #505, 39.37007874015748143 ) ;
#819 = AXIS2_PLACEMENT_3D ( 'NONE', #394, #79, #268 ) ;
#820 = ORIENTED_EDGE ( 'NONE', *, *, #242, .F. ) ;
#821 = PERSON_AND_ORGANIZATION ( #345, #651 ) ;
#822 = DIRECTION ( 'NONE',  ( 0.000000000000000000, 0.000000000000000000, -1.000000000000000000 ) ) ;
#823 = CARTESIAN_POINT ( 'NONE',  ( 1.218936609374090541, -0.2500000000000008882, -1.525746437496366958 ) ) ;
#824 = EDGE_LOOP ( 'NONE', ( #232, #476, #2, #666 ) ) ;
#825 = ORIENTED_EDGE ( 'NONE', *, *, #59, .T. ) ;
#826 = DIRECTION ( 'NONE',  ( -0.000000000000000000, -1.000000000000000000, -0.000000000000000000 ) ) ;
#827 = CARTESIAN_POINT ( 'NONE',  ( 0.000000000000000000, -0.1250000000000008327, 3.124999999999999112 ) ) ;
#828 = VERTEX_POINT ( 'NONE', #593 ) ;
#829 = EDGE_CURVE ( 'NONE', #513, #594, #737, .T. ) ;
#830 = PLANE ( 'NONE',  #611 ) ;
#831 = CARTESIAN_POINT ( 'NONE',  ( 1.121922359359557531, -8.878505979408855953E-16, 2.799999999999998934 ) ) ;
#832 = CIRCLE ( 'NONE', #516, 0.09999999999999975575 ) ;
#833 = VERTEX_POINT ( 'NONE', #465 ) ;
#834 = VECTOR ( 'NONE', #701, 39.37007874015748854 ) ;
#835 = PLANE ( 'NONE',  #735 ) ;
#836 = VECTOR ( 'NONE', #811, 39.37007874015748143 ) ;
#837 = DIRECTION ( 'NONE',  ( 0.000000000000000000, 0.000000000000000000, -1.000000000000000000 ) ) ;
#838 = EDGE_LOOP ( 'NONE', ( #730, #441, #91, #236 ) ) ;
#839 = CARTESIAN_POINT ( 'NONE',  ( 1.500000000000000222, -8.878505979408855953E-16, -2.250000000000000444 ) ) ;
ENDSEC;
END-ISO-10303-21;
