ISO-10303-21;
HEADER;
FILE_DESCRIPTION (( 'STEP AP203' ),
    '1' );
FILE_NAME ('Weapon Spinner.STEP',
    '2026-03-20T23:29:34',
    ( '' ),
    ( '' ),
    'SwSTEP 2.0',
    'SolidWorks 2025',
    '' );
FILE_SCHEMA (( 'CONFIG_CONTROL_DESIGN' ));
ENDSEC;

DATA;
#1 = CARTESIAN_POINT ( 'NONE',  ( 0.2890098048640719619, 0.5970154467913388885, 0.2500000000000000000 ) ) ;
#2 = CARTESIAN_POINT ( 'NONE',  ( 0.2880388386486180119, 0.6068212535482480074, 0.000000000000000000 ) ) ;
#3 = VERTEX_POINT ( 'NONE', #814 ) ;
#4 = DIRECTION ( 'NONE',  ( 1.000000000000000000, 0.000000000000000000, 0.000000000000000000 ) ) ;
#5 = ORIENTED_EDGE ( 'NONE', *, *, #64, .T. ) ;
#6 = CARTESIAN_POINT ( 'NONE',  ( 1.348031496062992440, -1.893700787401574992, 0.2500000000000000000 ) ) ;
#7 = EDGE_CURVE ( 'NONE', #891, #489, #595, .T. ) ;
#8 = ADVANCED_BREP_SHAPE_REPRESENTATION ( 'Weapon Spinner', ( #117, #460 ), #811 ) ;
#9 = VERTEX_POINT ( 'NONE', #106 ) ;
#10 = EDGE_CURVE ( 'NONE', #862, #88, #372, .T. ) ;
#11 = LINE ( 'NONE', #729, #192 ) ;
#12 = EDGE_LOOP ( 'NONE', ( #752, #280, #813, #42 ) ) ;
#13 = CLOSED_SHELL ( 'NONE', ( #487, #396, #298, #238, #718, #806, #999, #822, #586, #670, #534, #735, #330, #199, #640, #133, #625, #1016, #643, #771, #326, #750, #85, #870, #846, #926, #436, #189 ) ) ;
#14 = AXIS2_PLACEMENT_3D ( 'NONE', #322, #890, #404 ) ;
#15 = DIRECTION ( 'NONE',  ( -0.000000000000000000, -0.000000000000000000, -1.000000000000000000 ) ) ;
#16 = AXIS2_PLACEMENT_3D ( 'NONE', #915, #353, #899 ) ;
#17 = LINE ( 'NONE', #573, #561 ) ;
#18 = ORIENTED_EDGE ( 'NONE', *, *, #859, .T. ) ;
#19 = FACE_OUTER_BOUND ( 'NONE', #546, .T. ) ;
#20 = EDGE_LOOP ( 'NONE', ( #821, #99, #108, #734 ) ) ;
#21 = DIRECTION ( 'NONE',  ( -0.000000000000000000, -0.000000000000000000, -1.000000000000000000 ) ) ;
#22 = LINE ( 'NONE', #206, #763 ) ;
#23 = VERTEX_POINT ( 'NONE', #585 ) ;
#24 = EDGE_CURVE ( 'NONE', #171, #473, #514, .T. ) ;
#25 = CARTESIAN_POINT ( 'NONE',  ( 0.2880388386486180119, 0.6068212535482480074, 0.2500000000000000000 ) ) ;
#26 = DIRECTION ( 'NONE',  ( 0.000000000000000000, 0.000000000000000000, 1.000000000000000000 ) ) ;
#27 = ORIENTED_EDGE ( 'NONE', *, *, #518, .F. ) ;
#28 = EDGE_CURVE ( 'NONE', #3, #181, #270, .T. ) ;
#29 = AXIS2_PLACEMENT_3D ( 'NONE', #541, #929, #712 ) ;
#30 = LINE ( 'NONE', #519, #477 ) ;
#31 = DIRECTION ( 'NONE',  ( -1.000000000000000000, 0.000000000000000000, 0.000000000000000000 ) ) ;
#32 = CARTESIAN_POINT ( 'NONE',  ( -0.04902903378454584460, -1.801870277868608650, 0.000000000000000000 ) ) ;
#33 = EDGE_LOOP ( 'NONE', ( #762, #537, #169, #320 ) ) ;
#34 = DIRECTION ( 'NONE',  ( -0.000000000000000000, -0.000000000000000000, -1.000000000000000000 ) ) ;
#35 = CARTESIAN_POINT ( 'NONE',  ( -0.04902903378454628869, 1.801870277868608650, 0.000000000000000000 ) ) ;
#36 = FACE_BOUND ( 'NONE', #256, .T. ) ;
#37 = VERTEX_POINT ( 'NONE', #25 ) ;
#38 = CYLINDRICAL_SURFACE ( 'NONE', #272, 0.04999999999999994726 ) ;
#39 = CARTESIAN_POINT ( 'NONE',  ( 2.169665541973060070E-16, -1.792064471111699309, 0.2500000000000000000 ) ) ;
#40 = CARTESIAN_POINT ( 'NONE',  ( 0.2890098048640719619, 0.5970154467913388885, 0.000000000000000000 ) ) ;
#41 = EDGE_CURVE ( 'NONE', #891, #798, #249, .T. ) ;
#42 = ORIENTED_EDGE ( 'NONE', *, *, #115, .T. ) ;
#43 = DIRECTION ( 'NONE',  ( -8.957264075611739628E-17, 1.000000000000000000, 0.000000000000000000 ) ) ;
#44 = AXIS2_PLACEMENT_3D ( 'NONE', #264, #744, #525 ) ;
#45 = DIRECTION ( 'NONE',  ( -0.000000000000000000, -0.000000000000000000, 1.000000000000000000 ) ) ;
#46 = LINE ( 'NONE', #113, #528 ) ;
#47 = ORIENTED_EDGE ( 'NONE', *, *, #971, .T. ) ;
#48 = LINE ( 'NONE', #666, #983 ) ;
#49 = CYLINDRICAL_SURFACE ( 'NONE', #425, 0.04999999999999994726 ) ;
#50 = DIRECTION ( 'NONE',  ( 0.000000000000000000, 0.000000000000000000, 1.000000000000000000 ) ) ;
#51 = ORIENTED_EDGE ( 'NONE', *, *, #715, .T. ) ;
#52 = LINE ( 'NONE', #278, #94 ) ;
#53 = ORIENTED_EDGE ( 'NONE', *, *, #261, .T. ) ;
#54 = EDGE_CURVE ( 'NONE', #227, #190, #818, .T. ) ;
#55 = DIRECTION ( 'NONE',  ( 0.000000000000000000, 0.000000000000000000, 1.000000000000000000 ) ) ;
#56 = AXIS2_PLACEMENT_3D ( 'NONE', #769, #385, #530 ) ;
#57 = ORIENTED_EDGE ( 'NONE', *, *, #518, .T. ) ;
#58 = CIRCLE ( 'NONE', #708, 0.05905511999999998873 ) ;
#59 = DIRECTION ( 'NONE',  ( -0.000000000000000000, -0.000000000000000000, 1.000000000000000000 ) ) ;
#60 = MECHANICAL_CONTEXT ( 'NONE', #302, 'mechanical' ) ;
#61 = ORIENTED_EDGE ( 'NONE', *, *, #193, .T. ) ;
#62 = DIRECTION ( 'NONE',  ( -0.1961161351381838225, -0.9805806756909202226, 0.000000000000000000 ) ) ;
#63 = DIRECTION ( 'NONE',  ( -0.000000000000000000, -0.000000000000000000, 1.000000000000000000 ) ) ;
#64 = EDGE_CURVE ( 'NONE', #900, #756, #209, .T. ) ;
#65 = ORIENTED_EDGE ( 'NONE', *, *, #193, .F. ) ;
#66 = EDGE_CURVE ( 'NONE', #88, #329, #286, .T. ) ;
#67 = CARTESIAN_POINT ( 'NONE',  ( 0.2390098048640721673, -0.5970154467913388885, 0.000000000000000000 ) ) ;
#68 = EDGE_LOOP ( 'NONE', ( #5, #440, #130, #429 ) ) ;
#69 = CARTESIAN_POINT ( 'NONE',  ( -0.2390098048640720285, -0.5470154467913388441, 0.2500000000000000000 ) ) ;
#70 =( NAMED_UNIT ( * ) SI_UNIT ( $, .STERADIAN. ) SOLID_ANGLE_UNIT ( ) );
#71 = EDGE_CURVE ( 'NONE', #816, #23, #196, .T. ) ;
#72 = DIRECTION ( 'NONE',  ( -0.000000000000000000, -0.000000000000000000, -1.000000000000000000 ) ) ;
#73 = ORIENTED_EDGE ( 'NONE', *, *, #229, .T. ) ;
#74 = AXIS2_PLACEMENT_3D ( 'NONE', #481, #559, #406 ) ;
#75 = DIRECTION ( 'NONE',  ( -0.000000000000000000, -0.000000000000000000, 1.000000000000000000 ) ) ;
#76 = VERTEX_POINT ( 'NONE', #343 ) ;
#77 = AXIS2_PLACEMENT_3D ( 'NONE', #344, #663, #119 ) ;
#78 = CARTESIAN_POINT ( 'NONE',  ( -0.05905511999999998873, -0.4249999999999999889, 0.000000000000000000 ) ) ;
#79 = VERTEX_POINT ( 'NONE', #754 ) ;
#80 = CARTESIAN_POINT ( 'NONE',  ( -0.2390098048640721673, 0.5470154467913389551, 0.2500000000000000000 ) ) ;
#81 = ORIENTED_EDGE ( 'NONE', *, *, #101, .F. ) ;
#82 = EDGE_CURVE ( 'NONE', #207, #1020, #898, .T. ) ;
#83 = APPROVAL_DATE_TIME ( #940, #944 ) ;
#84 = CARTESIAN_POINT ( 'NONE',  ( 0.000000000000000000, 0.4249999999999999889, 0.000000000000000000 ) ) ;
#85 = ADVANCED_FACE ( 'NONE', ( #422 ), #267, .F. ) ;
#86 = ORIENTED_EDGE ( 'NONE', *, *, #779, .T. ) ;
#87 = CARTESIAN_POINT ( 'NONE',  ( 0.2390098048640720285, 0.5970154467913388885, 0.000000000000000000 ) ) ;
#88 = VERTEX_POINT ( 'NONE', #118 ) ;
#89 = DIRECTION ( 'NONE',  ( 0.9805806756909202226, 0.1961161351381841000, 0.000000000000000000 ) ) ;
#90 = ORIENTED_EDGE ( 'NONE', *, *, #896, .T. ) ;
#91 = CYLINDRICAL_SURFACE ( 'NONE', #14, 0.7480314960629922405 ) ;
#92 = EDGE_LOOP ( 'NONE', ( #114, #994, #832, #667 ) ) ;
#93 = VECTOR ( 'NONE', #889, 39.37007874015748143 ) ;
#94 = VECTOR ( 'NONE', #922, 39.37007874015748143 ) ;
#95 = CIRCLE ( 'NONE', #494, 0.2559055099999999472 ) ;
#96 = LOCAL_TIME ( 16, 29, 34.00000000000000000, #615 ) ;
#97 = VERTEX_POINT ( 'NONE', #348 ) ;
#98 = DIRECTION ( 'NONE',  ( -0.000000000000000000, -0.000000000000000000, 1.000000000000000000 ) ) ;
#99 = ORIENTED_EDGE ( 'NONE', *, *, #41, .T. ) ;
#100 = EDGE_CURVE ( 'NONE', #260, #207, #642, .T. ) ;
#101 = EDGE_CURVE ( 'NONE', #79, #703, #155, .T. ) ;
#102 = CARTESIAN_POINT ( 'NONE',  ( 0.2390098048640720285, 0.5470154467913389551, 0.000000000000000000 ) ) ;
#103 = DIRECTION ( 'NONE',  ( 0.000000000000000000, 0.000000000000000000, 1.000000000000000000 ) ) ;
#104 = ORIENTED_EDGE ( 'NONE', *, *, #517, .T. ) ;
#105 = CARTESIAN_POINT ( 'NONE',  ( -0.6000000000000001998, -1.893700787401574992, 0.000000000000000000 ) ) ;
#106 = CARTESIAN_POINT ( 'NONE',  ( -0.2390098048640720285, -0.5470154467913388441, 0.000000000000000000 ) ) ;
#107 = CYLINDRICAL_SURFACE ( 'NONE', #357, 1.334989399727346981 ) ;
#108 = ORIENTED_EDGE ( 'NONE', *, *, #911, .T. ) ;
#109 = AXIS2_PLACEMENT_3D ( 'NONE', #696, #622, #631 ) ;
#110 = AXIS2_PLACEMENT_3D ( 'NONE', #182, #833, #523 ) ;
#111 = CYLINDRICAL_SURFACE ( 'NONE', #110, 0.05000000000000007216 ) ;
#112 = DIRECTION ( 'NONE',  ( 1.000000000000000000, -1.428732178590905489E-16, 0.000000000000000000 ) ) ;
#113 = CARTESIAN_POINT ( 'NONE',  ( 0.6000000000000001998, -1.893700787401574992, 0.2500000000000000000 ) ) ;
#114 = ORIENTED_EDGE ( 'NONE', *, *, #795, .F. ) ;
#115 = EDGE_CURVE ( 'NONE', #23, #181, #183, .T. ) ;
#116 = CARTESIAN_POINT ( 'NONE',  ( 0.2880388386486181784, -0.6068212535482478964, 0.000000000000000000 ) ) ;
#117 = MANIFOLD_SOLID_BREP ( 'Cut-Extrude2', #13 ) ;
#118 = CARTESIAN_POINT ( 'NONE',  ( 0.2890098048640720729, -0.5970154467913388885, 0.000000000000000000 ) ) ;
#119 = DIRECTION ( 'NONE',  ( 1.000000000000000000, 0.000000000000000000, 0.000000000000000000 ) ) ;
#120 = EDGE_LOOP ( 'NONE', ( #654, #950 ) ) ;
#121 = LINE ( 'NONE', #105, #244 ) ;
#122 = DIRECTION ( 'NONE',  ( 1.000000000000000000, 0.000000000000000000, 0.000000000000000000 ) ) ;
#123 = FACE_OUTER_BOUND ( 'NONE', #1022, .T. ) ;
#124 = ORIENTED_EDGE ( 'NONE', *, *, #958, .F. ) ;
#125 = VECTOR ( 'NONE', #59, 39.37007874015748143 ) ;
#126 = DIRECTION ( 'NONE',  ( 1.000000000000000000, 0.000000000000000000, 0.000000000000000000 ) ) ;
#127 = CIRCLE ( 'NONE', #614, 0.04999999999999994726 ) ;
#128 = DIRECTION ( 'NONE',  ( -0.000000000000000000, -0.000000000000000000, 1.000000000000000000 ) ) ;
#129 = DIRECTION ( 'NONE',  ( -0.000000000000000000, -0.000000000000000000, 1.000000000000000000 ) ) ;
#130 = ORIENTED_EDGE ( 'NONE', *, *, #684, .F. ) ;
#131 = EDGE_CURVE ( 'NONE', #175, #676, #542, .T. ) ;
#132 = LINE ( 'NONE', #917, #656 ) ;
#133 = ADVANCED_FACE ( 'NONE', ( #662 ), #973, .F. ) ;
#134 = DIRECTION ( 'NONE',  ( 1.000000000000000000, 0.000000000000000000, 0.000000000000000000 ) ) ;
#135 = ORIENTED_EDGE ( 'NONE', *, *, #208, .T. ) ;
#136 = APPROVAL_ROLE ( '' ) ;
#137 = VERTEX_POINT ( 'NONE', #851 ) ;
#138 = DIRECTION ( 'NONE',  ( 0.000000000000000000, 0.000000000000000000, 1.000000000000000000 ) ) ;
#139 = AXIS2_PLACEMENT_3D ( 'NONE', #960, #885, #882 ) ;
#140 = ORIENTED_EDGE ( 'NONE', *, *, #698, .F. ) ;
#141 = PERSON ( 'UNSPECIFIED', 'UNSPECIFIED', 'UNSPECIFIED', ('UNSPECIFIED'), ('UNSPECIFIED'), ('UNSPECIFIED') ) ;
#142 = AXIS2_PLACEMENT_3D ( 'NONE', #721, #336, #894 ) ;
#143 = LINE ( 'NONE', #383, #389 ) ;
#144 = EDGE_CURVE ( 'NONE', #97, #533, #234, .T. ) ;
#145 =( LENGTH_UNIT ( ) NAMED_UNIT ( * ) SI_UNIT ( $, .METRE. ) );
#146 = EDGE_CURVE ( 'NONE', #928, #669, #536, .T. ) ;
#147 = VERTEX_POINT ( 'NONE', #834 ) ;
#148 = FACE_OUTER_BOUND ( 'NONE', #745, .T. ) ;
#149 = LINE ( 'NONE', #467, #887 ) ;
#150 = PERSON_AND_ORGANIZATION_ROLE ( 'design_owner' ) ;
#151 = ORIENTED_EDGE ( 'NONE', *, *, #859, .F. ) ;
#152 = FACE_OUTER_BOUND ( 'NONE', #738, .T. ) ;
#153 = ORIENTED_EDGE ( 'NONE', *, *, #700, .F. ) ;
#154 = CARTESIAN_POINT ( 'NONE',  ( 0.5999999999999999778, 1.893700787401574992, 0.000000000000000000 ) ) ;
#155 = CIRCLE ( 'NONE', #578, 0.05000000000000007216 ) ;
#156 = CC_DESIGN_PERSON_AND_ORGANIZATION_ASSIGNMENT ( #921, #1008, ( #746 ) ) ;
#157 = ORIENTED_EDGE ( 'NONE', *, *, #373, .T. ) ;
#158 = AXIS2_PLACEMENT_3D ( 'NONE', #67, #479, #1007 ) ;
#159 = CARTESIAN_POINT ( 'NONE',  ( -0.6453040016206121887, 1.412645030828522330, 0.2500000000000000000 ) ) ;
#160 = CIRCLE ( 'NONE', #726, 0.7480314960629921295 ) ;
#161 = DIRECTION ( 'NONE',  ( -0.000000000000000000, -0.000000000000000000, 1.000000000000000000 ) ) ;
#162 = EDGE_CURVE ( 'NONE', #489, #891, #387, .T. ) ;
#163 = ORIENTED_EDGE ( 'NONE', *, *, #971, .F. ) ;
#164 = EDGE_CURVE ( 'NONE', #371, #496, #873, .T. ) ;
#165 = DIRECTION ( 'NONE',  ( 0.000000000000000000, 0.000000000000000000, 1.000000000000000000 ) ) ;
#166 = ORIENTED_EDGE ( 'NONE', *, *, #927, .F. ) ;
#167 = APPROVAL_ROLE ( '' ) ;
#168 = CARTESIAN_POINT ( 'NONE',  ( -0.2390098048640721673, 0.5970154467913387775, 0.000000000000000000 ) ) ;
#169 = ORIENTED_EDGE ( 'NONE', *, *, #71, .F. ) ;
#170 = DIRECTION ( 'NONE',  ( 1.000000000000000000, 0.000000000000000000, 0.000000000000000000 ) ) ;
#171 = VERTEX_POINT ( 'NONE', #1017 ) ;
#172 = DIRECTION ( 'NONE',  ( -0.000000000000000000, -0.000000000000000000, 1.000000000000000000 ) ) ;
#173 = AXIS2_PLACEMENT_3D ( 'NONE', #830, #810, #893 ) ;
#174 = CARTESIAN_POINT ( 'NONE',  ( 0.04902903378454627481, -1.801870277868608650, 0.000000000000000000 ) ) ;
#175 = VERTEX_POINT ( 'NONE', #524 ) ;
#176 = CIRCLE ( 'NONE', #760, 0.04999999999999991257 ) ;
#177 = EDGE_CURVE ( 'NONE', #260, #308, #680, .T. ) ;
#178 = CARTESIAN_POINT ( 'NONE',  ( -0.5999999999999999778, 1.893700787401574992, 0.2500000000000000000 ) ) ;
#179 = EDGE_CURVE ( 'NONE', #816, #450, #149, .T. ) ;
#180 = CARTESIAN_POINT ( 'NONE',  ( -0.04902903378454584460, -1.801870277868608650, 0.2500000000000000000 ) ) ;
#181 = VERTEX_POINT ( 'NONE', #445 ) ;
#182 = CARTESIAN_POINT ( 'NONE',  ( -2.219626494852213988E-16, 1.792064471111699309, 0.000000000000000000 ) ) ;
#183 = LINE ( 'NONE', #332, #93 ) ;
#184 = CARTESIAN_POINT ( 'NONE',  ( -0.2390098048640720285, -0.5470154467913389551, 0.000000000000000000 ) ) ;
#185 = EDGE_LOOP ( 'NONE', ( #151, #398, #157, #957, #979, #883, #104 ) ) ;
#186 = DIRECTION ( 'NONE',  ( 1.000000000000000000, 0.000000000000000000, 0.000000000000000000 ) ) ;
#187 = DIRECTION ( 'NONE',  ( -1.000000000000000000, 0.000000000000000000, 0.000000000000000000 ) ) ;
#188 = LINE ( 'NONE', #284, #888 ) ;
#189 = ADVANCED_FACE ( 'NONE', ( #765 ), #49, .F. ) ;
#190 = VERTEX_POINT ( 'NONE', #982 ) ;
#191 = VECTOR ( 'NONE', #378, 39.37007874015748143 ) ;
#192 = VECTOR ( 'NONE', #570, 39.37007874015748143 ) ;
#193 = EDGE_CURVE ( 'NONE', #175, #403, #366, .T. ) ;
#194 = ORGANIZATION ( 'UNSPECIFIED', 'UNSPECIFIED', '' ) ;
#195 = CARTESIAN_POINT ( 'NONE',  ( 0.6000000000000001998, -1.893700787401574992, 0.000000000000000000 ) ) ;
#196 = LINE ( 'NONE', #35, #1010 ) ;
#197 = DIRECTION ( 'NONE',  ( -0.1961161351381840723, 0.9805806756909202226, 0.000000000000000000 ) ) ;
#198 = ORIENTED_EDGE ( 'NONE', *, *, #252, .F. ) ;
#199 = ADVANCED_FACE ( 'NONE', ( #785 ), #847, .F. ) ;
#200 = CARTESIAN_POINT ( 'NONE',  ( 0.000000000000000000, -0.4249999999999999889, 0.2500000000000000000 ) ) ;
#201 = CARTESIAN_POINT ( 'NONE',  ( -0.2390098048640721673, 0.5970154467913387775, 0.000000000000000000 ) ) ;
#202 = DIRECTION ( 'NONE',  ( -0.000000000000000000, -0.000000000000000000, 1.000000000000000000 ) ) ;
#203 = VERTEX_POINT ( 'NONE', #609 ) ;
#204 = PLANE ( 'NONE',  #341 ) ;
#205 = DIRECTION ( 'NONE',  ( 1.000000000000000000, 0.000000000000000000, 0.000000000000000000 ) ) ;
#206 = CARTESIAN_POINT ( 'NONE',  ( 0.2880388386486180119, 0.6068212535482480074, 0.000000000000000000 ) ) ;
#207 = VERTEX_POINT ( 'NONE', #632 ) ;
#208 = EDGE_CURVE ( 'NONE', #327, #496, #132, .T. ) ;
#209 = CIRCLE ( 'NONE', #407, 1.334989399727346981 ) ;
#210 = VECTOR ( 'NONE', #486, 39.37007874015748143 ) ;
#211 = VECTOR ( 'NONE', #402, 39.37007874015748143 ) ;
#212 = DIRECTION ( 'NONE',  ( -0.000000000000000000, -0.000000000000000000, -1.000000000000000000 ) ) ;
#213 = DIRECTION ( 'NONE',  ( -0.1961161351381840445, 0.9805806756909200006, 0.000000000000000000 ) ) ;
#214 = EDGE_CURVE ( 'NONE', #879, #327, #644, .T. ) ;
#215 = EDGE_LOOP ( 'NONE', ( #930, #633 ) ) ;
#216 = CARTESIAN_POINT ( 'NONE',  ( 0.04902903378454584460, 1.801870277868608650, 0.000000000000000000 ) ) ;
#217 = ORIENTED_EDGE ( 'NONE', *, *, #688, .T. ) ;
#218 = CARTESIAN_POINT ( 'NONE',  ( 0.2390098048640720285, 0.5470154467913389551, 0.2500000000000000000 ) ) ;
#219 = DATE_AND_TIME ( #535, #291 ) ;
#220 = ORIENTED_EDGE ( 'NONE', *, *, #177, .T. ) ;
#221 = CARTESIAN_POINT ( 'NONE',  ( 0.2390098048640721673, -0.5970154467913388885, 0.2500000000000000000 ) ) ;
#222 = EDGE_CURVE ( 'NONE', #805, #669, #520, .T. ) ;
#223 = AXIS2_PLACEMENT_3D ( 'NONE', #736, #962, #507 ) ;
#224 = FACE_OUTER_BOUND ( 'NONE', #92, .T. ) ;
#225 = CIRCLE ( 'NONE', #628, 1.334989399727346759 ) ;
#226 = AXIS2_PLACEMENT_3D ( 'NONE', #6, #641, #952 ) ;
#227 = VERTEX_POINT ( 'NONE', #69 ) ;
#228 = LINE ( 'NONE', #174, #304 ) ;
#229 = EDGE_CURVE ( 'NONE', #147, #3, #758, .T. ) ;
#230 = CALENDAR_DATE ( 2026, 20, 3 ) ;
#231 = APPROVAL_STATUS ( 'not_yet_approved' ) ;
#232 = ORIENTED_EDGE ( 'NONE', *, *, #837, .T. ) ;
#233 = CYLINDRICAL_SURFACE ( 'NONE', #158, 0.04999999999999991257 ) ;
#234 = LINE ( 'NONE', #216, #739 ) ;
#235 = ORIENTED_EDGE ( 'NONE', *, *, #281, .F. ) ;
#236 = CARTESIAN_POINT ( 'NONE',  ( -0.6453040016206121887, 1.412645030828522330, 0.2500000000000000000 ) ) ;
#237 = EDGE_LOOP ( 'NONE', ( #419, #246, #345, #552 ) ) ;
#238 = ADVANCED_FACE ( 'NONE', ( #361 ), #988, .F. ) ;
#239 = FACE_OUTER_BOUND ( 'NONE', #20, .T. ) ;
#240 = EDGE_CURVE ( 'NONE', #1020, #900, #52, .T. ) ;
#241 = ORIENTED_EDGE ( 'NONE', *, *, #968, .F. ) ;
#242 = AXIS2_PLACEMENT_3D ( 'NONE', #255, #26, #243 ) ;
#243 = DIRECTION ( 'NONE',  ( 1.000000000000000000, 0.000000000000000000, 0.000000000000000000 ) ) ;
#244 = VECTOR ( 'NONE', #351, 39.37007874015748143 ) ;
#245 = LINE ( 'NONE', #314, #210 ) ;
#246 = ORIENTED_EDGE ( 'NONE', *, *, #295, .F. ) ;
#247 = DIRECTION ( 'NONE',  ( 0.000000000000000000, 0.000000000000000000, 1.000000000000000000 ) ) ;
#248 = ORIENTED_EDGE ( 'NONE', *, *, #64, .F. ) ;
#249 = LINE ( 'NONE', #825, #475 ) ;
#250 = CARTESIAN_POINT ( 'NONE',  ( 0.000000000000000000, -0.4249999999999999889, 0.000000000000000000 ) ) ;
#251 = PRODUCT_DEFINITION_SHAPE ( 'NONE', 'NONE',  #451 ) ;
#252 = EDGE_CURVE ( 'NONE', #431, #990, #271, .T. ) ;
#253 = DIRECTION ( 'NONE',  ( -0.000000000000000000, -0.000000000000000000, -1.000000000000000000 ) ) ;
#254 = VECTOR ( 'NONE', #605, 39.37007874015748143 ) ;
#255 = CARTESIAN_POINT ( 'NONE',  ( -2.219626494852213988E-16, 1.792064471111699309, 0.000000000000000000 ) ) ;
#256 = EDGE_LOOP ( 'NONE', ( #550, #877 ) ) ;
#257 = VECTOR ( 'NONE', #685, 39.37007874015748143 ) ;
#258 = CARTESIAN_POINT ( 'NONE',  ( 0.2390098048640721673, -0.5970154467913388885, 0.000000000000000000 ) ) ;
#259 = PLANE ( 'NONE',  #139 ) ;
#260 = VERTEX_POINT ( 'NONE', #875 ) ;
#261 = EDGE_CURVE ( 'NONE', #473, #306, #965, .T. ) ;
#262 = DIRECTION ( 'NONE',  ( 0.000000000000000000, 0.000000000000000000, 1.000000000000000000 ) ) ;
#263 = CARTESIAN_POINT ( 'NONE',  ( 0.000000000000000000, 0.4249999999999999889, 0.000000000000000000 ) ) ;
#264 = CARTESIAN_POINT ( 'NONE',  ( 1.348031496062992440, -1.893700787401574992, 0.000000000000000000 ) ) ;
#265 = ORIENTED_EDGE ( 'NONE', *, *, #469, .F. ) ;
#266 = CARTESIAN_POINT ( 'NONE',  ( 0.2390098048640720285, 0.5970154467913388885, 0.000000000000000000 ) ) ;
#267 = PLANE ( 'NONE',  #173 ) ;
#268 = FACE_BOUND ( 'NONE', #510, .T. ) ;
#269 = ORIENTED_EDGE ( 'NONE', *, *, #665, .T. ) ;
#270 = CIRCLE ( 'NONE', #508, 0.04999999999999994726 ) ;
#271 = CIRCLE ( 'NONE', #1012, 0.05000000000000007216 ) ;
#272 = AXIS2_PLACEMENT_3D ( 'NONE', #266, #748, #342 ) ;
#273 = CARTESIAN_POINT ( 'NONE',  ( -0.2559055099999999472, 3.133938637056709794E-17, 0.000000000000000000 ) ) ;
#274 = DIRECTION ( 'NONE',  ( 0.000000000000000000, 0.000000000000000000, 1.000000000000000000 ) ) ;
#275 = DIRECTION ( 'NONE',  ( -0.000000000000000000, -0.000000000000000000, -1.000000000000000000 ) ) ;
#276 = ORIENTED_EDGE ( 'NONE', *, *, #700, .T. ) ;
#277 = FACE_BOUND ( 'NONE', #713, .T. ) ;
#278 = CARTESIAN_POINT ( 'NONE',  ( -0.6000000000000001998, -1.893700787401574992, 0.2500000000000000000 ) ) ;
#279 = FACE_BOUND ( 'NONE', #185, .T. ) ;
#280 = ORIENTED_EDGE ( 'NONE', *, *, #229, .F. ) ;
#281 = EDGE_CURVE ( 'NONE', #147, #23, #707, .T. ) ;
#282 = FACE_OUTER_BOUND ( 'NONE', #948, .T. ) ;
#283 = CARTESIAN_POINT ( 'NONE',  ( -1.199999999999999956, 2.626938671908090939, 0.2500000000000000000 ) ) ;
#284 = CARTESIAN_POINT ( 'NONE',  ( 0.2890098048640720729, -0.5970154467913388885, 0.000000000000000000 ) ) ;
#285 = ORIENTED_EDGE ( 'NONE', *, *, #131, .F. ) ;
#286 = CIRCLE ( 'NONE', #980, 0.04999999999999991257 ) ;
#287 = VECTOR ( 'NONE', #45, 39.37007874015748143 ) ;
#288 = APPROVAL_STATUS ( 'not_yet_approved' ) ;
#289 = AXIS2_PLACEMENT_3D ( 'NONE', #2, #727, #649 ) ;
#290 = CARTESIAN_POINT ( 'NONE',  ( 0.000000000000000000, 0.000000000000000000, 0.000000000000000000 ) ) ;
#291 = LOCAL_TIME ( 16, 29, 34.00000000000000000, #375 ) ;
#292 = ORIENTED_EDGE ( 'NONE', *, *, #311, .T. ) ;
#293 = CARTESIAN_POINT ( 'NONE',  ( -0.04902903378454628869, 1.801870277868608650, 0.2500000000000000000 ) ) ;
#294 =( CONVERSION_BASED_UNIT ( 'INCH', #388 ) LENGTH_UNIT ( ) NAMED_UNIT ( #346 ) );
#295 = EDGE_CURVE ( 'NONE', #9, #227, #802, .T. ) ;
#296 = DIRECTION ( 'NONE',  ( -1.000000000000000000, 0.000000000000000000, 0.000000000000000000 ) ) ;
#297 = ORIENTED_EDGE ( 'NONE', *, *, #469, .T. ) ;
#298 = ADVANCED_FACE ( 'NONE', ( #239 ), #797, .F. ) ;
#299 = CARTESIAN_POINT ( 'NONE',  ( -0.2390098048640721673, 0.5470154467913389551, 0.000000000000000000 ) ) ;
#300 = ORIENTED_EDGE ( 'NONE', *, *, #855, .T. ) ;
#301 = FACE_OUTER_BOUND ( 'NONE', #603, .T. ) ;
#302 = APPLICATION_CONTEXT ( 'configuration controlled 3d designs of mechanical parts and assemblies' ) ;
#303 = CYLINDRICAL_SURFACE ( 'NONE', #678, 0.04999999999999991257 ) ;
#304 = VECTOR ( 'NONE', #963, 39.37007874015748143 ) ;
#305 = AXIS2_PLACEMENT_3D ( 'NONE', #362, #367, #515 ) ;
#306 = VERTEX_POINT ( 'NONE', #1 ) ;
#307 = CYLINDRICAL_SURFACE ( 'NONE', #109, 0.04999999999999994726 ) ;
#308 = VERTEX_POINT ( 'NONE', #719 ) ;
#309 = DIRECTION ( 'NONE',  ( -0.000000000000000000, -0.000000000000000000, -1.000000000000000000 ) ) ;
#310 = LINE ( 'NONE', #554, #211 ) ;
#311 = EDGE_CURVE ( 'NONE', #203, #970, #824, .T. ) ;
#312 = ORIENTED_EDGE ( 'NONE', *, *, #146, .T. ) ;
#313 = LINE ( 'NONE', #618, #355 ) ;
#314 = CARTESIAN_POINT ( 'NONE',  ( 0.2390098048640721673, -0.5470154467913389551, 0.000000000000000000 ) ) ;
#315 = EDGE_CURVE ( 'NONE', #862, #190, #245, .T. ) ;
#316 = ORIENTED_EDGE ( 'NONE', *, *, #364, .T. ) ;
#317 = DIRECTION ( 'NONE',  ( 1.000000000000000000, -1.428732178590905242E-16, 0.000000000000000000 ) ) ;
#318 = ORIENTED_EDGE ( 'NONE', *, *, #208, .F. ) ;
#319 = DIRECTION ( 'NONE',  ( -1.000000000000000000, 0.000000000000000000, 0.000000000000000000 ) ) ;
#320 = ORIENTED_EDGE ( 'NONE', *, *, #179, .T. ) ;
#321 = AXIS2_PLACEMENT_3D ( 'NONE', #576, #165, #737 ) ;
#322 = CARTESIAN_POINT ( 'NONE',  ( 1.348031496062992440, -1.893700787401574992, 0.2500000000000000000 ) ) ;
#323 = VERTEX_POINT ( 'NONE', #723 ) ;
#324 = CIRCLE ( 'NONE', #16, 0.05905511999999998873 ) ;
#325 = UNCERTAINTY_MEASURE_WITH_UNIT (LENGTH_MEASURE( 1.000000000000000082E-05 ), #294, 'distance_accuracy_value', 'NONE');
#326 = ADVANCED_FACE ( 'NONE', ( #635 ), #880, .T. ) ;
#327 = VERTEX_POINT ( 'NONE', #465 ) ;
#328 = DIRECTION ( 'NONE',  ( 0.000000000000000000, 0.000000000000000000, 1.000000000000000000 ) ) ;
#329 = VERTEX_POINT ( 'NONE', #925 ) ;
#330 = ADVANCED_FACE ( 'NONE', ( #937 ), #1004, .T. ) ;
#331 = PERSON_AND_ORGANIZATION ( #141, #194 ) ;
#332 = CARTESIAN_POINT ( 'NONE',  ( -0.2880388386486181229, 0.6068212535482478964, 0.000000000000000000 ) ) ;
#333 = CARTESIAN_POINT ( 'NONE',  ( 0.6453040016206120777, -1.412645030828522330, 0.2500000000000000000 ) ) ;
#334 = ORIENTED_EDGE ( 'NONE', *, *, #71, .T. ) ;
#335 = DIRECTION ( 'NONE',  ( 0.000000000000000000, -1.000000000000000000, 0.000000000000000000 ) ) ;
#336 = DIRECTION ( 'NONE',  ( -0.9805806756909202226, 0.1961161351381838225, 0.000000000000000000 ) ) ;
#337 = ORIENTED_EDGE ( 'NONE', *, *, #715, .F. ) ;
#338 = AXIS2_PLACEMENT_3D ( 'NONE', #673, #992, #601 ) ;
#339 = AXIS2_PLACEMENT_3D ( 'NONE', #333, #247, #651 ) ;
#340 = APPROVAL ( #288, 'UNSPECIFIED' ) ;
#341 = AXIS2_PLACEMENT_3D ( 'NONE', #506, #786, #1001 ) ;
#342 = DIRECTION ( 'NONE',  ( 1.000000000000000000, 0.000000000000000000, 0.000000000000000000 ) ) ;
#343 = CARTESIAN_POINT ( 'NONE',  ( 0.2880388386486180119, 0.6068212535482480074, 0.000000000000000000 ) ) ;
#344 = CARTESIAN_POINT ( 'NONE',  ( -0.2390098048640720285, -0.5970154467913387775, 0.000000000000000000 ) ) ;
#345 = ORIENTED_EDGE ( 'NONE', *, *, #409, .T. ) ;
#346 = DIMENSIONAL_EXPONENTS ( 1.000000000000000000, 0.000000000000000000, 0.000000000000000000, 0.000000000000000000, 0.000000000000000000, 0.000000000000000000, 0.000000000000000000 ) ;
#347 = DIRECTION ( 'NONE',  ( -1.000000000000000000, 0.000000000000000000, 0.000000000000000000 ) ) ;
#348 = CARTESIAN_POINT ( 'NONE',  ( 0.04902903378454584460, 1.801870277868608650, 0.000000000000000000 ) ) ;
#349 = DIRECTION ( 'NONE',  ( 0.000000000000000000, 0.000000000000000000, 1.000000000000000000 ) ) ;
#350 = ORIENTED_EDGE ( 'NONE', *, *, #252, .T. ) ;
#351 = DIRECTION ( 'NONE',  ( -8.957264075611739628E-17, -1.000000000000000000, -0.000000000000000000 ) ) ;
#352 = DIRECTION ( 'NONE',  ( -0.000000000000000000, -0.000000000000000000, -1.000000000000000000 ) ) ;
#353 = DIRECTION ( 'NONE',  ( 0.000000000000000000, 0.000000000000000000, 1.000000000000000000 ) ) ;
#354 = EDGE_LOOP ( 'NONE', ( #886, #232, #480, #318 ) ) ;
#355 = VECTOR ( 'NONE', #62, 39.37007874015748143 ) ;
#356 = APPLICATION_CONTEXT ( 'configuration controlled 3d designs of mechanical parts and assemblies' ) ;
#357 = AXIS2_PLACEMENT_3D ( 'NONE', #956, #949, #969 ) ;
#358 = CIRCLE ( 'NONE', #693, 0.05905511999999998873 ) ;
#359 = CC_DESIGN_APPROVAL ( #923, ( #451 ) ) ;
#360 = CARTESIAN_POINT ( 'NONE',  ( 0.05905511999999998873, 0.4249999999999999889, 0.2500000000000000000 ) ) ;
#361 = FACE_OUTER_BOUND ( 'NONE', #540, .T. ) ;
#362 = CARTESIAN_POINT ( 'NONE',  ( -0.2390098048640720285, -0.5970154467913387775, 0.000000000000000000 ) ) ;
#363 = EDGE_LOOP ( 'NONE', ( #312, #461, #646, #569 ) ) ;
#364 = EDGE_CURVE ( 'NONE', #37, #533, #538, .T. ) ;
#365 = DIRECTION ( 'NONE',  ( 1.000000000000000000, 0.000000000000000000, 0.000000000000000000 ) ) ;
#366 = LINE ( 'NONE', #78, #257 ) ;
#367 = DIRECTION ( 'NONE',  ( 0.000000000000000000, 0.000000000000000000, 1.000000000000000000 ) ) ;
#368 = ORIENTED_EDGE ( 'NONE', *, *, #689, .T. ) ;
#369 = DATE_TIME_ROLE ( 'classification_date' ) ;
#370 = CARTESIAN_POINT ( 'NONE',  ( 2.169665541973060070E-16, -1.792064471111699309, 0.000000000000000000 ) ) ;
#371 = VERTEX_POINT ( 'NONE', #472 ) ;
#372 = CIRCLE ( 'NONE', #456, 0.04999999999999991257 ) ;
#373 = EDGE_CURVE ( 'NONE', #190, #323, #511, .T. ) ;
#374 = VECTOR ( 'NONE', #804, 39.37007874015748854 ) ;
#375 = COORDINATED_UNIVERSAL_TIME_OFFSET ( 8, 0, .BEHIND. ) ;
#376 = CARTESIAN_POINT ( 'NONE',  ( -0.04902903378454628869, 1.801870277868608650, 0.000000000000000000 ) ) ;
#377 = VERTEX_POINT ( 'NONE', #932 ) ;
#378 = DIRECTION ( 'NONE',  ( 1.000000000000000000, 1.428732178590905489E-16, 0.000000000000000000 ) ) ;
#379 = DIRECTION ( 'NONE',  ( -0.000000000000000000, -0.000000000000000000, 1.000000000000000000 ) ) ;
#380 = VERTEX_POINT ( 'NONE', #788 ) ;
#381 = CARTESIAN_POINT ( 'NONE',  ( 0.05905511999999998873, 0.4249999999999999889, 0.000000000000000000 ) ) ;
#382 = ORIENTED_EDGE ( 'NONE', *, *, #453, .F. ) ;
#383 = CARTESIAN_POINT ( 'NONE',  ( 0.05905511999999998873, -0.4249999999999999889, 0.000000000000000000 ) ) ;
#384 = ORIENTED_EDGE ( 'NONE', *, *, #698, .T. ) ;
#385 = DIRECTION ( 'NONE',  ( -0.000000000000000000, -0.000000000000000000, 1.000000000000000000 ) ) ;
#386 = EDGE_CURVE ( 'NONE', #137, #865, #556, .T. ) ;
#387 = CIRCLE ( 'NONE', #527, 0.05905511999999998873 ) ;
#388 = LENGTH_MEASURE_WITH_UNIT ( LENGTH_MEASURE( 0.02539999999999999897 ), #145 );
#389 = VECTOR ( 'NONE', #75, 39.37007874015748143 ) ;
#390 = AXIS2_PLACEMENT_3D ( 'NONE', #250, #98, #170 ) ;
#391 = CARTESIAN_POINT ( 'NONE',  ( -0.2559055099999999472, 3.133938637056709794E-17, -3.937007874016270969E-05 ) ) ;
#392 = ORIENTED_EDGE ( 'NONE', *, *, #968, .T. ) ;
#393 = EDGE_CURVE ( 'NONE', #676, #175, #807, .T. ) ;
#394 = DIRECTION ( 'NONE',  ( 1.000000000000000000, 1.428732178590905242E-16, 0.000000000000000000 ) ) ;
#395 = ORIENTED_EDGE ( 'NONE', *, *, #393, .F. ) ;
#396 = ADVANCED_FACE ( 'NONE', ( #152 ), #233, .F. ) ;
#397 = DIRECTION ( 'NONE',  ( -0.1961161351381840445, 0.9805806756909200006, 0.000000000000000000 ) ) ;
#398 = ORIENTED_EDGE ( 'NONE', *, *, #54, .T. ) ;
#399 = CARTESIAN_POINT ( 'NONE',  ( -0.2390098048640720285, -0.5470154467913389551, 0.000000000000000000 ) ) ;
#400 = EDGE_LOOP ( 'NONE', ( #412, #843, #276, #484 ) ) ;
#401 = DIRECTION ( 'NONE',  ( -0.000000000000000000, -0.000000000000000000, 1.000000000000000000 ) ) ;
#402 = DIRECTION ( 'NONE',  ( -0.1961161351381838225, -0.9805806756909202226, 0.000000000000000000 ) ) ;
#403 = VERTEX_POINT ( 'NONE', #871 ) ;
#404 = DIRECTION ( 'NONE',  ( -1.000000000000000000, 0.000000000000000000, 0.000000000000000000 ) ) ;
#405 = ORIENTED_EDGE ( 'NONE', *, *, #684, .T. ) ;
#406 = DIRECTION ( 'NONE',  ( 1.000000000000000000, 0.000000000000000000, 0.000000000000000000 ) ) ;
#407 = AXIS2_PLACEMENT_3D ( 'NONE', #902, #749, #580 ) ;
#408 = ORIENTED_EDGE ( 'NONE', *, *, #582, .F. ) ;
#409 = EDGE_CURVE ( 'NONE', #9, #862, #1021, .T. ) ;
#410 = AXIS2_PLACEMENT_3D ( 'NONE', #568, #89, #397 ) ;
#411 = PLANE ( 'NONE',  #645 ) ;
#412 = ORIENTED_EDGE ( 'NONE', *, *, #517, .F. ) ;
#413 = AXIS2_PLACEMENT_3D ( 'NONE', #513, #679, #604 ) ;
#414 = DIRECTION ( 'NONE',  ( -0.000000000000000000, -0.000000000000000000, -1.000000000000000000 ) ) ;
#415 = CARTESIAN_POINT ( 'NONE',  ( 0.000000000000000000, 0.000000000000000000, 0.2500000000000000000 ) ) ;
#416 = ORIENTED_EDGE ( 'NONE', *, *, #373, .F. ) ;
#417 = CARTESIAN_POINT ( 'NONE',  ( 0.2390098048640721673, -0.5970154467913388885, 0.000000000000000000 ) ) ;
#418 = DIRECTION ( 'NONE',  ( 0.000000000000000000, 0.000000000000000000, 1.000000000000000000 ) ) ;
#419 = ORIENTED_EDGE ( 'NONE', *, *, #54, .F. ) ;
#420 = EDGE_CURVE ( 'NONE', #676, #730, #143, .T. ) ;
#421 = LINE ( 'NONE', #671, #826 ) ;
#422 = FACE_OUTER_BOUND ( 'NONE', #33, .T. ) ;
#423 = DIRECTION ( 'NONE',  ( 1.000000000000000000, 0.000000000000000000, 0.000000000000000000 ) ) ;
#424 = EDGE_LOOP ( 'NONE', ( #597, #557, #617, #1006 ) ) ;
#425 = AXIS2_PLACEMENT_3D ( 'NONE', #201, #474, #122 ) ;
#426 = AXIS2_PLACEMENT_3D ( 'NONE', #639, #103, #659 ) ;
#427 = SECURITY_CLASSIFICATION ( '', '', #452 ) ;
#428 = CARTESIAN_POINT ( 'NONE',  ( -0.6000000000000001998, -1.893700787401574992, 0.000000000000000000 ) ) ;
#429 = ORIENTED_EDGE ( 'NONE', *, *, #240, .T. ) ;
#430 = FACE_OUTER_BOUND ( 'NONE', #852, .T. ) ;
#431 = VERTEX_POINT ( 'NONE', #796 ) ;
#432 = CARTESIAN_POINT ( 'NONE',  ( -1.348031496062992218, 1.893700787401575214, 0.000000000000000000 ) ) ;
#433 = CARTESIAN_POINT ( 'NONE',  ( -1.348031496062992218, 1.893700787401575214, 0.2500000000000000000 ) ) ;
#434 = DIRECTION ( 'NONE',  ( 1.000000000000000000, 0.000000000000000000, 0.000000000000000000 ) ) ;
#435 = ORIENTED_EDGE ( 'NONE', *, *, #453, .T. ) ;
#436 = ADVANCED_FACE ( 'NONE', ( #301 ), #945, .F. ) ;
#437 = FACE_BOUND ( 'NONE', #215, .T. ) ;
#438 = CARTESIAN_POINT ( 'NONE',  ( 0.5999999999999999778, 1.893700787401574992, 0.2500000000000000000 ) ) ;
#439 = DIRECTION ( 'NONE',  ( -0.000000000000000000, -0.000000000000000000, 1.000000000000000000 ) ) ;
#440 = ORIENTED_EDGE ( 'NONE', *, *, #665, .F. ) ;
#441 = VECTOR ( 'NONE', #309, 39.37007874015748143 ) ;
#442 = AXIS2_PLACEMENT_3D ( 'NONE', #620, #72, #296 ) ;
#443 = COORDINATED_UNIVERSAL_TIME_OFFSET ( 8, 0, .BEHIND. ) ;
#444 = DIRECTION ( 'NONE',  ( -0.000000000000000000, -0.000000000000000000, 1.000000000000000000 ) ) ;
#445 = CARTESIAN_POINT ( 'NONE',  ( -0.2880388386486181229, 0.6068212535482478964, 0.2500000000000000000 ) ) ;
#446 = FACE_OUTER_BOUND ( 'NONE', #363, .T. ) ;
#447 = ORIENTED_EDGE ( 'NONE', *, *, #240, .F. ) ;
#448 = CALENDAR_DATE ( 2026, 20, 3 ) ;
#449 = DIRECTION ( 'NONE',  ( -0.000000000000000000, -0.000000000000000000, -1.000000000000000000 ) ) ;
#450 = VERTEX_POINT ( 'NONE', #293 ) ;
#451 = PRODUCT_DEFINITION ( 'UNKNOWN', '', #746, #572 ) ;
#452 = SECURITY_CLASSIFICATION_LEVEL ( 'unclassified' ) ;
#453 = EDGE_CURVE ( 'NONE', #805, #260, #225, .T. ) ;
#454 = ORIENTED_EDGE ( 'NONE', *, *, #295, .T. ) ;
#455 = DIRECTION ( 'NONE',  ( 1.000000000000000000, -1.428732178590905489E-16, 0.000000000000000000 ) ) ;
#456 = AXIS2_PLACEMENT_3D ( 'NONE', #258, #253, #977 ) ;
#457 = CIRCLE ( 'NONE', #598, 0.04999999999999994726 ) ;
#458 = DATE_TIME_ROLE ( 'creation_date' ) ;
#459 = AXIS2_PLACEMENT_3D ( 'NONE', #509, #521, #596 ) ;
#460 = AXIS2_PLACEMENT_3D ( 'NONE', #709, #55, #623 ) ;
#461 = ORIENTED_EDGE ( 'NONE', *, *, #222, .F. ) ;
#462 = DIRECTION ( 'NONE',  ( -0.000000000000000000, -0.000000000000000000, -1.000000000000000000 ) ) ;
#463 = DATE_AND_TIME ( #448, #906 ) ;
#464 = ORIENTED_EDGE ( 'NONE', *, *, #927, .T. ) ;
#465 = CARTESIAN_POINT ( 'NONE',  ( 0.2559055099999999472, 0.000000000000000000, 0.000000000000000000 ) ) ;
#466 = CALENDAR_DATE ( 2026, 20, 3 ) ;
#467 = CARTESIAN_POINT ( 'NONE',  ( -0.04902903378454628869, 1.801870277868608650, 0.000000000000000000 ) ) ;
#468 =( NAMED_UNIT ( * ) PLANE_ANGLE_UNIT ( ) SI_UNIT ( $, .RADIAN. ) );
#469 = EDGE_CURVE ( 'NONE', #3, #473, #626, .T. ) ;
#470 = ORIENTED_EDGE ( 'NONE', *, *, #612, .F. ) ;
#471 = EDGE_CURVE ( 'NONE', #377, #79, #313, .T. ) ;
#472 = CARTESIAN_POINT ( 'NONE',  ( -0.2559055099999999472, 3.133938637056709794E-17, 0.2500000000000000000 ) ) ;
#473 = VERTEX_POINT ( 'NONE', #218 ) ;
#474 = DIRECTION ( 'NONE',  ( -0.000000000000000000, -0.000000000000000000, 1.000000000000000000 ) ) ;
#475 = VECTOR ( 'NONE', #959, 39.37007874015748143 ) ;
#476 = AXIS2_PLACEMENT_3D ( 'NONE', #84, #401, #947 ) ;
#477 = VECTOR ( 'NONE', #444, 39.37007874015748143 ) ;
#478 = ORIENTED_EDGE ( 'NONE', *, *, #911, .F. ) ;
#479 = DIRECTION ( 'NONE',  ( -0.000000000000000000, -0.000000000000000000, 1.000000000000000000 ) ) ;
#480 = ORIENTED_EDGE ( 'NONE', *, *, #164, .T. ) ;
#481 = CARTESIAN_POINT ( 'NONE',  ( 0.2390098048640720285, 0.5970154467913388885, 0.2500000000000000000 ) ) ;
#482 = EDGE_LOOP ( 'NONE', ( #722, #803, #90, #86 ) ) ;
#483 = DIRECTION ( 'NONE',  ( -1.428732178590905242E-16, -1.000000000000000000, 0.000000000000000000 ) ) ;
#484 = ORIENTED_EDGE ( 'NONE', *, *, #386, .T. ) ;
#485 = EDGE_CURVE ( 'NONE', #147, #171, #634, .T. ) ;
#486 = DIRECTION ( 'NONE',  ( -0.000000000000000000, -0.000000000000000000, 1.000000000000000000 ) ) ;
#487 = ADVANCED_FACE ( 'NONE', ( #148 ), #307, .F. ) ;
#488 = EDGE_CURVE ( 'NONE', #323, #377, #176, .T. ) ;
#489 = VERTEX_POINT ( 'NONE', #381 ) ;
#490 = CARTESIAN_POINT ( 'NONE',  ( 0.2559055099999999472, 0.000000000000000000, 0.2500000000000000000 ) ) ;
#491 = ORIENTED_EDGE ( 'NONE', *, *, #146, .F. ) ;
#492 = EDGE_CURVE ( 'NONE', #431, #79, #228, .T. ) ;
#493 = DIRECTION ( 'NONE',  ( -1.000000000000000000, 0.000000000000000000, 0.000000000000000000 ) ) ;
#494 = AXIS2_PLACEMENT_3D ( 'NONE', #415, #328, #423 ) ;
#495 = LINE ( 'NONE', #180, #374 ) ;
#496 = VERTEX_POINT ( 'NONE', #490 ) ;
#497 = CC_DESIGN_SECURITY_CLASSIFICATION ( #427, ( #746 ) ) ;
#498 = CARTESIAN_POINT ( 'NONE',  ( -0.2390098048640721673, 0.5970154467913387775, 0.2500000000000000000 ) ) ;
#499 = CARTESIAN_POINT ( 'NONE',  ( 0.2890098048640719619, 0.5970154467913388885, 0.000000000000000000 ) ) ;
#500 = ORIENTED_EDGE ( 'NONE', *, *, #793, .F. ) ;
#501 = DIRECTION ( 'NONE',  ( 0.000000000000000000, 0.000000000000000000, 1.000000000000000000 ) ) ;
#502 = EDGE_CURVE ( 'NONE', #97, #816, #560, .T. ) ;
#503 = EDGE_LOOP ( 'NONE', ( #124, #869 ) ) ;
#504 = FACE_OUTER_BOUND ( 'NONE', #68, .T. ) ;
#505 = ORIENTED_EDGE ( 'NONE', *, *, #386, .F. ) ;
#506 = CARTESIAN_POINT ( 'NONE',  ( -1.348031496062992218, 1.893700787401575214, 0.000000000000000000 ) ) ;
#507 = DIRECTION ( 'NONE',  ( 1.000000000000000000, 0.000000000000000000, 0.000000000000000000 ) ) ;
#508 = AXIS2_PLACEMENT_3D ( 'NONE', #498, #414, #187 ) ;
#509 = CARTESIAN_POINT ( 'NONE',  ( 0.5999999999999999778, 1.893700787401574992, 0.2500000000000000000 ) ) ;
#510 = EDGE_LOOP ( 'NONE', ( #770, #27, #621, #567, #794, #265, #607 ) ) ;
#511 = CIRCLE ( 'NONE', #874, 0.04999999999999991257 ) ;
#512 = VECTOR ( 'NONE', #202, 39.37007874015748143 ) ;
#513 = CARTESIAN_POINT ( 'NONE',  ( 0.000000000000000000, 0.000000000000000000, 0.000000000000000000 ) ) ;
#514 = LINE ( 'NONE', #102, #724 ) ;
#515 = DIRECTION ( 'NONE',  ( 1.000000000000000000, 0.000000000000000000, 0.000000000000000000 ) ) ;
#516 = ORIENTED_EDGE ( 'NONE', *, *, #222, .T. ) ;
#517 = EDGE_CURVE ( 'NONE', #703, #865, #495, .T. ) ;
#518 = EDGE_CURVE ( 'NONE', #533, #450, #775, .T. ) ;
#519 = CARTESIAN_POINT ( 'NONE',  ( 0.2880388386486180119, 0.6068212535482480074, 0.000000000000000000 ) ) ;
#520 = LINE ( 'NONE', #438, #613 ) ;
#521 = DIRECTION ( 'NONE',  ( -1.000000000000000000, 0.000000000000000000, 0.000000000000000000 ) ) ;
#522 = ORIENTED_EDGE ( 'NONE', *, *, #485, .F. ) ;
#523 = DIRECTION ( 'NONE',  ( 1.000000000000000000, 0.000000000000000000, 0.000000000000000000 ) ) ;
#524 = CARTESIAN_POINT ( 'NONE',  ( -0.05905511999999998873, -0.4249999999999999889, 0.000000000000000000 ) ) ;
#525 = DIRECTION ( 'NONE',  ( 1.000000000000000000, 0.000000000000000000, 0.000000000000000000 ) ) ;
#526 = EDGE_LOOP ( 'NONE', ( #924, #478 ) ) ;
#527 = AXIS2_PLACEMENT_3D ( 'NONE', #553, #914, #839 ) ;
#528 = VECTOR ( 'NONE', #275, 39.37007874015748143 ) ;
#529 = APPLICATION_PROTOCOL_DEFINITION ( 'international standard', 'config_control_design', 1994, #302 ) ;
#530 = DIRECTION ( 'NONE',  ( 1.000000000000000000, 0.000000000000000000, 0.000000000000000000 ) ) ;
#531 = CC_DESIGN_DATE_AND_TIME_ASSIGNMENT ( #539, #458, ( #451 ) ) ;
#532 = FACE_OUTER_BOUND ( 'NONE', #354, .T. ) ;
#533 = VERTEX_POINT ( 'NONE', #799 ) ;
#534 = ADVANCED_FACE ( 'NONE', ( #812 ), #91, .F. ) ;
#535 = CALENDAR_DATE ( 2026, 20, 3 ) ;
#536 = LINE ( 'NONE', #154, #254 ) ;
#537 = ORIENTED_EDGE ( 'NONE', *, *, #115, .F. ) ;
#538 = LINE ( 'NONE', #854, #840 ) ;
#539 = DATE_AND_TIME ( #782, #96 ) ;
#540 = EDGE_LOOP ( 'NONE', ( #285, #61, #872, #638 ) ) ;
#541 = CARTESIAN_POINT ( 'NONE',  ( 0.000000000000000000, -0.4249999999999999889, 0.000000000000000000 ) ) ;
#542 = CIRCLE ( 'NONE', #759, 0.05905511999999998873 ) ;
#543 = AXIS2_PLACEMENT_3D ( 'NONE', #433, #21, #884 ) ;
#544 = DIRECTION ( 'NONE',  ( 1.000000000000000000, 0.000000000000000000, 0.000000000000000000 ) ) ;
#545 = CIRCLE ( 'NONE', #743, 1.334989399727346759 ) ;
#546 = EDGE_LOOP ( 'NONE', ( #65, #395, #705, #624 ) ) ;
#547 = DIRECTION ( 'NONE',  ( 1.000000000000000000, 0.000000000000000000, 0.000000000000000000 ) ) ;
#548 = DATE_AND_TIME ( #230, #647 ) ;
#549 = PERSON_AND_ORGANIZATION_ROLE ( 'creator' ) ;
#550 = ORIENTED_EDGE ( 'NONE', *, *, #672, .F. ) ;
#551 = DIRECTION ( 'NONE',  ( -1.000000000000000000, 0.000000000000000000, 0.000000000000000000 ) ) ;
#552 = ORIENTED_EDGE ( 'NONE', *, *, #315, .T. ) ;
#553 = CARTESIAN_POINT ( 'NONE',  ( 0.000000000000000000, 0.4249999999999999889, 0.000000000000000000 ) ) ;
#554 = CARTESIAN_POINT ( 'NONE',  ( 0.2880388386486181784, -0.6068212535482478964, 0.000000000000000000 ) ) ;
#555 = EDGE_LOOP ( 'NONE', ( #964, #384, #153, #198, #660, #592, #650 ) ) ;
#556 = LINE ( 'NONE', #866, #125 ) ;
#557 = ORIENTED_EDGE ( 'NONE', *, *, #954, .F. ) ;
#558 = COORDINATED_UNIVERSAL_TIME_OFFSET ( 8, 0, .BEHIND. ) ;
#559 = DIRECTION ( 'NONE',  ( 0.000000000000000000, 0.000000000000000000, 1.000000000000000000 ) ) ;
#560 = CIRCLE ( 'NONE', #242, 0.05000000000000007216 ) ;
#561 = VECTOR ( 'NONE', #43, 39.37007874015748143 ) ;
#562 = FACE_OUTER_BOUND ( 'NONE', #611, .T. ) ;
#563 = CC_DESIGN_DATE_AND_TIME_ASSIGNMENT ( #548, #369, ( #427 ) ) ;
#564 = ORIENTED_EDGE ( 'NONE', *, *, #214, .T. ) ;
#565 = CC_DESIGN_APPROVAL ( #340, ( #746 ) ) ;
#566 = DIRECTION ( 'NONE',  ( -0.000000000000000000, -0.000000000000000000, 1.000000000000000000 ) ) ;
#567 = ORIENTED_EDGE ( 'NONE', *, *, #777, .F. ) ;
#568 = CARTESIAN_POINT ( 'NONE',  ( -0.04902903378454584460, -1.801870277868608650, 0.000000000000000000 ) ) ;
#569 = ORIENTED_EDGE ( 'NONE', *, *, #793, .T. ) ;
#570 = DIRECTION ( 'NONE',  ( -0.000000000000000000, -0.000000000000000000, -1.000000000000000000 ) ) ;
#571 = ORIENTED_EDGE ( 'NONE', *, *, #82, .F. ) ;
#572 = DESIGN_CONTEXT ( 'detailed design', #356, 'design' ) ;
#573 = CARTESIAN_POINT ( 'NONE',  ( 0.6000000000000001998, -1.893700787401574992, 0.2500000000000000000 ) ) ;
#574 = PRODUCT ( 'Weapon Spinner', 'Weapon Spinner', '', ( #60 ) ) ;
#575 = CARTESIAN_POINT ( 'NONE',  ( -0.2390098048640720285, -0.5470154467913389551, 0.2500000000000000000 ) ) ;
#576 = CARTESIAN_POINT ( 'NONE',  ( -2.219626494852213988E-16, 1.792064471111699309, 0.2500000000000000000 ) ) ;
#577 = ORIENTED_EDGE ( 'NONE', *, *, #655, .F. ) ;
#578 = AXIS2_PLACEMENT_3D ( 'NONE', #39, #352, #657 ) ;
#579 = AXIS2_PLACEMENT_3D ( 'NONE', #168, #15, #319 ) ;
#580 = DIRECTION ( 'NONE',  ( 1.000000000000000000, 0.000000000000000000, 0.000000000000000000 ) ) ;
#581 = AXIS2_PLACEMENT_3D ( 'NONE', #600, #991, #365 ) ;
#582 = EDGE_CURVE ( 'NONE', #171, #768, #457, .T. ) ;
#583 = LINE ( 'NONE', #499, #725 ) ;
#584 = EDGE_LOOP ( 'NONE', ( #464, #163, #687, #220 ) ) ;
#585 = CARTESIAN_POINT ( 'NONE',  ( -0.2880388386486181229, 0.6068212535482478964, 0.000000000000000000 ) ) ;
#586 = ADVANCED_FACE ( 'NONE', ( #819 ), #259, .F. ) ;
#587 = CYLINDRICAL_SURFACE ( 'NONE', #390, 0.05905511999999998873 ) ;
#588 = ORIENTED_EDGE ( 'NONE', *, *, #82, .T. ) ;
#589 = DIRECTION ( 'NONE',  ( -0.000000000000000000, -0.000000000000000000, -1.000000000000000000 ) ) ;
#590 = DIRECTION ( 'NONE',  ( 1.000000000000000000, 0.000000000000000000, 0.000000000000000000 ) ) ;
#591 = DIRECTION ( 'NONE',  ( -0.000000000000000000, -0.000000000000000000, 1.000000000000000000 ) ) ;
#592 = ORIENTED_EDGE ( 'NONE', *, *, #66, .F. ) ;
#593 = DIRECTION ( 'NONE',  ( 0.000000000000000000, 0.000000000000000000, 1.000000000000000000 ) ) ;
#594 = DIRECTION ( 'NONE',  ( -0.000000000000000000, -0.000000000000000000, -1.000000000000000000 ) ) ;
#595 = CIRCLE ( 'NONE', #223, 0.05905511999999998873 ) ;
#596 = DIRECTION ( 'NONE',  ( 0.000000000000000000, 0.000000000000000000, 1.000000000000000000 ) ) ;
#597 = ORIENTED_EDGE ( 'NONE', *, *, #471, .F. ) ;
#598 = AXIS2_PLACEMENT_3D ( 'NONE', #87, #418, #4 ) ;
#599 = CIRCLE ( 'NONE', #581, 0.04999999999999994726 ) ;
#600 = CARTESIAN_POINT ( 'NONE',  ( -0.2390098048640720285, -0.5970154467913387775, 0.2500000000000000000 ) ) ;
#601 = DIRECTION ( 'NONE',  ( 1.000000000000000000, 0.000000000000000000, 0.000000000000000000 ) ) ;
#602 = DIRECTION ( 'NONE',  ( 1.000000000000000000, 0.000000000000000000, 0.000000000000000000 ) ) ;
#603 = EDGE_LOOP ( 'NONE', ( #297, #787, #522, #73 ) ) ;
#604 = DIRECTION ( 'NONE',  ( 1.000000000000000000, 0.000000000000000000, 0.000000000000000000 ) ) ;
#605 = DIRECTION ( 'NONE',  ( -0.000000000000000000, 1.000000000000000000, -0.000000000000000000 ) ) ;
#606 = CARTESIAN_POINT ( 'NONE',  ( -1.348031496062992218, 1.893700787401575214, 0.2500000000000000000 ) ) ;
#607 = ORIENTED_EDGE ( 'NONE', *, *, #28, .T. ) ;
#608 = PERSON_AND_ORGANIZATION ( #141, #194 ) ;
#609 = CARTESIAN_POINT ( 'NONE',  ( 1.199999999999999956, -2.626938671908090939, 0.2500000000000000000 ) ) ;
#610 = LINE ( 'NONE', #755, #1015 ) ;
#611 = EDGE_LOOP ( 'NONE', ( #316, #961, #936, #938 ) ) ;
#612 = EDGE_CURVE ( 'NONE', #768, #306, #583, .T. ) ;
#613 = VECTOR ( 'NONE', #212, 39.37007874015748143 ) ;
#614 = AXIS2_PLACEMENT_3D ( 'NONE', #993, #50, #602 ) ;
#615 = COORDINATED_UNIVERSAL_TIME_OFFSET ( 8, 0, .BEHIND. ) ;
#616 = CARTESIAN_POINT ( 'NONE',  ( -0.2390098048640721673, 0.5470154467913389551, 0.000000000000000000 ) ) ;
#617 = ORIENTED_EDGE ( 'NONE', *, *, #842, .T. ) ;
#618 = CARTESIAN_POINT ( 'NONE',  ( 0.2880388386486181784, -0.6068212535482478964, 0.2500000000000000000 ) ) ;
#619 = CARTESIAN_POINT ( 'NONE',  ( -0.6000000000000001998, -1.893700787401574992, 0.2500000000000000000 ) ) ;
#620 = CARTESIAN_POINT ( 'NONE',  ( -1.348031496062992218, 1.893700787401575214, 0.2500000000000000000 ) ) ;
#621 = ORIENTED_EDGE ( 'NONE', *, *, #364, .F. ) ;
#622 = DIRECTION ( 'NONE',  ( -0.000000000000000000, -0.000000000000000000, 1.000000000000000000 ) ) ;
#623 = DIRECTION ( 'NONE',  ( 1.000000000000000000, 0.000000000000000000, 0.000000000000000000 ) ) ;
#624 = ORIENTED_EDGE ( 'NONE', *, *, #958, .T. ) ;
#625 = ADVANCED_FACE ( 'NONE', ( #878 ), #411, .T. ) ;
#626 = LINE ( 'NONE', #80, #741 ) ;
#627 = VECTOR ( 'NONE', #335, 39.37007874015748143 ) ;
#628 = AXIS2_PLACEMENT_3D ( 'NONE', #159, #138, #547 ) ;
#629 = PRODUCT_RELATED_PRODUCT_CATEGORY ( 'detail', '', ( #574 ) ) ;
#630 = ORIENTED_EDGE ( 'NONE', *, *, #214, .F. ) ;
#631 = DIRECTION ( 'NONE',  ( 1.000000000000000000, 0.000000000000000000, 0.000000000000000000 ) ) ;
#632 = CARTESIAN_POINT ( 'NONE',  ( -0.5999999999999999778, 1.893700787401574992, 0.2500000000000000000 ) ) ;
#633 = ORIENTED_EDGE ( 'NONE', *, *, #131, .T. ) ;
#634 = LINE ( 'NONE', #1013, #191 ) ;
#635 = FACE_OUTER_BOUND ( 'NONE', #400, .T. ) ;
#636 = CC_DESIGN_PERSON_AND_ORGANIZATION_ASSIGNMENT ( #1018, #549, ( #451 ) ) ;
#637 = PERSON_AND_ORGANIZATION_ROLE ( 'classification_officer' ) ;
#638 = ORIENTED_EDGE ( 'NONE', *, *, #420, .F. ) ;
#639 = CARTESIAN_POINT ( 'NONE',  ( 0.2390098048640720285, 0.5970154467913388885, 0.000000000000000000 ) ) ;
#640 = ADVANCED_FACE ( 'NONE', ( #19 ), #587, .F. ) ;
#641 = DIRECTION ( 'NONE',  ( -0.000000000000000000, -0.000000000000000000, -1.000000000000000000 ) ) ;
#642 = CIRCLE ( 'NONE', #543, 0.7480314960629921295 ) ;
#643 = ADVANCED_FACE ( 'NONE', ( #653 ), #815, .T. ) ;
#644 = CIRCLE ( 'NONE', #931, 0.2559055099999999472 ) ;
#645 = AXIS2_PLACEMENT_3D ( 'NONE', #184, #483, #317 ) ;
#646 = ORIENTED_EDGE ( 'NONE', *, *, #855, .F. ) ;
#647 = LOCAL_TIME ( 16, 29, 34.00000000000000000, #443 ) ;
#648 = CARTESIAN_POINT ( 'NONE',  ( 0.5999999999999999778, 1.893700787401574992, 0.000000000000000000 ) ) ;
#649 = DIRECTION ( 'NONE',  ( -0.1961161351381840723, 0.9805806756909200006, 0.000000000000000000 ) ) ;
#650 = ORIENTED_EDGE ( 'NONE', *, *, #10, .F. ) ;
#651 = DIRECTION ( 'NONE',  ( 1.000000000000000000, 0.000000000000000000, 0.000000000000000000 ) ) ;
#652 = DIRECTION ( 'NONE',  ( -0.000000000000000000, -0.000000000000000000, 1.000000000000000000 ) ) ;
#653 = FACE_OUTER_BOUND ( 'NONE', #424, .T. ) ;
#654 = ORIENTED_EDGE ( 'NONE', *, *, #162, .T. ) ;
#655 = EDGE_CURVE ( 'NONE', #768, #76, #966, .T. ) ;
#656 = VECTOR ( 'NONE', #908, 39.37007874015748143 ) ;
#657 = DIRECTION ( 'NONE',  ( -1.000000000000000000, 0.000000000000000000, 0.000000000000000000 ) ) ;
#658 = AXIS2_PLACEMENT_3D ( 'NONE', #974, #591, #434 ) ;
#659 = DIRECTION ( 'NONE',  ( 1.000000000000000000, 0.000000000000000000, 0.000000000000000000 ) ) ;
#660 = ORIENTED_EDGE ( 'NONE', *, *, #842, .F. ) ;
#661 = FACE_BOUND ( 'NONE', #120, .T. ) ;
#662 = FACE_OUTER_BOUND ( 'NONE', #482, .T. ) ;
#663 = DIRECTION ( 'NONE',  ( -0.000000000000000000, -0.000000000000000000, 1.000000000000000000 ) ) ;
#664 = EDGE_LOOP ( 'NONE', ( #1014, #630 ) ) ;
#665 = EDGE_CURVE ( 'NONE', #203, #756, #11, .T. ) ;
#666 = CARTESIAN_POINT ( 'NONE',  ( -0.04902903378454628869, 1.801870277868608650, 0.2500000000000000000 ) ) ;
#667 = ORIENTED_EDGE ( 'NONE', *, *, #488, .F. ) ;
#668 = CARTESIAN_POINT ( 'NONE',  ( 0.000000000000000000, 0.000000000000000000, -3.937007874016270969E-05 ) ) ;
#669 = VERTEX_POINT ( 'NONE', #648 ) ;
#670 = ADVANCED_FACE ( 'NONE', ( #504 ), #107, .T. ) ;
#671 = CARTESIAN_POINT ( 'NONE',  ( -0.5999999999999999778, 1.893700787401574992, 0.2500000000000000000 ) ) ;
#672 = EDGE_CURVE ( 'NONE', #496, #371, #95, .T. ) ;
#673 = CARTESIAN_POINT ( 'NONE',  ( 0.000000000000000000, 0.000000000000000000, -3.937007874016270969E-05 ) ) ;
#674 = VECTOR ( 'NONE', #455, 39.37007874015748143 ) ;
#675 = DIRECTION ( 'NONE',  ( 1.000000000000000000, 0.000000000000000000, 0.000000000000000000 ) ) ;
#676 = VERTEX_POINT ( 'NONE', #733 ) ;
#677 = CIRCLE ( 'NONE', #44, 0.7480314960629922405 ) ;
#678 = AXIS2_PLACEMENT_3D ( 'NONE', #864, #63, #544 ) ;
#679 = DIRECTION ( 'NONE',  ( -0.000000000000000000, -0.000000000000000000, -1.000000000000000000 ) ) ;
#680 = LINE ( 'NONE', #283, #441 ) ;
#681 = FACE_BOUND ( 'NONE', #526, .T. ) ;
#682 = ORIENTED_EDGE ( 'NONE', *, *, #672, .T. ) ;
#683 = FACE_OUTER_BOUND ( 'NONE', #919, .T. ) ;
#684 = EDGE_CURVE ( 'NONE', #1020, #203, #903, .T. ) ;
#685 = DIRECTION ( 'NONE',  ( -0.000000000000000000, -0.000000000000000000, 1.000000000000000000 ) ) ;
#686 = CARTESIAN_POINT ( 'NONE',  ( -0.04902903378454584460, -1.801870277868608650, 0.2500000000000000000 ) ) ;
#687 = ORIENTED_EDGE ( 'NONE', *, *, #100, .F. ) ;
#688 = EDGE_CURVE ( 'NONE', #76, #97, #22, .T. ) ;
#689 = EDGE_CURVE ( 'NONE', #990, #703, #909, .T. ) ;
#690 = DIRECTION ( 'NONE',  ( -0.000000000000000000, -0.000000000000000000, -1.000000000000000000 ) ) ;
#691 = EDGE_LOOP ( 'NONE', ( #18, #505, #140, #454 ) ) ;
#692 = VECTOR ( 'NONE', #161, 39.37007874015748143 ) ;
#693 = AXIS2_PLACEMENT_3D ( 'NONE', #753, #501, #347 ) ;
#694 = APPLICATION_PROTOCOL_DEFINITION ( 'international standard', 'config_control_design', 1994, #356 ) ;
#695 = ORIENTED_EDGE ( 'NONE', *, *, #10, .T. ) ;
#696 = CARTESIAN_POINT ( 'NONE',  ( 0.2390098048640720285, 0.5970154467913388885, 0.000000000000000000 ) ) ;
#697 = APPROVAL_DATE_TIME ( #463, #340 ) ;
#698 = EDGE_CURVE ( 'NONE', #9, #137, #776, .T. ) ;
#699 = ORIENTED_EDGE ( 'NONE', *, *, #766, .F. ) ;
#700 = EDGE_CURVE ( 'NONE', #990, #137, #610, .T. ) ;
#701 = CARTESIAN_POINT ( 'NONE',  ( 0.2390098048640721673, -0.5970154467913388885, 0.2500000000000000000 ) ) ;
#702 = PERSON_AND_ORGANIZATION_ROLE ( 'creator' ) ;
#703 = VERTEX_POINT ( 'NONE', #686 ) ;
#704 = DIRECTION ( 'NONE',  ( 1.428732178590905242E-16, -1.000000000000000000, 0.000000000000000000 ) ) ;
#705 = ORIENTED_EDGE ( 'NONE', *, *, #420, .T. ) ;
#706 = AXIS2_PLACEMENT_3D ( 'NONE', #263, #652, #590 ) ;
#707 = CIRCLE ( 'NONE', #579, 0.04999999999999994726 ) ;
#708 = AXIS2_PLACEMENT_3D ( 'NONE', #200, #593, #838 ) ;
#709 = CARTESIAN_POINT ( 'NONE',  ( 0.000000000000000000, 0.000000000000000000, 0.000000000000000000 ) ) ;
#710 = LOCAL_TIME ( 16, 29, 34.00000000000000000, #558 ) ;
#711 = EDGE_LOOP ( 'NONE', ( #392, #447, #571, #47 ) ) ;
#712 = DIRECTION ( 'NONE',  ( -1.000000000000000000, 0.000000000000000000, 0.000000000000000000 ) ) ;
#713 = EDGE_LOOP ( 'NONE', ( #997, #334, #235, #783, #789, #773, #217 ) ) ;
#714 = CARTESIAN_POINT ( 'NONE',  ( -0.2390098048640720285, -0.5470154467913388441, 0.000000000000000000 ) ) ;
#715 = EDGE_CURVE ( 'NONE', #756, #928, #677, .T. ) ;
#716 = ORIENTED_EDGE ( 'NONE', *, *, #766, .T. ) ;
#717 = DIRECTION ( 'NONE',  ( -0.000000000000000000, -0.000000000000000000, -1.000000000000000000 ) ) ;
#718 = ADVANCED_FACE ( 'NONE', ( #532 ), #984, .F. ) ;
#719 = CARTESIAN_POINT ( 'NONE',  ( -1.199999999999999956, 2.626938671908090939, 0.000000000000000000 ) ) ;
#720 = ORIENTED_EDGE ( 'NONE', *, *, #492, .F. ) ;
#721 = CARTESIAN_POINT ( 'NONE',  ( 0.2880388386486181784, -0.6068212535482478964, 0.000000000000000000 ) ) ;
#722 = ORIENTED_EDGE ( 'NONE', *, *, #41, .F. ) ;
#723 = CARTESIAN_POINT ( 'NONE',  ( 0.2890098048640720729, -0.5970154467913388885, 0.2500000000000000000 ) ) ;
#724 = VECTOR ( 'NONE', #172, 39.37007874015748143 ) ;
#725 = VECTOR ( 'NONE', #566, 39.37007874015748143 ) ;
#726 = AXIS2_PLACEMENT_3D ( 'NONE', #432, #34, #186 ) ;
#727 = DIRECTION ( 'NONE',  ( 0.9805806756909202226, 0.1961161351381841278, 0.000000000000000000 ) ) ;
#728 = EDGE_LOOP ( 'NONE', ( #1011, #564, #135, #682 ) ) ;
#729 = CARTESIAN_POINT ( 'NONE',  ( 1.199999999999999956, -2.626938671908090939, 0.2500000000000000000 ) ) ;
#730 = VERTEX_POINT ( 'NONE', #841 ) ;
#731 = PLANE ( 'NONE',  #289 ) ;
#732 = DIRECTION ( 'NONE',  ( -0.1961161351381838225, -0.9805806756909202226, 0.000000000000000000 ) ) ;
#733 = CARTESIAN_POINT ( 'NONE',  ( 0.05905511999999998873, -0.4249999999999999889, 0.000000000000000000 ) ) ;
#734 = ORIENTED_EDGE ( 'NONE', *, *, #896, .F. ) ;
#735 = ADVANCED_FACE ( 'NONE', ( #446 ), #767, .F. ) ;
#736 = CARTESIAN_POINT ( 'NONE',  ( 0.000000000000000000, 0.4249999999999999889, 0.000000000000000000 ) ) ;
#737 = DIRECTION ( 'NONE',  ( 1.000000000000000000, 0.000000000000000000, 0.000000000000000000 ) ) ;
#738 = EDGE_LOOP ( 'NONE', ( #695, #943, #416, #780 ) ) ;
#739 = VECTOR ( 'NONE', #941, 39.37007874015748143 ) ;
#740 = DIRECTION ( 'NONE',  ( -0.1961161351381838225, -0.9805806756909202226, 0.000000000000000000 ) ) ;
#741 = VECTOR ( 'NONE', #863, 39.37007874015748143 ) ;
#742 = DIRECTION ( 'NONE',  ( 0.000000000000000000, 0.000000000000000000, 1.000000000000000000 ) ) ;
#743 = AXIS2_PLACEMENT_3D ( 'NONE', #978, #904, #675 ) ;
#744 = DIRECTION ( 'NONE',  ( -0.000000000000000000, -0.000000000000000000, -1.000000000000000000 ) ) ;
#745 = EDGE_LOOP ( 'NONE', ( #577, #800, #849, #856 ) ) ;
#746 = PRODUCT_DEFINITION_FORMATION_WITH_SPECIFIED_SOURCE ( 'ANY', '', #574, .NOT_KNOWN. ) ;
#747 = CC_DESIGN_PERSON_AND_ORGANIZATION_ASSIGNMENT ( #1005, #702, ( #746 ) ) ;
#748 = DIRECTION ( 'NONE',  ( -0.000000000000000000, -0.000000000000000000, 1.000000000000000000 ) ) ;
#749 = DIRECTION ( 'NONE',  ( 0.000000000000000000, 0.000000000000000000, 1.000000000000000000 ) ) ;
#750 = ADVANCED_FACE ( 'NONE', ( #835 ), #918, .F. ) ;
#751 = PLANE ( 'NONE',  #860 ) ;
#752 = ORIENTED_EDGE ( 'NONE', *, *, #28, .F. ) ;
#753 = CARTESIAN_POINT ( 'NONE',  ( 0.000000000000000000, -0.4249999999999999889, 0.2500000000000000000 ) ) ;
#754 = CARTESIAN_POINT ( 'NONE',  ( 0.04902903378454627481, -1.801870277868608650, 0.2500000000000000000 ) ) ;
#755 = CARTESIAN_POINT ( 'NONE',  ( -0.04902903378454584460, -1.801870277868608650, 0.000000000000000000 ) ) ;
#756 = VERTEX_POINT ( 'NONE', #831 ) ;
#757 = CARTESIAN_POINT ( 'NONE',  ( 0.2390098048640721673, -0.5470154467913389551, 0.000000000000000000 ) ) ;
#758 = LINE ( 'NONE', #616, #287 ) ;
#759 = AXIS2_PLACEMENT_3D ( 'NONE', #967, #742, #31 ) ;
#760 = AXIS2_PLACEMENT_3D ( 'NONE', #221, #462, #781 ) ;
#761 = CARTESIAN_POINT ( 'NONE',  ( 0.5999999999999999778, 1.893700787401574992, 0.2500000000000000000 ) ) ;
#762 = ORIENTED_EDGE ( 'NONE', *, *, #986, .T. ) ;
#763 = VECTOR ( 'NONE', #197, 39.37007874015748854 ) ;
#764 = DIRECTION ( 'NONE',  ( -0.000000000000000000, -0.000000000000000000, 1.000000000000000000 ) ) ;
#765 = FACE_OUTER_BOUND ( 'NONE', #12, .T. ) ;
#766 = EDGE_CURVE ( 'NONE', #669, #308, #545, .T. ) ;
#767 = PLANE ( 'NONE',  #459 ) ;
#768 = VERTEX_POINT ( 'NONE', #40 ) ;
#769 = CARTESIAN_POINT ( 'NONE',  ( 0.000000000000000000, -0.4249999999999999889, 0.000000000000000000 ) ) ;
#770 = ORIENTED_EDGE ( 'NONE', *, *, #986, .F. ) ;
#771 = ADVANCED_FACE ( 'NONE', ( #123 ), #848, .F. ) ;
#772 = PERSON_AND_ORGANIZATION ( #141, #194 ) ;
#773 = ORIENTED_EDGE ( 'NONE', *, *, #655, .T. ) ;
#774 = DIRECTION ( 'NONE',  ( -1.000000000000000000, 0.000000000000000000, 0.000000000000000000 ) ) ;
#775 = CIRCLE ( 'NONE', #321, 0.05000000000000007216 ) ;
#776 = CIRCLE ( 'NONE', #305, 0.04999999999999994726 ) ;
#777 = EDGE_CURVE ( 'NONE', #306, #37, #127, .T. ) ;
#778 = COORDINATED_UNIVERSAL_TIME_OFFSET ( 8, 0, .BEHIND. ) ;
#779 = EDGE_CURVE ( 'NONE', #881, #798, #324, .T. ) ;
#780 = ORIENTED_EDGE ( 'NONE', *, *, #315, .F. ) ;
#781 = DIRECTION ( 'NONE',  ( -1.000000000000000000, 0.000000000000000000, 0.000000000000000000 ) ) ;
#782 = CALENDAR_DATE ( 2026, 20, 3 ) ;
#783 = ORIENTED_EDGE ( 'NONE', *, *, #485, .T. ) ;
#784 = DIRECTION ( 'NONE',  ( -0.1961161351381840723, 0.9805806756909202226, 0.000000000000000000 ) ) ;
#785 = FACE_OUTER_BOUND ( 'NONE', #728, .T. ) ;
#786 = DIRECTION ( 'NONE',  ( 0.000000000000000000, 0.000000000000000000, 1.000000000000000000 ) ) ;
#787 = ORIENTED_EDGE ( 'NONE', *, *, #24, .F. ) ;
#788 = CARTESIAN_POINT ( 'NONE',  ( -0.5999999999999999778, 1.893700787401574992, 0.000000000000000000 ) ) ;
#789 = ORIENTED_EDGE ( 'NONE', *, *, #582, .T. ) ;
#790 = AXIS2_PLACEMENT_3D ( 'NONE', #236, #858, #774 ) ;
#791 = CARTESIAN_POINT ( 'NONE',  ( 0.000000000000000000, 0.000000000000000000, 0.2500000000000000000 ) ) ;
#792 = VECTOR ( 'NONE', #764, 39.37007874015748143 ) ;
#793 = EDGE_CURVE ( 'NONE', #970, #928, #46, .T. ) ;
#794 = ORIENTED_EDGE ( 'NONE', *, *, #261, .F. ) ;
#795 = EDGE_CURVE ( 'NONE', #88, #323, #188, .T. ) ;
#796 = CARTESIAN_POINT ( 'NONE',  ( 0.04902903378454627481, -1.801870277868608650, 0.000000000000000000 ) ) ;
#797 = CYLINDRICAL_SURFACE ( 'NONE', #476, 0.05905511999999998873 ) ;
#798 = VERTEX_POINT ( 'NONE', #827 ) ;
#799 = CARTESIAN_POINT ( 'NONE',  ( 0.04902903378454584460, 1.801870277868608650, 0.2500000000000000000 ) ) ;
#800 = ORIENTED_EDGE ( 'NONE', *, *, #612, .T. ) ;
#801 = SHAPE_DEFINITION_REPRESENTATION ( #251, #8 ) ;
#802 = LINE ( 'NONE', #714, #692 ) ;
#803 = ORIENTED_EDGE ( 'NONE', *, *, #162, .F. ) ;
#804 = DIRECTION ( 'NONE',  ( -0.1961161351381840445, 0.9805806756909200006, 0.000000000000000000 ) ) ;
#805 = VERTEX_POINT ( 'NONE', #761 ) ;
#806 = ADVANCED_FACE ( 'NONE', ( #268, #681, #989, #36, #430, #279 ), #751, .T. ) ;
#807 = CIRCLE ( 'NONE', #29, 0.05905511999999998873 ) ;
#808 = AXIS2_PLACEMENT_3D ( 'NONE', #668, #129, #134 ) ;
#809 = AXIS2_PLACEMENT_3D ( 'NONE', #901, #262, #126 ) ;
#810 = DIRECTION ( 'NONE',  ( -0.9805806756909202226, 0.1961161351381838225, 0.000000000000000000 ) ) ;
#811 =( GEOMETRIC_REPRESENTATION_CONTEXT ( 3 ) GLOBAL_UNCERTAINTY_ASSIGNED_CONTEXT ( ( #325 ) ) GLOBAL_UNIT_ASSIGNED_CONTEXT ( ( #294, #468, #70 ) ) REPRESENTATION_CONTEXT ( 'NONE', 'WORKASPACE' ) );
#812 = FACE_OUTER_BOUND ( 'NONE', #1003, .T. ) ;
#813 = ORIENTED_EDGE ( 'NONE', *, *, #281, .T. ) ;
#814 = CARTESIAN_POINT ( 'NONE',  ( -0.2390098048640721673, 0.5470154467913389551, 0.2500000000000000000 ) ) ;
#815 = PLANE ( 'NONE',  #142 ) ;
#816 = VERTEX_POINT ( 'NONE', #376 ) ;
#817 = CARTESIAN_POINT ( 'NONE',  ( -0.05905511999999998873, 0.4249999999999999889, 0.000000000000000000 ) ) ;
#818 = LINE ( 'NONE', #575, #857 ) ;
#819 = FACE_OUTER_BOUND ( 'NONE', #711, .T. ) ;
#820 = CC_DESIGN_PERSON_AND_ORGANIZATION_ASSIGNMENT ( #772, #637, ( #427 ) ) ;
#821 = ORIENTED_EDGE ( 'NONE', *, *, #7, .F. ) ;
#822 = ADVANCED_FACE ( 'NONE', ( #1002 ), #1019, .F. ) ;
#823 = CARTESIAN_POINT ( 'NONE',  ( 0.05905511999999998873, 0.4249999999999999889, 0.000000000000000000 ) ) ;
#824 = CIRCLE ( 'NONE', #226, 0.7480314960629922405 ) ;
#825 = CARTESIAN_POINT ( 'NONE',  ( -0.05905511999999998873, 0.4249999999999999889, 0.000000000000000000 ) ) ;
#826 = VECTOR ( 'NONE', #589, 39.37007874015748143 ) ;
#827 = CARTESIAN_POINT ( 'NONE',  ( -0.05905511999999998873, 0.4249999999999999889, 0.2500000000000000000 ) ) ;
#828 = ORIENTED_EDGE ( 'NONE', *, *, #502, .F. ) ;
#829 = LINE ( 'NONE', #823, #792 ) ;
#830 = CARTESIAN_POINT ( 'NONE',  ( -0.04902903378454628869, 1.801870277868608650, 0.000000000000000000 ) ) ;
#831 = CARTESIAN_POINT ( 'NONE',  ( 1.199999999999999956, -2.626938671908090939, 0.000000000000000000 ) ) ;
#832 = ORIENTED_EDGE ( 'NONE', *, *, #954, .T. ) ;
#833 = DIRECTION ( 'NONE',  ( -0.000000000000000000, -0.000000000000000000, 1.000000000000000000 ) ) ;
#834 = CARTESIAN_POINT ( 'NONE',  ( -0.2390098048640721673, 0.5470154467913388441, 0.000000000000000000 ) ) ;
#835 = FACE_OUTER_BOUND ( 'NONE', #691, .T. ) ;
#836 = ORIENTED_EDGE ( 'NONE', *, *, #144, .T. ) ;
#837 = EDGE_CURVE ( 'NONE', #879, #371, #1009, .T. ) ;
#838 = DIRECTION ( 'NONE',  ( -1.000000000000000000, 0.000000000000000000, 0.000000000000000000 ) ) ;
#839 = DIRECTION ( 'NONE',  ( 1.000000000000000000, 0.000000000000000000, 0.000000000000000000 ) ) ;
#840 = VECTOR ( 'NONE', #784, 39.37007874015748854 ) ;
#841 = CARTESIAN_POINT ( 'NONE',  ( 0.05905511999999998873, -0.4249999999999999889, 0.2500000000000000000 ) ) ;
#842 = EDGE_CURVE ( 'NONE', #329, #431, #310, .T. ) ;
#843 = ORIENTED_EDGE ( 'NONE', *, *, #689, .F. ) ;
#844 = VECTOR ( 'NONE', #892, 39.37007874015748143 ) ;
#845 = PERSON_AND_ORGANIZATION ( #141, #194 ) ;
#846 = ADVANCED_FACE ( 'NONE', ( #562 ), #731, .F. ) ;
#847 = CYLINDRICAL_SURFACE ( 'NONE', #338, 0.2559055099999999472 ) ;
#848 = CYLINDRICAL_SURFACE ( 'NONE', #658, 0.05000000000000007216 ) ;
#849 = ORIENTED_EDGE ( 'NONE', *, *, #777, .T. ) ;
#850 = APPROVAL_DATE_TIME ( #219, #923 ) ;
#851 = CARTESIAN_POINT ( 'NONE',  ( -0.2880388386486179564, -0.6068212535482481185, 0.000000000000000000 ) ) ;
#852 = EDGE_LOOP ( 'NONE', ( #916, #588, #405, #292, #300, #435 ) ) ;
#853 = CC_DESIGN_PERSON_AND_ORGANIZATION_ASSIGNMENT ( #935, #150, ( #574 ) ) ;
#854 = CARTESIAN_POINT ( 'NONE',  ( 0.2880388386486180119, 0.6068212535482480074, 0.2500000000000000000 ) ) ;
#855 = EDGE_CURVE ( 'NONE', #970, #805, #17, .T. ) ;
#856 = ORIENTED_EDGE ( 'NONE', *, *, #912, .F. ) ;
#857 = VECTOR ( 'NONE', #112, 39.37007874015748143 ) ;
#858 = DIRECTION ( 'NONE',  ( -0.000000000000000000, -0.000000000000000000, -1.000000000000000000 ) ) ;
#859 = EDGE_CURVE ( 'NONE', #227, #865, #599, .T. ) ;
#860 = AXIS2_PLACEMENT_3D ( 'NONE', #606, #349, #942 ) ;
#861 = APPROVAL_ROLE ( '' ) ;
#862 = VERTEX_POINT ( 'NONE', #757 ) ;
#863 = DIRECTION ( 'NONE',  ( 1.000000000000000000, 1.428732178590905489E-16, 0.000000000000000000 ) ) ;
#864 = CARTESIAN_POINT ( 'NONE',  ( 0.2390098048640721673, -0.5970154467913388885, 0.000000000000000000 ) ) ;
#865 = VERTEX_POINT ( 'NONE', #913 ) ;
#866 = CARTESIAN_POINT ( 'NONE',  ( -0.2880388386486179564, -0.6068212535482481185, 0.000000000000000000 ) ) ;
#867 = DIRECTION ( 'NONE',  ( 1.000000000000000000, 0.000000000000000000, 0.000000000000000000 ) ) ;
#868 = EDGE_CURVE ( 'NONE', #403, #730, #58, .T. ) ;
#869 = ORIENTED_EDGE ( 'NONE', *, *, #868, .F. ) ;
#870 = ADVANCED_FACE ( 'NONE', ( #282 ), #111, .F. ) ;
#871 = CARTESIAN_POINT ( 'NONE',  ( -0.05905511999999998873, -0.4249999999999999889, 0.2500000000000000000 ) ) ;
#872 = ORIENTED_EDGE ( 'NONE', *, *, #868, .T. ) ;
#873 = CIRCLE ( 'NONE', #996, 0.2559055099999999472 ) ;
#874 = AXIS2_PLACEMENT_3D ( 'NONE', #701, #717, #551 ) ;
#875 = CARTESIAN_POINT ( 'NONE',  ( -1.199999999999999956, 2.626938671908090939, 0.2500000000000000000 ) ) ;
#876 = CIRCLE ( 'NONE', #413, 0.2559055099999999472 ) ;
#877 = ORIENTED_EDGE ( 'NONE', *, *, #164, .F. ) ;
#878 = FACE_OUTER_BOUND ( 'NONE', #237, .T. ) ;
#879 = VERTEX_POINT ( 'NONE', #273 ) ;
#880 = PLANE ( 'NONE',  #410 ) ;
#881 = VERTEX_POINT ( 'NONE', #360 ) ;
#882 = DIRECTION ( 'NONE',  ( 8.957264075611739628E-17, 1.000000000000000000, 0.000000000000000000 ) ) ;
#883 = ORIENTED_EDGE ( 'NONE', *, *, #101, .T. ) ;
#884 = DIRECTION ( 'NONE',  ( 1.000000000000000000, 0.000000000000000000, 0.000000000000000000 ) ) ;
#885 = DIRECTION ( 'NONE',  ( 1.000000000000000000, -8.957264075611739628E-17, 0.000000000000000000 ) ) ;
#886 = ORIENTED_EDGE ( 'NONE', *, *, #939, .T. ) ;
#887 = VECTOR ( 'NONE', #128, 39.37007874015748143 ) ;
#888 = VECTOR ( 'NONE', #439, 39.37007874015748143 ) ;
#889 = DIRECTION ( 'NONE',  ( -0.000000000000000000, -0.000000000000000000, 1.000000000000000000 ) ) ;
#890 = DIRECTION ( 'NONE',  ( -0.000000000000000000, -0.000000000000000000, -1.000000000000000000 ) ) ;
#891 = VERTEX_POINT ( 'NONE', #817 ) ;
#892 = DIRECTION ( 'NONE',  ( -0.000000000000000000, -0.000000000000000000, 1.000000000000000000 ) ) ;
#893 = DIRECTION ( 'NONE',  ( -0.1961161351381838225, -0.9805806756909202226, 0.000000000000000000 ) ) ;
#894 = DIRECTION ( 'NONE',  ( -0.1961161351381838225, -0.9805806756909202226, 0.000000000000000000 ) ) ;
#895 = ORIENTED_EDGE ( 'NONE', *, *, #311, .F. ) ;
#896 = EDGE_CURVE ( 'NONE', #489, #881, #829, .T. ) ;
#897 = CARTESIAN_POINT ( 'NONE',  ( -0.04902903378454584460, -1.801870277868608650, 0.000000000000000000 ) ) ;
#898 = LINE ( 'NONE', #178, #627 ) ;
#899 = DIRECTION ( 'NONE',  ( 1.000000000000000000, 0.000000000000000000, 0.000000000000000000 ) ) ;
#900 = VERTEX_POINT ( 'NONE', #428 ) ;
#901 = CARTESIAN_POINT ( 'NONE',  ( 0.000000000000000000, 0.4249999999999999889, 0.2500000000000000000 ) ) ;
#902 = CARTESIAN_POINT ( 'NONE',  ( 0.6453040016206120777, -1.412645030828522330, 0.000000000000000000 ) ) ;
#903 = CIRCLE ( 'NONE', #339, 1.334989399727346981 ) ;
#904 = DIRECTION ( 'NONE',  ( 0.000000000000000000, 0.000000000000000000, 1.000000000000000000 ) ) ;
#905 = EDGE_LOOP ( 'NONE', ( #716, #975, #382, #516 ) ) ;
#906 = LOCAL_TIME ( 16, 29, 34.00000000000000000, #778 ) ;
#907 = CARTESIAN_POINT ( 'NONE',  ( 0.6000000000000001998, -1.893700787401574992, 0.2500000000000000000 ) ) ;
#908 = DIRECTION ( 'NONE',  ( -0.000000000000000000, -0.000000000000000000, 1.000000000000000000 ) ) ;
#909 = LINE ( 'NONE', #32, #512 ) ;
#910 = ORIENTED_EDGE ( 'NONE', *, *, #179, .F. ) ;
#911 = EDGE_CURVE ( 'NONE', #798, #881, #920, .T. ) ;
#912 = EDGE_CURVE ( 'NONE', #76, #37, #30, .T. ) ;
#913 = CARTESIAN_POINT ( 'NONE',  ( -0.2880388386486179564, -0.6068212535482481185, 0.2500000000000000000 ) ) ;
#914 = DIRECTION ( 'NONE',  ( 0.000000000000000000, 0.000000000000000000, 1.000000000000000000 ) ) ;
#915 = CARTESIAN_POINT ( 'NONE',  ( 0.000000000000000000, 0.4249999999999999889, 0.2500000000000000000 ) ) ;
#916 = ORIENTED_EDGE ( 'NONE', *, *, #100, .T. ) ;
#917 = CARTESIAN_POINT ( 'NONE',  ( 0.2559055099999999472, 0.000000000000000000, -3.937007874016270969E-05 ) ) ;
#918 = CYLINDRICAL_SURFACE ( 'NONE', #77, 0.04999999999999994726 ) ;
#919 = EDGE_LOOP ( 'NONE', ( #470, #408, #985, #53 ) ) ;
#920 = CIRCLE ( 'NONE', #809, 0.05905511999999998873 ) ;
#921 = PERSON_AND_ORGANIZATION ( #141, #194 ) ;
#922 = DIRECTION ( 'NONE',  ( -0.000000000000000000, -0.000000000000000000, -1.000000000000000000 ) ) ;
#923 = APPROVAL ( #231, 'UNSPECIFIED' ) ;
#924 = ORIENTED_EDGE ( 'NONE', *, *, #779, .F. ) ;
#925 = CARTESIAN_POINT ( 'NONE',  ( 0.2880388386486181784, -0.6068212535482478964, 0.000000000000000000 ) ) ;
#926 = ADVANCED_FACE ( 'NONE', ( #683 ), #38, .F. ) ;
#927 = EDGE_CURVE ( 'NONE', #308, #380, #160, .T. ) ;
#928 = VERTEX_POINT ( 'NONE', #195 ) ;
#929 = DIRECTION ( 'NONE',  ( 0.000000000000000000, 0.000000000000000000, 1.000000000000000000 ) ) ;
#930 = ORIENTED_EDGE ( 'NONE', *, *, #393, .T. ) ;
#931 = AXIS2_PLACEMENT_3D ( 'NONE', #290, #449, #867 ) ;
#932 = CARTESIAN_POINT ( 'NONE',  ( 0.2880388386486181784, -0.6068212535482478964, 0.2500000000000000000 ) ) ;
#933 = APPROVAL_PERSON_ORGANIZATION ( #845, #923, #861 ) ;
#934 = APPROVAL_PERSON_ORGANIZATION ( #331, #944, #167 ) ;
#935 = PERSON_AND_ORGANIZATION ( #141, #194 ) ;
#936 = ORIENTED_EDGE ( 'NONE', *, *, #688, .F. ) ;
#937 = FACE_OUTER_BOUND ( 'NONE', #905, .T. ) ;
#938 = ORIENTED_EDGE ( 'NONE', *, *, #912, .T. ) ;
#939 = EDGE_CURVE ( 'NONE', #327, #879, #876, .T. ) ;
#940 = DATE_AND_TIME ( #466, #710 ) ;
#941 = DIRECTION ( 'NONE',  ( -0.000000000000000000, -0.000000000000000000, 1.000000000000000000 ) ) ;
#942 = DIRECTION ( 'NONE',  ( 1.000000000000000000, 0.000000000000000000, -0.000000000000000000 ) ) ;
#943 = ORIENTED_EDGE ( 'NONE', *, *, #795, .T. ) ;
#944 = APPROVAL ( #946, 'UNSPECIFIED' ) ;
#945 = PLANE ( 'NONE',  #951 ) ;
#946 = APPROVAL_STATUS ( 'not_yet_approved' ) ;
#947 = DIRECTION ( 'NONE',  ( 1.000000000000000000, 0.000000000000000000, 0.000000000000000000 ) ) ;
#948 = EDGE_LOOP ( 'NONE', ( #57, #910, #828, #836 ) ) ;
#949 = DIRECTION ( 'NONE',  ( -0.000000000000000000, -0.000000000000000000, -1.000000000000000000 ) ) ;
#950 = ORIENTED_EDGE ( 'NONE', *, *, #7, .T. ) ;
#951 = AXIS2_PLACEMENT_3D ( 'NONE', #299, #704, #394 ) ;
#952 = DIRECTION ( 'NONE',  ( 1.000000000000000000, 0.000000000000000000, 0.000000000000000000 ) ) ;
#953 = CC_DESIGN_APPROVAL ( #944, ( #427 ) ) ;
#954 = EDGE_CURVE ( 'NONE', #329, #377, #987, .T. ) ;
#955 = EDGE_LOOP ( 'NONE', ( #166, #699, #491, #337, #248, #241 ) ) ;
#956 = CARTESIAN_POINT ( 'NONE',  ( 0.6453040016206120777, -1.412645030828522330, 0.2500000000000000000 ) ) ;
#957 = ORIENTED_EDGE ( 'NONE', *, *, #488, .T. ) ;
#958 = EDGE_CURVE ( 'NONE', #730, #403, #358, .T. ) ;
#959 = DIRECTION ( 'NONE',  ( -0.000000000000000000, -0.000000000000000000, 1.000000000000000000 ) ) ;
#960 = CARTESIAN_POINT ( 'NONE',  ( -0.6000000000000001998, -1.893700787401574992, 0.2500000000000000000 ) ) ;
#961 = ORIENTED_EDGE ( 'NONE', *, *, #144, .F. ) ;
#962 = DIRECTION ( 'NONE',  ( 0.000000000000000000, 0.000000000000000000, 1.000000000000000000 ) ) ;
#963 = DIRECTION ( 'NONE',  ( -0.000000000000000000, -0.000000000000000000, 1.000000000000000000 ) ) ;
#964 = ORIENTED_EDGE ( 'NONE', *, *, #409, .F. ) ;
#965 = CIRCLE ( 'NONE', #74, 0.04999999999999994726 ) ;
#966 = CIRCLE ( 'NONE', #426, 0.04999999999999994726 ) ;
#967 = CARTESIAN_POINT ( 'NONE',  ( 0.000000000000000000, -0.4249999999999999889, 0.000000000000000000 ) ) ;
#968 = EDGE_CURVE ( 'NONE', #380, #900, #121, .T. ) ;
#969 = DIRECTION ( 'NONE',  ( -1.000000000000000000, 0.000000000000000000, 0.000000000000000000 ) ) ;
#970 = VERTEX_POINT ( 'NONE', #907 ) ;
#971 = EDGE_CURVE ( 'NONE', #207, #380, #421, .T. ) ;
#972 = FACE_BOUND ( 'NONE', #555, .T. ) ;
#973 = CYLINDRICAL_SURFACE ( 'NONE', #706, 0.05905511999999998873 ) ;
#974 = CARTESIAN_POINT ( 'NONE',  ( 2.169665541973060070E-16, -1.792064471111699309, 0.000000000000000000 ) ) ;
#975 = ORIENTED_EDGE ( 'NONE', *, *, #177, .F. ) ;
#976 = FACE_OUTER_BOUND ( 'NONE', #955, .T. ) ;
#977 = DIRECTION ( 'NONE',  ( -1.000000000000000000, 0.000000000000000000, 0.000000000000000000 ) ) ;
#978 = CARTESIAN_POINT ( 'NONE',  ( -0.6453040016206121887, 1.412645030828522330, 0.000000000000000000 ) ) ;
#979 = ORIENTED_EDGE ( 'NONE', *, *, #471, .T. ) ;
#980 = AXIS2_PLACEMENT_3D ( 'NONE', #417, #594, #493 ) ;
#981 = FACE_BOUND ( 'NONE', #664, .T. ) ;
#982 = CARTESIAN_POINT ( 'NONE',  ( 0.2390098048640721673, -0.5470154467913389551, 0.2500000000000000000 ) ) ;
#983 = VECTOR ( 'NONE', #740, 39.37007874015748143 ) ;
#984 = CYLINDRICAL_SURFACE ( 'NONE', #808, 0.2559055099999999472 ) ;
#985 = ORIENTED_EDGE ( 'NONE', *, *, #24, .T. ) ;
#986 = EDGE_CURVE ( 'NONE', #450, #181, #48, .T. ) ;
#987 = LINE ( 'NONE', #116, #844 ) ;
#988 = CYLINDRICAL_SURFACE ( 'NONE', #56, 0.05905511999999998873 ) ;
#989 = FACE_BOUND ( 'NONE', #503, .T. ) ;
#990 = VERTEX_POINT ( 'NONE', #897 ) ;
#991 = DIRECTION ( 'NONE',  ( 0.000000000000000000, 0.000000000000000000, 1.000000000000000000 ) ) ;
#992 = DIRECTION ( 'NONE',  ( -0.000000000000000000, -0.000000000000000000, 1.000000000000000000 ) ) ;
#993 = CARTESIAN_POINT ( 'NONE',  ( 0.2390098048640720285, 0.5970154467913388885, 0.2500000000000000000 ) ) ;
#994 = ORIENTED_EDGE ( 'NONE', *, *, #66, .T. ) ;
#995 = DIRECTION ( 'NONE',  ( -1.000000000000000000, 0.000000000000000000, 0.000000000000000000 ) ) ;
#996 = AXIS2_PLACEMENT_3D ( 'NONE', #791, #274, #205 ) ;
#997 = ORIENTED_EDGE ( 'NONE', *, *, #502, .T. ) ;
#998 = VECTOR ( 'NONE', #379, 39.37007874015748143 ) ;
#999 = ADVANCED_FACE ( 'NONE', ( #277, #976, #981, #437, #661, #972 ), #204, .F. ) ;
#1000 = APPROVAL_PERSON_ORGANIZATION ( #608, #340, #136 ) ;
#1001 = DIRECTION ( 'NONE',  ( 1.000000000000000000, 0.000000000000000000, -0.000000000000000000 ) ) ;
#1002 = FACE_OUTER_BOUND ( 'NONE', #584, .T. ) ;
#1003 = EDGE_LOOP ( 'NONE', ( #51, #500, #895, #269 ) ) ;
#1004 = CYLINDRICAL_SURFACE ( 'NONE', #790, 1.334989399727346759 ) ;
#1005 = PERSON_AND_ORGANIZATION ( #141, #194 ) ;
#1006 = ORIENTED_EDGE ( 'NONE', *, *, #492, .T. ) ;
#1007 = DIRECTION ( 'NONE',  ( 1.000000000000000000, 0.000000000000000000, 0.000000000000000000 ) ) ;
#1008 = PERSON_AND_ORGANIZATION_ROLE ( 'design_supplier' ) ;
#1009 = LINE ( 'NONE', #391, #998 ) ;
#1010 = VECTOR ( 'NONE', #732, 39.37007874015748143 ) ;
#1011 = ORIENTED_EDGE ( 'NONE', *, *, #837, .F. ) ;
#1012 = AXIS2_PLACEMENT_3D ( 'NONE', #370, #690, #995 ) ;
#1013 = CARTESIAN_POINT ( 'NONE',  ( -0.2390098048640721673, 0.5470154467913389551, 0.000000000000000000 ) ) ;
#1014 = ORIENTED_EDGE ( 'NONE', *, *, #939, .F. ) ;
#1015 = VECTOR ( 'NONE', #213, 39.37007874015748854 ) ;
#1016 = ADVANCED_FACE ( 'NONE', ( #224 ), #303, .F. ) ;
#1017 = CARTESIAN_POINT ( 'NONE',  ( 0.2390098048640720285, 0.5470154467913389551, 0.000000000000000000 ) ) ;
#1018 = PERSON_AND_ORGANIZATION ( #141, #194 ) ;
#1019 = CYLINDRICAL_SURFACE ( 'NONE', #442, 0.7480314960629920185 ) ;
#1020 = VERTEX_POINT ( 'NONE', #619 ) ;
#1021 = LINE ( 'NONE', #399, #674 ) ;
#1022 = EDGE_LOOP ( 'NONE', ( #81, #720, #350, #368 ) ) ;
ENDSEC;
END-ISO-10303-21;
