ISO-10303-21;
HEADER;
FILE_DESCRIPTION (( 'STEP AP203' ),
    '1' );
FILE_NAME ('Spacer (Weapon Stack).STEP',
    '2026-04-28T04:00:05',
    ( '' ),
    ( '' ),
    'SwSTEP 2.0',
    'SolidWorks 2025',
    '' );
FILE_SCHEMA (( 'CONFIG_CONTROL_DESIGN' ));
ENDSEC;

DATA;
#1 = CC_DESIGN_PERSON_AND_ORGANIZATION_ASSIGNMENT ( #63, #68, ( #178 ) ) ;
#2 = CIRCLE ( 'NONE', #82, 0.2411417299999999986 ) ;
#3 = APPLICATION_PROTOCOL_DEFINITION ( 'international standard', 'config_control_design', 1994, #99 ) ;
#4 = EDGE_LOOP ( 'NONE', ( #60, #102, #51, #53 ) ) ;
#5 = CARTESIAN_POINT ( 'NONE',  ( 0.5000000000000000000, 2.953134477853552897E-17, -0.2411417299999999986 ) ) ;
#6 = CC_DESIGN_PERSON_AND_ORGANIZATION_ASSIGNMENT ( #96, #213, ( #93 ) ) ;
#7 = DIRECTION ( 'NONE',  ( -1.000000000000000000, -0.000000000000000000, -0.000000000000000000 ) ) ;
#8 = PRODUCT_DEFINITION_SHAPE ( 'NONE', 'NONE',  #93 ) ;
#9 = ADVANCED_FACE ( 'NONE', ( #140 ), #120, .F. ) ;
#10 = VECTOR ( 'NONE', #34, 39.37007874015748143 ) ;
#11 = VERTEX_POINT ( 'NONE', #222 ) ;
#12 = DIRECTION ( 'NONE',  ( 1.000000000000000000, 0.000000000000000000, 0.000000000000000000 ) ) ;
#13 = LINE ( 'NONE', #89, #10 ) ;
#14 = CARTESIAN_POINT ( 'NONE',  ( 0.000000000000000000, 0.000000000000000000, 0.000000000000000000 ) ) ;
#15 = CARTESIAN_POINT ( 'NONE',  ( 0.000000000000000000, 0.000000000000000000, 0.000000000000000000 ) ) ;
#16 = EDGE_CURVE ( 'NONE', #200, #49, #13, .T. ) ;
#17 = FACE_OUTER_BOUND ( 'NONE', #124, .T. ) ;
#18 = AXIS2_PLACEMENT_3D ( 'NONE', #70, #7, #176 ) ;
#19 = DIRECTION ( 'NONE',  ( 1.000000000000000000, 0.000000000000000000, 0.000000000000000000 ) ) ;
#20 = DIRECTION ( 'NONE',  ( 1.000000000000000000, 0.000000000000000000, 0.000000000000000000 ) ) ;
#21 = CALENDAR_DATE ( 2026, 27, 4 ) ;
#22 = DIRECTION ( 'NONE',  ( 0.000000000000000000, 0.000000000000000000, 1.000000000000000000 ) ) ;
#23 = COORDINATED_UNIVERSAL_TIME_OFFSET ( 8, 0, .BEHIND. ) ;
#24 = ORIENTED_EDGE ( 'NONE', *, *, #185, .T. ) ;
#25 = CARTESIAN_POINT ( 'NONE',  ( 0.000000000000000000, 0.000000000000000000, 0.000000000000000000 ) ) ;
#26 = CC_DESIGN_DATE_AND_TIME_ASSIGNMENT ( #169, #193, ( #93 ) ) ;
#27 = DIRECTION ( 'NONE',  ( -1.000000000000000000, -0.000000000000000000, -0.000000000000000000 ) ) ;
#28 = EDGE_CURVE ( 'NONE', #11, #32, #243, .T. ) ;
#29 = LOCAL_TIME ( 21, 0, 5.000000000000000000, #216 ) ;
#30 = ORIENTED_EDGE ( 'NONE', *, *, #37, .T. ) ;
#31 = CIRCLE ( 'NONE', #223, 0.5000000000000000000 ) ;
#32 = VERTEX_POINT ( 'NONE', #88 ) ;
#33 = APPROVAL ( #233, 'UNSPECIFIED' ) ;
#34 = DIRECTION ( 'NONE',  ( -1.000000000000000000, -0.000000000000000000, -0.000000000000000000 ) ) ;
#35 = LINE ( 'NONE', #147, #194 ) ;
#36 = PLANE ( 'NONE',  #168 ) ;
#37 = EDGE_CURVE ( 'NONE', #45, #182, #48, .T. ) ;
#38 = AXIS2_PLACEMENT_3D ( 'NONE', #25, #22, #20 ) ;
#39 = CC_DESIGN_APPROVAL ( #145, ( #74 ) ) ;
#40 = ORIENTED_EDGE ( 'NONE', *, *, #121, .F. ) ;
#41 = DIRECTION ( 'NONE',  ( -1.000000000000000000, -0.000000000000000000, -0.000000000000000000 ) ) ;
#42 = APPROVAL_DATE_TIME ( #190, #145 ) ;
#43 = CC_DESIGN_SECURITY_CLASSIFICATION ( #74, ( #178 ) ) ;
#44 = CALENDAR_DATE ( 2026, 27, 4 ) ;
#45 = VERTEX_POINT ( 'NONE', #224 ) ;
#46 = ADVANCED_FACE ( 'NONE', ( #240 ), #72, .F. ) ;
#47 = APPROVAL_DATE_TIME ( #133, #52 ) ;
#48 = LINE ( 'NONE', #5, #146 ) ;
#49 = VERTEX_POINT ( 'NONE', #218 ) ;
#50 = CIRCLE ( 'NONE', #55, 0.5000000000000000000 ) ;
#51 = ORIENTED_EDGE ( 'NONE', *, *, #16, .T. ) ;
#52 = APPROVAL ( #155, 'UNSPECIFIED' ) ;
#53 = ORIENTED_EDGE ( 'NONE', *, *, #237, .F. ) ;
#54 = CYLINDRICAL_SURFACE ( 'NONE', #187, 0.5000000000000000000 ) ;
#55 = AXIS2_PLACEMENT_3D ( 'NONE', #109, #111, #150 ) ;
#56 = CARTESIAN_POINT ( 'NONE',  ( 0.5000000000000000000, 6.123233995736766036E-17, -0.5000000000000000000 ) ) ;
#57 = CARTESIAN_POINT ( 'NONE',  ( 0.5000000000000000000, 0.000000000000000000, 0.000000000000000000 ) ) ;
#58 = ADVANCED_FACE ( 'NONE', ( #160 ), #54, .T. ) ;
#59 = APPLICATION_PROTOCOL_DEFINITION ( 'international standard', 'config_control_design', 1994, #112 ) ;
#60 = ORIENTED_EDGE ( 'NONE', *, *, #37, .F. ) ;
#61 = PLANE ( 'NONE',  #114 ) ;
#62 = DIRECTION ( 'NONE',  ( 1.000000000000000000, 0.000000000000000000, 0.000000000000000000 ) ) ;
#63 = PERSON_AND_ORGANIZATION ( #188, #251 ) ;
#64 = CALENDAR_DATE ( 2026, 27, 4 ) ;
#65 = MECHANICAL_CONTEXT ( 'NONE', #112, 'mechanical' ) ;
#66 = EDGE_CURVE ( 'NONE', #45, #200, #2, .T. ) ;
#67 = COORDINATED_UNIVERSAL_TIME_OFFSET ( 8, 0, .BEHIND. ) ;
#68 = PERSON_AND_ORGANIZATION_ROLE ( 'design_supplier' ) ;
#69 = AXIS2_PLACEMENT_3D ( 'NONE', #79, #149, #227 ) ;
#70 = CARTESIAN_POINT ( 'NONE',  ( 0.5000000000000000000, 0.000000000000000000, 0.000000000000000000 ) ) ;
#71 = ORIENTED_EDGE ( 'NONE', *, *, #221, .F. ) ;
#72 = CYLINDRICAL_SURFACE ( 'NONE', #18, 0.2411417299999999986 ) ;
#73 = ORIENTED_EDGE ( 'NONE', *, *, #204, .F. ) ;
#74 = SECURITY_CLASSIFICATION ( '', '', #115 ) ;
#75 =( NAMED_UNIT ( * ) PLANE_ANGLE_UNIT ( ) SI_UNIT ( $, .RADIAN. ) );
#76 = CYLINDRICAL_SURFACE ( 'NONE', #177, 0.5000000000000000000 ) ;
#77 = VERTEX_POINT ( 'NONE', #158 ) ;
#78 = CARTESIAN_POINT ( 'NONE',  ( 0.000000000000000000, 2.953134477853552897E-17, -0.2411417299999999986 ) ) ;
#79 = CARTESIAN_POINT ( 'NONE',  ( 0.5000000000000000000, 0.000000000000000000, 0.000000000000000000 ) ) ;
#80 = PERSON_AND_ORGANIZATION ( #188, #251 ) ;
#81 = APPROVAL_ROLE ( '' ) ;
#82 = AXIS2_PLACEMENT_3D ( 'NONE', #180, #236, #220 ) ;
#83 = COORDINATED_UNIVERSAL_TIME_OFFSET ( 8, 0, .BEHIND. ) ;
#84 = CARTESIAN_POINT ( 'NONE',  ( 0.5000000000000000000, 0.000000000000000000, 0.000000000000000000 ) ) ;
#85 =( GEOMETRIC_REPRESENTATION_CONTEXT ( 3 ) GLOBAL_UNCERTAINTY_ASSIGNED_CONTEXT ( ( #164 ) ) GLOBAL_UNIT_ASSIGNED_CONTEXT ( ( #163, #75, #205 ) ) REPRESENTATION_CONTEXT ( 'NONE', 'WORKASPACE' ) );
#86 = EDGE_LOOP ( 'NONE', ( #192, #30, #217, #118 ) ) ;
#87 = CARTESIAN_POINT ( 'NONE',  ( 0.5000000000000000000, 0.000000000000000000, 0.000000000000000000 ) ) ;
#88 = CARTESIAN_POINT ( 'NONE',  ( 0.000000000000000000, 0.000000000000000000, 0.5000000000000000000 ) ) ;
#89 = CARTESIAN_POINT ( 'NONE',  ( 0.5000000000000000000, 0.000000000000000000, 0.2411417299999999986 ) ) ;
#90 = CARTESIAN_POINT ( 'NONE',  ( 0.5000000000000000000, 0.000000000000000000, 0.2411417299999999986 ) ) ;
#91 = CIRCLE ( 'NONE', #69, 0.2411417299999999986 ) ;
#92 = DIRECTION ( 'NONE',  ( 0.000000000000000000, 0.000000000000000000, -1.000000000000000000 ) ) ;
#93 = PRODUCT_DEFINITION ( 'UNKNOWN', '', #178, #97 ) ;
#94 = FACE_BOUND ( 'NONE', #179, .T. ) ;
#95 = DIRECTION ( 'NONE',  ( 1.000000000000000000, 0.000000000000000000, 0.000000000000000000 ) ) ;
#96 = PERSON_AND_ORGANIZATION ( #188, #251 ) ;
#97 = DESIGN_CONTEXT ( 'detailed design', #99, 'design' ) ;
#98 = APPROVAL_ROLE ( '' ) ;
#99 = APPLICATION_CONTEXT ( 'configuration controlled 3d designs of mechanical parts and assemblies' ) ;
#100 = CC_DESIGN_PERSON_AND_ORGANIZATION_ASSIGNMENT ( #80, #249, ( #178 ) ) ;
#101 = ORIENTED_EDGE ( 'NONE', *, *, #172, .T. ) ;
#102 = ORIENTED_EDGE ( 'NONE', *, *, #66, .T. ) ;
#103 = APPROVAL_PERSON_ORGANIZATION ( #191, #52, #98 ) ;
#104 = DIRECTION ( 'NONE',  ( 0.000000000000000000, 0.000000000000000000, 1.000000000000000000 ) ) ;
#105 = AXIS2_PLACEMENT_3D ( 'NONE', #144, #27, #181 ) ;
#106 = EDGE_LOOP ( 'NONE', ( #196, #244 ) ) ;
#107 = CARTESIAN_POINT ( 'NONE',  ( 0.000000000000000000, 0.000000000000000000, 0.000000000000000000 ) ) ;
#108 = DIRECTION ( 'NONE',  ( 0.000000000000000000, 0.000000000000000000, -1.000000000000000000 ) ) ;
#109 = CARTESIAN_POINT ( 'NONE',  ( 0.5000000000000000000, 0.000000000000000000, 0.000000000000000000 ) ) ;
#110 = AXIS2_PLACEMENT_3D ( 'NONE', #15, #62, #189 ) ;
#111 = DIRECTION ( 'NONE',  ( 1.000000000000000000, 0.000000000000000000, 0.000000000000000000 ) ) ;
#112 = APPLICATION_CONTEXT ( 'configuration controlled 3d designs of mechanical parts and assemblies' ) ;
#113 = CARTESIAN_POINT ( 'NONE',  ( 0.000000000000000000, 0.000000000000000000, 0.000000000000000000 ) ) ;
#114 = AXIS2_PLACEMENT_3D ( 'NONE', #113, #184, #162 ) ;
#115 = SECURITY_CLASSIFICATION_LEVEL ( 'unclassified' ) ;
#116 = APPROVAL_DATE_TIME ( #248, #33 ) ;
#117 = SHAPE_DEFINITION_REPRESENTATION ( #8, #199 ) ;
#118 = ORIENTED_EDGE ( 'NONE', *, *, #16, .F. ) ;
#119 = DIRECTION ( 'NONE',  ( -1.000000000000000000, -0.000000000000000000, -0.000000000000000000 ) ) ;
#120 = CYLINDRICAL_SURFACE ( 'NONE', #105, 0.2411417299999999986 ) ;
#121 = EDGE_CURVE ( 'NONE', #161, #77, #31, .T. ) ;
#122 = ORIENTED_EDGE ( 'NONE', *, *, #159, .T. ) ;
#123 = CLOSED_SHELL ( 'NONE', ( #9, #128, #165, #231, #58, #46 ) ) ;
#124 = EDGE_LOOP ( 'NONE', ( #238, #125 ) ) ;
#125 = ORIENTED_EDGE ( 'NONE', *, *, #121, .T. ) ;
#126 = FACE_OUTER_BOUND ( 'NONE', #174, .T. ) ;
#127 = FACE_BOUND ( 'NONE', #198, .T. ) ;
#128 = ADVANCED_FACE ( 'NONE', ( #126 ), #76, .T. ) ;
#129 = DIRECTION ( 'NONE',  ( 0.000000000000000000, 0.000000000000000000, -1.000000000000000000 ) ) ;
#130 =( LENGTH_UNIT ( ) NAMED_UNIT ( * ) SI_UNIT ( $, .METRE. ) );
#131 = PERSON_AND_ORGANIZATION ( #188, #251 ) ;
#132 = CC_DESIGN_APPROVAL ( #33, ( #178 ) ) ;
#133 = DATE_AND_TIME ( #64, #142 ) ;
#134 = APPROVAL_STATUS ( 'not_yet_approved' ) ;
#135 = AXIS2_PLACEMENT_3D ( 'NONE', #107, #12, #139 ) ;
#136 = DATE_TIME_ROLE ( 'classification_date' ) ;
#137 = ORIENTED_EDGE ( 'NONE', *, *, #237, .T. ) ;
#138 = DIMENSIONAL_EXPONENTS ( 1.000000000000000000, 0.000000000000000000, 0.000000000000000000, 0.000000000000000000, 0.000000000000000000, 0.000000000000000000, 0.000000000000000000 ) ;
#139 = DIRECTION ( 'NONE',  ( 0.000000000000000000, 0.000000000000000000, -1.000000000000000000 ) ) ;
#140 = FACE_OUTER_BOUND ( 'NONE', #86, .T. ) ;
#141 = ORIENTED_EDGE ( 'NONE', *, *, #214, .T. ) ;
#142 = LOCAL_TIME ( 21, 0, 5.000000000000000000, #234 ) ;
#143 = DIRECTION ( 'NONE',  ( -1.000000000000000000, -0.000000000000000000, -0.000000000000000000 ) ) ;
#144 = CARTESIAN_POINT ( 'NONE',  ( 0.5000000000000000000, 0.000000000000000000, 0.000000000000000000 ) ) ;
#145 = APPROVAL ( #134, 'UNSPECIFIED' ) ;
#146 = VECTOR ( 'NONE', #119, 39.37007874015748143 ) ;
#147 = CARTESIAN_POINT ( 'NONE',  ( 0.5000000000000000000, 0.000000000000000000, 0.5000000000000000000 ) ) ;
#148 = ORIENTED_EDGE ( 'NONE', *, *, #28, .T. ) ;
#149 = DIRECTION ( 'NONE',  ( 1.000000000000000000, 0.000000000000000000, 0.000000000000000000 ) ) ;
#150 = DIRECTION ( 'NONE',  ( 0.000000000000000000, 0.000000000000000000, -1.000000000000000000 ) ) ;
#151 = CALENDAR_DATE ( 2026, 27, 4 ) ;
#152 = CIRCLE ( 'NONE', #211, 0.2411417299999999986 ) ;
#153 = APPROVAL_PERSON_ORGANIZATION ( #209, #145, #81 ) ;
#154 = PERSON_AND_ORGANIZATION ( #188, #251 ) ;
#155 = APPROVAL_STATUS ( 'not_yet_approved' ) ;
#156 = EDGE_LOOP ( 'NONE', ( #201, #71, #122, #101 ) ) ;
#157 = VECTOR ( 'NONE', #41, 39.37007874015748143 ) ;
#158 = CARTESIAN_POINT ( 'NONE',  ( 0.5000000000000000000, 0.000000000000000000, 0.5000000000000000000 ) ) ;
#159 = EDGE_CURVE ( 'NONE', #77, #32, #35, .T. ) ;
#160 = FACE_OUTER_BOUND ( 'NONE', #156, .T. ) ;
#161 = VERTEX_POINT ( 'NONE', #56 ) ;
#162 = DIRECTION ( 'NONE',  ( 0.000000000000000000, 0.000000000000000000, -1.000000000000000000 ) ) ;
#163 =( CONVERSION_BASED_UNIT ( 'INCH', #225 ) LENGTH_UNIT ( ) NAMED_UNIT ( #138 ) );
#164 = UNCERTAINTY_MEASURE_WITH_UNIT (LENGTH_MEASURE( 1.000000000000000082E-05 ), #163, 'distance_accuracy_value', 'NONE');
#165 = ADVANCED_FACE ( 'NONE', ( #17, #94 ), #36, .T. ) ;
#166 = DIRECTION ( 'NONE',  ( 0.000000000000000000, 0.000000000000000000, 1.000000000000000000 ) ) ;
#167 = CARTESIAN_POINT ( 'NONE',  ( 0.5000000000000000000, 0.000000000000000000, 0.000000000000000000 ) ) ;
#168 = AXIS2_PLACEMENT_3D ( 'NONE', #57, #247, #245 ) ;
#169 = DATE_AND_TIME ( #170, #219 ) ;
#170 = CALENDAR_DATE ( 2026, 27, 4 ) ;
#171 = PERSON_AND_ORGANIZATION_ROLE ( 'classification_officer' ) ;
#172 = EDGE_CURVE ( 'NONE', #32, #11, #239, .T. ) ;
#173 = LOCAL_TIME ( 21, 0, 5.000000000000000000, #23 ) ;
#174 = EDGE_LOOP ( 'NONE', ( #40, #141, #148, #207 ) ) ;
#175 = PRODUCT ( 'Spacer (Weapon Stack)', 'Spacer (Weapon Stack)', '', ( #65 ) ) ;
#176 = DIRECTION ( 'NONE',  ( 0.000000000000000000, 0.000000000000000000, 1.000000000000000000 ) ) ;
#177 = AXIS2_PLACEMENT_3D ( 'NONE', #167, #206, #166 ) ;
#178 = PRODUCT_DEFINITION_FORMATION_WITH_SPECIFIED_SOURCE ( 'ANY', '', #175, .NOT_KNOWN. ) ;
#179 = EDGE_LOOP ( 'NONE', ( #73, #226 ) ) ;
#180 = CARTESIAN_POINT ( 'NONE',  ( 0.5000000000000000000, 0.000000000000000000, 0.000000000000000000 ) ) ;
#181 = DIRECTION ( 'NONE',  ( 0.000000000000000000, 0.000000000000000000, 1.000000000000000000 ) ) ;
#182 = VERTEX_POINT ( 'NONE', #78 ) ;
#183 = CARTESIAN_POINT ( 'NONE',  ( 0.5000000000000000000, 6.123233995736766036E-17, -0.5000000000000000000 ) ) ;
#184 = DIRECTION ( 'NONE',  ( 1.000000000000000000, 0.000000000000000000, 0.000000000000000000 ) ) ;
#185 = EDGE_CURVE ( 'NONE', #49, #182, #152, .T. ) ;
#186 = LINE ( 'NONE', #183, #157 ) ;
#187 = AXIS2_PLACEMENT_3D ( 'NONE', #84, #143, #104 ) ;
#188 = PERSON ( 'UNSPECIFIED', 'UNSPECIFIED', 'UNSPECIFIED', ('UNSPECIFIED'), ('UNSPECIFIED'), ('UNSPECIFIED') ) ;
#189 = DIRECTION ( 'NONE',  ( 0.000000000000000000, 0.000000000000000000, -1.000000000000000000 ) ) ;
#190 = DATE_AND_TIME ( #44, #29 ) ;
#191 = PERSON_AND_ORGANIZATION ( #188, #251 ) ;
#192 = ORIENTED_EDGE ( 'NONE', *, *, #204, .T. ) ;
#193 = DATE_TIME_ROLE ( 'creation_date' ) ;
#194 = VECTOR ( 'NONE', #208, 39.37007874015748143 ) ;
#195 = LOCAL_TIME ( 21, 0, 5.000000000000000000, #83 ) ;
#196 = ORIENTED_EDGE ( 'NONE', *, *, #172, .F. ) ;
#197 = PRODUCT_RELATED_PRODUCT_CATEGORY ( 'detail', '', ( #175 ) ) ;
#198 = EDGE_LOOP ( 'NONE', ( #24, #137 ) ) ;
#199 = ADVANCED_BREP_SHAPE_REPRESENTATION ( 'Spacer (Weapon Stack)', ( #202, #38 ), #85 ) ;
#200 = VERTEX_POINT ( 'NONE', #90 ) ;
#201 = ORIENTED_EDGE ( 'NONE', *, *, #214, .F. ) ;
#202 = MANIFOLD_SOLID_BREP ( 'Boss-Extrude1', #123 ) ;
#203 = CARTESIAN_POINT ( 'NONE',  ( 0.000000000000000000, 0.000000000000000000, 0.000000000000000000 ) ) ;
#204 = EDGE_CURVE ( 'NONE', #200, #45, #91, .T. ) ;
#205 =( NAMED_UNIT ( * ) SI_UNIT ( $, .STERADIAN. ) SOLID_ANGLE_UNIT ( ) );
#206 = DIRECTION ( 'NONE',  ( -1.000000000000000000, -0.000000000000000000, -0.000000000000000000 ) ) ;
#207 = ORIENTED_EDGE ( 'NONE', *, *, #159, .F. ) ;
#208 = DIRECTION ( 'NONE',  ( -1.000000000000000000, -0.000000000000000000, -0.000000000000000000 ) ) ;
#209 = PERSON_AND_ORGANIZATION ( #188, #251 ) ;
#210 = CC_DESIGN_DATE_AND_TIME_ASSIGNMENT ( #250, #136, ( #74 ) ) ;
#211 = AXIS2_PLACEMENT_3D ( 'NONE', #203, #95, #92 ) ;
#212 = CC_DESIGN_APPROVAL ( #52, ( #93 ) ) ;
#213 = PERSON_AND_ORGANIZATION_ROLE ( 'creator' ) ;
#214 = EDGE_CURVE ( 'NONE', #161, #11, #186, .T. ) ;
#215 = PERSON_AND_ORGANIZATION ( #188, #251 ) ;
#216 = COORDINATED_UNIVERSAL_TIME_OFFSET ( 8, 0, .BEHIND. ) ;
#217 = ORIENTED_EDGE ( 'NONE', *, *, #185, .F. ) ;
#218 = CARTESIAN_POINT ( 'NONE',  ( 0.000000000000000000, 0.000000000000000000, 0.2411417299999999986 ) ) ;
#219 = LOCAL_TIME ( 21, 0, 5.000000000000000000, #67 ) ;
#220 = DIRECTION ( 'NONE',  ( 0.000000000000000000, 0.000000000000000000, -1.000000000000000000 ) ) ;
#221 = EDGE_CURVE ( 'NONE', #77, #161, #50, .T. ) ;
#222 = CARTESIAN_POINT ( 'NONE',  ( 0.000000000000000000, 6.123233995736766036E-17, -0.5000000000000000000 ) ) ;
#223 = AXIS2_PLACEMENT_3D ( 'NONE', #87, #242, #129 ) ;
#224 = CARTESIAN_POINT ( 'NONE',  ( 0.5000000000000000000, 2.953134477853552897E-17, -0.2411417299999999986 ) ) ;
#225 = LENGTH_MEASURE_WITH_UNIT ( LENGTH_MEASURE( 0.02539999999999999897 ), #130 );
#226 = ORIENTED_EDGE ( 'NONE', *, *, #66, .F. ) ;
#227 = DIRECTION ( 'NONE',  ( 0.000000000000000000, 0.000000000000000000, -1.000000000000000000 ) ) ;
#228 = FACE_OUTER_BOUND ( 'NONE', #106, .T. ) ;
#229 = CC_DESIGN_PERSON_AND_ORGANIZATION_ASSIGNMENT ( #154, #171, ( #74 ) ) ;
#230 = APPROVAL_ROLE ( '' ) ;
#231 = ADVANCED_FACE ( 'NONE', ( #228, #127 ), #61, .F. ) ;
#232 = CIRCLE ( 'NONE', #110, 0.2411417299999999986 ) ;
#233 = APPROVAL_STATUS ( 'not_yet_approved' ) ;
#234 = COORDINATED_UNIVERSAL_TIME_OFFSET ( 8, 0, .BEHIND. ) ;
#235 = PERSON_AND_ORGANIZATION_ROLE ( 'design_owner' ) ;
#236 = DIRECTION ( 'NONE',  ( 1.000000000000000000, 0.000000000000000000, 0.000000000000000000 ) ) ;
#237 = EDGE_CURVE ( 'NONE', #182, #49, #232, .T. ) ;
#238 = ORIENTED_EDGE ( 'NONE', *, *, #221, .T. ) ;
#239 = CIRCLE ( 'NONE', #241, 0.5000000000000000000 ) ;
#240 = FACE_OUTER_BOUND ( 'NONE', #4, .T. ) ;
#241 = AXIS2_PLACEMENT_3D ( 'NONE', #14, #19, #108 ) ;
#242 = DIRECTION ( 'NONE',  ( 1.000000000000000000, 0.000000000000000000, 0.000000000000000000 ) ) ;
#243 = CIRCLE ( 'NONE', #135, 0.5000000000000000000 ) ;
#244 = ORIENTED_EDGE ( 'NONE', *, *, #28, .F. ) ;
#245 = DIRECTION ( 'NONE',  ( 0.000000000000000000, 0.000000000000000000, -1.000000000000000000 ) ) ;
#246 = CC_DESIGN_PERSON_AND_ORGANIZATION_ASSIGNMENT ( #215, #235, ( #175 ) ) ;
#247 = DIRECTION ( 'NONE',  ( 1.000000000000000000, 0.000000000000000000, 0.000000000000000000 ) ) ;
#248 = DATE_AND_TIME ( #21, #173 ) ;
#249 = PERSON_AND_ORGANIZATION_ROLE ( 'creator' ) ;
#250 = DATE_AND_TIME ( #151, #195 ) ;
#251 = ORGANIZATION ( 'UNSPECIFIED', 'UNSPECIFIED', '' ) ;
#252 = APPROVAL_PERSON_ORGANIZATION ( #131, #33, #230 ) ;
ENDSEC;
END-ISO-10303-21;
