ISO-10303-21;
HEADER;
FILE_DESCRIPTION (( 'STEP AP203' ),
    '1' );
FILE_NAME ('Spinner Motor Pulley.STEP',
    '2026-04-28T04:03:28',
    ( '' ),
    ( '' ),
    'SwSTEP 2.0',
    'SolidWorks 2025',
    '' );
FILE_SCHEMA (( 'CONFIG_CONTROL_DESIGN' ));
ENDSEC;

DATA;
#1 = VECTOR ( 'NONE', #685, 39.37007874015748143 ) ;
#2 = ORIENTED_EDGE ( 'NONE', *, *, #183, .T. ) ;
#3 = ADVANCED_FACE ( 'NONE', ( #51 ), #737, .T. ) ;
#4 = DIRECTION ( 'NONE',  ( -0.000000000000000000, -0.000000000000000000, -1.000000000000000000 ) ) ;
#5 = DIRECTION ( 'NONE',  ( -0.000000000000000000, -0.000000000000000000, -1.000000000000000000 ) ) ;
#6 = CC_DESIGN_PERSON_AND_ORGANIZATION_ASSIGNMENT ( #371, #368, ( #145 ) ) ;
#7 = CARTESIAN_POINT ( 'NONE',  ( 0.000000000000000000, 0.000000000000000000, -6.829619984160658046E-17 ) ) ;
#8 = FACE_OUTER_BOUND ( 'NONE', #408, .T. ) ;
#9 = CIRCLE ( 'NONE', #701, 0.03937007999999999480 ) ;
#10 = LOCAL_TIME ( 21, 3, 28.00000000000000000, #660 ) ;
#11 = CARTESIAN_POINT ( 'NONE',  ( 0.1181102362207343270, -0.2385860684251319142, -6.829619984160658046E-17 ) ) ;
#12 = VECTOR ( 'NONE', #559, 39.37007874015748143 ) ;
#13 = ADVANCED_FACE ( 'NONE', ( #480 ), #654, .F. ) ;
#14 = VECTOR ( 'NONE', #755, 39.37007874015748143 ) ;
#15 = CARTESIAN_POINT ( 'NONE',  ( 0.000000000000000000, 0.000000000000000000, -0.05000000000000000278 ) ) ;
#16 = EDGE_CURVE ( 'NONE', #344, #728, #580, .T. ) ;
#17 = CARTESIAN_POINT ( 'NONE',  ( 0.000000000000000000, 0.000000000000000000, -0.04999999999999999584 ) ) ;
#18 = DIRECTION ( 'NONE',  ( -0.000000000000000000, -0.000000000000000000, 1.000000000000000000 ) ) ;
#19 = LINE ( 'NONE', #310, #34 ) ;
#20 = EDGE_CURVE ( 'NONE', #63, #569, #647, .T. ) ;
#21 = AXIS2_PLACEMENT_3D ( 'NONE', #724, #25, #83 ) ;
#22 = CARTESIAN_POINT ( 'NONE',  ( 0.000000000000000000, 0.000000000000000000, -0.3250000000000000111 ) ) ;
#23 = EDGE_CURVE ( 'NONE', #413, #215, #764, .T. ) ;
#24 = CARTESIAN_POINT ( 'NONE',  ( 0.000000000000000000, 0.000000000000000000, 0.07000000000000000666 ) ) ;
#25 = DIRECTION ( 'NONE',  ( -0.000000000000000000, -0.000000000000000000, -1.000000000000000000 ) ) ;
#26 = CARTESIAN_POINT ( 'NONE',  ( -0.2268503924409439598, -3.260260494422981586E-17, -6.829619984160658046E-17 ) ) ;
#27 = ORIENTED_EDGE ( 'NONE', *, *, #618, .T. ) ;
#28 = FACE_BOUND ( 'NONE', #84, .T. ) ;
#29 = ORIENTED_EDGE ( 'NONE', *, *, #465, .F. ) ;
#30 = DIRECTION ( 'NONE',  ( 1.000000000000000000, 0.000000000000000000, 0.000000000000000000 ) ) ;
#31 = ORIENTED_EDGE ( 'NONE', *, *, #134, .T. ) ;
#32 = DIRECTION ( 'NONE',  ( -0.000000000000000000, -0.000000000000000000, -1.000000000000000000 ) ) ;
#33 = ORIENTED_EDGE ( 'NONE', *, *, #718, .T. ) ;
#34 = VECTOR ( 'NONE', #192, 39.37007874015748143 ) ;
#35 = CARTESIAN_POINT ( 'NONE',  ( 0.000000000000000000, 0.000000000000000000, -0.3250000000000000111 ) ) ;
#36 = ORIENTED_EDGE ( 'NONE', *, *, #438, .F. ) ;
#37 = ADVANCED_FACE ( 'NONE', ( #65, #246 ), #597, .F. ) ;
#38 = APPROVAL_STATUS ( 'not_yet_approved' ) ;
#39 = CYLINDRICAL_SURFACE ( 'NONE', #179, 0.5950000000000000844 ) ;
#40 = ORIENTED_EDGE ( 'NONE', *, *, #436, .T. ) ;
#41 = PERSON_AND_ORGANIZATION ( #498, #81 ) ;
#42 = CARTESIAN_POINT ( 'NONE',  ( 0.1181102362207343270, -0.2385860684251319142, -6.829619984160658046E-17 ) ) ;
#43 = CIRCLE ( 'NONE', #652, 0.07874016000000001736 ) ;
#44 = ORIENTED_EDGE ( 'NONE', *, *, #307, .T. ) ;
#45 = LOCAL_TIME ( 21, 3, 28.00000000000000000, #233 ) ;
#46 = DIRECTION ( 'NONE',  ( 0.7071067811865455743, 8.659560562354909439E-17, -0.7071067811865493491 ) ) ;
#47 = ORIENTED_EDGE ( 'NONE', *, *, #711, .F. ) ;
#48 = ADVANCED_FACE ( 'NONE', ( #185 ), #469, .F. ) ;
#49 = CARTESIAN_POINT ( 'NONE',  ( 0.000000000000000000, 0.000000000000000000, -0.3750000000000001110 ) ) ;
#50 = CIRCLE ( 'NONE', #487, 0.5511811000000000904 ) ;
#51 = FACE_OUTER_BOUND ( 'NONE', #681, .T. ) ;
#52 = DESIGN_CONTEXT ( 'detailed design', #666, 'design' ) ;
#53 = PERSON_AND_ORGANIZATION ( #498, #81 ) ;
#54 = ORIENTED_EDGE ( 'NONE', *, *, #398, .F. ) ;
#55 = AXIS2_PLACEMENT_3D ( 'NONE', #237, #348, #411 ) ;
#56 = CYLINDRICAL_SURFACE ( 'NONE', #349, 0.03937007999999999480 ) ;
#57 = DIRECTION ( 'NONE',  ( 0.000000000000000000, 0.000000000000000000, -1.000000000000000000 ) ) ;
#58 = EDGE_LOOP ( 'NONE', ( #670, #534, #620, #174 ) ) ;
#59 = CARTESIAN_POINT ( 'NONE',  ( 0.5950000000000000844, 7.286648454926752704E-17, -0.3250000000000000111 ) ) ;
#60 = CARTESIAN_POINT ( 'NONE',  ( 0.1574803162207343288, 0.1705597916302038497, -0.3750000000000001110 ) ) ;
#61 = EDGE_CURVE ( 'NONE', #541, #345, #525, .T. ) ;
#62 = AXIS2_PLACEMENT_3D ( 'NONE', #625, #400, #341 ) ;
#63 = VERTEX_POINT ( 'NONE', #421 ) ;
#64 = DIRECTION ( 'NONE',  ( 0.000000000000000000, 0.000000000000000000, -1.000000000000000000 ) ) ;
#65 = FACE_BOUND ( 'NONE', #111, .T. ) ;
#66 = CARTESIAN_POINT ( 'NONE',  ( -0.3055905524409439633, -2.778116069881229655E-17, -0.3750000000000001110 ) ) ;
#67 = CARTESIAN_POINT ( 'NONE',  ( 0.1181102362207343270, 0.1705597916302038497, 0.07000000000000000666 ) ) ;
#68 = CARTESIAN_POINT ( 'NONE',  ( -0.07874016000000001736, 9.642888490835047863E-18, 0.07000000000000000666 ) ) ;
#69 = APPROVAL_STATUS ( 'not_yet_approved' ) ;
#70 = EDGE_CURVE ( 'NONE', #215, #389, #75, .T. ) ;
#71 = EDGE_CURVE ( 'NONE', #532, #482, #463, .T. ) ;
#72 = AXIS2_PLACEMENT_3D ( 'NONE', #415, #531, #586 ) ;
#73 = DIRECTION ( 'NONE',  ( -0.000000000000000000, 0.000000000000000000, 1.000000000000000000 ) ) ;
#74 = AXIS2_PLACEMENT_3D ( 'NONE', #99, #671, #30 ) ;
#75 = CIRCLE ( 'NONE', #86, 0.03937007999999999480 ) ;
#76 = CARTESIAN_POINT ( 'NONE',  ( 0.1181102362207343270, -0.2385860684251319142, 0.07000000000000000666 ) ) ;
#77 = CYLINDRICAL_SURFACE ( 'NONE', #455, 0.03937007999999999480 ) ;
#78 = CARTESIAN_POINT ( 'NONE',  ( -0.07874016000000001736, 9.642888490835047863E-18, -0.3750000000000001110 ) ) ;
#79 = EDGE_CURVE ( 'NONE', #230, #585, #557, .T. ) ;
#80 = CARTESIAN_POINT ( 'NONE',  ( 0.000000000000000000, 0.000000000000000000, 0.000000000000000000 ) ) ;
#81 = ORGANIZATION ( 'UNSPECIFIED', 'UNSPECIFIED', '' ) ;
#82 = DIRECTION ( 'NONE',  ( -0.000000000000000000, -0.000000000000000000, -1.000000000000000000 ) ) ;
#83 = DIRECTION ( 'NONE',  ( -1.000000000000000000, 0.000000000000000000, 0.000000000000000000 ) ) ;
#84 = EDGE_LOOP ( 'NONE', ( #103, #678 ) ) ;
#85 = CARTESIAN_POINT ( 'NONE',  ( -0.2662204724409439338, -3.260260494422981586E-17, -0.3750000000000001110 ) ) ;
#86 = AXIS2_PLACEMENT_3D ( 'NONE', #67, #309, #651 ) ;
#87 = ORIENTED_EDGE ( 'NONE', *, *, #436, .F. ) ;
#88 = LINE ( 'NONE', #66, #655 ) ;
#89 = DIRECTION ( 'NONE',  ( 1.000000000000000000, 0.000000000000000000, 0.000000000000000000 ) ) ;
#90 = ORIENTED_EDGE ( 'NONE', *, *, #139, .T. ) ;
#91 = CARTESIAN_POINT ( 'NONE',  ( 0.6250000000000000000, 7.654042494670957853E-17, 0.07000000000000000666 ) ) ;
#92 = ORIENTED_EDGE ( 'NONE', *, *, #373, .F. ) ;
#93 = FACE_BOUND ( 'NONE', #387, .T. ) ;
#94 = EDGE_CURVE ( 'NONE', #690, #501, #491, .T. ) ;
#95 = EDGE_LOOP ( 'NONE', ( #47, #54, #393, #626 ) ) ;
#96 = AXIS2_PLACEMENT_3D ( 'NONE', #554, #18, #714 ) ;
#97 =( CONVERSION_BASED_UNIT ( 'INCH', #225 ) LENGTH_UNIT ( ) NAMED_UNIT ( #198 ) );
#98 = CIRCLE ( 'NONE', #663, 0.03937007999999999480 ) ;
#99 = CARTESIAN_POINT ( 'NONE',  ( 0.1181102362207343270, -0.2385860684251319142, -0.3750000000000001110 ) ) ;
#100 = ORIENTED_EDGE ( 'NONE', *, *, #574, .T. ) ;
#101 = AXIS2_PLACEMENT_3D ( 'NONE', #662, #141, #312 ) ;
#102 = DIRECTION ( 'NONE',  ( -1.000000000000000000, 0.000000000000000000, 0.000000000000000000 ) ) ;
#103 = ORIENTED_EDGE ( 'NONE', *, *, #70, .F. ) ;
#104 = CARTESIAN_POINT ( 'NONE',  ( 0.07874015622073432530, -0.2385860684251319142, -6.829619984160658046E-17 ) ) ;
#105 = EDGE_CURVE ( 'NONE', #585, #230, #523, .T. ) ;
#106 = ORIENTED_EDGE ( 'NONE', *, *, #337, .F. ) ;
#107 = CARTESIAN_POINT ( 'NONE',  ( 0.000000000000000000, 0.000000000000000000, -0.3750000000000000555 ) ) ;
#108 = EDGE_LOOP ( 'NONE', ( #164, #226 ) ) ;
#109 = EDGE_CURVE ( 'NONE', #334, #63, #437, .T. ) ;
#110 = DIRECTION ( 'NONE',  ( 1.000000000000000000, 0.000000000000000000, 0.000000000000000000 ) ) ;
#111 = EDGE_LOOP ( 'NONE', ( #276, #288 ) ) ;
#112 = VERTEX_POINT ( 'NONE', #723 ) ;
#113 = CARTESIAN_POINT ( 'NONE',  ( 0.1574803162207343288, -0.2385860684251319142, 0.07000000000000000666 ) ) ;
#114 = AXIS2_PLACEMENT_3D ( 'NONE', #564, #263, #633 ) ;
#115 = DIRECTION ( 'NONE',  ( -0.000000000000000000, -0.000000000000000000, -1.000000000000000000 ) ) ;
#116 = APPROVAL_STATUS ( 'not_yet_approved' ) ;
#117 = ORIENTED_EDGE ( 'NONE', *, *, #61, .T. ) ;
#118 = CARTESIAN_POINT ( 'NONE',  ( -0.5511811000000000904, 0.000000000000000000, -0.3750000000000001110 ) ) ;
#119 = VERTEX_POINT ( 'NONE', #203 ) ;
#120 = EDGE_LOOP ( 'NONE', ( #752, #584 ) ) ;
#121 = LINE ( 'NONE', #481, #149 ) ;
#122 = CIRCLE ( 'NONE', #380, 0.5950000000000000844 ) ;
#123 = CARTESIAN_POINT ( 'NONE',  ( 0.000000000000000000, 0.000000000000000000, -0.3250000000000000111 ) ) ;
#124 = CIRCLE ( 'NONE', #745, 0.6700000000000000400 ) ;
#125 = DIRECTION ( 'NONE',  ( -1.000000000000000000, 0.000000000000000000, 0.000000000000000000 ) ) ;
#126 = CARTESIAN_POINT ( 'NONE',  ( 0.000000000000000000, 0.000000000000000000, 0.01999999999999986511 ) ) ;
#127 = CALENDAR_DATE ( 2026, 27, 4 ) ;
#128 = AXIS2_PLACEMENT_3D ( 'NONE', #648, #244, #602 ) ;
#129 = DIRECTION ( 'NONE',  ( 0.000000000000000000, 0.000000000000000000, -1.000000000000000000 ) ) ;
#130 = CARTESIAN_POINT ( 'NONE',  ( 0.000000000000000000, 0.000000000000000000, -6.829619984160658046E-17 ) ) ;
#131 = EDGE_CURVE ( 'NONE', #501, #728, #434, .T. ) ;
#132 = DATE_AND_TIME ( #127, #10 ) ;
#133 = PRODUCT ( 'Spinner Motor Pulley', 'Spinner Motor Pulley', '', ( #218 ) ) ;
#134 = EDGE_CURVE ( 'NONE', #708, #324, #556, .T. ) ;
#135 = DIRECTION ( 'NONE',  ( -0.000000000000000000, 0.000000000000000000, 1.000000000000000000 ) ) ;
#136 = DIRECTION ( 'NONE',  ( -1.000000000000000000, 0.000000000000000000, 0.000000000000000000 ) ) ;
#137 = AXIS2_PLACEMENT_3D ( 'NONE', #335, #327, #619 ) ;
#138 = CARTESIAN_POINT ( 'NONE',  ( 0.000000000000000000, 0.000000000000000000, 0.07000000000000000666 ) ) ;
#139 = EDGE_CURVE ( 'NONE', #461, #230, #376, .T. ) ;
#140 = DIRECTION ( 'NONE',  ( 1.000000000000000000, 0.000000000000000000, 0.000000000000000000 ) ) ;
#141 = DIRECTION ( 'NONE',  ( 0.000000000000000000, 0.000000000000000000, -1.000000000000000000 ) ) ;
#142 = CIRCLE ( 'NONE', #743, 0.03937007999999999480 ) ;
#143 = DIRECTION ( 'NONE',  ( -1.000000000000000000, 0.000000000000000000, 0.000000000000000000 ) ) ;
#144 = VERTEX_POINT ( 'NONE', #547 ) ;
#145 = PRODUCT_DEFINITION_FORMATION_WITH_SPECIFIED_SOURCE ( 'ANY', '', #133, .NOT_KNOWN. ) ;
#146 = FACE_OUTER_BOUND ( 'NONE', #406, .T. ) ;
#147 = AXIS2_PLACEMENT_3D ( 'NONE', #698, #243, #173 ) ;
#148 = ORIENTED_EDGE ( 'NONE', *, *, #756, .F. ) ;
#149 = VECTOR ( 'NONE', #343, 39.37007874015748143 ) ;
#150 = DIRECTION ( 'NONE',  ( -1.000000000000000000, 0.000000000000000000, 0.000000000000000000 ) ) ;
#151 = CARTESIAN_POINT ( 'NONE',  ( 0.000000000000000000, 0.000000000000000000, -0.3750000000000000555 ) ) ;
#152 = CIRCLE ( 'NONE', #548, 0.5950000000000000844 ) ;
#153 = ORIENTED_EDGE ( 'NONE', *, *, #236, .T. ) ;
#154 = EDGE_CURVE ( 'NONE', #112, #514, #152, .T. ) ;
#155 = LINE ( 'NONE', #392, #446 ) ;
#156 = ORIENTED_EDGE ( 'NONE', *, *, #630, .T. ) ;
#157 = APPROVAL_ROLE ( '' ) ;
#158 = ORIENTED_EDGE ( 'NONE', *, *, #574, .F. ) ;
#159 = PLANE ( 'NONE',  #305 ) ;
#160 = ORIENTED_EDGE ( 'NONE', *, *, #352, .T. ) ;
#161 = CARTESIAN_POINT ( 'NONE',  ( 0.5511811000000000904, 6.750021698655170902E-17, -0.3750000000000001110 ) ) ;
#162 = ADVANCED_FACE ( 'NONE', ( #8 ), #490, .T. ) ;
#163 = FACE_OUTER_BOUND ( 'NONE', #303, .T. ) ;
#164 = ORIENTED_EDGE ( 'NONE', *, *, #307, .F. ) ;
#165 = CC_DESIGN_PERSON_AND_ORGANIZATION_ASSIGNMENT ( #41, #456, ( #133 ) ) ;
#166 = DIRECTION ( 'NONE',  ( -0.000000000000000000, -0.000000000000000000, -1.000000000000000000 ) ) ;
#167 = ORIENTED_EDGE ( 'NONE', *, *, #753, .T. ) ;
#168 = DIRECTION ( 'NONE',  ( -1.000000000000000000, 0.000000000000000000, 0.000000000000000000 ) ) ;
#169 = VERTEX_POINT ( 'NONE', #609 ) ;
#170 = APPROVAL ( #116, 'UNSPECIFIED' ) ;
#171 = PERSON_AND_ORGANIZATION ( #498, #81 ) ;
#172 = EDGE_LOOP ( 'NONE', ( #297, #590 ) ) ;
#173 = DIRECTION ( 'NONE',  ( 1.000000000000000000, 0.000000000000000000, 0.000000000000000000 ) ) ;
#174 = ORIENTED_EDGE ( 'NONE', *, *, #131, .T. ) ;
#175 = CALENDAR_DATE ( 2026, 27, 4 ) ;
#176 = ORIENTED_EDGE ( 'NONE', *, *, #337, .T. ) ;
#177 = AXIS2_PLACEMENT_3D ( 'NONE', #227, #704, #518 ) ;
#178 = DIRECTION ( 'NONE',  ( -0.000000000000000000, -0.000000000000000000, 1.000000000000000000 ) ) ;
#179 = AXIS2_PLACEMENT_3D ( 'NONE', #513, #279, #568 ) ;
#180 = DIRECTION ( 'NONE',  ( -0.000000000000000000, -0.000000000000000000, -1.000000000000000000 ) ) ;
#181 = COORDINATED_UNIVERSAL_TIME_OFFSET ( 8, 0, .BEHIND. ) ;
#182 = EDGE_LOOP ( 'NONE', ( #148, #299 ) ) ;
#183 = EDGE_CURVE ( 'NONE', #482, #532, #509, .T. ) ;
#184 = DIRECTION ( 'NONE',  ( 0.000000000000000000, 0.000000000000000000, 1.000000000000000000 ) ) ;
#185 = FACE_OUTER_BOUND ( 'NONE', #58, .T. ) ;
#186 = CARTESIAN_POINT ( 'NONE',  ( 0.1574803162207343288, 0.1705597916302038497, -6.829619984160658046E-17 ) ) ;
#187 = ORIENTED_EDGE ( 'NONE', *, *, #726, .F. ) ;
#188 = PERSON_AND_ORGANIZATION_ROLE ( 'classification_officer' ) ;
#189 = APPROVAL_PERSON_ORGANIZATION ( #287, #656, #157 ) ;
#190 = CARTESIAN_POINT ( 'NONE',  ( 0.07874016000000001736, 0.000000000000000000, 0.07000000000000000666 ) ) ;
#191 = PRODUCT_DEFINITION_SHAPE ( 'NONE', 'NONE',  #565 ) ;
#192 = DIRECTION ( 'NONE',  ( -0.000000000000000000, -0.000000000000000000, 1.000000000000000000 ) ) ;
#193 = ADVANCED_FACE ( 'NONE', ( #377, #200, #196, #322, #250 ), #549, .T. ) ;
#194 = AXIS2_PLACEMENT_3D ( 'NONE', #138, #73, #428 ) ;
#195 = AXIS2_PLACEMENT_3D ( 'NONE', #495, #197, #261 ) ;
#196 = FACE_BOUND ( 'NONE', #640, .T. ) ;
#197 = DIRECTION ( 'NONE',  ( -0.000000000000000000, 0.000000000000000000, 1.000000000000000000 ) ) ;
#198 = DIMENSIONAL_EXPONENTS ( 1.000000000000000000, 0.000000000000000000, 0.000000000000000000, 0.000000000000000000, 0.000000000000000000, 0.000000000000000000, 0.000000000000000000 ) ;
#199 = EDGE_CURVE ( 'NONE', #514, #112, #643, .T. ) ;
#200 = FACE_BOUND ( 'NONE', #572, .T. ) ;
#201 = CIRCLE ( 'NONE', #211, 0.6250000000000000000 ) ;
#202 = CARTESIAN_POINT ( 'NONE',  ( 0.07874015622073432530, 0.1705597916302038497, -6.829619984160658046E-17 ) ) ;
#203 = CARTESIAN_POINT ( 'NONE',  ( -0.3055905524409439633, -2.778116069881229655E-17, 0.07000000000000000666 ) ) ;
#204 = CARTESIAN_POINT ( 'NONE',  ( -0.5511811000000000904, 0.000000000000000000, -6.829619984160658046E-17 ) ) ;
#205 = CARTESIAN_POINT ( 'NONE',  ( 0.07874015622073432530, -0.2385860684251319142, -0.3750000000000001110 ) ) ;
#206 = CYLINDRICAL_SURFACE ( 'NONE', #360, 0.6749999999999999334 ) ;
#207 = VERTEX_POINT ( 'NONE', #553 ) ;
#208 = FACE_OUTER_BOUND ( 'NONE', #611, .T. ) ;
#209 = ORIENTED_EDGE ( 'NONE', *, *, #726, .T. ) ;
#210 = EDGE_CURVE ( 'NONE', #340, #532, #19, .T. ) ;
#211 = AXIS2_PLACEMENT_3D ( 'NONE', #637, #184, #524 ) ;
#212 = PLANE ( 'NONE',  #608 ) ;
#213 = FACE_OUTER_BOUND ( 'NONE', #403, .T. ) ;
#214 = AXIS2_PLACEMENT_3D ( 'NONE', #539, #232, #705 ) ;
#215 = VERTEX_POINT ( 'NONE', #659 ) ;
#216 = PLANE ( 'NONE',  #520 ) ;
#217 = ORIENTED_EDGE ( 'NONE', *, *, #494, .F. ) ;
#218 = MECHANICAL_CONTEXT ( 'NONE', #257, 'mechanical' ) ;
#219 = CIRCLE ( 'NONE', #545, 0.6749999999999999334 ) ;
#220 = EDGE_CURVE ( 'NONE', #461, #336, #734, .T. ) ;
#221 = DIRECTION ( 'NONE',  ( 1.000000000000000000, 0.000000000000000000, -0.000000000000000000 ) ) ;
#222 = AXIS2_PLACEMENT_3D ( 'NONE', #107, #166, #102 ) ;
#223 = ORIENTED_EDGE ( 'NONE', *, *, #664, .T. ) ;
#224 = UNCERTAINTY_MEASURE_WITH_UNIT (LENGTH_MEASURE( 1.000000000000000082E-05 ), #97, 'distance_accuracy_value', 'NONE');
#225 = LENGTH_MEASURE_WITH_UNIT ( LENGTH_MEASURE( 0.02539999999999999897 ), #738 );
#226 = ORIENTED_EDGE ( 'NONE', *, *, #588, .F. ) ;
#227 = CARTESIAN_POINT ( 'NONE',  ( -0.2662204724409439338, -3.260260494422981586E-17, -0.3750000000000001110 ) ) ;
#228 = ORIENTED_EDGE ( 'NONE', *, *, #409, .T. ) ;
#229 = DATE_TIME_ROLE ( 'creation_date' ) ;
#230 = VERTEX_POINT ( 'NONE', #68 ) ;
#231 = DIRECTION ( 'NONE',  ( 0.000000000000000000, 0.000000000000000000, -1.000000000000000000 ) ) ;
#232 = DIRECTION ( 'NONE',  ( 0.000000000000000000, 0.000000000000000000, 1.000000000000000000 ) ) ;
#233 = COORDINATED_UNIVERSAL_TIME_OFFSET ( 8, 0, .BEHIND. ) ;
#234 = ORIENTED_EDGE ( 'NONE', *, *, #236, .F. ) ;
#235 = CARTESIAN_POINT ( 'NONE',  ( 0.1181102362207343270, 0.1705597916302038497, -0.3750000000000001110 ) ) ;
#236 = EDGE_CURVE ( 'NONE', #340, #358, #98, .T. ) ;
#237 = CARTESIAN_POINT ( 'NONE',  ( 0.000000000000000000, 0.000000000000000000, -6.829619984160658046E-17 ) ) ;
#238 = CC_DESIGN_APPROVAL ( #645, ( #145 ) ) ;
#239 = APPROVAL_ROLE ( '' ) ;
#240 = ORIENTED_EDGE ( 'NONE', *, *, #71, .T. ) ;
#241 = EDGE_CURVE ( 'NONE', #389, #215, #414, .T. ) ;
#242 = AXIS2_PLACEMENT_3D ( 'NONE', #754, #231, #468 ) ;
#243 = DIRECTION ( 'NONE',  ( 0.000000000000000000, 0.000000000000000000, -1.000000000000000000 ) ) ;
#244 = DIRECTION ( 'NONE',  ( -0.000000000000000000, 0.000000000000000000, 1.000000000000000000 ) ) ;
#245 = DIRECTION ( 'NONE',  ( 0.000000000000000000, 0.000000000000000000, -1.000000000000000000 ) ) ;
#246 = FACE_OUTER_BOUND ( 'NONE', #634, .T. ) ;
#247 = EDGE_CURVE ( 'NONE', #358, #482, #385, .T. ) ;
#248 = CARTESIAN_POINT ( 'NONE',  ( 0.6700000000000000400, 8.205133554287266809E-17, -0.3750000000000000555 ) ) ;
#249 = CC_DESIGN_PERSON_AND_ORGANIZATION_ASSIGNMENT ( #709, #657, ( #145 ) ) ;
#250 = FACE_OUTER_BOUND ( 'NONE', #301, .T. ) ;
#251 = CIRCLE ( 'NONE', #591, 0.5511811000000000904 ) ;
#252 = CALENDAR_DATE ( 2026, 27, 4 ) ;
#253 = SECURITY_CLASSIFICATION ( '', '', #542 ) ;
#254 = DIRECTION ( 'NONE',  ( 0.000000000000000000, 0.000000000000000000, -1.000000000000000000 ) ) ;
#255 = AXIS2_PLACEMENT_3D ( 'NONE', #17, #318, #136 ) ;
#256 = CLOSED_SHELL ( 'NONE', ( #3, #535, #266, #405, #452, #13, #550, #699, #162, #37, #489, #316, #326, #374, #673, #604, #48, #193, #295, #543, #314, #684, #703 ) ) ;
#257 = APPLICATION_CONTEXT ( 'configuration controlled 3d designs of mechanical parts and assemblies' ) ;
#258 = DIRECTION ( 'NONE',  ( -0.000000000000000000, -0.000000000000000000, -1.000000000000000000 ) ) ;
#259 = CARTESIAN_POINT ( 'NONE',  ( 0.000000000000000000, 0.000000000000000000, 0.000000000000000000 ) ) ;
#260 = DIRECTION ( 'NONE',  ( -0.000000000000000000, -0.000000000000000000, 1.000000000000000000 ) ) ;
#261 = DIRECTION ( 'NONE',  ( 1.000000000000000000, 0.000000000000000000, 0.000000000000000000 ) ) ;
#262 = FACE_OUTER_BOUND ( 'NONE', #95, .T. ) ;
#263 = DIRECTION ( 'NONE',  ( -0.000000000000000000, 0.000000000000000000, 1.000000000000000000 ) ) ;
#264 = CARTESIAN_POINT ( 'NONE',  ( 0.6749999999999999334, 8.266365894244633101E-17, 0.000000000000000000 ) ) ;
#265 = CARTESIAN_POINT ( 'NONE',  ( -0.5950000000000000844, 0.000000000000000000, -0.3250000000000000111 ) ) ;
#266 = ADVANCED_FACE ( 'NONE', ( #440 ), #458, .F. ) ;
#267 = ORIENTED_EDGE ( 'NONE', *, *, #361, .F. ) ;
#268 = FACE_BOUND ( 'NONE', #399, .T. ) ;
#269 = MANIFOLD_SOLID_BREP ( 'Chamfer1', #256 ) ;
#270 = APPROVAL_PERSON_ORGANIZATION ( #426, #170, #239 ) ;
#271 = CARTESIAN_POINT ( 'NONE',  ( 0.07874016000000001736, 0.000000000000000000, -6.829619984160658046E-17 ) ) ;
#272 = CIRCLE ( 'NONE', #147, 0.6749999999999999334 ) ;
#273 = ORIENTED_EDGE ( 'NONE', *, *, #16, .T. ) ;
#274 = AXIS2_PLACEMENT_3D ( 'NONE', #593, #528, #653 ) ;
#275 = FACE_OUTER_BOUND ( 'NONE', #712, .T. ) ;
#276 = ORIENTED_EDGE ( 'NONE', *, *, #131, .F. ) ;
#277 = EDGE_LOOP ( 'NONE', ( #384, #356, #424, #443 ) ) ;
#278 = EDGE_CURVE ( 'NONE', #563, #389, #689, .T. ) ;
#279 = DIRECTION ( 'NONE',  ( -0.000000000000000000, -0.000000000000000000, -1.000000000000000000 ) ) ;
#280 = EDGE_LOOP ( 'NONE', ( #332, #741, #577, #511 ) ) ;
#281 = CARTESIAN_POINT ( 'NONE',  ( 0.000000000000000000, 0.000000000000000000, -0.3250000000000000111 ) ) ;
#282 = PRODUCT_RELATED_PRODUCT_CATEGORY ( 'detail', '', ( #133 ) ) ;
#283 = DIRECTION ( 'NONE',  ( -1.000000000000000000, 0.000000000000000000, 0.000000000000000000 ) ) ;
#284 = CONICAL_SURFACE ( 'NONE', #592, 0.6250000000000000000, 0.7853981633974456145 ) ;
#285 = CC_DESIGN_APPROVAL ( #656, ( #565 ) ) ;
#286 = ORIENTED_EDGE ( 'NONE', *, *, #79, .T. ) ;
#287 = PERSON_AND_ORGANIZATION ( #498, #81 ) ;
#288 = ORIENTED_EDGE ( 'NONE', *, *, #381, .F. ) ;
#289 = AXIS2_PLACEMENT_3D ( 'NONE', #24, #390, #89 ) ;
#290 = FACE_OUTER_BOUND ( 'NONE', #675, .T. ) ;
#291 = DIRECTION ( 'NONE',  ( -1.000000000000000000, 0.000000000000000000, 0.000000000000000000 ) ) ;
#292 = AXIS2_PLACEMENT_3D ( 'NONE', #123, #180, #416 ) ;
#293 =( NAMED_UNIT ( * ) PLANE_ANGLE_UNIT ( ) SI_UNIT ( $, .RADIAN. ) );
#294 = ORIENTED_EDGE ( 'NONE', *, *, #278, .F. ) ;
#295 = ADVANCED_FACE ( 'NONE', ( #146 ), #613, .F. ) ;
#296 = CYLINDRICAL_SURFACE ( 'NONE', #177, 0.03937007999999999480 ) ;
#297 = ORIENTED_EDGE ( 'NONE', *, *, #71, .F. ) ;
#298 = CC_DESIGN_PERSON_AND_ORGANIZATION_ASSIGNMENT ( #171, #691, ( #565 ) ) ;
#299 = ORIENTED_EDGE ( 'NONE', *, *, #618, .F. ) ;
#300 = FACE_OUTER_BOUND ( 'NONE', #277, .T. ) ;
#301 = EDGE_LOOP ( 'NONE', ( #638, #649 ) ) ;
#302 = DATE_AND_TIME ( #175, #347 ) ;
#303 = EDGE_LOOP ( 'NONE', ( #402, #40, #447, #240 ) ) ;
#304 = FACE_OUTER_BOUND ( 'NONE', #644, .T. ) ;
#305 = AXIS2_PLACEMENT_3D ( 'NONE', #627, #742, #221 ) ;
#306 = EDGE_LOOP ( 'NONE', ( #695, #736 ) ) ;
#307 = EDGE_CURVE ( 'NONE', #629, #119, #536, .T. ) ;
#308 = DIRECTION ( 'NONE',  ( -1.000000000000000000, 0.000000000000000000, 0.000000000000000000 ) ) ;
#309 = DIRECTION ( 'NONE',  ( -0.000000000000000000, 0.000000000000000000, 1.000000000000000000 ) ) ;
#310 = CARTESIAN_POINT ( 'NONE',  ( 0.1574803162207343288, -0.2385860684251319142, -0.3750000000000001110 ) ) ;
#311 = CIRCLE ( 'NONE', #274, 0.6700000000000000400 ) ;
#312 = DIRECTION ( 'NONE',  ( -1.000000000000000000, 0.000000000000000000, 0.000000000000000000 ) ) ;
#313 = AXIS2_PLACEMENT_3D ( 'NONE', #126, #57, #367 ) ;
#314 = ADVANCED_FACE ( 'NONE', ( #163 ), #739, .F. ) ;
#315 = DIRECTION ( 'NONE',  ( 1.000000000000000000, 0.000000000000000000, 0.000000000000000000 ) ) ;
#316 = ADVANCED_FACE ( 'NONE', ( #339, #208 ), #216, .T. ) ;
#317 = LINE ( 'NONE', #264, #319 ) ;
#318 = DIRECTION ( 'NONE',  ( -0.000000000000000000, -0.000000000000000000, -1.000000000000000000 ) ) ;
#319 = VECTOR ( 'NONE', #733, 39.37007874015748143 ) ;
#320 = AXIS2_PLACEMENT_3D ( 'NONE', #621, #333, #466 ) ;
#321 = DIRECTION ( 'NONE',  ( -0.000000000000000000, -0.000000000000000000, -1.000000000000000000 ) ) ;
#322 = FACE_BOUND ( 'NONE', #182, .T. ) ;
#323 = CARTESIAN_POINT ( 'NONE',  ( -0.2662204724409439338, -3.260260494422981586E-17, -6.829619984160658046E-17 ) ) ;
#324 = VERTEX_POINT ( 'NONE', #725 ) ;
#325 = VECTOR ( 'NONE', #721, 39.37007874015748143 ) ;
#326 = ADVANCED_FACE ( 'NONE', ( #213 ), #39, .T. ) ;
#327 = DIRECTION ( 'NONE',  ( -0.000000000000000000, -0.000000000000000000, 1.000000000000000000 ) ) ;
#328 = EDGE_LOOP ( 'NONE', ( #294, #750, #758, #560 ) ) ;
#329 = CARTESIAN_POINT ( 'NONE',  ( -0.2662204724409439338, -3.260260494422981586E-17, 0.07000000000000000666 ) ) ;
#330 = CC_DESIGN_SECURITY_CLASSIFICATION ( #253, ( #145 ) ) ;
#331 = DIRECTION ( 'NONE',  ( -0.000000000000000000, -0.000000000000000000, 1.000000000000000000 ) ) ;
#332 = ORIENTED_EDGE ( 'NONE', *, *, #20, .T. ) ;
#333 = DIRECTION ( 'NONE',  ( 0.000000000000000000, 0.000000000000000000, 1.000000000000000000 ) ) ;
#334 = VERTEX_POINT ( 'NONE', #555 ) ;
#335 = CARTESIAN_POINT ( 'NONE',  ( 0.1181102362207343270, -0.2385860684251319142, -0.3750000000000001110 ) ) ;
#336 = VERTEX_POINT ( 'NONE', #271 ) ;
#337 = EDGE_CURVE ( 'NONE', #207, #672, #351, .T. ) ;
#338 = APPLICATION_PROTOCOL_DEFINITION ( 'international standard', 'config_control_design', 1994, #666 ) ;
#339 = FACE_BOUND ( 'NONE', #527, .T. ) ;
#340 = VERTEX_POINT ( 'NONE', #401 ) ;
#341 = DIRECTION ( 'NONE',  ( -1.000000000000000000, 0.000000000000000000, 0.000000000000000000 ) ) ;
#342 = VERTEX_POINT ( 'NONE', #26 ) ;
#343 = DIRECTION ( 'NONE',  ( -0.000000000000000000, -0.000000000000000000, -1.000000000000000000 ) ) ;
#344 = VERTEX_POINT ( 'NONE', #510 ) ;
#345 = VERTEX_POINT ( 'NONE', #265 ) ;
#346 = LINE ( 'NONE', #419, #732 ) ;
#347 = LOCAL_TIME ( 21, 3, 28.00000000000000000, #474 ) ;
#348 = DIRECTION ( 'NONE',  ( -0.000000000000000000, -0.000000000000000000, -1.000000000000000000 ) ) ;
#349 = AXIS2_PLACEMENT_3D ( 'NONE', #235, #357, #472 ) ;
#350 = ORIENTED_EDGE ( 'NONE', *, *, #241, .T. ) ;
#351 = CIRCLE ( 'NONE', #612, 0.6700000000000000400 ) ;
#352 = EDGE_CURVE ( 'NONE', #514, #345, #500, .T. ) ;
#353 = FACE_OUTER_BOUND ( 'NONE', #636, .T. ) ;
#354 = EDGE_LOOP ( 'NONE', ( #153, #697, #2, #359 ) ) ;
#355 = VECTOR ( 'NONE', #5, 39.37007874015748143 ) ;
#356 = ORIENTED_EDGE ( 'NONE', *, *, #220, .T. ) ;
#357 = DIRECTION ( 'NONE',  ( -0.000000000000000000, -0.000000000000000000, 1.000000000000000000 ) ) ;
#358 = VERTEX_POINT ( 'NONE', #104 ) ;
#359 = ORIENTED_EDGE ( 'NONE', *, *, #210, .F. ) ;
#360 = AXIS2_PLACEMENT_3D ( 'NONE', #369, #599, #442 ) ;
#361 = EDGE_CURVE ( 'NONE', #169, #334, #505, .T. ) ;
#362 = CYLINDRICAL_SURFACE ( 'NONE', #546, 0.07874016000000001736 ) ;
#363 = ORIENTED_EDGE ( 'NONE', *, *, #220, .F. ) ;
#364 = EDGE_CURVE ( 'NONE', #336, #585, #497, .T. ) ;
#365 = CIRCLE ( 'NONE', #242, 0.5511811000000000904 ) ;
#366 = CARTESIAN_POINT ( 'NONE',  ( 0.6749999999999999334, 8.266365894244633101E-17, 0.01999999999999986511 ) ) ;
#367 = DIRECTION ( 'NONE',  ( 1.000000000000000000, 0.000000000000000000, 0.000000000000000000 ) ) ;
#368 = PERSON_AND_ORGANIZATION_ROLE ( 'design_supplier' ) ;
#369 = CARTESIAN_POINT ( 'NONE',  ( 0.000000000000000000, 0.000000000000000000, 0.000000000000000000 ) ) ;
#370 = DIRECTION ( 'NONE',  ( 0.000000000000000000, 0.000000000000000000, -1.000000000000000000 ) ) ;
#371 = PERSON_AND_ORGANIZATION ( #498, #81 ) ;
#372 = DIRECTION ( 'NONE',  ( 1.000000000000000000, 0.000000000000000000, 0.000000000000000000 ) ) ;
#373 = EDGE_CURVE ( 'NONE', #459, #207, #155, .T. ) ;
#374 = ADVANCED_FACE ( 'NONE', ( #93, #275 ), #159, .F. ) ;
#375 = AXIS2_PLACEMENT_3D ( 'NONE', #665, #715, #605 ) ;
#376 = LINE ( 'NONE', #78, #325 ) ;
#377 = FACE_BOUND ( 'NONE', #120, .T. ) ;
#378 = CYLINDRICAL_SURFACE ( 'NONE', #492, 0.5950000000000000844 ) ;
#379 = DIRECTION ( 'NONE',  ( -1.000000000000000000, 0.000000000000000000, 0.000000000000000000 ) ) ;
#380 = AXIS2_PLACEMENT_3D ( 'NONE', #22, #551, #727 ) ;
#381 = EDGE_CURVE ( 'NONE', #728, #501, #50, .T. ) ;
#382 = LOCAL_TIME ( 21, 3, 28.00000000000000000, #746 ) ;
#383 = FACE_OUTER_BOUND ( 'NONE', #328, .T. ) ;
#384 = ORIENTED_EDGE ( 'NONE', *, *, #139, .F. ) ;
#385 = LINE ( 'NONE', #205, #628 ) ;
#386 = VECTOR ( 'NONE', #331, 39.37007874015748143 ) ;
#387 = EDGE_LOOP ( 'NONE', ( #441, #573 ) ) ;
#388 = LINE ( 'NONE', #616, #533 ) ;
#389 = VERTEX_POINT ( 'NONE', #422 ) ;
#390 = DIRECTION ( 'NONE',  ( 0.000000000000000000, 0.000000000000000000, 1.000000000000000000 ) ) ;
#391 = ORIENTED_EDGE ( 'NONE', *, *, #23, .F. ) ;
#392 = CARTESIAN_POINT ( 'NONE',  ( -0.6700000000000000400, 0.000000000000000000, 0.000000000000000000 ) ) ;
#393 = ORIENTED_EDGE ( 'NONE', *, *, #109, .T. ) ;
#394 = CALENDAR_DATE ( 2026, 27, 4 ) ;
#395 = ORIENTED_EDGE ( 'NONE', *, *, #109, .F. ) ;
#396 = CIRCLE ( 'NONE', #62, 0.03937007999999999480 ) ;
#397 = DIRECTION ( 'NONE',  ( -0.000000000000000000, -0.000000000000000000, 1.000000000000000000 ) ) ;
#398 = EDGE_CURVE ( 'NONE', #334, #169, #201, .T. ) ;
#399 = EDGE_LOOP ( 'NONE', ( #731, #464 ) ) ;
#400 = DIRECTION ( 'NONE',  ( 0.000000000000000000, 0.000000000000000000, -1.000000000000000000 ) ) ;
#401 = CARTESIAN_POINT ( 'NONE',  ( 0.1574803162207343288, -0.2385860684251319142, -6.829619984160658046E-17 ) ) ;
#402 = ORIENTED_EDGE ( 'NONE', *, *, #247, .F. ) ;
#403 = EDGE_LOOP ( 'NONE', ( #706, #503, #160, #622 ) ) ;
#404 = CARTESIAN_POINT ( 'NONE',  ( 0.07874015622073432530, -0.2385860684251319142, 0.07000000000000000666 ) ) ;
#405 = ADVANCED_FACE ( 'NONE', ( #304 ), #362, .F. ) ;
#406 = EDGE_LOOP ( 'NONE', ( #158, #27, #582, #44 ) ) ;
#407 = DIRECTION ( 'NONE',  ( 0.000000000000000000, 0.000000000000000000, -1.000000000000000000 ) ) ;
#408 = EDGE_LOOP ( 'NONE', ( #209, #228, #106, #92 ) ) ;
#409 = EDGE_CURVE ( 'NONE', #144, #672, #121, .T. ) ;
#410 = DIRECTION ( 'NONE',  ( -1.000000000000000000, 0.000000000000000000, 0.000000000000000000 ) ) ;
#411 = DIRECTION ( 'NONE',  ( -1.000000000000000000, 0.000000000000000000, 0.000000000000000000 ) ) ;
#412 = PERSON_AND_ORGANIZATION ( #498, #81 ) ;
#413 = VERTEX_POINT ( 'NONE', #186 ) ;
#414 = CIRCLE ( 'NONE', #676, 0.03937007999999999480 ) ;
#415 = CARTESIAN_POINT ( 'NONE',  ( 0.000000000000000000, 0.000000000000000000, 0.000000000000000000 ) ) ;
#416 = DIRECTION ( 'NONE',  ( -1.000000000000000000, 0.000000000000000000, 0.000000000000000000 ) ) ;
#417 = SHAPE_DEFINITION_REPRESENTATION ( #191, #730 ) ;
#418 = ORIENTED_EDGE ( 'NONE', *, *, #438, .T. ) ;
#419 = CARTESIAN_POINT ( 'NONE',  ( -0.2268503924409439598, -3.260260494422981586E-17, -0.3750000000000001110 ) ) ;
#420 = EDGE_CURVE ( 'NONE', #144, #459, #311, .T. ) ;
#421 = CARTESIAN_POINT ( 'NONE',  ( -0.6749999999999999334, 0.000000000000000000, 0.01999999999999986511 ) ) ;
#422 = CARTESIAN_POINT ( 'NONE',  ( 0.07874015622073432530, 0.1705597916302038497, 0.07000000000000000666 ) ) ;
#423 = CIRCLE ( 'NONE', #222, 0.6700000000000000400 ) ;
#424 = ORIENTED_EDGE ( 'NONE', *, *, #364, .T. ) ;
#425 = CC_DESIGN_PERSON_AND_ORGANIZATION_ASSIGNMENT ( #412, #188, ( #253 ) ) ;
#426 = PERSON_AND_ORGANIZATION ( #498, #81 ) ;
#427 = DIRECTION ( 'NONE',  ( 1.000000000000000000, 0.000000000000000000, 0.000000000000000000 ) ) ;
#428 = DIRECTION ( 'NONE',  ( 1.000000000000000000, 0.000000000000000000, 0.000000000000000000 ) ) ;
#429 = APPROVAL_ROLE ( '' ) ;
#430 = DIRECTION ( 'NONE',  ( -0.000000000000000000, -0.000000000000000000, -1.000000000000000000 ) ) ;
#431 = EDGE_CURVE ( 'NONE', #690, #344, #251, .T. ) ;
#432 = DIRECTION ( 'NONE',  ( -0.7071067811865455743, 0.000000000000000000, -0.7071067811865493491 ) ) ;
#433 = CARTESIAN_POINT ( 'NONE',  ( 0.000000000000000000, 0.000000000000000000, -6.829619984160658046E-17 ) ) ;
#434 = CIRCLE ( 'NONE', #101, 0.5511811000000000904 ) ;
#435 = DIRECTION ( 'NONE',  ( 0.000000000000000000, 0.000000000000000000, -1.000000000000000000 ) ) ;
#436 = EDGE_CURVE ( 'NONE', #358, #340, #9, .T. ) ;
#437 = LINE ( 'NONE', #668, #570 ) ;
#438 = EDGE_CURVE ( 'NONE', #324, #708, #219, .T. ) ;
#439 = CARTESIAN_POINT ( 'NONE',  ( 0.000000000000000000, 0.000000000000000000, 0.07000000000000000666 ) ) ;
#440 = FACE_OUTER_BOUND ( 'NONE', #354, .T. ) ;
#441 = ORIENTED_EDGE ( 'NONE', *, *, #199, .F. ) ;
#442 = DIRECTION ( 'NONE',  ( -1.000000000000000000, 0.000000000000000000, 0.000000000000000000 ) ) ;
#443 = ORIENTED_EDGE ( 'NONE', *, *, #105, .T. ) ;
#444 = LOCAL_TIME ( 21, 3, 28.00000000000000000, #181 ) ;
#445 = DIRECTION ( 'NONE',  ( -1.000000000000000000, 0.000000000000000000, 0.000000000000000000 ) ) ;
#446 = VECTOR ( 'NONE', #623, 39.37007874015748143 ) ;
#447 = ORIENTED_EDGE ( 'NONE', *, *, #210, .T. ) ;
#448 = DIRECTION ( 'NONE',  ( 1.000000000000000000, 0.000000000000000000, -0.000000000000000000 ) ) ;
#449 = DIRECTION ( 'NONE',  ( -0.000000000000000000, -0.000000000000000000, -1.000000000000000000 ) ) ;
#450 = ORIENTED_EDGE ( 'NONE', *, *, #719, .T. ) ;
#451 =( NAMED_UNIT ( * ) SI_UNIT ( $, .STERADIAN. ) SOLID_ANGLE_UNIT ( ) );
#452 = ADVANCED_FACE ( 'NONE', ( #646 ), #296, .F. ) ;
#453 = DIRECTION ( 'NONE',  ( 1.000000000000000000, 0.000000000000000000, -0.000000000000000000 ) ) ;
#454 = ORIENTED_EDGE ( 'NONE', *, *, #598, .F. ) ;
#455 = AXIS2_PLACEMENT_3D ( 'NONE', #674, #260, #140 ) ;
#456 = PERSON_AND_ORGANIZATION_ROLE ( 'design_owner' ) ;
#457 = AXIS2_PLACEMENT_3D ( 'NONE', #688, #407, #639 ) ;
#458 = CYLINDRICAL_SURFACE ( 'NONE', #74, 0.03937007999999999480 ) ;
#459 = VERTEX_POINT ( 'NONE', #748 ) ;
#460 = DATE_AND_TIME ( #394, #382 ) ;
#461 = VERTEX_POINT ( 'NONE', #707 ) ;
#462 = DIRECTION ( 'NONE',  ( -1.000000000000000000, 0.000000000000000000, 0.000000000000000000 ) ) ;
#463 = CIRCLE ( 'NONE', #128, 0.03937007999999999480 ) ;
#464 = ORIENTED_EDGE ( 'NONE', *, *, #79, .F. ) ;
#465 = EDGE_CURVE ( 'NONE', #342, #629, #346, .T. ) ;
#466 = DIRECTION ( 'NONE',  ( 1.000000000000000000, 0.000000000000000000, 0.000000000000000000 ) ) ;
#467 = EDGE_LOOP ( 'NONE', ( #747, #686, #530, #519 ) ) ;
#468 = DIRECTION ( 'NONE',  ( -1.000000000000000000, 0.000000000000000000, 0.000000000000000000 ) ) ;
#469 = CYLINDRICAL_SURFACE ( 'NONE', #693, 0.5511811000000000904 ) ;
#470 = APPROVAL_DATE_TIME ( #302, #170 ) ;
#471 = EDGE_LOOP ( 'NONE', ( #529, #100, #700, #29 ) ) ;
#472 = DIRECTION ( 'NONE',  ( 1.000000000000000000, 0.000000000000000000, 0.000000000000000000 ) ) ;
#473 = ORIENTED_EDGE ( 'NONE', *, *, #420, .F. ) ;
#474 = COORDINATED_UNIVERSAL_TIME_OFFSET ( 8, 0, .BEHIND. ) ;
#475 = ORIENTED_EDGE ( 'NONE', *, *, #364, .F. ) ;
#476 = AXIS2_PLACEMENT_3D ( 'NONE', #130, #544, #600 ) ;
#477 = EDGE_CURVE ( 'NONE', #563, #413, #486, .T. ) ;
#478 = CARTESIAN_POINT ( 'NONE',  ( -0.5950000000000000844, 0.000000000000000000, -0.05000000000000000278 ) ) ;
#479 = AXIS2_PLACEMENT_3D ( 'NONE', #76, #716, #315 ) ;
#480 = FACE_OUTER_BOUND ( 'NONE', #617, .T. ) ;
#481 = CARTESIAN_POINT ( 'NONE',  ( 0.6700000000000000400, 8.205133554287266809E-17, 0.000000000000000000 ) ) ;
#482 = VERTEX_POINT ( 'NONE', #404 ) ;
#483 = CIRCLE ( 'NONE', #589, 0.03937007999999999480 ) ;
#484 = FACE_OUTER_BOUND ( 'NONE', #744, .T. ) ;
#485 = DIRECTION ( 'NONE',  ( -1.000000000000000000, 0.000000000000000000, -0.000000000000000000 ) ) ;
#486 = CIRCLE ( 'NONE', #567, 0.03937007999999999480 ) ;
#487 = AXIS2_PLACEMENT_3D ( 'NONE', #49, #245, #410 ) ;
#488 = DIRECTION ( 'NONE',  ( -1.000000000000000000, 0.000000000000000000, 0.000000000000000000 ) ) ;
#489 = ADVANCED_FACE ( 'NONE', ( #290 ), #579, .T. ) ;
#490 = CYLINDRICAL_SURFACE ( 'NONE', #538, 0.6700000000000000400 ) ;
#491 = LINE ( 'NONE', #717, #615 ) ;
#492 = AXIS2_PLACEMENT_3D ( 'NONE', #80, #321, #150 ) ;
#493 = CYLINDRICAL_SURFACE ( 'NONE', #96, 0.07874016000000001736 ) ;
#494 = EDGE_CURVE ( 'NONE', #344, #690, #365, .T. ) ;
#495 = CARTESIAN_POINT ( 'NONE',  ( 0.000000000000000000, 0.000000000000000000, 0.07000000000000000666 ) ) ;
#496 = FACE_OUTER_BOUND ( 'NONE', #280, .T. ) ;
#497 = LINE ( 'NONE', #680, #386 ) ;
#498 = PERSON ( 'UNSPECIFIED', 'UNSPECIFIED', 'UNSPECIFIED', ('UNSPECIFIED'), ('UNSPECIFIED'), ('UNSPECIFIED') ) ;
#499 = DIRECTION ( 'NONE',  ( -0.000000000000000000, -0.000000000000000000, 1.000000000000000000 ) ) ;
#500 = LINE ( 'NONE', #677, #1 ) ;
#501 = VERTEX_POINT ( 'NONE', #118 ) ;
#502 = FACE_BOUND ( 'NONE', #108, .T. ) ;
#503 = ORIENTED_EDGE ( 'NONE', *, *, #154, .T. ) ;
#504 = DIRECTION ( 'NONE',  ( -0.000000000000000000, -0.000000000000000000, 1.000000000000000000 ) ) ;
#505 = CIRCLE ( 'NONE', #289, 0.6250000000000000000 ) ;
#506 = ORIENTED_EDGE ( 'NONE', *, *, #409, .F. ) ;
#507 = EDGE_CURVE ( 'NONE', #569, #63, #272, .T. ) ;
#508 = DIRECTION ( 'NONE',  ( -0.000000000000000000, -0.000000000000000000, -1.000000000000000000 ) ) ;
#509 = CIRCLE ( 'NONE', #479, 0.03937007999999999480 ) ;
#510 = CARTESIAN_POINT ( 'NONE',  ( 0.5511811000000000904, 6.750021698655170902E-17, -6.829619984160658046E-17 ) ) ;
#511 = ORIENTED_EDGE ( 'NONE', *, *, #718, .F. ) ;
#512 = CARTESIAN_POINT ( 'NONE',  ( -0.6749999999999999334, 0.000000000000000000, -0.04999999999999999584 ) ) ;
#513 = CARTESIAN_POINT ( 'NONE',  ( 0.000000000000000000, 0.000000000000000000, 0.000000000000000000 ) ) ;
#514 = VERTEX_POINT ( 'NONE', #478 ) ;
#515 = ORIENTED_EDGE ( 'NONE', *, *, #94, .F. ) ;
#516 = CIRCLE ( 'NONE', #457, 0.03937007999999999480 ) ;
#517 = CC_DESIGN_DATE_AND_TIME_ASSIGNMENT ( #635, #229, ( #565 ) ) ;
#518 = DIRECTION ( 'NONE',  ( 1.000000000000000000, 0.000000000000000000, 0.000000000000000000 ) ) ;
#519 = ORIENTED_EDGE ( 'NONE', *, *, #352, .F. ) ;
#520 = AXIS2_PLACEMENT_3D ( 'NONE', #35, #735, #453 ) ;
#521 = APPROVAL_DATE_TIME ( #460, #656 ) ;
#522 = VERTEX_POINT ( 'NONE', #641 ) ;
#523 = CIRCLE ( 'NONE', #194, 0.07874016000000001736 ) ;
#524 = DIRECTION ( 'NONE',  ( 1.000000000000000000, 0.000000000000000000, 0.000000000000000000 ) ) ;
#525 = CIRCLE ( 'NONE', #292, 0.5950000000000000844 ) ;
#526 = CARTESIAN_POINT ( 'NONE',  ( 0.5511811000000000904, 6.750021698655170902E-17, -6.829619984160658046E-17 ) ) ;
#527 = EDGE_LOOP ( 'NONE', ( #156, #117 ) ) ;
#528 = DIRECTION ( 'NONE',  ( -0.000000000000000000, -0.000000000000000000, -1.000000000000000000 ) ) ;
#529 = ORIENTED_EDGE ( 'NONE', *, *, #756, .T. ) ;
#530 = ORIENTED_EDGE ( 'NONE', *, *, #630, .F. ) ;
#531 = DIRECTION ( 'NONE',  ( -0.000000000000000000, -0.000000000000000000, -1.000000000000000000 ) ) ;
#532 = VERTEX_POINT ( 'NONE', #113 ) ;
#533 = VECTOR ( 'NONE', #722, 39.37007874015748143 ) ;
#534 = ORIENTED_EDGE ( 'NONE', *, *, #431, .F. ) ;
#535 = ADVANCED_FACE ( 'NONE', ( #353 ), #56, .F. ) ;
#536 = CIRCLE ( 'NONE', #114, 0.03937007999999999480 ) ;
#537 = CARTESIAN_POINT ( 'NONE',  ( 0.000000000000000000, 0.000000000000000000, -0.04999999999999999584 ) ) ;
#538 = AXIS2_PLACEMENT_3D ( 'NONE', #259, #430, #603 ) ;
#539 = CARTESIAN_POINT ( 'NONE',  ( 0.000000000000000000, 3.822548498597383750E-17, -0.3750000000000001110 ) ) ;
#540 = CARTESIAN_POINT ( 'NONE',  ( 0.000000000000000000, 0.000000000000000000, 0.07000000000000000666 ) ) ;
#541 = VERTEX_POINT ( 'NONE', #59 ) ;
#542 = SECURITY_CLASSIFICATION_LEVEL ( 'unclassified' ) ;
#543 = ADVANCED_FACE ( 'NONE', ( #300 ), #493, .F. ) ;
#544 = DIRECTION ( 'NONE',  ( 0.000000000000000000, 0.000000000000000000, -1.000000000000000000 ) ) ;
#545 = AXIS2_PLACEMENT_3D ( 'NONE', #537, #4, #283 ) ;
#546 = AXIS2_PLACEMENT_3D ( 'NONE', #710, #650, #110 ) ;
#547 = CARTESIAN_POINT ( 'NONE',  ( 0.6700000000000000400, 8.205133554287266809E-17, -0.3250000000000000111 ) ) ;
#548 = AXIS2_PLACEMENT_3D ( 'NONE', #15, #258, #379 ) ;
#549 = PLANE ( 'NONE',  #632 ) ;
#550 = ADVANCED_FACE ( 'NONE', ( #496 ), #610, .T. ) ;
#551 = DIRECTION ( 'NONE',  ( -0.000000000000000000, -0.000000000000000000, -1.000000000000000000 ) ) ;
#552 = CC_DESIGN_APPROVAL ( #170, ( #253 ) ) ;
#553 = CARTESIAN_POINT ( 'NONE',  ( -0.6700000000000000400, 0.000000000000000000, -0.3750000000000000555 ) ) ;
#554 = CARTESIAN_POINT ( 'NONE',  ( 0.000000000000000000, 0.000000000000000000, -0.3750000000000001110 ) ) ;
#555 = CARTESIAN_POINT ( 'NONE',  ( -0.6250000000000000000, 0.000000000000000000, 0.07000000000000000666 ) ) ;
#556 = CIRCLE ( 'NONE', #255, 0.6749999999999999334 ) ;
#557 = CIRCLE ( 'NONE', #195, 0.07874016000000001736 ) ;
#558 = DIRECTION ( 'NONE',  ( -0.000000000000000000, 0.000000000000000000, 1.000000000000000000 ) ) ;
#559 = DIRECTION ( 'NONE',  ( -0.000000000000000000, -0.000000000000000000, 1.000000000000000000 ) ) ;
#560 = ORIENTED_EDGE ( 'NONE', *, *, #70, .T. ) ;
#561 = FACE_OUTER_BOUND ( 'NONE', #306, .T. ) ;
#562 = EDGE_CURVE ( 'NONE', #112, #541, #388, .T. ) ;
#563 = VERTEX_POINT ( 'NONE', #202 ) ;
#564 = CARTESIAN_POINT ( 'NONE',  ( -0.2662204724409439338, -3.260260494422981586E-17, 0.07000000000000000666 ) ) ;
#565 = PRODUCT_DEFINITION ( 'UNKNOWN', '', #145, #52 ) ;
#566 = ORIENTED_EDGE ( 'NONE', *, *, #373, .T. ) ;
#567 = AXIS2_PLACEMENT_3D ( 'NONE', #759, #583, #168 ) ;
#568 = DIRECTION ( 'NONE',  ( -1.000000000000000000, 0.000000000000000000, 0.000000000000000000 ) ) ;
#569 = VERTEX_POINT ( 'NONE', #366 ) ;
#570 = VECTOR ( 'NONE', #432, 39.37007874015748854 ) ;
#571 = DIRECTION ( 'NONE',  ( 1.000000000000000000, 0.000000000000000000, 0.000000000000000000 ) ) ;
#572 = EDGE_LOOP ( 'NONE', ( #234, #87 ) ) ;
#573 = ORIENTED_EDGE ( 'NONE', *, *, #154, .F. ) ;
#574 = EDGE_CURVE ( 'NONE', #522, #119, #88, .T. ) ;
#575 = DIRECTION ( 'NONE',  ( -1.000000000000000000, 0.000000000000000000, 0.000000000000000000 ) ) ;
#576 = ORIENTED_EDGE ( 'NONE', *, *, #20, .F. ) ;
#577 = ORIENTED_EDGE ( 'NONE', *, *, #134, .F. ) ;
#578 = APPROVAL_PERSON_ORGANIZATION ( #53, #645, #429 ) ;
#579 = CYLINDRICAL_SURFACE ( 'NONE', #72, 0.6700000000000000400 ) ;
#580 = LINE ( 'NONE', #526, #355 ) ;
#581 = LINE ( 'NONE', #631, #720 ) ;
#582 = ORIENTED_EDGE ( 'NONE', *, *, #465, .T. ) ;
#583 = DIRECTION ( 'NONE',  ( 0.000000000000000000, 0.000000000000000000, -1.000000000000000000 ) ) ;
#584 = ORIENTED_EDGE ( 'NONE', *, *, #477, .F. ) ;
#585 = VERTEX_POINT ( 'NONE', #190 ) ;
#586 = DIRECTION ( 'NONE',  ( -1.000000000000000000, 0.000000000000000000, 0.000000000000000000 ) ) ;
#587 = DIRECTION ( 'NONE',  ( 0.000000000000000000, 0.000000000000000000, -1.000000000000000000 ) ) ;
#588 = EDGE_CURVE ( 'NONE', #119, #629, #483, .T. ) ;
#589 = AXIS2_PLACEMENT_3D ( 'NONE', #329, #558, #427 ) ;
#590 = ORIENTED_EDGE ( 'NONE', *, *, #183, .F. ) ;
#591 = AXIS2_PLACEMENT_3D ( 'NONE', #763, #694, #575 ) ;
#592 = AXIS2_PLACEMENT_3D ( 'NONE', #439, #669, #143 ) ;
#593 = CARTESIAN_POINT ( 'NONE',  ( 0.000000000000000000, 0.000000000000000000, -0.3250000000000000111 ) ) ;
#594 = DIRECTION ( 'NONE',  ( -1.000000000000000000, 0.000000000000000000, 0.000000000000000000 ) ) ;
#595 = DATE_TIME_ROLE ( 'classification_date' ) ;
#596 = CARTESIAN_POINT ( 'NONE',  ( -0.2268503924409439598, -3.260260494422981586E-17, 0.07000000000000000666 ) ) ;
#597 = PLANE ( 'NONE',  #214 ) ;
#598 = EDGE_CURVE ( 'NONE', #569, #324, #317, .T. ) ;
#599 = DIRECTION ( 'NONE',  ( -0.000000000000000000, -0.000000000000000000, -1.000000000000000000 ) ) ;
#600 = DIRECTION ( 'NONE',  ( -1.000000000000000000, 0.000000000000000000, 0.000000000000000000 ) ) ;
#601 = DATE_AND_TIME ( #252, #444 ) ;
#602 = DIRECTION ( 'NONE',  ( 1.000000000000000000, 0.000000000000000000, 0.000000000000000000 ) ) ;
#603 = DIRECTION ( 'NONE',  ( -1.000000000000000000, 0.000000000000000000, 0.000000000000000000 ) ) ;
#604 = ADVANCED_FACE ( 'NONE', ( #561, #28, #607, #268, #502 ), #212, .T. ) ;
#605 = DIRECTION ( 'NONE',  ( -1.000000000000000000, 0.000000000000000000, 0.000000000000000000 ) ) ;
#606 = CC_DESIGN_DATE_AND_TIME_ASSIGNMENT ( #601, #595, ( #253 ) ) ;
#607 = FACE_BOUND ( 'NONE', #172, .T. ) ;
#608 = AXIS2_PLACEMENT_3D ( 'NONE', #540, #658, #448 ) ;
#609 = CARTESIAN_POINT ( 'NONE',  ( 0.6250000000000000000, 7.960204194457795477E-17, 0.07000000000000000666 ) ) ;
#610 = CYLINDRICAL_SURFACE ( 'NONE', #21, 0.6749999999999999334 ) ;
#611 = EDGE_LOOP ( 'NONE', ( #187, #473 ) ) ;
#612 = AXIS2_PLACEMENT_3D ( 'NONE', #151, #449, #445 ) ;
#613 = CYLINDRICAL_SURFACE ( 'NONE', #749, 0.03937007999999999480 ) ;
#614 = ORIENTED_EDGE ( 'NONE', *, *, #711, .T. ) ;
#615 = VECTOR ( 'NONE', #82, 39.37007874015748143 ) ;
#616 = CARTESIAN_POINT ( 'NONE',  ( 0.5950000000000000844, 7.286648454926752704E-17, 0.000000000000000000 ) ) ;
#617 = EDGE_LOOP ( 'NONE', ( #217, #273, #683, #515 ) ) ;
#618 = EDGE_CURVE ( 'NONE', #522, #342, #142, .T. ) ;
#619 = DIRECTION ( 'NONE',  ( 1.000000000000000000, 0.000000000000000000, 0.000000000000000000 ) ) ;
#620 = ORIENTED_EDGE ( 'NONE', *, *, #94, .T. ) ;
#621 = CARTESIAN_POINT ( 'NONE',  ( 0.000000000000000000, 0.000000000000000000, 0.000000000000000000 ) ) ;
#622 = ORIENTED_EDGE ( 'NONE', *, *, #61, .F. ) ;
#623 = DIRECTION ( 'NONE',  ( -0.000000000000000000, -0.000000000000000000, -1.000000000000000000 ) ) ;
#624 = ORIENTED_EDGE ( 'NONE', *, *, #278, .T. ) ;
#625 = CARTESIAN_POINT ( 'NONE',  ( -0.2662204724409439338, -3.260260494422981586E-17, -6.829619984160658046E-17 ) ) ;
#626 = ORIENTED_EDGE ( 'NONE', *, *, #507, .F. ) ;
#627 = CARTESIAN_POINT ( 'NONE',  ( 0.000000000000000000, 5.335640612625531817E-18, -0.04999999999999999584 ) ) ;
#628 = VECTOR ( 'NONE', #504, 39.37007874015748143 ) ;
#629 = VERTEX_POINT ( 'NONE', #596 ) ;
#630 = EDGE_CURVE ( 'NONE', #345, #541, #122, .T. ) ;
#631 = CARTESIAN_POINT ( 'NONE',  ( -0.6749999999999999334, 0.000000000000000000, 0.000000000000000000 ) ) ;
#632 = AXIS2_PLACEMENT_3D ( 'NONE', #433, #370, #485 ) ;
#633 = DIRECTION ( 'NONE',  ( 1.000000000000000000, 0.000000000000000000, 0.000000000000000000 ) ) ;
#634 = EDGE_LOOP ( 'NONE', ( #176, #167 ) ) ;
#635 = DATE_AND_TIME ( #751, #45 ) ;
#636 = EDGE_LOOP ( 'NONE', ( #450, #624, #350, #391 ) ) ;
#637 = CARTESIAN_POINT ( 'NONE',  ( 0.000000000000000000, 0.000000000000000000, 0.07000000000000000666 ) ) ;
#638 = ORIENTED_EDGE ( 'NONE', *, *, #431, .T. ) ;
#639 = DIRECTION ( 'NONE',  ( -1.000000000000000000, 0.000000000000000000, 0.000000000000000000 ) ) ;
#640 = EDGE_LOOP ( 'NONE', ( #740, #363 ) ) ;
#641 = CARTESIAN_POINT ( 'NONE',  ( -0.3055905524409439633, -2.778116069881229655E-17, -6.829619984160658046E-17 ) ) ;
#642 = CARTESIAN_POINT ( 'NONE',  ( 0.000000000000000000, 0.000000000000000000, -6.829619984160658046E-17 ) ) ;
#643 = CIRCLE ( 'NONE', #375, 0.5950000000000000844 ) ;
#644 = EDGE_LOOP ( 'NONE', ( #223, #90, #286, #475 ) ) ;
#645 = APPROVAL ( #69, 'UNSPECIFIED' ) ;
#646 = FACE_OUTER_BOUND ( 'NONE', #471, .T. ) ;
#647 = CIRCLE ( 'NONE', #313, 0.6749999999999999334 ) ;
#648 = CARTESIAN_POINT ( 'NONE',  ( 0.1181102362207343270, -0.2385860684251319142, 0.07000000000000000666 ) ) ;
#649 = ORIENTED_EDGE ( 'NONE', *, *, #494, .T. ) ;
#650 = DIRECTION ( 'NONE',  ( -0.000000000000000000, -0.000000000000000000, 1.000000000000000000 ) ) ;
#651 = DIRECTION ( 'NONE',  ( 1.000000000000000000, 0.000000000000000000, 0.000000000000000000 ) ) ;
#652 = AXIS2_PLACEMENT_3D ( 'NONE', #7, #435, #308 ) ;
#653 = DIRECTION ( 'NONE',  ( -1.000000000000000000, 0.000000000000000000, 0.000000000000000000 ) ) ;
#654 = CYLINDRICAL_SURFACE ( 'NONE', #55, 0.5511811000000000904 ) ;
#655 = VECTOR ( 'NONE', #499, 39.37007874015748143 ) ;
#656 = APPROVAL ( #38, 'UNSPECIFIED' ) ;
#657 = PERSON_AND_ORGANIZATION_ROLE ( 'creator' ) ;
#658 = DIRECTION ( 'NONE',  ( 0.000000000000000000, 0.000000000000000000, 1.000000000000000000 ) ) ;
#659 = CARTESIAN_POINT ( 'NONE',  ( 0.1574803162207343288, 0.1705597916302038497, 0.07000000000000000666 ) ) ;
#660 = COORDINATED_UNIVERSAL_TIME_OFFSET ( 8, 0, .BEHIND. ) ;
#661 = CARTESIAN_POINT ( 'NONE',  ( 0.1181102362207343270, 0.1705597916302038497, 0.07000000000000000666 ) ) ;
#662 = CARTESIAN_POINT ( 'NONE',  ( 0.000000000000000000, 0.000000000000000000, -0.3750000000000001110 ) ) ;
#663 = AXIS2_PLACEMENT_3D ( 'NONE', #11, #254, #488 ) ;
#664 = EDGE_CURVE ( 'NONE', #336, #461, #43, .T. ) ;
#665 = CARTESIAN_POINT ( 'NONE',  ( 0.000000000000000000, 0.000000000000000000, -0.05000000000000000278 ) ) ;
#666 = APPLICATION_CONTEXT ( 'configuration controlled 3d designs of mechanical parts and assemblies' ) ;
#667 = FACE_OUTER_BOUND ( 'NONE', #467, .T. ) ;
#668 = CARTESIAN_POINT ( 'NONE',  ( -0.6250000000000000000, 0.000000000000000000, 0.07000000000000000666 ) ) ;
#669 = DIRECTION ( 'NONE',  ( 0.000000000000000000, 0.000000000000000000, -1.000000000000000000 ) ) ;
#670 = ORIENTED_EDGE ( 'NONE', *, *, #16, .F. ) ;
#671 = DIRECTION ( 'NONE',  ( -0.000000000000000000, -0.000000000000000000, 1.000000000000000000 ) ) ;
#672 = VERTEX_POINT ( 'NONE', #248 ) ;
#673 = ADVANCED_FACE ( 'NONE', ( #484 ), #206, .T. ) ;
#674 = CARTESIAN_POINT ( 'NONE',  ( 0.1181102362207343270, 0.1705597916302038497, -0.3750000000000001110 ) ) ;
#675 = EDGE_LOOP ( 'NONE', ( #506, #692, #566, #762 ) ) ;
#676 = AXIS2_PLACEMENT_3D ( 'NONE', #661, #135, #372 ) ;
#677 = CARTESIAN_POINT ( 'NONE',  ( -0.5950000000000000844, 0.000000000000000000, 0.000000000000000000 ) ) ;
#678 = ORIENTED_EDGE ( 'NONE', *, *, #241, .F. ) ;
#679 = AXIS2_PLACEMENT_3D ( 'NONE', #760, #587, #291 ) ;
#680 = CARTESIAN_POINT ( 'NONE',  ( 0.07874016000000001736, 0.000000000000000000, -0.3750000000000001110 ) ) ;
#681 = EDGE_LOOP ( 'NONE', ( #267, #614, #576, #395 ) ) ;
#682 = APPLICATION_PROTOCOL_DEFINITION ( 'international standard', 'config_control_design', 1994, #257 ) ;
#683 = ORIENTED_EDGE ( 'NONE', *, *, #381, .T. ) ;
#684 = ADVANCED_FACE ( 'NONE', ( #383 ), #77, .F. ) ;
#685 = DIRECTION ( 'NONE',  ( -0.000000000000000000, -0.000000000000000000, -1.000000000000000000 ) ) ;
#686 = ORIENTED_EDGE ( 'NONE', *, *, #562, .T. ) ;
#687 = VECTOR ( 'NONE', #46, 39.37007874015748854 ) ;
#688 = CARTESIAN_POINT ( 'NONE',  ( 0.1181102362207343270, 0.1705597916302038497, -6.829619984160658046E-17 ) ) ;
#689 = LINE ( 'NONE', #729, #12 ) ;
#690 = VERTEX_POINT ( 'NONE', #204 ) ;
#691 = PERSON_AND_ORGANIZATION_ROLE ( 'creator' ) ;
#692 = ORIENTED_EDGE ( 'NONE', *, *, #420, .T. ) ;
#693 = AXIS2_PLACEMENT_3D ( 'NONE', #642, #115, #594 ) ;
#694 = DIRECTION ( 'NONE',  ( 0.000000000000000000, 0.000000000000000000, -1.000000000000000000 ) ) ;
#695 = ORIENTED_EDGE ( 'NONE', *, *, #398, .T. ) ;
#696 = LINE ( 'NONE', #91, #687 ) ;
#697 = ORIENTED_EDGE ( 'NONE', *, *, #247, .T. ) ;
#698 = CARTESIAN_POINT ( 'NONE',  ( 0.000000000000000000, 0.000000000000000000, 0.01999999999999986511 ) ) ;
#699 = ADVANCED_FACE ( 'NONE', ( #667 ), #378, .T. ) ;
#700 = ORIENTED_EDGE ( 'NONE', *, *, #588, .T. ) ;
#701 = AXIS2_PLACEMENT_3D ( 'NONE', #42, #64, #462 ) ;
#702 = ORIENTED_EDGE ( 'NONE', *, *, #507, .T. ) ;
#703 = ADVANCED_FACE ( 'NONE', ( #262 ), #284, .T. ) ;
#704 = DIRECTION ( 'NONE',  ( -0.000000000000000000, -0.000000000000000000, 1.000000000000000000 ) ) ;
#705 = DIRECTION ( 'NONE',  ( 1.000000000000000000, 0.000000000000000000, -0.000000000000000000 ) ) ;
#706 = ORIENTED_EDGE ( 'NONE', *, *, #562, .F. ) ;
#707 = CARTESIAN_POINT ( 'NONE',  ( -0.07874016000000001736, 9.642888490835047863E-18, -6.829619984160658046E-17 ) ) ;
#708 = VERTEX_POINT ( 'NONE', #512 ) ;
#709 = PERSON_AND_ORGANIZATION ( #498, #81 ) ;
#710 = CARTESIAN_POINT ( 'NONE',  ( 0.000000000000000000, 0.000000000000000000, -0.3750000000000001110 ) ) ;
#711 = EDGE_CURVE ( 'NONE', #169, #569, #696, .T. ) ;
#712 = EDGE_LOOP ( 'NONE', ( #31, #418 ) ) ;
#713 =( GEOMETRIC_REPRESENTATION_CONTEXT ( 3 ) GLOBAL_UNCERTAINTY_ASSIGNED_CONTEXT ( ( #224 ) ) GLOBAL_UNIT_ASSIGNED_CONTEXT ( ( #97, #293, #451 ) ) REPRESENTATION_CONTEXT ( 'NONE', 'WORKASPACE' ) );
#714 = DIRECTION ( 'NONE',  ( 1.000000000000000000, 0.000000000000000000, 0.000000000000000000 ) ) ;
#715 = DIRECTION ( 'NONE',  ( -0.000000000000000000, -0.000000000000000000, -1.000000000000000000 ) ) ;
#716 = DIRECTION ( 'NONE',  ( -0.000000000000000000, 0.000000000000000000, 1.000000000000000000 ) ) ;
#717 = CARTESIAN_POINT ( 'NONE',  ( -0.5511811000000000904, 0.000000000000000000, -6.829619984160658046E-17 ) ) ;
#718 = EDGE_CURVE ( 'NONE', #63, #708, #581, .T. ) ;
#719 = EDGE_CURVE ( 'NONE', #413, #563, #516, .T. ) ;
#720 = VECTOR ( 'NONE', #32, 39.37007874015748143 ) ;
#721 = DIRECTION ( 'NONE',  ( -0.000000000000000000, -0.000000000000000000, 1.000000000000000000 ) ) ;
#722 = DIRECTION ( 'NONE',  ( -0.000000000000000000, -0.000000000000000000, -1.000000000000000000 ) ) ;
#723 = CARTESIAN_POINT ( 'NONE',  ( 0.5950000000000000844, 7.286648454926752704E-17, -0.05000000000000000278 ) ) ;
#724 = CARTESIAN_POINT ( 'NONE',  ( 0.000000000000000000, 0.000000000000000000, 0.000000000000000000 ) ) ;
#725 = CARTESIAN_POINT ( 'NONE',  ( 0.6749999999999999334, 8.266365894244633101E-17, -0.04999999999999999584 ) ) ;
#726 = EDGE_CURVE ( 'NONE', #459, #144, #124, .T. ) ;
#727 = DIRECTION ( 'NONE',  ( -1.000000000000000000, 0.000000000000000000, 0.000000000000000000 ) ) ;
#728 = VERTEX_POINT ( 'NONE', #161 ) ;
#729 = CARTESIAN_POINT ( 'NONE',  ( 0.07874015622073432530, 0.1705597916302038497, -0.3750000000000001110 ) ) ;
#730 = ADVANCED_BREP_SHAPE_REPRESENTATION ( 'Spinner Motor Pulley', ( #269, #320 ), #713 ) ;
#731 = ORIENTED_EDGE ( 'NONE', *, *, #105, .F. ) ;
#732 = VECTOR ( 'NONE', #178, 39.37007874015748143 ) ;
#733 = DIRECTION ( 'NONE',  ( -0.000000000000000000, -0.000000000000000000, -1.000000000000000000 ) ) ;
#734 = CIRCLE ( 'NONE', #476, 0.07874016000000001736 ) ;
#735 = DIRECTION ( 'NONE',  ( 0.000000000000000000, 0.000000000000000000, 1.000000000000000000 ) ) ;
#736 = ORIENTED_EDGE ( 'NONE', *, *, #361, .T. ) ;
#737 = CONICAL_SURFACE ( 'NONE', #679, 0.6250000000000000000, 0.7853981633974456145 ) ;
#738 =( LENGTH_UNIT ( ) NAMED_UNIT ( * ) SI_UNIT ( $, .METRE. ) );
#739 = CYLINDRICAL_SURFACE ( 'NONE', #137, 0.03937007999999999480 ) ;
#740 = ORIENTED_EDGE ( 'NONE', *, *, #664, .F. ) ;
#741 = ORIENTED_EDGE ( 'NONE', *, *, #598, .T. ) ;
#742 = DIRECTION ( 'NONE',  ( 0.000000000000000000, 0.000000000000000000, 1.000000000000000000 ) ) ;
#743 = AXIS2_PLACEMENT_3D ( 'NONE', #323, #129, #125 ) ;
#744 = EDGE_LOOP ( 'NONE', ( #454, #702, #33, #36 ) ) ;
#745 = AXIS2_PLACEMENT_3D ( 'NONE', #281, #508, #757 ) ;
#746 = COORDINATED_UNIVERSAL_TIME_OFFSET ( 8, 0, .BEHIND. ) ;
#747 = ORIENTED_EDGE ( 'NONE', *, *, #199, .T. ) ;
#748 = CARTESIAN_POINT ( 'NONE',  ( -0.6700000000000000400, 0.000000000000000000, -0.3250000000000000111 ) ) ;
#749 = AXIS2_PLACEMENT_3D ( 'NONE', #85, #397, #571 ) ;
#750 = ORIENTED_EDGE ( 'NONE', *, *, #477, .T. ) ;
#751 = CALENDAR_DATE ( 2026, 27, 4 ) ;
#752 = ORIENTED_EDGE ( 'NONE', *, *, #719, .F. ) ;
#753 = EDGE_CURVE ( 'NONE', #672, #207, #423, .T. ) ;
#754 = CARTESIAN_POINT ( 'NONE',  ( 0.000000000000000000, 0.000000000000000000, -6.829619984160658046E-17 ) ) ;
#755 = DIRECTION ( 'NONE',  ( -0.000000000000000000, -0.000000000000000000, 1.000000000000000000 ) ) ;
#756 = EDGE_CURVE ( 'NONE', #342, #522, #396, .T. ) ;
#757 = DIRECTION ( 'NONE',  ( -1.000000000000000000, 0.000000000000000000, 0.000000000000000000 ) ) ;
#758 = ORIENTED_EDGE ( 'NONE', *, *, #23, .T. ) ;
#759 = CARTESIAN_POINT ( 'NONE',  ( 0.1181102362207343270, 0.1705597916302038497, -6.829619984160658046E-17 ) ) ;
#760 = CARTESIAN_POINT ( 'NONE',  ( 0.000000000000000000, 0.000000000000000000, 0.07000000000000000666 ) ) ;
#761 = APPROVAL_DATE_TIME ( #132, #645 ) ;
#762 = ORIENTED_EDGE ( 'NONE', *, *, #753, .F. ) ;
#763 = CARTESIAN_POINT ( 'NONE',  ( 0.000000000000000000, 0.000000000000000000, -6.829619984160658046E-17 ) ) ;
#764 = LINE ( 'NONE', #60, #14 ) ;
ENDSEC;
END-ISO-10303-21;
