ISO-10303-21;
HEADER;
FILE_DESCRIPTION (( 'STEP AP203' ),
    '1' );
FILE_NAME ('5909K72_1 mm Thick Washer for 12 mm Shaft Diameter Needle-Roller Thrust Bearing_Vf.STEP',
    '2026-03-21T02:16:26',
    ( '' ),
    ( '' ),
    'SwSTEP 2.0',
    'SolidWorks 2025',
    '' );
FILE_SCHEMA (( 'CONFIG_CONTROL_DESIGN' ));
ENDSEC;

DATA;
#1 = ORIENTED_EDGE ( 'NONE', *, *, #114, .F. ) ;
#2 = EDGE_LOOP ( 'NONE', ( #23, #4 ) ) ;
#3 = AXIS2_PLACEMENT_3D ( 'NONE', #28, #99, #143 ) ;
#4 = ORIENTED_EDGE ( 'NONE', *, *, #232, .T. ) ;
#5 = APPLICATION_CONTEXT ( 'configuration controlled 3d designs of mechanical parts and assemblies' ) ;
#6 = LINE ( 'NONE', #57, #9 ) ;
#7 = PERSON ( 'UNSPECIFIED', 'UNSPECIFIED', 'UNSPECIFIED', ('UNSPECIFIED'), ('UNSPECIFIED'), ('UNSPECIFIED') ) ;
#8 = FACE_BOUND ( 'NONE', #174, .T. ) ;
#9 = VECTOR ( 'NONE', #135, 1000.000000000000000 ) ;
#10 = APPROVAL_PERSON_ORGANIZATION ( #36, #129, #188 ) ;
#11 = CARTESIAN_POINT ( 'NONE',  ( -0.5000000000000252021, 1.592040838891558898E-15, -12.99999999999999822 ) ) ;
#12 = PRODUCT ( '5909K72_1 mm Thick Washer for 12 mm Shaft Diameter Needle-Roller Thrust Bearing_Vf', '5909K72_1 mm Thick Washer for 12 mm Shaft Diameter Needle-Roller Thrust Bearing_Vf', '', ( #108 ) ) ;
#13 = DIRECTION ( 'NONE',  ( 1.000000000000000000, 0.000000000000000000, 0.000000000000000000 ) ) ;
#14 = CARTESIAN_POINT ( 'NONE',  ( 0.4999999999999748534, 1.592040838891558898E-15, -12.99999999999999822 ) ) ;
#15 = AXIS2_PLACEMENT_3D ( 'NONE', #161, #218, #200 ) ;
#16 = CARTESIAN_POINT ( 'NONE',  ( 0.4999999999999748534, 0.000000000000000000, 0.000000000000000000 ) ) ;
#17 = EDGE_CURVE ( 'NONE', #41, #192, #6, .T. ) ;
#18 = DIRECTION ( 'NONE',  ( 0.000000000000000000, 0.000000000000000000, 1.000000000000000000 ) ) ;
#19 = PERSON_AND_ORGANIZATION ( #7, #155 ) ;
#20 = ADVANCED_FACE ( 'NONE', ( #210 ), #73, .F. ) ;
#21 = CALENDAR_DATE ( 2026, 20, 3 ) ;
#22 = SHAPE_DEFINITION_REPRESENTATION ( #180, #166 ) ;
#23 = ORIENTED_EDGE ( 'NONE', *, *, #94, .T. ) ;
#24 = ORIENTED_EDGE ( 'NONE', *, *, #94, .F. ) ;
#25 = DIRECTION ( 'NONE',  ( 1.000000000000000000, 0.000000000000000000, 0.000000000000000000 ) ) ;
#26 = CIRCLE ( 'NONE', #15, 12.99999999999999822 ) ;
#27 = VERTEX_POINT ( 'NONE', #118 ) ;
#28 = CARTESIAN_POINT ( 'NONE',  ( 0.4999999999999748534, 0.000000000000000000, 0.000000000000000000 ) ) ;
#29 = DIRECTION ( 'NONE',  ( -1.000000000000000000, -0.000000000000000000, -0.000000000000000000 ) ) ;
#30 = DIRECTION ( 'NONE',  ( 0.000000000000000000, 0.000000000000000000, -1.000000000000000000 ) ) ;
#31 = DIRECTION ( 'NONE',  ( 0.000000000000000000, 0.000000000000000000, -1.000000000000000000 ) ) ;
#32 = CARTESIAN_POINT ( 'NONE',  ( 0.4999999999999748534, 0.000000000000000000, 12.99999999999999822 ) ) ;
#33 = PERSON_AND_ORGANIZATION ( #7, #155 ) ;
#34 = PERSON_AND_ORGANIZATION_ROLE ( 'creator' ) ;
#35 = EDGE_CURVE ( 'NONE', #37, #230, #194, .T. ) ;
#36 = PERSON_AND_ORGANIZATION ( #7, #155 ) ;
#37 = VERTEX_POINT ( 'NONE', #177 ) ;
#38 = ADVANCED_FACE ( 'NONE', ( #59, #8 ), #162, .T. ) ;
#39 = AXIS2_PLACEMENT_3D ( 'NONE', #163, #43, #196 ) ;
#40 = ORIENTED_EDGE ( 'NONE', *, *, #149, .T. ) ;
#41 = VERTEX_POINT ( 'NONE', #181 ) ;
#42 = VERTEX_POINT ( 'NONE', #32 ) ;
#43 = DIRECTION ( 'NONE',  ( 1.000000000000000000, 0.000000000000000000, 0.000000000000000000 ) ) ;
#44 = CARTESIAN_POINT ( 'NONE',  ( 0.4999999999999748534, 0.000000000000000000, 6.016000000000000902 ) ) ;
#45 = DIRECTION ( 'NONE',  ( -1.000000000000000000, -0.000000000000000000, -0.000000000000000000 ) ) ;
#46 = CYLINDRICAL_SURFACE ( 'NONE', #217, 12.99999999999999822 ) ;
#47 = CC_DESIGN_PERSON_AND_ORGANIZATION_ASSIGNMENT ( #145, #130, ( #104 ) ) ;
#48 = APPROVAL_DATE_TIME ( #152, #129 ) ;
#49 = DATE_TIME_ROLE ( 'creation_date' ) ;
#50 = CC_DESIGN_APPROVAL ( #175, ( #159 ) ) ;
#51 = APPROVAL ( #109, 'UNSPECIFIED' ) ;
#52 = COORDINATED_UNIVERSAL_TIME_OFFSET ( 8, 0, .BEHIND. ) ;
#53 = DATE_AND_TIME ( #227, #101 ) ;
#54 = ADVANCED_FACE ( 'NONE', ( #128 ), #85, .F. ) ;
#55 = ORIENTED_EDGE ( 'NONE', *, *, #240, .T. ) ;
#56 = DIRECTION ( 'NONE',  ( -1.000000000000000000, -0.000000000000000000, -0.000000000000000000 ) ) ;
#57 = CARTESIAN_POINT ( 'NONE',  ( 0.4999999999999748534, 7.367475143670478330E-16, -6.016000000000000902 ) ) ;
#58 = ORIENTED_EDGE ( 'NONE', *, *, #160, .T. ) ;
#59 = FACE_OUTER_BOUND ( 'NONE', #2, .T. ) ;
#60 = FACE_OUTER_BOUND ( 'NONE', #117, .T. ) ;
#61 = CC_DESIGN_PERSON_AND_ORGANIZATION_ASSIGNMENT ( #206, #171, ( #169 ) ) ;
#62 = DIRECTION ( 'NONE',  ( 1.000000000000000000, 0.000000000000000000, 0.000000000000000000 ) ) ;
#63 = CIRCLE ( 'NONE', #223, 6.016000000000000902 ) ;
#64 = DIRECTION ( 'NONE',  ( 1.000000000000000000, 0.000000000000000000, 0.000000000000000000 ) ) ;
#65 = CC_DESIGN_DATE_AND_TIME_ASSIGNMENT ( #53, #132, ( #169 ) ) ;
#66 = CARTESIAN_POINT ( 'NONE',  ( -0.5000000000000252021, 0.000000000000000000, 6.016000000000000902 ) ) ;
#67 = DIRECTION ( 'NONE',  ( 1.000000000000000000, 0.000000000000000000, 0.000000000000000000 ) ) ;
#68 = CC_DESIGN_APPROVAL ( #51, ( #104 ) ) ;
#69 =( NAMED_UNIT ( * ) SI_UNIT ( $, .STERADIAN. ) SOLID_ANGLE_UNIT ( ) );
#70 = DATE_AND_TIME ( #186, #212 ) ;
#71 = CALENDAR_DATE ( 2026, 20, 3 ) ;
#72 = EDGE_CURVE ( 'NONE', #27, #157, #123, .T. ) ;
#73 = CYLINDRICAL_SURFACE ( 'NONE', #146, 6.016000000000000902 ) ;
#74 = ORIENTED_EDGE ( 'NONE', *, *, #190, .T. ) ;
#75 = CIRCLE ( 'NONE', #39, 12.99999999999999822 ) ;
#76 = ORIENTED_EDGE ( 'NONE', *, *, #82, .T. ) ;
#77 = EDGE_LOOP ( 'NONE', ( #98, #153, #172, #133 ) ) ;
#78 = DESIGN_CONTEXT ( 'detailed design', #201, 'design' ) ;
#79 = DIRECTION ( 'NONE',  ( 0.000000000000000000, 0.000000000000000000, -1.000000000000000000 ) ) ;
#80 = AXIS2_PLACEMENT_3D ( 'NONE', #84, #62, #165 ) ;
#81 = APPROVAL_PERSON_ORGANIZATION ( #147, #51, #245 ) ;
#82 = EDGE_CURVE ( 'NONE', #93, #230, #220, .T. ) ;
#83 = DIRECTION ( 'NONE',  ( -1.000000000000000000, -0.000000000000000000, -0.000000000000000000 ) ) ;
#84 = CARTESIAN_POINT ( 'NONE',  ( -0.5000000000000252021, 0.000000000000000000, 0.000000000000000000 ) ) ;
#85 = CYLINDRICAL_SURFACE ( 'NONE', #120, 6.016000000000000902 ) ;
#86 = FACE_OUTER_BOUND ( 'NONE', #235, .T. ) ;
#87 =( NAMED_UNIT ( * ) PLANE_ANGLE_UNIT ( ) SI_UNIT ( $, .RADIAN. ) );
#88 = DATE_AND_TIME ( #21, #178 ) ;
#89 = APPROVAL_ROLE ( '' ) ;
#90 = CARTESIAN_POINT ( 'NONE',  ( 0.000000000000000000, 0.000000000000000000, 0.000000000000000000 ) ) ;
#91 = ADVANCED_FACE ( 'NONE', ( #60 ), #46, .T. ) ;
#92 = ORIENTED_EDGE ( 'NONE', *, *, #72, .T. ) ;
#93 = VERTEX_POINT ( 'NONE', #216 ) ;
#94 = EDGE_CURVE ( 'NONE', #42, #93, #75, .T. ) ;
#95 = ORIENTED_EDGE ( 'NONE', *, *, #232, .F. ) ;
#96 = DIRECTION ( 'NONE',  ( 0.000000000000000000, 0.000000000000000000, -1.000000000000000000 ) ) ;
#97 = CIRCLE ( 'NONE', #228, 6.016000000000000902 ) ;
#98 = ORIENTED_EDGE ( 'NONE', *, *, #137, .T. ) ;
#99 = DIRECTION ( 'NONE',  ( -1.000000000000000000, -0.000000000000000000, -0.000000000000000000 ) ) ;
#100 = CARTESIAN_POINT ( 'NONE',  ( -0.5000000000000252021, 7.367475143670478330E-16, -6.016000000000000902 ) ) ;
#101 = LOCAL_TIME ( 19, 16, 26.00000000000000000, #187 ) ;
#102 = CARTESIAN_POINT ( 'NONE',  ( 0.4999999999999748534, 0.000000000000000000, 12.99999999999999822 ) ) ;
#103 = MANIFOLD_SOLID_BREP ( 'Boss-Extrude1', #151 ) ;
#104 = PRODUCT_DEFINITION ( 'UNKNOWN', '', #159, #78 ) ;
#105 = CARTESIAN_POINT ( 'NONE',  ( 0.4999999999999748534, 0.000000000000000000, 0.000000000000000000 ) ) ;
#106 = DIRECTION ( 'NONE',  ( 1.000000000000000000, 0.000000000000000000, 0.000000000000000000 ) ) ;
#107 = LOCAL_TIME ( 19, 16, 26.00000000000000000, #247 ) ;
#108 = MECHANICAL_CONTEXT ( 'NONE', #5, 'mechanical' ) ;
#109 = APPROVAL_STATUS ( 'not_yet_approved' ) ;
#110 = APPROVAL_STATUS ( 'not_yet_approved' ) ;
#111 = CIRCLE ( 'NONE', #203, 12.99999999999999822 ) ;
#112 = APPLICATION_PROTOCOL_DEFINITION ( 'international standard', 'config_control_design', 1994, #5 ) ;
#113 = APPROVAL_STATUS ( 'not_yet_approved' ) ;
#114 = EDGE_CURVE ( 'NONE', #230, #37, #111, .T. ) ;
#115 = CIRCLE ( 'NONE', #236, 6.016000000000000902 ) ;
#116 = APPROVAL_PERSON_ORGANIZATION ( #33, #175, #89 ) ;
#117 = EDGE_LOOP ( 'NONE', ( #95, #76, #231, #156 ) ) ;
#118 = CARTESIAN_POINT ( 'NONE',  ( 0.4999999999999748534, 0.000000000000000000, 6.016000000000000902 ) ) ;
#119 = DIRECTION ( 'NONE',  ( 0.000000000000000000, 0.000000000000000000, 1.000000000000000000 ) ) ;
#120 = AXIS2_PLACEMENT_3D ( 'NONE', #105, #45, #241 ) ;
#121 = CC_DESIGN_APPROVAL ( #129, ( #169 ) ) ;
#122 = DIRECTION ( 'NONE',  ( 0.000000000000000000, 0.000000000000000000, -1.000000000000000000 ) ) ;
#123 = LINE ( 'NONE', #44, #207 ) ;
#124 = DIRECTION ( 'NONE',  ( 0.000000000000000000, 0.000000000000000000, -1.000000000000000000 ) ) ;
#125 = AXIS2_PLACEMENT_3D ( 'NONE', #16, #106, #30 ) ;
#126 = ADVANCED_FACE ( 'NONE', ( #86 ), #221, .T. ) ;
#127 = CARTESIAN_POINT ( 'NONE',  ( 0.4999999999999748534, 0.000000000000000000, 0.000000000000000000 ) ) ;
#128 = FACE_OUTER_BOUND ( 'NONE', #77, .T. ) ;
#129 = APPROVAL ( #113, 'UNSPECIFIED' ) ;
#130 = PERSON_AND_ORGANIZATION_ROLE ( 'creator' ) ;
#131 = VECTOR ( 'NONE', #197, 1000.000000000000000 ) ;
#132 = DATE_TIME_ROLE ( 'classification_date' ) ;
#133 = ORIENTED_EDGE ( 'NONE', *, *, #72, .F. ) ;
#134 = ORIENTED_EDGE ( 'NONE', *, *, #35, .F. ) ;
#135 = DIRECTION ( 'NONE',  ( -1.000000000000000000, -0.000000000000000000, -0.000000000000000000 ) ) ;
#136 = ORIENTED_EDGE ( 'NONE', *, *, #17, .F. ) ;
#137 = EDGE_CURVE ( 'NONE', #27, #41, #164, .T. ) ;
#138 =( GEOMETRIC_REPRESENTATION_CONTEXT ( 3 ) GLOBAL_UNCERTAINTY_ASSIGNED_CONTEXT ( ( #225 ) ) GLOBAL_UNIT_ASSIGNED_CONTEXT ( ( #150, #87, #69 ) ) REPRESENTATION_CONTEXT ( 'NONE', 'WORKASPACE' ) );
#139 = FACE_OUTER_BOUND ( 'NONE', #233, .T. ) ;
#140 = DIRECTION ( 'NONE',  ( 0.000000000000000000, 0.000000000000000000, 1.000000000000000000 ) ) ;
#141 = ADVANCED_FACE ( 'NONE', ( #237, #139 ), #182, .F. ) ;
#142 = DIRECTION ( 'NONE',  ( -1.000000000000000000, -0.000000000000000000, -0.000000000000000000 ) ) ;
#143 = DIRECTION ( 'NONE',  ( 0.000000000000000000, 0.000000000000000000, 1.000000000000000000 ) ) ;
#144 = CARTESIAN_POINT ( 'NONE',  ( -0.5000000000000252021, 0.000000000000000000, 0.000000000000000000 ) ) ;
#145 = PERSON_AND_ORGANIZATION ( #7, #155 ) ;
#146 = AXIS2_PLACEMENT_3D ( 'NONE', #154, #56, #119 ) ;
#147 = PERSON_AND_ORGANIZATION ( #7, #155 ) ;
#148 = SECURITY_CLASSIFICATION_LEVEL ( 'unclassified' ) ;
#149 = EDGE_CURVE ( 'NONE', #41, #27, #63, .T. ) ;
#150 =( LENGTH_UNIT ( ) NAMED_UNIT ( * ) SI_UNIT ( .MILLI., .METRE. ) );
#151 = CLOSED_SHELL ( 'NONE', ( #54, #91, #38, #126, #20, #141 ) ) ;
#152 = DATE_AND_TIME ( #71, #107 ) ;
#153 = ORIENTED_EDGE ( 'NONE', *, *, #17, .T. ) ;
#154 = CARTESIAN_POINT ( 'NONE',  ( 0.4999999999999748534, 0.000000000000000000, 0.000000000000000000 ) ) ;
#155 = ORGANIZATION ( 'UNSPECIFIED', 'UNSPECIFIED', '' ) ;
#156 = ORIENTED_EDGE ( 'NONE', *, *, #190, .F. ) ;
#157 = VERTEX_POINT ( 'NONE', #66 ) ;
#158 = CARTESIAN_POINT ( 'NONE',  ( -0.5000000000000252021, 0.000000000000000000, 0.000000000000000000 ) ) ;
#159 = PRODUCT_DEFINITION_FORMATION_WITH_SPECIFIED_SOURCE ( 'ANY', '', #12, .NOT_KNOWN. ) ;
#160 = EDGE_CURVE ( 'NONE', #157, #192, #97, .T. ) ;
#161 = CARTESIAN_POINT ( 'NONE',  ( 0.4999999999999748534, 0.000000000000000000, 0.000000000000000000 ) ) ;
#162 = PLANE ( 'NONE',  #191 ) ;
#163 = CARTESIAN_POINT ( 'NONE',  ( 0.4999999999999748534, 0.000000000000000000, 0.000000000000000000 ) ) ;
#164 = CIRCLE ( 'NONE', #125, 6.016000000000000902 ) ;
#165 = DIRECTION ( 'NONE',  ( 0.000000000000000000, 0.000000000000000000, -1.000000000000000000 ) ) ;
#166 = ADVANCED_BREP_SHAPE_REPRESENTATION ( '5909K72_1 mm Thick Washer for 12 mm Shaft Diameter Needle-Roller Thrust Bearing_Vf', ( #103, #208 ), #138 ) ;
#167 = APPLICATION_PROTOCOL_DEFINITION ( 'international standard', 'config_control_design', 1994, #201 ) ;
#168 = COORDINATED_UNIVERSAL_TIME_OFFSET ( 8, 0, .BEHIND. ) ;
#169 = SECURITY_CLASSIFICATION ( '', '', #148 ) ;
#170 = CALENDAR_DATE ( 2026, 20, 3 ) ;
#171 = PERSON_AND_ORGANIZATION_ROLE ( 'classification_officer' ) ;
#172 = ORIENTED_EDGE ( 'NONE', *, *, #160, .F. ) ;
#173 = CC_DESIGN_PERSON_AND_ORGANIZATION_ASSIGNMENT ( #226, #244, ( #159 ) ) ;
#174 = EDGE_LOOP ( 'NONE', ( #249, #213 ) ) ;
#175 = APPROVAL ( #110, 'UNSPECIFIED' ) ;
#176 = LINE ( 'NONE', #102, #131 ) ;
#177 = CARTESIAN_POINT ( 'NONE',  ( -0.5000000000000252021, 0.000000000000000000, 12.99999999999999822 ) ) ;
#178 = LOCAL_TIME ( 19, 16, 26.00000000000000000, #205 ) ;
#179 = DIRECTION ( 'NONE',  ( 1.000000000000000000, 0.000000000000000000, 0.000000000000000000 ) ) ;
#180 = PRODUCT_DEFINITION_SHAPE ( 'NONE', 'NONE',  #104 ) ;
#181 = CARTESIAN_POINT ( 'NONE',  ( 0.4999999999999748534, 7.367475143670478330E-16, -6.016000000000000902 ) ) ;
#182 = PLANE ( 'NONE',  #80 ) ;
#183 = VECTOR ( 'NONE', #142, 1000.000000000000000 ) ;
#184 = PERSON_AND_ORGANIZATION_ROLE ( 'design_owner' ) ;
#185 = APPROVAL_DATE_TIME ( #70, #175 ) ;
#186 = CALENDAR_DATE ( 2026, 20, 3 ) ;
#187 = COORDINATED_UNIVERSAL_TIME_OFFSET ( 8, 0, .BEHIND. ) ;
#188 = APPROVAL_ROLE ( '' ) ;
#189 = ORIENTED_EDGE ( 'NONE', *, *, #240, .F. ) ;
#190 = EDGE_CURVE ( 'NONE', #42, #37, #176, .T. ) ;
#191 = AXIS2_PLACEMENT_3D ( 'NONE', #127, #13, #79 ) ;
#192 = VERTEX_POINT ( 'NONE', #100 ) ;
#193 = CARTESIAN_POINT ( 'NONE',  ( -0.5000000000000252021, 0.000000000000000000, 0.000000000000000000 ) ) ;
#194 = CIRCLE ( 'NONE', #243, 12.99999999999999822 ) ;
#195 = EDGE_LOOP ( 'NONE', ( #136, #40, #92, #189 ) ) ;
#196 = DIRECTION ( 'NONE',  ( 0.000000000000000000, 0.000000000000000000, -1.000000000000000000 ) ) ;
#197 = DIRECTION ( 'NONE',  ( -1.000000000000000000, -0.000000000000000000, -0.000000000000000000 ) ) ;
#198 = CC_DESIGN_PERSON_AND_ORGANIZATION_ASSIGNMENT ( #19, #34, ( #159 ) ) ;
#199 = DIRECTION ( 'NONE',  ( 1.000000000000000000, 0.000000000000000000, 0.000000000000000000 ) ) ;
#200 = DIRECTION ( 'NONE',  ( 0.000000000000000000, 0.000000000000000000, -1.000000000000000000 ) ) ;
#201 = APPLICATION_CONTEXT ( 'configuration controlled 3d designs of mechanical parts and assemblies' ) ;
#202 = CARTESIAN_POINT ( 'NONE',  ( 0.4999999999999748534, 0.000000000000000000, 0.000000000000000000 ) ) ;
#203 = AXIS2_PLACEMENT_3D ( 'NONE', #158, #64, #124 ) ;
#204 = PERSON_AND_ORGANIZATION ( #7, #155 ) ;
#205 = COORDINATED_UNIVERSAL_TIME_OFFSET ( 8, 0, .BEHIND. ) ;
#206 = PERSON_AND_ORGANIZATION ( #7, #155 ) ;
#207 = VECTOR ( 'NONE', #83, 1000.000000000000000 ) ;
#208 = AXIS2_PLACEMENT_3D ( 'NONE', #90, #18, #67 ) ;
#209 = EDGE_LOOP ( 'NONE', ( #58, #55 ) ) ;
#210 = FACE_OUTER_BOUND ( 'NONE', #195, .T. ) ;
#211 = ORIENTED_EDGE ( 'NONE', *, *, #35, .T. ) ;
#212 = LOCAL_TIME ( 19, 16, 26.00000000000000000, #52 ) ;
#213 = ORIENTED_EDGE ( 'NONE', *, *, #149, .F. ) ;
#214 = DIRECTION ( 'NONE',  ( 0.000000000000000000, 0.000000000000000000, -1.000000000000000000 ) ) ;
#215 = CC_DESIGN_DATE_AND_TIME_ASSIGNMENT ( #222, #49, ( #104 ) ) ;
#216 = CARTESIAN_POINT ( 'NONE',  ( 0.4999999999999748534, 1.592040838891558898E-15, -12.99999999999999822 ) ) ;
#217 = AXIS2_PLACEMENT_3D ( 'NONE', #202, #29, #140 ) ;
#218 = DIRECTION ( 'NONE',  ( 1.000000000000000000, 0.000000000000000000, 0.000000000000000000 ) ) ;
#219 = CC_DESIGN_PERSON_AND_ORGANIZATION_ASSIGNMENT ( #204, #184, ( #12 ) ) ;
#220 = LINE ( 'NONE', #14, #183 ) ;
#221 = CYLINDRICAL_SURFACE ( 'NONE', #3, 12.99999999999999822 ) ;
#222 = DATE_AND_TIME ( #170, #229 ) ;
#223 = AXIS2_PLACEMENT_3D ( 'NONE', #242, #238, #214 ) ;
#224 = APPROVAL_DATE_TIME ( #88, #51 ) ;
#225 = UNCERTAINTY_MEASURE_WITH_UNIT (LENGTH_MEASURE( 1.000000000000000082E-05 ), #150, 'distance_accuracy_value', 'NONE');
#226 = PERSON_AND_ORGANIZATION ( #7, #155 ) ;
#227 = CALENDAR_DATE ( 2026, 20, 3 ) ;
#228 = AXIS2_PLACEMENT_3D ( 'NONE', #144, #199, #122 ) ;
#229 = LOCAL_TIME ( 19, 16, 26.00000000000000000, #168 ) ;
#230 = VERTEX_POINT ( 'NONE', #11 ) ;
#231 = ORIENTED_EDGE ( 'NONE', *, *, #114, .T. ) ;
#232 = EDGE_CURVE ( 'NONE', #93, #42, #26, .T. ) ;
#233 = EDGE_LOOP ( 'NONE', ( #134, #1 ) ) ;
#234 = ORIENTED_EDGE ( 'NONE', *, *, #82, .F. ) ;
#235 = EDGE_LOOP ( 'NONE', ( #234, #24, #74, #211 ) ) ;
#236 = AXIS2_PLACEMENT_3D ( 'NONE', #239, #179, #31 ) ;
#237 = FACE_BOUND ( 'NONE', #209, .T. ) ;
#238 = DIRECTION ( 'NONE',  ( 1.000000000000000000, 0.000000000000000000, 0.000000000000000000 ) ) ;
#239 = CARTESIAN_POINT ( 'NONE',  ( -0.5000000000000252021, 0.000000000000000000, 0.000000000000000000 ) ) ;
#240 = EDGE_CURVE ( 'NONE', #192, #157, #115, .T. ) ;
#241 = DIRECTION ( 'NONE',  ( 0.000000000000000000, 0.000000000000000000, 1.000000000000000000 ) ) ;
#242 = CARTESIAN_POINT ( 'NONE',  ( 0.4999999999999748534, 0.000000000000000000, 0.000000000000000000 ) ) ;
#243 = AXIS2_PLACEMENT_3D ( 'NONE', #193, #25, #96 ) ;
#244 = PERSON_AND_ORGANIZATION_ROLE ( 'design_supplier' ) ;
#245 = APPROVAL_ROLE ( '' ) ;
#246 = PRODUCT_RELATED_PRODUCT_CATEGORY ( 'detail', '', ( #12 ) ) ;
#247 = COORDINATED_UNIVERSAL_TIME_OFFSET ( 8, 0, .BEHIND. ) ;
#248 = CC_DESIGN_SECURITY_CLASSIFICATION ( #169, ( #159 ) ) ;
#249 = ORIENTED_EDGE ( 'NONE', *, *, #137, .F. ) ;
ENDSEC;
END-ISO-10303-21;
