ISO-10303-21;
HEADER;
FILE_DESCRIPTION (( 'STEP AP203' ),
    '1' );
FILE_NAME ('Armor Back plate.STEP',
    '2026-03-20T23:20:52',
    ( '' ),
    ( '' ),
    'SwSTEP 2.0',
    'SolidWorks 2025',
    '' );
FILE_SCHEMA (( 'CONFIG_CONTROL_DESIGN' ));
ENDSEC;

DATA;
#1 = DIRECTION ( 'NONE',  ( 1.000000000000000000, 0.000000000000000000, 0.000000000000000000 ) ) ;
#2 = ORIENTED_EDGE ( 'NONE', *, *, #287, .T. ) ;
#3 = ADVANCED_FACE ( 'NONE', ( #512 ), #271, .T. ) ;
#4 = ORIENTED_EDGE ( 'NONE', *, *, #338, .T. ) ;
#5 = CARTESIAN_POINT ( 'NONE',  ( 0.000000000000000000, -1.202013117212275737E-14, 1.250000000000006661 ) ) ;
#6 = ORIENTED_EDGE ( 'NONE', *, *, #93, .T. ) ;
#7 = CARTESIAN_POINT ( 'NONE',  ( 0.1000000000000000056, -0.1249999999998809425, 6.625000000000143885 ) ) ;
#8 = CIRCLE ( 'NONE', #669, 0.05900000000007605411 ) ;
#9 = AXIS2_PLACEMENT_3D ( 'NONE', #827, #61, #144 ) ;
#10 = APPROVAL_PERSON_ORGANIZATION ( #282, #14, #143 ) ;
#11 = CARTESIAN_POINT ( 'NONE',  ( 0.1000000000000000056, -0.2499999999999834022, 6.999999999999985789 ) ) ;
#12 = ORIENTED_EDGE ( 'NONE', *, *, #666, .F. ) ;
#13 = FACE_OUTER_BOUND ( 'NONE', #451, .T. ) ;
#14 = APPROVAL ( #503, 'UNSPECIFIED' ) ;
#15 = CARTESIAN_POINT ( 'NONE',  ( -2.099999999999998312, 0.000000000000000000, 0.000000000000000000 ) ) ;
#16 = ORIENTED_EDGE ( 'NONE', *, *, #422, .F. ) ;
#17 = DIRECTION ( 'NONE',  ( 0.000000000000000000, 0.000000000000000000, -1.000000000000000000 ) ) ;
#18 = ORIENTED_EDGE ( 'NONE', *, *, #162, .F. ) ;
#19 = EDGE_CURVE ( 'NONE', #420, #158, #530, .T. ) ;
#20 = PLANE ( 'NONE',  #41 ) ;
#21 = EDGE_CURVE ( 'NONE', #769, #420, #664, .T. ) ;
#22 = ORIENTED_EDGE ( 'NONE', *, *, #146, .F. ) ;
#23 = CARTESIAN_POINT ( 'NONE',  ( 0.000000000000000000, 0.2499999999999948097, 7.250000000000143885 ) ) ;
#24 = VECTOR ( 'NONE', #30, 39.37007874015748143 ) ;
#25 = CIRCLE ( 'NONE', #590, 0.05899999999984220644 ) ;
#26 = CARTESIAN_POINT ( 'NONE',  ( 0.000000000000000000, -0.1249999999998819833, 1.625000000000144995 ) ) ;
#27 = VERTEX_POINT ( 'NONE', #579 ) ;
#28 = DIRECTION ( 'NONE',  ( -1.000000000000000000, -0.000000000000000000, -0.000000000000000000 ) ) ;
#29 = CARTESIAN_POINT ( 'NONE',  ( 0.1000000000000000056, -0.1249999999998819833, 1.625000000000144995 ) ) ;
#30 = DIRECTION ( 'NONE',  ( -1.000000000000000000, -0.000000000000000000, -0.000000000000000000 ) ) ;
#31 = EDGE_LOOP ( 'NONE', ( #92, #163, #688, #382 ) ) ;
#32 = LINE ( 'NONE', #630, #356 ) ;
#33 = CARTESIAN_POINT ( 'NONE',  ( -1.999999999999998446, -1.202013117212275737E-14, 1.250000000000006661 ) ) ;
#34 = ORIENTED_EDGE ( 'NONE', *, *, #309, .F. ) ;
#35 = DIRECTION ( 'NONE',  ( -1.000000000000000000, 0.000000000000000000, 0.000000000000000000 ) ) ;
#36 = ADVANCED_FACE ( 'NONE', ( #159 ), #286, .F. ) ;
#37 = DIRECTION ( 'NONE',  ( 0.000000000000000000, 1.000000000000000000, 1.005320061668564070E-13 ) ) ;
#38 = AXIS2_PLACEMENT_3D ( 'NONE', #433, #970, #349 ) ;
#39 = FACE_OUTER_BOUND ( 'NONE', #790, .T. ) ;
#40 = ORIENTED_EDGE ( 'NONE', *, *, #518, .F. ) ;
#41 = AXIS2_PLACEMENT_3D ( 'NONE', #15, #315, #916 ) ;
#42 = CC_DESIGN_APPROVAL ( #153, ( #81 ) ) ;
#43 = LINE ( 'NONE', #266, #979 ) ;
#44 = DIRECTION ( 'NONE',  ( 0.000000000000000000, -5.201438579933988045E-13, -1.000000000000000000 ) ) ;
#45 = DIRECTION ( 'NONE',  ( 0.000000000000000000, -5.463695987331219411E-16, 1.000000000000000000 ) ) ;
#46 = ORIENTED_EDGE ( 'NONE', *, *, #397, .T. ) ;
#47 = DIRECTION ( 'NONE',  ( 0.000000000000000000, 0.000000000000000000, -1.000000000000000000 ) ) ;
#48 = CARTESIAN_POINT ( 'NONE',  ( 0.1000000000000000056, -0.2499999999999834022, 6.999999999999985789 ) ) ;
#49 = LENGTH_MEASURE_WITH_UNIT ( LENGTH_MEASURE( 0.02539999999999999897 ), #710 );
#50 = CARTESIAN_POINT ( 'NONE',  ( 0.1000000000000000056, -0.1249999999998819833, 1.625000000000144995 ) ) ;
#51 = EDGE_LOOP ( 'NONE', ( #279, #254 ) ) ;
#52 = ADVANCED_FACE ( 'NONE', ( #156 ), #739, .F. ) ;
#53 = CARTESIAN_POINT ( 'NONE',  ( 0.1000000000000000056, -1.202013117212275737E-14, 1.250000000000006661 ) ) ;
#54 = LINE ( 'NONE', #502, #862 ) ;
#55 = DIRECTION ( 'NONE',  ( 0.000000000000000000, 0.000000000000000000, -1.000000000000000000 ) ) ;
#56 = VERTEX_POINT ( 'NONE', #821 ) ;
#57 = AXIS2_PLACEMENT_3D ( 'NONE', #238, #538, #846 ) ;
#58 = DIRECTION ( 'NONE',  ( 1.000000000000000000, -0.000000000000000000, -0.000000000000000000 ) ) ;
#59 = VECTOR ( 'NONE', #335, 39.37007874015748143 ) ;
#60 = CARTESIAN_POINT ( 'NONE',  ( -2.099999999999998312, -0.2499999999999834022, 1.249999999999985789 ) ) ;
#61 = DIRECTION ( 'NONE',  ( -1.000000000000000000, 0.000000000000000000, 0.000000000000000000 ) ) ;
#62 = VERTEX_POINT ( 'NONE', #439 ) ;
#63 = ADVANCED_FACE ( 'NONE', ( #132 ), #727, .F. ) ;
#64 = ADVANCED_FACE ( 'NONE', ( #973 ), #956, .F. ) ;
#65 = DIRECTION ( 'NONE',  ( 0.000000000000000000, -1.000000000000000000, -6.556435184794232217E-17 ) ) ;
#66 = DESIGN_CONTEXT ( 'detailed design', #470, 'design' ) ;
#67 = DIRECTION ( 'NONE',  ( -1.000000000000000000, 0.000000000000000000, 0.000000000000000000 ) ) ;
#68 = ORIENTED_EDGE ( 'NONE', *, *, #108, .T. ) ;
#69 = CC_DESIGN_PERSON_AND_ORGANIZATION_ASSIGNMENT ( #966, #440, ( #310 ) ) ;
#70 = FACE_OUTER_BOUND ( 'NONE', #368, .T. ) ;
#71 = VERTEX_POINT ( 'NONE', #355 ) ;
#72 = VECTOR ( 'NONE', #192, 39.37007874015748143 ) ;
#73 = AXIS2_PLACEMENT_3D ( 'NONE', #342, #263, #554 ) ;
#74 = COORDINATED_UNIVERSAL_TIME_OFFSET ( 8, 0, .BEHIND. ) ;
#75 = ADVANCED_FACE ( 'NONE', ( #82 ), #660, .F. ) ;
#76 = DIRECTION ( 'NONE',  ( 1.000000000000000000, -0.000000000000000000, -0.000000000000000000 ) ) ;
#77 = VERTEX_POINT ( 'NONE', #842 ) ;
#78 = VERTEX_POINT ( 'NONE', #583 ) ;
#79 = CARTESIAN_POINT ( 'NONE',  ( 0.1000000000000000056, -0.1249999999998819833, 1.566000000000303150 ) ) ;
#80 = VERTEX_POINT ( 'NONE', #890 ) ;
#81 = PRODUCT_DEFINITION ( 'UNKNOWN', '', #310, #66 ) ;
#82 = FACE_OUTER_BOUND ( 'NONE', #832, .T. ) ;
#83 = DIRECTION ( 'NONE',  ( -1.000000000000000000, -0.000000000000000000, -0.000000000000000000 ) ) ;
#84 = ORIENTED_EDGE ( 'NONE', *, *, #701, .F. ) ;
#85 = CARTESIAN_POINT ( 'NONE',  ( -2.099999999999998312, -0.2499999999999834022, 1.249999999999985789 ) ) ;
#86 = AXIS2_PLACEMENT_3D ( 'NONE', #197, #501, #495 ) ;
#87 = CIRCLE ( 'NONE', #375, 0.05899999999984193583 ) ;
#88 = DIRECTION ( 'NONE',  ( -1.000000000000000000, -0.000000000000000000, -0.000000000000000000 ) ) ;
#89 = ORIENTED_EDGE ( 'NONE', *, *, #545, .F. ) ;
#90 = CARTESIAN_POINT ( 'NONE',  ( -2.099999999999998312, 1.180158333262961679E-13, 1.000000000000145217 ) ) ;
#91 = ADVANCED_FACE ( 'NONE', ( #654 ), #894, .F. ) ;
#92 = ORIENTED_EDGE ( 'NONE', *, *, #964, .T. ) ;
#93 = EDGE_CURVE ( 'NONE', #682, #174, #635, .T. ) ;
#94 = CARTESIAN_POINT ( 'NONE',  ( -1.999999999999998446, -0.2499999999999834022, 6.999999999999985789 ) ) ;
#95 = EDGE_LOOP ( 'NONE', ( #734, #302, #168, #651 ) ) ;
#96 = DIRECTION ( 'NONE',  ( -1.000000000000000000, -0.000000000000000000, -0.000000000000000000 ) ) ;
#97 = LINE ( 'NONE', #700, #753 ) ;
#98 = ORIENTED_EDGE ( 'NONE', *, *, #371, .T. ) ;
#99 = FACE_OUTER_BOUND ( 'NONE', #366, .T. ) ;
#100 = VECTOR ( 'NONE', #706, 39.37007874015748143 ) ;
#101 = AXIS2_PLACEMENT_3D ( 'NONE', #202, #948, #194 ) ;
#102 = LINE ( 'NONE', #199, #438 ) ;
#103 = VERTEX_POINT ( 'NONE', #609 ) ;
#104 = DIRECTION ( 'NONE',  ( 0.000000000000000000, 0.000000000000000000, 1.000000000000000000 ) ) ;
#105 = PLANE ( 'NONE',  #786 ) ;
#106 = ORIENTED_EDGE ( 'NONE', *, *, #298, .F. ) ;
#107 = LINE ( 'NONE', #946, #881 ) ;
#108 = EDGE_CURVE ( 'NONE', #237, #297, #54, .T. ) ;
#109 = DIRECTION ( 'NONE',  ( 0.000000000000000000, 0.000000000000000000, 1.000000000000000000 ) ) ;
#110 = CARTESIAN_POINT ( 'NONE',  ( -2.099999999999998312, 0.2499999999999948097, 1.000000000000145439 ) ) ;
#111 = EDGE_LOOP ( 'NONE', ( #851, #592 ) ) ;
#112 = CARTESIAN_POINT ( 'NONE',  ( -2.099999999999998312, 0.2499999999999943934, 7.250000000000143885 ) ) ;
#113 = CC_DESIGN_PERSON_AND_ORGANIZATION_ASSIGNMENT ( #826, #732, ( #655 ) ) ;
#114 = AXIS2_PLACEMENT_3D ( 'NONE', #241, #96, #708 ) ;
#115 = AXIS2_PLACEMENT_3D ( 'NONE', #730, #736, #337 ) ;
#116 = FACE_OUTER_BOUND ( 'NONE', #855, .T. ) ;
#117 = ORIENTED_EDGE ( 'NONE', *, *, #771, .T. ) ;
#118 = CIRCLE ( 'NONE', #256, 0.05900000000007605411 ) ;
#119 = LINE ( 'NONE', #421, #819 ) ;
#120 = EDGE_CURVE ( 'NONE', #921, #617, #235, .T. ) ;
#121 = DIRECTION ( 'NONE',  ( 1.000000000000000000, -0.000000000000000000, -0.000000000000000000 ) ) ;
#122 = EDGE_CURVE ( 'NONE', #174, #800, #731, .T. ) ;
#123 = PLANE ( 'NONE',  #73 ) ;
#124 = ORIENTED_EDGE ( 'NONE', *, *, #596, .T. ) ;
#125 = ADVANCED_BREP_SHAPE_REPRESENTATION ( 'Armor Back plate', ( #407, #405, #294 ), #721 ) ;
#126 = PLANE ( 'NONE',  #115 ) ;
#127 = CARTESIAN_POINT ( 'NONE',  ( 0.000000000000000000, -1.202013117212275737E-14, 1.250000000000006661 ) ) ;
#128 = PERSON_AND_ORGANIZATION ( #772, #705 ) ;
#129 = CARTESIAN_POINT ( 'NONE',  ( 0.1000000000000000056, -0.2499999999999834022, 1.249999999999985789 ) ) ;
#130 = ORIENTED_EDGE ( 'NONE', *, *, #21, .T. ) ;
#131 = DIRECTION ( 'NONE',  ( 1.000000000000000000, 0.000000000000000000, 0.000000000000000000 ) ) ;
#132 = FACE_OUTER_BOUND ( 'NONE', #742, .T. ) ;
#133 = PERSON_AND_ORGANIZATION ( #772, #705 ) ;
#134 = CARTESIAN_POINT ( 'NONE',  ( 0.000000000000000000, 0.2499999999999948097, 9.491122132157551405 ) ) ;
#135 = ORIENTED_EDGE ( 'NONE', *, *, #905, .T. ) ;
#136 = ADVANCED_FACE ( 'NONE', ( #210 ), #816, .F. ) ;
#137 = VECTOR ( 'NONE', #560, 39.37007874015748143 ) ;
#138 = DIRECTION ( 'NONE',  ( 0.000000000000000000, 0.000000000000000000, 1.000000000000000000 ) ) ;
#139 = DATE_AND_TIME ( #598, #607 ) ;
#140 = DIRECTION ( 'NONE',  ( 1.000000000000000000, -0.000000000000000000, -0.000000000000000000 ) ) ;
#141 = VERTEX_POINT ( 'NONE', #939 ) ;
#142 = ADVANCED_FACE ( 'NONE', ( #251 ), #464, .F. ) ;
#143 = APPROVAL_ROLE ( '' ) ;
#144 = DIRECTION ( 'NONE',  ( 0.000000000000000000, 0.000000000000000000, 1.000000000000000000 ) ) ;
#145 = ORIENTED_EDGE ( 'NONE', *, *, #691, .T. ) ;
#146 = EDGE_CURVE ( 'NONE', #62, #524, #852, .T. ) ;
#147 = DATE_AND_TIME ( #585, #517 ) ;
#148 = PLANE ( 'NONE',  #339 ) ;
#149 = EDGE_LOOP ( 'NONE', ( #622, #312, #523, #98 ) ) ;
#150 = ORIENTED_EDGE ( 'NONE', *, *, #120, .F. ) ;
#151 = CLOSED_SHELL ( 'NONE', ( #179, #919, #845, #720, #504, #341, #559, #63, #165, #280, #830, #91, #226, #252 ) ) ;
#152 = CIRCLE ( 'NONE', #402, 0.05900000000007605411 ) ;
#153 = APPROVAL ( #220, 'UNSPECIFIED' ) ;
#154 = DIRECTION ( 'NONE',  ( 0.000000000000000000, -5.463695987331219411E-16, 1.000000000000000000 ) ) ;
#155 = VERTEX_POINT ( 'NONE', #627 ) ;
#156 = FACE_OUTER_BOUND ( 'NONE', #379, .T. ) ;
#157 = LINE ( 'NONE', #326, #804 ) ;
#158 = VERTEX_POINT ( 'NONE', #935 ) ;
#159 = FACE_OUTER_BOUND ( 'NONE', #870, .T. ) ;
#160 = UNCERTAINTY_MEASURE_WITH_UNIT (LENGTH_MEASURE( 1.000000000000000082E-05 ), #350, 'distance_accuracy_value', 'NONE');
#161 = FACE_BOUND ( 'NONE', #875, .T. ) ;
#162 = EDGE_CURVE ( 'NONE', #601, #155, #480, .T. ) ;
#163 = ORIENTED_EDGE ( 'NONE', *, *, #484, .F. ) ;
#164 = FACE_OUTER_BOUND ( 'NONE', #95, .T. ) ;
#165 = ADVANCED_FACE ( 'NONE', ( #99 ), #689, .F. ) ;
#166 = AXIS2_PLACEMENT_3D ( 'NONE', #48, #683, #885 ) ;
#167 = CIRCLE ( 'NONE', #231, 0.05899999999984193583 ) ;
#168 = ORIENTED_EDGE ( 'NONE', *, *, #659, .F. ) ;
#169 = CARTESIAN_POINT ( 'NONE',  ( 0.1000000000000000056, 0.2499999999999948097, 1.000000000000145217 ) ) ;
#170 = PRODUCT ( 'Armor Back plate', 'Armor Back plate', '', ( #563 ) ) ;
#171 = DIRECTION ( 'NONE',  ( -1.000000000000000000, 0.000000000000000000, 0.000000000000000000 ) ) ;
#172 = ORIENTED_EDGE ( 'NONE', *, *, #947, .T. ) ;
#173 = CARTESIAN_POINT ( 'NONE',  ( -2.099999999999998312, -0.1249999999998809425, 6.625000000000143885 ) ) ;
#174 = VERTEX_POINT ( 'NONE', #317 ) ;
#175 = DIRECTION ( 'NONE',  ( 0.000000000000000000, 0.000000000000000000, -1.000000000000000000 ) ) ;
#176 = DIRECTION ( 'NONE',  ( -0.000000000000000000, -0.000000000000000000, -1.000000000000000000 ) ) ;
#177 = ORIENTED_EDGE ( 'NONE', *, *, #571, .T. ) ;
#178 = DIRECTION ( 'NONE',  ( -1.000000000000000000, -0.000000000000000000, -0.000000000000000000 ) ) ;
#179 = ADVANCED_FACE ( 'NONE', ( #13 ), #469, .F. ) ;
#180 = CARTESIAN_POINT ( 'NONE',  ( -2.099999999999998312, -0.2499999999999834022, 1.249999999999985789 ) ) ;
#181 = CARTESIAN_POINT ( 'NONE',  ( 0.1000000000000000056, 0.2499999999999948097, 9.491122132157551405 ) ) ;
#182 = ORIENTED_EDGE ( 'NONE', *, *, #615, .T. ) ;
#183 = CARTESIAN_POINT ( 'NONE',  ( -2.099999999999998312, -1.202013117212275737E-14, 1.250000000000006661 ) ) ;
#184 = AXIS2_PLACEMENT_3D ( 'NONE', #744, #65, #362 ) ;
#185 = AXIS2_PLACEMENT_3D ( 'NONE', #134, #377, #373 ) ;
#186 = DIRECTION ( 'NONE',  ( 1.000000000000000000, 0.000000000000000000, 0.000000000000000000 ) ) ;
#187 = CARTESIAN_POINT ( 'NONE',  ( 0.1000000000000000056, -0.1249999999998809425, 6.683999999999985953 ) ) ;
#188 = VERTEX_POINT ( 'NONE', #552 ) ;
#189 = LINE ( 'NONE', #487, #323 ) ;
#190 = DIRECTION ( 'NONE',  ( 1.000000000000000000, 0.000000000000000000, 0.000000000000000000 ) ) ;
#191 = ORIENTED_EDGE ( 'NONE', *, *, #777, .F. ) ;
#192 = DIRECTION ( 'NONE',  ( -0.000000000000000000, 1.000000000000000000, 5.463695987331219411E-16 ) ) ;
#193 = DIRECTION ( 'NONE',  ( -0.000000000000000000, 1.000000000000000000, 8.304817900740310288E-14 ) ) ;
#194 = DIRECTION ( 'NONE',  ( 0.000000000000000000, 0.000000000000000000, 1.000000000000000000 ) ) ;
#195 = ORIENTED_EDGE ( 'NONE', *, *, #198, .F. ) ;
#196 = EDGE_CURVE ( 'NONE', #62, #158, #460, .T. ) ;
#197 = CARTESIAN_POINT ( 'NONE',  ( 0.000000000000000000, -0.1249999999998809425, 6.625000000000143885 ) ) ;
#198 = EDGE_CURVE ( 'NONE', #240, #475, #400, .T. ) ;
#199 = CARTESIAN_POINT ( 'NONE',  ( 0.1000000000000000056, 1.180158333262961679E-13, 7.250000000000143885 ) ) ;
#200 = VECTOR ( 'NONE', #58, 39.37007874015748143 ) ;
#201 = CIRCLE ( 'NONE', #293, 0.05900000000007605411 ) ;
#202 = CARTESIAN_POINT ( 'NONE',  ( -2.099999999999998312, -0.1249999999998819833, 1.625000000000144995 ) ) ;
#203 = EDGE_LOOP ( 'NONE', ( #246, #316 ) ) ;
#204 = PLANE ( 'NONE',  #497 ) ;
#205 = CC_DESIGN_DATE_AND_TIME_ASSIGNMENT ( #363, #745, ( #655 ) ) ;
#206 = CARTESIAN_POINT ( 'NONE',  ( -2.099999999999998312, 1.180158333262961679E-13, 7.250000000000143885 ) ) ;
#207 = DIRECTION ( 'NONE',  ( 0.000000000000000000, 1.000000000000000000, 1.005320061668564070E-13 ) ) ;
#208 = ORIENTED_EDGE ( 'NONE', *, *, #122, .T. ) ;
#209 = LINE ( 'NONE', #634, #72 ) ;
#210 = FACE_OUTER_BOUND ( 'NONE', #332, .T. ) ;
#211 = EDGE_CURVE ( 'NONE', #864, #213, #328, .T. ) ;
#212 = CARTESIAN_POINT ( 'NONE',  ( -1.999999999999998446, -1.202013117212275737E-14, 1.250000000000006661 ) ) ;
#213 = VERTEX_POINT ( 'NONE', #770 ) ;
#214 = DIRECTION ( 'NONE',  ( 1.000000000000000000, 0.000000000000000000, 0.000000000000000000 ) ) ;
#215 = COORDINATED_UNIVERSAL_TIME_OFFSET ( 8, 0, .BEHIND. ) ;
#216 = CARTESIAN_POINT ( 'NONE',  ( -2.099999999999998312, -0.1249999999998819833, 1.566000000000069114 ) ) ;
#217 = ORIENTED_EDGE ( 'NONE', *, *, #743, .T. ) ;
#218 = VECTOR ( 'NONE', #599, 39.37007874015748143 ) ;
#219 = CC_DESIGN_SECURITY_CLASSIFICATION ( #655, ( #310 ) ) ;
#220 = APPROVAL_STATUS ( 'not_yet_approved' ) ;
#221 = ORIENTED_EDGE ( 'NONE', *, *, #298, .T. ) ;
#222 = DATE_AND_TIME ( #891, #258 ) ;
#223 = CARTESIAN_POINT ( 'NONE',  ( 0.000000000000000000, 0.000000000000000000, 0.000000000000000000 ) ) ;
#224 = VERTEX_POINT ( 'NONE', #85 ) ;
#225 = ORIENTED_EDGE ( 'NONE', *, *, #913, .T. ) ;
#226 = ADVANCED_FACE ( 'NONE', ( #925 ), #776, .F. ) ;
#227 = DIRECTION ( 'NONE',  ( 0.000000000000000000, -5.201438579933988045E-13, -1.000000000000000000 ) ) ;
#228 = ORIENTED_EDGE ( 'NONE', *, *, #314, .F. ) ;
#229 = VERTEX_POINT ( 'NONE', #395 ) ;
#230 = VECTOR ( 'NONE', #699, 39.37007874015748143 ) ;
#231 = AXIS2_PLACEMENT_3D ( 'NONE', #26, #625, #233 ) ;
#232 = DIRECTION ( 'NONE',  ( 0.000000000000000000, 5.201438579939643610E-13, -1.000000000000000000 ) ) ;
#233 = DIRECTION ( 'NONE',  ( 0.000000000000000000, 0.000000000000000000, -1.000000000000000000 ) ) ;
#234 = VERTEX_POINT ( 'NONE', #333 ) ;
#235 = LINE ( 'NONE', #810, #898 ) ;
#236 = PLANE ( 'NONE',  #573 ) ;
#237 = VERTEX_POINT ( 'NONE', #23 ) ;
#238 = CARTESIAN_POINT ( 'NONE',  ( -1.999999999999998446, -0.1249999999998809425, 6.625000000000143885 ) ) ;
#239 = FACE_BOUND ( 'NONE', #203, .T. ) ;
#240 = VERTEX_POINT ( 'NONE', #183 ) ;
#241 = CARTESIAN_POINT ( 'NONE',  ( 0.1000000000000000056, -0.1249999999998819833, 1.625000000000144995 ) ) ;
#242 = AXIS2_PLACEMENT_3D ( 'NONE', #923, #467, #778 ) ;
#243 = CIRCLE ( 'NONE', #435, 3.499999999999980904 ) ;
#244 = ORIENTED_EDGE ( 'NONE', *, *, #431, .F. ) ;
#245 = CARTESIAN_POINT ( 'NONE',  ( -2.099999999999998312, 1.180158333262961679E-13, 1.000000000000145217 ) ) ;
#246 = ORIENTED_EDGE ( 'NONE', *, *, #913, .F. ) ;
#247 = EDGE_CURVE ( 'NONE', #601, #78, #624, .T. ) ;
#248 = CARTESIAN_POINT ( 'NONE',  ( -2.099999999999998312, -1.202013117212275737E-14, 7.000000000000010658 ) ) ;
#249 = CARTESIAN_POINT ( 'NONE',  ( -1.999999999999998446, -0.1249999999998819833, 1.566000000000069114 ) ) ;
#250 = ORIENTED_EDGE ( 'NONE', *, *, #596, .F. ) ;
#251 = FACE_OUTER_BOUND ( 'NONE', #511, .T. ) ;
#252 = ADVANCED_FACE ( 'NONE', ( #549 ), #387, .F. ) ;
#253 = PLANE ( 'NONE',  #686 ) ;
#254 = ORIENTED_EDGE ( 'NONE', *, *, #329, .T. ) ;
#255 = CARTESIAN_POINT ( 'NONE',  ( 0.1000000000000000056, -0.1249999999998809425, 6.625000000000143885 ) ) ;
#256 = AXIS2_PLACEMENT_3D ( 'NONE', #850, #171, #650 ) ;
#257 = CARTESIAN_POINT ( 'NONE',  ( 0.000000000000000000, 0.000000000000000000, 0.000000000000000000 ) ) ;
#258 = LOCAL_TIME ( 16, 20, 52.00000000000000000, #215 ) ;
#259 = CARTESIAN_POINT ( 'NONE',  ( -2.099999999999998312, -0.2499999999999834022, 6.999999999999985789 ) ) ;
#260 = ORIENTED_EDGE ( 'NONE', *, *, #431, .T. ) ;
#261 = DIRECTION ( 'NONE',  ( -0.000000000000000000, -0.000000000000000000, -1.000000000000000000 ) ) ;
#262 = EDGE_CURVE ( 'NONE', #836, #297, #32, .T. ) ;
#263 = DIRECTION ( 'NONE',  ( 0.000000000000000000, 1.000000000000000000, -0.000000000000000000 ) ) ;
#264 = ORIENTED_EDGE ( 'NONE', *, *, #755, .F. ) ;
#265 = EDGE_CURVE ( 'NONE', #141, #617, #801, .T. ) ;
#266 = CARTESIAN_POINT ( 'NONE',  ( 0.000000000000000000, 1.920390928534416603E-17, 9.491122132157551405 ) ) ;
#267 = LINE ( 'NONE', #492, #981 ) ;
#268 = DIRECTION ( 'NONE',  ( 0.000000000000000000, -1.000000000000000000, -8.304817900740310288E-14 ) ) ;
#269 = ORIENTED_EDGE ( 'NONE', *, *, #615, .F. ) ;
#270 = DIRECTION ( 'NONE',  ( 0.000000000000000000, 0.000000000000000000, -1.000000000000000000 ) ) ;
#271 = CYLINDRICAL_SURFACE ( 'NONE', #38, 3.499999999999980904 ) ;
#272 = LINE ( 'NONE', #782, #740 ) ;
#273 = AXIS2_PLACEMENT_3D ( 'NONE', #173, #544, #618 ) ;
#274 = AXIS2_PLACEMENT_3D ( 'NONE', #977, #283, #446 ) ;
#275 = LINE ( 'NONE', #129, #514 ) ;
#276 = ORIENTED_EDGE ( 'NONE', *, *, #531, .F. ) ;
#277 = APPROVAL_PERSON_ORGANIZATION ( #823, #496, #665 ) ;
#278 = DIRECTION ( 'NONE',  ( 1.000000000000000000, 0.000000000000000000, 0.000000000000000000 ) ) ;
#279 = ORIENTED_EDGE ( 'NONE', *, *, #709, .T. ) ;
#280 = ADVANCED_FACE ( 'NONE', ( #164 ), #354, .F. ) ;
#281 = DIRECTION ( 'NONE',  ( -1.000000000000000000, -0.000000000000000000, -0.000000000000000000 ) ) ;
#282 = PERSON_AND_ORGANIZATION ( #772, #705 ) ;
#283 = DIRECTION ( 'NONE',  ( -1.000000000000000000, 0.000000000000000000, 0.000000000000000000 ) ) ;
#284 = ORIENTED_EDGE ( 'NONE', *, *, #19, .F. ) ;
#285 = DIRECTION ( 'NONE',  ( 0.000000000000000000, 0.000000000000000000, 1.000000000000000000 ) ) ;
#286 = CYLINDRICAL_SURFACE ( 'NONE', #702, 0.05900000000007605411 ) ;
#287 = EDGE_CURVE ( 'NONE', #837, #71, #8, .T. ) ;
#288 = FACE_OUTER_BOUND ( 'NONE', #343, .T. ) ;
#289 = ORIENTED_EDGE ( 'NONE', *, *, #797, .T. ) ;
#290 = DIRECTION ( 'NONE',  ( 1.000000000000000000, 0.000000000000000000, 0.000000000000000000 ) ) ;
#291 = VERTEX_POINT ( 'NONE', #955 ) ;
#292 = CLOSED_SHELL ( 'NONE', ( #64, #353, #361, #795, #454, #52, #904, #75, #603, #142, #36, #136, #3, #472, #643 ) ) ;
#293 = AXIS2_PLACEMENT_3D ( 'NONE', #319, #536, #547 ) ;
#294 = AXIS2_PLACEMENT_3D ( 'NONE', #257, #861, #186 ) ;
#295 = LINE ( 'NONE', #367, #915 ) ;
#296 = ORIENTED_EDGE ( 'NONE', *, *, #646, .F. ) ;
#297 = VERTEX_POINT ( 'NONE', #960 ) ;
#298 = EDGE_CURVE ( 'NONE', #696, #836, #43, .T. ) ;
#299 = DATE_AND_TIME ( #676, #637 ) ;
#300 = CARTESIAN_POINT ( 'NONE',  ( 0.000000000000000000, -0.1249999999998809425, 6.625000000000143885 ) ) ;
#301 = ORIENTED_EDGE ( 'NONE', *, *, #198, .T. ) ;
#302 = ORIENTED_EDGE ( 'NONE', *, *, #839, .F. ) ;
#303 = DIRECTION ( 'NONE',  ( 1.000000000000000000, -0.000000000000000000, -0.000000000000000000 ) ) ;
#304 = DIRECTION ( 'NONE',  ( -1.000000000000000000, 0.000000000000000000, 0.000000000000000000 ) ) ;
#305 = ORIENTED_EDGE ( 'NONE', *, *, #905, .F. ) ;
#306 = AXIS2_PLACEMENT_3D ( 'NONE', #206, #383, #534 ) ;
#307 = AXIS2_PLACEMENT_3D ( 'NONE', #389, #692, #304 ) ;
#308 = DIRECTION ( 'NONE',  ( 0.000000000000000000, 0.000000000000000000, -1.000000000000000000 ) ) ;
#309 = EDGE_CURVE ( 'NONE', #750, #864, #684, .T. ) ;
#310 = PRODUCT_DEFINITION_FORMATION_WITH_SPECIFIED_SOURCE ( 'ANY', '', #170, .NOT_KNOWN. ) ;
#311 = DIRECTION ( 'NONE',  ( -0.000000000000000000, -1.000000000000000000, -1.005320061668564070E-13 ) ) ;
#312 = ORIENTED_EDGE ( 'NONE', *, *, #247, .F. ) ;
#313 = CARTESIAN_POINT ( 'NONE',  ( 0.1000000000000000056, -0.1249999999998809425, 6.625000000000143885 ) ) ;
#314 = EDGE_CURVE ( 'NONE', #486, #769, #119, .T. ) ;
#315 = DIRECTION ( 'NONE',  ( -1.000000000000000000, -0.000000000000000000, 0.000000000000000000 ) ) ;
#316 = ORIENTED_EDGE ( 'NONE', *, *, #613, .F. ) ;
#317 = CARTESIAN_POINT ( 'NONE',  ( 0.1000000000000000056, -0.1249999999998809425, 6.566000000000301817 ) ) ;
#318 = EDGE_LOOP ( 'NONE', ( #917, #758, #374, #182 ) ) ;
#319 = CARTESIAN_POINT ( 'NONE',  ( -2.099999999999998312, -0.1249999999998819833, 1.625000000000144995 ) ) ;
#320 = CC_DESIGN_DATE_AND_TIME_ASSIGNMENT ( #147, #985, ( #81 ) ) ;
#321 = ORIENTED_EDGE ( 'NONE', *, *, #196, .T. ) ;
#322 = DIRECTION ( 'NONE',  ( 1.000000000000000000, -0.000000000000000000, -0.000000000000000000 ) ) ;
#323 = VECTOR ( 'NONE', #717, 39.37007874015748143 ) ;
#324 = VECTOR ( 'NONE', #83, 39.37007874015748143 ) ;
#325 = CC_DESIGN_APPROVAL ( #14, ( #655 ) ) ;
#326 = CARTESIAN_POINT ( 'NONE',  ( -2.099999999999998312, -0.1249999999998809425, 6.684000000000219543 ) ) ;
#327 = VERTEX_POINT ( 'NONE', #876 ) ;
#328 = LINE ( 'NONE', #856, #784 ) ;
#329 = EDGE_CURVE ( 'NONE', #800, #394, #942, .T. ) ;
#330 =( NAMED_UNIT ( * ) SI_UNIT ( $, .STERADIAN. ) SOLID_ANGLE_UNIT ( ) );
#331 = CARTESIAN_POINT ( 'NONE',  ( -2.099999999999998312, -1.202013117212275737E-14, 1.250000000000006661 ) ) ;
#332 = EDGE_LOOP ( 'NONE', ( #191, #611, #926, #489 ) ) ;
#333 = CARTESIAN_POINT ( 'NONE',  ( 0.000000000000000000, -0.1249999999998819833, 1.683999999999987063 ) ) ;
#334 = PERSON_AND_ORGANIZATION ( #772, #705 ) ;
#335 = DIRECTION ( 'NONE',  ( 0.000000000000000000, 1.000000000000000000, 1.005320061668564070E-13 ) ) ;
#336 = ORIENTED_EDGE ( 'NONE', *, *, #976, .T. ) ;
#337 = DIRECTION ( 'NONE',  ( 0.000000000000000000, 0.000000000000000000, 1.000000000000000000 ) ) ;
#338 = EDGE_CURVE ( 'NONE', #234, #213, #372, .T. ) ;
#339 = AXIS2_PLACEMENT_3D ( 'NONE', #223, #1, #55 ) ;
#340 = CARTESIAN_POINT ( 'NONE',  ( -2.099999999999998312, -0.1249999999998809425, 6.625000000000143885 ) ) ;
#341 = ADVANCED_FACE ( 'NONE', ( #815 ), #204, .F. ) ;
#342 = CARTESIAN_POINT ( 'NONE',  ( 0.1000000000000000056, 0.2499999999999948097, 9.491122132157551405 ) ) ;
#343 = EDGE_LOOP ( 'NONE', ( #305, #725, #378, #962, #645, #399, #284, #466 ) ) ;
#344 = LINE ( 'NONE', #969, #200 ) ;
#345 = LINE ( 'NONE', #642, #787 ) ;
#346 = DIRECTION ( 'NONE',  ( 0.000000000000000000, -8.304817900740310288E-14, 1.000000000000000000 ) ) ;
#347 = ORIENTED_EDGE ( 'NONE', *, *, #884, .T. ) ;
#348 = DIRECTION ( 'NONE',  ( -0.000000000000000000, 1.000000000000000000, 5.201438579939643610E-13 ) ) ;
#349 = DIRECTION ( 'NONE',  ( -1.000000000000000000, 0.000000000000000000, 0.000000000000000000 ) ) ;
#350 =( CONVERSION_BASED_UNIT ( 'INCH', #49 ) LENGTH_UNIT ( ) NAMED_UNIT ( #535 ) );
#351 = DIRECTION ( 'NONE',  ( 0.000000000000000000, 0.000000000000000000, -1.000000000000000000 ) ) ;
#352 = ORIENTED_EDGE ( 'NONE', *, *, #381, .T. ) ;
#353 = ADVANCED_FACE ( 'NONE', ( #882 ), #432, .F. ) ;
#354 = PLANE ( 'NONE',  #604 ) ;
#355 = CARTESIAN_POINT ( 'NONE',  ( -1.999999999999998446, -0.1249999999998819833, 1.684000000000221098 ) ) ;
#356 = VECTOR ( 'NONE', #922, 39.37007874015748143 ) ;
#357 = CIRCLE ( 'NONE', #274, 0.05900000000007605411 ) ;
#358 = LINE ( 'NONE', #677, #623 ) ;
#359 = EDGE_LOOP ( 'NONE', ( #135, #228, #938, #828 ) ) ;
#360 = LINE ( 'NONE', #658, #751 ) ;
#361 = ADVANCED_FACE ( 'NONE', ( #652, #578, #426 ), #126, .F. ) ;
#362 = DIRECTION ( 'NONE',  ( 0.000000000000000000, 6.556435184794232217E-17, -1.000000000000000000 ) ) ;
#363 = DATE_AND_TIME ( #428, #754 ) ;
#364 = CARTESIAN_POINT ( 'NONE',  ( -1.000000000000007994, -3.072649545167214669, 1.000000000000145217 ) ) ;
#365 = EDGE_LOOP ( 'NONE', ( #521, #117, #844, #679, #780, #537, #825, #841 ) ) ;
#366 = EDGE_LOOP ( 'NONE', ( #608, #548, #442, #260 ) ) ;
#367 = CARTESIAN_POINT ( 'NONE',  ( 0.1000000000000000056, 1.180158333262961679E-13, 7.250000000000143885 ) ) ;
#368 = EDGE_LOOP ( 'NONE', ( #437, #529, #221, #712 ) ) ;
#369 = EDGE_CURVE ( 'NONE', #80, #62, #209, .T. ) ;
#370 = COORDINATED_UNIVERSAL_TIME_OFFSET ( 8, 0, .BEHIND. ) ;
#371 = EDGE_CURVE ( 'NONE', #103, #773, #344, .T. ) ;
#372 = CIRCLE ( 'NONE', #927, 0.05899999999984193583 ) ;
#373 = DIRECTION ( 'NONE',  ( 0.000000000000000000, 0.000000000000000000, 1.000000000000000000 ) ) ;
#374 = ORIENTED_EDGE ( 'NONE', *, *, #422, .T. ) ;
#375 = AXIS2_PLACEMENT_3D ( 'NONE', #50, #869, #351 ) ;
#376 = APPROVAL_DATE_TIME ( #139, #496 ) ;
#377 = DIRECTION ( 'NONE',  ( -1.000000000000000000, 0.000000000000000000, 0.000000000000000000 ) ) ;
#378 = ORIENTED_EDGE ( 'NONE', *, *, #690, .F. ) ;
#379 = EDGE_LOOP ( 'NONE', ( #177, #694, #577, #172 ) ) ;
#380 = LINE ( 'NONE', #458, #324 ) ;
#381 = EDGE_CURVE ( 'NONE', #486, #80, #360, .T. ) ;
#382 = ORIENTED_EDGE ( 'NONE', *, *, #783, .T. ) ;
#383 = DIRECTION ( 'NONE',  ( 0.000000000000000000, 0.000000000000000000, -1.000000000000000000 ) ) ;
#384 = LINE ( 'NONE', #11, #883 ) ;
#385 = ORIENTED_EDGE ( 'NONE', *, *, #369, .T. ) ;
#386 = CIRCLE ( 'NONE', #9, 0.05900000000007605411 ) ;
#387 = CYLINDRICAL_SURFACE ( 'NONE', #417, 0.05899999999984220644 ) ;
#388 = EDGE_CURVE ( 'NONE', #729, #71, #189, .T. ) ;
#389 = CARTESIAN_POINT ( 'NONE',  ( -1.000000000000007994, -3.072649545167214669, 7.250000000000143885 ) ) ;
#390 = ORIENTED_EDGE ( 'NONE', *, *, #196, .F. ) ;
#391 = DIRECTION ( 'NONE',  ( -0.000000000000000000, -6.556435184794233450E-17, 1.000000000000000000 ) ) ;
#392 = VERTEX_POINT ( 'NONE', #412 ) ;
#393 = DIRECTION ( 'NONE',  ( 1.000000000000000000, 0.000000000000000000, 0.000000000000000000 ) ) ;
#394 = VERTEX_POINT ( 'NONE', #791 ) ;
#395 = CARTESIAN_POINT ( 'NONE',  ( 0.000000000000000000, -1.202013117212275737E-14, 7.000000000000010658 ) ) ;
#396 = CARTESIAN_POINT ( 'NONE',  ( 0.1000000000000000056, -1.202013117212275737E-14, 7.000000000000010658 ) ) ;
#397 = EDGE_CURVE ( 'NONE', #78, #475, #107, .T. ) ;
#398 = CARTESIAN_POINT ( 'NONE',  ( 0.1000000000000000056, 0.2499999999999943934, 7.250000000000143885 ) ) ;
#399 = ORIENTED_EDGE ( 'NONE', *, *, #940, .F. ) ;
#400 = LINE ( 'NONE', #765, #914 ) ;
#401 = AXIS2_PLACEMENT_3D ( 'NONE', #90, #406, #556 ) ;
#402 = AXIS2_PLACEMENT_3D ( 'NONE', #340, #873, #631 ) ;
#403 =( NAMED_UNIT ( * ) PLANE_ANGLE_UNIT ( ) SI_UNIT ( $, .RADIAN. ) );
#404 = ORIENTED_EDGE ( 'NONE', *, *, #388, .F. ) ;
#405 = MANIFOLD_SOLID_BREP ( 'Boss-Extrude4', #292 ) ;
#406 = DIRECTION ( 'NONE',  ( 0.000000000000000000, 1.000000000000000000, 5.201438579939643610E-13 ) ) ;
#407 = MANIFOLD_SOLID_BREP ( 'Boss-Extrude1', #151 ) ;
#408 = DIRECTION ( 'NONE',  ( -1.000000000000000000, -0.000000000000000000, -0.000000000000000000 ) ) ;
#409 = CARTESIAN_POINT ( 'NONE',  ( -2.099999999999998312, -1.202013117212275737E-14, 1.250000000000006661 ) ) ;
#410 = ORIENTED_EDGE ( 'NONE', *, *, #735, .F. ) ;
#411 = EDGE_CURVE ( 'NONE', #188, #327, #490, .T. ) ;
#412 = CARTESIAN_POINT ( 'NONE',  ( 0.1000000000000000056, 1.180158333262961679E-13, 7.250000000000143885 ) ) ;
#413 = CARTESIAN_POINT ( 'NONE',  ( 0.000000000000000000, -0.2499999999999834022, 6.999999999999985789 ) ) ;
#414 = CARTESIAN_POINT ( 'NONE',  ( 0.1000000000000000056, 1.180158333262961679E-13, 7.250000000000143885 ) ) ;
#415 = ORIENTED_EDGE ( 'NONE', *, *, #444, .F. ) ;
#416 = DIRECTION ( 'NONE',  ( 0.000000000000000000, 6.556435184794233450E-17, -1.000000000000000000 ) ) ;
#417 = AXIS2_PLACEMENT_3D ( 'NONE', #313, #178, #104 ) ;
#418 = VECTOR ( 'NONE', #952, 39.37007874015748143 ) ;
#419 = FACE_OUTER_BOUND ( 'NONE', #626, .T. ) ;
#420 = VERTEX_POINT ( 'NONE', #641 ) ;
#421 = CARTESIAN_POINT ( 'NONE',  ( 0.1000000000000000056, -1.202013117212275737E-14, 1.250000000000006661 ) ) ;
#422 = EDGE_CURVE ( 'NONE', #456, #764, #950, .T. ) ;
#423 = FACE_OUTER_BOUND ( 'NONE', #640, .T. ) ;
#424 = LINE ( 'NONE', #728, #557 ) ;
#425 = EDGE_LOOP ( 'NONE', ( #983, #494, #430, #775 ) ) ;
#426 = FACE_OUTER_BOUND ( 'NONE', #447, .T. ) ;
#427 = DIRECTION ( 'NONE',  ( 1.000000000000000000, -0.000000000000000000, -0.000000000000000000 ) ) ;
#428 = CALENDAR_DATE ( 2026, 20, 3 ) ;
#429 = LINE ( 'NONE', #733, #606 ) ;
#430 = ORIENTED_EDGE ( 'NONE', *, *, #884, .F. ) ;
#431 = EDGE_CURVE ( 'NONE', #524, #56, #616, .T. ) ;
#432 = CYLINDRICAL_SURFACE ( 'NONE', #589, 0.05900000000007605411 ) ;
#433 = CARTESIAN_POINT ( 'NONE',  ( -1.000000000000007994, -3.072649545167214669, 9.491122132157551405 ) ) ;
#434 = VECTOR ( 'NONE', #281, 39.37007874015748143 ) ;
#435 = AXIS2_PLACEMENT_3D ( 'NONE', #364, #746, #67 ) ;
#436 = CARTESIAN_POINT ( 'NONE',  ( 0.1000000000000000056, -0.1249999999998809425, 6.683999999999985953 ) ) ;
#437 = ORIENTED_EDGE ( 'NONE', *, *, #108, .F. ) ;
#438 = VECTOR ( 'NONE', #936, 39.37007874015748143 ) ;
#439 = CARTESIAN_POINT ( 'NONE',  ( 0.1000000000000000056, 0.2499999999999948097, 1.000000000000145439 ) ) ;
#440 = PERSON_AND_ORGANIZATION_ROLE ( 'design_supplier' ) ;
#441 = CARTESIAN_POINT ( 'NONE',  ( -2.099999999999998312, -0.1249999999998819833, 1.684000000000221098 ) ) ;
#442 = ORIENTED_EDGE ( 'NONE', *, *, #976, .F. ) ;
#443 = EDGE_CURVE ( 'NONE', #880, #486, #687, .T. ) ;
#444 = EDGE_CURVE ( 'NONE', #71, #837, #118, .T. ) ;
#445 = COORDINATED_UNIVERSAL_TIME_OFFSET ( 8, 0, .BEHIND. ) ;
#446 = DIRECTION ( 'NONE',  ( 0.000000000000000000, 0.000000000000000000, 1.000000000000000000 ) ) ;
#447 = EDGE_LOOP ( 'NONE', ( #533, #89, #808, #84 ) ) ;
#448 = APPROVAL_DATE_TIME ( #222, #153 ) ;
#449 = VECTOR ( 'NONE', #176, 39.37007874015748143 ) ;
#450 = CARTESIAN_POINT ( 'NONE',  ( -2.099999999999998312, -0.1249999999998819833, 1.566000000000069114 ) ) ;
#451 = EDGE_LOOP ( 'NONE', ( #6, #208, #908, #40 ) ) ;
#452 = VECTOR ( 'NONE', #639, 39.37007874015748143 ) ;
#453 = ORIENTED_EDGE ( 'NONE', *, *, #868, .T. ) ;
#454 = ADVANCED_FACE ( 'NONE', ( #116 ), #105, .F. ) ;
#455 = CARTESIAN_POINT ( 'NONE',  ( -2.099999999999998312, 1.180158333262961679E-13, 7.250000000000143885 ) ) ;
#456 = VERTEX_POINT ( 'NONE', #789 ) ;
#457 = DIRECTION ( 'NONE',  ( 1.000000000000000000, -0.000000000000000000, -0.000000000000000000 ) ) ;
#458 = CARTESIAN_POINT ( 'NONE',  ( 0.1000000000000000056, 1.180158333262961679E-13, 1.000000000000145217 ) ) ;
#459 = VERTEX_POINT ( 'NONE', #711 ) ;
#460 = LINE ( 'NONE', #476, #230 ) ;
#461 = LINE ( 'NONE', #685, #463 ) ;
#462 = ORIENTED_EDGE ( 'NONE', *, *, #211, .T. ) ;
#463 = VECTOR ( 'NONE', #605, 39.37007874015748143 ) ;
#464 = PLANE ( 'NONE',  #401 ) ;
#465 = AXIS2_PLACEMENT_3D ( 'NONE', #29, #408, #109 ) ;
#466 = ORIENTED_EDGE ( 'NONE', *, *, #21, .F. ) ;
#467 = DIRECTION ( 'NONE',  ( 0.000000000000000000, 1.005320061668564070E-13, -1.000000000000000000 ) ) ;
#468 = EDGE_LOOP ( 'NONE', ( #130, #944, #581, #984 ) ) ;
#469 = CYLINDRICAL_SURFACE ( 'NONE', #718, 0.05899999999984220644 ) ;
#470 = APPLICATION_CONTEXT ( 'configuration controlled 3d designs of mechanical parts and assemblies' ) ;
#471 = ORIENTED_EDGE ( 'NONE', *, *, #309, .T. ) ;
#472 = ADVANCED_FACE ( 'NONE', ( #39 ), #123, .F. ) ;
#473 = CARTESIAN_POINT ( 'NONE',  ( 0.1000000000000000056, -1.202013117212275737E-14, 7.000000000000010658 ) ) ;
#474 = CARTESIAN_POINT ( 'NONE',  ( 0.1000000000000000056, -1.202013117212275737E-14, 1.250000000000006661 ) ) ;
#475 = VERTEX_POINT ( 'NONE', #33 ) ;
#476 = CARTESIAN_POINT ( 'NONE',  ( 0.1000000000000000056, 0.2499999999999948097, 1.000000000000145439 ) ) ;
#477 = DIRECTION ( 'NONE',  ( -0.000000000000000000, -6.556435184794233450E-17, 1.000000000000000000 ) ) ;
#478 = DIRECTION ( 'NONE',  ( -0.000000000000000000, 1.000000000000000000, 8.304817900740310288E-14 ) ) ;
#479 = ORIENTED_EDGE ( 'NONE', *, *, #777, .T. ) ;
#480 = LINE ( 'NONE', #781, #100 ) ;
#481 = VECTOR ( 'NONE', #788, 39.37007874015748143 ) ;
#482 = VECTOR ( 'NONE', #193, 39.37007874015748143 ) ;
#483 = APPLICATION_PROTOCOL_DEFINITION ( 'international standard', 'config_control_design', 1994, #693 ) ;
#484 = EDGE_CURVE ( 'NONE', #880, #657, #275, .T. ) ;
#485 = CARTESIAN_POINT ( 'NONE',  ( 0.1000000000000000056, 0.2499999999999943934, 7.250000000000143885 ) ) ;
#486 = VERTEX_POINT ( 'NONE', #879 ) ;
#487 = CARTESIAN_POINT ( 'NONE',  ( -2.099999999999998312, -0.1249999999998819833, 1.684000000000221098 ) ) ;
#488 = DIRECTION ( 'NONE',  ( 0.000000000000000000, 0.000000000000000000, -1.000000000000000000 ) ) ;
#489 = ORIENTED_EDGE ( 'NONE', *, *, #265, .F. ) ;
#490 = LINE ( 'NONE', #112, #572 ) ;
#491 = EDGE_CURVE ( 'NONE', #392, #291, #943, .T. ) ;
#492 = CARTESIAN_POINT ( 'NONE',  ( 0.000000000000000000, 1.180158333262961679E-13, 7.250000000000143885 ) ) ;
#493 = LINE ( 'NONE', #259, #59 ) ;
#494 = ORIENTED_EDGE ( 'NONE', *, *, #783, .F. ) ;
#495 = DIRECTION ( 'NONE',  ( 0.000000000000000000, 0.000000000000000000, -1.000000000000000000 ) ) ;
#496 = APPROVAL ( #901, 'UNSPECIFIED' ) ;
#497 = AXIS2_PLACEMENT_3D ( 'NONE', #53, #348, #647 ) ;
#498 = AXIS2_PLACEMENT_3D ( 'NONE', #854, #393, #175 ) ;
#499 = FACE_OUTER_BOUND ( 'NONE', #359, .T. ) ;
#500 = ORIENTED_EDGE ( 'NONE', *, *, #338, .F. ) ;
#501 = DIRECTION ( 'NONE',  ( 1.000000000000000000, 0.000000000000000000, 0.000000000000000000 ) ) ;
#502 = CARTESIAN_POINT ( 'NONE',  ( 0.000000000000000000, 0.2499999999999948097, 9.491122132157551405 ) ) ;
#503 = APPROVAL_STATUS ( 'not_yet_approved' ) ;
#504 = ADVANCED_FACE ( 'NONE', ( #499 ), #874, .F. ) ;
#505 = CARTESIAN_POINT ( 'NONE',  ( 0.1000000000000000056, -0.1249999999998809425, 6.625000000000143885 ) ) ;
#506 = ORIENTED_EDGE ( 'NONE', *, *, #871, .T. ) ;
#507 = CARTESIAN_POINT ( 'NONE',  ( -1.999999999999998446, -0.1249999999998819833, 1.625000000000144995 ) ) ;
#508 = DIRECTION ( 'NONE',  ( 0.000000000000000000, 0.000000000000000000, -1.000000000000000000 ) ) ;
#509 = SHAPE_DEFINITION_REPRESENTATION ( #779, #125 ) ;
#510 = CARTESIAN_POINT ( 'NONE',  ( 0.1000000000000000056, 0.2499999999999948097, 1.000000000000145217 ) ) ;
#511 = EDGE_LOOP ( 'NONE', ( #757, #106, #12, #18, #930, #46, #195, #978 ) ) ;
#512 = FACE_OUTER_BOUND ( 'NONE', #318, .T. ) ;
#513 = PERSON_AND_ORGANIZATION_ROLE ( 'creator' ) ;
#514 = VECTOR ( 'NONE', #564, 39.37007874015748143 ) ;
#515 = LINE ( 'NONE', #212, #218 ) ;
#516 = VERTEX_POINT ( 'NONE', #644 ) ;
#517 = LOCAL_TIME ( 16, 20, 52.00000000000000000, #370 ) ;
#518 = EDGE_CURVE ( 'NONE', #682, #394, #576, .T. ) ;
#519 = PERSON_AND_ORGANIZATION ( #772, #705 ) ;
#520 = CARTESIAN_POINT ( 'NONE',  ( 0.000000000000000000, -0.2499999999999834022, 6.999999999999985789 ) ) ;
#521 = ORIENTED_EDGE ( 'NONE', *, *, #531, .T. ) ;
#522 = LINE ( 'NONE', #520, #636 ) ;
#523 = ORIENTED_EDGE ( 'NONE', *, *, #540, .F. ) ;
#524 = VERTEX_POINT ( 'NONE', #485 ) ;
#525 = EDGE_CURVE ( 'NONE', #633, #729, #768, .T. ) ;
#526 = VECTOR ( 'NONE', #391, 39.37007874015748143 ) ;
#527 = LINE ( 'NONE', #510, #671 ) ;
#528 = ORIENTED_EDGE ( 'NONE', *, *, #584, .T. ) ;
#529 = ORIENTED_EDGE ( 'NONE', *, *, #646, .T. ) ;
#530 = LINE ( 'NONE', #912, #542 ) ;
#531 = EDGE_CURVE ( 'NONE', #240, #224, #887, .T. ) ;
#532 = CARTESIAN_POINT ( 'NONE',  ( 0.000000000000000000, -0.1249999999998809425, 6.566000000000301817 ) ) ;
#533 = ORIENTED_EDGE ( 'NONE', *, *, #397, .F. ) ;
#534 = DIRECTION ( 'NONE',  ( -1.000000000000000000, 0.000000000000000000, -0.000000000000000000 ) ) ;
#535 = DIMENSIONAL_EXPONENTS ( 1.000000000000000000, 0.000000000000000000, 0.000000000000000000, 0.000000000000000000, 0.000000000000000000, 0.000000000000000000, 0.000000000000000000 ) ;
#536 = DIRECTION ( 'NONE',  ( -1.000000000000000000, 0.000000000000000000, 0.000000000000000000 ) ) ;
#537 = ORIENTED_EDGE ( 'NONE', *, *, #411, .T. ) ;
#538 = DIRECTION ( 'NONE',  ( -1.000000000000000000, 0.000000000000000000, 0.000000000000000000 ) ) ;
#539 = PLANE ( 'NONE',  #242 ) ;
#540 = EDGE_CURVE ( 'NONE', #103, #601, #493, .T. ) ;
#541 = EDGE_LOOP ( 'NONE', ( #663, #785, #555, #264 ) ) ;
#542 = VECTOR ( 'NONE', #648, 39.37007874015748143 ) ;
#543 = AXIS2_PLACEMENT_3D ( 'NONE', #807, #45, #937 ) ;
#544 = DIRECTION ( 'NONE',  ( 1.000000000000000000, -0.000000000000000000, -0.000000000000000000 ) ) ;
#545 = EDGE_CURVE ( 'NONE', #773, #78, #429, .T. ) ;
#546 = ORIENTED_EDGE ( 'NONE', *, *, #723, .F. ) ;
#547 = DIRECTION ( 'NONE',  ( 0.000000000000000000, 0.000000000000000000, 1.000000000000000000 ) ) ;
#548 = ORIENTED_EDGE ( 'NONE', *, *, #491, .F. ) ;
#549 = FACE_OUTER_BOUND ( 'NONE', #747, .T. ) ;
#550 = DIRECTION ( 'NONE',  ( -1.000000000000000000, -0.000000000000000000, -0.000000000000000000 ) ) ;
#551 = EDGE_LOOP ( 'NONE', ( #4, #289 ) ) ;
#552 = CARTESIAN_POINT ( 'NONE',  ( -2.099999999999999645, 0.2499999999999976130, 7.250000000000143885 ) ) ;
#553 = EDGE_CURVE ( 'NONE', #77, #836, #799, .T. ) ;
#554 = DIRECTION ( 'NONE',  ( 0.000000000000000000, 0.000000000000000000, 1.000000000000000000 ) ) ;
#555 = ORIENTED_EDGE ( 'NONE', *, *, #287, .F. ) ;
#556 = DIRECTION ( 'NONE',  ( 0.000000000000000000, -5.201438579939643610E-13, 1.000000000000000000 ) ) ;
#557 = VECTOR ( 'NONE', #628, 39.37007874015748143 ) ;
#558 = LINE ( 'NONE', #714, #674 ) ;
#559 = ADVANCED_FACE ( 'NONE', ( #419 ), #724, .F. ) ;
#560 = DIRECTION ( 'NONE',  ( 1.000000000000000000, -0.000000000000000000, -0.000000000000000000 ) ) ;
#561 = ORIENTED_EDGE ( 'NONE', *, *, #211, .F. ) ;
#562 = CARTESIAN_POINT ( 'NONE',  ( -2.099999999999998312, -0.1249999999998819833, 1.625000000000144995 ) ) ;
#563 = MECHANICAL_CONTEXT ( 'NONE', #693, 'mechanical' ) ;
#564 = DIRECTION ( 'NONE',  ( -1.000000000000000000, -0.000000000000000000, -0.000000000000000000 ) ) ;
#565 = ORIENTED_EDGE ( 'NONE', *, *, #659, .T. ) ;
#566 = CARTESIAN_POINT ( 'NONE',  ( 0.1000000000000000056, -0.1249999999998819833, 1.625000000000144995 ) ) ;
#567 = LINE ( 'NONE', #413, #822 ) ;
#568 = DIRECTION ( 'NONE',  ( 0.000000000000000000, -1.000000000000000000, -8.304817900740310288E-14 ) ) ;
#569 = EDGE_LOOP ( 'NONE', ( #34, #910 ) ) ;
#570 = DIRECTION ( 'NONE',  ( -1.000000000000000000, -0.000000000000000000, -0.000000000000000000 ) ) ;
#571 = EDGE_CURVE ( 'NONE', #27, #773, #424, .T. ) ;
#572 = VECTOR ( 'NONE', #416, 39.37007874015748143 ) ;
#573 = AXIS2_PLACEMENT_3D ( 'NONE', #843, #798, #37 ) ;
#574 = CARTESIAN_POINT ( 'NONE',  ( -2.099999999999998312, -0.1249999999998819833, 1.625000000000144995 ) ) ;
#575 = DIRECTION ( 'NONE',  ( 0.000000000000000000, 0.000000000000000000, -1.000000000000000000 ) ) ;
#576 = LINE ( 'NONE', #187, #418 ) ;
#577 = ORIENTED_EDGE ( 'NONE', *, *, #771, .F. ) ;
#578 = FACE_BOUND ( 'NONE', #619, .T. ) ;
#579 = CARTESIAN_POINT ( 'NONE',  ( -1.999999999999998446, -0.2499999999999834022, 1.249999999999985789 ) ) ;
#580 = PLANE ( 'NONE',  #185 ) ;
#581 = ORIENTED_EDGE ( 'NONE', *, *, #381, .F. ) ;
#582 = DIRECTION ( 'NONE',  ( 0.000000000000000000, 5.201438579939643610E-13, -1.000000000000000000 ) ) ;
#583 = CARTESIAN_POINT ( 'NONE',  ( -1.999999999999998446, 1.180158333262961679E-13, 7.000000000000010658 ) ) ;
#584 = EDGE_CURVE ( 'NONE', #864, #750, #87, .T. ) ;
#585 = CALENDAR_DATE ( 2026, 20, 3 ) ;
#586 = LINE ( 'NONE', #216, #945 ) ;
#587 = ORIENTED_EDGE ( 'NONE', *, *, #763, .F. ) ;
#588 = PERSON_AND_ORGANIZATION_ROLE ( 'creator' ) ;
#589 = AXIS2_PLACEMENT_3D ( 'NONE', #562, #809, #872 ) ;
#590 = AXIS2_PLACEMENT_3D ( 'NONE', #300, #290, #672 ) ;
#591 = CARTESIAN_POINT ( 'NONE',  ( 0.000000000000000000, 0.2499999999999948097, 7.250000000000143885 ) ) ;
#592 = ORIENTED_EDGE ( 'NONE', *, *, #265, .T. ) ;
#593 = CC_DESIGN_PERSON_AND_ORGANIZATION_ASSIGNMENT ( #133, #513, ( #81 ) ) ;
#594 = DIRECTION ( 'NONE',  ( 1.000000000000000000, -0.000000000000000000, -0.000000000000000000 ) ) ;
#595 = EDGE_LOOP ( 'NONE', ( #949, #352, #385, #833, #336, #565, #347, #145 ) ) ;
#596 = EDGE_CURVE ( 'NONE', #174, #682, #928, .T. ) ;
#597 = EDGE_LOOP ( 'NONE', ( #561, #528, #453, #818 ) ) ;
#598 = CALENDAR_DATE ( 2026, 20, 3 ) ;
#599 = DIRECTION ( 'NONE',  ( 0.000000000000000000, -1.000000000000000000, -8.304817900740310288E-14 ) ) ;
#600 = ORIENTED_EDGE ( 'NONE', *, *, #755, .T. ) ;
#601 = VERTEX_POINT ( 'NONE', #813 ) ;
#602 = DIRECTION ( 'NONE',  ( 0.000000000000000000, 0.000000000000000000, -1.000000000000000000 ) ) ;
#603 = ADVANCED_FACE ( 'NONE', ( #793 ), #253, .F. ) ;
#604 = AXIS2_PLACEMENT_3D ( 'NONE', #713, #802, #889 ) ;
#605 = DIRECTION ( 'NONE',  ( -1.000000000000000000, -0.000000000000000000, -0.000000000000000000 ) ) ;
#606 = VECTOR ( 'NONE', #207, 39.37007874015748143 ) ;
#607 = LOCAL_TIME ( 16, 20, 52.00000000000000000, #445 ) ;
#608 = ORIENTED_EDGE ( 'NONE', *, *, #954, .T. ) ;
#609 = CARTESIAN_POINT ( 'NONE',  ( -2.099999999999998312, -0.2499999999999834022, 6.999999999999985789 ) ) ;
#610 = FACE_OUTER_BOUND ( 'NONE', #149, .T. ) ;
#611 = ORIENTED_EDGE ( 'NONE', *, *, #613, .T. ) ;
#612 = DIRECTION ( 'NONE',  ( 0.000000000000000000, 0.000000000000000000, 1.000000000000000000 ) ) ;
#613 = EDGE_CURVE ( 'NONE', #907, #921, #357, .T. ) ;
#614 = DIRECTION ( 'NONE',  ( 0.000000000000000000, 0.000000000000000000, 1.000000000000000000 ) ) ;
#615 = EDGE_CURVE ( 'NONE', #764, #327, #243, .T. ) ;
#616 = LINE ( 'NONE', #398, #24 ) ;
#617 = VERTEX_POINT ( 'NONE', #967 ) ;
#618 = DIRECTION ( 'NONE',  ( 0.000000000000000000, 0.000000000000000000, -1.000000000000000000 ) ) ;
#619 = EDGE_LOOP ( 'NONE', ( #2, #911 ) ) ;
#620 = DIRECTION ( 'NONE',  ( 1.000000000000000000, -0.000000000000000000, -0.000000000000000000 ) ) ;
#621 = AXIS2_PLACEMENT_3D ( 'NONE', #566, #131, #270 ) ;
#622 = ORIENTED_EDGE ( 'NONE', *, *, #545, .T. ) ;
#623 = VECTOR ( 'NONE', #749, 39.37007874015748143 ) ;
#624 = LINE ( 'NONE', #248, #481 ) ;
#625 = DIRECTION ( 'NONE',  ( 1.000000000000000000, 0.000000000000000000, 0.000000000000000000 ) ) ;
#626 = EDGE_LOOP ( 'NONE', ( #958, #390, #893, #506 ) ) ;
#627 = CARTESIAN_POINT ( 'NONE',  ( -2.099999999999998312, 1.180158333262961679E-13, 7.250000000000143885 ) ) ;
#628 = DIRECTION ( 'NONE',  ( 0.000000000000000000, 0.000000000000000000, 1.000000000000000000 ) ) ;
#629 = EDGE_LOOP ( 'NONE', ( #225, #479, #546, #150 ) ) ;
#630 = CARTESIAN_POINT ( 'NONE',  ( 0.000000000000000000, 0.2499999999999948097, 1.000000000000145217 ) ) ;
#631 = DIRECTION ( 'NONE',  ( 0.000000000000000000, 0.000000000000000000, 1.000000000000000000 ) ) ;
#632 = CARTESIAN_POINT ( 'NONE',  ( -2.099999999999998312, 1.180158333262961679E-13, 1.000000000000145217 ) ) ;
#633 = VERTEX_POINT ( 'NONE', #450 ) ;
#634 = CARTESIAN_POINT ( 'NONE',  ( 0.1000000000000000056, 0.2499999999999948097, 1.000000000000145439 ) ) ;
#635 = CIRCLE ( 'NONE', #959, 0.05899999999984220644 ) ;
#636 = VECTOR ( 'NONE', #656, 39.37007874015748143 ) ;
#637 = LOCAL_TIME ( 16, 20, 52.00000000000000000, #74 ) ;
#638 = DIRECTION ( 'NONE',  ( 0.000000000000000000, -1.000000000000000000, -5.463695987331219411E-16 ) ) ;
#639 = DIRECTION ( 'NONE',  ( -1.000000000000000000, -0.000000000000000000, -0.000000000000000000 ) ) ;
#640 = EDGE_LOOP ( 'NONE', ( #471, #462, #500, #924 ) ) ;
#641 = CARTESIAN_POINT ( 'NONE',  ( 0.000000000000000000, 1.180158333262961679E-13, 1.000000000000145217 ) ) ;
#642 = CARTESIAN_POINT ( 'NONE',  ( 0.000000000000000000, 0.2499999999999943934, 7.250000000000143885 ) ) ;
#643 = ADVANCED_FACE ( 'NONE', ( #70 ), #580, .F. ) ;
#644 = CARTESIAN_POINT ( 'NONE',  ( 0.000000000000000000, -0.2499999999999834022, 6.999999999999985789 ) ) ;
#645 = ORIENTED_EDGE ( 'NONE', *, *, #954, .F. ) ;
#646 = EDGE_CURVE ( 'NONE', #237, #696, #756, .T. ) ;
#647 = DIRECTION ( 'NONE',  ( 0.000000000000000000, -5.201438579939643610E-13, 1.000000000000000000 ) ) ;
#648 = DIRECTION ( 'NONE',  ( -0.000000000000000000, 1.000000000000000000, 5.463695987331219411E-16 ) ) ;
#649 = LINE ( 'NONE', #722, #482 ) ;
#650 = DIRECTION ( 'NONE',  ( 0.000000000000000000, 0.000000000000000000, 1.000000000000000000 ) ) ;
#651 = ORIENTED_EDGE ( 'NONE', *, *, #491, .T. ) ;
#652 = FACE_BOUND ( 'NONE', #111, .T. ) ;
#653 = AXIS2_PLACEMENT_3D ( 'NONE', #505, #190, #488 ) ;
#654 = FACE_OUTER_BOUND ( 'NONE', #31, .T. ) ;
#655 = SECURITY_CLASSIFICATION ( '', '', #748 ) ;
#656 = DIRECTION ( 'NONE',  ( -0.000000000000000000, -1.000000000000000000, -1.005320061668564070E-13 ) ) ;
#657 = VERTEX_POINT ( 'NONE', #971 ) ;
#658 = CARTESIAN_POINT ( 'NONE',  ( 0.1000000000000000056, -1.202013117212275737E-14, 1.250000000000006661 ) ) ;
#659 = EDGE_CURVE ( 'NONE', #392, #859, #295, .T. ) ;
#660 = PLANE ( 'NONE',  #306 ) ;
#661 = APPROVAL_DATE_TIME ( #299, #14 ) ;
#662 = DIRECTION ( 'NONE',  ( 0.000000000000000000, 1.000000000000000000, 0.000000000000000000 ) ) ;
#663 = ORIENTED_EDGE ( 'NONE', *, *, #525, .T. ) ;
#664 = LINE ( 'NONE', #127, #847 ) ;
#665 = APPROVAL_ROLE ( '' ) ;
#666 = EDGE_CURVE ( 'NONE', #155, #696, #892, .T. ) ;
#667 = DIRECTION ( 'NONE',  ( 0.000000000000000000, -1.000000000000000000, 0.000000000000000000 ) ) ;
#668 = ORIENTED_EDGE ( 'NONE', *, *, #947, .F. ) ;
#669 = AXIS2_PLACEMENT_3D ( 'NONE', #507, #35, #285 ) ;
#670 = AXIS2_PLACEMENT_3D ( 'NONE', #60, #838, #138 ) ;
#671 = VECTOR ( 'NONE', #76, 39.37007874015748143 ) ;
#672 = DIRECTION ( 'NONE',  ( 0.000000000000000000, 0.000000000000000000, -1.000000000000000000 ) ) ;
#673 = EDGE_LOOP ( 'NONE', ( #934, #814, #853, #269, #410 ) ) ;
#674 = VECTOR ( 'NONE', #638, 39.37007874015748143 ) ;
#675 = ORIENTED_EDGE ( 'NONE', *, *, #743, .F. ) ;
#676 = CALENDAR_DATE ( 2026, 20, 3 ) ;
#677 = CARTESIAN_POINT ( 'NONE',  ( 0.1000000000000000056, -0.2499999999999834022, 6.999999999999985789 ) ) ;
#678 = ORIENTED_EDGE ( 'NONE', *, *, #93, .F. ) ;
#679 = ORIENTED_EDGE ( 'NONE', *, *, #162, .T. ) ;
#680 = EDGE_CURVE ( 'NONE', #155, #188, #902, .T. ) ;
#681 = FACE_OUTER_BOUND ( 'NONE', #425, .T. ) ;
#682 = VERTEX_POINT ( 'NONE', #436 ) ;
#683 = DIRECTION ( 'NONE',  ( -0.000000000000000000, 1.000000000000000000, 0.000000000000000000 ) ) ;
#684 = CIRCLE ( 'NONE', #621, 0.05899999999984193583 ) ;
#685 = CARTESIAN_POINT ( 'NONE',  ( 0.1000000000000000056, -0.2499999999999834022, 6.999999999999985789 ) ) ;
#686 = AXIS2_PLACEMENT_3D ( 'NONE', #110, #154, #982 ) ;
#687 = LINE ( 'NONE', #474, #719 ) ;
#688 = ORIENTED_EDGE ( 'NONE', *, *, #691, .F. ) ;
#689 = PLANE ( 'NONE',  #766 ) ;
#690 = EDGE_CURVE ( 'NONE', #229, #516, #522, .T. ) ;
#691 = EDGE_CURVE ( 'NONE', #459, #880, #358, .T. ) ;
#692 = DIRECTION ( 'NONE',  ( 0.000000000000000000, 0.000000000000000000, -1.000000000000000000 ) ) ;
#693 = APPLICATION_CONTEXT ( 'configuration controlled 3d designs of mechanical parts and assemblies' ) ;
#694 = ORIENTED_EDGE ( 'NONE', *, *, #371, .F. ) ;
#695 = CARTESIAN_POINT ( 'NONE',  ( 0.1000000000000000056, 1.180158333262961679E-13, 7.250000000000143885 ) ) ;
#696 = VERTEX_POINT ( 'NONE', #741 ) ;
#697 = FACE_OUTER_BOUND ( 'NONE', #365, .T. ) ;
#698 = ORIENTED_EDGE ( 'NONE', *, *, #701, .T. ) ;
#699 = DIRECTION ( 'NONE',  ( -1.000000000000000000, -0.000000000000000000, -0.000000000000000000 ) ) ;
#700 = CARTESIAN_POINT ( 'NONE',  ( 0.1000000000000000056, -0.1249999999998819833, 1.683999999999987063 ) ) ;
#701 = EDGE_CURVE ( 'NONE', #475, #27, #515, .T. ) ;
#702 = AXIS2_PLACEMENT_3D ( 'NONE', #574, #303, #508 ) ;
#703 = ORIENTED_EDGE ( 'NONE', *, *, #329, .F. ) ;
#704 = VECTOR ( 'NONE', #835, 39.37007874015748143 ) ;
#705 = ORGANIZATION ( 'UNSPECIFIED', 'UNSPECIFIED', '' ) ;
#706 = DIRECTION ( 'NONE',  ( 0.000000000000000000, 5.201438579933988045E-13, 1.000000000000000000 ) ) ;
#707 = ORIENTED_EDGE ( 'NONE', *, *, #735, .T. ) ;
#708 = DIRECTION ( 'NONE',  ( 0.000000000000000000, 0.000000000000000000, 1.000000000000000000 ) ) ;
#709 = EDGE_CURVE ( 'NONE', #394, #800, #25, .T. ) ;
#710 =( LENGTH_UNIT ( ) NAMED_UNIT ( * ) SI_UNIT ( $, .METRE. ) );
#711 = CARTESIAN_POINT ( 'NONE',  ( 0.1000000000000000056, -0.2499999999999834022, 6.999999999999985789 ) ) ;
#712 = ORIENTED_EDGE ( 'NONE', *, *, #262, .T. ) ;
#713 = CARTESIAN_POINT ( 'NONE',  ( 0.1000000000000000056, 1.180158333262961679E-13, 7.250000000000143885 ) ) ;
#714 = CARTESIAN_POINT ( 'NONE',  ( -2.099999999999998312, 0.2499999999999948097, 1.000000000000145439 ) ) ;
#715 = DIRECTION ( 'NONE',  ( 0.000000000000000000, -8.304817900740310288E-14, 1.000000000000000000 ) ) ;
#716 = ORIENTED_EDGE ( 'NONE', *, *, #811, .F. ) ;
#717 = DIRECTION ( 'NONE',  ( 1.000000000000000000, -0.000000000000000000, -0.000000000000000000 ) ) ;
#718 = AXIS2_PLACEMENT_3D ( 'NONE', #255, #28, #612 ) ;
#719 = VECTOR ( 'NONE', #478, 39.37007874015748143 ) ;
#720 = ADVANCED_FACE ( 'NONE', ( #288, #831, #906 ), #148, .F. ) ;
#721 =( GEOMETRIC_REPRESENTATION_CONTEXT ( 3 ) GLOBAL_UNCERTAINTY_ASSIGNED_CONTEXT ( ( #160 ) ) GLOBAL_UNIT_ASSIGNED_CONTEXT ( ( #350, #403, #330 ) ) REPRESENTATION_CONTEXT ( 'NONE', 'WORKASPACE' ) );
#722 = CARTESIAN_POINT ( 'NONE',  ( 0.000000000000000000, -1.202013117212275737E-14, 1.250000000000006661 ) ) ;
#723 = EDGE_CURVE ( 'NONE', #617, #141, #386, .T. ) ;
#724 = PLANE ( 'NONE',  #543 ) ;
#725 = ORIENTED_EDGE ( 'NONE', *, *, #964, .F. ) ;
#726 = CARTESIAN_POINT ( 'NONE',  ( 0.000000000000000000, -0.1249999999998819833, 1.625000000000144995 ) ) ;
#727 = PLANE ( 'NONE',  #184 ) ;
#728 = CARTESIAN_POINT ( 'NONE',  ( -1.999999999999998446, -0.2499999999999834022, 1.249999999999985789 ) ) ;
#729 = VERTEX_POINT ( 'NONE', #441 ) ;
#730 = CARTESIAN_POINT ( 'NONE',  ( -1.999999999999998446, 0.000000000000000000, 0.000000000000000000 ) ) ;
#731 = LINE ( 'NONE', #965, #434 ) ;
#732 = PERSON_AND_ORGANIZATION_ROLE ( 'classification_officer' ) ;
#733 = CARTESIAN_POINT ( 'NONE',  ( -1.999999999999998446, -0.2499999999999834022, 6.999999999999985789 ) ) ;
#734 = ORIENTED_EDGE ( 'NONE', *, *, #932, .T. ) ;
#735 = EDGE_CURVE ( 'NONE', #297, #764, #527, .T. ) ;
#736 = DIRECTION ( 'NONE',  ( -1.000000000000000000, -0.000000000000000000, 0.000000000000000000 ) ) ;
#737 = AXIS2_PLACEMENT_3D ( 'NONE', #761, #457, #602 ) ;
#738 = VECTOR ( 'NONE', #662, 39.37007874015748143 ) ;
#739 = PLANE ( 'NONE',  #670 ) ;
#740 = VECTOR ( 'NONE', #121, 39.37007874015748143 ) ;
#741 = CARTESIAN_POINT ( 'NONE',  ( 0.000000000000000000, 0.000000000000000000, 7.250000000000143885 ) ) ;
#742 = EDGE_LOOP ( 'NONE', ( #794, #244, #22, #321 ) ) ;
#743 = EDGE_CURVE ( 'NONE', #456, #237, #817, .T. ) ;
#744 = CARTESIAN_POINT ( 'NONE',  ( 0.1000000000000000056, 0.2499999999999943934, 7.250000000000143885 ) ) ;
#745 = DATE_TIME_ROLE ( 'classification_date' ) ;
#746 = DIRECTION ( 'NONE',  ( 0.000000000000000000, 0.000000000000000000, 1.000000000000000000 ) ) ;
#747 = EDGE_LOOP ( 'NONE', ( #903, #124, #972, #703 ) ) ;
#748 = SECURITY_CLASSIFICATION_LEVEL ( 'unclassified' ) ;
#749 = DIRECTION ( 'NONE',  ( 0.000000000000000000, 0.000000000000000000, -1.000000000000000000 ) ) ;
#750 = VERTEX_POINT ( 'NONE', #824 ) ;
#751 = VECTOR ( 'NONE', #582, 39.37007874015748143 ) ;
#752 = APPROVAL_ROLE ( '' ) ;
#753 = VECTOR ( 'NONE', #550, 39.37007874015748143 ) ;
#754 = LOCAL_TIME ( 16, 20, 52.00000000000000000, #975 ) ;
#755 = EDGE_CURVE ( 'NONE', #633, #837, #586, .T. ) ;
#756 = LINE ( 'NONE', #591, #961 ) ;
#757 = ORIENTED_EDGE ( 'NONE', *, *, #553, .T. ) ;
#758 = ORIENTED_EDGE ( 'NONE', *, *, #763, .T. ) ;
#759 = FACE_BOUND ( 'NONE', #569, .T. ) ;
#760 = EDGE_LOOP ( 'NONE', ( #678, #250 ) ) ;
#761 = CARTESIAN_POINT ( 'NONE',  ( -2.099999999999998312, -0.1249999999998809425, 6.625000000000143885 ) ) ;
#762 = CARTESIAN_POINT ( 'NONE',  ( 0.1000000000000000056, -0.2499999999999834022, 1.249999999999985789 ) ) ;
#763 = EDGE_CURVE ( 'NONE', #188, #456, #899, .T. ) ;
#764 = VERTEX_POINT ( 'NONE', #169 ) ;
#765 = CARTESIAN_POINT ( 'NONE',  ( -2.099999999999998312, -1.202013117212275737E-14, 1.250000000000006661 ) ) ;
#766 = AXIS2_PLACEMENT_3D ( 'NONE', #695, #17, #931 ) ;
#767 = PLANE ( 'NONE',  #498 ) ;
#768 = CIRCLE ( 'NONE', #101, 0.05900000000007605411 ) ;
#769 = VERTEX_POINT ( 'NONE', #5 ) ;
#770 = CARTESIAN_POINT ( 'NONE',  ( 0.000000000000000000, -0.1249999999998819833, 1.566000000000303150 ) ) ;
#771 = EDGE_CURVE ( 'NONE', #224, #103, #774, .T. ) ;
#772 = PERSON ( 'UNSPECIFIED', 'UNSPECIFIED', 'UNSPECIFIED', ('UNSPECIFIED'), ('UNSPECIFIED'), ('UNSPECIFIED') ) ;
#773 = VERTEX_POINT ( 'NONE', #94 ) ;
#774 = LINE ( 'NONE', #180, #865 ) ;
#775 = ORIENTED_EDGE ( 'NONE', *, *, #839, .T. ) ;
#776 = CYLINDRICAL_SURFACE ( 'NONE', #114, 0.05899999999984193583 ) ;
#777 = EDGE_CURVE ( 'NONE', #907, #141, #157, .T. ) ;
#778 = DIRECTION ( 'NONE',  ( 0.000000000000000000, 1.000000000000000000, 1.005320061668564070E-13 ) ) ;
#779 = PRODUCT_DEFINITION_SHAPE ( 'NONE', 'NONE',  #81 ) ;
#780 = ORIENTED_EDGE ( 'NONE', *, *, #680, .T. ) ;
#781 = CARTESIAN_POINT ( 'NONE',  ( -2.099999999999998312, -1.202013117212275737E-14, 7.000000000000010658 ) ) ;
#782 = CARTESIAN_POINT ( 'NONE',  ( -2.099999999999998312, -0.2499999999999834022, 1.249999999999985789 ) ) ;
#783 = EDGE_CURVE ( 'NONE', #459, #516, #461, .T. ) ;
#784 = VECTOR ( 'NONE', #860, 39.37007874015748143 ) ;
#785 = ORIENTED_EDGE ( 'NONE', *, *, #388, .T. ) ;
#786 = AXIS2_PLACEMENT_3D ( 'NONE', #331, #346, #568 ) ;
#787 = VECTOR ( 'NONE', #477, 39.37007874015748143 ) ;
#788 = DIRECTION ( 'NONE',  ( 1.000000000000000000, -0.000000000000000000, -0.000000000000000000 ) ) ;
#789 = CARTESIAN_POINT ( 'NONE',  ( 0.1000000000000000056, 0.2499999999999948097, 7.250000000000143885 ) ) ;
#790 = EDGE_LOOP ( 'NONE', ( #16, #217, #68, #707 ) ) ;
#791 = CARTESIAN_POINT ( 'NONE',  ( 0.000000000000000000, -0.1249999999998809425, 6.683999999999985953 ) ) ;
#792 = CARTESIAN_POINT ( 'NONE',  ( -2.099999999999998312, -0.1249999999998809425, 6.684000000000219543 ) ) ;
#793 = FACE_OUTER_BOUND ( 'NONE', #673, .T. ) ;
#794 = ORIENTED_EDGE ( 'NONE', *, *, #940, .T. ) ;
#795 = ADVANCED_FACE ( 'NONE', ( #161, #697, #239 ), #20, .T. ) ;
#796 = DIRECTION ( 'NONE',  ( -0.000000000000000000, -0.000000000000000000, -1.000000000000000000 ) ) ;
#797 = EDGE_CURVE ( 'NONE', #213, #234, #167, .T. ) ;
#798 = DIRECTION ( 'NONE',  ( 0.000000000000000000, 1.005320061668564070E-13, -1.000000000000000000 ) ) ;
#799 = LINE ( 'NONE', #632, #137 ) ;
#800 = VERTEX_POINT ( 'NONE', #532 ) ;
#801 = CIRCLE ( 'NONE', #57, 0.05900000000007605411 ) ;
#802 = DIRECTION ( 'NONE',  ( 0.000000000000000000, 1.000000000000000000, -5.201438579933988045E-13 ) ) ;
#803 = VECTOR ( 'NONE', #88, 39.37007874015748143 ) ;
#804 = VECTOR ( 'NONE', #620, 39.37007874015748143 ) ;
#805 = CC_DESIGN_PERSON_AND_ORGANIZATION_ASSIGNMENT ( #519, #588, ( #310 ) ) ;
#806 = DIRECTION ( 'NONE',  ( -0.000000000000000000, -1.000000000000000000, -0.000000000000000000 ) ) ;
#807 = CARTESIAN_POINT ( 'NONE',  ( 0.1000000000000000056, 0.2499999999999948097, 1.000000000000145439 ) ) ;
#808 = ORIENTED_EDGE ( 'NONE', *, *, #571, .F. ) ;
#809 = DIRECTION ( 'NONE',  ( 1.000000000000000000, -0.000000000000000000, -0.000000000000000000 ) ) ;
#810 = CARTESIAN_POINT ( 'NONE',  ( -2.099999999999998312, -0.1249999999998809425, 6.566000000000067338 ) ) ;
#811 = EDGE_CURVE ( 'NONE', #729, #633, #201, .T. ) ;
#812 = PERSON_AND_ORGANIZATION_ROLE ( 'design_owner' ) ;
#813 = CARTESIAN_POINT ( 'NONE',  ( -2.099999999999998312, -1.202013117212275737E-14, 7.000000000000010658 ) ) ;
#814 = ORIENTED_EDGE ( 'NONE', *, *, #553, .F. ) ;
#815 = FACE_OUTER_BOUND ( 'NONE', #468, .T. ) ;
#816 = CYLINDRICAL_SURFACE ( 'NONE', #273, 0.05900000000007605411 ) ;
#817 = LINE ( 'NONE', #896, #704 ) ;
#818 = ORIENTED_EDGE ( 'NONE', *, *, #797, .F. ) ;
#819 = VECTOR ( 'NONE', #570, 39.37007874015748143 ) ;
#820 = VECTOR ( 'NONE', #594, 39.37007874015748143 ) ;
#821 = CARTESIAN_POINT ( 'NONE',  ( 0.000000000000000000, 0.2499999999999943934, 7.250000000000143885 ) ) ;
#822 = VECTOR ( 'NONE', #575, 39.37007874015748143 ) ;
#823 = PERSON_AND_ORGANIZATION ( #772, #705 ) ;
#824 = CARTESIAN_POINT ( 'NONE',  ( 0.1000000000000000056, -0.1249999999998819833, 1.683999999999987063 ) ) ;
#825 = ORIENTED_EDGE ( 'NONE', *, *, #974, .T. ) ;
#826 = PERSON_AND_ORGANIZATION ( #772, #705 ) ;
#827 = CARTESIAN_POINT ( 'NONE',  ( -1.999999999999998446, -0.1249999999998809425, 6.625000000000143885 ) ) ;
#828 = ORIENTED_EDGE ( 'NONE', *, *, #484, .T. ) ;
#829 = EDGE_CURVE ( 'NONE', #77, #240, #933, .T. ) ;
#830 = ADVANCED_FACE ( 'NONE', ( #681 ), #539, .F. ) ;
#831 = FACE_BOUND ( 'NONE', #551, .T. ) ;
#832 = EDGE_LOOP ( 'NONE', ( #897, #296, #675, #587, #968 ) ) ;
#833 = ORIENTED_EDGE ( 'NONE', *, *, #146, .T. ) ;
#834 = AXIS2_PLACEMENT_3D ( 'NONE', #957, #715, #863 ) ;
#835 = DIRECTION ( 'NONE',  ( -1.000000000000000000, 0.000000000000000000, 0.000000000000000000 ) ) ;
#836 = VERTEX_POINT ( 'NONE', #858 ) ;
#837 = VERTEX_POINT ( 'NONE', #249 ) ;
#838 = DIRECTION ( 'NONE',  ( 0.000000000000000000, 1.000000000000000000, -0.000000000000000000 ) ) ;
#839 = EDGE_CURVE ( 'NONE', #859, #229, #848, .T. ) ;
#840 = FACE_OUTER_BOUND ( 'NONE', #595, .T. ) ;
#841 = ORIENTED_EDGE ( 'NONE', *, *, #829, .T. ) ;
#842 = CARTESIAN_POINT ( 'NONE',  ( -2.099999999999998312, 1.180158333262961679E-13, 1.000000000000145217 ) ) ;
#843 = CARTESIAN_POINT ( 'NONE',  ( -2.099999999999998312, -0.2499999999999834022, 6.999999999999985789 ) ) ;
#844 = ORIENTED_EDGE ( 'NONE', *, *, #540, .T. ) ;
#845 = ADVANCED_FACE ( 'NONE', ( #759, #840, #920 ), #767, .T. ) ;
#846 = DIRECTION ( 'NONE',  ( 0.000000000000000000, 0.000000000000000000, 1.000000000000000000 ) ) ;
#847 = VECTOR ( 'NONE', #232, 39.37007874015748143 ) ;
#848 = LINE ( 'NONE', #396, #803 ) ;
#849 = VECTOR ( 'NONE', #929, 39.37007874015748143 ) ;
#850 = CARTESIAN_POINT ( 'NONE',  ( -1.999999999999998446, -0.1249999999998819833, 1.625000000000144995 ) ) ;
#851 = ORIENTED_EDGE ( 'NONE', *, *, #723, .T. ) ;
#852 = LINE ( 'NONE', #867, #526 ) ;
#853 = ORIENTED_EDGE ( 'NONE', *, *, #974, .F. ) ;
#854 = CARTESIAN_POINT ( 'NONE',  ( 0.1000000000000000056, 0.000000000000000000, 0.000000000000000000 ) ) ;
#855 = EDGE_LOOP ( 'NONE', ( #698, #668, #276, #301 ) ) ;
#856 = CARTESIAN_POINT ( 'NONE',  ( 0.1000000000000000056, -0.1249999999998819833, 1.566000000000303150 ) ) ;
#857 = CC_DESIGN_PERSON_AND_ORGANIZATION_ASSIGNMENT ( #334, #812, ( #170 ) ) ;
#858 = CARTESIAN_POINT ( 'NONE',  ( 0.000000000000000000, 1.920390928534416603E-17, 1.000000000000145217 ) ) ;
#859 = VERTEX_POINT ( 'NONE', #473 ) ;
#860 = DIRECTION ( 'NONE',  ( -1.000000000000000000, -0.000000000000000000, -0.000000000000000000 ) ) ;
#861 = DIRECTION ( 'NONE',  ( 0.000000000000000000, 0.000000000000000000, 1.000000000000000000 ) ) ;
#862 = VECTOR ( 'NONE', #918, 39.37007874015748143 ) ;
#863 = DIRECTION ( 'NONE',  ( 0.000000000000000000, -1.000000000000000000, -8.304817900740310288E-14 ) ) ;
#864 = VERTEX_POINT ( 'NONE', #79 ) ;
#865 = VECTOR ( 'NONE', #614, 39.37007874015748143 ) ;
#866 = APPROVAL_PERSON_ORGANIZATION ( #128, #153, #752 ) ;
#867 = CARTESIAN_POINT ( 'NONE',  ( 0.1000000000000000056, 0.2499999999999943934, 7.250000000000143885 ) ) ;
#868 = EDGE_CURVE ( 'NONE', #750, #234, #97, .T. ) ;
#869 = DIRECTION ( 'NONE',  ( 1.000000000000000000, 0.000000000000000000, 0.000000000000000000 ) ) ;
#870 = EDGE_LOOP ( 'NONE', ( #404, #888, #600, #415 ) ) ;
#871 = EDGE_CURVE ( 'NONE', #80, #420, #380, .T. ) ;
#872 = DIRECTION ( 'NONE',  ( 0.000000000000000000, 0.000000000000000000, -1.000000000000000000 ) ) ;
#873 = DIRECTION ( 'NONE',  ( -1.000000000000000000, 0.000000000000000000, 0.000000000000000000 ) ) ;
#874 = PLANE ( 'NONE',  #834 ) ;
#875 = EDGE_LOOP ( 'NONE', ( #953, #716 ) ) ;
#876 = CARTESIAN_POINT ( 'NONE',  ( -2.099999999999999645, 0.2499999999999976130, 1.000000000000145217 ) ) ;
#877 = PRODUCT_RELATED_PRODUCT_CATEGORY ( 'detail', '', ( #170 ) ) ;
#878 = CARTESIAN_POINT ( 'NONE',  ( -2.099999999999998312, -0.1249999999998809425, 6.566000000000067338 ) ) ;
#879 = CARTESIAN_POINT ( 'NONE',  ( 0.1000000000000000056, -1.202013117212275737E-14, 1.250000000000006661 ) ) ;
#880 = VERTEX_POINT ( 'NONE', #762 ) ;
#881 = VECTOR ( 'NONE', #261, 39.37007874015748143 ) ;
#882 = FACE_OUTER_BOUND ( 'NONE', #541, .T. ) ;
#883 = VECTOR ( 'NONE', #311, 39.37007874015748143 ) ;
#884 = EDGE_CURVE ( 'NONE', #859, #459, #384, .T. ) ;
#885 = DIRECTION ( 'NONE',  ( 0.000000000000000000, -0.000000000000000000, 1.000000000000000000 ) ) ;
#886 = CYLINDRICAL_SURFACE ( 'NONE', #465, 0.05899999999984193583 ) ;
#887 = LINE ( 'NONE', #409, #980 ) ;
#888 = ORIENTED_EDGE ( 'NONE', *, *, #811, .T. ) ;
#889 = DIRECTION ( 'NONE',  ( 0.000000000000000000, 5.201438579933988045E-13, 1.000000000000000000 ) ) ;
#890 = CARTESIAN_POINT ( 'NONE',  ( 0.1000000000000000056, 1.180158333262961679E-13, 1.000000000000145217 ) ) ;
#891 = CALENDAR_DATE ( 2026, 20, 3 ) ;
#892 = LINE ( 'NONE', #909, #820 ) ;
#893 = ORIENTED_EDGE ( 'NONE', *, *, #369, .F. ) ;
#894 = PLANE ( 'NONE',  #166 ) ;
#895 = APPLICATION_PROTOCOL_DEFINITION ( 'international standard', 'config_control_design', 1994, #470 ) ;
#896 = CARTESIAN_POINT ( 'NONE',  ( 0.1000000000000000056, 0.2499999999999948097, 7.250000000000143885 ) ) ;
#897 = ORIENTED_EDGE ( 'NONE', *, *, #666, .T. ) ;
#898 = VECTOR ( 'NONE', #427, 39.37007874015748143 ) ;
#899 = CIRCLE ( 'NONE', #307, 3.499999999999980904 ) ;
#900 = CC_DESIGN_APPROVAL ( #496, ( #310 ) ) ;
#901 = APPROVAL_STATUS ( 'not_yet_approved' ) ;
#902 = LINE ( 'NONE', #455, #738 ) ;
#903 = ORIENTED_EDGE ( 'NONE', *, *, #122, .F. ) ;
#904 = ADVANCED_FACE ( 'NONE', ( #610 ), #236, .F. ) ;
#905 = EDGE_CURVE ( 'NONE', #657, #769, #649, .T. ) ;
#906 = FACE_BOUND ( 'NONE', #51, .T. ) ;
#907 = VERTEX_POINT ( 'NONE', #792 ) ;
#908 = ORIENTED_EDGE ( 'NONE', *, *, #709, .F. ) ;
#909 = CARTESIAN_POINT ( 'NONE',  ( -2.099999999999998312, 1.180158333262961679E-13, 7.250000000000143885 ) ) ;
#910 = ORIENTED_EDGE ( 'NONE', *, *, #584, .F. ) ;
#911 = ORIENTED_EDGE ( 'NONE', *, *, #444, .T. ) ;
#912 = CARTESIAN_POINT ( 'NONE',  ( 0.000000000000000000, 0.2499999999999948097, 1.000000000000145439 ) ) ;
#913 = EDGE_CURVE ( 'NONE', #921, #907, #152, .T. ) ;
#914 = VECTOR ( 'NONE', #322, 39.37007874015748143 ) ;
#915 = VECTOR ( 'NONE', #227, 39.37007874015748143 ) ;
#916 = DIRECTION ( 'NONE',  ( 0.000000000000000000, 0.000000000000000000, 1.000000000000000000 ) ) ;
#917 = ORIENTED_EDGE ( 'NONE', *, *, #411, .F. ) ;
#918 = DIRECTION ( 'NONE',  ( -0.000000000000000000, -0.000000000000000000, -1.000000000000000000 ) ) ;
#919 = ADVANCED_FACE ( 'NONE', ( #423 ), #886, .F. ) ;
#920 = FACE_BOUND ( 'NONE', #760, .T. ) ;
#921 = VERTEX_POINT ( 'NONE', #878 ) ;
#922 = DIRECTION ( 'NONE',  ( -0.000000000000000000, 1.000000000000000000, -0.000000000000000000 ) ) ;
#923 = CARTESIAN_POINT ( 'NONE',  ( 0.1000000000000000056, -0.2499999999999834022, 6.999999999999985789 ) ) ;
#924 = ORIENTED_EDGE ( 'NONE', *, *, #868, .F. ) ;
#925 = FACE_OUTER_BOUND ( 'NONE', #597, .T. ) ;
#926 = ORIENTED_EDGE ( 'NONE', *, *, #120, .T. ) ;
#927 = AXIS2_PLACEMENT_3D ( 'NONE', #726, #278, #47 ) ;
#928 = CIRCLE ( 'NONE', #653, 0.05899999999984220644 ) ;
#929 = DIRECTION ( 'NONE',  ( 0.000000000000000000, -5.201438579939643610E-13, 1.000000000000000000 ) ) ;
#930 = ORIENTED_EDGE ( 'NONE', *, *, #247, .T. ) ;
#931 = DIRECTION ( 'NONE',  ( -1.000000000000000000, 0.000000000000000000, -0.000000000000000000 ) ) ;
#932 = EDGE_CURVE ( 'NONE', #291, #229, #267, .T. ) ;
#933 = LINE ( 'NONE', #245, #849 ) ;
#934 = ORIENTED_EDGE ( 'NONE', *, *, #262, .F. ) ;
#935 = CARTESIAN_POINT ( 'NONE',  ( 0.000000000000000000, 0.2499999999999948097, 1.000000000000145439 ) ) ;
#936 = DIRECTION ( 'NONE',  ( -0.000000000000000000, -1.000000000000000000, -0.000000000000000000 ) ) ;
#937 = DIRECTION ( 'NONE',  ( 0.000000000000000000, -1.000000000000000000, -5.463695987331219411E-16 ) ) ;
#938 = ORIENTED_EDGE ( 'NONE', *, *, #443, .F. ) ;
#939 = CARTESIAN_POINT ( 'NONE',  ( -1.999999999999998446, -0.1249999999998809425, 6.684000000000219543 ) ) ;
#940 = EDGE_CURVE ( 'NONE', #158, #56, #345, .T. ) ;
#941 = CARTESIAN_POINT ( 'NONE',  ( 0.000000000000000000, 1.180158333262961679E-13, 7.250000000000143885 ) ) ;
#942 = CIRCLE ( 'NONE', #86, 0.05899999999984220644 ) ;
#943 = LINE ( 'NONE', #414, #452 ) ;
#944 = ORIENTED_EDGE ( 'NONE', *, *, #871, .F. ) ;
#945 = VECTOR ( 'NONE', #140, 39.37007874015748143 ) ;
#946 = CARTESIAN_POINT ( 'NONE',  ( -1.999999999999998446, 1.180158333262961679E-13, 9.491122132157551405 ) ) ;
#947 = EDGE_CURVE ( 'NONE', #224, #27, #272, .T. ) ;
#948 = DIRECTION ( 'NONE',  ( -1.000000000000000000, 0.000000000000000000, 0.000000000000000000 ) ) ;
#949 = ORIENTED_EDGE ( 'NONE', *, *, #443, .T. ) ;
#950 = LINE ( 'NONE', #181, #449 ) ;
#951 = LINE ( 'NONE', #941, #963 ) ;
#952 = DIRECTION ( 'NONE',  ( -1.000000000000000000, -0.000000000000000000, -0.000000000000000000 ) ) ;
#953 = ORIENTED_EDGE ( 'NONE', *, *, #525, .F. ) ;
#954 = EDGE_CURVE ( 'NONE', #56, #291, #951, .T. ) ;
#955 = CARTESIAN_POINT ( 'NONE',  ( 0.000000000000000000, 1.180158333262961679E-13, 7.250000000000143885 ) ) ;
#956 = CYLINDRICAL_SURFACE ( 'NONE', #737, 0.05900000000007605411 ) ;
#957 = CARTESIAN_POINT ( 'NONE',  ( 0.1000000000000000056, -1.202013117212275737E-14, 1.250000000000006661 ) ) ;
#958 = ORIENTED_EDGE ( 'NONE', *, *, #19, .T. ) ;
#959 = AXIS2_PLACEMENT_3D ( 'NONE', #7, #214, #308 ) ;
#960 = CARTESIAN_POINT ( 'NONE',  ( 0.000000000000000000, 0.2499999999999948097, 1.000000000000145217 ) ) ;
#961 = VECTOR ( 'NONE', #667, 39.37007874015748143 ) ;
#962 = ORIENTED_EDGE ( 'NONE', *, *, #932, .F. ) ;
#963 = VECTOR ( 'NONE', #806, 39.37007874015748143 ) ;
#964 = EDGE_CURVE ( 'NONE', #516, #657, #567, .T. ) ;
#965 = CARTESIAN_POINT ( 'NONE',  ( 0.1000000000000000056, -0.1249999999998809425, 6.566000000000301817 ) ) ;
#966 = PERSON_AND_ORGANIZATION ( #772, #705 ) ;
#967 = CARTESIAN_POINT ( 'NONE',  ( -1.999999999999998446, -0.1249999999998809425, 6.566000000000067338 ) ) ;
#968 = ORIENTED_EDGE ( 'NONE', *, *, #680, .F. ) ;
#969 = CARTESIAN_POINT ( 'NONE',  ( -2.099999999999998312, -0.2499999999999834022, 6.999999999999985789 ) ) ;
#970 = DIRECTION ( 'NONE',  ( -0.000000000000000000, -0.000000000000000000, -1.000000000000000000 ) ) ;
#971 = CARTESIAN_POINT ( 'NONE',  ( 0.000000000000000000, -0.2499999999999834022, 1.249999999999985789 ) ) ;
#972 = ORIENTED_EDGE ( 'NONE', *, *, #518, .T. ) ;
#973 = FACE_OUTER_BOUND ( 'NONE', #629, .T. ) ;
#974 = EDGE_CURVE ( 'NONE', #327, #77, #558, .T. ) ;
#975 = COORDINATED_UNIVERSAL_TIME_OFFSET ( 8, 0, .BEHIND. ) ;
#976 = EDGE_CURVE ( 'NONE', #524, #392, #102, .T. ) ;
#977 = CARTESIAN_POINT ( 'NONE',  ( -2.099999999999998312, -0.1249999999998809425, 6.625000000000143885 ) ) ;
#978 = ORIENTED_EDGE ( 'NONE', *, *, #829, .F. ) ;
#979 = VECTOR ( 'NONE', #796, 39.37007874015748143 ) ;
#980 = VECTOR ( 'NONE', #268, 39.37007874015748143 ) ;
#981 = VECTOR ( 'NONE', #44, 39.37007874015748143 ) ;
#982 = DIRECTION ( 'NONE',  ( 0.000000000000000000, -1.000000000000000000, -5.463695987331219411E-16 ) ) ;
#983 = ORIENTED_EDGE ( 'NONE', *, *, #690, .T. ) ;
#984 = ORIENTED_EDGE ( 'NONE', *, *, #314, .T. ) ;
#985 = DATE_TIME_ROLE ( 'creation_date' ) ;
ENDSEC;
END-ISO-10303-21;
