ISO-10303-21;
HEADER;
FILE_DESCRIPTION (( 'STEP AP203' ),
    '1' );
FILE_NAME ('Bottom Weapon Stack Spacer.STEP',
    '2026-03-20T23:30:36',
    ( '' ),
    ( '' ),
    'SwSTEP 2.0',
    'SolidWorks 2025',
    '' );
FILE_SCHEMA (( 'CONFIG_CONTROL_DESIGN' ));
ENDSEC;

DATA;
#1 = CARTESIAN_POINT ( 'NONE',  ( 0.07000000000000000666, 0.000000000000000000, 0.05900000000000000383 ) ) ;
#2 = EDGE_CURVE ( 'NONE', #591, #397, #647, .T. ) ;
#3 = AXIS2_PLACEMENT_3D ( 'NONE', #382, #131, #571 ) ;
#4 = CYLINDRICAL_SURFACE ( 'NONE', #245, 0.05905511999999998873 ) ;
#5 = CYLINDRICAL_SURFACE ( 'NONE', #30, 0.05900000000000000383 ) ;
#6 = CARTESIAN_POINT ( 'NONE',  ( 0.005870504646474319736, -0.4720284346724076263, 0.1085990033499098367 ) ) ;
#7 = CARTESIAN_POINT ( 'NONE',  ( 0.1000000000000000056, 0.000000000000000000, -0.4500000000000000666 ) ) ;
#8 = DIRECTION ( 'NONE',  ( -1.000000000000000000, -0.000000000000000000, -0.000000000000000000 ) ) ;
#9 = PLANE ( 'NONE',  #518 ) ;
#10 = EDGE_CURVE ( 'NONE', #167, #367, #267, .T. ) ;
#11 = DIRECTION ( 'NONE',  ( 0.000000000000000000, 0.000000000000000000, -1.000000000000000000 ) ) ;
#12 = EDGE_LOOP ( 'NONE', ( #219, #778 ) ) ;
#13 = CIRCLE ( 'NONE', #612, 0.5500000000000000444 ) ;
#14 = DIRECTION ( 'NONE',  ( -1.000000000000000000, 0.000000000000000000, 0.000000000000000000 ) ) ;
#15 = CC_DESIGN_APPROVAL ( #239, ( #552 ) ) ;
#16 = CARTESIAN_POINT ( 'NONE',  ( 0.2500000000000000000, 0.000000000000000000, 0.5500000000000000444 ) ) ;
#17 = ORIENTED_EDGE ( 'NONE', *, *, #453, .F. ) ;
#18 = CARTESIAN_POINT ( 'NONE',  ( 0.0008307583410127287061, 0.4499569437284071660, -0.1157019449993909599 ) ) ;
#19 = DIRECTION ( 'NONE',  ( -1.000000000000000000, -0.000000000000000000, -0.000000000000000000 ) ) ;
#20 = DIRECTION ( 'NONE',  ( 0.000000000000000000, 0.000000000000000000, 1.000000000000000000 ) ) ;
#21 = ORIENTED_EDGE ( 'NONE', *, *, #434, .T. ) ;
#22 = EDGE_CURVE ( 'NONE', #182, #457, #758, .T. ) ;
#23 = CARTESIAN_POINT ( 'NONE',  ( 0.06353097280488924359, 0.5431136266377576405, 0.007834196538652662273 ) ) ;
#24 = DIRECTION ( 'NONE',  ( 0.000000000000000000, 0.000000000000000000, -1.000000000000000000 ) ) ;
#25 = LOCAL_TIME ( 16, 30, 36.00000000000000000, #237 ) ;
#26 = ORIENTED_EDGE ( 'NONE', *, *, #502, .F. ) ;
#27 = CARTESIAN_POINT ( 'NONE',  ( 0.02033612607428182673, 0.5029296812371253367, -0.08904689160204469489 ) ) ;
#28 = PLANE ( 'NONE',  #123 ) ;
#29 = EDGE_CURVE ( 'NONE', #668, #176, #621, .T. ) ;
#30 = AXIS2_PLACEMENT_3D ( 'NONE', #257, #194, #608 ) ;
#31 = CYLINDRICAL_SURFACE ( 'NONE', #55, 0.1181102349999999940 ) ;
#32 = CALENDAR_DATE ( 2026, 20, 3 ) ;
#33 = ORIENTED_EDGE ( 'NONE', *, *, #193, .F. ) ;
#34 = DIRECTION ( 'NONE',  ( -1.000000000000000000, 0.000000000000000000, 0.000000000000000000 ) ) ;
#35 = CARTESIAN_POINT ( 'NONE',  ( 0.07000000000000000666, 0.000000000000000000, 0.000000000000000000 ) ) ;
#36 = PERSON_AND_ORGANIZATION ( #235, #166 ) ;
#37 = VERTEX_POINT ( 'NONE', #139 ) ;
#38 = CARTESIAN_POINT ( 'NONE',  ( 0.04621089519540422241, 0.5320650800694004534, 0.05036040785424805710 ) ) ;
#39 = FACE_BOUND ( 'NONE', #272, .T. ) ;
#40 = CALENDAR_DATE ( 2026, 20, 3 ) ;
#41 = APPROVAL ( #104, 'UNSPECIFIED' ) ;
#42 = VERTEX_POINT ( 'NONE', #16 ) ;
#43 = CC_DESIGN_PERSON_AND_ORGANIZATION_ASSIGNMENT ( #762, #97, ( #189 ) ) ;
#44 = CARTESIAN_POINT ( 'NONE',  ( 0.000000000000000000, 0.4343234969273467860, 0.1177416664431117366 ) ) ;
#45 = AXIS2_PLACEMENT_3D ( 'NONE', #572, #697, #204 ) ;
#46 = ORIENTED_EDGE ( 'NONE', *, *, #88, .F. ) ;
#47 = AXIS2_PLACEMENT_3D ( 'NONE', #495, #441, #614 ) ;
#48 = CARTESIAN_POINT ( 'NONE',  ( 0.01384783242651269758, -0.4914771529445174925, 0.09789367833572033828 ) ) ;
#49 = ORIENTED_EDGE ( 'NONE', *, *, #463, .T. ) ;
#50 = EDGE_CURVE ( 'NONE', #559, #54, #706, .T. ) ;
#51 = CARTESIAN_POINT ( 'NONE',  ( 0.1181102400000000052, -0.4249999999999999889, 0.000000000000000000 ) ) ;
#52 = VERTEX_POINT ( 'NONE', #261 ) ;
#53 = CARTESIAN_POINT ( 'NONE',  ( 0.2500000000000000000, 0.4249999999999999889, 0.000000000000000000 ) ) ;
#54 = VERTEX_POINT ( 'NONE', #387 ) ;
#55 = AXIS2_PLACEMENT_3D ( 'NONE', #164, #707, #107 ) ;
#56 = CIRCLE ( 'NONE', #533, 0.05905511999999998873 ) ;
#57 = LOCAL_TIME ( 16, 30, 36.00000000000000000, #287 ) ;
#58 = CARTESIAN_POINT ( 'NONE',  ( 0.06353097280488924359, -0.5431136266377576405, -0.007834196538652662273 ) ) ;
#59 = EDGE_CURVE ( 'NONE', #159, #133, #799, .T. ) ;
#60 = ORIENTED_EDGE ( 'NONE', *, *, #210, .T. ) ;
#61 = DIRECTION ( 'NONE',  ( 0.000000000000000000, 0.000000000000000000, -1.000000000000000000 ) ) ;
#62 = CARTESIAN_POINT ( 'NONE',  ( 0.06352077751007477457, -0.5431085226859090342, 0.003993549298682773710 ) ) ;
#63 = EDGE_LOOP ( 'NONE', ( #734, #674, #737, #802, #602, #348 ) ) ;
#64 = PRODUCT_DEFINITION_SHAPE ( 'NONE', 'NONE',  #552 ) ;
#65 = DIRECTION ( 'NONE',  ( 0.000000000000000000, 0.000000000000000000, 1.000000000000000000 ) ) ;
#66 = CARTESIAN_POINT ( 'NONE',  ( 0.07000000000000000666, 0.000000000000000000, 0.000000000000000000 ) ) ;
#67 = CARTESIAN_POINT ( 'NONE',  ( 0.1181102400000000052, 0.4249999999999999889, 0.000000000000000000 ) ) ;
#68 = AXIS2_PLACEMENT_3D ( 'NONE', #35, #476, #279 ) ;
#69 = VECTOR ( 'NONE', #529, 39.37007874015748143 ) ;
#70 = DIRECTION ( 'NONE',  ( -1.000000000000000000, -0.000000000000000000, -0.000000000000000000 ) ) ;
#71 = VERTEX_POINT ( 'NONE', #325 ) ;
#72 = VERTEX_POINT ( 'NONE', #383 ) ;
#73 = FACE_OUTER_BOUND ( 'NONE', #514, .T. ) ;
#74 = EDGE_CURVE ( 'NONE', #380, #397, #401, .T. ) ;
#75 = DIRECTION ( 'NONE',  ( -1.000000000000000000, 0.000000000000000000, 0.000000000000000000 ) ) ;
#76 = CARTESIAN_POINT ( 'NONE',  ( 0.000000000000000000, 0.000000000000000000, 0.000000000000000000 ) ) ;
#77 = ORIENTED_EDGE ( 'NONE', *, *, #463, .F. ) ;
#78 =( CONVERSION_BASED_UNIT ( 'INCH', #641 ) LENGTH_UNIT ( ) NAMED_UNIT ( #603 ) );
#79 = CARTESIAN_POINT ( 'NONE',  ( 0.000000000000000000, 0.000000000000000000, 0.000000000000000000 ) ) ;
#80 = CARTESIAN_POINT ( 'NONE',  ( 0.2500000000000000000, 6.735557395310443749E-17, -0.5500000000000000444 ) ) ;
#81 = CIRCLE ( 'NONE', #467, 0.1181102349999999940 ) ;
#82 = DIRECTION ( 'NONE',  ( 0.000000000000000000, 0.000000000000000000, 1.000000000000000000 ) ) ;
#83 = DIRECTION ( 'NONE',  ( 0.000000000000000000, 1.000000000000000000, -1.224646799147353207E-16 ) ) ;
#84 = ORIENTED_EDGE ( 'NONE', *, *, #471, .T. ) ;
#85 = CARTESIAN_POINT ( 'NONE',  ( 0.03489052151119805684, 0.5216416611397711733, 0.06825162677217977425 ) ) ;
#86 = CARTESIAN_POINT ( 'NONE',  ( 0.2500000000000000000, 0.4249999999999999889, 0.000000000000000000 ) ) ;
#87 = VERTEX_POINT ( 'NONE', #638 ) ;
#88 = EDGE_CURVE ( 'NONE', #716, #400, #580, .T. ) ;
#89 = CARTESIAN_POINT ( 'NONE',  ( 0.04241158118204226002, 0.5289151436632435477, -0.05656767093960828052 ) ) ;
#90 = CYLINDRICAL_SURFACE ( 'NONE', #229, 0.1181102349999999940 ) ;
#91 = FACE_OUTER_BOUND ( 'NONE', #473, .T. ) ;
#92 = APPROVAL_ROLE ( '' ) ;
#93 = EDGE_LOOP ( 'NONE', ( #145, #151, #285, #679, #17, #573, #616, #60, #375, #620 ) ) ;
#94 = CARTESIAN_POINT ( 'NONE',  ( 0.07000000000000000666, 7.225416114969384871E-18, -0.05900000000000000383 ) ) ;
#95 = AXIS2_PLACEMENT_3D ( 'NONE', #653, #290, #785 ) ;
#96 = CYLINDRICAL_SURFACE ( 'NONE', #746, 0.05905511999999998873 ) ;
#97 = PERSON_AND_ORGANIZATION_ROLE ( 'design_owner' ) ;
#98 = ORIENTED_EDGE ( 'NONE', *, *, #610, .T. ) ;
#99 = CARTESIAN_POINT ( 'NONE',  ( 0.03482120886125238124, 0.5215696644612352051, -0.06835611445897701866 ) ) ;
#100 = CARTESIAN_POINT ( 'NONE',  ( 0.0008310306409503842020, 0.4499621562714457568, 0.1157013162678476176 ) ) ;
#101 = EDGE_CURVE ( 'NONE', #559, #121, #449, .T. ) ;
#102 = DIRECTION ( 'NONE',  ( 1.000000000000000000, 0.000000000000000000, 0.000000000000000000 ) ) ;
#103 = EDGE_CURVE ( 'NONE', #805, #591, #111, .T. ) ;
#104 = APPROVAL_STATUS ( 'not_yet_approved' ) ;
#105 = ORIENTED_EDGE ( 'NONE', *, *, #2, .T. ) ;
#106 = CARTESIAN_POINT ( 'NONE',  ( 0.005874412042573354427, 0.4720439354395175591, 0.1085936944046873021 ) ) ;
#107 = DIRECTION ( 'NONE',  ( 0.000000000000000000, 0.000000000000000000, 1.000000000000000000 ) ) ;
#108 = ORIENTED_EDGE ( 'NONE', *, *, #711, .T. ) ;
#109 = CARTESIAN_POINT ( 'NONE',  ( 0.2500000000000000000, 0.4249999999999999889, 0.000000000000000000 ) ) ;
#110 = DATE_AND_TIME ( #32, #25 ) ;
#111 = CIRCLE ( 'NONE', #228, 0.1000000000000000194 ) ;
#112 = ORIENTED_EDGE ( 'NONE', *, *, #260, .T. ) ;
#113 = EDGE_CURVE ( 'NONE', #71, #421, #414, .T. ) ;
#114 = CARTESIAN_POINT ( 'NONE',  ( 0.03104026482533736239, -0.5173898753729586630, 0.07390878435186204465 ) ) ;
#115 = ORIENTED_EDGE ( 'NONE', *, *, #193, .T. ) ;
#116 = CC_DESIGN_PERSON_AND_ORGANIZATION_ASSIGNMENT ( #727, #615, ( #385 ) ) ;
#117 = CARTESIAN_POINT ( 'NONE',  ( 0.1000000000000000056, 6.735557395310443749E-17, -0.5500000000000000444 ) ) ;
#118 = EDGE_LOOP ( 'NONE', ( #782, #740 ) ) ;
#119 = ADVANCED_FACE ( 'NONE', ( #456 ), #786, .T. ) ;
#120 = CARTESIAN_POINT ( 'NONE',  ( 0.03107877978730990906, -0.5174353541699924230, -0.07385279700337554765 ) ) ;
#121 = VERTEX_POINT ( 'NONE', #265 ) ;
#122 = AXIS2_PLACEMENT_3D ( 'NONE', #513, #691, #212 ) ;
#123 = AXIS2_PLACEMENT_3D ( 'NONE', #598, #784, #211 ) ;
#124 = CIRCLE ( 'NONE', #683, 0.2362204700000000157 ) ;
#125 = DIRECTION ( 'NONE',  ( 1.000000000000000000, 0.000000000000000000, 0.000000000000000000 ) ) ;
#126 = ORIENTED_EDGE ( 'NONE', *, *, #599, .T. ) ;
#127 = CYLINDRICAL_SURFACE ( 'NONE', #487, 0.2362204700000000157 ) ;
#128 = LINE ( 'NONE', #270, #365 ) ;
#129 = CARTESIAN_POINT ( 'NONE',  ( 0.1181102400000000052, -0.4249999999999999889, -0.1181102349999999940 ) ) ;
#130 = DIRECTION ( 'NONE',  ( 0.000000000000000000, 0.000000000000000000, 1.000000000000000000 ) ) ;
#131 = DIRECTION ( 'NONE',  ( -1.000000000000000000, 0.000000000000000000, 0.000000000000000000 ) ) ;
#132 = LINE ( 'NONE', #399, #440 ) ;
#133 = VERTEX_POINT ( 'NONE', #700 ) ;
#134 = AXIS2_PLACEMENT_3D ( 'NONE', #51, #500, #551 ) ;
#135 = DIRECTION ( 'NONE',  ( -1.000000000000000000, -0.000000000000000000, -0.000000000000000000 ) ) ;
#136 = DIRECTION ( 'NONE',  ( 0.000000000000000000, 0.000000000000000000, -1.000000000000000000 ) ) ;
#137 =( LENGTH_UNIT ( ) NAMED_UNIT ( * ) SI_UNIT ( $, .METRE. ) );
#138 = CARTESIAN_POINT ( 'NONE',  ( 0.1181102400000000052, 0.4249999999999999889, 0.000000000000000000 ) ) ;
#139 = CARTESIAN_POINT ( 'NONE',  ( 0.000000000000000000, -0.4249999999999999889, -0.1181102349999999940 ) ) ;
#140 = ORIENTED_EDGE ( 'NONE', *, *, #599, .F. ) ;
#141 = CARTESIAN_POINT ( 'NONE',  ( 0.03104026482533736239, 0.5173898753729586630, -0.07390878435186204465 ) ) ;
#142 = DIRECTION ( 'NONE',  ( 0.000000000000000000, 0.000000000000000000, 1.000000000000000000 ) ) ;
#143 = EDGE_CURVE ( 'NONE', #310, #397, #396, .T. ) ;
#144 = DIRECTION ( 'NONE',  ( -1.000000000000000000, -0.000000000000000000, -0.000000000000000000 ) ) ;
#145 = ORIENTED_EDGE ( 'NONE', *, *, #769, .F. ) ;
#146 = AXIS2_PLACEMENT_3D ( 'NONE', #172, #125, #498 ) ;
#147 = CARTESIAN_POINT ( 'NONE',  ( 0.03107877978730990906, 0.5174353541699924230, 0.07385279700337554765 ) ) ;
#148 = UNCERTAINTY_MEASURE_WITH_UNIT (LENGTH_MEASURE( 1.000000000000000082E-05 ), #78, 'distance_accuracy_value', 'NONE');
#149 = EDGE_CURVE ( 'NONE', #54, #728, #132, .T. ) ;
#150 = FACE_OUTER_BOUND ( 'NONE', #93, .T. ) ;
#151 = ORIENTED_EDGE ( 'NONE', *, *, #486, .T. ) ;
#152 = CARTESIAN_POINT ( 'NONE',  ( 0.2500000000000000000, 0.4249999999999999889, -0.05905511999999998873 ) ) ;
#153 = FACE_OUTER_BOUND ( 'NONE', #618, .T. ) ;
#154 = EDGE_LOOP ( 'NONE', ( #292, #787, #233, #21 ) ) ;
#155 = CARTESIAN_POINT ( 'NONE',  ( 0.01390605671147142341, 0.4915889601876647919, 0.09781495420897322324 ) ) ;
#156 = DIRECTION ( 'NONE',  ( -1.000000000000000000, 0.000000000000000000, 0.000000000000000000 ) ) ;
#157 = APPROVAL_DATE_TIME ( #776, #239 ) ;
#158 = LOCAL_TIME ( 16, 30, 36.00000000000000000, #781 ) ;
#159 = VERTEX_POINT ( 'NONE', #271 ) ;
#160 = EDGE_CURVE ( 'NONE', #313, #37, #464, .T. ) ;
#161 = LINE ( 'NONE', #94, #69 ) ;
#162 = AXIS2_PLACEMENT_3D ( 'NONE', #764, #339, #20 ) ;
#163 = AXIS2_PLACEMENT_3D ( 'NONE', #352, #19, #542 ) ;
#164 = CARTESIAN_POINT ( 'NONE',  ( 0.1181102400000000052, 0.4249999999999999889, 0.000000000000000000 ) ) ;
#165 = COORDINATED_UNIVERSAL_TIME_OFFSET ( 8, 0, .BEHIND. ) ;
#166 = ORGANIZATION ( 'UNSPECIFIED', 'UNSPECIFIED', '' ) ;
#167 = VERTEX_POINT ( 'NONE', #320 ) ;
#168 = CARTESIAN_POINT ( 'NONE',  ( 0.000000000000000000, 0.4249999999999999889, 0.1181102349999999940 ) ) ;
#169 = FACE_BOUND ( 'NONE', #12, .T. ) ;
#170 = EDGE_LOOP ( 'NONE', ( #46, #413 ) ) ;
#171 = ADVANCED_FACE ( 'NONE', ( #569 ), #5, .F. ) ;
#172 = CARTESIAN_POINT ( 'NONE',  ( 0.2500000000000000000, 0.000000000000000000, 0.000000000000000000 ) ) ;
#173 = ORIENTED_EDGE ( 'NONE', *, *, #796, .F. ) ;
#174 = CARTESIAN_POINT ( 'NONE',  ( 0.05669585607579219477, -0.5393759081232023522, -0.03039870309409377705 ) ) ;
#175 = CIRCLE ( 'NONE', #735, 0.05905511999999998873 ) ;
#176 = VERTEX_POINT ( 'NONE', #44 ) ;
#177 = CIRCLE ( 'NONE', #389, 0.05905511999999998873 ) ;
#178 = CARTESIAN_POINT ( 'NONE',  ( 0.1181102400000000052, -0.4249999999999999889, 0.000000000000000000 ) ) ;
#179 = ORIENTED_EDGE ( 'NONE', *, *, #103, .F. ) ;
#180 = CARTESIAN_POINT ( 'NONE',  ( 0.000000000000000000, -0.4343234969273467860, -0.1177416664431117366 ) ) ;
#181 = DIRECTION ( 'NONE',  ( -1.000000000000000000, -0.000000000000000000, -0.000000000000000000 ) ) ;
#182 = VERTEX_POINT ( 'NONE', #407 ) ;
#183 = PRODUCT_RELATED_PRODUCT_CATEGORY ( 'detail', '', ( #189 ) ) ;
#184 = CC_DESIGN_APPROVAL ( #41, ( #385 ) ) ;
#185 = CC_DESIGN_DATE_AND_TIME_ASSIGNMENT ( #354, #594, ( #385 ) ) ;
#186 = CARTESIAN_POINT ( 'NONE',  ( 0.05327789681447543668, -0.5372506173239565141, 0.03740243910125322369 ) ) ;
#187 = EDGE_LOOP ( 'NONE', ( #795, #98, #528, #677 ) ) ;
#188 = VECTOR ( 'NONE', #654, 39.37007874015748143 ) ;
#189 = PRODUCT ( 'Bottom Weapon Stack Spacer', 'Bottom Weapon Stack Spacer', '', ( #719 ) ) ;
#190 = CARTESIAN_POINT ( 'NONE',  ( 0.1181102400000000052, 0.4249999999999999889, 0.1181102349999999940 ) ) ;
#191 = EDGE_LOOP ( 'NONE', ( #743, #77, #316, #238 ) ) ;
#192 = DIRECTION ( 'NONE',  ( 0.000000000000000000, 0.000000000000000000, 1.000000000000000000 ) ) ;
#193 = EDGE_CURVE ( 'NONE', #87, #544, #546, .T. ) ;
#194 = DIRECTION ( 'NONE',  ( -1.000000000000000000, 0.000000000000000000, 0.000000000000000000 ) ) ;
#195 = ORIENTED_EDGE ( 'NONE', *, *, #2, .F. ) ;
#196 = LOCAL_TIME ( 16, 30, 36.00000000000000000, #165 ) ;
#197 = CARTESIAN_POINT ( 'NONE',  ( 0.2500000000000000000, 0.000000000000000000, 0.000000000000000000 ) ) ;
#198 = DIRECTION ( 'NONE',  ( 0.000000000000000000, 0.000000000000000000, -1.000000000000000000 ) ) ;
#199 = CIRCLE ( 'NONE', #309, 0.5500000000000000444 ) ;
#200 = CARTESIAN_POINT ( 'NONE',  ( 0.07000000000000000666, 0.000000000000000000, 0.000000000000000000 ) ) ;
#201 = VECTOR ( 'NONE', #135, 39.37007874015748143 ) ;
#202 =( GEOMETRIC_REPRESENTATION_CONTEXT ( 3 ) GLOBAL_UNCERTAINTY_ASSIGNED_CONTEXT ( ( #148 ) ) GLOBAL_UNIT_ASSIGNED_CONTEXT ( ( #78, #686, #508 ) ) REPRESENTATION_CONTEXT ( 'NONE', 'WORKASPACE' ) );
#203 = DIRECTION ( 'NONE',  ( -1.000000000000000000, -0.000000000000000000, -0.000000000000000000 ) ) ;
#204 = DIRECTION ( 'NONE',  ( 0.000000000000000000, 0.000000000000000000, 1.000000000000000000 ) ) ;
#205 = ORIENTED_EDGE ( 'NONE', *, *, #334, .F. ) ;
#206 = ADVANCED_FACE ( 'NONE', ( #661 ), #214, .T. ) ;
#207 = CARTESIAN_POINT ( 'NONE',  ( -2.491077211019536642E-17, -0.4422818266329840986, 0.1171114777868880186 ) ) ;
#208 = CARTESIAN_POINT ( 'NONE',  ( 0.000000000000000000, -0.4249999999999999889, 0.000000000000000000 ) ) ;
#209 = ORIENTED_EDGE ( 'NONE', *, *, #370, .T. ) ;
#210 = EDGE_CURVE ( 'NONE', #805, #176, #675, .T. ) ;
#211 = DIRECTION ( 'NONE',  ( 0.000000000000000000, 0.000000000000000000, 1.000000000000000000 ) ) ;
#212 = DIRECTION ( 'NONE',  ( 0.000000000000000000, 0.000000000000000000, -1.000000000000000000 ) ) ;
#213 = ORIENTED_EDGE ( 'NONE', *, *, #405, .T. ) ;
#214 = TOROIDAL_SURFACE ( 'NONE', #243, 0.4500000000000000666, 0.1000000000000000056 ) ;
#215 = CIRCLE ( 'NONE', #134, 0.1181102349999999940 ) ;
#216 = LINE ( 'NONE', #345, #582 ) ;
#217 = FACE_BOUND ( 'NONE', #507, .T. ) ;
#218 = PERSON_AND_ORGANIZATION_ROLE ( 'creator' ) ;
#219 = ORIENTED_EDGE ( 'NONE', *, *, #50, .T. ) ;
#220 = PLANE ( 'NONE',  #268 ) ;
#221 = ORIENTED_EDGE ( 'NONE', *, *, #29, .T. ) ;
#222 = CARTESIAN_POINT ( 'NONE',  ( 0.000000000000000000, 0.4343234969273467860, 0.1177416664431117366 ) ) ;
#223 = CARTESIAN_POINT ( 'NONE',  ( 0.000000000000000000, 0.000000000000000000, 0.000000000000000000 ) ) ;
#224 = PERSON_AND_ORGANIZATION ( #235, #166 ) ;
#225 = CC_DESIGN_SECURITY_CLASSIFICATION ( #385, ( #330 ) ) ;
#226 = ORIENTED_EDGE ( 'NONE', *, *, #394, .F. ) ;
#227 = CARTESIAN_POINT ( 'NONE',  ( 0.2500000000000000000, 0.4249999999999999889, 0.05905511999999998873 ) ) ;
#228 = AXIS2_PLACEMENT_3D ( 'NONE', #524, #83, #640 ) ;
#229 = AXIS2_PLACEMENT_3D ( 'NONE', #592, #534, #479 ) ;
#230 = DIRECTION ( 'NONE',  ( 0.000000000000000000, 0.000000000000000000, 1.000000000000000000 ) ) ;
#231 = PERSON_AND_ORGANIZATION ( #235, #166 ) ;
#232 = AXIS2_PLACEMENT_3D ( 'NONE', #314, #8, #61 ) ;
#233 = ORIENTED_EDGE ( 'NONE', *, *, #502, .T. ) ;
#234 = EDGE_CURVE ( 'NONE', #793, #421, #297, .T. ) ;
#235 = PERSON ( 'UNSPECIFIED', 'UNSPECIFIED', 'UNSPECIFIED', ('UNSPECIFIED'), ('UNSPECIFIED'), ('UNSPECIFIED') ) ;
#236 = CARTESIAN_POINT ( 'NONE',  ( 0.2500000000000000000, 0.000000000000000000, 0.000000000000000000 ) ) ;
#237 = COORDINATED_UNIVERSAL_TIME_OFFSET ( 8, 0, .BEHIND. ) ;
#238 = ORIENTED_EDGE ( 'NONE', *, *, #293, .T. ) ;
#239 = APPROVAL ( #492, 'UNSPECIFIED' ) ;
#240 = CARTESIAN_POINT ( 'NONE',  ( 0.06159931044473741096, -0.5421221977148309445, 0.01573394439503406073 ) ) ;
#241 = ORIENTED_EDGE ( 'NONE', *, *, #416, .F. ) ;
#242 = CARTESIAN_POINT ( 'NONE',  ( 0.000000000000000000, 0.000000000000000000, -0.4500000000000000666 ) ) ;
#243 = AXIS2_PLACEMENT_3D ( 'NONE', #489, #353, #538 ) ;
#244 = ORIENTED_EDGE ( 'NONE', *, *, #738, .T. ) ;
#245 = AXIS2_PLACEMENT_3D ( 'NONE', #259, #324, #511 ) ;
#246 = DIRECTION ( 'NONE',  ( 0.000000000000000000, 0.000000000000000000, 1.000000000000000000 ) ) ;
#247 = ORIENTED_EDGE ( 'NONE', *, *, #434, .F. ) ;
#248 = CARTESIAN_POINT ( 'NONE',  ( 0.06052574712169120352, -0.5415522108996512207, 0.01948155466131342231 ) ) ;
#249 = ORIENTED_EDGE ( 'NONE', *, *, #332, .T. ) ;
#250 = CARTESIAN_POINT ( 'NONE',  ( 0.06052574712169120352, 0.5415522108996512207, -0.01948155466131342231 ) ) ;
#251 = CARTESIAN_POINT ( 'NONE',  ( 0.0008307583410127287061, -0.4499569437284071660, 0.1157019449993909599 ) ) ;
#252 = ORIENTED_EDGE ( 'NONE', *, *, #439, .F. ) ;
#253 = CIRCLE ( 'NONE', #452, 0.1181102349999999940 ) ;
#254 = CARTESIAN_POINT ( 'NONE',  ( 0.000000000000000000, 6.123233995736767268E-17, 0.4500000000000000666 ) ) ;
#255 = ADVANCED_FACE ( 'NONE', ( #39, #169, #153, #593 ), #411, .T. ) ;
#256 = DIRECTION ( 'NONE',  ( 0.000000000000000000, 0.000000000000000000, 1.000000000000000000 ) ) ;
#257 = CARTESIAN_POINT ( 'NONE',  ( 0.07000000000000000666, 0.000000000000000000, 0.000000000000000000 ) ) ;
#258 = LINE ( 'NONE', #454, #376 ) ;
#259 = CARTESIAN_POINT ( 'NONE',  ( 0.2500000000000000000, -0.4249999999999999889, 0.000000000000000000 ) ) ;
#260 = EDGE_CURVE ( 'NONE', #692, #793, #770, .T. ) ;
#261 = CARTESIAN_POINT ( 'NONE',  ( 0.1181102400000000052, -0.4249999999999999889, 0.1181102349999999940 ) ) ;
#262 = EDGE_LOOP ( 'NONE', ( #179, #685, #241, #499, #360, #195 ) ) ;
#263 = DIRECTION ( 'NONE',  ( -1.000000000000000000, -0.000000000000000000, -0.000000000000000000 ) ) ;
#264 = DIRECTION ( 'NONE',  ( -1.000000000000000000, 0.000000000000000000, 0.000000000000000000 ) ) ;
#265 = CARTESIAN_POINT ( 'NONE',  ( 0.1181102400000000052, -0.4249999999999999889, 0.05905511999999998873 ) ) ;
#266 = EDGE_CURVE ( 'NONE', #672, #732, #175, .T. ) ;
#267 = CIRCLE ( 'NONE', #483, 0.2362204700000000157 ) ;
#268 = AXIS2_PLACEMENT_3D ( 'NONE', #710, #284, #535 ) ;
#269 = AXIS2_PLACEMENT_3D ( 'NONE', #67, #263, #515 ) ;
#270 = CARTESIAN_POINT ( 'NONE',  ( 0.2500000000000000000, 0.4249999999999999889, 0.05905511999999998873 ) ) ;
#271 = CARTESIAN_POINT ( 'NONE',  ( 0.000000000000000000, -0.4343234969273467860, 0.1177416664431116949 ) ) ;
#272 = EDGE_LOOP ( 'NONE', ( #442, #501 ) ) ;
#273 = ADVANCED_FACE ( 'NONE', ( #91 ), #31, .F. ) ;
#274 = CARTESIAN_POINT ( 'NONE',  ( -2.491077211019536642E-17, 0.4422818266329840986, -0.1171114777868880186 ) ) ;
#275 = CARTESIAN_POINT ( 'NONE',  ( 0.02036756146152561217, 0.5029760065298443106, 0.08900335550660783135 ) ) ;
#276 = DIRECTION ( 'NONE',  ( 0.000000000000000000, 0.000000000000000000, 1.000000000000000000 ) ) ;
#277 = DIRECTION ( 'NONE',  ( -1.000000000000000000, -0.000000000000000000, -0.000000000000000000 ) ) ;
#278 = APPROVAL_PERSON_ORGANIZATION ( #667, #41, #291 ) ;
#279 = DIRECTION ( 'NONE',  ( 0.000000000000000000, 0.000000000000000000, 1.000000000000000000 ) ) ;
#280 = ORIENTED_EDGE ( 'NONE', *, *, #101, .T. ) ;
#281 = CIRCLE ( 'NONE', #3, 0.1181102349999999940 ) ;
#282 = ADVANCED_FACE ( 'NONE', ( #150, #666 ), #346, .F. ) ;
#283 = DESIGN_CONTEXT ( 'detailed design', #303, 'design' ) ;
#284 = DIRECTION ( 'NONE',  ( -1.000000000000000000, 0.000000000000000000, 0.000000000000000000 ) ) ;
#285 = ORIENTED_EDGE ( 'NONE', *, *, #783, .T. ) ;
#286 = DIRECTION ( 'NONE',  ( 0.000000000000000000, 0.000000000000000000, -1.000000000000000000 ) ) ;
#287 = COORDINATED_UNIVERSAL_TIME_OFFSET ( 8, 0, .BEHIND. ) ;
#288 = VERTEX_POINT ( 'NONE', #775 ) ;
#289 = CARTESIAN_POINT ( 'NONE',  ( 0.05330338459150135016, 0.5372674155252628037, 0.03735143184392423349 ) ) ;
#290 = DIRECTION ( 'NONE',  ( -1.000000000000000000, 0.000000000000000000, 0.000000000000000000 ) ) ;
#291 = APPROVAL_ROLE ( '' ) ;
#292 = ORIENTED_EDGE ( 'NONE', *, *, #702, .F. ) ;
#293 = EDGE_CURVE ( 'NONE', #421, #71, #596, .T. ) ;
#294 = CARTESIAN_POINT ( 'NONE',  ( 0.000000000000000000, 0.4343234969273467860, -0.1177416664431117366 ) ) ;
#295 = AXIS2_PLACEMENT_3D ( 'NONE', #761, #451, #510 ) ;
#296 = CIRCLE ( 'NONE', #402, 0.05905511999999998873 ) ;
#297 = LINE ( 'NONE', #423, #430 ) ;
#298 = EDGE_LOOP ( 'NONE', ( #355, #553, #340, #504 ) ) ;
#299 = ADVANCED_FACE ( 'NONE', ( #362 ), #96, .F. ) ;
#300 = CC_DESIGN_DATE_AND_TIME_ASSIGNMENT ( #656, #408, ( #552 ) ) ;
#301 = CARTESIAN_POINT ( 'NONE',  ( 0.01090202439170631817, -0.4852885084638033364, 0.1018366974304476952 ) ) ;
#302 = ORIENTED_EDGE ( 'NONE', *, *, #332, .F. ) ;
#303 = APPLICATION_CONTEXT ( 'configuration controlled 3d designs of mechanical parts and assemblies' ) ;
#304 = DIRECTION ( 'NONE',  ( -1.000000000000000000, -0.000000000000000000, -0.000000000000000000 ) ) ;
#305 = ORIENTED_EDGE ( 'NONE', *, *, #394, .T. ) ;
#306 = VECTOR ( 'NONE', #632, 39.37007874015748143 ) ;
#307 = EDGE_CURVE ( 'NONE', #310, #42, #199, .T. ) ;
#308 = CARTESIAN_POINT ( 'NONE',  ( 0.07000000000000000666, 2.892866424785834137E-17, -0.2362204700000000157 ) ) ;
#309 = AXIS2_PLACEMENT_3D ( 'NONE', #342, #590, #24 ) ;
#310 = VERTEX_POINT ( 'NONE', #530 ) ;
#311 = APPROVAL_PERSON_ORGANIZATION ( #420, #239, #470 ) ;
#312 = CARTESIAN_POINT ( 'NONE',  ( 0.06310564523929222680, -0.5429037748722230772, 0.007991625282640085412 ) ) ;
#313 = VERTEX_POINT ( 'NONE', #771 ) ;
#314 = CARTESIAN_POINT ( 'NONE',  ( 0.000000000000000000, 0.000000000000000000, 0.000000000000000000 ) ) ;
#315 = CARTESIAN_POINT ( 'NONE',  ( 0.2500000000000000000, 0.000000000000000000, 0.5500000000000000444 ) ) ;
#316 = ORIENTED_EDGE ( 'NONE', *, *, #234, .T. ) ;
#317 = ADVANCED_FACE ( 'NONE', ( #217, #469 ), #220, .F. ) ;
#318 = DIRECTION ( 'NONE',  ( -1.000000000000000000, 0.000000000000000000, 0.000000000000000000 ) ) ;
#319 = FACE_OUTER_BOUND ( 'NONE', #298, .T. ) ;
#320 = CARTESIAN_POINT ( 'NONE',  ( 0.07000000000000000666, 0.000000000000000000, 0.2362204700000000157 ) ) ;
#321 = AXIS2_PLACEMENT_3D ( 'NONE', #236, #480, #600 ) ;
#322 = CIRCLE ( 'NONE', #351, 0.05905511999999998873 ) ;
#323 = EDGE_CURVE ( 'NONE', #87, #288, #374, .T. ) ;
#324 = DIRECTION ( 'NONE',  ( -1.000000000000000000, -0.000000000000000000, -0.000000000000000000 ) ) ;
#325 = CARTESIAN_POINT ( 'NONE',  ( 0.000000000000000000, 7.225416114969384871E-18, -0.05900000000000000383 ) ) ;
#326 = DIRECTION ( 'NONE',  ( 0.000000000000000000, 0.000000000000000000, 1.000000000000000000 ) ) ;
#327 = DIRECTION ( 'NONE',  ( 0.000000000000000000, 0.000000000000000000, -1.000000000000000000 ) ) ;
#328 = ORIENTED_EDGE ( 'NONE', *, *, #59, .T. ) ;
#329 = DIRECTION ( 'NONE',  ( 0.000000000000000000, 0.000000000000000000, 1.000000000000000000 ) ) ;
#330 = PRODUCT_DEFINITION_FORMATION_WITH_SPECIFIED_SOURCE ( 'ANY', '', #189, .NOT_KNOWN. ) ;
#331 = CARTESIAN_POINT ( 'NONE',  ( 0.1181102400000000052, 0.4249999999999999889, 0.000000000000000000 ) ) ;
#332 = EDGE_CURVE ( 'NONE', #52, #133, #673, .T. ) ;
#333 = DIRECTION ( 'NONE',  ( -1.000000000000000000, -0.000000000000000000, -0.000000000000000000 ) ) ;
#334 = EDGE_CURVE ( 'NONE', #732, #672, #296, .T. ) ;
#335 = ORIENTED_EDGE ( 'NONE', *, *, #101, .F. ) ;
#336 = AXIS2_PLACEMENT_3D ( 'NONE', #76, #587, #527 ) ;
#337 = AXIS2_PLACEMENT_3D ( 'NONE', #766, #462, #652 ) ;
#338 = FACE_BOUND ( 'NONE', #585, .T. ) ;
#339 = DIRECTION ( 'NONE',  ( -1.000000000000000000, 0.000000000000000000, 0.000000000000000000 ) ) ;
#340 = ORIENTED_EDGE ( 'NONE', *, *, #357, .T. ) ;
#341 = CARTESIAN_POINT ( 'NONE',  ( 0.05669585607579219477, 0.5393759081232023522, 0.03039870309409377705 ) ) ;
#342 = CARTESIAN_POINT ( 'NONE',  ( 0.2500000000000000000, 0.000000000000000000, 0.000000000000000000 ) ) ;
#343 = ORIENTED_EDGE ( 'NONE', *, *, #293, .F. ) ;
#344 = ADVANCED_FACE ( 'NONE', ( #368 ), #797, .F. ) ;
#345 = CARTESIAN_POINT ( 'NONE',  ( 0.2500000000000000000, 2.892866424785834137E-17, -0.2362204700000000157 ) ) ;
#346 = PLANE ( 'NONE',  #349 ) ;
#347 = DATE_AND_TIME ( #662, #158 ) ;
#348 = ORIENTED_EDGE ( 'NONE', *, *, #711, .F. ) ;
#349 = AXIS2_PLACEMENT_3D ( 'NONE', #791, #102, #404 ) ;
#350 = CIRCLE ( 'NONE', #682, 0.4500000000000000666 ) ;
#351 = AXIS2_PLACEMENT_3D ( 'NONE', #690, #703, #142 ) ;
#352 = CARTESIAN_POINT ( 'NONE',  ( 0.2500000000000000000, 0.000000000000000000, 0.000000000000000000 ) ) ;
#353 = DIRECTION ( 'NONE',  ( 1.000000000000000000, 0.000000000000000000, 0.000000000000000000 ) ) ;
#354 = DATE_AND_TIME ( #40, #196 ) ;
#355 = ORIENTED_EDGE ( 'NONE', *, *, #307, .F. ) ;
#356 = CARTESIAN_POINT ( 'NONE',  ( 0.02383520476992136497, 0.5081154990425232887, 0.08420418127780840423 ) ) ;
#357 = EDGE_CURVE ( 'NONE', #397, #591, #800, .T. ) ;
#358 = CARTESIAN_POINT ( 'NONE',  ( 0.1181102400000000052, 0.4249999999999999889, -0.1181102349999999940 ) ) ;
#359 = APPROVAL_DATE_TIME ( #110, #41 ) ;
#360 = ORIENTED_EDGE ( 'NONE', *, *, #74, .T. ) ;
#361 = CARTESIAN_POINT ( 'NONE',  ( 0.01092293042940389348, 0.4853383754072402301, 0.1018086576834752316 ) ) ;
#362 = FACE_OUTER_BOUND ( 'NONE', #749, .T. ) ;
#363 = ORIENTED_EDGE ( 'NONE', *, *, #439, .T. ) ;
#364 = VECTOR ( 'NONE', #333, 39.37007874015748143 ) ;
#365 = VECTOR ( 'NONE', #391, 39.37007874015748143 ) ;
#366 = CARTESIAN_POINT ( 'NONE',  ( 0.02033612607428182673, -0.5029296812371253367, 0.08904689160204469489 ) ) ;
#367 = VERTEX_POINT ( 'NONE', #308 ) ;
#368 = FACE_OUTER_BOUND ( 'NONE', #154, .T. ) ;
#369 = EDGE_LOOP ( 'NONE', ( #493, #609, #249, #547 ) ) ;
#370 = EDGE_CURVE ( 'NONE', #42, #591, #617, .T. ) ;
#371 = CARTESIAN_POINT ( 'NONE',  ( 0.003755792254295434087, -0.4648442997983646130, -0.1114555319641453018 ) ) ;
#372 = ORIENTED_EDGE ( 'NONE', *, *, #149, .T. ) ;
#373 = CARTESIAN_POINT ( 'NONE',  ( 0.04245216523685916427, -0.5289494259706082335, -0.05650143418785352756 ) ) ;
#374 = CIRCLE ( 'NONE', #649, 0.1181102349999999940 ) ;
#375 = ORIENTED_EDGE ( 'NONE', *, *, #29, .F. ) ;
#376 = VECTOR ( 'NONE', #443, 39.37007874015748143 ) ;
#377 = CARTESIAN_POINT ( 'NONE',  ( 0.000000000000000000, 0.000000000000000000, 0.000000000000000000 ) ) ;
#378 = CARTESIAN_POINT ( 'NONE',  ( 0.04617910785378994548, -0.5320398516489667218, 0.05041441955729973612 ) ) ;
#379 = ADVANCED_FACE ( 'NONE', ( #558 ), #730, .F. ) ;
#380 = VERTEX_POINT ( 'NONE', #242 ) ;
#381 = CARTESIAN_POINT ( 'NONE',  ( 0.1181102400000000052, -0.4249999999999999889, -0.05905511999999998873 ) ) ;
#382 = CARTESIAN_POINT ( 'NONE',  ( 0.000000000000000000, -0.4249999999999999889, 0.000000000000000000 ) ) ;
#383 = CARTESIAN_POINT ( 'NONE',  ( 0.000000000000000000, 0.4343234969273467860, -0.1177416664431117366 ) ) ;
#384 = DIRECTION ( 'NONE',  ( 0.000000000000000000, 0.000000000000000000, 1.000000000000000000 ) ) ;
#385 = SECURITY_CLASSIFICATION ( '', '', #715 ) ;
#386 = FACE_OUTER_BOUND ( 'NONE', #482, .T. ) ;
#387 = CARTESIAN_POINT ( 'NONE',  ( 0.2500000000000000000, -0.4249999999999999889, -0.05905511999999998873 ) ) ;
#388 = AXIS2_PLACEMENT_3D ( 'NONE', #223, #726, #605 ) ;
#389 = AXIS2_PLACEMENT_3D ( 'NONE', #717, #768, #410 ) ;
#390 = CYLINDRICAL_SURFACE ( 'NONE', #723, 0.05900000000000000383 ) ;
#391 = DIRECTION ( 'NONE',  ( -1.000000000000000000, -0.000000000000000000, -0.000000000000000000 ) ) ;
#392 = CARTESIAN_POINT ( 'NONE',  ( 0.2500000000000000000, 0.000000000000000000, 0.000000000000000000 ) ) ;
#393 = CARTESIAN_POINT ( 'NONE',  ( 0.2500000000000000000, 0.000000000000000000, 0.000000000000000000 ) ) ;
#394 = EDGE_CURVE ( 'NONE', #313, #52, #215, .T. ) ;
#395 = DIRECTION ( 'NONE',  ( 0.000000000000000000, 0.000000000000000000, 1.000000000000000000 ) ) ;
#396 = LINE ( 'NONE', #80, #364 ) ;
#397 = VERTEX_POINT ( 'NONE', #117 ) ;
#398 = DIRECTION ( 'NONE',  ( -1.000000000000000000, -0.000000000000000000, -0.000000000000000000 ) ) ;
#399 = CARTESIAN_POINT ( 'NONE',  ( 0.2500000000000000000, -0.4249999999999999889, -0.05905511999999998873 ) ) ;
#400 = VERTEX_POINT ( 'NONE', #739 ) ;
#401 = CIRCLE ( 'NONE', #636, 0.1000000000000000194 ) ;
#402 = AXIS2_PLACEMENT_3D ( 'NONE', #53, #801, #676 ) ;
#403 = CARTESIAN_POINT ( 'NONE',  ( 0.1000000000000000056, 0.000000000000000000, 0.5500000000000000444 ) ) ;
#404 = DIRECTION ( 'NONE',  ( 0.000000000000000000, 0.000000000000000000, -1.000000000000000000 ) ) ;
#405 = EDGE_CURVE ( 'NONE', #400, #716, #554, .T. ) ;
#406 = FACE_OUTER_BOUND ( 'NONE', #531, .T. ) ;
#407 = CARTESIAN_POINT ( 'NONE',  ( 0.1181102400000000052, 0.4249999999999999889, -0.05905511999999998873 ) ) ;
#408 = DATE_TIME_ROLE ( 'creation_date' ) ;
#409 = ORIENTED_EDGE ( 'NONE', *, *, #143, .F. ) ;
#410 = DIRECTION ( 'NONE',  ( 0.000000000000000000, 0.000000000000000000, 1.000000000000000000 ) ) ;
#411 = PLANE ( 'NONE',  #321 ) ;
#412 = CALENDAR_DATE ( 2026, 20, 3 ) ;
#413 = ORIENTED_EDGE ( 'NONE', *, *, #405, .F. ) ;
#414 = CIRCLE ( 'NONE', #336, 0.05900000000000000383 ) ;
#415 = AXIS2_PLACEMENT_3D ( 'NONE', #178, #807, #246 ) ;
#416 = EDGE_CURVE ( 'NONE', #712, #159, #472, .T. ) ;
#417 = LOCAL_TIME ( 16, 30, 36.00000000000000000, #522 ) ;
#418 = FACE_OUTER_BOUND ( 'NONE', #681, .T. ) ;
#419 = DIRECTION ( 'NONE',  ( -1.000000000000000000, 0.000000000000000000, 0.000000000000000000 ) ) ;
#420 = PERSON_AND_ORGANIZATION ( #235, #166 ) ;
#421 = VERTEX_POINT ( 'NONE', #505 ) ;
#422 = DIRECTION ( 'NONE',  ( 0.000000000000000000, 0.000000000000000000, 1.000000000000000000 ) ) ;
#423 = CARTESIAN_POINT ( 'NONE',  ( 0.07000000000000000666, 0.000000000000000000, 0.05900000000000000383 ) ) ;
#424 = APPROVAL_DATE_TIME ( #347, #752 ) ;
#425 = ADVANCED_BREP_SHAPE_REPRESENTATION ( 'Bottom Weapon Stack Spacer', ( #461, #623 ), #202 ) ;
#426 = ORIENTED_EDGE ( 'NONE', *, *, #512, .T. ) ;
#427 = CARTESIAN_POINT ( 'NONE',  ( 0.02380873127873803924, -0.5080773244727878613, 0.08424105670184821315 ) ) ;
#428 = PERSON_AND_ORGANIZATION ( #235, #166 ) ;
#429 = ORIENTED_EDGE ( 'NONE', *, *, #694, .T. ) ;
#430 = VECTOR ( 'NONE', #419, 39.37007874015748143 ) ;
#431 = CIRCLE ( 'NONE', #759, 0.1181102349999999940 ) ;
#432 = CARTESIAN_POINT ( 'NONE',  ( 0.03482120886125238124, -0.5215696644612352051, 0.06835611445897701866 ) ) ;
#433 = ORIENTED_EDGE ( 'NONE', *, *, #444, .F. ) ;
#434 = EDGE_CURVE ( 'NONE', #457, #182, #56, .T. ) ;
#435 = CARTESIAN_POINT ( 'NONE',  ( 0.1181102400000000052, -0.4249999999999999889, 0.1181102349999999940 ) ) ;
#436 = EDGE_LOOP ( 'NONE', ( #701, #115, #540, #252 ) ) ;
#437 = CARTESIAN_POINT ( 'NONE',  ( 0.005874412042573354427, -0.4720439354395175591, -0.1085936944046873021 ) ) ;
#438 = ORIENTED_EDGE ( 'NONE', *, *, #626, .T. ) ;
#439 = EDGE_CURVE ( 'NONE', #288, #668, #509, .T. ) ;
#440 = VECTOR ( 'NONE', #144, 39.37007874015748143 ) ;
#441 = DIRECTION ( 'NONE',  ( 1.000000000000000000, 0.000000000000000000, 0.000000000000000000 ) ) ;
#442 = ORIENTED_EDGE ( 'NONE', *, *, #266, .T. ) ;
#443 = DIRECTION ( 'NONE',  ( -1.000000000000000000, -0.000000000000000000, -0.000000000000000000 ) ) ;
#444 = EDGE_CURVE ( 'NONE', #42, #310, #13, .T. ) ;
#445 = CARTESIAN_POINT ( 'NONE',  ( 0.1181102400000000052, 0.4249999999999999889, 0.05905511999999998873 ) ) ;
#446 = ORIENTED_EDGE ( 'NONE', *, *, #626, .F. ) ;
#447 = APPLICATION_PROTOCOL_DEFINITION ( 'international standard', 'config_control_design', 1994, #519 ) ;
#448 = FACE_OUTER_BOUND ( 'NONE', #808, .T. ) ;
#449 = LINE ( 'NONE', #459, #532 ) ;
#450 = CARTESIAN_POINT ( 'NONE',  ( 0.2500000000000000000, -0.4249999999999999889, 0.000000000000000000 ) ) ;
#451 = DIRECTION ( 'NONE',  ( -1.000000000000000000, 0.000000000000000000, 0.000000000000000000 ) ) ;
#452 = AXIS2_PLACEMENT_3D ( 'NONE', #695, #75, #82 ) ;
#453 = EDGE_CURVE ( 'NONE', #133, #37, #253, .T. ) ;
#454 = CARTESIAN_POINT ( 'NONE',  ( 0.2500000000000000000, 0.000000000000000000, 0.2362204700000000157 ) ) ;
#455 = DIRECTION ( 'NONE',  ( 0.000000000000000000, 0.000000000000000000, 1.000000000000000000 ) ) ;
#456 = FACE_OUTER_BOUND ( 'NONE', #262, .T. ) ;
#457 = VERTEX_POINT ( 'NONE', #445 ) ;
#458 = DIRECTION ( 'NONE',  ( -1.000000000000000000, 0.000000000000000000, 0.000000000000000000 ) ) ;
#459 = CARTESIAN_POINT ( 'NONE',  ( 0.2500000000000000000, -0.4249999999999999889, 0.05905511999999998873 ) ) ;
#460 = CARTESIAN_POINT ( 'NONE',  ( 0.005870504646474319736, 0.4720284346724076263, -0.1085990033499098367 ) ) ;
#461 = MANIFOLD_SOLID_BREP ( 'Boss-Extrude2', #611 ) ;
#462 = DIRECTION ( 'NONE',  ( -1.000000000000000000, -0.000000000000000000, -0.000000000000000000 ) ) ;
#463 = EDGE_CURVE ( 'NONE', #793, #692, #664, .T. ) ;
#464 = LINE ( 'NONE', #129, #306 ) ;
#465 = EDGE_LOOP ( 'NONE', ( #226, #773, #426, #557, #328, #302 ) ) ;
#466 = VECTOR ( 'NONE', #718, 39.37007874015748143 ) ;
#467 = AXIS2_PLACEMENT_3D ( 'NONE', #639, #637, #256 ) ;
#468 = FACE_OUTER_BOUND ( 'NONE', #607, .T. ) ;
#469 = FACE_OUTER_BOUND ( 'NONE', #490, .T. ) ;
#470 = APPROVAL_ROLE ( '' ) ;
#471 = EDGE_CURVE ( 'NONE', #728, #121, #322, .T. ) ;
#472 = B_SPLINE_CURVE_WITH_KNOTS ( 'NONE', 3,
 ( #491, #733, #549, #371, #437, #680, #561, #625, #678, #120, #684, #373, #804, #742, #174, #736, #58, #62, #312, #240, #248, #503, #186, #378, #629, #432, #114, #427, #366, #48, #301, #6, #763, #251, #207, #523 ),
 .UNSPECIFIED., .F., .F.,
 ( 4, 2, 2, 2, 2, 2, 2, 2, 2, 2, 2, 2, 2, 2, 2, 2, 2, 4 ),
 ( 2.346194223249910497E-20, 0.0005978640603410345037, 0.001195728120682069007, 0.001793592181023103294, 0.002391456241364138015, 0.002989320301705173169, 0.003587184362046207456, 0.004185048422387242610, 0.004782912482728277764, 0.005081844512898794908, 0.005380776543069312919, 0.005978640603410347205, 0.006576504663751381492, 0.007174368724092414912, 0.007772232784433450066, 0.008370096844774485220, 0.008967960905115519507, 0.009565824965456553794 ),
 .UNSPECIFIED. ) ;
#473 = EDGE_LOOP ( 'NONE', ( #33, #140, #363, #221, #108, #651 ) ) ;
#474 = CARTESIAN_POINT ( 'NONE',  ( 0.01384783242651269758, 0.4914771529445174925, -0.09789367833572033828 ) ) ;
#475 = CARTESIAN_POINT ( 'NONE',  ( -5.252271228053240140E-18, 0.4422825960419423663, 0.1171114168604354411 ) ) ;
#476 = DIRECTION ( 'NONE',  ( -1.000000000000000000, 0.000000000000000000, 0.000000000000000000 ) ) ;
#477 = DIRECTION ( 'NONE',  ( 1.000000000000000000, 0.000000000000000000, 0.000000000000000000 ) ) ;
#478 = ORIENTED_EDGE ( 'NONE', *, *, #796, .T. ) ;
#479 = DIRECTION ( 'NONE',  ( 0.000000000000000000, 0.000000000000000000, 1.000000000000000000 ) ) ;
#480 = DIRECTION ( 'NONE',  ( 1.000000000000000000, 0.000000000000000000, 0.000000000000000000 ) ) ;
#481 = PERSON_AND_ORGANIZATION_ROLE ( 'design_supplier' ) ;
#482 = EDGE_LOOP ( 'NONE', ( #126, #657 ) ) ;
#483 = AXIS2_PLACEMENT_3D ( 'NONE', #66, #581, #276 ) ;
#484 = ADVANCED_FACE ( 'NONE', ( #751 ), #4, .F. ) ;
#485 = AXIS2_PLACEMENT_3D ( 'NONE', #450, #264, #579 ) ;
#486 = EDGE_CURVE ( 'NONE', #72, #380, #708, .T. ) ;
#487 = AXIS2_PLACEMENT_3D ( 'NONE', #393, #750, #130 ) ;
#488 = LINE ( 'NONE', #152, #188 ) ;
#489 = CARTESIAN_POINT ( 'NONE',  ( 0.1000000000000000056, 0.000000000000000000, 0.000000000000000000 ) ) ;
#490 = EDGE_LOOP ( 'NONE', ( #798, #721 ) ) ;
#491 = CARTESIAN_POINT ( 'NONE',  ( 0.000000000000000000, -0.4343234969273467860, -0.1177416664431117366 ) ) ;
#492 = APPROVAL_STATUS ( 'not_yet_approved' ) ;
#493 = ORIENTED_EDGE ( 'NONE', *, *, #160, .F. ) ;
#494 = ADVANCED_FACE ( 'NONE', ( #338, #386 ), #9, .T. ) ;
#495 = CARTESIAN_POINT ( 'NONE',  ( 0.1000000000000000056, 0.000000000000000000, 0.000000000000000000 ) ) ;
#496 = ORIENTED_EDGE ( 'NONE', *, *, #149, .F. ) ;
#497 = AXIS2_PLACEMENT_3D ( 'NONE', #109, #304, #619 ) ;
#498 = DIRECTION ( 'NONE',  ( 0.000000000000000000, 0.000000000000000000, -1.000000000000000000 ) ) ;
#499 = ORIENTED_EDGE ( 'NONE', *, *, #783, .F. ) ;
#500 = DIRECTION ( 'NONE',  ( -1.000000000000000000, 0.000000000000000000, 0.000000000000000000 ) ) ;
#501 = ORIENTED_EDGE ( 'NONE', *, *, #334, .T. ) ;
#502 = EDGE_CURVE ( 'NONE', #672, #457, #128, .T. ) ;
#503 = CARTESIAN_POINT ( 'NONE',  ( 0.05666836224948920697, -0.5393591910196677830, 0.03045797013156921820 ) ) ;
#504 = ORIENTED_EDGE ( 'NONE', *, *, #370, .F. ) ;
#505 = CARTESIAN_POINT ( 'NONE',  ( 0.000000000000000000, 0.000000000000000000, 0.05900000000000000383 ) ) ;
#506 = VECTOR ( 'NONE', #181, 39.37007874015748143 ) ;
#507 = EDGE_LOOP ( 'NONE', ( #49, #112 ) ) ;
#508 =( NAMED_UNIT ( * ) SI_UNIT ( $, .STERADIAN. ) SOLID_ANGLE_UNIT ( ) );
#509 = LINE ( 'NONE', #190, #201 ) ;
#510 = DIRECTION ( 'NONE',  ( 0.000000000000000000, 0.000000000000000000, 1.000000000000000000 ) ) ;
#511 = DIRECTION ( 'NONE',  ( 0.000000000000000000, 0.000000000000000000, 1.000000000000000000 ) ) ;
#512 = EDGE_CURVE ( 'NONE', #37, #712, #281, .T. ) ;
#513 = CARTESIAN_POINT ( 'NONE',  ( 0.1000000000000000056, 0.000000000000000000, 0.000000000000000000 ) ) ;
#514 = EDGE_LOOP ( 'NONE', ( #446, #213, #478, #550 ) ) ;
#515 = DIRECTION ( 'NONE',  ( 0.000000000000000000, 0.000000000000000000, 1.000000000000000000 ) ) ;
#516 = CARTESIAN_POINT ( 'NONE',  ( 0.2500000000000000000, -0.4249999999999999889, 0.05905511999999998873 ) ) ;
#517 = ORIENTED_EDGE ( 'NONE', *, *, #113, .F. ) ;
#518 = AXIS2_PLACEMENT_3D ( 'NONE', #331, #688, #192 ) ;
#519 = APPLICATION_CONTEXT ( 'configuration controlled 3d designs of mechanical parts and assemblies' ) ;
#520 = CIRCLE ( 'NONE', #584, 0.1181102349999999940 ) ;
#521 = ORIENTED_EDGE ( 'NONE', *, *, #624, .T. ) ;
#522 = COORDINATED_UNIVERSAL_TIME_OFFSET ( 8, 0, .BEHIND. ) ;
#523 = CARTESIAN_POINT ( 'NONE',  ( 0.000000000000000000, -0.4343234969273467860, 0.1177416664431116949 ) ) ;
#524 = CARTESIAN_POINT ( 'NONE',  ( 0.1000000000000000056, 5.510910596163090172E-17, 0.4500000000000000666 ) ) ;
#525 = EDGE_CURVE ( 'NONE', #544, #668, #81, .T. ) ;
#526 = CARTESIAN_POINT ( 'NONE',  ( 0.1181102400000000052, 0.4249999999999999889, 0.000000000000000000 ) ) ;
#527 = DIRECTION ( 'NONE',  ( 0.000000000000000000, 0.000000000000000000, 1.000000000000000000 ) ) ;
#528 = ORIENTED_EDGE ( 'NONE', *, *, #113, .T. ) ;
#529 = DIRECTION ( 'NONE',  ( -1.000000000000000000, 0.000000000000000000, 0.000000000000000000 ) ) ;
#530 = CARTESIAN_POINT ( 'NONE',  ( 0.2500000000000000000, 6.735557395310443749E-17, -0.5500000000000000444 ) ) ;
#531 = EDGE_LOOP ( 'NONE', ( #429, #305 ) ) ;
#532 = VECTOR ( 'NONE', #648, 39.37007874015748143 ) ;
#533 = AXIS2_PLACEMENT_3D ( 'NONE', #138, #458, #586 ) ;
#534 = DIRECTION ( 'NONE',  ( -1.000000000000000000, -0.000000000000000000, -0.000000000000000000 ) ) ;
#535 = DIRECTION ( 'NONE',  ( 0.000000000000000000, 0.000000000000000000, 1.000000000000000000 ) ) ;
#536 = ORIENTED_EDGE ( 'NONE', *, *, #548, .F. ) ;
#537 = DIRECTION ( 'NONE',  ( -1.000000000000000000, 0.000000000000000000, 0.000000000000000000 ) ) ;
#538 = DIRECTION ( 'NONE',  ( 0.000000000000000000, 0.000000000000000000, -1.000000000000000000 ) ) ;
#539 = APPROVAL_STATUS ( 'not_yet_approved' ) ;
#540 = ORIENTED_EDGE ( 'NONE', *, *, #525, .T. ) ;
#541 = CARTESIAN_POINT ( 'NONE',  ( 0.02380873127873803924, 0.5080773244727878613, -0.08424105670184821315 ) ) ;
#542 = DIRECTION ( 'NONE',  ( 0.000000000000000000, 0.000000000000000000, 1.000000000000000000 ) ) ;
#543 = DIRECTION ( 'NONE',  ( -1.000000000000000000, -0.000000000000000000, -0.000000000000000000 ) ) ;
#544 = VERTEX_POINT ( 'NONE', #642 ) ;
#545 = AXIS2_PLACEMENT_3D ( 'NONE', #779, #537, #422 ) ;
#546 = LINE ( 'NONE', #358, #466 ) ;
#547 = ORIENTED_EDGE ( 'NONE', *, *, #453, .T. ) ;
#548 = EDGE_CURVE ( 'NONE', #54, #559, #696, .T. ) ;
#549 = CARTESIAN_POINT ( 'NONE',  ( 0.0008310306409503842020, -0.4499621562714457568, -0.1157013162678476176 ) ) ;
#550 = ORIENTED_EDGE ( 'NONE', *, *, #10, .T. ) ;
#551 = DIRECTION ( 'NONE',  ( 0.000000000000000000, 0.000000000000000000, 1.000000000000000000 ) ) ;
#552 = PRODUCT_DEFINITION ( 'UNKNOWN', '', #330, #283 ) ;
#553 = ORIENTED_EDGE ( 'NONE', *, *, #143, .T. ) ;
#554 = CIRCLE ( 'NONE', #146, 0.2362204700000000157 ) ;
#555 = DIRECTION ( 'NONE',  ( -1.000000000000000000, -0.000000000000000000, -0.000000000000000000 ) ) ;
#556 = ADVANCED_FACE ( 'NONE', ( #448 ), #631, .F. ) ;
#557 = ORIENTED_EDGE ( 'NONE', *, *, #416, .T. ) ;
#558 = FACE_OUTER_BOUND ( 'NONE', #465, .T. ) ;
#559 = VERTEX_POINT ( 'NONE', #516 ) ;
#560 = CARTESIAN_POINT ( 'NONE',  ( 0.07000000000000000666, 0.000000000000000000, 0.000000000000000000 ) ) ;
#561 = CARTESIAN_POINT ( 'NONE',  ( 0.01390605671147142341, -0.4915889601876647919, -0.09781495420897322324 ) ) ;
#562 = EDGE_LOOP ( 'NONE', ( #343, #517 ) ) ;
#563 = CC_DESIGN_APPROVAL ( #752, ( #330 ) ) ;
#564 = CARTESIAN_POINT ( 'NONE',  ( 0.04617910785378994548, 0.5320398516489667218, -0.05041441955729973612 ) ) ;
#565 = B_SPLINE_CURVE_WITH_KNOTS ( 'NONE', 3,
 ( #222, #475, #100, #705, #106, #361, #155, #275, #356, #147, #85, #604, #38, #289, #341, #589, #23, #790, #729, #613, #250, #575, #687, #564, #89, #99, #141, #541, #27, #474, #659, #460, #645, #18, #274, #294 ),
 .UNSPECIFIED., .F., .F.,
 ( 4, 2, 2, 2, 2, 2, 2, 2, 2, 2, 2, 2, 2, 2, 2, 2, 2, 4 ),
 ( 2.346194223249910497E-20, 0.0005978640603410345037, 0.001195728120682069007, 0.001793592181023103294, 0.002391456241364138015, 0.002989320301705173169, 0.003587184362046207456, 0.004185048422387242610, 0.004782912482728277764, 0.005081844512898794908, 0.005380776543069312919, 0.005978640603410347205, 0.006576504663751381492, 0.007174368724092414912, 0.007772232784433450066, 0.008370096844774485220, 0.008967960905115519507, 0.009565824965456553794 ),
 .UNSPECIFIED. ) ;
#566 = AXIS2_PLACEMENT_3D ( 'NONE', #767, #577, #11 ) ;
#567 = CARTESIAN_POINT ( 'NONE',  ( 0.2500000000000000000, -0.4249999999999999889, 0.000000000000000000 ) ) ;
#568 = AXIS2_PLACEMENT_3D ( 'NONE', #567, #70, #65 ) ;
#569 = FACE_OUTER_BOUND ( 'NONE', #191, .T. ) ;
#570 = ADVANCED_FACE ( 'NONE', ( #319 ), #760, .T. ) ;
#571 = DIRECTION ( 'NONE',  ( 0.000000000000000000, 0.000000000000000000, 1.000000000000000000 ) ) ;
#572 = CARTESIAN_POINT ( 'NONE',  ( 0.1181102400000000052, 0.4249999999999999889, 0.000000000000000000 ) ) ;
#573 = ORIENTED_EDGE ( 'NONE', *, *, #59, .F. ) ;
#574 = CARTESIAN_POINT ( 'NONE',  ( 0.000000000000000000, 0.4249999999999999889, 0.000000000000000000 ) ) ;
#575 = CARTESIAN_POINT ( 'NONE',  ( 0.05666836224948920697, 0.5393591910196677830, -0.03045797013156921820 ) ) ;
#576 = CARTESIAN_POINT ( 'NONE',  ( 0.07000000000000000666, 0.000000000000000000, 0.000000000000000000 ) ) ;
#577 = DIRECTION ( 'NONE',  ( 1.000000000000000000, 0.000000000000000000, 0.000000000000000000 ) ) ;
#578 = FACE_OUTER_BOUND ( 'NONE', #187, .T. ) ;
#579 = DIRECTION ( 'NONE',  ( 0.000000000000000000, 0.000000000000000000, 1.000000000000000000 ) ) ;
#580 = CIRCLE ( 'NONE', #720, 0.2362204700000000157 ) ;
#581 = DIRECTION ( 'NONE',  ( -1.000000000000000000, 0.000000000000000000, 0.000000000000000000 ) ) ;
#582 = VECTOR ( 'NONE', #660, 39.37007874015748143 ) ;
#583 = ADVANCED_FACE ( 'NONE', ( #699, #406 ), #28, .T. ) ;
#584 = AXIS2_PLACEMENT_3D ( 'NONE', #574, #635, #326 ) ;
#585 = EDGE_LOOP ( 'NONE', ( #247, #757 ) ) ;
#586 = DIRECTION ( 'NONE',  ( 0.000000000000000000, 0.000000000000000000, 1.000000000000000000 ) ) ;
#587 = DIRECTION ( 'NONE',  ( -1.000000000000000000, 0.000000000000000000, 0.000000000000000000 ) ) ;
#588 = CC_DESIGN_PERSON_AND_ORGANIZATION_ASSIGNMENT ( #231, #218, ( #330 ) ) ;
#589 = CARTESIAN_POINT ( 'NONE',  ( 0.06183630803721577168, 0.5422962003191975633, 0.01573311474212140196 ) ) ;
#590 = DIRECTION ( 'NONE',  ( 1.000000000000000000, 0.000000000000000000, 0.000000000000000000 ) ) ;
#591 = VERTEX_POINT ( 'NONE', #403 ) ;
#592 = CARTESIAN_POINT ( 'NONE',  ( 0.1181102400000000052, -0.4249999999999999889, 0.000000000000000000 ) ) ;
#593 = FACE_BOUND ( 'NONE', #170, .T. ) ;
#594 = DATE_TIME_ROLE ( 'classification_date' ) ;
#595 = ORIENTED_EDGE ( 'NONE', *, *, #702, .T. ) ;
#596 = CIRCLE ( 'NONE', #95, 0.05900000000000000383 ) ;
#597 = AXIS2_PLACEMENT_3D ( 'NONE', #576, #14, #395 ) ;
#598 = CARTESIAN_POINT ( 'NONE',  ( 0.1181102400000000052, -0.4249999999999999889, 0.000000000000000000 ) ) ;
#599 = EDGE_CURVE ( 'NONE', #288, #87, #431, .T. ) ;
#600 = DIRECTION ( 'NONE',  ( 0.000000000000000000, 0.000000000000000000, -1.000000000000000000 ) ) ;
#601 = APPLICATION_PROTOCOL_DEFINITION ( 'international standard', 'config_control_design', 1994, #303 ) ;
#602 = ORIENTED_EDGE ( 'NONE', *, *, #486, .F. ) ;
#603 = DIMENSIONAL_EXPONENTS ( 1.000000000000000000, 0.000000000000000000, 0.000000000000000000, 0.000000000000000000, 0.000000000000000000, 0.000000000000000000, 0.000000000000000000 ) ;
#604 = CARTESIAN_POINT ( 'NONE',  ( 0.04245216523685916427, 0.5289494259706082335, 0.05650143418785352756 ) ) ;
#605 = DIRECTION ( 'NONE',  ( 0.000000000000000000, 8.881784197001252323E-16, -1.000000000000000000 ) ) ;
#606 = SHAPE_DEFINITION_REPRESENTATION ( #64, #425 ) ;
#607 = EDGE_LOOP ( 'NONE', ( #409, #433, #209, #105 ) ) ;
#608 = DIRECTION ( 'NONE',  ( 0.000000000000000000, 0.000000000000000000, 1.000000000000000000 ) ) ;
#609 = ORIENTED_EDGE ( 'NONE', *, *, #694, .F. ) ;
#610 = EDGE_CURVE ( 'NONE', #692, #71, #161, .T. ) ;
#611 = CLOSED_SHELL ( 'NONE', ( #747, #206, #299, #484, #379, #806, #570, #658, #724, #255, #282, #634, #273, #494, #643, #583, #556, #344, #119, #317, #171 ) ) ;
#612 = AXIS2_PLACEMENT_3D ( 'NONE', #197, #748, #327 ) ;
#613 = CARTESIAN_POINT ( 'NONE',  ( 0.06159931044473741096, 0.5421221977148309445, -0.01573394439503406073 ) ) ;
#614 = DIRECTION ( 'NONE',  ( 0.000000000000000000, 0.000000000000000000, -1.000000000000000000 ) ) ;
#615 = PERSON_AND_ORGANIZATION_ROLE ( 'classification_officer' ) ;
#616 = ORIENTED_EDGE ( 'NONE', *, *, #670, .T. ) ;
#617 = LINE ( 'NONE', #315, #622 ) ;
#618 = EDGE_LOOP ( 'NONE', ( #765, #627 ) ) ;
#619 = DIRECTION ( 'NONE',  ( 0.000000000000000000, 0.000000000000000000, 1.000000000000000000 ) ) ;
#620 = ORIENTED_EDGE ( 'NONE', *, *, #525, .F. ) ;
#621 = CIRCLE ( 'NONE', #295, 0.1181102349999999940 ) ;
#622 = VECTOR ( 'NONE', #555, 39.37007874015748143 ) ;
#623 = AXIS2_PLACEMENT_3D ( 'NONE', #377, #628, #477 ) ;
#624 = EDGE_CURVE ( 'NONE', #121, #728, #177, .T. ) ;
#625 = CARTESIAN_POINT ( 'NONE',  ( 0.02036756146152561217, -0.5029760065298443106, -0.08900335550660783135 ) ) ;
#626 = EDGE_CURVE ( 'NONE', #400, #367, #216, .T. ) ;
#627 = ORIENTED_EDGE ( 'NONE', *, *, #307, .T. ) ;
#628 = DIRECTION ( 'NONE',  ( 0.000000000000000000, 0.000000000000000000, 1.000000000000000000 ) ) ;
#629 = CARTESIAN_POINT ( 'NONE',  ( 0.04241158118204226002, -0.5289151436632435477, 0.05656767093960828052 ) ) ;
#630 = ORIENTED_EDGE ( 'NONE', *, *, #88, .T. ) ;
#631 = CYLINDRICAL_SURFACE ( 'NONE', #568, 0.05905511999999998873 ) ;
#632 = DIRECTION ( 'NONE',  ( -1.000000000000000000, -0.000000000000000000, -0.000000000000000000 ) ) ;
#633 = APPROVAL_PERSON_ORGANIZATION ( #224, #752, #92 ) ;
#634 = ADVANCED_FACE ( 'NONE', ( #468 ), #709, .T. ) ;
#635 = DIRECTION ( 'NONE',  ( -1.000000000000000000, 0.000000000000000000, 0.000000000000000000 ) ) ;
#636 = AXIS2_PLACEMENT_3D ( 'NONE', #7, #753, #136 ) ;
#637 = DIRECTION ( 'NONE',  ( -1.000000000000000000, 0.000000000000000000, 0.000000000000000000 ) ) ;
#638 = CARTESIAN_POINT ( 'NONE',  ( 0.1181102400000000052, 0.4249999999999999889, -0.1181102349999999940 ) ) ;
#639 = CARTESIAN_POINT ( 'NONE',  ( 0.000000000000000000, 0.4249999999999999889, 0.000000000000000000 ) ) ;
#640 = DIRECTION ( 'NONE',  ( 0.000000000000000000, 1.224646799147353454E-16, 1.000000000000000000 ) ) ;
#641 = LENGTH_MEASURE_WITH_UNIT ( LENGTH_MEASURE( 0.02539999999999999897 ), #137 );
#642 = CARTESIAN_POINT ( 'NONE',  ( 0.000000000000000000, 0.4249999999999999889, -0.1181102349999999940 ) ) ;
#643 = ADVANCED_FACE ( 'NONE', ( #713 ), #90, .F. ) ;
#644 = DIRECTION ( 'NONE',  ( -1.000000000000000000, 0.000000000000000000, 0.000000000000000000 ) ) ;
#645 = CARTESIAN_POINT ( 'NONE',  ( 0.003751302804971468584, 0.4648252767710284727, -0.1114618160941941161 ) ) ;
#646 = DIRECTION ( 'NONE',  ( 0.000000000000000000, 8.881784197001252323E-16, -1.000000000000000000 ) ) ;
#647 = CIRCLE ( 'NONE', #122, 0.5500000000000000444 ) ;
#648 = DIRECTION ( 'NONE',  ( -1.000000000000000000, -0.000000000000000000, -0.000000000000000000 ) ) ;
#649 = AXIS2_PLACEMENT_3D ( 'NONE', #714, #156, #794 ) ;
#650 = CC_DESIGN_PERSON_AND_ORGANIZATION_ASSIGNMENT ( #36, #792, ( #552 ) ) ;
#651 = ORIENTED_EDGE ( 'NONE', *, *, #769, .T. ) ;
#652 = DIRECTION ( 'NONE',  ( 0.000000000000000000, 0.000000000000000000, 1.000000000000000000 ) ) ;
#653 = CARTESIAN_POINT ( 'NONE',  ( 0.000000000000000000, 0.000000000000000000, 0.000000000000000000 ) ) ;
#654 = DIRECTION ( 'NONE',  ( -1.000000000000000000, -0.000000000000000000, -0.000000000000000000 ) ) ;
#655 = DIRECTION ( 'NONE',  ( 0.000000000000000000, 0.000000000000000000, 1.000000000000000000 ) ) ;
#656 = DATE_AND_TIME ( #412, #57 ) ;
#657 = ORIENTED_EDGE ( 'NONE', *, *, #323, .T. ) ;
#658 = ADVANCED_FACE ( 'NONE', ( #418 ), #725, .F. ) ;
#659 = CARTESIAN_POINT ( 'NONE',  ( 0.01090202439170631817, 0.4852885084638033364, -0.1018366974304476952 ) ) ;
#660 = DIRECTION ( 'NONE',  ( -1.000000000000000000, -0.000000000000000000, -0.000000000000000000 ) ) ;
#661 = FACE_OUTER_BOUND ( 'NONE', #63, .T. ) ;
#662 = CALENDAR_DATE ( 2026, 20, 3 ) ;
#663 = EDGE_LOOP ( 'NONE', ( #536, #372, #84, #335 ) ) ;
#664 = CIRCLE ( 'NONE', #597, 0.05900000000000000383 ) ;
#665 = DIRECTION ( 'NONE',  ( 0.000000000000000000, 0.000000000000000000, 1.000000000000000000 ) ) ;
#666 = FACE_BOUND ( 'NONE', #562, .T. ) ;
#667 = PERSON_AND_ORGANIZATION ( #235, #166 ) ;
#668 = VERTEX_POINT ( 'NONE', #168 ) ;
#669 = CARTESIAN_POINT ( 'NONE',  ( 0.000000000000000000, 0.000000000000000000, 0.000000000000000000 ) ) ;
#670 = EDGE_CURVE ( 'NONE', #159, #805, #350, .T. ) ;
#671 = CARTESIAN_POINT ( 'NONE',  ( 0.2500000000000000000, 0.4249999999999999889, 0.000000000000000000 ) ) ;
#672 = VERTEX_POINT ( 'NONE', #227 ) ;
#673 = LINE ( 'NONE', #435, #506 ) ;
#674 = ORIENTED_EDGE ( 'NONE', *, *, #103, .T. ) ;
#675 = CIRCLE ( 'NONE', #388, 0.4500000000000000666 ) ;
#676 = DIRECTION ( 'NONE',  ( 0.000000000000000000, 0.000000000000000000, 1.000000000000000000 ) ) ;
#677 = ORIENTED_EDGE ( 'NONE', *, *, #234, .F. ) ;
#678 = CARTESIAN_POINT ( 'NONE',  ( 0.02383520476992136497, -0.5081154990425232887, -0.08420418127780840423 ) ) ;
#679 = ORIENTED_EDGE ( 'NONE', *, *, #512, .F. ) ;
#680 = CARTESIAN_POINT ( 'NONE',  ( 0.01092293042940389348, -0.4853383754072402301, -0.1018086576834752316 ) ) ;
#681 = EDGE_LOOP ( 'NONE', ( #630, #438, #244, #173 ) ) ;
#682 = AXIS2_PLACEMENT_3D ( 'NONE', #669, #277, #286 ) ;
#683 = AXIS2_PLACEMENT_3D ( 'NONE', #560, #318, #329 ) ;
#684 = CARTESIAN_POINT ( 'NONE',  ( 0.03489052151119805684, -0.5216416611397711733, -0.06825162677217977425 ) ) ;
#685 = ORIENTED_EDGE ( 'NONE', *, *, #670, .F. ) ;
#686 =( NAMED_UNIT ( * ) PLANE_ANGLE_UNIT ( ) SI_UNIT ( $, .RADIAN. ) );
#687 = CARTESIAN_POINT ( 'NONE',  ( 0.05327789681447543668, 0.5372506173239565141, -0.03740243910125322369 ) ) ;
#688 = DIRECTION ( 'NONE',  ( -1.000000000000000000, 0.000000000000000000, 0.000000000000000000 ) ) ;
#689 = ORIENTED_EDGE ( 'NONE', *, *, #50, .F. ) ;
#690 = CARTESIAN_POINT ( 'NONE',  ( 0.1181102400000000052, -0.4249999999999999889, 0.000000000000000000 ) ) ;
#691 = DIRECTION ( 'NONE',  ( 1.000000000000000000, 0.000000000000000000, 0.000000000000000000 ) ) ;
#692 = VERTEX_POINT ( 'NONE', #774 ) ;
#693 = DIRECTION ( 'NONE',  ( -1.000000000000000000, 0.000000000000000000, 0.000000000000000000 ) ) ;
#694 = EDGE_CURVE ( 'NONE', #52, #313, #788, .T. ) ;
#695 = CARTESIAN_POINT ( 'NONE',  ( 0.000000000000000000, -0.4249999999999999889, 0.000000000000000000 ) ) ;
#696 = CIRCLE ( 'NONE', #485, 0.05905511999999998873 ) ;
#697 = DIRECTION ( 'NONE',  ( -1.000000000000000000, 0.000000000000000000, 0.000000000000000000 ) ) ;
#698 = CYLINDRICAL_SURFACE ( 'NONE', #269, 0.1181102349999999940 ) ;
#699 = FACE_BOUND ( 'NONE', #118, .T. ) ;
#700 = CARTESIAN_POINT ( 'NONE',  ( 0.000000000000000000, -0.4249999999999999889, 0.1181102349999999940 ) ) ;
#701 = ORIENTED_EDGE ( 'NONE', *, *, #323, .F. ) ;
#702 = EDGE_CURVE ( 'NONE', #732, #182, #488, .T. ) ;
#703 = DIRECTION ( 'NONE',  ( -1.000000000000000000, 0.000000000000000000, 0.000000000000000000 ) ) ;
#704 = DIRECTION ( 'NONE',  ( 0.000000000000000000, 0.000000000000000000, 1.000000000000000000 ) ) ;
#705 = CARTESIAN_POINT ( 'NONE',  ( 0.003755792254295434087, 0.4648442997983646130, 0.1114555319641453018 ) ) ;
#706 = CIRCLE ( 'NONE', #162, 0.05905511999999998873 ) ;
#707 = DIRECTION ( 'NONE',  ( -1.000000000000000000, -0.000000000000000000, -0.000000000000000000 ) ) ;
#708 = CIRCLE ( 'NONE', #722, 0.4500000000000000666 ) ;
#709 = CYLINDRICAL_SURFACE ( 'NONE', #163, 0.5500000000000000444 ) ;
#710 = CARTESIAN_POINT ( 'NONE',  ( 0.07000000000000000666, 0.000000000000000000, 0.000000000000000000 ) ) ;
#711 = EDGE_CURVE ( 'NONE', #176, #72, #565, .T. ) ;
#712 = VERTEX_POINT ( 'NONE', #180 ) ;
#713 = FACE_OUTER_BOUND ( 'NONE', #369, .T. ) ;
#714 = CARTESIAN_POINT ( 'NONE',  ( 0.1181102400000000052, 0.4249999999999999889, 0.000000000000000000 ) ) ;
#715 = SECURITY_CLASSIFICATION_LEVEL ( 'unclassified' ) ;
#716 = VERTEX_POINT ( 'NONE', #803 ) ;
#717 = CARTESIAN_POINT ( 'NONE',  ( 0.1181102400000000052, -0.4249999999999999889, 0.000000000000000000 ) ) ;
#718 = DIRECTION ( 'NONE',  ( -1.000000000000000000, -0.000000000000000000, -0.000000000000000000 ) ) ;
#719 = MECHANICAL_CONTEXT ( 'NONE', #519, 'mechanical' ) ;
#720 = AXIS2_PLACEMENT_3D ( 'NONE', #392, #756, #198 ) ;
#721 = ORIENTED_EDGE ( 'NONE', *, *, #738, .F. ) ;
#722 = AXIS2_PLACEMENT_3D ( 'NONE', #79, #398, #646 ) ;
#723 = AXIS2_PLACEMENT_3D ( 'NONE', #200, #693, #384 ) ;
#724 = ADVANCED_FACE ( 'NONE', ( #73 ), #127, .F. ) ;
#725 = CYLINDRICAL_SURFACE ( 'NONE', #337, 0.2362204700000000157 ) ;
#726 = DIRECTION ( 'NONE',  ( -1.000000000000000000, -0.000000000000000000, -0.000000000000000000 ) ) ;
#727 = PERSON_AND_ORGANIZATION ( #235, #166 ) ;
#728 = VERTEX_POINT ( 'NONE', #381 ) ;
#729 = CARTESIAN_POINT ( 'NONE',  ( 0.06310564523929222680, 0.5429037748722230772, -0.007991625282640085412 ) ) ;
#730 = CYLINDRICAL_SURFACE ( 'NONE', #415, 0.1181102349999999940 ) ;
#731 = CALENDAR_DATE ( 2026, 20, 3 ) ;
#732 = VERTEX_POINT ( 'NONE', #744 ) ;
#733 = CARTESIAN_POINT ( 'NONE',  ( -5.252271228053240140E-18, -0.4422825960419423663, -0.1171114168604354411 ) ) ;
#734 = ORIENTED_EDGE ( 'NONE', *, *, #210, .F. ) ;
#735 = AXIS2_PLACEMENT_3D ( 'NONE', #671, #780, #655 ) ;
#736 = CARTESIAN_POINT ( 'NONE',  ( 0.06183630803721577168, -0.5422962003191975633, -0.01573311474212140196 ) ) ;
#737 = ORIENTED_EDGE ( 'NONE', *, *, #357, .F. ) ;
#738 = EDGE_CURVE ( 'NONE', #367, #167, #124, .T. ) ;
#739 = CARTESIAN_POINT ( 'NONE',  ( 0.2500000000000000000, 2.892866424785834137E-17, -0.2362204700000000157 ) ) ;
#740 = ORIENTED_EDGE ( 'NONE', *, *, #471, .F. ) ;
#741 = FACE_OUTER_BOUND ( 'NONE', #436, .T. ) ;
#742 = CARTESIAN_POINT ( 'NONE',  ( 0.05330338459150135016, -0.5372674155252628037, -0.03735143184392423349 ) ) ;
#743 = ORIENTED_EDGE ( 'NONE', *, *, #610, .F. ) ;
#744 = CARTESIAN_POINT ( 'NONE',  ( 0.2500000000000000000, 0.4249999999999999889, -0.05905511999999998873 ) ) ;
#745 = AXIS2_PLACEMENT_3D ( 'NONE', #208, #644, #704 ) ;
#746 = AXIS2_PLACEMENT_3D ( 'NONE', #86, #543, #230 ) ;
#747 = ADVANCED_FACE ( 'NONE', ( #578 ), #390, .F. ) ;
#748 = DIRECTION ( 'NONE',  ( 1.000000000000000000, 0.000000000000000000, 0.000000000000000000 ) ) ;
#749 = EDGE_LOOP ( 'NONE', ( #205, #595, #754, #26 ) ) ;
#750 = DIRECTION ( 'NONE',  ( -1.000000000000000000, -0.000000000000000000, -0.000000000000000000 ) ) ;
#751 = FACE_OUTER_BOUND ( 'NONE', #663, .T. ) ;
#752 = APPROVAL ( #539, 'UNSPECIFIED' ) ;
#753 = DIRECTION ( 'NONE',  ( 0.000000000000000000, -1.000000000000000000, 0.000000000000000000 ) ) ;
#754 = ORIENTED_EDGE ( 'NONE', *, *, #22, .T. ) ;
#755 = CARTESIAN_POINT ( 'NONE',  ( 0.2500000000000000000, 0.000000000000000000, 0.000000000000000000 ) ) ;
#756 = DIRECTION ( 'NONE',  ( 1.000000000000000000, 0.000000000000000000, 0.000000000000000000 ) ) ;
#757 = ORIENTED_EDGE ( 'NONE', *, *, #22, .F. ) ;
#758 = CIRCLE ( 'NONE', #45, 0.05905511999999998873 ) ;
#759 = AXIS2_PLACEMENT_3D ( 'NONE', #526, #34, #665 ) ;
#760 = CYLINDRICAL_SURFACE ( 'NONE', #772, 0.5500000000000000444 ) ;
#761 = CARTESIAN_POINT ( 'NONE',  ( 0.000000000000000000, 0.4249999999999999889, 0.000000000000000000 ) ) ;
#762 = PERSON_AND_ORGANIZATION ( #235, #166 ) ;
#763 = CARTESIAN_POINT ( 'NONE',  ( 0.003751302804971468584, -0.4648252767710284727, 0.1114618160941941161 ) ) ;
#764 = CARTESIAN_POINT ( 'NONE',  ( 0.2500000000000000000, -0.4249999999999999889, 0.000000000000000000 ) ) ;
#765 = ORIENTED_EDGE ( 'NONE', *, *, #444, .T. ) ;
#766 = CARTESIAN_POINT ( 'NONE',  ( 0.2500000000000000000, 0.000000000000000000, 0.000000000000000000 ) ) ;
#767 = CARTESIAN_POINT ( 'NONE',  ( 0.1000000000000000056, 0.000000000000000000, 0.000000000000000000 ) ) ;
#768 = DIRECTION ( 'NONE',  ( -1.000000000000000000, 0.000000000000000000, 0.000000000000000000 ) ) ;
#769 = EDGE_CURVE ( 'NONE', #72, #544, #520, .T. ) ;
#770 = CIRCLE ( 'NONE', #68, 0.05900000000000000383 ) ;
#771 = CARTESIAN_POINT ( 'NONE',  ( 0.1181102400000000052, -0.4249999999999999889, -0.1181102349999999940 ) ) ;
#772 = AXIS2_PLACEMENT_3D ( 'NONE', #755, #203, #455 ) ;
#773 = ORIENTED_EDGE ( 'NONE', *, *, #160, .T. ) ;
#774 = CARTESIAN_POINT ( 'NONE',  ( 0.07000000000000000666, 7.225416114969384871E-18, -0.05900000000000000383 ) ) ;
#775 = CARTESIAN_POINT ( 'NONE',  ( 0.1181102400000000052, 0.4249999999999999889, 0.1181102349999999940 ) ) ;
#776 = DATE_AND_TIME ( #731, #417 ) ;
#777 = CC_DESIGN_PERSON_AND_ORGANIZATION_ASSIGNMENT ( #428, #481, ( #330 ) ) ;
#778 = ORIENTED_EDGE ( 'NONE', *, *, #548, .T. ) ;
#779 = CARTESIAN_POINT ( 'NONE',  ( 0.1181102400000000052, -0.4249999999999999889, 0.000000000000000000 ) ) ;
#780 = DIRECTION ( 'NONE',  ( -1.000000000000000000, 0.000000000000000000, 0.000000000000000000 ) ) ;
#781 = COORDINATED_UNIVERSAL_TIME_OFFSET ( 8, 0, .BEHIND. ) ;
#782 = ORIENTED_EDGE ( 'NONE', *, *, #624, .F. ) ;
#783 = EDGE_CURVE ( 'NONE', #380, #712, #789, .T. ) ;
#784 = DIRECTION ( 'NONE',  ( -1.000000000000000000, 0.000000000000000000, 0.000000000000000000 ) ) ;
#785 = DIRECTION ( 'NONE',  ( 0.000000000000000000, 0.000000000000000000, 1.000000000000000000 ) ) ;
#786 = TOROIDAL_SURFACE ( 'NONE', #566, 0.4500000000000000666, 0.1000000000000000056 ) ;
#787 = ORIENTED_EDGE ( 'NONE', *, *, #266, .F. ) ;
#788 = CIRCLE ( 'NONE', #545, 0.1181102349999999940 ) ;
#789 = CIRCLE ( 'NONE', #232, 0.4500000000000000666 ) ;
#790 = CARTESIAN_POINT ( 'NONE',  ( 0.06352077751007477457, 0.5431085226859090342, -0.003993549298682773710 ) ) ;
#791 = CARTESIAN_POINT ( 'NONE',  ( 0.000000000000000000, 0.000000000000000000, 0.000000000000000000 ) ) ;
#792 = PERSON_AND_ORGANIZATION_ROLE ( 'creator' ) ;
#793 = VERTEX_POINT ( 'NONE', #1 ) ;
#794 = DIRECTION ( 'NONE',  ( 0.000000000000000000, 0.000000000000000000, 1.000000000000000000 ) ) ;
#795 = ORIENTED_EDGE ( 'NONE', *, *, #260, .F. ) ;
#796 = EDGE_CURVE ( 'NONE', #716, #167, #258, .T. ) ;
#797 = CYLINDRICAL_SURFACE ( 'NONE', #497, 0.05905511999999998873 ) ;
#798 = ORIENTED_EDGE ( 'NONE', *, *, #10, .F. ) ;
#799 = CIRCLE ( 'NONE', #745, 0.1181102349999999940 ) ;
#800 = CIRCLE ( 'NONE', #47, 0.5500000000000000444 ) ;
#801 = DIRECTION ( 'NONE',  ( -1.000000000000000000, 0.000000000000000000, 0.000000000000000000 ) ) ;
#802 = ORIENTED_EDGE ( 'NONE', *, *, #74, .F. ) ;
#803 = CARTESIAN_POINT ( 'NONE',  ( 0.2500000000000000000, 0.000000000000000000, 0.2362204700000000157 ) ) ;
#804 = CARTESIAN_POINT ( 'NONE',  ( 0.04621089519540422241, -0.5320650800694004534, -0.05036040785424805710 ) ) ;
#805 = VERTEX_POINT ( 'NONE', #254 ) ;
#806 = ADVANCED_FACE ( 'NONE', ( #741 ), #698, .F. ) ;
#807 = DIRECTION ( 'NONE',  ( -1.000000000000000000, -0.000000000000000000, -0.000000000000000000 ) ) ;
#808 = EDGE_LOOP ( 'NONE', ( #496, #689, #280, #521 ) ) ;
ENDSEC;
END-ISO-10303-21;
