ISO-10303-21;
HEADER;
FILE_DESCRIPTION (( 'STEP AP203' ),
    '1' );
FILE_NAME ('Chassis Side Wall Design 4.STEP',
    '2026-03-20T23:21:25',
    ( '' ),
    ( '' ),
    'SwSTEP 2.0',
    'SolidWorks 2025',
    '' );
FILE_SCHEMA (( 'CONFIG_CONTROL_DESIGN' ));
ENDSEC;

DATA;
#1 = CC_DESIGN_PERSON_AND_ORGANIZATION_ASSIGNMENT ( #748, #156, ( #776 ) ) ;
#2 = CARTESIAN_POINT ( 'NONE',  ( 0.000000000000000000, -4.000000000000000888, 6.071689949365009831 ) ) ;
#3 = DIRECTION ( 'NONE',  ( 0.000000000000000000, -0.000000000000000000, -1.000000000000000000 ) ) ;
#4 = EDGE_LOOP ( 'NONE', ( #372, #62, #459, #589 ) ) ;
#5 = DIRECTION ( 'NONE',  ( -1.006503700968319522E-18, -7.418412301374844419E-68, -1.000000000000000000 ) ) ;
#6 = DIRECTION ( 'NONE',  ( 0.000000000000000000, 0.000000000000000000, -1.000000000000000000 ) ) ;
#7 = ORIENTED_EDGE ( 'NONE', *, *, #753, .T. ) ;
#8 = EDGE_CURVE ( 'NONE', #145, #75, #843, .T. ) ;
#9 = DIRECTION ( 'NONE',  ( 0.000000000000000000, 0.000000000000000000, -1.000000000000000000 ) ) ;
#10 = CARTESIAN_POINT ( 'NONE',  ( 1.500000000000000222, -0.6250000000000006661, 5.933999999999999275 ) ) ;
#11 = CC_DESIGN_PERSON_AND_ORGANIZATION_ASSIGNMENT ( #837, #181, ( #122 ) ) ;
#12 = ORIENTED_EDGE ( 'NONE', *, *, #476, .F. ) ;
#13 = AXIS2_PLACEMENT_3D ( 'NONE', #301, #818, #704 ) ;
#14 = AXIS2_PLACEMENT_3D ( 'NONE', #539, #69, #332 ) ;
#15 = AXIS2_PLACEMENT_3D ( 'NONE', #249, #775, #522 ) ;
#16 = CARTESIAN_POINT ( 'NONE',  ( 1.500000000000000222, -0.5000000000000006661, 5.750000000000000000 ) ) ;
#17 = CARTESIAN_POINT ( 'NONE',  ( 1.064469073095573259, -3.264469073095572327, 5.999999999999999112 ) ) ;
#18 = ORIENTED_EDGE ( 'NONE', *, *, #164, .F. ) ;
#19 = LINE ( 'NONE', #465, #448 ) ;
#20 = LINE ( 'NONE', #234, #292 ) ;
#21 = LINE ( 'NONE', #38, #473 ) ;
#22 = EDGE_LOOP ( 'NONE', ( #139, #639, #270, #850 ) ) ;
#23 = CARTESIAN_POINT ( 'NONE',  ( 1.499999999999994449, -4.033033724339698090, 6.098440144053435041 ) ) ;
#24 = CARTESIAN_POINT ( 'NONE',  ( 1.499999999999994449, -4.190363865300352764, 5.904153688670410460 ) ) ;
#25 = DIRECTION ( 'NONE',  ( 0.000000000000000000, 0.000000000000000000, -1.000000000000000000 ) ) ;
#26 = ORIENTED_EDGE ( 'NONE', *, *, #667, .F. ) ;
#27 = VERTEX_POINT ( 'NONE', #183 ) ;
#28 = CIRCLE ( 'NONE', #745, 0.05000000000000028727 ) ;
#29 = CARTESIAN_POINT ( 'NONE',  ( 1.499999999999994449, -2.788622276708164094, 5.090735164913510857 ) ) ;
#30 = PRODUCT_DEFINITION_FORMATION_WITH_SPECIFIED_SOURCE ( 'ANY', '', #776, .NOT_KNOWN. ) ;
#31 = AXIS2_PLACEMENT_3D ( 'NONE', #462, #68, #117 ) ;
#32 = CARTESIAN_POINT ( 'NONE',  ( 1.014469073095572993, -3.264469073095572327, 5.750000000000000000 ) ) ;
#33 = DIRECTION ( 'NONE',  ( 1.000000000000000000, 0.000000000000000000, 0.000000000000000000 ) ) ;
#34 = EDGE_CURVE ( 'NONE', #261, #221, #855, .T. ) ;
#35 = CARTESIAN_POINT ( 'NONE',  ( 0.000000000000000000, 0.000000000000000000, 0.000000000000000000 ) ) ;
#36 = DIRECTION ( 'NONE',  ( 0.000000000000000000, 2.185478394682728880E-15, 1.000000000000000000 ) ) ;
#37 = VERTEX_POINT ( 'NONE', #715 ) ;
#38 = CARTESIAN_POINT ( 'NONE',  ( 0.000000000000000000, -4.000000000000000888, 5.999999999999999112 ) ) ;
#39 = ORIENTED_EDGE ( 'NONE', *, *, #119, .T. ) ;
#40 = FACE_BOUND ( 'NONE', #245, .T. ) ;
#41 = AXIS2_PLACEMENT_3D ( 'NONE', #570, #433, #828 ) ;
#42 = DATE_AND_TIME ( #453, #658 ) ;
#43 = VECTOR ( 'NONE', #561, 39.37007874015748143 ) ;
#44 = VERTEX_POINT ( 'NONE', #526 ) ;
#45 = LOCAL_TIME ( 16, 21, 25.00000000000000000, #456 ) ;
#46 = VECTOR ( 'NONE', #450, 39.37007874015748143 ) ;
#47 = ORIENTED_EDGE ( 'NONE', *, *, #109, .T. ) ;
#48 = PERSON_AND_ORGANIZATION_ROLE ( 'creator' ) ;
#49 = ORIENTED_EDGE ( 'NONE', *, *, #157, .F. ) ;
#50 = ADVANCED_FACE ( 'NONE', ( #399, #851, #262, #840, #54, #651 ), #721, .F. ) ;
#51 = ORIENTED_EDGE ( 'NONE', *, *, #614, .T. ) ;
#52 = EDGE_CURVE ( 'NONE', #184, #674, #647, .T. ) ;
#53 = DATE_AND_TIME ( #312, #685 ) ;
#54 = FACE_BOUND ( 'NONE', #509, .T. ) ;
#55 = DIRECTION ( 'NONE',  ( -1.000000000000000000, 0.000000000000000000, 0.000000000000000000 ) ) ;
#56 = ORIENTED_EDGE ( 'NONE', *, *, #398, .T. ) ;
#57 = APPROVAL_DATE_TIME ( #53, #414 ) ;
#58 = CARTESIAN_POINT ( 'NONE',  ( 0.5355309269044281617, -3.264469073095572327, 5.999999999999999112 ) ) ;
#59 = CIRCLE ( 'NONE', #278, 0.05900000000000065609 ) ;
#60 = VECTOR ( 'NONE', #84, 39.37007874015748143 ) ;
#61 = CIRCLE ( 'NONE', #517, 0.2499999999999998057 ) ;
#62 = ORIENTED_EDGE ( 'NONE', *, *, #70, .T. ) ;
#63 = CALENDAR_DATE ( 2026, 20, 3 ) ;
#64 = EDGE_CURVE ( 'NONE', #221, #505, #436, .T. ) ;
#65 = DIRECTION ( 'NONE',  ( 1.000000000000000000, 0.000000000000000000, 0.000000000000000000 ) ) ;
#66 = DIRECTION ( 'NONE',  ( 1.599349773067363121E-18, -0.7771458215321032093, 0.6293205638426194737 ) ) ;
#67 = ORIENTED_EDGE ( 'NONE', *, *, #303, .F. ) ;
#68 = DIRECTION ( 'NONE',  ( 1.000000000000000000, 0.000000000000000000, 0.000000000000000000 ) ) ;
#69 = DIRECTION ( 'NONE',  ( 0.000000000000000000, 0.000000000000000000, -1.000000000000000000 ) ) ;
#70 = EDGE_CURVE ( 'NONE', #37, #369, #530, .T. ) ;
#71 = ORIENTED_EDGE ( 'NONE', *, *, #232, .T. ) ;
#72 = LINE ( 'NONE', #23, #121 ) ;
#73 = CARTESIAN_POINT ( 'NONE',  ( 1.500000000000000222, -0.5000000000000006661, 5.999999999999999112 ) ) ;
#74 = VECTOR ( 'NONE', #746, 39.37007874015748143 ) ;
#75 = VERTEX_POINT ( 'NONE', #124 ) ;
#76 = AXIS2_PLACEMENT_3D ( 'NONE', #351, #211, #618 ) ;
#77 = AXIS2_PLACEMENT_3D ( 'NONE', #636, #113, #490 ) ;
#78 = CARTESIAN_POINT ( 'NONE',  ( 0.5355309269044282727, -2.735530926904427229, 5.750000000000000000 ) ) ;
#79 = CARTESIAN_POINT ( 'NONE',  ( 0.4855309269044280063, -2.735530926904427229, 5.999999999999999112 ) ) ;
#80 = ORIENTED_EDGE ( 'NONE', *, *, #603, .T. ) ;
#81 = EDGE_CURVE ( 'NONE', #273, #829, #383, .T. ) ;
#82 = EDGE_CURVE ( 'NONE', #713, #854, #778, .T. ) ;
#83 = FACE_OUTER_BOUND ( 'NONE', #129, .T. ) ;
#84 = DIRECTION ( 'NONE',  ( 1.000000000000000000, -0.000000000000000000, -0.000000000000000000 ) ) ;
#85 = ORIENTED_EDGE ( 'NONE', *, *, #142, .F. ) ;
#86 = CARTESIAN_POINT ( 'NONE',  ( 0.4855309269044279508, -3.264469073095572327, 5.750000000000000000 ) ) ;
#87 = DIRECTION ( 'NONE',  ( -0.000000000000000000, -0.000000000000000000, 1.000000000000000000 ) ) ;
#88 = ORIENTED_EDGE ( 'NONE', *, *, #81, .F. ) ;
#89 = CIRCLE ( 'NONE', #306, 0.05900000000000065609 ) ;
#90 = SECURITY_CLASSIFICATION ( '', '', #387 ) ;
#91 = CIRCLE ( 'NONE', #616, 0.05899999999999955974 ) ;
#92 = FACE_OUTER_BOUND ( 'NONE', #479, .T. ) ;
#93 = ADVANCED_FACE ( 'NONE', ( #178, #185, #445 ), #454, .T. ) ;
#94 = EDGE_LOOP ( 'NONE', ( #39, #229 ) ) ;
#95 = FACE_BOUND ( 'NONE', #300, .T. ) ;
#96 = DIRECTION ( 'NONE',  ( 1.000000000000000000, -0.000000000000000000, 0.000000000000000000 ) ) ;
#97 = DIRECTION ( 'NONE',  ( -0.000000000000000000, -0.000000000000000000, -1.000000000000000000 ) ) ;
#98 = VERTEX_POINT ( 'NONE', #655 ) ;
#99 = FACE_BOUND ( 'NONE', #94, .T. ) ;
#100 = APPLICATION_PROTOCOL_DEFINITION ( 'international standard', 'config_control_design', 1994, #413 ) ;
#101 = DIRECTION ( 'NONE',  ( 0.000000000000000000, 0.000000000000000000, -1.000000000000000000 ) ) ;
#102 = EDGE_CURVE ( 'NONE', #642, #188, #591, .T. ) ;
#103 = CIRCLE ( 'NONE', #434, 0.05899999999999955974 ) ;
#104 = CARTESIAN_POINT ( 'NONE',  ( 0.4355309269044277953, -2.735530926904427229, 5.999999999999999112 ) ) ;
#105 = CIRCLE ( 'NONE', #325, 0.05899999999999955974 ) ;
#106 =( CONVERSION_BASED_UNIT ( 'INCH', #110 ) LENGTH_UNIT ( ) NAMED_UNIT ( #274 ) );
#107 = DIRECTION ( 'NONE',  ( 0.000000000000000000, 0.000000000000000000, -1.000000000000000000 ) ) ;
#108 = DIRECTION ( 'NONE',  ( -1.000000000000000000, 0.000000000000000000, 0.000000000000000000 ) ) ;
#109 = EDGE_CURVE ( 'NONE', #273, #516, #408, .T. ) ;
#110 = LENGTH_MEASURE_WITH_UNIT ( LENGTH_MEASURE( 0.02539999999999999897 ), #573 );
#111 = DIRECTION ( 'NONE',  ( -0.000000000000000000, -0.000000000000000000, -1.000000000000000000 ) ) ;
#112 = EDGE_LOOP ( 'NONE', ( #47, #213 ) ) ;
#113 = DIRECTION ( 'NONE',  ( -0.000000000000000000, 1.000000000000000000, 0.000000000000000000 ) ) ;
#114 = EDGE_LOOP ( 'NONE', ( #813, #805 ) ) ;
#115 = VERTEX_POINT ( 'NONE', #848 ) ;
#116 = CIRCLE ( 'NONE', #806, 0.05000000000000021788 ) ;
#117 = DIRECTION ( 'NONE',  ( 0.000000000000000000, 0.000000000000000000, -1.000000000000000000 ) ) ;
#118 = VECTOR ( 'NONE', #334, 39.37007874015748854 ) ;
#119 = EDGE_CURVE ( 'NONE', #184, #126, #61, .T. ) ;
#120 = CARTESIAN_POINT ( 'NONE',  ( 0.4855309269044280063, -2.735530926904427229, 5.999999999999999112 ) ) ;
#121 = VECTOR ( 'NONE', #701, 39.37007874015748143 ) ;
#122 = PRODUCT_DEFINITION ( 'UNKNOWN', '', #30, #600 ) ;
#123 = ORIENTED_EDGE ( 'NONE', *, *, #483, .F. ) ;
#124 = CARTESIAN_POINT ( 'NONE',  ( 1.499999999999994449, -4.000000000000000888, 6.071689949365009831 ) ) ;
#125 = DIRECTION ( 'NONE',  ( -0.000000000000000000, -0.000000000000000000, -1.000000000000000000 ) ) ;
#126 = VERTEX_POINT ( 'NONE', #256 ) ;
#127 = DIRECTION ( 'NONE',  ( 0.000000000000000000, 0.000000000000000000, -1.000000000000000000 ) ) ;
#128 = DIRECTION ( 'NONE',  ( 0.000000000000000000, 0.000000000000000000, -1.000000000000000000 ) ) ;
#129 = EDGE_LOOP ( 'NONE', ( #133, #816, #687, #401 ) ) ;
#130 = EDGE_CURVE ( 'NONE', #261, #353, #487, .T. ) ;
#131 = DIRECTION ( 'NONE',  ( 0.000000000000000000, 0.000000000000000000, -1.000000000000000000 ) ) ;
#132 = AXIS2_PLACEMENT_3D ( 'NONE', #339, #416, #606 ) ;
#133 = ORIENTED_EDGE ( 'NONE', *, *, #398, .F. ) ;
#134 = ORIENTED_EDGE ( 'NONE', *, *, #435, .T. ) ;
#135 = CARTESIAN_POINT ( 'NONE',  ( 0.5355309269044282727, -2.735530926904427229, 5.999999999999999112 ) ) ;
#136 = ORIENTED_EDGE ( 'NONE', *, *, #827, .F. ) ;
#137 = DIRECTION ( 'NONE',  ( -1.000000000000000000, 0.000000000000000000, 0.000000000000000000 ) ) ;
#138 = DIRECTION ( 'NONE',  ( 0.000000000000000000, 1.000000000000000000, 0.000000000000000000 ) ) ;
#139 = ORIENTED_EDGE ( 'NONE', *, *, #176, .F. ) ;
#140 = CARTESIAN_POINT ( 'NONE',  ( 1.014469073095572993, -3.264469073095572327, 5.999999999999999112 ) ) ;
#141 = PLANE ( 'NONE',  #515 ) ;
#142 = EDGE_CURVE ( 'NONE', #829, #767, #91, .T. ) ;
#143 = AXIS2_PLACEMENT_3D ( 'NONE', #495, #574, #101 ) ;
#144 = LOCAL_TIME ( 16, 21, 25.00000000000000000, #717 ) ;
#145 = VERTEX_POINT ( 'NONE', #2 ) ;
#146 = LINE ( 'NONE', #480, #118 ) ;
#147 = LINE ( 'NONE', #407, #166 ) ;
#148 = EDGE_LOOP ( 'NONE', ( #293, #357 ) ) ;
#149 = DIRECTION ( 'NONE',  ( -0.000000000000000000, -0.000000000000000000, -1.000000000000000000 ) ) ;
#150 = FACE_OUTER_BOUND ( 'NONE', #22, .T. ) ;
#151 = ORIENTED_EDGE ( 'NONE', *, *, #232, .F. ) ;
#152 = PLANE ( 'NONE',  #562 ) ;
#153 = ORIENTED_EDGE ( 'NONE', *, *, #669, .T. ) ;
#154 = AXIS2_PLACEMENT_3D ( 'NONE', #120, #791, #314 ) ;
#155 = CARTESIAN_POINT ( 'NONE',  ( 0.000000000000000000, -3.875000000000000444, 5.875000000000000000 ) ) ;
#156 = PERSON_AND_ORGANIZATION_ROLE ( 'design_owner' ) ;
#157 = EDGE_CURVE ( 'NONE', #514, #428, #344, .T. ) ;
#158 = FACE_OUTER_BOUND ( 'NONE', #518, .T. ) ;
#159 = ORIENTED_EDGE ( 'NONE', *, *, #524, .F. ) ;
#160 = DIRECTION ( 'NONE',  ( 1.599349773067363121E-18, -0.7771458215321032093, 0.6293205638426194737 ) ) ;
#161 = LINE ( 'NONE', #352, #237 ) ;
#162 = DIRECTION ( 'NONE',  ( 0.000000000000000000, 0.000000000000000000, -1.000000000000000000 ) ) ;
#163 = CARTESIAN_POINT ( 'NONE',  ( 1.014469073095572993, -2.735530926904427229, 5.999999999999999112 ) ) ;
#164 = EDGE_CURVE ( 'NONE', #709, #798, #700, .T. ) ;
#165 = EDGE_CURVE ( 'NONE', #179, #326, #146, .T. ) ;
#166 = VECTOR ( 'NONE', #87, 39.37007874015748143 ) ;
#167 = CYLINDRICAL_SURFACE ( 'NONE', #13, 0.05000000000000028727 ) ;
#168 = DIRECTION ( 'NONE',  ( 0.000000000000000000, 0.000000000000000000, -1.000000000000000000 ) ) ;
#169 = CYLINDRICAL_SURFACE ( 'NONE', #486, 0.05000000000000021788 ) ;
#170 = ORIENTED_EDGE ( 'NONE', *, *, #319, .T. ) ;
#171 = CARTESIAN_POINT ( 'NONE',  ( 0.7500000000000002220, -3.000000000000000444, 5.750000000000000000 ) ) ;
#172 = DATE_TIME_ROLE ( 'creation_date' ) ;
#173 = ORIENTED_EDGE ( 'NONE', *, *, #201, .F. ) ;
#174 = CARTESIAN_POINT ( 'NONE',  ( 0.000000000000000000, -4.033033724339698090, 6.098440144053435041 ) ) ;
#175 = EDGE_LOOP ( 'NONE', ( #471, #555, #645, #801 ) ) ;
#176 = EDGE_CURVE ( 'NONE', #516, #767, #739, .T. ) ;
#177 = APPROVAL_DATE_TIME ( #766, #346 ) ;
#178 = FACE_BOUND ( 'NONE', #744, .T. ) ;
#179 = VERTEX_POINT ( 'NONE', #268 ) ;
#180 = VECTOR ( 'NONE', #458, 39.37007874015748143 ) ;
#181 = PERSON_AND_ORGANIZATION_ROLE ( 'creator' ) ;
#182 = CIRCLE ( 'NONE', #422, 0.05000000000000028727 ) ;
#183 = CARTESIAN_POINT ( 'NONE',  ( 1.500000000000000222, -0.5000000000000006661, 5.750000000000000000 ) ) ;
#184 = VERTEX_POINT ( 'NONE', #418 ) ;
#185 = FACE_BOUND ( 'NONE', #340, .T. ) ;
#186 = CYLINDRICAL_SURFACE ( 'NONE', #644, 0.05000000000000021788 ) ;
#187 = EDGE_CURVE ( 'NONE', #75, #37, #665, .T. ) ;
#188 = VERTEX_POINT ( 'NONE', #271 ) ;
#189 = CALENDAR_DATE ( 2026, 20, 3 ) ;
#190 = CARTESIAN_POINT ( 'NONE',  ( 1.014469073095572993, -2.735530926904427229, 5.999999999999999112 ) ) ;
#191 = CARTESIAN_POINT ( 'NONE',  ( 1.014469073095572993, -3.264469073095572327, 5.999999999999999112 ) ) ;
#192 = ORIENTED_EDGE ( 'NONE', *, *, #204, .T. ) ;
#193 = PRODUCT_RELATED_PRODUCT_CATEGORY ( 'detail', '', ( #776 ) ) ;
#194 = CARTESIAN_POINT ( 'NONE',  ( 0.5000000000000004441, -3.000000000000000444, 5.999999999999999112 ) ) ;
#195 = AXIS2_PLACEMENT_3D ( 'NONE', #247, #128, #389 ) ;
#196 = DIRECTION ( 'NONE',  ( -0.000000000000000000, -0.000000000000000000, -1.000000000000000000 ) ) ;
#197 = ORIENTED_EDGE ( 'NONE', *, *, #835, .F. ) ;
#198 = CARTESIAN_POINT ( 'NONE',  ( 0.000000000000000000, -0.6250000000000006661, 5.816000000000000725 ) ) ;
#199 = DIRECTION ( 'NONE',  ( 1.000000000000000000, 0.000000000000000000, 0.000000000000000000 ) ) ;
#200 = EDGE_LOOP ( 'NONE', ( #280, #56, #404, #592 ) ) ;
#201 = EDGE_CURVE ( 'NONE', #516, #273, #105, .T. ) ;
#202 = DIRECTION ( 'NONE',  ( 0.000000000000000000, 0.000000000000000000, -1.000000000000000000 ) ) ;
#203 = DIRECTION ( 'NONE',  ( 0.000000000000000000, 0.000000000000000000, -1.000000000000000000 ) ) ;
#204 = EDGE_CURVE ( 'NONE', #514, #179, #672, .T. ) ;
#205 = EDGE_LOOP ( 'NONE', ( #547, #576 ) ) ;
#206 = CARTESIAN_POINT ( 'NONE',  ( 0.000000000000000000, -0.5000000000000006661, 5.999999999999999112 ) ) ;
#207 = LINE ( 'NONE', #736, #60 ) ;
#208 = VECTOR ( 'NONE', #368, 39.37007874015748143 ) ;
#209 = CIRCLE ( 'NONE', #597, 0.2499999999999998057 ) ;
#210 = ORIENTED_EDGE ( 'NONE', *, *, #643, .T. ) ;
#211 = DIRECTION ( 'NONE',  ( -0.000000000000000000, -0.000000000000000000, -1.000000000000000000 ) ) ;
#212 = DIRECTION ( 'NONE',  ( 1.000000000000000000, 0.000000000000000000, 0.000000000000000000 ) ) ;
#213 = ORIENTED_EDGE ( 'NONE', *, *, #201, .T. ) ;
#214 = EDGE_CURVE ( 'NONE', #188, #452, #577, .T. ) ;
#215 = DIRECTION ( 'NONE',  ( -1.000000000000000000, -0.000000000000000000, -0.000000000000000000 ) ) ;
#216 = CARTESIAN_POINT ( 'NONE',  ( 1.500000000000000222, -0.6250000000000006661, 5.875000000000000000 ) ) ;
#217 = EDGE_LOOP ( 'NONE', ( #18, #315, #571, #67 ) ) ;
#218 = CARTESIAN_POINT ( 'NONE',  ( 0.4855309269044279508, -3.264469073095572327, 5.750000000000000000 ) ) ;
#219 = MECHANICAL_CONTEXT ( 'NONE', #607, 'mechanical' ) ;
#220 = CARTESIAN_POINT ( 'NONE',  ( 0.000000000000000000, -3.875000000000000444, 5.815999999999998948 ) ) ;
#221 = VERTEX_POINT ( 'NONE', #675 ) ;
#222 = CIRCLE ( 'NONE', #421, 0.05000000000000021788 ) ;
#223 = CC_DESIGN_APPROVAL ( #284, ( #122 ) ) ;
#224 = VECTOR ( 'NONE', #599, 39.37007874015748143 ) ;
#225 = AXIS2_PLACEMENT_3D ( 'NONE', #288, #440, #552 ) ;
#226 = CARTESIAN_POINT ( 'NONE',  ( 1.500000000000000222, -4.000000000000000888, 5.750000000000000000 ) ) ;
#227 = FACE_BOUND ( 'NONE', #112, .T. ) ;
#228 = DIRECTION ( 'NONE',  ( -0.000000000000000000, -0.000000000000000000, -1.000000000000000000 ) ) ;
#229 = ORIENTED_EDGE ( 'NONE', *, *, #820, .T. ) ;
#230 = DIRECTION ( 'NONE',  ( 1.000000000000000000, -0.000000000000000000, -0.000000000000000000 ) ) ;
#231 =( NAMED_UNIT ( * ) PLANE_ANGLE_UNIT ( ) SI_UNIT ( $, .RADIAN. ) );
#232 = EDGE_CURVE ( 'NONE', #333, #707, #477, .T. ) ;
#233 = CYLINDRICAL_SURFACE ( 'NONE', #143, 0.05900000000000065609 ) ;
#234 = CARTESIAN_POINT ( 'NONE',  ( 0.9644690730955727265, -2.735530926904427229, 5.999999999999999112 ) ) ;
#235 = CARTESIAN_POINT ( 'NONE',  ( 1.000000000000000000, -3.000000000000000444, 5.750000000000000000 ) ) ;
#236 = EDGE_LOOP ( 'NONE', ( #254, #668, #267, #151 ) ) ;
#237 = VECTOR ( 'NONE', #442, 39.37007874015748143 ) ;
#238 = DIRECTION ( 'NONE',  ( 0.000000000000000000, 0.000000000000000000, -1.000000000000000000 ) ) ;
#239 = ORGANIZATION ( 'UNSPECIFIED', 'UNSPECIFIED', '' ) ;
#240 = AXIS2_PLACEMENT_3D ( 'NONE', #140, #683, #612 ) ;
#241 = ORIENTED_EDGE ( 'NONE', *, *, #366, .F. ) ;
#242 = FACE_OUTER_BOUND ( 'NONE', #236, .T. ) ;
#243 = EDGE_CURVE ( 'NONE', #27, #290, #538, .T. ) ;
#244 = VERTEX_POINT ( 'NONE', #78 ) ;
#245 = EDGE_LOOP ( 'NONE', ( #719, #248 ) ) ;
#246 = UNCERTAINTY_MEASURE_WITH_UNIT (LENGTH_MEASURE( 1.000000000000000082E-05 ), #106, 'distance_accuracy_value', 'NONE');
#247 = CARTESIAN_POINT ( 'NONE',  ( 0.4855309269044279508, -3.264469073095572327, 5.999999999999999112 ) ) ;
#248 = ORIENTED_EDGE ( 'NONE', *, *, #604, .T. ) ;
#249 = CARTESIAN_POINT ( 'NONE',  ( 1.014469073095572993, -2.735530926904427229, 5.750000000000000000 ) ) ;
#250 = EDGE_LOOP ( 'NONE', ( #197, #580, #49, #192 ) ) ;
#251 = CIRCLE ( 'NONE', #575, 0.05000000000000028727 ) ;
#252 = AXIS2_PLACEMENT_3D ( 'NONE', #35, #96, #432 ) ;
#253 = DIRECTION ( 'NONE',  ( 1.000000000000000000, 0.000000000000000000, 0.000000000000000000 ) ) ;
#254 = ORIENTED_EDGE ( 'NONE', *, *, #581, .F. ) ;
#255 = PERSON_AND_ORGANIZATION_ROLE ( 'classification_officer' ) ;
#256 = CARTESIAN_POINT ( 'NONE',  ( 1.000000000000000000, -3.000000000000000444, 5.999999999999999112 ) ) ;
#257 = LINE ( 'NONE', #523, #684 ) ;
#258 = ADVANCED_FACE ( 'NONE', ( #275 ), #152, .F. ) ;
#259 = ORIENTED_EDGE ( 'NONE', *, *, #810, .F. ) ;
#260 = DIRECTION ( 'NONE',  ( -0.000000000000000000, -0.000000000000000000, -1.000000000000000000 ) ) ;
#261 = VERTEX_POINT ( 'NONE', #281 ) ;
#262 = FACE_BOUND ( 'NONE', #691, .T. ) ;
#263 = VECTOR ( 'NONE', #545, 39.37007874015748143 ) ;
#264 = APPROVAL_PERSON_ORGANIZATION ( #426, #284, #371 ) ;
#265 = DIRECTION ( 'NONE',  ( -1.000000000000000000, 0.000000000000000000, 0.000000000000000000 ) ) ;
#266 = VECTOR ( 'NONE', #593, 39.37007874015748143 ) ;
#267 = ORIENTED_EDGE ( 'NONE', *, *, #622, .T. ) ;
#268 = CARTESIAN_POINT ( 'NONE',  ( 0.000000000000000000, -4.190363865300352764, 5.904153688670410460 ) ) ;
#269 = DIRECTION ( 'NONE',  ( -0.000000000000000000, -0.000000000000000000, -1.000000000000000000 ) ) ;
#270 = ORIENTED_EDGE ( 'NONE', *, *, #81, .T. ) ;
#271 = CARTESIAN_POINT ( 'NONE',  ( 0.5355309269044281617, -3.264469073095572327, 5.750000000000000000 ) ) ;
#272 = DIRECTION ( 'NONE',  ( -1.000000000000000000, 0.000000000000000000, 0.000000000000000000 ) ) ;
#273 = VERTEX_POINT ( 'NONE', #198 ) ;
#274 = DIMENSIONAL_EXPONENTS ( 1.000000000000000000, 0.000000000000000000, 0.000000000000000000, 0.000000000000000000, 0.000000000000000000, 0.000000000000000000, 0.000000000000000000 ) ;
#275 = FACE_OUTER_BOUND ( 'NONE', #682, .T. ) ;
#276 = ADVANCED_FACE ( 'NONE', ( #92 ), #285, .F. ) ;
#277 = PLANE ( 'NONE',  #596 ) ;
#278 = AXIS2_PLACEMENT_3D ( 'NONE', #732, #199, #673 ) ;
#279 = APPROVAL_PERSON_ORGANIZATION ( #771, #346, #382 ) ;
#280 = ORIENTED_EDGE ( 'NONE', *, *, #820, .F. ) ;
#281 = CARTESIAN_POINT ( 'NONE',  ( 1.064469073095573259, -2.735530926904427229, 5.999999999999999112 ) ) ;
#282 = CARTESIAN_POINT ( 'NONE',  ( 1.014469073095572993, -3.264469073095572327, 5.999999999999999112 ) ) ;
#283 = ORIENTED_EDGE ( 'NONE', *, *, #187, .F. ) ;
#284 = APPROVAL ( #493, 'UNSPECIFIED' ) ;
#285 = CYLINDRICAL_SURFACE ( 'NONE', #795, 0.05000000000000028727 ) ;
#286 = LINE ( 'NONE', #220, #180 ) ;
#287 = VERTEX_POINT ( 'NONE', #206 ) ;
#288 = CARTESIAN_POINT ( 'NONE',  ( 1.500000000000000222, -4.000000000000000888, 5.999999999999999112 ) ) ;
#289 = CYLINDRICAL_SURFACE ( 'NONE', #406, 0.05899999999999955974 ) ;
#290 = VERTEX_POINT ( 'NONE', #534 ) ;
#291 = AXIS2_PLACEMENT_3D ( 'NONE', #163, #228, #762 ) ;
#292 = VECTOR ( 'NONE', #689, 39.37007874015748143 ) ;
#293 = ORIENTED_EDGE ( 'NONE', *, *, #694, .F. ) ;
#294 = DIRECTION ( 'NONE',  ( -1.000000000000000000, 0.000000000000000000, 0.000000000000000000 ) ) ;
#295 = ADVANCED_FACE ( 'NONE', ( #83 ), #542, .F. ) ;
#296 = CARTESIAN_POINT ( 'NONE',  ( 0.000000000000000000, 0.000000000000000000, 0.000000000000000000 ) ) ;
#297 = CARTESIAN_POINT ( 'NONE',  ( 0.9644690730955727265, -2.735530926904427229, 5.750000000000000000 ) ) ;
#298 = LINE ( 'NONE', #24, #348 ) ;
#299 = CYLINDRICAL_SURFACE ( 'NONE', #41, 0.05000000000000021788 ) ;
#300 = EDGE_LOOP ( 'NONE', ( #725, #349 ) ) ;
#301 = CARTESIAN_POINT ( 'NONE',  ( 1.014469073095572993, -2.735530926904427229, 5.999999999999999112 ) ) ;
#302 = DIRECTION ( 'NONE',  ( 0.000000000000000000, 0.000000000000000000, -1.000000000000000000 ) ) ;
#303 = EDGE_CURVE ( 'NONE', #798, #764, #19, .T. ) ;
#304 = DIRECTION ( 'NONE',  ( 0.000000000000000000, 0.000000000000000000, -1.000000000000000000 ) ) ;
#305 = ORIENTED_EDGE ( 'NONE', *, *, #476, .T. ) ;
#306 = AXIS2_PLACEMENT_3D ( 'NONE', #438, #33, #25 ) ;
#307 = VECTOR ( 'NONE', #402, 39.37007874015748143 ) ;
#308 = COORDINATED_UNIVERSAL_TIME_OFFSET ( 8, 0, .BEHIND. ) ;
#309 = EDGE_LOOP ( 'NONE', ( #210, #439 ) ) ;
#310 = EDGE_CURVE ( 'NONE', #353, #261, #714, .T. ) ;
#311 = EDGE_LOOP ( 'NONE', ( #649, #625, #443, #423 ) ) ;
#312 = CALENDAR_DATE ( 2026, 20, 3 ) ;
#313 = CARTESIAN_POINT ( 'NONE',  ( 0.2499999999999943379, -4.000000000000000888, 6.071689949365009831 ) ) ;
#314 = DIRECTION ( 'NONE',  ( -1.000000000000000000, 0.000000000000000000, 0.000000000000000000 ) ) ;
#315 = ORIENTED_EDGE ( 'NONE', *, *, #729, .T. ) ;
#316 = PERSON ( 'UNSPECIFIED', 'UNSPECIFIED', 'UNSPECIFIED', ('UNSPECIFIED'), ('UNSPECIFIED'), ('UNSPECIFIED') ) ;
#317 = CARTESIAN_POINT ( 'NONE',  ( 1.500000000000000222, -4.000000000000000888, 5.750000000000000000 ) ) ;
#318 = ORIENTED_EDGE ( 'NONE', *, *, #70, .F. ) ;
#319 = EDGE_CURVE ( 'NONE', #428, #98, #72, .T. ) ;
#320 = PRODUCT_DEFINITION_SHAPE ( 'NONE', 'NONE',  #122 ) ;
#321 = APPROVAL_DATE_TIME ( #42, #284 ) ;
#322 = AXIS2_PLACEMENT_3D ( 'NONE', #296, #553, #565 ) ;
#323 = CARTESIAN_POINT ( 'NONE',  ( 0.000000000000000000, -0.6250000000000006661, 5.875000000000000000 ) ) ;
#324 = ADVANCED_FACE ( 'NONE', ( #365 ), #765, .T. ) ;
#325 = AXIS2_PLACEMENT_3D ( 'NONE', #679, #605, #202 ) ;
#326 = VERTEX_POINT ( 'NONE', #627 ) ;
#327 = PERSON_AND_ORGANIZATION ( #316, #239 ) ;
#328 = CARTESIAN_POINT ( 'NONE',  ( 1.500000000000000222, 0.000000000000000000, 0.000000000000000000 ) ) ;
#329 = LINE ( 'NONE', #845, #528 ) ;
#330 = EDGE_LOOP ( 'NONE', ( #847, #390, #662, #793, #455, #608, #26 ) ) ;
#331 = DIRECTION ( 'NONE',  ( 1.000000000000000000, 0.000000000000000000, -0.000000000000000000 ) ) ;
#332 = DIRECTION ( 'NONE',  ( -1.000000000000000000, 0.000000000000000000, 0.000000000000000000 ) ) ;
#333 = VERTEX_POINT ( 'NONE', #104 ) ;
#334 = DIRECTION ( 'NONE',  ( 0.000000000000000000, 0.7771458215321026541, -0.6293205638426198067 ) ) ;
#335 = DIRECTION ( 'NONE',  ( 0.000000000000000000, 0.6293205638426201398, 0.7771458215321025431 ) ) ;
#336 = AXIS2_PLACEMENT_3D ( 'NONE', #727, #799, #137 ) ;
#337 = EDGE_LOOP ( 'NONE', ( #769, #305, #283, #134, #170, #525, #611 ) ) ;
#338 = CARTESIAN_POINT ( 'NONE',  ( 1.499999999999994449, -2.945952417668818768, 4.896448709530485388 ) ) ;
#339 = CARTESIAN_POINT ( 'NONE',  ( 0.000000000000000000, -0.6250000000000006661, 5.875000000000000000 ) ) ;
#340 = EDGE_LOOP ( 'NONE', ( #85, #533 ) ) ;
#341 = CARTESIAN_POINT ( 'NONE',  ( 0.2499999999999943379, -4.033033724339698090, 6.098440144053435041 ) ) ;
#342 = CARTESIAN_POINT ( 'NONE',  ( 1.500000000000000222, -3.875000000000000444, 5.934000000000001052 ) ) ;
#343 = ORIENTED_EDGE ( 'NONE', *, *, #358, .F. ) ;
#344 = LINE ( 'NONE', #341, #307 ) ;
#345 = CARTESIAN_POINT ( 'NONE',  ( 0.5355309269044282727, -2.735530926904427229, 5.999999999999999112 ) ) ;
#346 = APPROVAL ( #521, 'UNSPECIFIED' ) ;
#347 = CIRCLE ( 'NONE', #559, 0.2499999999999998057 ) ;
#348 = VECTOR ( 'NONE', #634, 39.37007874015748143 ) ;
#349 = ORIENTED_EDGE ( 'NONE', *, *, #130, .T. ) ;
#350 = VECTOR ( 'NONE', #790, 39.37007874015748143 ) ;
#351 = CARTESIAN_POINT ( 'NONE',  ( 0.7500000000000002220, -3.000000000000000444, 5.999999999999999112 ) ) ;
#352 = CARTESIAN_POINT ( 'NONE',  ( 1.500000000000000222, -0.5000000000000006661, 5.999999999999999112 ) ) ;
#353 = VERTEX_POINT ( 'NONE', #503 ) ;
#354 = CARTESIAN_POINT ( 'NONE',  ( 0.000000000000000000, -4.000000000000000888, 5.999999999999999112 ) ) ;
#355 = CARTESIAN_POINT ( 'NONE',  ( 0.2499999999999943379, -2.788622276708164094, 5.090735164913510857 ) ) ;
#356 = CARTESIAN_POINT ( 'NONE',  ( 1.014469073095572993, -3.264469073095572327, 5.750000000000000000 ) ) ;
#357 = ORIENTED_EDGE ( 'NONE', *, *, #622, .F. ) ;
#358 = EDGE_CURVE ( 'NONE', #602, #674, #821, .T. ) ;
#359 = ADVANCED_FACE ( 'NONE', ( #370, #95, #40, #484, #99, #431 ), #826, .F. ) ;
#360 = CARTESIAN_POINT ( 'NONE',  ( 1.499999999999994449, -4.033033724339698090, 6.098440144053435041 ) ) ;
#361 = CARTESIAN_POINT ( 'NONE',  ( 0.4355309269044277398, -3.264469073095572327, 5.750000000000000000 ) ) ;
#362 = CIRCLE ( 'NONE', #844, 0.05900000000000065609 ) ;
#363 = DIRECTION ( 'NONE',  ( 0.000000000000000000, -0.7771458215321043195, 0.6293205638426179194 ) ) ;
#364 = CARTESIAN_POINT ( 'NONE',  ( 1.500000000000000222, -0.6250000000000006661, 5.816000000000000725 ) ) ;
#365 = FACE_OUTER_BOUND ( 'NONE', #4, .T. ) ;
#366 = EDGE_CURVE ( 'NONE', #452, #188, #449, .T. ) ;
#367 = DIRECTION ( 'NONE',  ( 0.000000000000000000, -0.6293205638426194737, -0.7771458215321032093 ) ) ;
#368 = DIRECTION ( 'NONE',  ( -1.000000000000000000, -0.000000000000000000, -0.000000000000000000 ) ) ;
#369 = VERTEX_POINT ( 'NONE', #354 ) ;
#370 = FACE_BOUND ( 'NONE', #309, .T. ) ;
#371 = APPROVAL_ROLE ( '' ) ;
#372 = ORIENTED_EDGE ( 'NONE', *, *, #187, .T. ) ;
#373 = ADVANCED_FACE ( 'NONE', ( #759 ), #557, .F. ) ;
#374 = VECTOR ( 'NONE', #688, 39.37007874015748143 ) ;
#375 = ORIENTED_EDGE ( 'NONE', *, *, #435, .F. ) ;
#376 = AXIS2_PLACEMENT_3D ( 'NONE', #323, #65, #588 ) ;
#377 = AXIS2_PLACEMENT_3D ( 'NONE', #218, #437, #294 ) ;
#378 = COORDINATED_UNIVERSAL_TIME_OFFSET ( 8, 0, .BEHIND. ) ;
#379 = DIRECTION ( 'NONE',  ( 0.000000000000000000, 0.000000000000000000, -1.000000000000000000 ) ) ;
#380 = DIRECTION ( 'NONE',  ( -1.000000000000000000, 0.000000000000000000, 0.000000000000000000 ) ) ;
#381 = ORIENTED_EDGE ( 'NONE', *, *, #310, .F. ) ;
#382 = APPROVAL_ROLE ( '' ) ;
#383 = LINE ( 'NONE', #584, #834 ) ;
#384 = ADVANCED_FACE ( 'NONE', ( #756 ), #167, .F. ) ;
#385 = VERTEX_POINT ( 'NONE', #572 ) ;
#386 = EDGE_CURVE ( 'NONE', #145, #514, #830, .T. ) ;
#387 = SECURITY_CLASSIFICATION_LEVEL ( 'unclassified' ) ;
#388 = CARTESIAN_POINT ( 'NONE',  ( 1.064469073095573259, -2.735530926904427229, 5.999999999999999112 ) ) ;
#389 = DIRECTION ( 'NONE',  ( -1.000000000000000000, 0.000000000000000000, 0.000000000000000000 ) ) ;
#390 = ORIENTED_EDGE ( 'NONE', *, *, #794, .F. ) ;
#391 = CIRCLE ( 'NONE', #14, 0.05000000000000021788 ) ;
#392 = DATE_TIME_ROLE ( 'classification_date' ) ;
#393 = DIRECTION ( 'NONE',  ( -1.000000000000000000, 0.000000000000000000, 0.000000000000000000 ) ) ;
#394 = MANIFOLD_SOLID_BREP ( 'Boss-Extrude4', #747 ) ;
#395 = AXIS2_PLACEMENT_3D ( 'NONE', #86, #9, #410 ) ;
#396 = DIRECTION ( 'NONE',  ( 0.000000000000000000, 0.000000000000000000, -1.000000000000000000 ) ) ;
#397 = ORIENTED_EDGE ( 'NONE', *, *, #130, .F. ) ;
#398 = EDGE_CURVE ( 'NONE', #126, #602, #640, .T. ) ;
#399 = FACE_BOUND ( 'NONE', #148, .T. ) ;
#400 = FACE_OUTER_BOUND ( 'NONE', #564, .T. ) ;
#401 = ORIENTED_EDGE ( 'NONE', *, *, #483, .T. ) ;
#402 = DIRECTION ( 'NONE',  ( 1.000000000000000000, 0.000000000000000000, 0.000000000000000000 ) ) ;
#403 = CARTESIAN_POINT ( 'NONE',  ( 1.500000000000000222, -3.875000000000000444, 5.875000000000000000 ) ) ;
#404 = ORIENTED_EDGE ( 'NONE', *, *, #358, .T. ) ;
#405 = CARTESIAN_POINT ( 'NONE',  ( 1.499999999999994449, -4.000000000000000888, 5.090735164913510857 ) ) ;
#406 = AXIS2_PLACEMENT_3D ( 'NONE', #697, #558, #168 ) ;
#407 = CARTESIAN_POINT ( 'NONE',  ( 0.000000000000000000, -0.5000000000000006661, 5.999999999999999112 ) ) ;
#408 = CIRCLE ( 'NONE', #376, 0.05899999999999955974 ) ;
#409 = ORIENTED_EDGE ( 'NONE', *, *, #102, .T. ) ;
#410 = DIRECTION ( 'NONE',  ( -1.000000000000000000, 0.000000000000000000, 0.000000000000000000 ) ) ;
#411 = DIRECTION ( 'NONE',  ( -1.000000000000000000, 0.000000000000000000, 0.000000000000000000 ) ) ;
#412 = ORIENTED_EDGE ( 'NONE', *, *, #451, .T. ) ;
#413 = APPLICATION_CONTEXT ( 'configuration controlled 3d designs of mechanical parts and assemblies' ) ;
#414 = APPROVAL ( #590, 'UNSPECIFIED' ) ;
#415 = DIRECTION ( 'NONE',  ( 0.000000000000000000, 0.000000000000000000, -1.000000000000000000 ) ) ;
#416 = DIRECTION ( 'NONE',  ( 1.000000000000000000, -0.000000000000000000, -0.000000000000000000 ) ) ;
#417 = VERTEX_POINT ( 'NONE', #424 ) ;
#418 = CARTESIAN_POINT ( 'NONE',  ( 0.5000000000000004441, -3.000000000000000444, 5.999999999999999112 ) ) ;
#419 =( NAMED_UNIT ( * ) SI_UNIT ( $, .STERADIAN. ) SOLID_ANGLE_UNIT ( ) );
#420 = CIRCLE ( 'NONE', #195, 0.05000000000000021788 ) ;
#421 = AXIS2_PLACEMENT_3D ( 'NONE', #629, #833, #758 ) ;
#422 = AXIS2_PLACEMENT_3D ( 'NONE', #32, #302, #481 ) ;
#423 = ORIENTED_EDGE ( 'NONE', *, *, #366, .T. ) ;
#424 = CARTESIAN_POINT ( 'NONE',  ( 1.500000000000000222, -3.875000000000000444, 5.815999999999998948 ) ) ;
#425 = EDGE_CURVE ( 'NONE', #841, #27, #632, .T. ) ;
#426 = PERSON_AND_ORGANIZATION ( #316, #239 ) ;
#427 = DIRECTION ( 'NONE',  ( -1.000000000000000000, 0.000000000000000000, 0.000000000000000000 ) ) ;
#428 = VERTEX_POINT ( 'NONE', #360 ) ;
#429 = DIRECTION ( 'NONE',  ( 0.000000000000000000, 0.000000000000000000, -1.000000000000000000 ) ) ;
#430 = LINE ( 'NONE', #702, #208 ) ;
#431 = FACE_OUTER_BOUND ( 'NONE', #541, .T. ) ;
#432 = DIRECTION ( 'NONE',  ( 0.000000000000000000, 0.000000000000000000, -1.000000000000000000 ) ) ;
#433 = DIRECTION ( 'NONE',  ( -0.000000000000000000, -0.000000000000000000, -1.000000000000000000 ) ) ;
#434 = AXIS2_PLACEMENT_3D ( 'NONE', #216, #470, #740 ) ;
#435 = EDGE_CURVE ( 'NONE', #75, #428, #752, .T. ) ;
#436 = CIRCLE ( 'NONE', #15, 0.05000000000000028727 ) ;
#437 = DIRECTION ( 'NONE',  ( 0.000000000000000000, 0.000000000000000000, -1.000000000000000000 ) ) ;
#438 = CARTESIAN_POINT ( 'NONE',  ( 1.500000000000000222, -3.875000000000000444, 5.875000000000000000 ) ) ;
#439 = ORIENTED_EDGE ( 'NONE', *, *, #581, .T. ) ;
#440 = DIRECTION ( 'NONE',  ( 0.000000000000000000, 0.000000000000000000, -1.000000000000000000 ) ) ;
#441 = ORIENTED_EDGE ( 'NONE', *, *, #763, .F. ) ;
#442 = DIRECTION ( 'NONE',  ( -1.000000000000000000, -0.000000000000000000, -0.000000000000000000 ) ) ;
#443 = ORIENTED_EDGE ( 'NONE', *, *, #500, .T. ) ;
#444 = CALENDAR_DATE ( 2026, 20, 3 ) ;
#445 = FACE_OUTER_BOUND ( 'NONE', #337, .T. ) ;
#446 = AXIS2_PLACEMENT_3D ( 'NONE', #191, #125, #55 ) ;
#447 = ORIENTED_EDGE ( 'NONE', *, *, #633, .F. ) ;
#448 = VECTOR ( 'NONE', #149, 39.37007874015748143 ) ;
#449 = CIRCLE ( 'NONE', #377, 0.05000000000000021788 ) ;
#450 = DIRECTION ( 'NONE',  ( -1.000000000000000000, -0.000000000000000000, -0.000000000000000000 ) ) ;
#451 = EDGE_CURVE ( 'NONE', #505, #221, #251, .T. ) ;
#452 = VERTEX_POINT ( 'NONE', #361 ) ;
#453 = CALENDAR_DATE ( 2026, 20, 3 ) ;
#454 = PLANE ( 'NONE',  #671 ) ;
#455 = ORIENTED_EDGE ( 'NONE', *, *, #386, .F. ) ;
#456 = COORDINATED_UNIVERSAL_TIME_OFFSET ( 8, 0, .BEHIND. ) ;
#457 = CARTESIAN_POINT ( 'NONE',  ( 1.500000000000000222, -4.000000000000000888, 5.999999999999999112 ) ) ;
#458 = DIRECTION ( 'NONE',  ( 1.000000000000000000, -0.000000000000000000, -0.000000000000000000 ) ) ;
#459 = ORIENTED_EDGE ( 'NONE', *, *, #551, .T. ) ;
#460 = CIRCLE ( 'NONE', #792, 0.05000000000000028727 ) ;
#461 = CC_DESIGN_APPROVAL ( #346, ( #30 ) ) ;
#462 = CARTESIAN_POINT ( 'NONE',  ( 0.000000000000000000, -3.875000000000000444, 5.875000000000000000 ) ) ;
#463 = AXIS2_PLACEMENT_3D ( 'NONE', #190, #131, #393 ) ;
#464 = ORIENTED_EDGE ( 'NONE', *, *, #667, .T. ) ;
#465 = CARTESIAN_POINT ( 'NONE',  ( 0.9644690730955727265, -3.264469073095572327, 5.999999999999999112 ) ) ;
#466 = EDGE_CURVE ( 'NONE', #723, #417, #89, .T. ) ;
#467 = CYLINDRICAL_SURFACE ( 'NONE', #132, 0.05899999999999955974 ) ;
#468 = ORIENTED_EDGE ( 'NONE', *, *, #643, .F. ) ;
#469 = DIRECTION ( 'NONE',  ( 0.000000000000000000, -0.6293205638426201398, -0.7771458215321025431 ) ) ;
#470 = DIRECTION ( 'NONE',  ( 1.000000000000000000, 0.000000000000000000, 0.000000000000000000 ) ) ;
#471 = ORIENTED_EDGE ( 'NONE', *, *, #794, .T. ) ;
#472 = DIRECTION ( 'NONE',  ( -0.000000000000000000, -0.000000000000000000, -1.000000000000000000 ) ) ;
#473 = VECTOR ( 'NONE', #36, 39.37007874015748143 ) ;
#474 = CARTESIAN_POINT ( 'NONE',  ( 0.000000000000000000, -3.875000000000000444, 5.934000000000001052 ) ) ;
#475 = ORIENTED_EDGE ( 'NONE', *, *, #803, .T. ) ;
#476 = EDGE_CURVE ( 'NONE', #44, #37, #690, .T. ) ;
#477 = LINE ( 'NONE', #743, #224 ) ;
#478 = CARTESIAN_POINT ( 'NONE',  ( 1.064469073095573259, -3.264469073095572327, 5.999999999999999112 ) ) ;
#479 = EDGE_LOOP ( 'NONE', ( #836, #664, #741, #595 ) ) ;
#480 = CARTESIAN_POINT ( 'NONE',  ( 0.000000000000000000, -4.000000000000000888, 5.749999999971552533 ) ) ;
#481 = DIRECTION ( 'NONE',  ( -1.000000000000000000, 0.000000000000000000, 0.000000000000000000 ) ) ;
#482 = ORIENTED_EDGE ( 'NONE', *, *, #34, .T. ) ;
#483 = EDGE_CURVE ( 'NONE', #674, #602, #347, .T. ) ;
#484 = FACE_BOUND ( 'NONE', #114, .T. ) ;
#485 = PLANE ( 'NONE',  #252 ) ;
#486 = AXIS2_PLACEMENT_3D ( 'NONE', #699, #566, #427 ) ;
#487 = CIRCLE ( 'NONE', #463, 0.05000000000000028727 ) ;
#488 = EDGE_LOOP ( 'NONE', ( #772, #578 ) ) ;
#489 = AXIS2_PLACEMENT_3D ( 'NONE', #155, #230, #567 ) ;
#490 = DIRECTION ( 'NONE',  ( 0.000000000000000000, -0.000000000000000000, 1.000000000000000000 ) ) ;
#491 = LINE ( 'NONE', #497, #585 ) ;
#492 = CARTESIAN_POINT ( 'NONE',  ( 1.014469073095572993, -2.735530926904427229, 5.750000000000000000 ) ) ;
#493 = APPROVAL_STATUS ( 'not_yet_approved' ) ;
#494 = ADVANCED_FACE ( 'NONE', ( #768 ), #506, .F. ) ;
#495 = CARTESIAN_POINT ( 'NONE',  ( 0.000000000000000000, -3.875000000000000444, 5.875000000000000000 ) ) ;
#496 = FACE_OUTER_BOUND ( 'NONE', #330, .T. ) ;
#497 = CARTESIAN_POINT ( 'NONE',  ( 0.4355309269044277398, -3.264469073095572327, 5.999999999999999112 ) ) ;
#498 = CIRCLE ( 'NONE', #711, 0.05000000000000021788 ) ;
#499 = VECTOR ( 'NONE', #138, 39.37007874015748143 ) ;
#500 = EDGE_CURVE ( 'NONE', #385, #452, #491, .T. ) ;
#501 = EDGE_LOOP ( 'NONE', ( #621, #475, #774, #742 ) ) ;
#502 = VECTOR ( 'NONE', #215, 39.37007874015748143 ) ;
#503 = CARTESIAN_POINT ( 'NONE',  ( 0.9644690730955727265, -2.735530926904427229, 5.999999999999999112 ) ) ;
#504 = COORDINATED_UNIVERSAL_TIME_OFFSET ( 8, 0, .BEHIND. ) ;
#505 = VERTEX_POINT ( 'NONE', #297 ) ;
#506 = CYLINDRICAL_SURFACE ( 'NONE', #291, 0.05000000000000028727 ) ;
#507 = ORIENTED_EDGE ( 'NONE', *, *, #803, .F. ) ;
#508 = DATE_AND_TIME ( #189, #144 ) ;
#509 = EDGE_LOOP ( 'NONE', ( #123, #343 ) ) ;
#510 = CARTESIAN_POINT ( 'NONE',  ( 0.4855309269044280063, -2.735530926904427229, 5.750000000000000000 ) ) ;
#511 = EDGE_LOOP ( 'NONE', ( #507, #441, #80, #657 ) ) ;
#512 = ADVANCED_FACE ( 'NONE', ( #158 ), #169, .F. ) ;
#513 = PERSON_AND_ORGANIZATION ( #316, #239 ) ;
#514 = VERTEX_POINT ( 'NONE', #174 ) ;
#515 = AXIS2_PLACEMENT_3D ( 'NONE', #800, #549, #335 ) ;
#516 = VERTEX_POINT ( 'NONE', #750 ) ;
#517 = AXIS2_PLACEMENT_3D ( 'NONE', #710, #379, #787 ) ;
#518 = EDGE_LOOP ( 'NONE', ( #652, #409, #677, #823 ) ) ;
#519 = DIRECTION ( 'NONE',  ( -0.000000000000000000, -0.000000000000000000, 1.000000000000000000 ) ) ;
#520 = ORIENTED_EDGE ( 'NONE', *, *, #8, .F. ) ;
#521 = APPROVAL_STATUS ( 'not_yet_approved' ) ;
#522 = DIRECTION ( 'NONE',  ( -1.000000000000000000, 0.000000000000000000, 0.000000000000000000 ) ) ;
#523 = CARTESIAN_POINT ( 'NONE',  ( 1.499999999999994449, -2.945952417668818768, 4.896448709530485388 ) ) ;
#524 = EDGE_CURVE ( 'NONE', #44, #287, #161, .T. ) ;
#525 = ORIENTED_EDGE ( 'NONE', *, *, #614, .F. ) ;
#526 = CARTESIAN_POINT ( 'NONE',  ( 1.500000000000000222, -0.5000000000000006661, 5.999999999999999112 ) ) ;
#527 = ORIENTED_EDGE ( 'NONE', *, *, #537, .F. ) ;
#528 = VECTOR ( 'NONE', #519, 39.37007874015748143 ) ;
#529 = CC_DESIGN_SECURITY_CLASSIFICATION ( #90, ( #30 ) ) ;
#530 = LINE ( 'NONE', #457, #46 ) ;
#531 = VECTOR ( 'NONE', #260, 39.37007874015748143 ) ;
#532 = LINE ( 'NONE', #808, #263 ) ;
#533 = ORIENTED_EDGE ( 'NONE', *, *, #753, .F. ) ;
#534 = CARTESIAN_POINT ( 'NONE',  ( 0.000000000000000000, -0.5000000000000006661, 5.750000000000000000 ) ) ;
#535 = DIRECTION ( 'NONE',  ( 0.000000000000000000, 0.000000000000000000, -1.000000000000000000 ) ) ;
#536 = EDGE_LOOP ( 'NONE', ( #716, #381, #722, #412 ) ) ;
#537 = EDGE_CURVE ( 'NONE', #841, #326, #430, .T. ) ;
#538 = LINE ( 'NONE', #16, #502 ) ;
#539 = CARTESIAN_POINT ( 'NONE',  ( 0.4855309269044279508, -3.264469073095572327, 5.999999999999999112 ) ) ;
#540 = ADVANCED_FACE ( 'NONE', ( #708 ), #638, .F. ) ;
#541 = EDGE_LOOP ( 'NONE', ( #464, #318, #12, #751 ) ) ;
#542 = CYLINDRICAL_SURFACE ( 'NONE', #76, 0.2499999999999998057 ) ;
#543 = VECTOR ( 'NONE', #160, 39.37007874015748854 ) ;
#544 =( GEOMETRIC_REPRESENTATION_CONTEXT ( 3 ) GLOBAL_UNCERTAINTY_ASSIGNED_CONTEXT ( ( #246 ) ) GLOBAL_UNIT_ASSIGNED_CONTEXT ( ( #106, #231, #419 ) ) REPRESENTATION_CONTEXT ( 'NONE', 'WORKASPACE' ) );
#545 = DIRECTION ( 'NONE',  ( -0.000000000000000000, -1.000000000000000000, -0.000000000000000000 ) ) ;
#546 = VECTOR ( 'NONE', #469, 39.37007874015748854 ) ;
#547 = ORIENTED_EDGE ( 'NONE', *, *, #451, .F. ) ;
#548 = DIRECTION ( 'NONE',  ( 1.000000000000000000, 0.000000000000000000, 0.000000000000000000 ) ) ;
#549 = DIRECTION ( 'NONE',  ( 0.000000000000000000, 0.7771458215321025431, -0.6293205638426201398 ) ) ;
#550 = ORIENTED_EDGE ( 'NONE', *, *, #835, .T. ) ;
#551 = EDGE_CURVE ( 'NONE', #369, #145, #21, .T. ) ;
#552 = DIRECTION ( 'NONE',  ( -1.000000000000000000, 0.000000000000000000, -0.000000000000000000 ) ) ;
#553 = DIRECTION ( 'NONE',  ( 0.000000000000000000, 0.000000000000000000, 1.000000000000000000 ) ) ;
#554 = DIRECTION ( 'NONE',  ( -1.000000000000000000, 0.000000000000000000, 0.000000000000000000 ) ) ;
#555 = ORIENTED_EDGE ( 'NONE', *, *, #243, .F. ) ;
#556 = EDGE_CURVE ( 'NONE', #115, #764, #460, .T. ) ;
#557 = CYLINDRICAL_SURFACE ( 'NONE', #489, 0.05900000000000065609 ) ;
#558 = DIRECTION ( 'NONE',  ( 1.000000000000000000, -0.000000000000000000, -0.000000000000000000 ) ) ;
#559 = AXIS2_PLACEMENT_3D ( 'NONE', #822, #107, #635 ) ;
#560 = CC_DESIGN_APPROVAL ( #414, ( #90 ) ) ;
#561 = DIRECTION ( 'NONE',  ( -0.000000000000000000, -1.000000000000000000, -0.000000000000000000 ) ) ;
#562 = AXIS2_PLACEMENT_3D ( 'NONE', #338, #796, #731 ) ;
#563 = EDGE_LOOP ( 'NONE', ( #397, #482, #661, #259 ) ) ;
#564 = EDGE_LOOP ( 'NONE', ( #153, #159, #447, #730 ) ) ;
#565 = DIRECTION ( 'NONE',  ( 1.000000000000000000, 0.000000000000000000, 0.000000000000000000 ) ) ;
#566 = DIRECTION ( 'NONE',  ( -0.000000000000000000, -0.000000000000000000, -1.000000000000000000 ) ) ;
#567 = DIRECTION ( 'NONE',  ( 0.000000000000000000, 0.000000000000000000, -1.000000000000000000 ) ) ;
#568 = DIRECTION ( 'NONE',  ( 0.000000000000000000, 0.7771458215321032093, -0.6293205638426194737 ) ) ;
#569 = CC_DESIGN_PERSON_AND_ORGANIZATION_ASSIGNMENT ( #327, #706, ( #30 ) ) ;
#570 = CARTESIAN_POINT ( 'NONE',  ( 0.4855309269044280063, -2.735530926904427229, 5.999999999999999112 ) ) ;
#571 = ORIENTED_EDGE ( 'NONE', *, *, #556, .T. ) ;
#572 = CARTESIAN_POINT ( 'NONE',  ( 0.4355309269044277398, -3.264469073095572327, 5.999999999999999112 ) ) ;
#573 =( LENGTH_UNIT ( ) NAMED_UNIT ( * ) SI_UNIT ( $, .METRE. ) );
#574 = DIRECTION ( 'NONE',  ( 1.000000000000000000, -0.000000000000000000, -0.000000000000000000 ) ) ;
#575 = AXIS2_PLACEMENT_3D ( 'NONE', #492, #162, #815 ) ;
#576 = ORIENTED_EDGE ( 'NONE', *, *, #64, .F. ) ;
#577 = CIRCLE ( 'NONE', #395, 0.05000000000000021788 ) ;
#578 = ORIENTED_EDGE ( 'NONE', *, *, #82, .T. ) ;
#579 = ADVANCED_FACE ( 'NONE', ( #693 ), #233, .F. ) ;
#580 = ORIENTED_EDGE ( 'NONE', *, *, #319, .F. ) ;
#581 = EDGE_CURVE ( 'NONE', #703, #333, #222, .T. ) ;
#582 = DIRECTION ( 'NONE',  ( 0.000000000000000000, 0.000000000000000000, 1.000000000000000000 ) ) ;
#583 = EDGE_LOOP ( 'NONE', ( #520, #839, #617, #375 ) ) ;
#584 = CARTESIAN_POINT ( 'NONE',  ( 0.000000000000000000, -0.6250000000000006661, 5.816000000000000725 ) ) ;
#585 = VECTOR ( 'NONE', #111, 39.37007874015748143 ) ;
#586 = EDGE_LOOP ( 'NONE', ( #136, #809 ) ) ;
#587 = ADVANCED_FACE ( 'NONE', ( #242 ), #299, .F. ) ;
#588 = DIRECTION ( 'NONE',  ( 0.000000000000000000, 0.000000000000000000, -1.000000000000000000 ) ) ;
#589 = ORIENTED_EDGE ( 'NONE', *, *, #8, .T. ) ;
#590 = APPROVAL_STATUS ( 'not_yet_approved' ) ;
#591 = LINE ( 'NONE', #58, #531 ) ;
#592 = ORIENTED_EDGE ( 'NONE', *, *, #52, .F. ) ;
#593 = DIRECTION ( 'NONE',  ( -0.000000000000000000, -0.000000000000000000, -1.000000000000000000 ) ) ;
#594 = CARTESIAN_POINT ( 'NONE',  ( 0.5000000000000004441, -3.000000000000000444, 5.750000000000000000 ) ) ;
#595 = ORIENTED_EDGE ( 'NONE', *, *, #827, .T. ) ;
#596 = AXIS2_PLACEMENT_3D ( 'NONE', #73, #676, #3 ) ;
#597 = AXIS2_PLACEMENT_3D ( 'NONE', #831, #429, #760 ) ;
#598 = VECTOR ( 'NONE', #811, 39.37007874015748143 ) ;
#599 = DIRECTION ( 'NONE',  ( -0.000000000000000000, -0.000000000000000000, -1.000000000000000000 ) ) ;
#600 = DESIGN_CONTEXT ( 'detailed design', #413, 'design' ) ;
#601 = CYLINDRICAL_SURFACE ( 'NONE', #628, 0.05000000000000021788 ) ;
#602 = VERTEX_POINT ( 'NONE', #235 ) ;
#603 = EDGE_CURVE ( 'NONE', #854, #417, #286, .T. ) ;
#604 = EDGE_CURVE ( 'NONE', #642, #385, #420, .T. ) ;
#605 = DIRECTION ( 'NONE',  ( 1.000000000000000000, 0.000000000000000000, 0.000000000000000000 ) ) ;
#606 = DIRECTION ( 'NONE',  ( 0.000000000000000000, 0.000000000000000000, -1.000000000000000000 ) ) ;
#607 = APPLICATION_CONTEXT ( 'configuration controlled 3d designs of mechanical parts and assemblies' ) ;
#608 = ORIENTED_EDGE ( 'NONE', *, *, #551, .F. ) ;
#609 = CARTESIAN_POINT ( 'NONE',  ( 0.000000000000000000, -0.6250000000000006661, 5.933999999999999275 ) ) ;
#610 = FACE_OUTER_BOUND ( 'NONE', #250, .T. ) ;
#611 = ORIENTED_EDGE ( 'NONE', *, *, #425, .T. ) ;
#612 = DIRECTION ( 'NONE',  ( -1.000000000000000000, 0.000000000000000000, 0.000000000000000000 ) ) ;
#613 = AXIS2_PLACEMENT_3D ( 'NONE', #355, #367, #568 ) ;
#614 = EDGE_CURVE ( 'NONE', #841, #98, #257, .T. ) ;
#615 = FACE_OUTER_BOUND ( 'NONE', #838, .T. ) ;
#616 = AXIS2_PLACEMENT_3D ( 'NONE', #659, #548, #415 ) ;
#617 = ORIENTED_EDGE ( 'NONE', *, *, #157, .T. ) ;
#618 = DIRECTION ( 'NONE',  ( -1.000000000000000000, 0.000000000000000000, 0.000000000000000000 ) ) ;
#619 = CARTESIAN_POINT ( 'NONE',  ( 0.000000000000000000, -3.875000000000000444, 5.815999999999998948 ) ) ;
#620 = CARTESIAN_POINT ( 'NONE',  ( 0.7500000000000002220, -3.000000000000000444, 5.999999999999999112 ) ) ;
#621 = ORIENTED_EDGE ( 'NONE', *, *, #82, .F. ) ;
#622 = EDGE_CURVE ( 'NONE', #244, #707, #116, .T. ) ;
#623 = FACE_BOUND ( 'NONE', #488, .T. ) ;
#624 = CARTESIAN_POINT ( 'NONE',  ( 1.500000000000000222, -4.000000000000000888, 5.999999999999999112 ) ) ;
#625 = ORIENTED_EDGE ( 'NONE', *, *, #782, .F. ) ;
#626 = ORIENTED_EDGE ( 'NONE', *, *, #214, .F. ) ;
#627 = CARTESIAN_POINT ( 'NONE',  ( 0.000000000000000000, -4.000000000000000888, 5.749999999971552533 ) ) ;
#628 = AXIS2_PLACEMENT_3D ( 'NONE', #79, #724, #265 ) ;
#629 = CARTESIAN_POINT ( 'NONE',  ( 0.4855309269044280063, -2.735530926904427229, 5.999999999999999112 ) ) ;
#630 = VECTOR ( 'NONE', #253, 39.37007874015748143 ) ;
#631 = ADVANCED_FACE ( 'NONE', ( #788 ), #773, .F. ) ;
#632 = LINE ( 'NONE', #226, #374 ) ;
#633 = EDGE_CURVE ( 'NONE', #27, #44, #329, .T. ) ;
#634 = DIRECTION ( 'NONE',  ( -1.000000000000000000, 0.000000000000000000, 0.000000000000000000 ) ) ;
#635 = DIRECTION ( 'NONE',  ( -1.000000000000000000, 0.000000000000000000, 0.000000000000000000 ) ) ;
#636 = CARTESIAN_POINT ( 'NONE',  ( 1.500000000000000222, -4.000000000000000888, 5.999999999999999112 ) ) ;
#637 = FACE_OUTER_BOUND ( 'NONE', #583, .T. ) ;
#638 = CYLINDRICAL_SURFACE ( 'NONE', #832, 0.2499999999999998057 ) ;
#639 = ORIENTED_EDGE ( 'NONE', *, *, #109, .F. ) ;
#640 = LINE ( 'NONE', #814, #74 ) ;
#641 = PERSON_AND_ORGANIZATION ( #316, #239 ) ;
#642 = VERTEX_POINT ( 'NONE', #783 ) ;
#643 = EDGE_CURVE ( 'NONE', #333, #703, #777, .T. ) ;
#644 = AXIS2_PLACEMENT_3D ( 'NONE', #656, #196, #380 ) ;
#645 = ORIENTED_EDGE ( 'NONE', *, *, #425, .F. ) ;
#646 = APPROVAL_ROLE ( '' ) ;
#647 = LINE ( 'NONE', #194, #266 ) ;
#648 = LINE ( 'NONE', #135, #698 ) ;
#649 = ORIENTED_EDGE ( 'NONE', *, *, #102, .F. ) ;
#650 = PERSON_AND_ORGANIZATION ( #316, #239 ) ;
#651 = FACE_OUTER_BOUND ( 'NONE', #175, .T. ) ;
#652 = ORIENTED_EDGE ( 'NONE', *, *, #604, .F. ) ;
#653 = ADVANCED_FACE ( 'NONE', ( #852 ), #186, .F. ) ;
#654 = SHAPE_DEFINITION_REPRESENTATION ( #320, #781 ) ;
#655 = CARTESIAN_POINT ( 'NONE',  ( 1.499999999999994449, -4.190363865300352764, 5.904153688670410460 ) ) ;
#656 = CARTESIAN_POINT ( 'NONE',  ( 0.4855309269044279508, -3.264469073095572327, 5.999999999999999112 ) ) ;
#657 = ORIENTED_EDGE ( 'NONE', *, *, #738, .T. ) ;
#658 = LOCAL_TIME ( 16, 21, 25.00000000000000000, #504 ) ;
#659 = CARTESIAN_POINT ( 'NONE',  ( 1.500000000000000222, -0.6250000000000006661, 5.875000000000000000 ) ) ;
#660 = EDGE_CURVE ( 'NONE', #703, #244, #648, .T. ) ;
#661 = ORIENTED_EDGE ( 'NONE', *, *, #64, .T. ) ;
#662 = ORIENTED_EDGE ( 'NONE', *, *, #165, .F. ) ;
#663 = CARTESIAN_POINT ( 'NONE',  ( 0.9644690730955727265, -3.264469073095572327, 5.750000000000000000 ) ) ;
#664 = ORIENTED_EDGE ( 'NONE', *, *, #678, .F. ) ;
#665 = LINE ( 'NONE', #405, #846 ) ;
#666 = CARTESIAN_POINT ( 'NONE',  ( 0.4855309269044280063, -2.735530926904427229, 5.750000000000000000 ) ) ;
#667 = EDGE_CURVE ( 'NONE', #287, #369, #532, .T. ) ;
#668 = ORIENTED_EDGE ( 'NONE', *, *, #660, .T. ) ;
#669 = EDGE_CURVE ( 'NONE', #290, #287, #147, .T. ) ;
#670 = VECTOR ( 'NONE', #363, 39.37007874015748854 ) ;
#671 = AXIS2_PLACEMENT_3D ( 'NONE', #328, #718, #127 ) ;
#672 = LINE ( 'NONE', #807, #546 ) ;
#673 = DIRECTION ( 'NONE',  ( 0.000000000000000000, 0.000000000000000000, -1.000000000000000000 ) ) ;
#674 = VERTEX_POINT ( 'NONE', #594 ) ;
#675 = CARTESIAN_POINT ( 'NONE',  ( 1.064469073095573259, -2.735530926904427229, 5.750000000000000000 ) ) ;
#676 = DIRECTION ( 'NONE',  ( 0.000000000000000000, -1.000000000000000000, 0.000000000000000000 ) ) ;
#677 = ORIENTED_EDGE ( 'NONE', *, *, #214, .T. ) ;
#678 = EDGE_CURVE ( 'NONE', #798, #709, #28, .T. ) ;
#679 = CARTESIAN_POINT ( 'NONE',  ( 0.000000000000000000, -0.6250000000000006661, 5.875000000000000000 ) ) ;
#680 = DIRECTION ( 'NONE',  ( -0.000000000000000000, -0.000000000000000000, -1.000000000000000000 ) ) ;
#681 = ORIENTED_EDGE ( 'NONE', *, *, #466, .F. ) ;
#682 = EDGE_LOOP ( 'NONE', ( #527, #51, #550, #785 ) ) ;
#683 = DIRECTION ( 'NONE',  ( 0.000000000000000000, 0.000000000000000000, -1.000000000000000000 ) ) ;
#684 = VECTOR ( 'NONE', #66, 39.37007874015748854 ) ;
#685 = LOCAL_TIME ( 16, 21, 25.00000000000000000, #308 ) ;
#686 = AXIS2_PLACEMENT_3D ( 'NONE', #317, #582, #331 ) ;
#687 = ORIENTED_EDGE ( 'NONE', *, *, #52, .T. ) ;
#688 = DIRECTION ( 'NONE',  ( 0.000000000000000000, 1.000000000000000000, 0.000000000000000000 ) ) ;
#689 = DIRECTION ( 'NONE',  ( -0.000000000000000000, -0.000000000000000000, -1.000000000000000000 ) ) ;
#690 = LINE ( 'NONE', #624, #43 ) ;
#691 = EDGE_LOOP ( 'NONE', ( #241, #626 ) ) ;
#692 = PLANE ( 'NONE',  #613 ) ;
#693 = FACE_OUTER_BOUND ( 'NONE', #511, .T. ) ;
#694 = EDGE_CURVE ( 'NONE', #707, #244, #498, .T. ) ;
#695 = ADVANCED_FACE ( 'NONE', ( #400 ), #277, .F. ) ;
#696 = CARTESIAN_POINT ( 'NONE',  ( 0.000000000000000000, -4.033033724339698090, 6.098440144053435041 ) ) ;
#697 = CARTESIAN_POINT ( 'NONE',  ( 0.000000000000000000, -0.6250000000000006661, 5.875000000000000000 ) ) ;
#698 = VECTOR ( 'NONE', #680, 39.37007874015748143 ) ;
#699 = CARTESIAN_POINT ( 'NONE',  ( 0.4855309269044279508, -3.264469073095572327, 5.999999999999999112 ) ) ;
#700 = CIRCLE ( 'NONE', #240, 0.05000000000000028727 ) ;
#701 = DIRECTION ( 'NONE',  ( 0.000000000000000000, -0.6293205638426201398, -0.7771458215321025431 ) ) ;
#702 = CARTESIAN_POINT ( 'NONE',  ( 1.500000000000000222, -4.000000000000000888, 5.750000000000000000 ) ) ;
#703 = VERTEX_POINT ( 'NONE', #345 ) ;
#704 = DIRECTION ( 'NONE',  ( -1.000000000000000000, 0.000000000000000000, 0.000000000000000000 ) ) ;
#705 = ADVANCED_FACE ( 'NONE', ( #610 ), #141, .F. ) ;
#706 = PERSON_AND_ORGANIZATION_ROLE ( 'design_supplier' ) ;
#707 = VERTEX_POINT ( 'NONE', #812 ) ;
#708 = FACE_OUTER_BOUND ( 'NONE', #200, .T. ) ;
#709 = VERTEX_POINT ( 'NONE', #17 ) ;
#710 = CARTESIAN_POINT ( 'NONE',  ( 0.7500000000000002220, -3.000000000000000444, 5.999999999999999112 ) ) ;
#711 = AXIS2_PLACEMENT_3D ( 'NONE', #666, #6, #272 ) ;
#712 = CC_DESIGN_PERSON_AND_ORGANIZATION_ASSIGNMENT ( #650, #255, ( #90 ) ) ;
#713 = VERTEX_POINT ( 'NONE', #474 ) ;
#714 = CIRCLE ( 'NONE', #336, 0.05000000000000028727 ) ;
#715 = CARTESIAN_POINT ( 'NONE',  ( 1.499999999999994449, -4.000000000000000888, 5.999999999999999112 ) ) ;
#716 = ORIENTED_EDGE ( 'NONE', *, *, #34, .F. ) ;
#717 = COORDINATED_UNIVERSAL_TIME_OFFSET ( 8, 0, .BEHIND. ) ;
#718 = DIRECTION ( 'NONE',  ( 1.000000000000000000, -0.000000000000000000, 0.000000000000000000 ) ) ;
#719 = ORIENTED_EDGE ( 'NONE', *, *, #782, .T. ) ;
#720 = CC_DESIGN_PERSON_AND_ORGANIZATION_ASSIGNMENT ( #513, #48, ( #30 ) ) ;
#721 = PLANE ( 'NONE',  #686 ) ;
#722 = ORIENTED_EDGE ( 'NONE', *, *, #810, .T. ) ;
#723 = VERTEX_POINT ( 'NONE', #342 ) ;
#724 = DIRECTION ( 'NONE',  ( -0.000000000000000000, -0.000000000000000000, -1.000000000000000000 ) ) ;
#725 = ORIENTED_EDGE ( 'NONE', *, *, #310, .T. ) ;
#726 = ADVANCED_FACE ( 'NONE', ( #615 ), #601, .F. ) ;
#727 = CARTESIAN_POINT ( 'NONE',  ( 1.014469073095572993, -2.735530926904427229, 5.999999999999999112 ) ) ;
#728 = CARTESIAN_POINT ( 'NONE',  ( 0.000000000000000000, -4.000000000000000888, 5.750000000000000000 ) ) ;
#729 = EDGE_CURVE ( 'NONE', #709, #115, #797, .T. ) ;
#730 = ORIENTED_EDGE ( 'NONE', *, *, #243, .T. ) ;
#731 = DIRECTION ( 'NONE',  ( 0.000000000000000000, -0.7771458215321032093, 0.6293205638426194737 ) ) ;
#732 = CARTESIAN_POINT ( 'NONE',  ( 0.000000000000000000, -3.875000000000000444, 5.875000000000000000 ) ) ;
#733 = ORIENTED_EDGE ( 'NONE', *, *, #694, .T. ) ;
#734 = VECTOR ( 'NONE', #269, 39.37007874015748143 ) ;
#735 = DIRECTION ( 'NONE',  ( -1.000000000000000000, 0.000000000000000000, 0.000000000000000000 ) ) ;
#736 = CARTESIAN_POINT ( 'NONE',  ( 0.000000000000000000, -3.875000000000000444, 5.934000000000001052 ) ) ;
#737 = ORIENTED_EDGE ( 'NONE', *, *, #738, .F. ) ;
#738 = EDGE_CURVE ( 'NONE', #417, #723, #362, .T. ) ;
#739 = LINE ( 'NONE', #609, #598 ) ;
#740 = DIRECTION ( 'NONE',  ( 0.000000000000000000, 0.000000000000000000, -1.000000000000000000 ) ) ;
#741 = ORIENTED_EDGE ( 'NONE', *, *, #303, .T. ) ;
#742 = ORIENTED_EDGE ( 'NONE', *, *, #603, .F. ) ;
#743 = CARTESIAN_POINT ( 'NONE',  ( 0.4355309269044277953, -2.735530926904427229, 5.999999999999999112 ) ) ;
#744 = EDGE_LOOP ( 'NONE', ( #737, #681 ) ) ;
#745 = AXIS2_PLACEMENT_3D ( 'NONE', #282, #203, #411 ) ;
#746 = DIRECTION ( 'NONE',  ( -0.000000000000000000, -0.000000000000000000, -1.000000000000000000 ) ) ;
#747 = CLOSED_SHELL ( 'NONE', ( #587, #384, #512, #631, #540, #373, #853, #695, #359, #50, #93, #817, #770, #579, #295, #276, #653, #494, #726, #258, #842, #705, #324 ) ) ;
#748 = PERSON_AND_ORGANIZATION ( #316, #239 ) ;
#749 = AXIS2_PLACEMENT_3D ( 'NONE', #171, #238, #108 ) ;
#750 = CARTESIAN_POINT ( 'NONE',  ( 0.000000000000000000, -0.6250000000000006661, 5.933999999999999275 ) ) ;
#751 = ORIENTED_EDGE ( 'NONE', *, *, #524, .T. ) ;
#752 = LINE ( 'NONE', #29, #543 ) ;
#753 = EDGE_CURVE ( 'NONE', #767, #829, #103, .T. ) ;
#754 = APPLICATION_PROTOCOL_DEFINITION ( 'international standard', 'config_control_design', 1994, #607 ) ;
#755 = CC_DESIGN_DATE_AND_TIME_ASSIGNMENT ( #786, #392, ( #90 ) ) ;
#756 = FACE_OUTER_BOUND ( 'NONE', #563, .T. ) ;
#757 = CARTESIAN_POINT ( 'NONE',  ( 1.499999999999994449, -4.000000000000000888, 5.749999999971552533 ) ) ;
#758 = DIRECTION ( 'NONE',  ( -1.000000000000000000, 0.000000000000000000, 0.000000000000000000 ) ) ;
#759 = FACE_OUTER_BOUND ( 'NONE', #501, .T. ) ;
#760 = DIRECTION ( 'NONE',  ( -1.000000000000000000, 0.000000000000000000, 0.000000000000000000 ) ) ;
#761 = LOCAL_TIME ( 16, 21, 25.00000000000000000, #378 ) ;
#762 = DIRECTION ( 'NONE',  ( -1.000000000000000000, 0.000000000000000000, 0.000000000000000000 ) ) ;
#763 = EDGE_CURVE ( 'NONE', #854, #713, #59, .T. ) ;
#764 = VERTEX_POINT ( 'NONE', #663 ) ;
#765 = PLANE ( 'NONE',  #77 ) ;
#766 = DATE_AND_TIME ( #63, #761 ) ;
#767 = VERTEX_POINT ( 'NONE', #10 ) ;
#768 = FACE_OUTER_BOUND ( 'NONE', #536, .T. ) ;
#769 = ORIENTED_EDGE ( 'NONE', *, *, #633, .T. ) ;
#770 = ADVANCED_FACE ( 'NONE', ( #150 ), #467, .F. ) ;
#771 = PERSON_AND_ORGANIZATION ( #316, #239 ) ;
#772 = ORIENTED_EDGE ( 'NONE', *, *, #763, .T. ) ;
#773 = CYLINDRICAL_SURFACE ( 'NONE', #446, 0.05000000000000028727 ) ;
#774 = ORIENTED_EDGE ( 'NONE', *, *, #466, .T. ) ;
#775 = DIRECTION ( 'NONE',  ( 0.000000000000000000, 0.000000000000000000, -1.000000000000000000 ) ) ;
#776 = PRODUCT ( 'Chassis Side Wall Design 4', 'Chassis Side Wall Design 4', '', ( #219 ) ) ;
#777 = CIRCLE ( 'NONE', #154, 0.05000000000000021788 ) ;
#778 = CIRCLE ( 'NONE', #31, 0.05900000000000065609 ) ;
#779 = EDGE_LOOP ( 'NONE', ( #173, #789, #7, #88 ) ) ;
#780 = DIRECTION ( 'NONE',  ( 1.000000000000000000, -0.000000000000000000, -0.000000000000000000 ) ) ;
#781 = ADVANCED_BREP_SHAPE_REPRESENTATION ( 'Chassis Side Wall Design 4', ( #394, #322 ), #544 ) ;
#782 = EDGE_CURVE ( 'NONE', #385, #642, #391, .T. ) ;
#783 = CARTESIAN_POINT ( 'NONE',  ( 0.5355309269044281617, -3.264469073095572327, 5.999999999999999112 ) ) ;
#784 = CC_DESIGN_DATE_AND_TIME_ASSIGNMENT ( #508, #172, ( #122 ) ) ;
#785 = ORIENTED_EDGE ( 'NONE', *, *, #165, .T. ) ;
#786 = DATE_AND_TIME ( #444, #45 ) ;
#787 = DIRECTION ( 'NONE',  ( -1.000000000000000000, 0.000000000000000000, 0.000000000000000000 ) ) ;
#788 = FACE_OUTER_BOUND ( 'NONE', #217, .T. ) ;
#789 = ORIENTED_EDGE ( 'NONE', *, *, #176, .T. ) ;
#790 = DIRECTION ( 'NONE',  ( -0.000000000000000000, -0.000000000000000000, -1.000000000000000000 ) ) ;
#791 = DIRECTION ( 'NONE',  ( 0.000000000000000000, 0.000000000000000000, -1.000000000000000000 ) ) ;
#792 = AXIS2_PLACEMENT_3D ( 'NONE', #356, #304, #825 ) ;
#793 = ORIENTED_EDGE ( 'NONE', *, *, #204, .F. ) ;
#794 = EDGE_CURVE ( 'NONE', #326, #290, #856, .T. ) ;
#795 = AXIS2_PLACEMENT_3D ( 'NONE', #802, #472, #735 ) ;
#796 = DIRECTION ( 'NONE',  ( 0.000000000000000000, 0.6293205638426194737, 0.7771458215321032093 ) ) ;
#797 = LINE ( 'NONE', #478, #734 ) ;
#798 = VERTEX_POINT ( 'NONE', #804 ) ;
#799 = DIRECTION ( 'NONE',  ( 0.000000000000000000, 0.000000000000000000, -1.000000000000000000 ) ) ;
#800 = CARTESIAN_POINT ( 'NONE',  ( 0.000000000000000000, -5.418360994904150019, 4.387704214498029387 ) ) ;
#801 = ORIENTED_EDGE ( 'NONE', *, *, #537, .T. ) ;
#802 = CARTESIAN_POINT ( 'NONE',  ( 1.014469073095572993, -3.264469073095572327, 5.999999999999999112 ) ) ;
#803 = EDGE_CURVE ( 'NONE', #713, #723, #207, .T. ) ;
#804 = CARTESIAN_POINT ( 'NONE',  ( 0.9644690730955727265, -3.264469073095572327, 5.999999999999999112 ) ) ;
#805 = ORIENTED_EDGE ( 'NONE', *, *, #164, .T. ) ;
#806 = AXIS2_PLACEMENT_3D ( 'NONE', #510, #396, #849 ) ;
#807 = CARTESIAN_POINT ( 'NONE',  ( 0.000000000000000000, -4.190363865300352764, 5.904153688670410460 ) ) ;
#808 = CARTESIAN_POINT ( 'NONE',  ( 0.000000000000000000, -4.000000000000000888, 5.999999999999999112 ) ) ;
#809 = ORIENTED_EDGE ( 'NONE', *, *, #556, .F. ) ;
#810 = EDGE_CURVE ( 'NONE', #353, #505, #20, .T. ) ;
#811 = DIRECTION ( 'NONE',  ( 1.000000000000000000, -0.000000000000000000, -0.000000000000000000 ) ) ;
#812 = CARTESIAN_POINT ( 'NONE',  ( 0.4355309269044277953, -2.735530926904427229, 5.750000000000000000 ) ) ;
#813 = ORIENTED_EDGE ( 'NONE', *, *, #678, .T. ) ;
#814 = CARTESIAN_POINT ( 'NONE',  ( 1.000000000000000000, -3.000000000000000444, 5.999999999999999112 ) ) ;
#815 = DIRECTION ( 'NONE',  ( -1.000000000000000000, 0.000000000000000000, 0.000000000000000000 ) ) ;
#816 = ORIENTED_EDGE ( 'NONE', *, *, #119, .F. ) ;
#817 = ADVANCED_FACE ( 'NONE', ( #623, #227, #496 ), #485, .F. ) ;
#818 = DIRECTION ( 'NONE',  ( -0.000000000000000000, -0.000000000000000000, -1.000000000000000000 ) ) ;
#819 = APPROVAL_PERSON_ORGANIZATION ( #641, #414, #646 ) ;
#820 = EDGE_CURVE ( 'NONE', #126, #184, #209, .T. ) ;
#821 = CIRCLE ( 'NONE', #749, 0.2499999999999998057 ) ;
#822 = CARTESIAN_POINT ( 'NONE',  ( 0.7500000000000002220, -3.000000000000000444, 5.750000000000000000 ) ) ;
#823 = ORIENTED_EDGE ( 'NONE', *, *, #500, .F. ) ;
#824 = FACE_OUTER_BOUND ( 'NONE', #779, .T. ) ;
#825 = DIRECTION ( 'NONE',  ( -1.000000000000000000, 0.000000000000000000, 0.000000000000000000 ) ) ;
#826 = PLANE ( 'NONE',  #225 ) ;
#827 = EDGE_CURVE ( 'NONE', #764, #115, #182, .T. ) ;
#828 = DIRECTION ( 'NONE',  ( -1.000000000000000000, 0.000000000000000000, 0.000000000000000000 ) ) ;
#829 = VERTEX_POINT ( 'NONE', #364 ) ;
#830 = LINE ( 'NONE', #696, #670 ) ;
#831 = CARTESIAN_POINT ( 'NONE',  ( 0.7500000000000002220, -3.000000000000000444, 5.999999999999999112 ) ) ;
#832 = AXIS2_PLACEMENT_3D ( 'NONE', #620, #97, #554 ) ;
#833 = DIRECTION ( 'NONE',  ( 0.000000000000000000, 0.000000000000000000, -1.000000000000000000 ) ) ;
#834 = VECTOR ( 'NONE', #780, 39.37007874015748143 ) ;
#835 = EDGE_CURVE ( 'NONE', #98, #179, #298, .T. ) ;
#836 = ORIENTED_EDGE ( 'NONE', *, *, #729, .F. ) ;
#837 = PERSON_AND_ORGANIZATION ( #316, #239 ) ;
#838 = EDGE_LOOP ( 'NONE', ( #857, #468, #71, #733 ) ) ;
#839 = ORIENTED_EDGE ( 'NONE', *, *, #386, .T. ) ;
#840 = FACE_BOUND ( 'NONE', #586, .T. ) ;
#841 = VERTEX_POINT ( 'NONE', #757 ) ;
#842 = ADVANCED_FACE ( 'NONE', ( #637 ), #692, .F. ) ;
#843 = LINE ( 'NONE', #313, #630 ) ;
#844 = AXIS2_PLACEMENT_3D ( 'NONE', #403, #212, #535 ) ;
#845 = CARTESIAN_POINT ( 'NONE',  ( 1.500000000000000222, -0.5000000000000006661, 5.999999999999999112 ) ) ;
#846 = VECTOR ( 'NONE', #5, 39.37007874015748143 ) ;
#847 = ORIENTED_EDGE ( 'NONE', *, *, #669, .F. ) ;
#848 = CARTESIAN_POINT ( 'NONE',  ( 1.064469073095573259, -3.264469073095572327, 5.750000000000000000 ) ) ;
#849 = DIRECTION ( 'NONE',  ( -1.000000000000000000, 0.000000000000000000, 0.000000000000000000 ) ) ;
#850 = ORIENTED_EDGE ( 'NONE', *, *, #142, .T. ) ;
#851 = FACE_BOUND ( 'NONE', #205, .T. ) ;
#852 = FACE_OUTER_BOUND ( 'NONE', #311, .T. ) ;
#853 = ADVANCED_FACE ( 'NONE', ( #824 ), #289, .F. ) ;
#854 = VERTEX_POINT ( 'NONE', #619 ) ;
#855 = LINE ( 'NONE', #388, #350 ) ;
#856 = LINE ( 'NONE', #728, #499 ) ;
#857 = ORIENTED_EDGE ( 'NONE', *, *, #660, .F. ) ;
ENDSEC;
END-ISO-10303-21;
