ISO-10303-21;
HEADER;
FILE_DESCRIPTION (( 'STEP AP203' ),
    '1' );
FILE_NAME ('Front Wall.STEP',
    '2026-03-20T23:28:09',
    ( '' ),
    ( '' ),
    'SwSTEP 2.0',
    'SolidWorks 2025',
    '' );
FILE_SCHEMA (( 'CONFIG_CONTROL_DESIGN' ));
ENDSEC;

DATA;
#1 = CARTESIAN_POINT ( 'NONE',  ( 1.250000000000000000, 1.000000000000000000, -0.04921259842519662420 ) ) ;
#2 = ORIENTED_EDGE ( 'NONE', *, *, #12, .T. ) ;
#3 = DIRECTION ( 'NONE',  ( -0.000000000000000000, -1.000000000000000000, -0.000000000000000000 ) ) ;
#4 = CC_DESIGN_PERSON_AND_ORGANIZATION_ASSIGNMENT ( #261, #437, ( #74 ) ) ;
#5 = DIRECTION ( 'NONE',  ( 1.000000000000000000, 0.000000000000000000, -0.000000000000000000 ) ) ;
#6 = DIRECTION ( 'NONE',  ( 0.000000000000000000, 1.000000000000000000, 0.000000000000000000 ) ) ;
#7 = ORIENTED_EDGE ( 'NONE', *, *, #19, .F. ) ;
#8 = LINE ( 'NONE', #105, #355 ) ;
#9 = EDGE_LOOP ( 'NONE', ( #7, #442, #255, #379 ) ) ;
#10 = VECTOR ( 'NONE', #70, 39.37007874015748143 ) ;
#11 = DIRECTION ( 'NONE',  ( -0.000000000000000000, 1.000000000000000000, -0.000000000000000000 ) ) ;
#12 = EDGE_CURVE ( 'NONE', #14, #239, #186, .T. ) ;
#13 =( NAMED_UNIT ( * ) PLANE_ANGLE_UNIT ( ) SI_UNIT ( $, .RADIAN. ) );
#14 = VERTEX_POINT ( 'NONE', #283 ) ;
#15 = PERSON_AND_ORGANIZATION ( #157, #25 ) ;
#16 = CARTESIAN_POINT ( 'NONE',  ( -1.625000000000000000, 0.000000000000000000, 0.1250000000000000000 ) ) ;
#17 = CONICAL_SURFACE ( 'NONE', #250, 0.04921259842519662420, 1.029744258676652757 ) ;
#18 = APPLICATION_CONTEXT ( 'configuration controlled 3d designs of mechanical parts and assemblies' ) ;
#19 = EDGE_CURVE ( 'NONE', #216, #390, #324, .T. ) ;
#20 = CONICAL_SURFACE ( 'NONE', #443, 0.04921259842519662420, 1.029744258676652757 ) ;
#21 = UNCERTAINTY_MEASURE_WITH_UNIT (LENGTH_MEASURE( 1.000000000000000082E-05 ), #89, 'distance_accuracy_value', 'NONE');
#22 = APPROVAL_DATE_TIME ( #370, #196 ) ;
#23 = APPLICATION_CONTEXT ( 'configuration controlled 3d designs of mechanical parts and assemblies' ) ;
#24 = PERSON_AND_ORGANIZATION_ROLE ( 'design_supplier' ) ;
#25 = ORGANIZATION ( 'UNSPECIFIED', 'UNSPECIFIED', '' ) ;
#26 = PLANE ( 'NONE',  #161 ) ;
#27 = DIRECTION ( 'NONE',  ( 0.000000000000000000, 0.000000000000000000, 1.000000000000000000 ) ) ;
#28 = VERTEX_POINT ( 'NONE', #49 ) ;
#29 = PERSON_AND_ORGANIZATION ( #157, #25 ) ;
#30 = CARTESIAN_POINT ( 'NONE',  ( 1.250000000000000000, 1.000000000000000000, -0.04921259842519662420 ) ) ;
#31 = ORIENTED_EDGE ( 'NONE', *, *, #236, .F. ) ;
#32 = LINE ( 'NONE', #16, #348 ) ;
#33 = APPROVAL_PERSON_ORGANIZATION ( #233, #196, #434 ) ;
#34 = EDGE_CURVE ( 'NONE', #214, #448, #192, .T. ) ;
#35 = CC_DESIGN_DATE_AND_TIME_ASSIGNMENT ( #198, #230, ( #423 ) ) ;
#36 = ORIENTED_EDGE ( 'NONE', *, *, #419, .T. ) ;
#37 = VECTOR ( 'NONE', #188, 39.37007874015748143 ) ;
#38 = CIRCLE ( 'NONE', #424, 0.04921259842519675604 ) ;
#39 = CARTESIAN_POINT ( 'NONE',  ( 1.250000000000000000, 1.000000000000000000, 0.000000000000000000 ) ) ;
#40 = EDGE_LOOP ( 'NONE', ( #75, #2, #122, #205 ) ) ;
#41 = LINE ( 'NONE', #149, #61 ) ;
#42 = ORIENTED_EDGE ( 'NONE', *, *, #374, .F. ) ;
#43 = PLANE ( 'NONE',  #63 ) ;
#44 = CARTESIAN_POINT ( 'NONE',  ( -1.625000000000000000, 1.250000000000000000, -0.1250000000000000000 ) ) ;
#45 = ADVANCED_FACE ( 'NONE', ( #286 ), #322, .F. ) ;
#46 = CARTESIAN_POINT ( 'NONE',  ( 1.625000000000000000, 0.000000000000000000, 0.1250000000000000000 ) ) ;
#47 = ORIENTED_EDGE ( 'NONE', *, *, #366, .F. ) ;
#48 = CARTESIAN_POINT ( 'NONE',  ( 1.625000000000000000, 0.000000000000000000, -0.1250000000000000000 ) ) ;
#49 = CARTESIAN_POINT ( 'NONE',  ( -1.250000000000000000, 0.9704300876462814696, 0.000000000000000000 ) ) ;
#50 = EDGE_CURVE ( 'NONE', #28, #214, #86, .T. ) ;
#51 = EDGE_LOOP ( 'NONE', ( #292, #175, #382 ) ) ;
#52 = PRODUCT_DEFINITION_FORMATION_WITH_SPECIFIED_SOURCE ( 'ANY', '', #56, .NOT_KNOWN. ) ;
#53 = CARTESIAN_POINT ( 'NONE',  ( -1.625000000000000000, 0.000000000000000000, -0.1250000000000000000 ) ) ;
#54 = CARTESIAN_POINT ( 'NONE',  ( -1.250000000000000000, 1.000000000000000000, 0.000000000000000000 ) ) ;
#55 = ADVANCED_FACE ( 'NONE', ( #320 ), #20, .F. ) ;
#56 = PRODUCT ( 'Front Wall', 'Front Wall', '', ( #224 ) ) ;
#57 = CIRCLE ( 'NONE', #284, 0.04921259842519662420 ) ;
#58 = PERSON_AND_ORGANIZATION_ROLE ( 'design_owner' ) ;
#59 = APPROVAL_DATE_TIME ( #263, #430 ) ;
#60 = CYLINDRICAL_SURFACE ( 'NONE', #155, 0.04921259842519655481 ) ;
#61 = VECTOR ( 'NONE', #246, 39.37007874015748143 ) ;
#62 = PERSON_AND_ORGANIZATION ( #157, #25 ) ;
#63 = AXIS2_PLACEMENT_3D ( 'NONE', #153, #6, #182 ) ;
#64 = CARTESIAN_POINT ( 'NONE',  ( 1.250000000000000000, 1.000000000000000000, 0.04921259842519662420 ) ) ;
#65 = FACE_OUTER_BOUND ( 'NONE', #40, .T. ) ;
#66 = ORIENTED_EDGE ( 'NONE', *, *, #381, .T. ) ;
#67 = EDGE_CURVE ( 'NONE', #214, #212, #38, .T. ) ;
#68 = CARTESIAN_POINT ( 'NONE',  ( -1.625000000000000000, 0.000000000000000000, -0.1250000000000000000 ) ) ;
#69 = ORIENTED_EDGE ( 'NONE', *, *, #232, .F. ) ;
#70 = DIRECTION ( 'NONE',  ( -0.000000000000000000, 1.000000000000000000, -0.000000000000000000 ) ) ;
#71 = VECTOR ( 'NONE', #314, 39.37007874015748143 ) ;
#72 = ORIENTED_EDGE ( 'NONE', *, *, #218, .F. ) ;
#73 = FACE_OUTER_BOUND ( 'NONE', #409, .T. ) ;
#74 = PRODUCT_DEFINITION ( 'UNKNOWN', '', #52, #227 ) ;
#75 = ORIENTED_EDGE ( 'NONE', *, *, #337, .T. ) ;
#76 = FACE_OUTER_BOUND ( 'NONE', #9, .T. ) ;
#77 = VERTEX_POINT ( 'NONE', #347 ) ;
#78 = ADVANCED_FACE ( 'NONE', ( #150 ), #426, .F. ) ;
#79 = CARTESIAN_POINT ( 'NONE',  ( 1.250000000000000000, 0.9704300876462814696, 0.000000000000000000 ) ) ;
#80 = CC_DESIGN_SECURITY_CLASSIFICATION ( #423, ( #52 ) ) ;
#81 = DIRECTION ( 'NONE',  ( 0.000000000000000000, 0.000000000000000000, 1.000000000000000000 ) ) ;
#82 = CARTESIAN_POINT ( 'NONE',  ( -1.625000000000000000, 1.250000000000000000, -0.1250000000000000000 ) ) ;
#83 = CONICAL_SURFACE ( 'NONE', #407, 0.04921259842519675604, 1.029744258676653867 ) ;
#84 = ORIENTED_EDGE ( 'NONE', *, *, #264, .F. ) ;
#85 = CC_DESIGN_PERSON_AND_ORGANIZATION_ASSIGNMENT ( #29, #24, ( #52 ) ) ;
#86 = LINE ( 'NONE', #190, #294 ) ;
#87 = ORIENTED_EDGE ( 'NONE', *, *, #178, .F. ) ;
#88 = LOCAL_TIME ( 16, 28, 9.000000000000000000, #296 ) ;
#89 =( CONVERSION_BASED_UNIT ( 'INCH', #362 ) LENGTH_UNIT ( ) NAMED_UNIT ( #197 ) );
#90 = DIRECTION ( 'NONE',  ( 0.000000000000000000, 0.000000000000000000, 1.000000000000000000 ) ) ;
#91 = APPROVAL ( #259, 'UNSPECIFIED' ) ;
#92 = ADVANCED_FACE ( 'NONE', ( #281 ), #420, .F. ) ;
#93 = APPROVAL_STATUS ( 'not_yet_approved' ) ;
#94 = CIRCLE ( 'NONE', #176, 0.04921259842519662420 ) ;
#95 = CALENDAR_DATE ( 2026, 20, 3 ) ;
#96 = LINE ( 'NONE', #30, #217 ) ;
#97 = COORDINATED_UNIVERSAL_TIME_OFFSET ( 8, 0, .BEHIND. ) ;
#98 = CARTESIAN_POINT ( 'NONE',  ( 1.625000000000000000, 1.250000000000000000, -0.1250000000000000000 ) ) ;
#99 = AXIS2_PLACEMENT_3D ( 'NONE', #235, #371, #303 ) ;
#100 = DIRECTION ( 'NONE',  ( -0.000000000000000000, 1.000000000000000000, -0.000000000000000000 ) ) ;
#101 = ORIENTED_EDGE ( 'NONE', *, *, #108, .T. ) ;
#102 = ADVANCED_FACE ( 'NONE', ( #338, #267, #65 ), #444, .T. ) ;
#103 = CARTESIAN_POINT ( 'NONE',  ( -1.250000000000000000, 1.000000000000000000, 0.04921259842519675604 ) ) ;
#104 = ORIENTED_EDGE ( 'NONE', *, *, #381, .F. ) ;
#105 = CARTESIAN_POINT ( 'NONE',  ( 1.250000000000000000, 1.250000000000000000, -0.04921259842519648542 ) ) ;
#106 = VERTEX_POINT ( 'NONE', #399 ) ;
#107 = CARTESIAN_POINT ( 'NONE',  ( -1.625000000000000000, 0.000000000000000000, -0.1250000000000000000 ) ) ;
#108 = EDGE_CURVE ( 'NONE', #373, #112, #94, .T. ) ;
#109 = AXIS2_PLACEMENT_3D ( 'NONE', #251, #389, #111 ) ;
#110 = VERTEX_POINT ( 'NONE', #98 ) ;
#111 = DIRECTION ( 'NONE',  ( 0.000000000000000000, 0.000000000000000000, 1.000000000000000000 ) ) ;
#112 = VERTEX_POINT ( 'NONE', #64 ) ;
#113 = CARTESIAN_POINT ( 'NONE',  ( 1.625000000000000000, 1.250000000000000000, -0.1250000000000000000 ) ) ;
#114 = CARTESIAN_POINT ( 'NONE',  ( -1.250000000000000000, 1.250000000000000000, 0.000000000000000000 ) ) ;
#115 = LINE ( 'NONE', #82, #181 ) ;
#116 = AXIS2_PLACEMENT_3D ( 'NONE', #194, #119, #328 ) ;
#117 = ORIENTED_EDGE ( 'NONE', *, *, #326, .F. ) ;
#118 = VECTOR ( 'NONE', #254, 39.37007874015748143 ) ;
#119 = DIRECTION ( 'NONE',  ( -0.000000000000000000, 1.000000000000000000, -0.000000000000000000 ) ) ;
#120 = AXIS2_PLACEMENT_3D ( 'NONE', #54, #193, #166 ) ;
#121 = DIRECTION ( 'NONE',  ( 0.000000000000000000, 0.000000000000000000, -1.000000000000000000 ) ) ;
#122 = ORIENTED_EDGE ( 'NONE', *, *, #358, .T. ) ;
#123 = DIRECTION ( 'NONE',  ( 1.000000000000000000, 0.000000000000000000, 0.000000000000000000 ) ) ;
#124 = ADVANCED_FACE ( 'NONE', ( #436 ), #60, .F. ) ;
#125 = CC_DESIGN_APPROVAL ( #91, ( #74 ) ) ;
#126 = CARTESIAN_POINT ( 'NONE',  ( 1.250000000000000000, 1.000000000000000000, 0.000000000000000000 ) ) ;
#127 = AXIS2_PLACEMENT_3D ( 'NONE', #425, #121, #391 ) ;
#128 = EDGE_CURVE ( 'NONE', #28, #212, #265, .T. ) ;
#129 = APPROVAL_PERSON_ORGANIZATION ( #333, #430, #228 ) ;
#130 = ADVANCED_FACE ( 'NONE', ( #334 ), #26, .F. ) ;
#131 = CALENDAR_DATE ( 2026, 20, 3 ) ;
#132 = CARTESIAN_POINT ( 'NONE',  ( -1.250000000000000000, 1.250000000000000000, 0.000000000000000000 ) ) ;
#133 = APPROVAL_ROLE ( '' ) ;
#134 = DIRECTION ( 'NONE',  ( 0.000000000000000000, 1.000000000000000000, 0.000000000000000000 ) ) ;
#135 = CALENDAR_DATE ( 2026, 20, 3 ) ;
#136 = CARTESIAN_POINT ( 'NONE',  ( 1.250000000000000000, 1.000000000000000000, 0.04921259842519662420 ) ) ;
#137 = ORIENTED_EDGE ( 'NONE', *, *, #236, .T. ) ;
#138 = DIRECTION ( 'NONE',  ( 0.000000000000000000, -0.000000000000000000, 1.000000000000000000 ) ) ;
#139 = ADVANCED_FACE ( 'NONE', ( #410 ), #83, .F. ) ;
#140 = ORIENTED_EDGE ( 'NONE', *, *, #402, .T. ) ;
#141 = VECTOR ( 'NONE', #305, 39.37007874015748143 ) ;
#142 = DIRECTION ( 'NONE',  ( 0.000000000000000000, 0.5150380749100555988, 0.8571673007021114454 ) ) ;
#143 = ORIENTED_EDGE ( 'NONE', *, *, #366, .T. ) ;
#144 = CARTESIAN_POINT ( 'NONE',  ( -1.250000000000000000, 1.250000000000000000, 0.000000000000000000 ) ) ;
#145 = EDGE_LOOP ( 'NONE', ( #87, #137, #339 ) ) ;
#146 = CC_DESIGN_PERSON_AND_ORGANIZATION_ASSIGNMENT ( #15, #58, ( #56 ) ) ;
#147 = FACE_OUTER_BOUND ( 'NONE', #318, .T. ) ;
#148 = ORIENTED_EDGE ( 'NONE', *, *, #67, .T. ) ;
#149 = CARTESIAN_POINT ( 'NONE',  ( -1.625000000000000000, 1.250000000000000000, -0.1250000000000000000 ) ) ;
#150 = FACE_OUTER_BOUND ( 'NONE', #357, .T. ) ;
#151 = CARTESIAN_POINT ( 'NONE',  ( 1.625000000000000000, 1.250000000000000000, -0.1250000000000000000 ) ) ;
#152 = ORIENTED_EDGE ( 'NONE', *, *, #159, .F. ) ;
#153 = CARTESIAN_POINT ( 'NONE',  ( 0.000000000000000000, 0.000000000000000000, 0.000000000000000000 ) ) ;
#154 = ORIENTED_EDGE ( 'NONE', *, *, #222, .T. ) ;
#155 = AXIS2_PLACEMENT_3D ( 'NONE', #132, #225, #273 ) ;
#156 = DIRECTION ( 'NONE',  ( 0.000000000000000000, 0.000000000000000000, 1.000000000000000000 ) ) ;
#157 = PERSON ( 'UNSPECIFIED', 'UNSPECIFIED', 'UNSPECIFIED', ('UNSPECIFIED'), ('UNSPECIFIED'), ('UNSPECIFIED') ) ;
#158 = CARTESIAN_POINT ( 'NONE',  ( -1.625000000000000000, 1.250000000000000000, 0.1250000000000000000 ) ) ;
#159 = EDGE_CURVE ( 'NONE', #110, #77, #301, .T. ) ;
#160 = AXIS2_PLACEMENT_3D ( 'NONE', #433, #262, #369 ) ;
#161 = AXIS2_PLACEMENT_3D ( 'NONE', #408, #240, #403 ) ;
#162 = COORDINATED_UNIVERSAL_TIME_OFFSET ( 8, 0, .BEHIND. ) ;
#163 = CARTESIAN_POINT ( 'NONE',  ( 0.000000000000000000, 1.250000000000000000, 0.000000000000000000 ) ) ;
#164 = CIRCLE ( 'NONE', #414, 0.04921259842519634664 ) ;
#165 = APPLICATION_PROTOCOL_DEFINITION ( 'international standard', 'config_control_design', 1994, #23 ) ;
#166 = DIRECTION ( 'NONE',  ( 0.000000000000000000, 0.000000000000000000, 1.000000000000000000 ) ) ;
#167 = CALENDAR_DATE ( 2026, 20, 3 ) ;
#168 = CARTESIAN_POINT ( 'NONE',  ( 1.250000000000000000, 1.000000000000000000, 0.000000000000000000 ) ) ;
#169 = EDGE_LOOP ( 'NONE', ( #384, #304, #148 ) ) ;
#170 = CALENDAR_DATE ( 2026, 20, 3 ) ;
#171 = DIRECTION ( 'NONE',  ( -0.000000000000000000, 1.000000000000000000, -0.000000000000000000 ) ) ;
#172 = EDGE_LOOP ( 'NONE', ( #345, #104, #207, #241 ) ) ;
#173 = LOCAL_TIME ( 16, 28, 9.000000000000000000, #162 ) ;
#174 = CARTESIAN_POINT ( 'NONE',  ( 1.250000000000000000, 1.000000000000000000, 0.000000000000000000 ) ) ;
#175 = ORIENTED_EDGE ( 'NONE', *, *, #128, .T. ) ;
#176 = AXIS2_PLACEMENT_3D ( 'NONE', #174, #171, #270 ) ;
#177 = DIRECTION ( 'NONE',  ( -0.000000000000000000, 1.000000000000000000, -0.000000000000000000 ) ) ;
#178 = EDGE_CURVE ( 'NONE', #313, #373, #96, .T. ) ;
#179 = DIRECTION ( 'NONE',  ( -0.000000000000000000, 1.000000000000000000, -0.000000000000000000 ) ) ;
#180 = ORIENTED_EDGE ( 'NONE', *, *, #361, .F. ) ;
#181 = VECTOR ( 'NONE', #282, 39.37007874015748143 ) ;
#182 = DIRECTION ( 'NONE',  ( 0.000000000000000000, -0.000000000000000000, 1.000000000000000000 ) ) ;
#183 = DIRECTION ( 'NONE',  ( 0.000000000000000000, 0.000000000000000000, 1.000000000000000000 ) ) ;
#184 = DIRECTION ( 'NONE',  ( 0.000000000000000000, 0.000000000000000000, -1.000000000000000000 ) ) ;
#185 = EDGE_CURVE ( 'NONE', #239, #350, #204, .T. ) ;
#186 = LINE ( 'NONE', #158, #317 ) ;
#187 = DIRECTION ( 'NONE',  ( -0.000000000000000000, -0.000000000000000000, -1.000000000000000000 ) ) ;
#188 = DIRECTION ( 'NONE',  ( -0.000000000000000000, 1.000000000000000000, -0.000000000000000000 ) ) ;
#189 = CC_DESIGN_APPROVAL ( #430, ( #52 ) ) ;
#190 = CARTESIAN_POINT ( 'NONE',  ( -1.250000000000000000, 1.000000000000000000, -0.04921259842519675604 ) ) ;
#191 =( LENGTH_UNIT ( ) NAMED_UNIT ( * ) SI_UNIT ( $, .METRE. ) );
#192 = LINE ( 'NONE', #428, #37 ) ;
#193 = DIRECTION ( 'NONE',  ( -0.000000000000000000, 1.000000000000000000, -0.000000000000000000 ) ) ;
#194 = CARTESIAN_POINT ( 'NONE',  ( 1.250000000000000000, 1.250000000000000000, 0.000000000000000000 ) ) ;
#195 = AXIS2_PLACEMENT_3D ( 'NONE', #319, #421, #280 ) ;
#196 = APPROVAL ( #368, 'UNSPECIFIED' ) ;
#197 = DIMENSIONAL_EXPONENTS ( 1.000000000000000000, 0.000000000000000000, 0.000000000000000000, 0.000000000000000000, 0.000000000000000000, 0.000000000000000000, 0.000000000000000000 ) ;
#198 = DATE_AND_TIME ( #135, #226 ) ;
#199 = APPROVAL_DATE_TIME ( #398, #91 ) ;
#200 = FACE_OUTER_BOUND ( 'NONE', #411, .T. ) ;
#201 = ADVANCED_FACE ( 'NONE', ( #440 ), #310, .F. ) ;
#202 = DATE_TIME_ROLE ( 'creation_date' ) ;
#203 = CARTESIAN_POINT ( 'NONE',  ( 1.250000000000000000, 1.250000000000000000, 0.04921259842519634664 ) ) ;
#204 = LINE ( 'NONE', #360, #141 ) ;
#205 = ORIENTED_EDGE ( 'NONE', *, *, #159, .T. ) ;
#206 = DIRECTION ( 'NONE',  ( -1.000000000000000000, -0.000000000000000000, -0.000000000000000000 ) ) ;
#207 = ORIENTED_EDGE ( 'NONE', *, *, #358, .F. ) ;
#208 = AXIS2_PLACEMENT_3D ( 'NONE', #248, #416, #184 ) ;
#209 = DIRECTION ( 'NONE',  ( 0.000000000000000000, 0.000000000000000000, 1.000000000000000000 ) ) ;
#210 = VERTEX_POINT ( 'NONE', #203 ) ;
#211 = CYLINDRICAL_SURFACE ( 'NONE', #116, 0.04921259842519648542 ) ;
#212 = VERTEX_POINT ( 'NONE', #401 ) ;
#213 = CARTESIAN_POINT ( 'NONE',  ( 1.625000000000000000, 0.000000000000000000, -0.1250000000000000000 ) ) ;
#214 = VERTEX_POINT ( 'NONE', #375 ) ;
#215 = PLANE ( 'NONE',  #208 ) ;
#216 = VERTEX_POINT ( 'NONE', #68 ) ;
#217 = VECTOR ( 'NONE', #231, 39.37007874015748143 ) ;
#218 = EDGE_CURVE ( 'NONE', #112, #373, #57, .T. ) ;
#219 = LINE ( 'NONE', #113, #306 ) ;
#220 = ORIENTED_EDGE ( 'NONE', *, *, #232, .T. ) ;
#221 = ORIENTED_EDGE ( 'NONE', *, *, #12, .F. ) ;
#222 = EDGE_CURVE ( 'NONE', #390, #350, #32, .T. ) ;
#223 = ORIENTED_EDGE ( 'NONE', *, *, #332, .T. ) ;
#224 = MECHANICAL_CONTEXT ( 'NONE', #18, 'mechanical' ) ;
#225 = DIRECTION ( 'NONE',  ( -0.000000000000000000, 1.000000000000000000, -0.000000000000000000 ) ) ;
#226 = LOCAL_TIME ( 16, 28, 9.000000000000000000, #400 ) ;
#227 = DESIGN_CONTEXT ( 'detailed design', #23, 'design' ) ;
#228 = APPROVAL_ROLE ( '' ) ;
#229 = AXIS2_PLACEMENT_3D ( 'NONE', #44, #183, #5 ) ;
#230 = DATE_TIME_ROLE ( 'classification_date' ) ;
#231 = DIRECTION ( 'NONE',  ( 1.049727191138617463E-16, 0.5150380749100555988, -0.8571673007021114454 ) ) ;
#232 = EDGE_CURVE ( 'NONE', #439, #210, #397, .T. ) ;
#233 = PERSON_AND_ORGANIZATION ( #157, #25 ) ;
#234 = ADVANCED_BREP_SHAPE_REPRESENTATION ( 'Front Wall', ( #427, #378 ), #441 ) ;
#235 = CARTESIAN_POINT ( 'NONE',  ( 1.250000000000000000, 1.250000000000000000, 0.000000000000000000 ) ) ;
#236 = EDGE_CURVE ( 'NONE', #313, #112, #438, .T. ) ;
#237 = VECTOR ( 'NONE', #142, 39.37007874015748143 ) ;
#238 = CARTESIAN_POINT ( 'NONE',  ( -1.625000000000000000, 1.250000000000000000, -0.1250000000000000000 ) ) ;
#239 = VERTEX_POINT ( 'NONE', #297 ) ;
#240 = DIRECTION ( 'NONE',  ( -1.000000000000000000, 0.000000000000000000, 0.000000000000000000 ) ) ;
#241 = ORIENTED_EDGE ( 'NONE', *, *, #185, .T. ) ;
#242 = DIRECTION ( 'NONE',  ( -0.000000000000000000, 1.000000000000000000, -0.000000000000000000 ) ) ;
#243 = ORIENTED_EDGE ( 'NONE', *, *, #374, .T. ) ;
#244 = LINE ( 'NONE', #48, #393 ) ;
#245 = ORIENTED_EDGE ( 'NONE', *, *, #329, .F. ) ;
#246 = DIRECTION ( 'NONE',  ( -0.000000000000000000, -1.000000000000000000, -0.000000000000000000 ) ) ;
#247 = ORIENTED_EDGE ( 'NONE', *, *, #34, .F. ) ;
#248 = CARTESIAN_POINT ( 'NONE',  ( -1.625000000000000000, 1.250000000000000000, -0.1250000000000000000 ) ) ;
#249 = DIRECTION ( 'NONE',  ( -0.000000000000000000, 1.000000000000000000, -0.000000000000000000 ) ) ;
#250 = AXIS2_PLACEMENT_3D ( 'NONE', #39, #177, #312 ) ;
#251 = CARTESIAN_POINT ( 'NONE',  ( 1.250000000000000000, 1.250000000000000000, 0.000000000000000000 ) ) ;
#252 = DIRECTION ( 'NONE',  ( 1.000000000000000000, 0.000000000000000000, 0.000000000000000000 ) ) ;
#253 = VECTOR ( 'NONE', #336, 39.37007874015748143 ) ;
#254 = DIRECTION ( 'NONE',  ( 0.000000000000000000, 0.000000000000000000, 1.000000000000000000 ) ) ;
#255 = ORIENTED_EDGE ( 'NONE', *, *, #388, .F. ) ;
#256 = VECTOR ( 'NONE', #3, 39.37007874015748143 ) ;
#257 = AXIS2_PLACEMENT_3D ( 'NONE', #278, #349, #346 ) ;
#258 = ORIENTED_EDGE ( 'NONE', *, *, #332, .F. ) ;
#259 = APPROVAL_STATUS ( 'not_yet_approved' ) ;
#260 = VECTOR ( 'NONE', #380, 39.37007874015748143 ) ;
#261 = PERSON_AND_ORGANIZATION ( #157, #25 ) ;
#262 = DIRECTION ( 'NONE',  ( -0.000000000000000000, 1.000000000000000000, -0.000000000000000000 ) ) ;
#263 = DATE_AND_TIME ( #95, #88 ) ;
#264 = EDGE_CURVE ( 'NONE', #212, #214, #387, .T. ) ;
#265 = LINE ( 'NONE', #103, #253 ) ;
#266 = SHAPE_DEFINITION_REPRESENTATION ( #429, #234 ) ;
#267 = FACE_BOUND ( 'NONE', #406, .T. ) ;
#268 = LOCAL_TIME ( 16, 28, 9.000000000000000000, #97 ) ;
#269 = ORIENTED_EDGE ( 'NONE', *, *, #326, .T. ) ;
#270 = DIRECTION ( 'NONE',  ( 0.000000000000000000, 0.000000000000000000, 1.000000000000000000 ) ) ;
#271 = ORIENTED_EDGE ( 'NONE', *, *, #329, .T. ) ;
#272 = CC_DESIGN_PERSON_AND_ORGANIZATION_ASSIGNMENT ( #300, #302, ( #423 ) ) ;
#273 = DIRECTION ( 'NONE',  ( 0.000000000000000000, 0.000000000000000000, 1.000000000000000000 ) ) ;
#274 = ORIENTED_EDGE ( 'NONE', *, *, #405, .T. ) ;
#275 = LINE ( 'NONE', #107, #260 ) ;
#276 = EDGE_LOOP ( 'NONE', ( #247, #84, #243, #311 ) ) ;
#277 = VECTOR ( 'NONE', #383, 39.37007874015748143 ) ;
#278 = CARTESIAN_POINT ( 'NONE',  ( 1.250000000000000000, 1.250000000000000000, 0.000000000000000000 ) ) ;
#279 = ORIENTED_EDGE ( 'NONE', *, *, #185, .F. ) ;
#280 = DIRECTION ( 'NONE',  ( 0.000000000000000000, 0.000000000000000000, 1.000000000000000000 ) ) ;
#281 = FACE_OUTER_BOUND ( 'NONE', #325, .T. ) ;
#282 = DIRECTION ( 'NONE',  ( 0.000000000000000000, 0.000000000000000000, 1.000000000000000000 ) ) ;
#283 = CARTESIAN_POINT ( 'NONE',  ( -1.625000000000000000, 1.250000000000000000, 0.1250000000000000000 ) ) ;
#284 = AXIS2_PLACEMENT_3D ( 'NONE', #168, #327, #340 ) ;
#285 = CYLINDRICAL_SURFACE ( 'NONE', #257, 0.04921259842519648542 ) ;
#286 = FACE_OUTER_BOUND ( 'NONE', #392, .T. ) ;
#287 = ADVANCED_FACE ( 'NONE', ( #200 ), #285, .F. ) ;
#288 = AXIS2_PLACEMENT_3D ( 'NONE', #114, #249, #81 ) ;
#289 = DIRECTION ( 'NONE',  ( 0.000000000000000000, 0.000000000000000000, 1.000000000000000000 ) ) ;
#290 = CARTESIAN_POINT ( 'NONE',  ( -1.250000000000000000, 1.000000000000000000, 0.000000000000000000 ) ) ;
#291 =( NAMED_UNIT ( * ) SI_UNIT ( $, .STERADIAN. ) SOLID_ANGLE_UNIT ( ) );
#292 = ORIENTED_EDGE ( 'NONE', *, *, #50, .F. ) ;
#293 = LOCAL_TIME ( 16, 28, 9.000000000000000000, #331 ) ;
#294 = VECTOR ( 'NONE', #354, 39.37007874015748143 ) ;
#295 = ADVANCED_FACE ( 'NONE', ( #76 ), #43, .F. ) ;
#296 = COORDINATED_UNIVERSAL_TIME_OFFSET ( 8, 0, .BEHIND. ) ;
#297 = CARTESIAN_POINT ( 'NONE',  ( 1.625000000000000000, 1.250000000000000000, 0.1250000000000000000 ) ) ;
#298 = APPROVAL_PERSON_ORGANIZATION ( #432, #91, #133 ) ;
#299 = ADVANCED_FACE ( 'NONE', ( #147 ), #215, .F. ) ;
#300 = PERSON_AND_ORGANIZATION ( #157, #25 ) ;
#301 = LINE ( 'NONE', #238, #330 ) ;
#302 = PERSON_AND_ORGANIZATION_ROLE ( 'classification_officer' ) ;
#303 = DIRECTION ( 'NONE',  ( 0.000000000000000000, 0.000000000000000000, 1.000000000000000000 ) ) ;
#304 = ORIENTED_EDGE ( 'NONE', *, *, #50, .T. ) ;
#305 = DIRECTION ( 'NONE',  ( -0.000000000000000000, -1.000000000000000000, -0.000000000000000000 ) ) ;
#306 = VECTOR ( 'NONE', #351, 39.37007874015748143 ) ;
#307 = ORIENTED_EDGE ( 'NONE', *, *, #67, .F. ) ;
#308 = DIRECTION ( 'NONE',  ( 1.000000000000000000, 0.000000000000000000, 0.000000000000000000 ) ) ;
#309 = CLOSED_SHELL ( 'NONE', ( #92, #201, #435, #412, #299, #45, #130, #78, #102, #295, #55, #287, #139, #124 ) ) ;
#310 = CONICAL_SURFACE ( 'NONE', #120, 0.04921259842519675604, 1.029744258676653867 ) ;
#311 = ORIENTED_EDGE ( 'NONE', *, *, #361, .T. ) ;
#312 = DIRECTION ( 'NONE',  ( 0.000000000000000000, 0.000000000000000000, 1.000000000000000000 ) ) ;
#313 = VERTEX_POINT ( 'NONE', #79 ) ;
#314 = DIRECTION ( 'NONE',  ( -0.000000000000000000, -0.000000000000000000, -1.000000000000000000 ) ) ;
#315 = ORIENTED_EDGE ( 'NONE', *, *, #178, .T. ) ;
#316 = LINE ( 'NONE', #344, #256 ) ;
#317 = VECTOR ( 'NONE', #252, 39.37007874015748143 ) ;
#318 = EDGE_LOOP ( 'NONE', ( #343, #117, #415, #271 ) ) ;
#319 = CARTESIAN_POINT ( 'NONE',  ( -1.250000000000000000, 1.250000000000000000, 0.000000000000000000 ) ) ;
#320 = FACE_OUTER_BOUND ( 'NONE', #145, .T. ) ;
#321 = CARTESIAN_POINT ( 'NONE',  ( -1.250000000000000000, 1.250000000000000000, 0.04921259842519655481 ) ) ;
#322 = PLANE ( 'NONE',  #127 ) ;
#323 = CARTESIAN_POINT ( 'NONE',  ( 0.000000000000000000, 0.000000000000000000, 0.000000000000000000 ) ) ;
#324 = LINE ( 'NONE', #53, #118 ) ;
#325 = EDGE_LOOP ( 'NONE', ( #307, #341, #274, #42 ) ) ;
#326 = EDGE_CURVE ( 'NONE', #14, #390, #316, .T. ) ;
#327 = DIRECTION ( 'NONE',  ( -0.000000000000000000, 1.000000000000000000, -0.000000000000000000 ) ) ;
#328 = DIRECTION ( 'NONE',  ( 0.000000000000000000, 0.000000000000000000, 1.000000000000000000 ) ) ;
#329 = EDGE_CURVE ( 'NONE', #77, #216, #41, .T. ) ;
#330 = VECTOR ( 'NONE', #206, 39.37007874015748143 ) ;
#331 = COORDINATED_UNIVERSAL_TIME_OFFSET ( 8, 0, .BEHIND. ) ;
#332 = EDGE_CURVE ( 'NONE', #112, #210, #377, .T. ) ;
#333 = PERSON_AND_ORGANIZATION ( #157, #25 ) ;
#334 = FACE_OUTER_BOUND ( 'NONE', #172, .T. ) ;
#335 = CC_DESIGN_APPROVAL ( #196, ( #423 ) ) ;
#336 = DIRECTION ( 'NONE',  ( 0.000000000000000000, 0.5150380749100547106, 0.8571673007021120005 ) ) ;
#337 = EDGE_CURVE ( 'NONE', #77, #14, #115, .T. ) ;
#338 = FACE_BOUND ( 'NONE', #395, .T. ) ;
#339 = ORIENTED_EDGE ( 'NONE', *, *, #218, .T. ) ;
#340 = DIRECTION ( 'NONE',  ( 0.000000000000000000, 0.000000000000000000, 1.000000000000000000 ) ) ;
#341 = ORIENTED_EDGE ( 'NONE', *, *, #34, .T. ) ;
#342 = FACE_OUTER_BOUND ( 'NONE', #417, .T. ) ;
#343 = ORIENTED_EDGE ( 'NONE', *, *, #19, .T. ) ;
#344 = CARTESIAN_POINT ( 'NONE',  ( -1.625000000000000000, 1.250000000000000000, 0.1250000000000000000 ) ) ;
#345 = ORIENTED_EDGE ( 'NONE', *, *, #388, .T. ) ;
#346 = DIRECTION ( 'NONE',  ( 0.000000000000000000, 0.000000000000000000, 1.000000000000000000 ) ) ;
#347 = CARTESIAN_POINT ( 'NONE',  ( -1.625000000000000000, 1.250000000000000000, -0.1250000000000000000 ) ) ;
#348 = VECTOR ( 'NONE', #308, 39.37007874015748143 ) ;
#349 = DIRECTION ( 'NONE',  ( -0.000000000000000000, 1.000000000000000000, -0.000000000000000000 ) ) ;
#350 = VERTEX_POINT ( 'NONE', #46 ) ;
#351 = DIRECTION ( 'NONE',  ( -0.000000000000000000, -1.000000000000000000, -0.000000000000000000 ) ) ;
#352 = CC_DESIGN_PERSON_AND_ORGANIZATION_ASSIGNMENT ( #62, #396, ( #52 ) ) ;
#353 = ORIENTED_EDGE ( 'NONE', *, *, #108, .F. ) ;
#354 = DIRECTION ( 'NONE',  ( 1.049727191138618326E-16, 0.5150380749100547106, -0.8571673007021120005 ) ) ;
#355 = VECTOR ( 'NONE', #242, 39.37007874015748143 ) ;
#356 = CARTESIAN_POINT ( 'NONE',  ( -1.250000000000000000, 1.250000000000000000, -0.04921259842519634664 ) ) ;
#357 = EDGE_LOOP ( 'NONE', ( #36, #245, #152, #66 ) ) ;
#358 = EDGE_CURVE ( 'NONE', #239, #110, #385, .T. ) ;
#359 = CARTESIAN_POINT ( 'NONE',  ( 1.250000000000000000, 1.250000000000000000, -0.04921259842519634664 ) ) ;
#360 = CARTESIAN_POINT ( 'NONE',  ( 1.625000000000000000, 1.250000000000000000, 0.1250000000000000000 ) ) ;
#361 = EDGE_CURVE ( 'NONE', #106, #448, #404, .T. ) ;
#362 = LENGTH_MEASURE_WITH_UNIT ( LENGTH_MEASURE( 0.02539999999999999897 ), #191 );
#363 = CIRCLE ( 'NONE', #109, 0.04921259842519634664 ) ;
#364 = AXIS2_PLACEMENT_3D ( 'NONE', #163, #134, #138 ) ;
#365 = SECURITY_CLASSIFICATION_LEVEL ( 'unclassified' ) ;
#366 = EDGE_CURVE ( 'NONE', #210, #439, #363, .T. ) ;
#367 = PRODUCT_RELATED_PRODUCT_CATEGORY ( 'detail', '', ( #56 ) ) ;
#368 = APPROVAL_STATUS ( 'not_yet_approved' ) ;
#369 = DIRECTION ( 'NONE',  ( 0.000000000000000000, 0.000000000000000000, 1.000000000000000000 ) ) ;
#370 = DATE_AND_TIME ( #170, #293 ) ;
#371 = DIRECTION ( 'NONE',  ( -0.000000000000000000, 1.000000000000000000, -0.000000000000000000 ) ) ;
#372 = CARTESIAN_POINT ( 'NONE',  ( -1.250000000000000000, 1.000000000000000000, 0.000000000000000000 ) ) ;
#373 = VERTEX_POINT ( 'NONE', #1 ) ;
#374 = EDGE_CURVE ( 'NONE', #212, #106, #418, .T. ) ;
#375 = CARTESIAN_POINT ( 'NONE',  ( -1.250000000000000000, 1.000000000000000000, -0.04921259842519675604 ) ) ;
#376 = VERTEX_POINT ( 'NONE', #213 ) ;
#377 = LINE ( 'NONE', #447, #10 ) ;
#378 = AXIS2_PLACEMENT_3D ( 'NONE', #323, #289, #123 ) ;
#379 = ORIENTED_EDGE ( 'NONE', *, *, #222, .F. ) ;
#380 = DIRECTION ( 'NONE',  ( -1.000000000000000000, -0.000000000000000000, -0.000000000000000000 ) ) ;
#381 = EDGE_CURVE ( 'NONE', #110, #376, #219, .T. ) ;
#382 = ORIENTED_EDGE ( 'NONE', *, *, #264, .T. ) ;
#383 = DIRECTION ( 'NONE',  ( -0.000000000000000000, 1.000000000000000000, -0.000000000000000000 ) ) ;
#384 = ORIENTED_EDGE ( 'NONE', *, *, #128, .F. ) ;
#385 = LINE ( 'NONE', #151, #71 ) ;
#386 = ORIENTED_EDGE ( 'NONE', *, *, #402, .F. ) ;
#387 = CIRCLE ( 'NONE', #160, 0.04921259842519675604 ) ;
#388 = EDGE_CURVE ( 'NONE', #350, #376, #244, .T. ) ;
#389 = DIRECTION ( 'NONE',  ( -0.000000000000000000, 1.000000000000000000, -0.000000000000000000 ) ) ;
#390 = VERTEX_POINT ( 'NONE', #413 ) ;
#391 = DIRECTION ( 'NONE',  ( -1.000000000000000000, 0.000000000000000000, -0.000000000000000000 ) ) ;
#392 = EDGE_LOOP ( 'NONE', ( #154, #279, #221, #269 ) ) ;
#393 = VECTOR ( 'NONE', #187, 39.37007874015748143 ) ;
#394 = APPLICATION_PROTOCOL_DEFINITION ( 'international standard', 'config_control_design', 1994, #18 ) ;
#395 = EDGE_LOOP ( 'NONE', ( #180, #445 ) ) ;
#396 = PERSON_AND_ORGANIZATION_ROLE ( 'creator' ) ;
#397 = CIRCLE ( 'NONE', #99, 0.04921259842519634664 ) ;
#398 = DATE_AND_TIME ( #131, #268 ) ;
#399 = CARTESIAN_POINT ( 'NONE',  ( -1.250000000000000000, 1.250000000000000000, 0.04921259842519634664 ) ) ;
#400 = COORDINATED_UNIVERSAL_TIME_OFFSET ( 8, 0, .BEHIND. ) ;
#401 = CARTESIAN_POINT ( 'NONE',  ( -1.250000000000000000, 1.000000000000000000, 0.04921259842519675604 ) ) ;
#402 = EDGE_CURVE ( 'NONE', #373, #439, #8, .T. ) ;
#403 = DIRECTION ( 'NONE',  ( 0.000000000000000000, 0.000000000000000000, 1.000000000000000000 ) ) ;
#404 = CIRCLE ( 'NONE', #195, 0.04921259842519634664 ) ;
#405 = EDGE_CURVE ( 'NONE', #448, #106, #164, .T. ) ;
#406 = EDGE_LOOP ( 'NONE', ( #47, #69 ) ) ;
#407 = AXIS2_PLACEMENT_3D ( 'NONE', #372, #100, #27 ) ;
#408 = CARTESIAN_POINT ( 'NONE',  ( 1.625000000000000000, 1.250000000000000000, -0.1250000000000000000 ) ) ;
#409 = EDGE_LOOP ( 'NONE', ( #353, #140, #220, #258 ) ) ;
#410 = FACE_OUTER_BOUND ( 'NONE', #51, .T. ) ;
#411 = EDGE_LOOP ( 'NONE', ( #386, #72, #223, #143 ) ) ;
#412 = ADVANCED_FACE ( 'NONE', ( #342 ), #17, .F. ) ;
#413 = CARTESIAN_POINT ( 'NONE',  ( -1.625000000000000000, 0.000000000000000000, 0.1250000000000000000 ) ) ;
#414 = AXIS2_PLACEMENT_3D ( 'NONE', #144, #179, #209 ) ;
#415 = ORIENTED_EDGE ( 'NONE', *, *, #337, .F. ) ;
#416 = DIRECTION ( 'NONE',  ( 1.000000000000000000, 0.000000000000000000, 0.000000000000000000 ) ) ;
#417 = EDGE_LOOP ( 'NONE', ( #31, #315, #101 ) ) ;
#418 = LINE ( 'NONE', #321, #277 ) ;
#419 = EDGE_CURVE ( 'NONE', #376, #216, #275, .T. ) ;
#420 = CYLINDRICAL_SURFACE ( 'NONE', #288, 0.04921259842519655481 ) ;
#421 = DIRECTION ( 'NONE',  ( -0.000000000000000000, 1.000000000000000000, -0.000000000000000000 ) ) ;
#422 = DIRECTION ( 'NONE',  ( -0.000000000000000000, 1.000000000000000000, -0.000000000000000000 ) ) ;
#423 = SECURITY_CLASSIFICATION ( '', '', #365 ) ;
#424 = AXIS2_PLACEMENT_3D ( 'NONE', #290, #422, #90 ) ;
#425 = CARTESIAN_POINT ( 'NONE',  ( -1.625000000000000000, 1.250000000000000000, 0.1250000000000000000 ) ) ;
#426 = PLANE ( 'NONE',  #229 ) ;
#427 = MANIFOLD_SOLID_BREP ( 'M3x0.5 Tapped Hole1', #309 ) ;
#428 = CARTESIAN_POINT ( 'NONE',  ( -1.250000000000000000, 1.250000000000000000, -0.04921259842519655481 ) ) ;
#429 = PRODUCT_DEFINITION_SHAPE ( 'NONE', 'NONE',  #74 ) ;
#430 = APPROVAL ( #93, 'UNSPECIFIED' ) ;
#431 = DATE_AND_TIME ( #167, #173 ) ;
#432 = PERSON_AND_ORGANIZATION ( #157, #25 ) ;
#433 = CARTESIAN_POINT ( 'NONE',  ( -1.250000000000000000, 1.000000000000000000, 0.000000000000000000 ) ) ;
#434 = APPROVAL_ROLE ( '' ) ;
#435 = ADVANCED_FACE ( 'NONE', ( #73 ), #211, .F. ) ;
#436 = FACE_OUTER_BOUND ( 'NONE', #276, .T. ) ;
#437 = PERSON_AND_ORGANIZATION_ROLE ( 'creator' ) ;
#438 = LINE ( 'NONE', #136, #237 ) ;
#439 = VERTEX_POINT ( 'NONE', #359 ) ;
#440 = FACE_OUTER_BOUND ( 'NONE', #169, .T. ) ;
#441 =( GEOMETRIC_REPRESENTATION_CONTEXT ( 3 ) GLOBAL_UNCERTAINTY_ASSIGNED_CONTEXT ( ( #21 ) ) GLOBAL_UNIT_ASSIGNED_CONTEXT ( ( #89, #13, #291 ) ) REPRESENTATION_CONTEXT ( 'NONE', 'WORKASPACE' ) );
#442 = ORIENTED_EDGE ( 'NONE', *, *, #419, .F. ) ;
#443 = AXIS2_PLACEMENT_3D ( 'NONE', #126, #11, #156 ) ;
#444 = PLANE ( 'NONE',  #364 ) ;
#445 = ORIENTED_EDGE ( 'NONE', *, *, #405, .F. ) ;
#446 = CC_DESIGN_DATE_AND_TIME_ASSIGNMENT ( #431, #202, ( #74 ) ) ;
#447 = CARTESIAN_POINT ( 'NONE',  ( 1.250000000000000000, 1.250000000000000000, 0.04921259842519648542 ) ) ;
#448 = VERTEX_POINT ( 'NONE', #356 ) ;
ENDSEC;
END-ISO-10303-21;
