ISO-10303-21;
HEADER;
FILE_DESCRIPTION (( 'STEP AP203' ),
    '1' );
FILE_NAME ('Motor Spacer.STEP',
    '2026-03-20T23:31:38',
    ( '' ),
    ( '' ),
    'SwSTEP 2.0',
    'SolidWorks 2025',
    '' );
FILE_SCHEMA (( 'CONFIG_CONTROL_DESIGN' ));
ENDSEC;

DATA;
#1 = EDGE_CURVE ( 'NONE', #645, #552, #363, .T. ) ;
#2 = CARTESIAN_POINT ( 'NONE',  ( 0.2784768713035195575, 2.557316050343436231, 2.520961509905864872 ) ) ;
#3 = ORIENTED_EDGE ( 'NONE', *, *, #346, .T. ) ;
#4 = VECTOR ( 'NONE', #211, 39.37007874015748143 ) ;
#5 = AXIS2_PLACEMENT_3D ( 'NONE', #433, #491, #536 ) ;
#6 = CARTESIAN_POINT ( 'NONE',  ( 0.2775590536595485824, 2.527708034419605010, 2.513138908096011814 ) ) ;
#7 = EDGE_LOOP ( 'NONE', ( #342, #35, #492, #540 ) ) ;
#8 = CYLINDRICAL_SURFACE ( 'NONE', #509, 0.05900000000000010791 ) ;
#9 = ORIENTED_EDGE ( 'NONE', *, *, #568, .T. ) ;
#10 = CARTESIAN_POINT ( 'NONE',  ( 0.3313267820494033011, 2.746604160928115324, 1.960442937679105713 ) ) ;
#11 = CYLINDRICAL_SURFACE ( 'NONE', #244, 0.1000000000000000194 ) ;
#12 = CALENDAR_DATE ( 2026, 20, 3 ) ;
#13 = ORIENTED_EDGE ( 'NONE', *, *, #470, .T. ) ;
#14 = DIRECTION ( 'NONE',  ( -1.000000000000000000, -0.000000000000000000, -0.000000000000000000 ) ) ;
#15 = EDGE_CURVE ( 'NONE', #283, #627, #614, .T. ) ;
#16 = CARTESIAN_POINT ( 'NONE',  ( 0.3175654732635903033, 2.336919897154396519, 1.887138908096011924 ) ) ;
#17 = VECTOR ( 'NONE', #456, 39.37007874015748143 ) ;
#18 = VERTEX_POINT ( 'NONE', #643 ) ;
#19 = APPROVAL_PERSON_ORGANIZATION ( #437, #248, #113 ) ;
#20 = LINE ( 'NONE', #606, #154 ) ;
#21 = ORIENTED_EDGE ( 'NONE', *, *, #187, .T. ) ;
#22 = PERSON_AND_ORGANIZATION_ROLE ( 'creator' ) ;
#23 = ORIENTED_EDGE ( 'NONE', *, *, #402, .F. ) ;
#24 = DIRECTION ( 'NONE',  ( 1.000000000000000000, 0.000000000000000000, 0.000000000000000000 ) ) ;
#25 = FACE_OUTER_BOUND ( 'NONE', #544, .T. ) ;
#26 = VERTEX_POINT ( 'NONE', #63 ) ;
#27 = CARTESIAN_POINT ( 'NONE',  ( 0.2784427796380962161, 2.497964447551305422, 2.053668969743676520 ) ) ;
#28 = CARTESIAN_POINT ( 'NONE',  ( 0.000000000000000000, 2.527708034419605010, 2.513138908096011814 ) ) ;
#29 = PERSON_AND_ORGANIZATION_ROLE ( 'classification_officer' ) ;
#30 = ORIENTED_EDGE ( 'NONE', *, *, #147, .T. ) ;
#31 = AXIS2_PLACEMENT_3D ( 'NONE', #384, #242, #610 ) ;
#32 = CARTESIAN_POINT ( 'NONE',  ( 0.2775590536595485824, 2.527708034419605898, 2.061138908096011857 ) ) ;
#33 = CARTESIAN_POINT ( 'NONE',  ( 0.2796490725034041502, 2.572183709862219558, 1.963176563723700196 ) ) ;
#34 = SHAPE_DEFINITION_REPRESENTATION ( #202, #599 ) ;
#35 = ORIENTED_EDGE ( 'NONE', *, *, #621, .T. ) ;
#36 = DIRECTION ( 'NONE',  ( 1.000000000000000000, 0.000000000000000000, 0.000000000000000000 ) ) ;
#37 = CARTESIAN_POINT ( 'NONE',  ( 0.2777617800173282636, 2.512153079427112967, 2.629567747439896408 ) ) ;
#38 = ORIENTED_EDGE ( 'NONE', *, *, #523, .F. ) ;
#39 = CARTESIAN_POINT ( 'NONE',  ( 0.3163770801912332287, 2.715316870049368170, 2.663134217851435448 ) ) ;
#40 = CARTESIAN_POINT ( 'NONE',  ( 0.2776073612722071982, 2.535446792212807665, 2.060755564165953846 ) ) ;
#41 = CARTESIAN_POINT ( 'NONE',  ( 0.2789199446854181419, 2.563685170479399034, 2.619059114679961553 ) ) ;
#42 = VECTOR ( 'NONE', #172, 39.37007874015748143 ) ;
#43 = CARTESIAN_POINT ( 'NONE',  ( 0.2796432654942894169, 2.483295740816106711, 1.963108975608039319 ) ) ;
#44 = CARTESIAN_POINT ( 'NONE',  ( 0.3033972047229212543, 2.681937266296105626, 2.682121149238278157 ) ) ;
#45 = PERSON ( 'UNSPECIFIED', 'UNSPECIFIED', 'UNSPECIFIED', ('UNSPECIFIED'), ('UNSPECIFIED'), ('UNSPECIFIED') ) ;
#46 = CARTESIAN_POINT ( 'NONE',  ( 0.000000000000000000, 2.649999999999986144, 1.887138908096011924 ) ) ;
#47 = EDGE_CURVE ( 'NONE', #482, #82, #261, .T. ) ;
#48 = DIRECTION ( 'NONE',  ( 1.000000000000000000, 0.000000000000000000, 0.000000000000000000 ) ) ;
#49 = CARTESIAN_POINT ( 'NONE',  ( 0.2777589566245818875, 2.512236121931236799, 1.944687315544889605 ) ) ;
#50 = CARTESIAN_POINT ( 'NONE',  ( 0.2805427405315470413, 2.580741497093757886, 2.545996702836282211 ) ) ;
#51 = FACE_OUTER_BOUND ( 'NONE', #270, .T. ) ;
#52 = CIRCLE ( 'NONE', #73, 0.1000000000000000194 ) ;
#53 = CARTESIAN_POINT ( 'NONE',  ( 0.2798894956016324542, 2.574624659288658357, 2.536158460450661511 ) ) ;
#54 = CARTESIAN_POINT ( 'NONE',  ( 0.2798875014156808616, 2.574872371680997585, 2.608410951965576707 ) ) ;
#55 = PRODUCT_DEFINITION ( 'UNKNOWN', '', #205, #102 ) ;
#56 = CARTESIAN_POINT ( 'NONE',  ( 0.3677975730915960528, 2.249999999999985345, 1.987138908096012013 ) ) ;
#57 = ORIENTED_EDGE ( 'NONE', *, *, #47, .F. ) ;
#58 = FACE_OUTER_BOUND ( 'NONE', #413, .T. ) ;
#59 = CC_DESIGN_SECURITY_CLASSIFICATION ( #319, ( #205 ) ) ;
#60 = DIRECTION ( 'NONE',  ( 0.000000000000000000, -1.000000000000000000, 0.000000000000000000 ) ) ;
#61 = ORIENTED_EDGE ( 'NONE', *, *, #652, .T. ) ;
#62 = CYLINDRICAL_SURFACE ( 'NONE', #318, 0.1000000000000000194 ) ;
#63 = CARTESIAN_POINT ( 'NONE',  ( 0.000000000000000000, 2.527708034419605454, 2.061138908096011857 ) ) ;
#64 = SECURITY_CLASSIFICATION_LEVEL ( 'unclassified' ) ;
#65 = ORIENTED_EDGE ( 'NONE', *, *, #602, .F. ) ;
#66 = DIRECTION ( 'NONE',  ( 0.000000000000000000, 0.000000000000000000, -1.000000000000000000 ) ) ;
#67 = CARTESIAN_POINT ( 'NONE',  ( 0.2812579387203224535, 2.468705256828332750, 2.575997620455138915 ) ) ;
#68 = APPLICATION_PROTOCOL_DEFINITION ( 'international standard', 'config_control_design', 1994, #654 ) ;
#69 = ORIENTED_EDGE ( 'NONE', *, *, #568, .F. ) ;
#70 = CARTESIAN_POINT ( 'NONE',  ( 0.000000000000000000, 2.527708034419605010, 2.572138908096011978 ) ) ;
#71 = CARTESIAN_POINT ( 'NONE',  ( 0.3636422424737124071, 2.255790399310971583, 1.952928493619220163 ) ) ;
#72 =( NAMED_UNIT ( * ) SI_UNIT ( $, .STERADIAN. ) SOLID_ANGLE_UNIT ( ) );
#73 = AXIS2_PLACEMENT_3D ( 'NONE', #548, #48, #453 ) ;
#74 = ORIENTED_EDGE ( 'NONE', *, *, #533, .F. ) ;
#75 = CIRCLE ( 'NONE', #638, 0.4724409448818896462 ) ;
#76 = DIRECTION ( 'NONE',  ( 0.000000000000000000, 0.000000000000000000, -1.000000000000000000 ) ) ;
#77 = CARTESIAN_POINT ( 'NONE',  ( 0.2798881819056213693, 2.480804298894715210, 2.536140637063260872 ) ) ;
#78 = ORIENTED_EDGE ( 'NONE', *, *, #147, .F. ) ;
#79 = DIRECTION ( 'NONE',  ( 1.000000000000000000, 0.000000000000000000, 0.000000000000000000 ) ) ;
#80 = CARTESIAN_POINT ( 'NONE',  ( 0.000000000000000000, 2.527708034419605010, 2.572138908096011978 ) ) ;
#81 = COORDINATED_UNIVERSAL_TIME_OFFSET ( 8, 0, .BEHIND. ) ;
#82 = VERTEX_POINT ( 'NONE', #277 ) ;
#83 = LINE ( 'NONE', #232, #210 ) ;
#84 = CARTESIAN_POINT ( 'NONE',  ( 0.2810227523952048001, 2.584816409076700960, 1.986824565130600240 ) ) ;
#85 = ORIENTED_EDGE ( 'NONE', *, *, #187, .F. ) ;
#86 = DIRECTION ( 'NONE',  ( -1.000000000000000000, -0.000000000000000000, -0.000000000000000000 ) ) ;
#87 = CARTESIAN_POINT ( 'NONE',  ( 0.2803714964952487843, 2.579266689400848467, 2.031833346092297266 ) ) ;
#88 = ORIENTED_EDGE ( 'NONE', *, *, #397, .F. ) ;
#89 = CARTESIAN_POINT ( 'NONE',  ( 0.3012891598942191718, 2.675704363711346456, 2.683993347119047801 ) ) ;
#90 = ADVANCED_FACE ( 'NONE', ( #58 ), #11, .T. ) ;
#91 = CARTESIAN_POINT ( 'NONE',  ( 0.2798928734844991495, 2.480757422299118442, 2.608076334494714210 ) ) ;
#92 = CARTESIAN_POINT ( 'NONE',  ( 0.2779291195197247100, 2.546742723186432134, 2.628117784328872553 ) ) ;
#93 = DIRECTION ( 'NONE',  ( 1.000000000000000000, 0.000000000000000000, 0.000000000000000000 ) ) ;
#94 = CARTESIAN_POINT ( 'NONE',  ( 0.2973160268194057765, 2.663065161861382091, 2.686490798957780424 ) ) ;
#95 = CARTESIAN_POINT ( 'NONE',  ( 0.7499999985414383952, 2.527708034419500649, 5.582847569513482711 ) ) ;
#96 = ADVANCED_FACE ( 'NONE', ( #25 ), #159, .T. ) ;
#97 = CARTESIAN_POINT ( 'NONE',  ( 0.3677975730915960528, 2.249999999999985345, 2.587138908096012102 ) ) ;
#98 = CYLINDRICAL_SURFACE ( 'NONE', #140, 0.4724409448818896462 ) ;
#99 = CARTESIAN_POINT ( 'NONE',  ( 0.2791644122471860223, 2.566717573578532807, 2.616569076040254238 ) ) ;
#100 = DIRECTION ( 'NONE',  ( -1.000000000000000000, -0.000000000000000000, -0.000000000000000000 ) ) ;
#101 = EDGE_CURVE ( 'NONE', #645, #482, #539, .T. ) ;
#102 = DESIGN_CONTEXT ( 'detailed design', #183, 'design' ) ;
#103 = VECTOR ( 'NONE', #220, 39.37007874015748143 ) ;
#104 = CARTESIAN_POINT ( 'NONE',  ( 0.7505735796200552201, 2.527708034419605454, 2.061138908096011857 ) ) ;
#105 = CARTESIAN_POINT ( 'NONE',  ( 0.2803352598357104486, 2.578894828418644813, 2.542547111564488649 ) ) ;
#106 = ORIENTED_EDGE ( 'NONE', *, *, #402, .T. ) ;
#107 = CARTESIAN_POINT ( 'NONE',  ( 0.2810224083095719805, 2.470602503706302411, 2.556817480183601443 ) ) ;
#108 = DIRECTION ( 'NONE',  ( -0.000000000000000000, 1.000000000000000000, -9.106159978880859645E-16 ) ) ;
#109 = ORIENTED_EDGE ( 'NONE', *, *, #47, .T. ) ;
#110 = CARTESIAN_POINT ( 'NONE',  ( 0.7505735796200552201, 2.349999999999985434, 1.987138908096012013 ) ) ;
#111 = VECTOR ( 'NONE', #66, 39.37007874015748143 ) ;
#112 = CARTESIAN_POINT ( 'NONE',  ( 0.2775590536595485824, 2.527708034419605010, 2.513138908096011814 ) ) ;
#113 = APPROVAL_ROLE ( '' ) ;
#114 = CARTESIAN_POINT ( 'NONE',  ( 0.000000000000000000, 2.349999999999985434, 2.687138908096012191 ) ) ;
#115 = CARTESIAN_POINT ( 'NONE',  ( 0.2808834859123804928, 2.471740408009181600, 2.553071188973864647 ) ) ;
#116 = COORDINATED_UNIVERSAL_TIME_OFFSET ( 8, 0, .BEHIND. ) ;
#117 = ORIENTED_EDGE ( 'NONE', *, *, #578, .F. ) ;
#118 = DIRECTION ( 'NONE',  ( -1.000000000000000000, -0.000000000000000000, -0.000000000000000000 ) ) ;
#119 = CARTESIAN_POINT ( 'NONE',  ( 0.2789200966815461591, 2.491458628291946198, 2.524957022080837721 ) ) ;
#120 = MECHANICAL_CONTEXT ( 'NONE', #654, 'mechanical' ) ;
#121 = ORIENTED_EDGE ( 'NONE', *, *, #602, .T. ) ;
#122 = ADVANCED_FACE ( 'NONE', ( #577 ), #586, .F. ) ;
#123 = CARTESIAN_POINT ( 'NONE',  ( 0.000000000000000000, 2.749999999999986233, 2.587138908096012102 ) ) ;
#124 = CARTESIAN_POINT ( 'NONE',  ( 0.3323663781920985771, 2.306740888344605001, 1.896755978777791452 ) ) ;
#125 = PERSON_AND_ORGANIZATION ( #45, #142 ) ;
#126 = VECTOR ( 'NONE', #100, 39.37007874015748143 ) ;
#127 = ORIENTED_EDGE ( 'NONE', *, *, #258, .F. ) ;
#128 = CARTESIAN_POINT ( 'NONE',  ( 0.2775590536595485824, 2.527708034419605454, 2.631138908096012141 ) ) ;
#129 = DIRECTION ( 'NONE',  ( 1.499614800694545536E-30, 2.170609957687310270E-44, 1.000000000000000000 ) ) ;
#130 = PERSON_AND_ORGANIZATION_ROLE ( 'design_owner' ) ;
#131 = ORIENTED_EDGE ( 'NONE', *, *, #15, .T. ) ;
#132 = CARTESIAN_POINT ( 'NONE',  ( 0.2812579387203223424, 2.468705256828333638, 2.005997620455139963 ) ) ;
#133 = CARTESIAN_POINT ( 'NONE',  ( 0.2775590536595485824, 2.527708034419605898, 2.061138908096011857 ) ) ;
#134 = B_SPLINE_CURVE_WITH_KNOTS ( 'NONE', 3,
 ( #200, #504, #94, #89, #44, #149, #190, #394, #39, #615, #398, #343, #348, #291, #241, #455, #664, #194 ),
 .UNSPECIFIED., .F., .F.,
 ( 4, 2, 2, 2, 2, 2, 2, 2, 4 ),
 ( 0.000000000000000000, 0.0005135805063348239212, 0.001027161012669647842, 0.001540741519004471764, 0.002054322025339295685, 0.002567902531674119606, 0.003081483038008943527, 0.003595063544343767448, 0.004108644050678591370 ),
 .UNSPECIFIED. ) ;
#135 = ORIENTED_EDGE ( 'NONE', *, *, #168, .F. ) ;
#136 = DIRECTION ( 'NONE',  ( -1.000000000000000000, -0.000000000000000000, -0.000000000000000000 ) ) ;
#137 = CARTESIAN_POINT ( 'NONE',  ( 0.2808866016782035624, 2.471714444207243400, 2.591129983363984479 ) ) ;
#138 = ORIENTED_EDGE ( 'NONE', *, *, #381, .F. ) ;
#139 = EDGE_CURVE ( 'NONE', #369, #380, #480, .T. ) ;
#140 = AXIS2_PLACEMENT_3D ( 'NONE', #95, #464, #459 ) ;
#141 = CARTESIAN_POINT ( 'NONE',  ( 0.3175625357464647025, 2.336927133080163976, 2.687138908096012191 ) ) ;
#142 = ORGANIZATION ( 'UNSPECIFIED', 'UNSPECIFIED', '' ) ;
#143 = LINE ( 'NONE', #344, #17 ) ;
#144 = CARTESIAN_POINT ( 'NONE',  ( 0.2775590536595494706, 2.531610401024190438, 2.631138908096012585 ) ) ;
#145 = CARTESIAN_POINT ( 'NONE',  ( 0.2775590536595485824, 2.527708034419605454, 2.631138908096012141 ) ) ;
#146 = DIRECTION ( 'NONE',  ( -1.000000000000000000, -0.000000000000000000, -0.000000000000000000 ) ) ;
#147 = EDGE_CURVE ( 'NONE', #552, #332, #392, .T. ) ;
#148 = DIRECTION ( 'NONE',  ( 0.000000000000000000, -0.000000000000000000, 1.000000000000000000 ) ) ;
#149 = CARTESIAN_POINT ( 'NONE',  ( 0.3077005435414185697, 2.693876333196488559, 2.677230430983054354 ) ) ;
#150 = VECTOR ( 'NONE', #338, 39.37007874015748143 ) ;
#151 = CARTESIAN_POINT ( 'NONE',  ( 0.2973165658775667186, 2.663068227696530954, 1.887785777998596703 ) ) ;
#152 = LINE ( 'NONE', #412, #4 ) ;
#153 = CARTESIAN_POINT ( 'NONE',  ( 0.2789213898659223534, 2.563703014285012127, 2.525233448744806264 ) ) ;
#154 = VECTOR ( 'NONE', #118, 39.37007874015748143 ) ;
#155 = CARTESIAN_POINT ( 'NONE',  ( 0.000000000000000000, 2.649999999999986144, 1.887138908096011924 ) ) ;
#156 = DIRECTION ( 'NONE',  ( 0.000000000000000000, 0.000000000000000000, 1.000000000000000000 ) ) ;
#157 = CARTESIAN_POINT ( 'NONE',  ( 0.2796490725034040392, 2.572183709862218670, 2.533176563723700259 ) ) ;
#158 = CARTESIAN_POINT ( 'NONE',  ( 0.000000000000000000, 2.749999999999986233, 1.987138908096012013 ) ) ;
#159 = CYLINDRICAL_SURFACE ( 'NONE', #651, 0.1000000000000000194 ) ;
#160 = CALENDAR_DATE ( 2026, 20, 3 ) ;
#161 = ORIENTED_EDGE ( 'NONE', *, *, #1, .F. ) ;
#162 = CARTESIAN_POINT ( 'NONE',  ( 0.3331226443480775345, 2.749999999999986233, 1.987138908096012013 ) ) ;
#163 = AXIS2_PLACEMENT_3D ( 'NONE', #514, #511, #217 ) ;
#164 = DIRECTION ( 'NONE',  ( -1.000000000000000000, -0.000000000000000000, -0.000000000000000000 ) ) ;
#165 = PERSON_AND_ORGANIZATION ( #45, #142 ) ;
#166 = ORIENTED_EDGE ( 'NONE', *, *, #578, .T. ) ;
#167 = ORIENTED_EDGE ( 'NONE', *, *, #197, .F. ) ;
#168 = EDGE_CURVE ( 'NONE', #189, #630, #350, .T. ) ;
#169 = APPROVAL_ROLE ( '' ) ;
#170 = ORIENTED_EDGE ( 'NONE', *, *, #381, .T. ) ;
#171 = CARTESIAN_POINT ( 'NONE',  ( 0.2796481856116168618, 2.483243965237305506, 2.041109675781148880 ) ) ;
#172 = DIRECTION ( 'NONE',  ( -1.000000000000000000, -0.000000000000000000, -0.000000000000000000 ) ) ;
#173 = PERSON_AND_ORGANIZATION_ROLE ( 'creator' ) ;
#174 = ORIENTED_EDGE ( 'NONE', *, *, #359, .T. ) ;
#175 = CARTESIAN_POINT ( 'NONE',  ( 0.2805431433989368228, 2.474671043355402222, 2.028273572118326040 ) ) ;
#176 = CC_DESIGN_PERSON_AND_ORGANIZATION_ASSIGNMENT ( #230, #130, ( #512 ) ) ;
#177 = CARTESIAN_POINT ( 'NONE',  ( 0.2775590536595494151, 2.531610401024190882, 2.061138908096012301 ) ) ;
#178 = DATE_AND_TIME ( #160, #300 ) ;
#179 = LOCAL_TIME ( 16, 31, 38.00000000000000000, #531 ) ;
#180 = ORIENTED_EDGE ( 'NONE', *, *, #388, .T. ) ;
#181 = CARTESIAN_POINT ( 'NONE',  ( 0.2812081993417341330, 2.469096851349812827, 1.994359640104590881 ) ) ;
#182 = CC_DESIGN_PERSON_AND_ORGANIZATION_ASSIGNMENT ( #328, #29, ( #319 ) ) ;
#183 = APPLICATION_CONTEXT ( 'configuration controlled 3d designs of mechanical parts and assemblies' ) ;
#184 = CARTESIAN_POINT ( 'NONE',  ( 0.2779291195197247100, 2.546742723186432578, 2.058117784328872268 ) ) ;
#185 = EDGE_LOOP ( 'NONE', ( #322, #336 ) ) ;
#186 = CARTESIAN_POINT ( 'NONE',  ( 0.7505735796200552201, 2.527708034419605454, 2.002138908096011694 ) ) ;
#187 = EDGE_CURVE ( 'NONE', #526, #26, #193, .T. ) ;
#188 = CARTESIAN_POINT ( 'NONE',  ( 0.2784741585481858572, 2.557274124433584372, 2.053341509848565227 ) ) ;
#189 = VERTEX_POINT ( 'NONE', #28 ) ;
#190 = CARTESIAN_POINT ( 'NONE',  ( 0.3098729178733367617, 2.699527393584360446, 2.674247901886504408 ) ) ;
#191 = CARTESIAN_POINT ( 'NONE',  ( 0.000000000000000000, 2.349999999999985434, 1.887138908096012146 ) ) ;
#192 = APPROVAL ( #385, 'UNSPECIFIED' ) ;
#193 = CIRCLE ( 'NONE', #569, 0.05900000000000010791 ) ;
#194 = CARTESIAN_POINT ( 'NONE',  ( 0.3331226443480773680, 2.749999999999986233, 2.587138908096012102 ) ) ;
#195 = CARTESIAN_POINT ( 'NONE',  ( 0.2777913007385488520, 2.542993250730118060, 2.059254255449805893 ) ) ;
#196 = CALENDAR_DATE ( 2026, 20, 3 ) ;
#197 = EDGE_CURVE ( 'NONE', #627, #18, #666, .T. ) ;
#198 = CARTESIAN_POINT ( 'NONE',  ( 0.2936611753460476315, 2.649999999999986144, 2.687138908096012191 ) ) ;
#199 = CARTESIAN_POINT ( 'NONE',  ( 0.2798881819056213138, 2.480804298894714766, 1.966140637063261698 ) ) ;
#200 = CARTESIAN_POINT ( 'NONE',  ( 0.2936611753460476315, 2.649999999999986144, 2.687138908096012191 ) ) ;
#201 = FACE_OUTER_BOUND ( 'NONE', #365, .T. ) ;
#202 = PRODUCT_DEFINITION_SHAPE ( 'NONE', 'NONE',  #55 ) ;
#203 = DIRECTION ( 'NONE',  ( 0.000000000000000000, 0.000000000000000000, 1.000000000000000000 ) ) ;
#204 = VECTOR ( 'NONE', #529, 39.37007874015748143 ) ;
#205 = PRODUCT_DEFINITION_FORMATION_WITH_SPECIFIED_SOURCE ( 'ANY', '', #512, .NOT_KNOWN. ) ;
#206 = CARTESIAN_POINT ( 'NONE',  ( 0.2782701321195149569, 2.553864612330530193, 2.519112672963391031 ) ) ;
#207 = DIRECTION ( 'NONE',  ( -0.000000000000000000, 9.106159978880859645E-16, 1.000000000000000000 ) ) ;
#208 = CARTESIAN_POINT ( 'NONE',  ( 0.7505735796200552201, 2.527708034419605454, 2.002138908096011694 ) ) ;
#209 = ORIENTED_EDGE ( 'NONE', *, *, #573, .T. ) ;
#210 = VECTOR ( 'NONE', #136, 39.37007874015748143 ) ;
#211 = DIRECTION ( 'NONE',  ( -1.000000000000000000, -0.000000000000000000, -0.000000000000000000 ) ) ;
#212 = EDGE_CURVE ( 'NONE', #452, #393, #460, .T. ) ;
#213 = VERTEX_POINT ( 'NONE', #191 ) ;
#214 = CARTESIAN_POINT ( 'NONE',  ( 0.3499894913335992452, 2.276268904183108344, 1.919279490604451688 ) ) ;
#215 = LINE ( 'NONE', #469, #126 ) ;
#216 = ORIENTED_EDGE ( 'NONE', *, *, #518, .F. ) ;
#217 = DIRECTION ( 'NONE',  ( 0.000000000000000000, -0.000000000000000000, -1.000000000000000000 ) ) ;
#218 = CARTESIAN_POINT ( 'NONE',  ( 0.3233203762867921660, 2.324433730307356338, 1.889629603578832695 ) ) ;
#219 = ORIENTED_EDGE ( 'NONE', *, *, #359, .F. ) ;
#220 = DIRECTION ( 'NONE',  ( -1.000000000000000000, -0.000000000000000000, -0.000000000000000000 ) ) ;
#221 = AXIS2_PLACEMENT_3D ( 'NONE', #276, #24, #284 ) ;
#222 = CARTESIAN_POINT ( 'NONE',  ( 0.3575873231837992661, 2.264586749511255714, 1.934730114389256572 ) ) ;
#223 = APPROVAL_PERSON_ORGANIZATION ( #484, #419, #169 ) ;
#224 = ORIENTED_EDGE ( 'NONE', *, *, #139, .F. ) ;
#225 = CARTESIAN_POINT ( 'NONE',  ( 0.000000000000000000, 2.249999999999985345, 2.587138908096012102 ) ) ;
#226 = CARTESIAN_POINT ( 'NONE',  ( 0.3672418510973068928, 2.250760645171263619, 1.973001121098501454 ) ) ;
#227 = ORIENTED_EDGE ( 'NONE', *, *, #626, .T. ) ;
#228 = DIRECTION ( 'NONE',  ( -1.000000000000000000, -0.000000000000000000, -0.000000000000000000 ) ) ;
#229 = CARTESIAN_POINT ( 'NONE',  ( 0.2808864949774060871, 2.583700766405591764, 1.983144776797156617 ) ) ;
#230 = PERSON_AND_ORGANIZATION ( #45, #142 ) ;
#231 = EDGE_LOOP ( 'NONE', ( #499, #235, #478, #85 ) ) ;
#232 = CARTESIAN_POINT ( 'NONE',  ( 0.7505735796200552201, 2.527708034419605010, 2.513138908096011814 ) ) ;
#233 = CARTESIAN_POINT ( 'NONE',  ( 0.2803396703593251105, 2.476480647802096868, 2.601662008458117903 ) ) ;
#234 = APPROVAL_DATE_TIME ( #442, #248 ) ;
#235 = ORIENTED_EDGE ( 'NONE', *, *, #212, .F. ) ;
#236 = FACE_OUTER_BOUND ( 'NONE', #265, .T. ) ;
#237 = CARTESIAN_POINT ( 'NONE',  ( 0.2791610825638056181, 2.566679748930541738, 1.957671442987895638 ) ) ;
#238 = EDGE_LOOP ( 'NONE', ( #287, #3 ) ) ;
#239 = CARTESIAN_POINT ( 'NONE',  ( 0.7505735796200552201, 2.527708034419605010, 2.572138908096011978 ) ) ;
#240 = CARTESIAN_POINT ( 'NONE',  ( 0.2805427405315470968, 2.580741497093757886, 1.975996702836282592 ) ) ;
#241 = CARTESIAN_POINT ( 'NONE',  ( 0.3312941401359671412, 2.746541894037944243, 2.614070750747505834 ) ) ;
#242 = DIRECTION ( 'NONE',  ( 0.000000000000000000, 0.000000000000000000, -1.000000000000000000 ) ) ;
#243 = ADVANCED_FACE ( 'NONE', ( #395 ), #505, .F. ) ;
#244 = AXIS2_PLACEMENT_3D ( 'NONE', #632, #490, #156 ) ;
#245 = CARTESIAN_POINT ( 'NONE',  ( 0.3331226443480775345, 2.749999999999986233, 1.987138908096012013 ) ) ;
#246 = VECTOR ( 'NONE', #472, 39.37007874015748143 ) ;
#247 = DIRECTION ( 'NONE',  ( -1.000000000000000000, -0.000000000000000000, -0.000000000000000000 ) ) ;
#248 = APPROVAL ( #543, 'UNSPECIFIED' ) ;
#249 = CYLINDRICAL_SURFACE ( 'NONE', #665, 0.05900000000000010791 ) ;
#250 = CARTESIAN_POINT ( 'NONE',  ( 0.3652008576267422035, 2.253603727565902215, 2.614623512532053162 ) ) ;
#251 = B_SPLINE_CURVE_WITH_KNOTS ( 'NONE', 3,
 ( #612, #144, #558, #345, #92, #295, #506, #41, #99, #54, #257, #253, #310, #571, #409, #355, #525, #50, #105, #53, #157, #471, #153, #2, #206, #256, #467, #306, #313, #6 ),
 .UNSPECIFIED., .F., .F.,
 ( 4, 2, 2, 2, 2, 2, 2, 2, 2, 2, 2, 2, 2, 2, 4 ),
 ( 1.387778780781445676E-17, 0.0002931177184647152582, 0.0005862354369294166387, 0.0008793531553941179649, 0.001172470873858819400, 0.001758706310788192778, 0.002344941747717566374, 0.002638059466182274097, 0.002931177184646981820, 0.003224294903111689110, 0.003517412621576396833, 0.003810530340041104556, 0.004103648058505811845, 0.004396765776970519568, 0.004689883495435227291 ),
 .UNSPECIFIED. ) ;
#252 = CARTESIAN_POINT ( 'NONE',  ( 0.3163853262241995701, 2.715335650590406047, 1.911160798741993183 ) ) ;
#253 = CARTESIAN_POINT ( 'NONE',  ( 0.2810550952090822840, 2.585152812043237880, 2.587635748908299949 ) ) ;
#254 = EDGE_CURVE ( 'NONE', #380, #630, #143, .T. ) ;
#255 = CARTESIAN_POINT ( 'NONE',  ( 0.7505735796200552201, 2.249999999999985345, 2.587138908096012102 ) ) ;
#256 = CARTESIAN_POINT ( 'NONE',  ( 0.2779282446725386824, 2.546720994252268166, 2.516152699626855949 ) ) ;
#257 = CARTESIAN_POINT ( 'NONE',  ( 0.2803714964952487843, 2.579266689400847135, 2.601833346092297550 ) ) ;
#258 = EDGE_CURVE ( 'NONE', #552, #637, #418, .T. ) ;
#259 = CARTESIAN_POINT ( 'NONE',  ( 0.7499999985414383952, 2.527708034419500649, 1.887138908096011924 ) ) ;
#260 = EDGE_LOOP ( 'NONE', ( #209, #329 ) ) ;
#261 = CIRCLE ( 'NONE', #445, 0.1000000000000000194 ) ;
#262 = CC_DESIGN_APPROVAL ( #248, ( #55 ) ) ;
#263 = CARTESIAN_POINT ( 'NONE',  ( 0.7505735796200552201, 2.749999999999986233, 2.587138908096012102 ) ) ;
#264 = DIRECTION ( 'NONE',  ( -1.000000000000000000, 0.000000000000000000, -0.000000000000000000 ) ) ;
#265 = EDGE_LOOP ( 'NONE', ( #78, #324, #443, #428 ) ) ;
#266 = DIRECTION ( 'NONE',  ( 0.000000000000000000, 0.000000000000000000, 1.000000000000000000 ) ) ;
#267 = CARTESIAN_POINT ( 'NONE',  ( 0.3413345069609100557, 2.290579775261013751, 1.906461731697745465 ) ) ;
#268 = FACE_OUTER_BOUND ( 'NONE', #7, .T. ) ;
#269 = DIRECTION ( 'NONE',  ( -1.499614800694545536E-30, -2.170609957687310270E-44, -1.000000000000000000 ) ) ;
#270 = EDGE_LOOP ( 'NONE', ( #317, #127, #161, #69, #290, #74, #167, #593 ) ) ;
#271 = LINE ( 'NONE', #330, #204 ) ;
#272 = ADVANCED_FACE ( 'NONE', ( #563, #566, #51 ), #98, .F. ) ;
#273 = CARTESIAN_POINT ( 'NONE',  ( 0.3526679674457585123, 2.272075924897854815, 1.924131420157473515 ) ) ;
#274 =( NAMED_UNIT ( * ) PLANE_ANGLE_UNIT ( ) SI_UNIT ( $, .RADIAN. ) );
#275 = ORIENTED_EDGE ( 'NONE', *, *, #611, .T. ) ;
#276 = CARTESIAN_POINT ( 'NONE',  ( 0.000000000000000000, 2.649999999999986144, 1.987138908096012013 ) ) ;
#277 = CARTESIAN_POINT ( 'NONE',  ( 0.000000000000000000, 2.649999999999986144, 2.687138908096012191 ) ) ;
#278 = LENGTH_MEASURE_WITH_UNIT ( LENGTH_MEASURE( 0.02539999999999999897 ), #579 );
#279 = VERTEX_POINT ( 'NONE', #114 ) ;
#280 = LINE ( 'NONE', #435, #111 ) ;
#281 = CARTESIAN_POINT ( 'NONE',  ( 0.2805431433989369339, 2.474671043355401778, 2.598273572118326324 ) ) ;
#282 = APPROVAL_DATE_TIME ( #644, #192 ) ;
#283 = VERTEX_POINT ( 'NONE', #668 ) ;
#284 = DIRECTION ( 'NONE',  ( 0.000000000000000000, 0.000000000000000000, 1.000000000000000000 ) ) ;
#285 = CARTESIAN_POINT ( 'NONE',  ( 0.2803352598357104486, 2.578894828418645258, 1.972547111564488809 ) ) ;
#286 = AXIS2_PLACEMENT_3D ( 'NONE', #485, #79, #76 ) ;
#287 = ORIENTED_EDGE ( 'NONE', *, *, #212, .T. ) ;
#288 = CARTESIAN_POINT ( 'NONE',  ( 0.3526885824189646690, 2.272043051660721069, 2.650113949611797359 ) ) ;
#289 = CARTESIAN_POINT ( 'NONE',  ( 0.2789199446854182529, 2.563685170479399922, 2.049059114679961713 ) ) ;
#290 = ORIENTED_EDGE ( 'NONE', *, *, #626, .F. ) ;
#291 = CARTESIAN_POINT ( 'NONE',  ( 0.3302443419945034209, 2.744535512687447110, 2.620406839876552763 ) ) ;
#292 = ADVANCED_FACE ( 'NONE', ( #576 ), #62, .T. ) ;
#293 = CARTESIAN_POINT ( 'NONE',  ( 0.2775590536595486379, 2.527708034419605454, 1.943138908096011530 ) ) ;
#294 = DATE_AND_TIME ( #196, #466 ) ;
#295 = CARTESIAN_POINT ( 'NONE',  ( 0.2782713474674211040, 2.553886536146594555, 2.625154377612690659 ) ) ;
#296 = CARTESIAN_POINT ( 'NONE',  ( 0.2782701321195149569, 2.553864612330529749, 1.949112672963390303 ) ) ;
#297 = VECTOR ( 'NONE', #60, 39.37007874015748143 ) ;
#298 = CIRCLE ( 'NONE', #674, 0.05900000000000010791 ) ;
#299 = DIRECTION ( 'NONE',  ( 0.000000000000000000, 0.000000000000000000, 1.000000000000000000 ) ) ;
#300 = LOCAL_TIME ( 16, 31, 38.00000000000000000, #116 ) ;
#301 = CARTESIAN_POINT ( 'NONE',  ( 0.3225323444098886494, 2.729136163199087139, 1.924663720777650244 ) ) ;
#302 = CARTESIAN_POINT ( 'NONE',  ( 0.3499961475523460930, 2.276258568291388507, 2.654985933570201961 ) ) ;
#303 = PLANE ( 'NONE',  #163 ) ;
#304 = MANIFOLD_SOLID_BREP ( 'Boss-Extrude1', #465 ) ;
#305 = ADVANCED_FACE ( 'NONE', ( #201 ), #303, .F. ) ;
#306 = CARTESIAN_POINT ( 'NONE',  ( 0.2776077203294970430, 2.535474088186455699, 2.513525084743155169 ) ) ;
#307 = CARTESIAN_POINT ( 'NONE',  ( 0.3262787897978545737, 2.736741514024660482, 1.935642489890192053 ) ) ;
#308 = DIRECTION ( 'NONE',  ( 0.000000000000000000, 0.000000000000000000, -1.000000000000000000 ) ) ;
#309 = VECTOR ( 'NONE', #146, 39.37007874015748143 ) ;
#310 = CARTESIAN_POINT ( 'NONE',  ( 0.2812572316756988822, 2.586705194691097720, 2.579865372232538423 ) ) ;
#311 = ADVANCED_FACE ( 'NONE', ( #631 ), #673, .F. ) ;
#312 = B_SPLINE_CURVE_WITH_KNOTS ( 'NONE', 3,
 ( #97, #619, #400, #250, #458, #406, #340, #288, #302, #401, #501, #513, #462, #510, #141, #553 ),
 .UNSPECIFIED., .F., .F.,
 ( 4, 2, 2, 2, 2, 2, 2, 4 ),
 ( 0.000000000000000000, 0.0005302699172503412073, 0.001060539834500682415, 0.001590809751751023514, 0.002121079669001364829, 0.002651349586251706362, 0.003181619503502047027, 0.004242159338002760884 ),
 .UNSPECIFIED. ) ;
#313 = CARTESIAN_POINT ( 'NONE',  ( 0.2775590536595495261, 2.531560566175704796, 2.513138908096012258 ) ) ;
#314 = EDGE_LOOP ( 'NONE', ( #88, #634, #434, #135 ) ) ;
#315 = CARTESIAN_POINT ( 'NONE',  ( 0.2812081993417340775, 2.469096851349813271, 2.564359640104590721 ) ) ;
#316 = DIRECTION ( 'NONE',  ( 0.000000000000000000, -1.000000000000000000, 1.156482317317871725E-15 ) ) ;
#317 = ORIENTED_EDGE ( 'NONE', *, *, #663, .F. ) ;
#318 = AXIS2_PLACEMENT_3D ( 'NONE', #110, #247, #266 ) ;
#319 = SECURITY_CLASSIFICATION ( '', '', #64 ) ;
#320 = CARTESIAN_POINT ( 'NONE',  ( 0.2784382571832326181, 2.498034715865965261, 2.520567988686694960 ) ) ;
#321 = PERSON_AND_ORGANIZATION ( #45, #142 ) ;
#322 = ORIENTED_EDGE ( 'NONE', *, *, #486, .T. ) ;
#323 = CARTESIAN_POINT ( 'NONE',  ( 0.2789200966815460481, 2.491458628291946642, 1.954957022080837659 ) ) ;
#324 = ORIENTED_EDGE ( 'NONE', *, *, #258, .T. ) ;
#325 = VERTEX_POINT ( 'NONE', #46 ) ;
#326 = CARTESIAN_POINT ( 'NONE',  ( 0.000000000000000000, 2.749999999999986233, 2.587138908096012102 ) ) ;
#327 = ORIENTED_EDGE ( 'NONE', *, *, #1, .T. ) ;
#328 = PERSON_AND_ORGANIZATION ( #45, #142 ) ;
#329 = ORIENTED_EDGE ( 'NONE', *, *, #139, .T. ) ;
#330 = CARTESIAN_POINT ( 'NONE',  ( 0.7505735796200552201, 2.649999999999986144, 2.687138908096012191 ) ) ;
#331 = CARTESIAN_POINT ( 'NONE',  ( 0.2777589566245817210, 2.512236121931236354, 2.514687315544890112 ) ) ;
#332 = VERTEX_POINT ( 'NONE', #158 ) ;
#333 = LINE ( 'NONE', #449, #103 ) ;
#334 = CARTESIAN_POINT ( 'NONE',  ( 0.2812577670706118971, 2.586709448289719493, 1.998308248444508717 ) ) ;
#335 = APPLICATION_PROTOCOL_DEFINITION ( 'international standard', 'config_control_design', 1994, #183 ) ;
#336 = ORIENTED_EDGE ( 'NONE', *, *, #168, .T. ) ;
#337 = CARTESIAN_POINT ( 'NONE',  ( 0.2812096169158305736, 2.469085581490988890, 2.009833331356437380 ) ) ;
#338 = DIRECTION ( 'NONE',  ( -1.000000000000000000, -0.000000000000000000, -0.000000000000000000 ) ) ;
#339 = EDGE_LOOP ( 'NONE', ( #522, #448, #121, #180 ) ) ;
#340 = CARTESIAN_POINT ( 'NONE',  ( 0.3576613001855642460, 2.264475645525750647, 2.639376121268721231 ) ) ;
#341 = DIRECTION ( 'NONE',  ( 0.000000000000000000, 0.000000000000000000, -1.000000000000000000 ) ) ;
#342 = ORIENTED_EDGE ( 'NONE', *, *, #346, .F. ) ;
#343 = CARTESIAN_POINT ( 'NONE',  ( 0.3259765590246977429, 2.736086035064093203, 2.638439366741504255 ) ) ;
#344 = CARTESIAN_POINT ( 'NONE',  ( 0.7505735796200552201, 2.527708034419605010, 2.631138908096012141 ) ) ;
#345 = CARTESIAN_POINT ( 'NONE',  ( 0.2777913007385488520, 2.542993250730117616, 2.629254255449805289 ) ) ;
#346 = EDGE_CURVE ( 'NONE', #393, #452, #440, .T. ) ;
#347 = CARTESIAN_POINT ( 'NONE',  ( 0.2776077203294972096, 2.535474088186455699, 1.943525084743155107 ) ) ;
#348 = CARTESIAN_POINT ( 'NONE',  ( 0.3275971976056640256, 2.739332324841933008, 2.632564167394872534 ) ) ;
#349 = CARTESIAN_POINT ( 'NONE',  ( 0.3331226443480775345, 2.749999999999986233, 1.980294970463123860 ) ) ;
#350 = CIRCLE ( 'NONE', #360, 0.05900000000000010791 ) ;
#351 = VECTOR ( 'NONE', #108, 39.37007874015748143 ) ;
#352 = CYLINDRICAL_SURFACE ( 'NONE', #594, 0.05900000000000010791 ) ;
#353 = DIMENSIONAL_EXPONENTS ( 1.000000000000000000, 0.000000000000000000, 0.000000000000000000, 0.000000000000000000, 0.000000000000000000, 0.000000000000000000, 0.000000000000000000 ) ;
#354 = CARTESIAN_POINT ( 'NONE',  ( 0.2954299731147550512, 2.656600360771121938, 1.887138908096011924 ) ) ;
#355 = CARTESIAN_POINT ( 'NONE',  ( 0.2810227523952046891, 2.584816409076699184, 2.556824565130600302 ) ) ;
#356 = CARTESIAN_POINT ( 'NONE',  ( 0.3142158158716676919, 2.710262418869684886, 1.907078558601313034 ) ) ;
#357 = CARTESIAN_POINT ( 'NONE',  ( 0.000000000000000000, 2.649999999999986144, 2.687138908096012191 ) ) ;
#358 = FACE_BOUND ( 'NONE', #657, .T. ) ;
#359 = EDGE_CURVE ( 'NONE', #332, #482, #601, .T. ) ;
#360 = AXIS2_PLACEMENT_3D ( 'NONE', #80, #447, #507 ) ;
#361 = CARTESIAN_POINT ( 'NONE',  ( 0.3331226443480773680, 2.749999999999986233, 2.587138908096012102 ) ) ;
#362 = ORIENTED_EDGE ( 'NONE', *, *, #397, .T. ) ;
#363 = LINE ( 'NONE', #415, #560 ) ;
#364 = FACE_BOUND ( 'NONE', #185, .T. ) ;
#365 = EDGE_LOOP ( 'NONE', ( #605, #327, #30, #174 ) ) ;
#366 = CARTESIAN_POINT ( 'NONE',  ( 0.2775590536595469726, 2.520004815539094167, 1.943138908096012418 ) ) ;
#367 = DIRECTION ( 'NONE',  ( 0.000000000000000000, 0.000000000000000000, 1.000000000000000000 ) ) ;
#368 = COORDINATED_UNIVERSAL_TIME_OFFSET ( 8, 0, .BEHIND. ) ;
#369 = VERTEX_POINT ( 'NONE', #489 ) ;
#370 = CARTESIAN_POINT ( 'NONE',  ( 0.3327499960671390644, 2.749304992529172154, 1.973590579641671505 ) ) ;
#371 = CARTESIAN_POINT ( 'NONE',  ( 0.2796432654942894169, 2.483295740816104047, 2.533108975608039160 ) ) ;
#372 = DATE_AND_TIME ( #633, #516 ) ;
#373 = CARTESIAN_POINT ( 'NONE',  ( 0.2775590536595466951, 2.519905169703558379, 2.061138908096011413 ) ) ;
#374 = CARTESIAN_POINT ( 'NONE',  ( 0.3353767689302198374, 2.301158100040670895, 1.899651544962864813 ) ) ;
#375 = PERSON_AND_ORGANIZATION ( #45, #142 ) ;
#376 = ORIENTED_EDGE ( 'NONE', *, *, #486, .F. ) ;
#377 = DIRECTION ( 'NONE',  ( 1.000000000000000000, 0.000000000000000000, 0.000000000000000000 ) ) ;
#378 = DIRECTION ( 'NONE',  ( 0.000000000000000000, -1.000000000000000000, 9.106159978880859645E-16 ) ) ;
#379 =( CONVERSION_BASED_UNIT ( 'INCH', #278 ) LENGTH_UNIT ( ) NAMED_UNIT ( #353 ) );
#380 = VERTEX_POINT ( 'NONE', #128 ) ;
#381 = EDGE_CURVE ( 'NONE', #483, #279, #20, .T. ) ;
#382 = CYLINDRICAL_SURFACE ( 'NONE', #396, 0.1000000000000000194 ) ;
#383 = CIRCLE ( 'NONE', #221, 0.1000000000000000194 ) ;
#384 = CARTESIAN_POINT ( 'NONE',  ( 0.7505735796200552201, 2.649999999999986144, 2.687138908096012191 ) ) ;
#385 = APPROVAL_STATUS ( 'not_yet_approved' ) ;
#386 = VERTEX_POINT ( 'NONE', #225 ) ;
#387 = CARTESIAN_POINT ( 'NONE',  ( 0.2805389597710049587, 2.474707933439979080, 1.975929321783230774 ) ) ;
#388 = EDGE_CURVE ( 'NONE', #386, #588, #280, .T. ) ;
#389 = CARTESIAN_POINT ( 'NONE',  ( 0.2812088926539970668, 2.586324780317936334, 1.994394706605361778 ) ) ;
#390 = ORIENTED_EDGE ( 'NONE', *, *, #470, .F. ) ;
#391 = CARTESIAN_POINT ( 'NONE',  ( 0.2803396703593252215, 2.476480647802098201, 2.031662008458117619 ) ) ;
#392 = LINE ( 'NONE', #662, #150 ) ;
#393 = VERTEX_POINT ( 'NONE', #493 ) ;
#394 = CARTESIAN_POINT ( 'NONE',  ( 0.3142004906476599246, 2.710225234268691885, 2.667225490441204716 ) ) ;
#395 = FACE_OUTER_BOUND ( 'NONE', #528, .T. ) ;
#396 = AXIS2_PLACEMENT_3D ( 'NONE', #639, #228, #496 ) ;
#397 = EDGE_CURVE ( 'NONE', #369, #189, #83, .T. ) ;
#398 = CARTESIAN_POINT ( 'NONE',  ( 0.3224227024433988786, 2.728692920104307085, 2.649187008919096531 ) ) ;
#399 = CARTESIAN_POINT ( 'NONE',  ( 0.2810250509736319513, 2.470580874103133873, 2.587379764071141341 ) ) ;
#400 = CARTESIAN_POINT ( 'NONE',  ( 0.3672557283148618068, 2.250741658313834215, 2.601118408298344065 ) ) ;
#401 = CARTESIAN_POINT ( 'NONE',  ( 0.3443240653516793093, 2.285516060867867960, 2.663838577000998242 ) ) ;
#402 = EDGE_CURVE ( 'NONE', #532, #82, #271, .T. ) ;
#403 = CARTESIAN_POINT ( 'NONE',  ( 0.2803351333903114639, 2.476522147796517359, 1.972544298212713709 ) ) ;
#404 = VECTOR ( 'NONE', #545, 39.37007874015748143 ) ;
#405 = LOCAL_TIME ( 16, 31, 38.00000000000000000, #81 ) ;
#406 = CARTESIAN_POINT ( 'NONE',  ( 0.3599117391022945145, 2.261170143067941396, 2.633555020824216886 ) ) ;
#407 = UNCERTAINTY_MEASURE_WITH_UNIT (LENGTH_MEASURE( 1.000000000000000082E-05 ), #379, 'distance_accuracy_value', 'NONE');
#408 = CARTESIAN_POINT ( 'NONE',  ( 0.3013059222918241797, 2.675756330832686825, 1.890296590603506743 ) ) ;
#409 = CARTESIAN_POINT ( 'NONE',  ( 0.2812088926539970113, 2.586324780317936334, 2.564394706605361840 ) ) ;
#410 = EDGE_CURVE ( 'NONE', #325, #332, #383, .T. ) ;
#411 = LINE ( 'NONE', #104, #246 ) ;
#412 = CARTESIAN_POINT ( 'NONE',  ( 0.7505735796200552201, 2.527708034419605454, 1.943138908096011530 ) ) ;
#413 = EDGE_LOOP ( 'NONE', ( #65, #488, #170, #473 ) ) ;
#414 = VECTOR ( 'NONE', #476, 39.37007874015748143 ) ;
#415 = CARTESIAN_POINT ( 'NONE',  ( 0.3331226443480775345, 2.749999999999986233, 5.582847569513482711 ) ) ;
#416 = LINE ( 'NONE', #357, #297 ) ;
#417 = ORIENTED_EDGE ( 'NONE', *, *, #663, .T. ) ;
#418 = B_SPLINE_CURVE_WITH_KNOTS ( 'NONE', 3,
 ( #162, #349, #370, #10, #559, #307, #301, #252, #356, #616, #468, #670, #408, #151, #354, #620 ),
 .UNSPECIFIED., .F., .F.,
 ( 4, 2, 2, 2, 2, 2, 2, 4 ),
 ( 0.000000000000000000, 0.0005135295616834707668, 0.001027059123366941534, 0.002054118246733882200, 0.002567647808417373567, 0.003081177370100864499, 0.003594706931784357167, 0.004108236493467849401 ),
 .UNSPECIFIED. ) ;
#419 = APPROVAL ( #641, 'UNSPECIFIED' ) ;
#420 = DIRECTION ( 'NONE',  ( -0.000000000000000000, 1.000000000000000000, 0.000000000000000000 ) ) ;
#421 = DIRECTION ( 'NONE',  ( 1.000000000000000000, 0.000000000000000000, 0.000000000000000000 ) ) ;
#422 = LINE ( 'NONE', #515, #414 ) ;
#423 = ORIENTED_EDGE ( 'NONE', *, *, #101, .T. ) ;
#424 = CARTESIAN_POINT ( 'NONE',  ( 0.2775590536595486379, 2.527708034419605454, 1.943138908096011530 ) ) ;
#425 = EDGE_CURVE ( 'NONE', #26, #526, #580, .T. ) ;
#426 = CARTESIAN_POINT ( 'NONE',  ( 0.3598508751050882304, 2.261258832058991253, 1.940546994279065185 ) ) ;
#427 = APPROVAL_ROLE ( '' ) ;
#428 = ORIENTED_EDGE ( 'NONE', *, *, #410, .T. ) ;
#429 = DIRECTION ( 'NONE',  ( 0.000000000000000000, 0.000000000000000000, 1.000000000000000000 ) ) ;
#430 = AXIS2_PLACEMENT_3D ( 'NONE', #527, #475, #378 ) ;
#431 = AXIS2_PLACEMENT_3D ( 'NONE', #521, #308, #625 ) ;
#432 = CARTESIAN_POINT ( 'NONE',  ( 0.000000000000000000, 2.649999999999986144, 2.587138908096012102 ) ) ;
#433 = CARTESIAN_POINT ( 'NONE',  ( 0.000000000000000000, 0.000000000000000000, 0.000000000000000000 ) ) ;
#434 = ORIENTED_EDGE ( 'NONE', *, *, #254, .T. ) ;
#435 = CARTESIAN_POINT ( 'NONE',  ( 0.000000000000000000, 2.249999999999985345, 2.587138908096012102 ) ) ;
#436 = CARTESIAN_POINT ( 'NONE',  ( 0.3677975730915959973, 2.249999999999985789, 1.980055453673680743 ) ) ;
#437 = PERSON_AND_ORGANIZATION ( #45, #142 ) ;
#438 = ORIENTED_EDGE ( 'NONE', *, *, #652, .F. ) ;
#439 = CARTESIAN_POINT ( 'NONE',  ( 0.2812572356907698801, 2.468710842249554727, 1.998195718954495881 ) ) ;
#440 = B_SPLINE_CURVE_WITH_KNOTS ( 'NONE', 3,
 ( #424, #366, #49, #581, #323, #43, #199, #403, #387, #595, #537, #181, #439, #132, #337, #444, #653, #175, #391, #647, #171, #589, #27, #541, #373, #585 ),
 .UNSPECIFIED., .F., .F.,
 ( 4, 2, 2, 2, 2, 2, 2, 2, 2, 2, 2, 2, 4 ),
 ( 0.004689883495435228158, 0.005275978584596932239, 0.005862073673758636319, 0.006155121218339474481, 0.006448168762920311776, 0.006741216307501149071, 0.007034263852081987234, 0.007327311396662824529, 0.007620358941243661824, 0.007913406485824499986, 0.008206454030405336414, 0.008792549119567026616, 0.009378644208728716819 ),
 .UNSPECIFIED. ) ;
#441 = CARTESIAN_POINT ( 'NONE',  ( 0.2779282446725386269, 2.546720994252267722, 1.946152699626855442 ) ) ;
#442 = DATE_AND_TIME ( #649, #179 ) ;
#443 = ORIENTED_EDGE ( 'NONE', *, *, #518, .T. ) ;
#444 = CARTESIAN_POINT ( 'NONE',  ( 0.2810250509736318403, 2.470580874103134317, 2.017379764071141945 ) ) ;
#445 = AXIS2_PLACEMENT_3D ( 'NONE', #432, #421, #636 ) ;
#446 = CC_DESIGN_APPROVAL ( #419, ( #319 ) ) ;
#447 = DIRECTION ( 'NONE',  ( 1.000000000000000000, 0.000000000000000000, 0.000000000000000000 ) ) ;
#448 = ORIENTED_EDGE ( 'NONE', *, *, #197, .T. ) ;
#449 = CARTESIAN_POINT ( 'NONE',  ( 0.7505735796200552201, 2.349999999999985434, 1.887138908096012146 ) ) ;
#450 = CC_DESIGN_DATE_AND_TIME_ASSIGNMENT ( #178, #481, ( #55 ) ) ;
#451 = CARTESIAN_POINT ( 'NONE',  ( 0.2782713474674211596, 2.553886536146594555, 2.055154377612690375 ) ) ;
#452 = VERTEX_POINT ( 'NONE', #32 ) ;
#453 = DIRECTION ( 'NONE',  ( 0.000000000000000000, 0.000000000000000000, -1.000000000000000000 ) ) ;
#454 = CARTESIAN_POINT ( 'NONE',  ( 0.2775590536595495816, 2.531560566175706128, 1.943138908096012196 ) ) ;
#455 = CARTESIAN_POINT ( 'NONE',  ( 0.3327405888143774582, 2.749287453528748149, 2.600837923564833343 ) ) ;
#456 = DIRECTION ( 'NONE',  ( -1.000000000000000000, -0.000000000000000000, -0.000000000000000000 ) ) ;
#457 = CIRCLE ( 'NONE', #538, 0.1000000000000000194 ) ;
#458 = CARTESIAN_POINT ( 'NONE',  ( 0.3636663946036299833, 2.255756486994557886, 2.621246960807367632 ) ) ;
#459 = DIRECTION ( 'NONE',  ( -1.040834085586084572E-14, 1.000000000000000000, 0.000000000000000000 ) ) ;
#460 = B_SPLINE_CURVE_WITH_KNOTS ( 'NONE', 3,
 ( #133, #177, #40, #195, #184, #451, #188, #289, #607, #598, #87, #502, #603, #334, #389, #84, #229, #240, #285, #498, #33, #237, #648, #557, #296, #441, #659, #347, #454, #293 ),
 .UNSPECIFIED., .F., .F.,
 ( 4, 2, 2, 2, 2, 2, 2, 2, 2, 2, 2, 2, 2, 2, 4 ),
 ( 1.387778780781445676E-17, 0.0002931177184647092409, 0.0005862354369294046040, 0.0008793531553940998587, 0.001172470873858795330, 0.001758706310788200802, 0.002344941747717606273, 0.002638059466182308792, 0.002931177184647011744, 0.003224294903111714263, 0.003517412621576416782, 0.003810530340041119735, 0.004103648058505822253, 0.004396765776970524772, 0.004689883495435228158 ),
 .UNSPECIFIED. ) ;
#461 = CARTESIAN_POINT ( 'NONE',  ( 0.7505735796200552201, 2.527708034419605010, 2.572138908096011978 ) ) ;
#462 = CARTESIAN_POINT ( 'NONE',  ( 0.3323638092651476361, 2.306746059756987322, 2.677523606510379572 ) ) ;
#463 = ADVANCED_FACE ( 'NONE', ( #236 ), #382, .T. ) ;
#464 = DIRECTION ( 'NONE',  ( 1.499614800694545536E-30, 2.170609957687310270E-44, 1.000000000000000000 ) ) ;
#465 = CLOSED_SHELL ( 'NONE', ( #508, #477, #590, #292, #122, #463, #305, #96, #243, #90, #311, #604, #500, #272 ) ) ;
#466 = LOCAL_TIME ( 16, 31, 38.00000000000000000, #587 ) ;
#467 = CARTESIAN_POINT ( 'NONE',  ( 0.2777928164971277813, 2.543042744431454505, 2.515036031215753809 ) ) ;
#468 = CARTESIAN_POINT ( 'NONE',  ( 0.3077042016200879360, 2.693884551465939747, 1.897054206908331375 ) ) ;
#469 = CARTESIAN_POINT ( 'NONE',  ( 0.7505735796200552201, 2.249999999999985345, 1.987138908096012013 ) ) ;
#470 = EDGE_CURVE ( 'NONE', #283, #213, #333, .T. ) ;
#471 = CARTESIAN_POINT ( 'NONE',  ( 0.2791610825638054516, 2.566679748930539962, 2.527671442987895478 ) ) ;
#472 = DIRECTION ( 'NONE',  ( -1.000000000000000000, -0.000000000000000000, -0.000000000000000000 ) ) ;
#473 = ORIENTED_EDGE ( 'NONE', *, *, #523, .T. ) ;
#474 =( GEOMETRIC_REPRESENTATION_CONTEXT ( 3 ) GLOBAL_UNCERTAINTY_ASSIGNED_CONTEXT ( ( #407 ) ) GLOBAL_UNIT_ASSIGNED_CONTEXT ( ( #379, #274, #72 ) ) REPRESENTATION_CONTEXT ( 'NONE', 'WORKASPACE' ) );
#475 = DIRECTION ( 'NONE',  ( -0.000000000000000000, 9.106159978880859645E-16, 1.000000000000000000 ) ) ;
#476 = DIRECTION ( 'NONE',  ( -1.000000000000000000, -0.000000000000000000, -0.000000000000000000 ) ) ;
#477 = ADVANCED_FACE ( 'NONE', ( #268 ), #658, .F. ) ;
#478 = ORIENTED_EDGE ( 'NONE', *, *, #672, .T. ) ;
#479 = CARTESIAN_POINT ( 'NONE',  ( 0.3443056453166917219, 2.285546654649189158, 1.910412502564783566 ) ) ;
#480 = B_SPLINE_CURVE_WITH_KNOTS ( 'NONE', 3,
 ( #112, #628, #331, #320, #119, #371, #77, #574, #582, #115, #107, #315, #524, #67, #542, #399, #137, #281, #233, #91, #554, #494, #546, #37, #613, #145 ),
 .UNSPECIFIED., .F., .F.,
 ( 4, 2, 2, 2, 2, 2, 2, 2, 2, 2, 2, 2, 4 ),
 ( 0.004689883495435227291, 0.005275978584596854176, 0.005862073673758481929, 0.006155121218339324428, 0.006448168762920166927, 0.006741216307501010294, 0.007034263852081853660, 0.007327311396662696159, 0.007620358941243538659, 0.007913406485824382025, 0.008206454030405223657, 0.008792549119566967636, 0.009378644208728713350 ),
 .UNSPECIFIED. ) ;
#481 = DATE_TIME_ROLE ( 'creation_date' ) ;
#482 = VERTEX_POINT ( 'NONE', #326 ) ;
#483 = VERTEX_POINT ( 'NONE', #534 ) ;
#484 = PERSON_AND_ORGANIZATION ( #45, #142 ) ;
#485 = CARTESIAN_POINT ( 'NONE',  ( 0.000000000000000000, 2.527708034419605454, 2.002138908096011694 ) ) ;
#486 = EDGE_CURVE ( 'NONE', #630, #189, #298, .T. ) ;
#487 = CARTESIAN_POINT ( 'NONE',  ( 0.3677975730915960528, 2.249999999999985345, 1.987138908096012013 ) ) ;
#488 = ORIENTED_EDGE ( 'NONE', *, *, #533, .T. ) ;
#489 = CARTESIAN_POINT ( 'NONE',  ( 0.2775590536595485824, 2.527708034419605010, 2.513138908096011814 ) ) ;
#490 = DIRECTION ( 'NONE',  ( -1.000000000000000000, -0.000000000000000000, -0.000000000000000000 ) ) ;
#491 = DIRECTION ( 'NONE',  ( 0.000000000000000000, 0.000000000000000000, 1.000000000000000000 ) ) ;
#492 = ORIENTED_EDGE ( 'NONE', *, *, #425, .F. ) ;
#493 = CARTESIAN_POINT ( 'NONE',  ( 0.2775590536595486379, 2.527708034419605454, 1.943138908096011530 ) ) ;
#494 = CARTESIAN_POINT ( 'NONE',  ( 0.2789253336903645408, 2.491392109108352848, 2.619269050230916829 ) ) ;
#495 = ORIENTED_EDGE ( 'NONE', *, *, #425, .T. ) ;
#496 = DIRECTION ( 'NONE',  ( 0.000000000000000000, 0.000000000000000000, 1.000000000000000000 ) ) ;
#497 = AXIS2_PLACEMENT_3D ( 'NONE', #255, #420, #148 ) ;
#498 = CARTESIAN_POINT ( 'NONE',  ( 0.2798894956016324542, 2.574624659288658357, 1.966158460450661671 ) ) ;
#499 = ORIENTED_EDGE ( 'NONE', *, *, #621, .F. ) ;
#500 = ADVANCED_FACE ( 'NONE', ( #555 ), #249, .F. ) ;
#501 = CARTESIAN_POINT ( 'NONE',  ( 0.3413416416116298868, 2.290567233443156603, 2.667807636596411403 ) ) ;
#502 = CARTESIAN_POINT ( 'NONE',  ( 0.2810550952090823396, 2.585152812043238768, 2.017635748908300997 ) ) ;
#503 = EDGE_LOOP ( 'NONE', ( #535, #584, #38, #117, #57, #219, #608, #438 ) ) ;
#504 = CARTESIAN_POINT ( 'NONE',  ( 0.2954318893527380641, 2.656607511312714553, 2.687138908096012191 ) ) ;
#505 = PLANE ( 'NONE',  #31 ) ;
#506 = CARTESIAN_POINT ( 'NONE',  ( 0.2784741585481858572, 2.557274124433584817, 2.623341509848566844 ) ) ;
#507 = DIRECTION ( 'NONE',  ( 0.000000000000000000, 0.000000000000000000, -1.000000000000000000 ) ) ;
#508 = ADVANCED_FACE ( 'NONE', ( #617 ), #352, .F. ) ;
#509 = AXIS2_PLACEMENT_3D ( 'NONE', #208, #675, #622 ) ;
#510 = CARTESIAN_POINT ( 'NONE',  ( 0.3233320369023417462, 2.324410629940310002, 2.684639535560414902 ) ) ;
#511 = DIRECTION ( 'NONE',  ( 0.000000000000000000, -1.000000000000000000, 0.000000000000000000 ) ) ;
#512 = PRODUCT ( 'Motor Spacer', 'Motor Spacer', '', ( #120 ) ) ;
#513 = CARTESIAN_POINT ( 'NONE',  ( 0.3353743549279042946, 2.301162260161106143, 2.674629322804708220 ) ) ;
#514 = CARTESIAN_POINT ( 'NONE',  ( 0.7505735796200552201, 2.749999999999986233, 2.587138908096012102 ) ) ;
#515 = CARTESIAN_POINT ( 'NONE',  ( 0.7505735796200552201, 2.249999999999985345, 2.587138908096012102 ) ) ;
#516 = LOCAL_TIME ( 16, 31, 38.00000000000000000, #368 ) ;
#517 = CARTESIAN_POINT ( 'NONE',  ( 0.2936611753460475205, 2.649999999999986144, 1.887138908096011924 ) ) ;
#518 = EDGE_CURVE ( 'NONE', #637, #325, #609, .T. ) ;
#519 = DIRECTION ( 'NONE',  ( -0.000000000000000000, 0.000000000000000000, 1.000000000000000000 ) ) ;
#520 = PRODUCT_RELATED_PRODUCT_CATEGORY ( 'detail', '', ( #512 ) ) ;
#521 = CARTESIAN_POINT ( 'NONE',  ( 0.7499999985414383952, 2.527708034419500649, 2.687138908096012191 ) ) ;
#522 = ORIENTED_EDGE ( 'NONE', *, *, #611, .F. ) ;
#523 = EDGE_CURVE ( 'NONE', #279, #386, #52, .T. ) ;
#524 = CARTESIAN_POINT ( 'NONE',  ( 0.2812572356907699356, 2.468710842249554727, 2.568195718954497053 ) ) ;
#525 = CARTESIAN_POINT ( 'NONE',  ( 0.2808864949774059205, 2.583700766405589988, 2.553144776797155568 ) ) ;
#526 = VERTEX_POINT ( 'NONE', #562 ) ;
#527 = CARTESIAN_POINT ( 'NONE',  ( 0.7505735796200552201, 2.649999999999986144, 1.887138908096011924 ) ) ;
#528 = EDGE_LOOP ( 'NONE', ( #138, #227, #106, #166 ) ) ;
#529 = DIRECTION ( 'NONE',  ( -1.000000000000000000, -0.000000000000000000, -0.000000000000000000 ) ) ;
#530 = CARTESIAN_POINT ( 'NONE',  ( 0.3651525238319074940, 2.253671399905107453, 1.959405762371643878 ) ) ;
#531 = COORDINATED_UNIVERSAL_TIME_OFFSET ( 8, 0, .BEHIND. ) ;
#532 = VERTEX_POINT ( 'NONE', #198 ) ;
#533 = EDGE_CURVE ( 'NONE', #18, #483, #312, .T. ) ;
#534 = CARTESIAN_POINT ( 'NONE',  ( 0.3122554372917920040, 2.349999999999985434, 2.687138908096012191 ) ) ;
#535 = ORIENTED_EDGE ( 'NONE', *, *, #556, .F. ) ;
#536 = DIRECTION ( 'NONE',  ( 1.000000000000000000, 0.000000000000000000, 0.000000000000000000 ) ) ;
#537 = CARTESIAN_POINT ( 'NONE',  ( 0.2810224083095720360, 2.470602503706302855, 1.986817480183601381 ) ) ;
#538 = AXIS2_PLACEMENT_3D ( 'NONE', #661, #36, #299 ) ;
#539 = LINE ( 'NONE', #263, #42 ) ;
#540 = ORIENTED_EDGE ( 'NONE', *, *, #672, .F. ) ;
#541 = CARTESIAN_POINT ( 'NONE',  ( 0.2777617800173282081, 2.512153079427112967, 2.059567747439896568 ) ) ;
#542 = CARTESIAN_POINT ( 'NONE',  ( 0.2812096169158306846, 2.469085581490988002, 2.579833331356437220 ) ) ;
#543 = APPROVAL_STATUS ( 'not_yet_approved' ) ;
#544 = EDGE_LOOP ( 'NONE', ( #23, #9, #423, #109 ) ) ;
#545 = DIRECTION ( 'NONE',  ( -0.000000000000000000, -0.000000000000000000, 1.000000000000000000 ) ) ;
#546 = CARTESIAN_POINT ( 'NONE',  ( 0.2784427796380963271, 2.497964447551305422, 2.623668969743675916 ) ) ;
#547 = ORIENTED_EDGE ( 'NONE', *, *, #556, .T. ) ;
#548 = CARTESIAN_POINT ( 'NONE',  ( 0.000000000000000000, 2.349999999999985434, 2.587138908096012102 ) ) ;
#549 = AXIS2_PLACEMENT_3D ( 'NONE', #186, #14, #429 ) ;
#550 = CARTESIAN_POINT ( 'NONE',  ( 0.000000000000000000, 2.527708034419605454, 2.002138908096011694 ) ) ;
#551 = APPROVAL_DATE_TIME ( #294, #419 ) ;
#552 = VERTEX_POINT ( 'NONE', #245 ) ;
#553 = CARTESIAN_POINT ( 'NONE',  ( 0.3122554372917920040, 2.349999999999985434, 2.687138908096012191 ) ) ;
#554 = CARTESIAN_POINT ( 'NONE',  ( 0.2796481856116169729, 2.483243965237305950, 2.611109675781149608 ) ) ;
#555 = FACE_OUTER_BOUND ( 'NONE', #314, .T. ) ;
#556 = EDGE_CURVE ( 'NONE', #588, #213, #457, .T. ) ;
#557 = CARTESIAN_POINT ( 'NONE',  ( 0.2784768713035195575, 2.557316050343436675, 1.950961509905864366 ) ) ;
#558 = CARTESIAN_POINT ( 'NONE',  ( 0.2776073612722071426, 2.535446792212807221, 2.630755564165953242 ) ) ;
#559 = CARTESIAN_POINT ( 'NONE',  ( 0.3302575374582622514, 2.744561131580341318, 1.953939732954555142 ) ) ;
#560 = VECTOR ( 'NONE', #269, 39.37007874015748143 ) ;
#561 = CIRCLE ( 'NONE', #431, 0.4724409448818898127 ) ;
#562 = CARTESIAN_POINT ( 'NONE',  ( 0.000000000000000000, 2.527708034419605454, 1.943138908096011530 ) ) ;
#563 = FACE_BOUND ( 'NONE', #260, .T. ) ;
#564 = CC_DESIGN_PERSON_AND_ORGANIZATION_ASSIGNMENT ( #375, #22, ( #55 ) ) ;
#565 = PLANE ( 'NONE',  #624 ) ;
#566 = FACE_BOUND ( 'NONE', #238, .T. ) ;
#567 = CARTESIAN_POINT ( 'NONE',  ( 0.000000000000000000, 2.249999999999985345, 1.987138908096012013 ) ) ;
#568 = EDGE_CURVE ( 'NONE', #532, #645, #134, .T. ) ;
#569 = AXIS2_PLACEMENT_3D ( 'NONE', #550, #93, #341 ) ;
#570 = CARTESIAN_POINT ( 'NONE',  ( 0.000000000000000000, 2.349999999999985434, 1.987138908096012013 ) ) ;
#571 = CARTESIAN_POINT ( 'NONE',  ( 0.2812577670706117861, 2.586709448289719937, 2.568308248444509889 ) ) ;
#572 = EDGE_LOOP ( 'NONE', ( #224, #362, #376, #650 ) ) ;
#573 = EDGE_CURVE ( 'NONE', #380, #369, #251, .T. ) ;
#574 = CARTESIAN_POINT ( 'NONE',  ( 0.2803351333903114084, 2.476522147796517803, 2.542544298212713993 ) ) ;
#575 = FACE_OUTER_BOUND ( 'NONE', #231, .T. ) ;
#576 = FACE_OUTER_BOUND ( 'NONE', #600, .T. ) ;
#577 = FACE_OUTER_BOUND ( 'NONE', #660, .T. ) ;
#578 = EDGE_CURVE ( 'NONE', #82, #279, #416, .T. ) ;
#579 =( LENGTH_UNIT ( ) NAMED_UNIT ( * ) SI_UNIT ( $, .METRE. ) );
#580 = CIRCLE ( 'NONE', #286, 0.05900000000000010791 ) ;
#581 = CARTESIAN_POINT ( 'NONE',  ( 0.2784382571832326736, 2.498034715865967037, 1.950567988686694676 ) ) ;
#582 = CARTESIAN_POINT ( 'NONE',  ( 0.2805389597710049587, 2.474707933439977303, 2.545929321783230836 ) ) ;
#583 = DATE_TIME_ROLE ( 'classification_date' ) ;
#584 = ORIENTED_EDGE ( 'NONE', *, *, #388, .F. ) ;
#585 = CARTESIAN_POINT ( 'NONE',  ( 0.2775590536595485824, 2.527708034419605898, 2.061138908096011857 ) ) ;
#586 = PLANE ( 'NONE',  #430 ) ;
#587 = COORDINATED_UNIVERSAL_TIME_OFFSET ( 8, 0, .BEHIND. ) ;
#588 = VERTEX_POINT ( 'NONE', #567 ) ;
#589 = CARTESIAN_POINT ( 'NONE',  ( 0.2789253336903644853, 2.491392109108351516, 2.049269050230916545 ) ) ;
#590 = ADVANCED_FACE ( 'NONE', ( #358, #629, #364 ), #565, .T. ) ;
#591 = CARTESIAN_POINT ( 'NONE',  ( 0.3122554372917921151, 2.349999999999985434, 1.887138908096012146 ) ) ;
#592 = PERSON_AND_ORGANIZATION_ROLE ( 'design_supplier' ) ;
#593 = ORIENTED_EDGE ( 'NONE', *, *, #15, .F. ) ;
#594 = AXIS2_PLACEMENT_3D ( 'NONE', #239, #86, #671 ) ;
#595 = CARTESIAN_POINT ( 'NONE',  ( 0.2808834859123806593, 2.471740408009182044, 1.983071188973865917 ) ) ;
#596 = VECTOR ( 'NONE', #129, 39.37007874015748143 ) ;
#597 = CC_DESIGN_PERSON_AND_ORGANIZATION_ASSIGNMENT ( #321, #592, ( #205 ) ) ;
#598 = CARTESIAN_POINT ( 'NONE',  ( 0.2798875014156809171, 2.574872371680999805, 2.038410951965576423 ) ) ;
#599 = ADVANCED_BREP_SHAPE_REPRESENTATION ( 'Motor Spacer', ( #304, #5 ), #474 ) ;
#600 = EDGE_LOOP ( 'NONE', ( #390, #131, #275, #547 ) ) ;
#601 = LINE ( 'NONE', #123, #404 ) ;
#602 = EDGE_CURVE ( 'NONE', #18, #386, #422, .T. ) ;
#603 = CARTESIAN_POINT ( 'NONE',  ( 0.2812572316756991042, 2.586705194691099052, 2.009865372232539471 ) ) ;
#604 = ADVANCED_FACE ( 'NONE', ( #575 ), #8, .F. ) ;
#605 = ORIENTED_EDGE ( 'NONE', *, *, #101, .F. ) ;
#606 = CARTESIAN_POINT ( 'NONE',  ( 0.7505735796200552201, 2.349999999999985434, 2.687138908096012191 ) ) ;
#607 = CARTESIAN_POINT ( 'NONE',  ( 0.2791644122471859668, 2.566717573578533251, 2.046569076040254398 ) ) ;
#608 = ORIENTED_EDGE ( 'NONE', *, *, #410, .F. ) ;
#609 = LINE ( 'NONE', #669, #309 ) ;
#610 = DIRECTION ( 'NONE',  ( -1.000000000000000000, 0.000000000000000000, -0.000000000000000000 ) ) ;
#611 = EDGE_CURVE ( 'NONE', #627, #588, #215, .T. ) ;
#612 = CARTESIAN_POINT ( 'NONE',  ( 0.2775590536595485824, 2.527708034419605454, 2.631138908096012141 ) ) ;
#613 = CARTESIAN_POINT ( 'NONE',  ( 0.2775590536595469726, 2.519905169703559711, 2.631138908096012585 ) ) ;
#614 = B_SPLINE_CURVE_WITH_KNOTS ( 'NONE', 3,
 ( #591, #16, #218, #124, #374, #267, #479, #214, #273, #222, #426, #71, #530, #226, #436, #487 ),
 .UNSPECIFIED., .F., .F.,
 ( 4, 2, 2, 2, 2, 2, 2, 4 ),
 ( 0.000000000000000000, 0.001059774760182420790, 0.001589662140273628800, 0.002119549520364836809, 0.002649436900456045036, 0.003179324280547252829, 0.003709211660638461056, 0.004239099040729669282 ),
 .UNSPECIFIED. ) ;
#615 = CARTESIAN_POINT ( 'NONE',  ( 0.3204832980450900703, 2.724536168891362298, 2.654116069463651861 ) ) ;
#616 = CARTESIAN_POINT ( 'NONE',  ( 0.3098736236102422881, 2.699529835239622866, 1.900029700142002786 ) ) ;
#617 = FACE_OUTER_BOUND ( 'NONE', #572, .T. ) ;
#618 = APPROVAL_PERSON_ORGANIZATION ( #125, #192, #427 ) ;
#619 = CARTESIAN_POINT ( 'NONE',  ( 0.3677975730915958308, 2.249999999999986233, 2.594212294127596685 ) ) ;
#620 = CARTESIAN_POINT ( 'NONE',  ( 0.2936611753460475205, 2.649999999999986144, 1.887138908096011924 ) ) ;
#621 = EDGE_CURVE ( 'NONE', #393, #526, #152, .T. ) ;
#622 = DIRECTION ( 'NONE',  ( 0.000000000000000000, 0.000000000000000000, 1.000000000000000000 ) ) ;
#623 = CARTESIAN_POINT ( 'NONE',  ( 0.000000000000000000, 2.527708034419605010, 2.631138908096012141 ) ) ;
#624 = AXIS2_PLACEMENT_3D ( 'NONE', #570, #264, #519 ) ;
#625 = DIRECTION ( 'NONE',  ( -1.000000000000000000, 0.000000000000000000, 0.000000000000000000 ) ) ;
#626 = EDGE_CURVE ( 'NONE', #483, #532, #561, .T. ) ;
#627 = VERTEX_POINT ( 'NONE', #56 ) ;
#628 = CARTESIAN_POINT ( 'NONE',  ( 0.2775590536595469726, 2.520004815539094167, 2.513138908096012258 ) ) ;
#629 = FACE_OUTER_BOUND ( 'NONE', #503, .T. ) ;
#630 = VERTEX_POINT ( 'NONE', #623 ) ;
#631 = FACE_OUTER_BOUND ( 'NONE', #339, .T. ) ;
#632 = CARTESIAN_POINT ( 'NONE',  ( 0.7505735796200552201, 2.349999999999985434, 2.587138908096012102 ) ) ;
#633 = CALENDAR_DATE ( 2026, 20, 3 ) ;
#634 = ORIENTED_EDGE ( 'NONE', *, *, #573, .F. ) ;
#635 = CC_DESIGN_DATE_AND_TIME_ASSIGNMENT ( #372, #583, ( #319 ) ) ;
#636 = DIRECTION ( 'NONE',  ( 0.000000000000000000, 0.000000000000000000, 1.000000000000000000 ) ) ;
#637 = VERTEX_POINT ( 'NONE', #517 ) ;
#638 = AXIS2_PLACEMENT_3D ( 'NONE', #259, #207, #316 ) ;
#639 = CARTESIAN_POINT ( 'NONE',  ( 0.7505735796200552201, 2.649999999999986144, 1.987138908096012013 ) ) ;
#640 = CARTESIAN_POINT ( 'NONE',  ( 0.7505735796200552201, 2.649999999999986144, 2.587138908096012102 ) ) ;
#641 = APPROVAL_STATUS ( 'not_yet_approved' ) ;
#642 = DIRECTION ( 'NONE',  ( 0.000000000000000000, 0.000000000000000000, -1.000000000000000000 ) ) ;
#643 = CARTESIAN_POINT ( 'NONE',  ( 0.3677975730915960528, 2.249999999999985345, 2.587138908096012102 ) ) ;
#644 = DATE_AND_TIME ( #12, #405 ) ;
#645 = VERTEX_POINT ( 'NONE', #361 ) ;
#646 = CC_DESIGN_PERSON_AND_ORGANIZATION_ASSIGNMENT ( #165, #173, ( #205 ) ) ;
#647 = CARTESIAN_POINT ( 'NONE',  ( 0.2798928734844991495, 2.480757422299119330, 2.038076334494714814 ) ) ;
#648 = CARTESIAN_POINT ( 'NONE',  ( 0.2789213898659223534, 2.563703014285013460, 1.955233448744806424 ) ) ;
#649 = CALENDAR_DATE ( 2026, 20, 3 ) ;
#650 = ORIENTED_EDGE ( 'NONE', *, *, #254, .F. ) ;
#651 = AXIS2_PLACEMENT_3D ( 'NONE', #640, #164, #367 ) ;
#652 = EDGE_CURVE ( 'NONE', #213, #325, #676, .T. ) ;
#653 = CARTESIAN_POINT ( 'NONE',  ( 0.2808866016782035069, 2.471714444207245620, 2.021129983363984639 ) ) ;
#654 = APPLICATION_CONTEXT ( 'configuration controlled 3d designs of mechanical parts and assemblies' ) ;
#655 = CC_DESIGN_APPROVAL ( #192, ( #205 ) ) ;
#656 = CARTESIAN_POINT ( 'NONE',  ( 0.3677975730915960528, 2.249999999999985345, 5.582847569513482711 ) ) ;
#657 = EDGE_LOOP ( 'NONE', ( #495, #21 ) ) ;
#658 = CYLINDRICAL_SURFACE ( 'NONE', #549, 0.05900000000000010791 ) ;
#659 = CARTESIAN_POINT ( 'NONE',  ( 0.2777928164971278924, 2.543042744431455393, 1.945036031215753303 ) ) ;
#660 = EDGE_LOOP ( 'NONE', ( #216, #417, #13, #61 ) ) ;
#661 = CARTESIAN_POINT ( 'NONE',  ( 0.000000000000000000, 2.349999999999985434, 1.987138908096012013 ) ) ;
#662 = CARTESIAN_POINT ( 'NONE',  ( 0.7505735796200552201, 2.749999999999986233, 1.987138908096012013 ) ) ;
#663 = EDGE_CURVE ( 'NONE', #637, #283, #75, .T. ) ;
#664 = CARTESIAN_POINT ( 'NONE',  ( 0.3331226443480772570, 2.749999999999987121, 2.593992792583486917 ) ) ;
#665 = AXIS2_PLACEMENT_3D ( 'NONE', #461, #667, #203 ) ;
#666 = LINE ( 'NONE', #656, #596 ) ;
#667 = DIRECTION ( 'NONE',  ( -1.000000000000000000, -0.000000000000000000, -0.000000000000000000 ) ) ;
#668 = CARTESIAN_POINT ( 'NONE',  ( 0.3122554372917921151, 2.349999999999985434, 1.887138908096012146 ) ) ;
#669 = CARTESIAN_POINT ( 'NONE',  ( 0.7505735796200552201, 2.649999999999986144, 1.887138908096011924 ) ) ;
#670 = CARTESIAN_POINT ( 'NONE',  ( 0.3034266865977114924, 2.682020975716038258, 1.892187529171672100 ) ) ;
#671 = DIRECTION ( 'NONE',  ( 0.000000000000000000, 0.000000000000000000, 1.000000000000000000 ) ) ;
#672 = EDGE_CURVE ( 'NONE', #452, #26, #411, .T. ) ;
#673 = PLANE ( 'NONE',  #497 ) ;
#674 = AXIS2_PLACEMENT_3D ( 'NONE', #70, #377, #642 ) ;
#675 = DIRECTION ( 'NONE',  ( -1.000000000000000000, -0.000000000000000000, -0.000000000000000000 ) ) ;
#676 = LINE ( 'NONE', #155, #351 ) ;
ENDSEC;
END-ISO-10303-21;
