ISO-10303-21;
HEADER;
FILE_DESCRIPTION (( 'STEP AP203' ),
    '1' );
FILE_NAME ('O Ring Holder for motor.STEP',
    '2026-03-20T23:31:02',
    ( '' ),
    ( '' ),
    'SwSTEP 2.0',
    'SolidWorks 2025',
    '' );
FILE_SCHEMA (( 'CONFIG_CONTROL_DESIGN' ));
ENDSEC;

DATA;
#1 = CARTESIAN_POINT ( 'NONE',  ( 6.184466335694133561E-17, -0.5049999999999998934, -1.149652697333710648E-16 ) ) ;
#2 = AXIS2_PLACEMENT_3D ( 'NONE', #559, #320, #420 ) ;
#3 = CIRCLE ( 'NONE', #237, 0.04921259842519642297 ) ;
#4 = APPROVAL_PERSON_ORGANIZATION ( #311, #432, #263 ) ;
#5 = CARTESIAN_POINT ( 'NONE',  ( 0.000000000000000000, -4.837647488780466116E-17, 0.2125000000000000222 ) ) ;
#6 = ORIENTED_EDGE ( 'NONE', *, *, #368, .T. ) ;
#7 = CARTESIAN_POINT ( 'NONE',  ( 0.000000000000000000, 0.5050000000000000044, 0.08750000000000016098 ) ) ;
#8 = CARTESIAN_POINT ( 'NONE',  ( 6.123233995736764803E-17, -0.4999999999999998335, 0.08749999999999988343 ) ) ;
#9 = EDGE_CURVE ( 'NONE', #310, #77, #73, .T. ) ;
#10 = ORIENTED_EDGE ( 'NONE', *, *, #9, .T. ) ;
#11 = DIRECTION ( 'NONE',  ( -0.000000000000000000, 2.276539994720219349E-16, -1.000000000000000000 ) ) ;
#12 = CARTESIAN_POINT ( 'NONE',  ( 6.184466335694133561E-17, -0.5049999999999998934, -2.299305394667421296E-16 ) ) ;
#13 = ORIENTED_EDGE ( 'NONE', *, *, #162, .T. ) ;
#14 = EDGE_CURVE ( 'NONE', #437, #313, #143, .T. ) ;
#15 = PLANE ( 'NONE',  #544 ) ;
#16 = TOROIDAL_SURFACE ( 'NONE', #468, 0.4999999999999998335, 0.06250000000000001388 ) ;
#17 = VECTOR ( 'NONE', #480, 39.37007874015748143 ) ;
#18 = CARTESIAN_POINT ( 'NONE',  ( 0.000000000000000000, 0.4374999999999998335, 0.1499999999999999944 ) ) ;
#19 = VERTEX_POINT ( 'NONE', #509 ) ;
#20 = ADVANCED_FACE ( 'NONE', ( #605, #351 ), #47, .T. ) ;
#21 = FACE_BOUND ( 'NONE', #485, .T. ) ;
#22 = EDGE_LOOP ( 'NONE', ( #129, #375, #361, #119 ) ) ;
#23 = FACE_BOUND ( 'NONE', #94, .T. ) ;
#24 = LINE ( 'NONE', #123, #222 ) ;
#25 = EDGE_LOOP ( 'NONE', ( #338, #247 ) ) ;
#26 = CARTESIAN_POINT ( 'NONE',  ( 0.000000000000000000, 0.000000000000000000, 0.000000000000000000 ) ) ;
#27 = AXIS2_PLACEMENT_3D ( 'NONE', #43, #229, #93 ) ;
#28 = PLANE ( 'NONE',  #165 ) ;
#29 = AXIS2_PLACEMENT_3D ( 'NONE', #500, #547, #592 ) ;
#30 = EDGE_LOOP ( 'NONE', ( #60, #301, #110, #548 ) ) ;
#31 = SECURITY_CLASSIFICATION ( '', '', #546 ) ;
#32 = LINE ( 'NONE', #118, #304 ) ;
#33 = ORIENTED_EDGE ( 'NONE', *, *, #243, .T. ) ;
#34 = CARTESIAN_POINT ( 'NONE',  ( 0.000000000000000000, 0.000000000000000000, 0.1499999999999999944 ) ) ;
#35 = ORIENTED_EDGE ( 'NONE', *, *, #109, .T. ) ;
#36 = COORDINATED_UNIVERSAL_TIME_OFFSET ( 8, 0, .BEHIND. ) ;
#37 = MANIFOLD_SOLID_BREP ( 'Cut-Extrude1', #125 ) ;
#38 = EDGE_LOOP ( 'NONE', ( #460, #203, #33, #124 ) ) ;
#39 = CIRCLE ( 'NONE', #384, 0.05905511811023608781 ) ;
#40 = EDGE_CURVE ( 'NONE', #183, #275, #221, .T. ) ;
#41 = FACE_OUTER_BOUND ( 'NONE', #318, .T. ) ;
#42 = CARTESIAN_POINT ( 'NONE',  ( -9.642888182262625513E-17, -0.05905511811024029278, 0.3000000000000004885 ) ) ;
#43 = CARTESIAN_POINT ( 'NONE',  ( -0.2362204724409450729, -4.142406514802326477E-15, 0.3000000000000004885 ) ) ;
#44 = ADVANCED_FACE ( 'NONE', ( #88 ), #607, .F. ) ;
#45 = CIRCLE ( 'NONE', #250, 0.4374999999999998335 ) ;
#46 = FACE_OUTER_BOUND ( 'NONE', #141, .T. ) ;
#47 = PLANE ( 'NONE',  #443 ) ;
#48 = EDGE_CURVE ( 'NONE', #599, #183, #608, .T. ) ;
#49 = FACE_OUTER_BOUND ( 'NONE', #298, .T. ) ;
#50 = VERTEX_POINT ( 'NONE', #473 ) ;
#51 = AXIS2_PLACEMENT_3D ( 'NONE', #471, #178, #513 ) ;
#52 = CIRCLE ( 'NONE', #457, 0.06250000000000001388 ) ;
#53 = CARTESIAN_POINT ( 'NONE',  ( 0.000000000000000000, 0.5000000000000000000, 0.3000000000000003775 ) ) ;
#54 = LOCAL_TIME ( 16, 31, 2.000000000000000000, #458 ) ;
#55 = EDGE_CURVE ( 'NONE', #310, #50, #591, .T. ) ;
#56 = CARTESIAN_POINT ( 'NONE',  ( 0.000000000000000000, 0.4999999999999998335, 0.1500000000000001055 ) ) ;
#57 = VERTEX_POINT ( 'NONE', #422 ) ;
#58 = DIRECTION ( 'NONE',  ( -0.000000000000000000, 2.276539994720219349E-16, -1.000000000000000000 ) ) ;
#59 = DIRECTION ( 'NONE',  ( -0.000000000000000000, 2.276539994720219349E-16, -1.000000000000000000 ) ) ;
#60 = ORIENTED_EDGE ( 'NONE', *, *, #455, .T. ) ;
#61 = CARTESIAN_POINT ( 'NONE',  ( 0.2362204724409448509, -4.249959585419029713E-15, 0.3000000000000004885 ) ) ;
#62 = ORIENTED_EDGE ( 'NONE', *, *, #40, .T. ) ;
#63 = EDGE_CURVE ( 'NONE', #388, #117, #382, .T. ) ;
#64 = DIRECTION ( 'NONE',  ( 0.000000000000000000, 2.276539994720219349E-16, -1.000000000000000000 ) ) ;
#65 = CIRCLE ( 'NONE', #418, 0.4999999999999999445 ) ;
#66 = CARTESIAN_POINT ( 'NONE',  ( 0.000000000000000000, -1.742473386040656191E-33, 0.1499999999999999944 ) ) ;
#67 = ORIENTED_EDGE ( 'NONE', *, *, #63, .T. ) ;
#68 = DIRECTION ( 'NONE',  ( -0.000000000000000000, 2.276539994720219349E-16, -1.000000000000000000 ) ) ;
#69 = DIRECTION ( 'NONE',  ( -0.000000000000000000, 2.276539994720219349E-16, -1.000000000000000000 ) ) ;
#70 = ORIENTED_EDGE ( 'NONE', *, *, #477, .T. ) ;
#71 = PERSON_AND_ORGANIZATION ( #431, #594 ) ;
#72 = CYLINDRICAL_SURFACE ( 'NONE', #557, 0.5049999999999998934 ) ;
#73 = LINE ( 'NONE', #456, #278 ) ;
#74 = DIRECTION ( 'NONE',  ( 1.000000000000000000, 0.000000000000000000, 0.000000000000000000 ) ) ;
#75 = CARTESIAN_POINT ( 'NONE',  ( 0.000000000000000000, 0.5050000000000000044, 0.2125000000000000500 ) ) ;
#76 = CIRCLE ( 'NONE', #96, 0.5050000000000000044 ) ;
#77 = VERTEX_POINT ( 'NONE', #569 ) ;
#78 = VECTOR ( 'NONE', #58, 39.37007874015748143 ) ;
#79 = APPLICATION_PROTOCOL_DEFINITION ( 'international standard', 'config_control_design', 1994, #414 ) ;
#80 = DIRECTION ( 'NONE',  ( -0.000000000000000000, 2.276539994720219349E-16, -1.000000000000000000 ) ) ;
#81 = DESIGN_CONTEXT ( 'detailed design', #552, 'design' ) ;
#82 = ORIENTED_EDGE ( 'NONE', *, *, #427, .F. ) ;
#83 = EDGE_CURVE ( 'NONE', #57, #313, #614, .T. ) ;
#84 = DATE_AND_TIME ( #220, #54 ) ;
#85 = ORIENTED_EDGE ( 'NONE', *, *, #539, .T. ) ;
#86 = PERSON_AND_ORGANIZATION ( #431, #594 ) ;
#87 = AXIS2_PLACEMENT_3D ( 'NONE', #378, #135, #430 ) ;
#88 = FACE_OUTER_BOUND ( 'NONE', #159, .T. ) ;
#89 = CIRCLE ( 'NONE', #104, 0.4374999999999998335 ) ;
#90 = CARTESIAN_POINT ( 'NONE',  ( 0.000000000000000000, 0.4999999999999998335, 0.2125000000000001332 ) ) ;
#91 = ORIENTED_EDGE ( 'NONE', *, *, #613, .T. ) ;
#92 = CARTESIAN_POINT ( 'NONE',  ( 0.2362204724409448509, -4.249959585419029713E-15, 0.3000000000000004885 ) ) ;
#93 = DIRECTION ( 'NONE',  ( 0.000000000000000000, 1.000000000000000000, 0.000000000000000000 ) ) ;
#94 = EDGE_LOOP ( 'NONE', ( #85, #137 ) ) ;
#95 = AXIS2_PLACEMENT_3D ( 'NONE', #327, #138, #386 ) ;
#96 = AXIS2_PLACEMENT_3D ( 'NONE', #356, #80, #312 ) ;
#97 = CIRCLE ( 'NONE', #212, 0.05905511811023608781 ) ;
#98 = PLANE ( 'NONE',  #87 ) ;
#99 = DIRECTION ( 'NONE',  ( 0.000000000000000000, 1.000000000000000000, 2.276539994720219349E-16 ) ) ;
#100 = VERTEX_POINT ( 'NONE', #374 ) ;
#101 = CARTESIAN_POINT ( 'NONE',  ( 0.000000000000000000, 0.000000000000000000, 0.000000000000000000 ) ) ;
#102 = DIRECTION ( 'NONE',  ( 0.000000000000000000, 1.000000000000000000, 0.000000000000000000 ) ) ;
#103 = ORIENTED_EDGE ( 'NONE', *, *, #122, .T. ) ;
#104 = AXIS2_PLACEMENT_3D ( 'NONE', #158, #59, #383 ) ;
#105 = LENGTH_MEASURE_WITH_UNIT ( LENGTH_MEASURE( 0.02539999999999999897 ), #160 );
#106 = DIRECTION ( 'NONE',  ( -0.000000000000000000, 2.276539994720219349E-16, -1.000000000000000000 ) ) ;
#107 = ORIENTED_EDGE ( 'NONE', *, *, #521, .F. ) ;
#108 = FACE_OUTER_BOUND ( 'NONE', #463, .T. ) ;
#109 = EDGE_CURVE ( 'NONE', #197, #452, #180, .T. ) ;
#110 = ORIENTED_EDGE ( 'NONE', *, *, #63, .F. ) ;
#111 = CARTESIAN_POINT ( 'NONE',  ( 0.2362204724409448509, 0.04921259842519217637, 0.3000000000000004885 ) ) ;
#112 = DIRECTION ( 'NONE',  ( 0.000000000000000000, 1.000000000000000000, 0.000000000000000000 ) ) ;
#113 = VERTEX_POINT ( 'NONE', #516 ) ;
#114 = CARTESIAN_POINT ( 'NONE',  ( -0.2362204724409450729, 0.04921259842519228739, 0.3000000000000004885 ) ) ;
#115 = AXIS2_PLACEMENT_3D ( 'NONE', #185, #380, #512 ) ;
#116 = CARTESIAN_POINT ( 'NONE',  ( 0.000000000000000000, 0.000000000000000000, 0.000000000000000000 ) ) ;
#117 = VERTEX_POINT ( 'NONE', #611 ) ;
#118 = CARTESIAN_POINT ( 'NONE',  ( 6.184466335694134793E-17, -0.5050000000000001155, -1.149652697333710894E-16 ) ) ;
#119 = ORIENTED_EDGE ( 'NONE', *, *, #83, .F. ) ;
#120 = DATE_AND_TIME ( #365, #470 ) ;
#121 = ADVANCED_BREP_SHAPE_REPRESENTATION ( 'O Ring Holder for motor', ( #37, #446 ), #130 ) ;
#122 = EDGE_CURVE ( 'NONE', #117, #388, #404, .T. ) ;
#123 = CARTESIAN_POINT ( 'NONE',  ( -9.642888182262625513E-17, -0.05905511811024028584, 0.3000000000000004885 ) ) ;
#124 = ORIENTED_EDGE ( 'NONE', *, *, #529, .F. ) ;
#125 = CLOSED_SHELL ( 'NONE', ( #419, #132, #44, #233, #479, #217, #324, #550, #565, #339, #174, #321, #20, #387, #358, #249, #317, #273 ) ) ;
#126 = DIRECTION ( 'NONE',  ( 0.000000000000000000, 1.000000000000000000, 2.028599995295244969E-16 ) ) ;
#127 = EDGE_CURVE ( 'NONE', #522, #262, #530, .T. ) ;
#128 = AXIS2_PLACEMENT_3D ( 'NONE', #155, #439, #252 ) ;
#129 = ORIENTED_EDGE ( 'NONE', *, *, #168, .F. ) ;
#130 =( GEOMETRIC_REPRESENTATION_CONTEXT ( 3 ) GLOBAL_UNCERTAINTY_ASSIGNED_CONTEXT ( ( #412 ) ) GLOBAL_UNIT_ASSIGNED_CONTEXT ( ( #305, #292, #257 ) ) REPRESENTATION_CONTEXT ( 'NONE', 'WORKASPACE' ) );
#131 = PERSON_AND_ORGANIZATION_ROLE ( 'creator' ) ;
#132 = ADVANCED_FACE ( 'NONE', ( #46 ), #16, .F. ) ;
#133 = VERTEX_POINT ( 'NONE', #90 ) ;
#134 = DIRECTION ( 'NONE',  ( 0.000000000000000000, 1.000000000000000000, 0.000000000000000000 ) ) ;
#135 = DIRECTION ( 'NONE',  ( -0.000000000000000000, 2.276539994720219349E-16, -1.000000000000000000 ) ) ;
#136 = VECTOR ( 'NONE', #450, 39.37007874015748143 ) ;
#137 = ORIENTED_EDGE ( 'NONE', *, *, #168, .T. ) ;
#138 = DIRECTION ( 'NONE',  ( -0.000000000000000000, 2.276539994720219349E-16, -1.000000000000000000 ) ) ;
#139 = CC_DESIGN_PERSON_AND_ORGANIZATION_ASSIGNMENT ( #319, #508, ( #31 ) ) ;
#140 = CARTESIAN_POINT ( 'NONE',  ( 0.000000000000000000, 0.5049999999999998934, 1.149652697333710648E-16 ) ) ;
#141 = EDGE_LOOP ( 'NONE', ( #35, #171, #586, #240 ) ) ;
#142 = DIRECTION ( 'NONE',  ( 0.000000000000000000, 2.276539994720219349E-16, -1.000000000000000000 ) ) ;
#143 = CIRCLE ( 'NONE', #2, 0.05905511811023608781 ) ;
#144 = CIRCLE ( 'NONE', #495, 0.06250000000000001388 ) ;
#145 = DIRECTION ( 'NONE',  ( 0.000000000000000000, 1.000000000000000000, 2.048885995248197660E-16 ) ) ;
#146 = EDGE_CURVE ( 'NONE', #19, #244, #342, .T. ) ;
#147 = CYLINDRICAL_SURFACE ( 'NONE', #190, 0.5050000000000001155 ) ;
#148 = CARTESIAN_POINT ( 'NONE',  ( 0.000000000000000000, 0.000000000000000000, 0.1499999999999999944 ) ) ;
#149 = EDGE_LOOP ( 'NONE', ( #265, #580 ) ) ;
#150 = DIRECTION ( 'NONE',  ( 0.000000000000000000, 1.000000000000000000, 0.000000000000000000 ) ) ;
#151 = DIRECTION ( 'NONE',  ( -1.000000000000000000, 0.000000000000000000, 0.000000000000000000 ) ) ;
#152 = EDGE_LOOP ( 'NONE', ( #334, #10, #597, #216 ) ) ;
#153 = VECTOR ( 'NONE', #575, 39.37007874015748143 ) ;
#154 = FACE_BOUND ( 'NONE', #481, .T. ) ;
#155 = CARTESIAN_POINT ( 'NONE',  ( 0.2362204724409448509, -4.249959585419029713E-15, 0.3000000000000004885 ) ) ;
#156 = VERTEX_POINT ( 'NONE', #42 ) ;
#157 = DIRECTION ( 'NONE',  ( 0.000000000000000000, -2.276539994720219349E-16, 1.000000000000000000 ) ) ;
#158 = CARTESIAN_POINT ( 'NONE',  ( 0.000000000000000000, -1.742473386040656191E-33, 0.1499999999999999944 ) ) ;
#159 = EDGE_LOOP ( 'NONE', ( #295, #70, #6, #173 ) ) ;
#160 =( LENGTH_UNIT ( ) NAMED_UNIT ( * ) SI_UNIT ( $, .METRE. ) );
#161 = DIRECTION ( 'NONE',  ( 0.000000000000000000, 1.000000000000000000, 2.276539994720218856E-16 ) ) ;
#162 = EDGE_CURVE ( 'NONE', #223, #77, #248, .T. ) ;
#163 = ORIENTED_EDGE ( 'NONE', *, *, #477, .F. ) ;
#164 = COORDINATED_UNIVERSAL_TIME_OFFSET ( 8, 0, .BEHIND. ) ;
#165 = AXIS2_PLACEMENT_3D ( 'NONE', #588, #205, #411 ) ;
#166 = DIRECTION ( 'NONE',  ( -0.000000000000000000, 2.276539994720219349E-16, -1.000000000000000000 ) ) ;
#167 = ORIENTED_EDGE ( 'NONE', *, *, #14, .F. ) ;
#168 = EDGE_CURVE ( 'NONE', #156, #57, #466, .T. ) ;
#169 = DATE_AND_TIME ( #407, #176 ) ;
#170 = DIRECTION ( 'NONE',  ( -0.000000000000000000, 2.276539994720219349E-16, -1.000000000000000000 ) ) ;
#171 = ORIENTED_EDGE ( 'NONE', *, *, #227, .T. ) ;
#172 = CARTESIAN_POINT ( 'NONE',  ( 0.000000000000000000, 0.000000000000000000, 0.000000000000000000 ) ) ;
#173 = ORIENTED_EDGE ( 'NONE', *, *, #570, .F. ) ;
#174 = ADVANCED_FACE ( 'NONE', ( #41, #520 ), #98, .T. ) ;
#175 = ORIENTED_EDGE ( 'NONE', *, *, #122, .F. ) ;
#176 = LOCAL_TIME ( 16, 31, 2.000000000000000000, #36 ) ;
#177 = CALENDAR_DATE ( 2026, 20, 3 ) ;
#178 = DIRECTION ( 'NONE',  ( 1.000000000000000000, 1.224646799147353207E-16, 2.787957417665048811E-32 ) ) ;
#179 = DIRECTION ( 'NONE',  ( -0.000000000000000000, 2.276539994720219349E-16, -1.000000000000000000 ) ) ;
#180 = CIRCLE ( 'NONE', #51, 0.06250000000000001388 ) ;
#181 = CARTESIAN_POINT ( 'NONE',  ( 0.2362204724409448509, -4.181663385577422886E-15, -9.519723941724161372E-31 ) ) ;
#182 = TOROIDAL_SURFACE ( 'NONE', #573, 0.4999999999999998335, 0.06250000000000001388 ) ;
#183 = VERTEX_POINT ( 'NONE', #568 ) ;
#184 = APPROVAL ( #600, 'UNSPECIFIED' ) ;
#185 = CARTESIAN_POINT ( 'NONE',  ( 0.000000000000000000, -4.837647488780464883E-17, 0.2124999999999999667 ) ) ;
#186 = DIRECTION ( 'NONE',  ( 0.000000000000000000, 1.000000000000000000, 2.276539994720219349E-16 ) ) ;
#187 = EDGE_CURVE ( 'NONE', #275, #183, #210, .T. ) ;
#188 = CARTESIAN_POINT ( 'NONE',  ( -0.2362204724409450729, -4.142406514802326477E-15, 0.3000000000000004885 ) ) ;
#189 = AXIS2_PLACEMENT_3D ( 'NONE', #381, #274, #234 ) ;
#190 = AXIS2_PLACEMENT_3D ( 'NONE', #101, #68, #447 ) ;
#191 = CARTESIAN_POINT ( 'NONE',  ( 0.000000000000000000, 0.5049999999999998934, 0.3000000000000003775 ) ) ;
#192 = ORIENTED_EDGE ( 'NONE', *, *, #330, .T. ) ;
#193 = CARTESIAN_POINT ( 'NONE',  ( 0.000000000000000000, 0.000000000000000000, 0.000000000000000000 ) ) ;
#194 = ORIENTED_EDGE ( 'NONE', *, *, #302, .T. ) ;
#195 = LINE ( 'NONE', #114, #78 ) ;
#196 = DIRECTION ( 'NONE',  ( -0.000000000000000000, 2.276539994720219349E-16, -1.000000000000000000 ) ) ;
#197 = VERTEX_POINT ( 'NONE', #8 ) ;
#198 = AXIS2_PLACEMENT_3D ( 'NONE', #561, #426, #478 ) ;
#199 = EDGE_CURVE ( 'NONE', #77, #223, #564, .T. ) ;
#200 = CIRCLE ( 'NONE', #211, 0.4999999999999999445 ) ;
#201 = DIRECTION ( 'NONE',  ( 0.000000000000000000, -1.000000000000000000, -2.276539994720219349E-16 ) ) ;
#202 = CYLINDRICAL_SURFACE ( 'NONE', #531, 0.04921259842519642297 ) ;
#203 = ORIENTED_EDGE ( 'NONE', *, *, #427, .T. ) ;
#204 = CARTESIAN_POINT ( 'NONE',  ( 0.2362204724409448509, -0.04921259842520067651, 0.3000000000000004885 ) ) ;
#205 = DIRECTION ( 'NONE',  ( -0.000000000000000000, 2.276539994720219349E-16, -1.000000000000000000 ) ) ;
#206 = ORIENTED_EDGE ( 'NONE', *, *, #146, .F. ) ;
#207 = CARTESIAN_POINT ( 'NONE',  ( 0.2362204724409448509, -0.04921259842520067651, 0.3000000000000004885 ) ) ;
#208 = EDGE_LOOP ( 'NONE', ( #62, #543 ) ) ;
#209 = DIRECTION ( 'NONE',  ( 0.000000000000000000, 0.000000000000000000, 1.000000000000000000 ) ) ;
#210 = CIRCLE ( 'NONE', #95, 0.5049999999999998934 ) ;
#211 = AXIS2_PLACEMENT_3D ( 'NONE', #5, #106, #145 ) ;
#212 = AXIS2_PLACEMENT_3D ( 'NONE', #336, #238, #525 ) ;
#213 = FACE_BOUND ( 'NONE', #253, .T. ) ;
#214 = ORIENTED_EDGE ( 'NONE', *, *, #554, .F. ) ;
#215 = CARTESIAN_POINT ( 'NONE',  ( 6.123233995736764803E-17, -0.4999999999999998335, 0.1499999999999998557 ) ) ;
#216 = ORIENTED_EDGE ( 'NONE', *, *, #606, .F. ) ;
#217 = ADVANCED_FACE ( 'NONE', ( #300 ), #538, .T. ) ;
#218 = APPROVAL_DATE_TIME ( #461, #432 ) ;
#219 = ORIENTED_EDGE ( 'NONE', *, *, #423, .T. ) ;
#220 = CALENDAR_DATE ( 2026, 20, 3 ) ;
#221 = CIRCLE ( 'NONE', #474, 0.5049999999999998934 ) ;
#222 = VECTOR ( 'NONE', #598, 39.37007874015748143 ) ;
#223 = VERTEX_POINT ( 'NONE', #526 ) ;
#224 = CC_DESIGN_APPROVAL ( #432, ( #545 ) ) ;
#225 = EDGE_CURVE ( 'NONE', #491, #281, #353, .T. ) ;
#226 = DIRECTION ( 'NONE',  ( 0.000000000000000000, -1.000000000000000000, -2.276539994720219349E-16 ) ) ;
#227 = EDGE_CURVE ( 'NONE', #452, #281, #89, .T. ) ;
#228 = DIRECTION ( 'NONE',  ( -0.000000000000000000, 2.276539994720219349E-16, -1.000000000000000000 ) ) ;
#229 = DIRECTION ( 'NONE',  ( 0.000000000000000000, 2.276539994720219349E-16, -1.000000000000000000 ) ) ;
#230 = AXIS2_PLACEMENT_3D ( 'NONE', #188, #341, #112 ) ;
#231 = CC_DESIGN_DATE_AND_TIME_ASSIGNMENT ( #84, #308, ( #31 ) ) ;
#232 = CARTESIAN_POINT ( 'NONE',  ( 0.000000000000000000, 0.000000000000000000, 0.1499999999999999944 ) ) ;
#233 = ADVANCED_FACE ( 'NONE', ( #242 ), #397, .F. ) ;
#234 = DIRECTION ( 'NONE',  ( 0.000000000000000000, 1.000000000000000000, 2.028599995295244969E-16 ) ) ;
#235 = DIRECTION ( 'NONE',  ( -0.000000000000000000, 2.276539994720219349E-16, -1.000000000000000000 ) ) ;
#236 = ORIENTED_EDGE ( 'NONE', *, *, #199, .F. ) ;
#237 = AXIS2_PLACEMENT_3D ( 'NONE', #264, #503, #255 ) ;
#238 = DIRECTION ( 'NONE',  ( 0.000000000000000000, 2.276539994720219349E-16, -1.000000000000000000 ) ) ;
#239 = DIRECTION ( 'NONE',  ( 0.000000000000000000, 0.000000000000000000, 1.000000000000000000 ) ) ;
#240 = ORIENTED_EDGE ( 'NONE', *, *, #613, .F. ) ;
#241 = DIRECTION ( 'NONE',  ( 0.000000000000000000, 1.000000000000000000, 2.390366994456230563E-16 ) ) ;
#242 = FACE_OUTER_BOUND ( 'NONE', #152, .T. ) ;
#243 = EDGE_CURVE ( 'NONE', #100, #133, #200, .T. ) ;
#244 = VERTEX_POINT ( 'NONE', #191 ) ;
#245 = CARTESIAN_POINT ( 'NONE',  ( 0.2362204724409448509, -4.249959585419029713E-15, 0.3000000000000004885 ) ) ;
#246 = FACE_OUTER_BOUND ( 'NONE', #38, .T. ) ;
#247 = ORIENTED_EDGE ( 'NONE', *, *, #423, .F. ) ;
#248 = CIRCLE ( 'NONE', #366, 0.04921259842519642297 ) ;
#249 = ADVANCED_FACE ( 'NONE', ( #108 ), #532, .F. ) ;
#250 = AXIS2_PLACEMENT_3D ( 'NONE', #66, #196, #345 ) ;
#251 = DIRECTION ( 'NONE',  ( 0.000000000000000000, 1.000000000000000000, 0.000000000000000000 ) ) ;
#252 = DIRECTION ( 'NONE',  ( 0.000000000000000000, 1.000000000000000000, 0.000000000000000000 ) ) ;
#253 = EDGE_LOOP ( 'NONE', ( #563, #167 ) ) ;
#254 = CARTESIAN_POINT ( 'NONE',  ( 0.000000000000000000, 0.4999999999999998335, 0.1500000000000001055 ) ) ;
#255 = DIRECTION ( 'NONE',  ( 0.000000000000000000, 1.000000000000000000, 2.276539994720219842E-16 ) ) ;
#256 = ORIENTED_EDGE ( 'NONE', *, *, #302, .F. ) ;
#257 =( NAMED_UNIT ( * ) SI_UNIT ( $, .STERADIAN. ) SOLID_ANGLE_UNIT ( ) );
#258 = CARTESIAN_POINT ( 'NONE',  ( -0.2362204724409450729, -4.142406514802326477E-15, 0.3000000000000004885 ) ) ;
#259 = DIRECTION ( 'NONE',  ( -0.000000000000000000, 2.276539994720219349E-16, -1.000000000000000000 ) ) ;
#260 = AXIS2_PLACEMENT_3D ( 'NONE', #497, #69, #126 ) ;
#261 = DIRECTION ( 'NONE',  ( 0.000000000000000000, 2.276539994720219349E-16, -1.000000000000000000 ) ) ;
#262 = VERTEX_POINT ( 'NONE', #337 ) ;
#263 = APPROVAL_ROLE ( '' ) ;
#264 = CARTESIAN_POINT ( 'NONE',  ( 0.2362204724409448509, -4.181663385577422886E-15, -9.519723941724161372E-31 ) ) ;
#265 = ORIENTED_EDGE ( 'NONE', *, *, #396, .T. ) ;
#266 = APPROVAL_STATUS ( 'not_yet_approved' ) ;
#267 = VERTEX_POINT ( 'NONE', #390 ) ;
#268 = PERSON_AND_ORGANIZATION_ROLE ( 'creator' ) ;
#269 = VECTOR ( 'NONE', #395, 39.37007874015748143 ) ;
#270 = CIRCLE ( 'NONE', #469, 0.04921259842519642297 ) ;
#271 = CARTESIAN_POINT ( 'NONE',  ( -1.036610479593231993E-16, -4.196183050110678490E-15, 0.3000000000000004885 ) ) ;
#272 = CIRCLE ( 'NONE', #519, 0.4999999999999999445 ) ;
#273 = ADVANCED_FACE ( 'NONE', ( #487 ), #493, .F. ) ;
#274 = DIRECTION ( 'NONE',  ( -0.000000000000000000, 2.276539994720219349E-16, -1.000000000000000000 ) ) ;
#275 = VERTEX_POINT ( 'NONE', #12 ) ;
#276 = DIRECTION ( 'NONE',  ( -0.000000000000000000, 2.276539994720219349E-16, -1.000000000000000000 ) ) ;
#277 = PRODUCT_DEFINITION_SHAPE ( 'NONE', 'NONE',  #545 ) ;
#278 = VECTOR ( 'NONE', #259, 39.37007874015748143 ) ;
#279 = DIRECTION ( 'NONE',  ( 0.000000000000000000, 2.276539994720219349E-16, -1.000000000000000000 ) ) ;
#280 = CIRCLE ( 'NONE', #518, 0.5050000000000000044 ) ;
#281 = VERTEX_POINT ( 'NONE', #18 ) ;
#282 = DIRECTION ( 'NONE',  ( 0.000000000000000000, 1.000000000000000000, 2.276539994720219349E-16 ) ) ;
#283 = PRODUCT_RELATED_PRODUCT_CATEGORY ( 'detail', '', ( #373 ) ) ;
#284 = LINE ( 'NONE', #1, #17 ) ;
#285 = ORIENTED_EDGE ( 'NONE', *, *, #127, .T. ) ;
#286 = DIRECTION ( 'NONE',  ( 0.000000000000000000, 1.000000000000000000, 0.000000000000000000 ) ) ;
#287 = DIRECTION ( 'NONE',  ( -0.000000000000000000, 2.276539994720219349E-16, -1.000000000000000000 ) ) ;
#288 = AXIS2_PLACEMENT_3D ( 'NONE', #574, #484, #585 ) ;
#289 = EDGE_LOOP ( 'NONE', ( #533, #206 ) ) ;
#290 = CIRCLE ( 'NONE', #405, 0.04921259842519642297 ) ;
#291 = CC_DESIGN_APPROVAL ( #184, ( #567 ) ) ;
#292 =( NAMED_UNIT ( * ) PLANE_ANGLE_UNIT ( ) SI_UNIT ( $, .RADIAN. ) );
#293 = CC_DESIGN_DATE_AND_TIME_ASSIGNMENT ( #169, #595, ( #545 ) ) ;
#294 = DIRECTION ( 'NONE',  ( -0.000000000000000000, 2.276539994720219349E-16, -1.000000000000000000 ) ) ;
#295 = ORIENTED_EDGE ( 'NONE', *, *, #506, .F. ) ;
#296 = DIRECTION ( 'NONE',  ( 0.000000000000000000, 0.000000000000000000, 1.000000000000000000 ) ) ;
#297 = CARTESIAN_POINT ( 'NONE',  ( -1.036610479593231993E-16, 0.05905511811023195223, 1.344413382708693999E-17 ) ) ;
#298 = EDGE_LOOP ( 'NONE', ( #403, #400, #536, #175 ) ) ;
#299 = CARTESIAN_POINT ( 'NONE',  ( 0.000000000000000000, -1.991972495380192855E-17, 0.08750000000000003608 ) ) ;
#300 = FACE_OUTER_BOUND ( 'NONE', #553, .T. ) ;
#301 = ORIENTED_EDGE ( 'NONE', *, *, #379, .T. ) ;
#302 = EDGE_CURVE ( 'NONE', #281, #452, #45, .T. ) ;
#303 = VECTOR ( 'NONE', #228, 39.37007874015748143 ) ;
#304 = VECTOR ( 'NONE', #541, 39.37007874015748143 ) ;
#305 =( CONVERSION_BASED_UNIT ( 'INCH', #105 ) LENGTH_UNIT ( ) NAMED_UNIT ( #328 ) );
#306 = DIRECTION ( 'NONE',  ( 0.000000000000000000, 1.000000000000000000, 2.366699994511118720E-16 ) ) ;
#307 = ORIENTED_EDGE ( 'NONE', *, *, #83, .T. ) ;
#308 = DATE_TIME_ROLE ( 'classification_date' ) ;
#309 = FACE_OUTER_BOUND ( 'NONE', #494, .T. ) ;
#310 = VERTEX_POINT ( 'NONE', #535 ) ;
#311 = PERSON_AND_ORGANIZATION ( #431, #594 ) ;
#312 = DIRECTION ( 'NONE',  ( 0.000000000000000000, 1.000000000000000000, 2.366699994511118720E-16 ) ) ;
#313 = VERTEX_POINT ( 'NONE', #297 ) ;
#314 = APPLICATION_PROTOCOL_DEFINITION ( 'international standard', 'config_control_design', 1994, #552 ) ;
#315 = AXIS2_PLACEMENT_3D ( 'NONE', #393, #582, #436 ) ;
#316 = LINE ( 'NONE', #204, #136 ) ;
#317 = ADVANCED_FACE ( 'NONE', ( #576 ), #202, .F. ) ;
#318 = EDGE_LOOP ( 'NONE', ( #67, #103 ) ) ;
#319 = PERSON_AND_ORGANIZATION ( #431, #594 ) ;
#320 = DIRECTION ( 'NONE',  ( 0.000000000000000000, 2.276539994720219349E-16, -1.000000000000000000 ) ) ;
#321 = ADVANCED_FACE ( 'NONE', ( #335 ), #182, .F. ) ;
#322 = CALENDAR_DATE ( 2026, 20, 3 ) ;
#323 = CARTESIAN_POINT ( 'NONE',  ( 0.000000000000000000, 0.5050000000000000044, 0.08750000000000016098 ) ) ;
#324 = ADVANCED_FACE ( 'NONE', ( #246 ), #367, .F. ) ;
#325 = AXIS2_PLACEMENT_3D ( 'NONE', #56, #151, #239 ) ;
#326 = LOCAL_TIME ( 16, 31, 2.000000000000000000, #164 ) ;
#327 = CARTESIAN_POINT ( 'NONE',  ( 0.000000000000000000, 2.617230345518171760E-32, -1.149652697333710648E-16 ) ) ;
#328 = DIMENSIONAL_EXPONENTS ( 1.000000000000000000, 0.000000000000000000, 0.000000000000000000, 0.000000000000000000, 0.000000000000000000, 0.000000000000000000, 0.000000000000000000 ) ;
#329 = DIRECTION ( 'NONE',  ( 0.000000000000000000, -2.276539994720219349E-16, 1.000000000000000000 ) ) ;
#330 = EDGE_CURVE ( 'NONE', #267, #275, #284, .T. ) ;
#331 = CARTESIAN_POINT ( 'NONE',  ( -1.036610479593231993E-16, 0.05905511811023188978, 0.3000000000000004885 ) ) ;
#332 = DIRECTION ( 'NONE',  ( 0.000000000000000000, 2.276539994720219349E-16, -1.000000000000000000 ) ) ;
#333 = AXIS2_PLACEMENT_3D ( 'NONE', #245, #64, #286 ) ;
#334 = ORIENTED_EDGE ( 'NONE', *, *, #55, .F. ) ;
#335 = FACE_OUTER_BOUND ( 'NONE', #394, .T. ) ;
#336 = CARTESIAN_POINT ( 'NONE',  ( -1.036610479593231993E-16, -4.127886850269071663E-15, -9.397299508317215802E-31 ) ) ;
#337 = CARTESIAN_POINT ( 'NONE',  ( 0.2362204724409448509, -0.04921259842520060712, -1.120344485590744476E-17 ) ) ;
#338 = ORIENTED_EDGE ( 'NONE', *, *, #362, .F. ) ;
#339 = ADVANCED_FACE ( 'NONE', ( #49 ), #448, .T. ) ;
#340 = FACE_OUTER_BOUND ( 'NONE', #30, .T. ) ;
#341 = DIRECTION ( 'NONE',  ( -0.000000000000000000, 2.276539994720219349E-16, -1.000000000000000000 ) ) ;
#342 = CIRCLE ( 'NONE', #189, 0.5050000000000000044 ) ;
#343 = EDGE_LOOP ( 'NONE', ( #163, #214, #465, #285 ) ) ;
#344 = APPROVAL_PERSON_ORGANIZATION ( #417, #510, #499 ) ;
#345 = DIRECTION ( 'NONE',  ( 0.000000000000000000, 1.000000000000000000, 2.341583994569369459E-16 ) ) ;
#346 = VERTEX_POINT ( 'NONE', #207 ) ;
#347 = CARTESIAN_POINT ( 'NONE',  ( -1.036610479593231993E-16, -4.196183050110678490E-15, 0.3000000000000004885 ) ) ;
#348 = DIRECTION ( 'NONE',  ( 0.000000000000000000, 1.000000000000000000, 2.276539994720219349E-16 ) ) ;
#349 = ORIENTED_EDGE ( 'NONE', *, *, #162, .F. ) ;
#350 = FACE_OUTER_BOUND ( 'NONE', #208, .T. ) ;
#351 = FACE_OUTER_BOUND ( 'NONE', #25, .T. ) ;
#352 = AXIS2_PLACEMENT_3D ( 'NONE', #271, #332, #421 ) ;
#353 = CIRCLE ( 'NONE', #325, 0.06250000000000001388 ) ;
#354 = MECHANICAL_CONTEXT ( 'NONE', #414, 'mechanical' ) ;
#355 = APPROVAL_PERSON_ORGANIZATION ( #502, #184, #359 ) ;
#356 = CARTESIAN_POINT ( 'NONE',  ( 0.000000000000000000, -1.991972495380192855E-17, 0.08750000000000003608 ) ) ;
#357 = EDGE_LOOP ( 'NONE', ( #593, #527, #583, #13 ) ) ;
#358 = ADVANCED_FACE ( 'NONE', ( #21, #459, #213, #350 ), #28, .T. ) ;
#359 = APPROVAL_ROLE ( '' ) ;
#360 = DIRECTION ( 'NONE',  ( 0.000000000000000000, 1.000000000000000000, 2.276539994720219349E-16 ) ) ;
#361 = ORIENTED_EDGE ( 'NONE', *, *, #14, .T. ) ;
#362 = EDGE_CURVE ( 'NONE', #599, #267, #76, .T. ) ;
#363 = CARTESIAN_POINT ( 'NONE',  ( -9.642888182262625513E-17, -0.05905511811024021646, -1.344413382708881815E-17 ) ) ;
#364 = ORIENTED_EDGE ( 'NONE', *, *, #109, .F. ) ;
#365 = CALENDAR_DATE ( 2026, 20, 3 ) ;
#366 = AXIS2_PLACEMENT_3D ( 'NONE', #571, #142, #562 ) ;
#367 = TOROIDAL_SURFACE ( 'NONE', #542, 0.4999999999999998335, 0.06250000000000001388 ) ;
#368 = EDGE_CURVE ( 'NONE', #262, #522, #3, .T. ) ;
#369 = ORIENTED_EDGE ( 'NONE', *, *, #187, .F. ) ;
#370 = APPROVAL_STATUS ( 'not_yet_approved' ) ;
#371 = EDGE_CURVE ( 'NONE', #133, #100, #433, .T. ) ;
#372 = CARTESIAN_POINT ( 'NONE',  ( 0.000000000000000000, 2.617230345518171760E-32, -1.149652697333710648E-16 ) ) ;
#373 = PRODUCT ( 'O Ring Holder for motor', 'O Ring Holder for motor', '', ( #354 ) ) ;
#374 = CARTESIAN_POINT ( 'NONE',  ( 6.123233995736764803E-17, -0.4999999999999999445, 0.2124999999999999112 ) ) ;
#375 = ORIENTED_EDGE ( 'NONE', *, *, #429, .T. ) ;
#376 = CIRCLE ( 'NONE', #333, 0.04921259842519642297 ) ;
#377 = CC_DESIGN_APPROVAL ( #510, ( #31 ) ) ;
#378 = CARTESIAN_POINT ( 'NONE',  ( 0.000000000000000000, 0.5050000000000000044, 0.2125000000000000777 ) ) ;
#379 = EDGE_CURVE ( 'NONE', #19, #117, #32, .T. ) ;
#380 = DIRECTION ( 'NONE',  ( -0.000000000000000000, 2.276539994720219349E-16, -1.000000000000000000 ) ) ;
#381 = CARTESIAN_POINT ( 'NONE',  ( 0.000000000000000000, -6.829619984160664209E-17, 0.3000000000000002665 ) ) ;
#382 = CIRCLE ( 'NONE', #198, 0.5050000000000001155 ) ;
#383 = DIRECTION ( 'NONE',  ( 0.000000000000000000, 1.000000000000000000, 2.341583994569369459E-16 ) ) ;
#384 = AXIS2_PLACEMENT_3D ( 'NONE', #584, #482, #489 ) ;
#385 = LINE ( 'NONE', #111, #269 ) ;
#386 = DIRECTION ( 'NONE',  ( 0.000000000000000000, 1.000000000000000000, 2.276539994720219349E-16 ) ) ;
#387 = ADVANCED_FACE ( 'NONE', ( #309 ), #72, .T. ) ;
#388 = VERTEX_POINT ( 'NONE', #75 ) ;
#389 = DIRECTION ( 'NONE',  ( -0.000000000000000000, 2.276539994720219349E-16, -1.000000000000000000 ) ) ;
#390 = CARTESIAN_POINT ( 'NONE',  ( 6.184466335694134793E-17, -0.5050000000000001155, 0.08749999999999992506 ) ) ;
#391 = EDGE_LOOP ( 'NONE', ( #349, #236 ) ) ;
#392 = CARTESIAN_POINT ( 'NONE',  ( 0.000000000000000000, -1.991972495380192855E-17, 0.08750000000000003608 ) ) ;
#393 = CARTESIAN_POINT ( 'NONE',  ( -1.036610479593231993E-16, -4.196183050110678490E-15, 0.3000000000000004885 ) ) ;
#394 = EDGE_LOOP ( 'NONE', ( #256, #612, #504, #82 ) ) ;
#395 = DIRECTION ( 'NONE',  ( -0.000000000000000000, 2.276539994720219349E-16, -1.000000000000000000 ) ) ;
#396 = EDGE_CURVE ( 'NONE', #50, #310, #290, .T. ) ;
#397 = CYLINDRICAL_SURFACE ( 'NONE', #230, 0.04921259842519642297 ) ;
#398 = ORIENTED_EDGE ( 'NONE', *, *, #48, .F. ) ;
#399 = DIRECTION ( 'NONE',  ( -0.000000000000000000, 2.276539994720219349E-16, -1.000000000000000000 ) ) ;
#400 = ORIENTED_EDGE ( 'NONE', *, *, #146, .T. ) ;
#401 = PERSON_AND_ORGANIZATION_ROLE ( 'design_supplier' ) ;
#402 = DIRECTION ( 'NONE',  ( -0.000000000000000000, 2.276539994720219349E-16, -1.000000000000000000 ) ) ;
#403 = ORIENTED_EDGE ( 'NONE', *, *, #379, .F. ) ;
#404 = CIRCLE ( 'NONE', #115, 0.5050000000000001155 ) ;
#405 = AXIS2_PLACEMENT_3D ( 'NONE', #258, #261, #462 ) ;
#406 = LOCAL_TIME ( 16, 31, 2.000000000000000000, #453 ) ;
#407 = CALENDAR_DATE ( 2026, 20, 3 ) ;
#408 = DIRECTION ( 'NONE',  ( 0.000000000000000000, 1.000000000000000000, 2.276539994720219349E-16 ) ) ;
#409 = ORIENTED_EDGE ( 'NONE', *, *, #429, .F. ) ;
#410 = CC_DESIGN_PERSON_AND_ORGANIZATION_ASSIGNMENT ( #415, #268, ( #545 ) ) ;
#411 = DIRECTION ( 'NONE',  ( 0.000000000000000000, 1.000000000000000000, 2.276539994720219349E-16 ) ) ;
#412 = UNCERTAINTY_MEASURE_WITH_UNIT (LENGTH_MEASURE( 1.000000000000000082E-05 ), #305, 'distance_accuracy_value', 'NONE');
#413 = EDGE_LOOP ( 'NONE', ( #601, #91 ) ) ;
#414 = APPLICATION_CONTEXT ( 'configuration controlled 3d designs of mechanical parts and assemblies' ) ;
#415 = PERSON_AND_ORGANIZATION ( #431, #594 ) ;
#416 = ORIENTED_EDGE ( 'NONE', *, *, #48, .T. ) ;
#417 = PERSON_AND_ORGANIZATION ( #431, #594 ) ;
#418 = AXIS2_PLACEMENT_3D ( 'NONE', #392, #11, #241 ) ;
#419 = ADVANCED_FACE ( 'NONE', ( #454 ), #445, .F. ) ;
#420 = DIRECTION ( 'NONE',  ( 0.000000000000000000, 1.000000000000000000, 2.276539994720219349E-16 ) ) ;
#421 = DIRECTION ( 'NONE',  ( 0.000000000000000000, 1.000000000000000000, 0.000000000000000000 ) ) ;
#422 = CARTESIAN_POINT ( 'NONE',  ( -1.036610479593231993E-16, 0.05905511811023188978, 0.3000000000000004885 ) ) ;
#423 = EDGE_CURVE ( 'NONE', #267, #599, #280, .T. ) ;
#424 = AXIS2_PLACEMENT_3D ( 'NONE', #34, #505, #408 ) ;
#425 = CC_DESIGN_SECURITY_CLASSIFICATION ( #31, ( #567 ) ) ;
#426 = DIRECTION ( 'NONE',  ( -0.000000000000000000, 2.276539994720219349E-16, -1.000000000000000000 ) ) ;
#427 = EDGE_CURVE ( 'NONE', #452, #100, #52, .T. ) ;
#428 = DIRECTION ( 'NONE',  ( -0.000000000000000000, 2.276539994720219349E-16, -1.000000000000000000 ) ) ;
#429 = EDGE_CURVE ( 'NONE', #156, #437, #24, .T. ) ;
#430 = DIRECTION ( 'NONE',  ( 0.000000000000000000, 1.000000000000000000, 2.276539994720219349E-16 ) ) ;
#431 = PERSON ( 'UNSPECIFIED', 'UNSPECIFIED', 'UNSPECIFIED', ('UNSPECIFIED'), ('UNSPECIFIED'), ('UNSPECIFIED') ) ;
#432 = APPROVAL ( #370, 'UNSPECIFIED' ) ;
#433 = CIRCLE ( 'NONE', #29, 0.4999999999999999445 ) ;
#434 = ORIENTED_EDGE ( 'NONE', *, *, #554, .T. ) ;
#435 = FACE_OUTER_BOUND ( 'NONE', #22, .T. ) ;
#436 = DIRECTION ( 'NONE',  ( 0.000000000000000000, 1.000000000000000000, 0.000000000000000000 ) ) ;
#437 = VERTEX_POINT ( 'NONE', #363 ) ;
#438 = CARTESIAN_POINT ( 'NONE',  ( 0.000000000000000000, 0.4999999999999998335, 0.08750000000000011935 ) ) ;
#439 = DIRECTION ( 'NONE',  ( -0.000000000000000000, 2.276539994720219349E-16, -1.000000000000000000 ) ) ;
#440 = ORIENTED_EDGE ( 'NONE', *, *, #243, .F. ) ;
#441 = DIRECTION ( 'NONE',  ( 0.000000000000000000, 2.276539994720219349E-16, -1.000000000000000000 ) ) ;
#442 = CARTESIAN_POINT ( 'NONE',  ( 0.000000000000000000, 0.000000000000000000, 0.1499999999999999944 ) ) ;
#443 = AXIS2_PLACEMENT_3D ( 'NONE', #323, #329, #226 ) ;
#444 = ORIENTED_EDGE ( 'NONE', *, *, #371, .F. ) ;
#445 = TOROIDAL_SURFACE ( 'NONE', #424, 0.4999999999999998335, 0.06250000000000001388 ) ;
#446 = AXIS2_PLACEMENT_3D ( 'NONE', #26, #209, #74 ) ;
#447 = DIRECTION ( 'NONE',  ( 0.000000000000000000, 1.000000000000000000, 2.276539994720218856E-16 ) ) ;
#448 = CYLINDRICAL_SURFACE ( 'NONE', #475, 0.5050000000000001155 ) ;
#449 = ORIENTED_EDGE ( 'NONE', *, *, #40, .F. ) ;
#450 = DIRECTION ( 'NONE',  ( -0.000000000000000000, 2.276539994720219349E-16, -1.000000000000000000 ) ) ;
#451 = DIRECTION ( 'NONE',  ( -1.224646799147352961E-16, 1.000000000000000000, 0.000000000000000000 ) ) ;
#452 = VERTEX_POINT ( 'NONE', #555 ) ;
#453 = COORDINATED_UNIVERSAL_TIME_OFFSET ( 8, 0, .BEHIND. ) ;
#454 = FACE_OUTER_BOUND ( 'NONE', #507, .T. ) ;
#455 = EDGE_CURVE ( 'NONE', #244, #19, #603, .T. ) ;
#456 = CARTESIAN_POINT ( 'NONE',  ( -0.2362204724409450729, -0.04921259842520056549, 0.3000000000000004885 ) ) ;
#457 = AXIS2_PLACEMENT_3D ( 'NONE', #215, #551, #451 ) ;
#458 = COORDINATED_UNIVERSAL_TIME_OFFSET ( 8, 0, .BEHIND. ) ;
#459 = FACE_BOUND ( 'NONE', #391, .T. ) ;
#460 = ORIENTED_EDGE ( 'NONE', *, *, #227, .F. ) ;
#461 = DATE_AND_TIME ( #177, #326 ) ;
#462 = DIRECTION ( 'NONE',  ( 0.000000000000000000, 1.000000000000000000, 0.000000000000000000 ) ) ;
#463 = EDGE_LOOP ( 'NONE', ( #409, #488, #307, #556 ) ) ;
#464 = APPROVAL_DATE_TIME ( #120, #184 ) ;
#465 = ORIENTED_EDGE ( 'NONE', *, *, #570, .T. ) ;
#466 = CIRCLE ( 'NONE', #352, 0.05905511811023608781 ) ;
#467 = PERSON_AND_ORGANIZATION ( #431, #594 ) ;
#468 = AXIS2_PLACEMENT_3D ( 'NONE', #232, #428, #186 ) ;
#469 = AXIS2_PLACEMENT_3D ( 'NONE', #61, #441, #150 ) ;
#470 = LOCAL_TIME ( 16, 31, 2.000000000000000000, #558 ) ;
#471 = CARTESIAN_POINT ( 'NONE',  ( 6.123233995736764803E-17, -0.4999999999999998335, 0.1499999999999998557 ) ) ;
#472 = CC_DESIGN_PERSON_AND_ORGANIZATION_ASSIGNMENT ( #467, #401, ( #567 ) ) ;
#473 = CARTESIAN_POINT ( 'NONE',  ( -0.2362204724409450729, 0.04921259842519228739, 0.3000000000000004885 ) ) ;
#474 = AXIS2_PLACEMENT_3D ( 'NONE', #372, #515, #282 ) ;
#475 = AXIS2_PLACEMENT_3D ( 'NONE', #172, #166, #161 ) ;
#476 = DIRECTION ( 'NONE',  ( 0.000000000000000000, 1.000000000000000000, 2.276539994720219842E-16 ) ) ;
#477 = EDGE_CURVE ( 'NONE', #346, #262, #316, .T. ) ;
#478 = DIRECTION ( 'NONE',  ( 0.000000000000000000, 1.000000000000000000, 2.028599995295244476E-16 ) ) ;
#479 = ADVANCED_FACE ( 'NONE', ( #435 ), #578, .F. ) ;
#480 = DIRECTION ( 'NONE',  ( -0.000000000000000000, 2.276539994720219349E-16, -1.000000000000000000 ) ) ;
#481 = EDGE_LOOP ( 'NONE', ( #434, #609 ) ) ;
#482 = DIRECTION ( 'NONE',  ( 0.000000000000000000, 2.276539994720219349E-16, -1.000000000000000000 ) ) ;
#483 = VECTOR ( 'NONE', #179, 39.37007874015748143 ) ;
#484 = DIRECTION ( 'NONE',  ( 0.000000000000000000, 2.276539994720219349E-16, -1.000000000000000000 ) ) ;
#485 = EDGE_LOOP ( 'NONE', ( #590, #501 ) ) ;
#486 = LINE ( 'NONE', #587, #153 ) ;
#487 = FACE_OUTER_BOUND ( 'NONE', #343, .T. ) ;
#488 = ORIENTED_EDGE ( 'NONE', *, *, #539, .F. ) ;
#489 = DIRECTION ( 'NONE',  ( 0.000000000000000000, 1.000000000000000000, 0.000000000000000000 ) ) ;
#490 = CARTESIAN_POINT ( 'NONE',  ( -0.2362204724409450729, -4.142406514802326477E-15, 0.3000000000000004885 ) ) ;
#491 = VERTEX_POINT ( 'NONE', #438 ) ;
#492 = DIRECTION ( 'NONE',  ( 0.000000000000000000, 1.000000000000000000, 2.390366994456230563E-16 ) ) ;
#493 = CYLINDRICAL_SURFACE ( 'NONE', #128, 0.04921259842519642297 ) ;
#494 = EDGE_LOOP ( 'NONE', ( #498, #219, #416, #369 ) ) ;
#495 = AXIS2_PLACEMENT_3D ( 'NONE', #254, #537, #296 ) ;
#496 = CARTESIAN_POINT ( 'NONE',  ( 0.2362204724409448509, 0.04921259842519224575, 1.120344485590554348E-17 ) ) ;
#497 = CARTESIAN_POINT ( 'NONE',  ( 0.000000000000000000, -6.829619984160664209E-17, 0.3000000000000002665 ) ) ;
#498 = ORIENTED_EDGE ( 'NONE', *, *, #330, .F. ) ;
#499 = APPROVAL_ROLE ( '' ) ;
#500 = CARTESIAN_POINT ( 'NONE',  ( 0.000000000000000000, -4.837647488780466116E-17, 0.2125000000000000222 ) ) ;
#501 = ORIENTED_EDGE ( 'NONE', *, *, #368, .F. ) ;
#502 = PERSON_AND_ORGANIZATION ( #431, #594 ) ;
#503 = DIRECTION ( 'NONE',  ( 0.000000000000000000, 2.276539994720219349E-16, -1.000000000000000000 ) ) ;
#504 = ORIENTED_EDGE ( 'NONE', *, *, #371, .T. ) ;
#505 = DIRECTION ( 'NONE',  ( -0.000000000000000000, 2.276539994720219349E-16, -1.000000000000000000 ) ) ;
#506 = EDGE_CURVE ( 'NONE', #346, #113, #376, .T. ) ;
#507 = EDGE_LOOP ( 'NONE', ( #540, #194, #364, #107 ) ) ;
#508 = PERSON_AND_ORGANIZATION_ROLE ( 'classification_officer' ) ;
#509 = CARTESIAN_POINT ( 'NONE',  ( 6.184466335694134793E-17, -0.5050000000000001155, 0.3000000000000001554 ) ) ;
#510 = APPROVAL ( #266, 'UNSPECIFIED' ) ;
#511 = PERSON_AND_ORGANIZATION_ROLE ( 'design_owner' ) ;
#512 = DIRECTION ( 'NONE',  ( 0.000000000000000000, 1.000000000000000000, 2.028599995295244476E-16 ) ) ;
#513 = DIRECTION ( 'NONE',  ( -1.224646799147352961E-16, 1.000000000000000000, 0.000000000000000000 ) ) ;
#514 = CC_DESIGN_PERSON_AND_ORGANIZATION_ASSIGNMENT ( #71, #511, ( #373 ) ) ;
#515 = DIRECTION ( 'NONE',  ( -0.000000000000000000, 2.276539994720219349E-16, -1.000000000000000000 ) ) ;
#516 = CARTESIAN_POINT ( 'NONE',  ( 0.2362204724409448509, 0.04921259842519217637, 0.3000000000000004885 ) ) ;
#517 = EDGE_CURVE ( 'NONE', #244, #388, #486, .T. ) ;
#518 = AXIS2_PLACEMENT_3D ( 'NONE', #596, #170, #306 ) ;
#519 = AXIS2_PLACEMENT_3D ( 'NONE', #299, #389, #492 ) ;
#520 = FACE_BOUND ( 'NONE', #524, .T. ) ;
#521 = EDGE_CURVE ( 'NONE', #491, #197, #65, .T. ) ;
#522 = VERTEX_POINT ( 'NONE', #496 ) ;
#523 = DIRECTION ( 'NONE',  ( -0.000000000000000000, 2.276539994720219349E-16, -1.000000000000000000 ) ) ;
#524 = EDGE_LOOP ( 'NONE', ( #444, #440 ) ) ;
#525 = DIRECTION ( 'NONE',  ( 0.000000000000000000, 1.000000000000000000, 2.276539994720219349E-16 ) ) ;
#526 = CARTESIAN_POINT ( 'NONE',  ( -0.2362204724409450729, 0.04921259842519235678, 1.120344485590556813E-17 ) ) ;
#527 = ORIENTED_EDGE ( 'NONE', *, *, #396, .F. ) ;
#528 = FACE_OUTER_BOUND ( 'NONE', #289, .T. ) ;
#529 = EDGE_CURVE ( 'NONE', #281, #133, #144, .T. ) ;
#530 = CIRCLE ( 'NONE', #602, 0.04921259842519642297 ) ;
#531 = AXIS2_PLACEMENT_3D ( 'NONE', #490, #287, #102 ) ;
#532 = CYLINDRICAL_SURFACE ( 'NONE', #315, 0.05905511811023608781 ) ;
#533 = ORIENTED_EDGE ( 'NONE', *, *, #455, .F. ) ;
#534 = FACE_BOUND ( 'NONE', #149, .T. ) ;
#535 = CARTESIAN_POINT ( 'NONE',  ( -0.2362204724409450729, -0.04921259842520056549, 0.3000000000000004885 ) ) ;
#536 = ORIENTED_EDGE ( 'NONE', *, *, #517, .T. ) ;
#537 = DIRECTION ( 'NONE',  ( -1.000000000000000000, 0.000000000000000000, 0.000000000000000000 ) ) ;
#538 = CYLINDRICAL_SURFACE ( 'NONE', #566, 0.5049999999999998934 ) ;
#539 = EDGE_CURVE ( 'NONE', #57, #156, #39, .T. ) ;
#540 = ORIENTED_EDGE ( 'NONE', *, *, #225, .T. ) ;
#541 = DIRECTION ( 'NONE',  ( -0.000000000000000000, 2.276539994720219349E-16, -1.000000000000000000 ) ) ;
#542 = AXIS2_PLACEMENT_3D ( 'NONE', #148, #523, #99 ) ;
#543 = ORIENTED_EDGE ( 'NONE', *, *, #187, .T. ) ;
#544 = AXIS2_PLACEMENT_3D ( 'NONE', #53, #157, #201 ) ;
#545 = PRODUCT_DEFINITION ( 'UNKNOWN', '', #567, #81 ) ;
#546 = SECURITY_CLASSIFICATION_LEVEL ( 'unclassified' ) ;
#547 = DIRECTION ( 'NONE',  ( -0.000000000000000000, 2.276539994720219349E-16, -1.000000000000000000 ) ) ;
#548 = ORIENTED_EDGE ( 'NONE', *, *, #517, .F. ) ;
#549 = SHAPE_DEFINITION_REPRESENTATION ( #277, #121 ) ;
#550 = ADVANCED_FACE ( 'NONE', ( #340 ), #147, .T. ) ;
#551 = DIRECTION ( 'NONE',  ( 1.000000000000000000, 1.224646799147353207E-16, 2.787957417665048811E-32 ) ) ;
#552 = APPLICATION_CONTEXT ( 'configuration controlled 3d designs of mechanical parts and assemblies' ) ;
#553 = EDGE_LOOP ( 'NONE', ( #577, #192, #449, #398 ) ) ;
#554 = EDGE_CURVE ( 'NONE', #113, #346, #270, .T. ) ;
#555 = CARTESIAN_POINT ( 'NONE',  ( 5.357829746269668895E-17, -0.4374999999999998335, 0.1499999999999999944 ) ) ;
#556 = ORIENTED_EDGE ( 'NONE', *, *, #589, .T. ) ;
#557 = AXIS2_PLACEMENT_3D ( 'NONE', #116, #402, #360 ) ;
#558 = COORDINATED_UNIVERSAL_TIME_OFFSET ( 8, 0, .BEHIND. ) ;
#559 = CARTESIAN_POINT ( 'NONE',  ( -1.036610479593231993E-16, -4.127886850269071663E-15, -9.397299508317215802E-31 ) ) ;
#560 = APPROVAL_DATE_TIME ( #604, #510 ) ;
#561 = CARTESIAN_POINT ( 'NONE',  ( 0.000000000000000000, -4.837647488780464883E-17, 0.2124999999999999667 ) ) ;
#562 = DIRECTION ( 'NONE',  ( 0.000000000000000000, 1.000000000000000000, 2.276539994720219842E-16 ) ) ;
#563 = ORIENTED_EDGE ( 'NONE', *, *, #589, .F. ) ;
#564 = CIRCLE ( 'NONE', #288, 0.04921259842519642297 ) ;
#565 = ADVANCED_FACE ( 'NONE', ( #154, #534, #23, #528 ), #15, .T. ) ;
#566 = AXIS2_PLACEMENT_3D ( 'NONE', #193, #294, #579 ) ;
#567 = PRODUCT_DEFINITION_FORMATION_WITH_SPECIFIED_SOURCE ( 'ANY', '', #373, .NOT_KNOWN. ) ;
#568 = CARTESIAN_POINT ( 'NONE',  ( 0.000000000000000000, 0.5049999999999998934, 0.000000000000000000 ) ) ;
#569 = CARTESIAN_POINT ( 'NONE',  ( -0.2362204724409450729, -0.04921259842520049610, -1.120344485590741857E-17 ) ) ;
#570 = EDGE_CURVE ( 'NONE', #113, #522, #385, .T. ) ;
#571 = CARTESIAN_POINT ( 'NONE',  ( -0.2362204724409450729, -4.074110314960720439E-15, -9.274875074910268480E-31 ) ) ;
#572 = AXIS2_PLACEMENT_3D ( 'NONE', #92, #276, #134 ) ;
#573 = AXIS2_PLACEMENT_3D ( 'NONE', #442, #235, #348 ) ;
#574 = CARTESIAN_POINT ( 'NONE',  ( -0.2362204724409450729, -4.074110314960720439E-15, -9.274875074910268480E-31 ) ) ;
#575 = DIRECTION ( 'NONE',  ( -0.000000000000000000, 2.276539994720219349E-16, -1.000000000000000000 ) ) ;
#576 = FACE_OUTER_BOUND ( 'NONE', #357, .T. ) ;
#577 = ORIENTED_EDGE ( 'NONE', *, *, #362, .T. ) ;
#578 = CYLINDRICAL_SURFACE ( 'NONE', #610, 0.05905511811023608781 ) ;
#579 = DIRECTION ( 'NONE',  ( 0.000000000000000000, 1.000000000000000000, 2.276539994720219349E-16 ) ) ;
#580 = ORIENTED_EDGE ( 'NONE', *, *, #55, .T. ) ;
#581 = CC_DESIGN_PERSON_AND_ORGANIZATION_ASSIGNMENT ( #86, #131, ( #567 ) ) ;
#582 = DIRECTION ( 'NONE',  ( -0.000000000000000000, 2.276539994720219349E-16, -1.000000000000000000 ) ) ;
#583 = ORIENTED_EDGE ( 'NONE', *, *, #606, .T. ) ;
#584 = CARTESIAN_POINT ( 'NONE',  ( -1.036610479593231993E-16, -4.196183050110678490E-15, 0.3000000000000004885 ) ) ;
#585 = DIRECTION ( 'NONE',  ( 0.000000000000000000, 1.000000000000000000, 2.276539994720219842E-16 ) ) ;
#586 = ORIENTED_EDGE ( 'NONE', *, *, #225, .F. ) ;
#587 = CARTESIAN_POINT ( 'NONE',  ( 0.000000000000000000, 0.5050000000000001155, 1.149652697333710894E-16 ) ) ;
#588 = CARTESIAN_POINT ( 'NONE',  ( 0.000000000000000000, 1.295658586890184094E-32, -5.691349986800548372E-17 ) ) ;
#589 = EDGE_CURVE ( 'NONE', #313, #437, #97, .T. ) ;
#590 = ORIENTED_EDGE ( 'NONE', *, *, #127, .F. ) ;
#591 = CIRCLE ( 'NONE', #27, 0.04921259842519642297 ) ;
#592 = DIRECTION ( 'NONE',  ( 0.000000000000000000, 1.000000000000000000, 2.048885995248197660E-16 ) ) ;
#593 = ORIENTED_EDGE ( 'NONE', *, *, #9, .F. ) ;
#594 = ORGANIZATION ( 'UNSPECIFIED', 'UNSPECIFIED', '' ) ;
#595 = DATE_TIME_ROLE ( 'creation_date' ) ;
#596 = CARTESIAN_POINT ( 'NONE',  ( 0.000000000000000000, -1.991972495380192855E-17, 0.08750000000000003608 ) ) ;
#597 = ORIENTED_EDGE ( 'NONE', *, *, #199, .T. ) ;
#598 = DIRECTION ( 'NONE',  ( -0.000000000000000000, 2.276539994720219349E-16, -1.000000000000000000 ) ) ;
#599 = VERTEX_POINT ( 'NONE', #7 ) ;
#600 = APPROVAL_STATUS ( 'not_yet_approved' ) ;
#601 = ORIENTED_EDGE ( 'NONE', *, *, #521, .T. ) ;
#602 = AXIS2_PLACEMENT_3D ( 'NONE', #181, #279, #476 ) ;
#603 = CIRCLE ( 'NONE', #260, 0.5050000000000000044 ) ;
#604 = DATE_AND_TIME ( #322, #406 ) ;
#605 = FACE_BOUND ( 'NONE', #413, .T. ) ;
#606 = EDGE_CURVE ( 'NONE', #50, #223, #195, .T. ) ;
#607 = CYLINDRICAL_SURFACE ( 'NONE', #572, 0.04921259842519642297 ) ;
#608 = LINE ( 'NONE', #140, #303 ) ;
#609 = ORIENTED_EDGE ( 'NONE', *, *, #506, .T. ) ;
#610 = AXIS2_PLACEMENT_3D ( 'NONE', #347, #399, #251 ) ;
#611 = CARTESIAN_POINT ( 'NONE',  ( 6.184466335694134793E-17, -0.5050000000000001155, 0.2124999999999998557 ) ) ;
#612 = ORIENTED_EDGE ( 'NONE', *, *, #529, .T. ) ;
#613 = EDGE_CURVE ( 'NONE', #197, #491, #272, .T. ) ;
#614 = LINE ( 'NONE', #331, #483 ) ;
ENDSEC;
END-ISO-10303-21;
