ISO-10303-21;
HEADER;
FILE_DESCRIPTION (( 'STEP AP203' ),
    '1' );
FILE_NAME ('O Ring Holder for motor_Vf.STEP',
    '2026-03-21T02:10:31',
    ( '' ),
    ( '' ),
    'SwSTEP 2.0',
    'SolidWorks 2025',
    '' );
FILE_SCHEMA (( 'CONFIG_CONTROL_DESIGN' ));
ENDSEC;

DATA;
#1 = APPROVAL_ROLE ( '' ) ;
#2 = CARTESIAN_POINT ( 'NONE',  ( -0.7185039370078742937, 0.000000000000000000, 0.7673917322834575838 ) ) ;
#3 = ORIENTED_EDGE ( 'NONE', *, *, #695, .T. ) ;
#4 = CARTESIAN_POINT ( 'NONE',  ( 0.000000000000000000, 0.000000000000000000, 0.1787401574803149096 ) ) ;
#5 = DIRECTION ( 'NONE',  ( -1.224646799147353207E-16, 1.000000000000000000, 0.000000000000000000 ) ) ;
#6 = VERTEX_POINT ( 'NONE', #916 ) ;
#7 = FACE_OUTER_BOUND ( 'NONE', #55, .T. ) ;
#8 = CIRCLE ( 'NONE', #155, 0.03937007874015747977 ) ;
#9 = LOCAL_TIME ( 19, 10, 31.00000000000000000, #668 ) ;
#10 = PERSON_AND_ORGANIZATION ( #590, #473 ) ;
#11 = DIRECTION ( 'NONE',  ( 0.000000000000000000, 0.000000000000000000, -1.000000000000000000 ) ) ;
#12 = AXIS2_PLACEMENT_3D ( 'NONE', #707, #869, #201 ) ;
#13 = VERTEX_POINT ( 'NONE', #92 ) ;
#14 = DIRECTION ( 'NONE',  ( -0.000000000000000000, -0.000000000000000000, -1.000000000000000000 ) ) ;
#15 = EDGE_CURVE ( 'NONE', #18, #899, #801, .T. ) ;
#16 = CARTESIAN_POINT ( 'NONE',  ( -0.5610236220472442081, 0.000000000000000000, -0.2025850384618715083 ) ) ;
#17 = CARTESIAN_POINT ( 'NONE',  ( 0.6185039370078742049, 8.186812066740969747E-17, 0.000000000000000000 ) ) ;
#18 = VERTEX_POINT ( 'NONE', #479 ) ;
#19 = DIRECTION ( 'NONE',  ( 1.000000000000000000, 0.000000000000000000, 0.000000000000000000 ) ) ;
#20 = ORIENTED_EDGE ( 'NONE', *, *, #174, .F. ) ;
#21 = VERTEX_POINT ( 'NONE', #839 ) ;
#22 = DIRECTION ( 'NONE',  ( 1.000000000000000000, 0.000000000000000000, 0.000000000000000000 ) ) ;
#23 = CIRCLE ( 'NONE', #202, 0.03937007874015746589 ) ;
#24 = AXIS2_PLACEMENT_3D ( 'NONE', #45, #850, #791 ) ;
#25 = ORIENTED_EDGE ( 'NONE', *, *, #486, .T. ) ;
#26 = CIRCLE ( 'NONE', #972, 0.03937007874015746589 ) ;
#27 = DIRECTION ( 'NONE',  ( 0.000000000000000000, 0.000000000000000000, -1.000000000000000000 ) ) ;
#28 = VERTEX_POINT ( 'NONE', #533 ) ;
#29 = CARTESIAN_POINT ( 'NONE',  ( 0.000000000000000000, 0.000000000000000000, 0.07874015748031489015 ) ) ;
#30 = CARTESIAN_POINT ( 'NONE',  ( 0.000000000000000000, 0.000000000000000000, 0.7673917322834578059 ) ) ;
#31 = DIRECTION ( 'NONE',  ( -1.000000000000000000, 0.000000000000000000, 0.000000000000000000 ) ) ;
#32 = EDGE_LOOP ( 'NONE', ( #760, #810, #421, #968 ) ) ;
#33 = DIRECTION ( 'NONE',  ( -1.000000000000000000, 1.224646799147352468E-16, 0.000000000000000000 ) ) ;
#34 = EDGE_CURVE ( 'NONE', #464, #269, #474, .T. ) ;
#35 = CARTESIAN_POINT ( 'NONE',  ( -0.1181102362207383516, -0.2045729300276681595, 0.9248720472440874474 ) ) ;
#36 = CARTESIAN_POINT ( 'NONE',  ( 0.000000000000000000, 0.000000000000000000, 0.9248720472440874474 ) ) ;
#37 = ORIENTED_EDGE ( 'NONE', *, *, #102, .F. ) ;
#38 = LINE ( 'NONE', #336, #881 ) ;
#39 = DATE_AND_TIME ( #715, #307 ) ;
#40 = FACE_BOUND ( 'NONE', #848, .T. ) ;
#41 = CIRCLE ( 'NONE', #907, 0.02500000000000000486 ) ;
#42 = SECURITY_CLASSIFICATION ( '', '', #365 ) ;
#43 = VERTEX_POINT ( 'NONE', #708 ) ;
#44 = CIRCLE ( 'NONE', #595, 0.07874015748031495954 ) ;
#45 = CARTESIAN_POINT ( 'NONE',  ( 0.5860236220472442303, 7.176719529648959242E-17, 0.8998720472440875362 ) ) ;
#46 = ADVANCED_FACE ( 'NONE', ( #696 ), #704, .T. ) ;
#47 = PERSON_AND_ORGANIZATION ( #590, #473 ) ;
#48 = DIRECTION ( 'NONE',  ( 1.000000000000000000, 0.000000000000000000, 0.000000000000000000 ) ) ;
#49 = ORIENTED_EDGE ( 'NONE', *, *, #878, .F. ) ;
#50 = ADVANCED_FACE ( 'NONE', ( #455 ), #121, .F. ) ;
#51 = DIRECTION ( 'NONE',  ( 0.000000000000000000, -1.000000000000000000, 0.000000000000000000 ) ) ;
#52 = ORIENTED_EDGE ( 'NONE', *, *, #949, .F. ) ;
#53 = DIRECTION ( 'NONE',  ( -0.000000000000000000, 0.000000000000000000, 1.000000000000000000 ) ) ;
#54 = AXIS2_PLACEMENT_3D ( 'NONE', #903, #918, #299 ) ;
#55 = EDGE_LOOP ( 'NONE', ( #865, #65, #310, #437 ) ) ;
#56 = CC_DESIGN_APPROVAL ( #659, ( #211 ) ) ;
#57 = TOROIDAL_SURFACE ( 'NONE', #734, 0.6185039370078742049, 0.1000000000000000056 ) ;
#58 = CIRCLE ( 'NONE', #736, 0.6185039370078742049 ) ;
#59 = DIRECTION ( 'NONE',  ( 0.000000000000000000, 0.000000000000000000, -1.000000000000000000 ) ) ;
#60 = ORIENTED_EDGE ( 'NONE', *, *, #277, .T. ) ;
#61 = APPROVAL_STATUS ( 'not_yet_approved' ) ;
#62 = CARTESIAN_POINT ( 'NONE',  ( 0.000000000000000000, 0.000000000000000000, 0.9248720472440874474 ) ) ;
#63 = EDGE_CURVE ( 'NONE', #214, #790, #639, .T. ) ;
#64 = EDGE_CURVE ( 'NONE', #350, #954, #370, .T. ) ;
#65 = ORIENTED_EDGE ( 'NONE', *, *, #671, .T. ) ;
#66 = EDGE_CURVE ( 'NONE', #85, #13, #26, .T. ) ;
#67 = APPLICATION_CONTEXT ( 'configuration controlled 3d designs of mechanical parts and assemblies' ) ;
#68 = EDGE_CURVE ( 'NONE', #43, #957, #959, .T. ) ;
#69 = CARTESIAN_POINT ( 'NONE',  ( -0.1574803149608958452, -0.2045729300276681595, 0.07874015748031489015 ) ) ;
#70 = ORIENTED_EDGE ( 'NONE', *, *, #178, .F. ) ;
#71 = DIRECTION ( 'NONE',  ( 1.000000000000000000, 0.000000000000000000, 0.000000000000000000 ) ) ;
#72 = AXIS2_PLACEMENT_3D ( 'NONE', #690, #454, #923 ) ;
#73 = EDGE_CURVE ( 'NONE', #954, #464, #969, .T. ) ;
#74 = CIRCLE ( 'NONE', #894, 0.7185039370078742937 ) ;
#75 = AXIS2_PLACEMENT_3D ( 'NONE', #817, #519, #371 ) ;
#76 = CARTESIAN_POINT ( 'NONE',  ( 0.2362204724409432133, -3.057279385909518408E-13, 0.9248720472440874474 ) ) ;
#77 = ORIENTED_EDGE ( 'NONE', *, *, #727, .T. ) ;
#78 = DIRECTION ( 'NONE',  ( -0.000000000000000000, -0.000000000000000000, -1.000000000000000000 ) ) ;
#79 = PERSON_AND_ORGANIZATION ( #590, #473 ) ;
#80 = CARTESIAN_POINT ( 'NONE',  ( -0.1574803149603673513, 0.2045729300279721108, 0.9248720472440874474 ) ) ;
#81 = ORIENTED_EDGE ( 'NONE', *, *, #196, .F. ) ;
#82 = DIRECTION ( 'NONE',  ( -1.000000000000000000, 0.000000000000000000, 0.000000000000000000 ) ) ;
#83 = DATE_TIME_ROLE ( 'creation_date' ) ;
#84 = DIRECTION ( 'NONE',  ( -1.000000000000000000, -1.224646799147351975E-16, 0.000000000000000000 ) ) ;
#85 = VERTEX_POINT ( 'NONE', #820 ) ;
#86 = DIRECTION ( 'NONE',  ( -0.000000000000000000, -0.000000000000000000, -1.000000000000000000 ) ) ;
#87 = EDGE_CURVE ( 'NONE', #815, #153, #293, .T. ) ;
#88 = AXIS2_PLACEMENT_3D ( 'NONE', #253, #855, #33 ) ;
#89 = TOROIDAL_SURFACE ( 'NONE', #652, 0.4610236220472441748, 0.1000000000000000056 ) ;
#90 = DIRECTION ( 'NONE',  ( 0.000000000000000000, 0.000000000000000000, -1.000000000000000000 ) ) ;
#91 = AXIS2_PLACEMENT_3D ( 'NONE', #156, #478, #264 ) ;
#92 = CARTESIAN_POINT ( 'NONE',  ( -0.1574803149603673513, 0.2045729300279721108, 0.07874015748031489015 ) ) ;
#93 = PRODUCT_DEFINITION_SHAPE ( 'NONE', 'NONE',  #211 ) ;
#94 = CARTESIAN_POINT ( 'NONE',  ( 0.7145669291338585527, 8.750921025403333759E-17, 0.7673917322834576948 ) ) ;
#95 = ORIENTED_EDGE ( 'NONE', *, *, #240, .F. ) ;
#96 = EDGE_LOOP ( 'NONE', ( #429, #544 ) ) ;
#97 = CC_DESIGN_PERSON_AND_ORGANIZATION_ASSIGNMENT ( #236, #360, ( #42 ) ) ;
#98 = FACE_BOUND ( 'NONE', #325, .T. ) ;
#99 = EDGE_CURVE ( 'NONE', #123, #355, #912, .T. ) ;
#100 = FACE_OUTER_BOUND ( 'NONE', #548, .T. ) ;
#101 = ORIENTED_EDGE ( 'NONE', *, *, #481, .T. ) ;
#102 = EDGE_CURVE ( 'NONE', #269, #18, #338, .T. ) ;
#103 = CIRCLE ( 'NONE', #245, 0.5610236220472442081 ) ;
#104 = CARTESIAN_POINT ( 'NONE',  ( 0.07874015748031495954, 9.642888182262621507E-18, 0.000000000000000000 ) ) ;
#105 = CC_DESIGN_SECURITY_CLASSIFICATION ( #42, ( #215 ) ) ;
#106 = CIRCLE ( 'NONE', #719, 0.09374999999999998612 ) ;
#107 = CARTESIAN_POINT ( 'NONE',  ( 0.2755905511811007069, -3.057231171468607296E-13, 0.9248720472440874474 ) ) ;
#108 = DIRECTION ( 'NONE',  ( 0.000000000000000000, 0.000000000000000000, 1.000000000000000000 ) ) ;
#109 = CARTESIAN_POINT ( 'NONE',  ( 0.000000000000000000, 0.000000000000000000, 0.1000000000000000194 ) ) ;
#110 = AXIS2_PLACEMENT_3D ( 'NONE', #489, #953, #272 ) ;
#111 = DIRECTION ( 'NONE',  ( -0.000000000000000000, -0.000000000000000000, -1.000000000000000000 ) ) ;
#112 = EDGE_LOOP ( 'NONE', ( #117, #146, #191, #37 ) ) ;
#113 = EDGE_CURVE ( 'NONE', #269, #464, #385, .T. ) ;
#114 = CARTESIAN_POINT ( 'NONE',  ( 0.2755905511811007069, -3.057231171468607296E-13, 0.000000000000000000 ) ) ;
#115 = FACE_OUTER_BOUND ( 'NONE', #324, .T. ) ;
#116 = DIRECTION ( 'NONE',  ( 0.000000000000000000, 0.000000000000000000, 1.000000000000000000 ) ) ;
#117 = ORIENTED_EDGE ( 'NONE', *, *, #34, .F. ) ;
#118 = EDGE_CURVE ( 'NONE', #929, #819, #188, .T. ) ;
#119 = DIRECTION ( 'NONE',  ( -1.000000000000000000, 0.000000000000000000, 0.000000000000000000 ) ) ;
#120 = CARTESIAN_POINT ( 'NONE',  ( 0.000000000000000000, 0.000000000000000000, 0.5798917322834576948 ) ) ;
#121 = CYLINDRICAL_SURFACE ( 'NONE', #720, 0.07874015748031495954 ) ;
#122 = DIRECTION ( 'NONE',  ( 1.000000000000000000, 0.000000000000000000, 0.000000000000000000 ) ) ;
#123 = VERTEX_POINT ( 'NONE', #906 ) ;
#124 = ADVANCED_FACE ( 'NONE', ( #378 ), #248, .T. ) ;
#125 = DIRECTION ( 'NONE',  ( -0.000000000000000000, 0.000000000000000000, -1.000000000000000000 ) ) ;
#126 = DIRECTION ( 'NONE',  ( 0.000000000000000000, 0.000000000000000000, -1.000000000000000000 ) ) ;
#127 = FACE_OUTER_BOUND ( 'NONE', #330, .T. ) ;
#128 = CIRCLE ( 'NONE', #667, 0.6935039370078742715 ) ;
#129 = AXIS2_PLACEMENT_3D ( 'NONE', #535, #787, #181 ) ;
#130 = ORIENTED_EDGE ( 'NONE', *, *, #578, .F. ) ;
#131 = DIRECTION ( 'NONE',  ( 1.000000000000000000, 0.000000000000000000, 0.000000000000000000 ) ) ;
#132 = DIRECTION ( 'NONE',  ( -1.000000000000000000, 0.000000000000000000, 0.000000000000000000 ) ) ;
#133 = ORIENTED_EDGE ( 'NONE', *, *, #102, .T. ) ;
#134 = CARTESIAN_POINT ( 'NONE',  ( -0.1181102362207383516, -0.2045729300276681595, 0.9248720472440874474 ) ) ;
#135 = CARTESIAN_POINT ( 'NONE',  ( -0.1181102362202098993, 0.2045729300279721108, 0.9248720472440874474 ) ) ;
#136 = VERTEX_POINT ( 'NONE', #230 ) ;
#137 = PERSON_AND_ORGANIZATION ( #590, #473 ) ;
#138 = CARTESIAN_POINT ( 'NONE',  ( 0.7185039370078742937, 8.799135466314647460E-17, 0.1000000000000000194 ) ) ;
#139 = AXIS2_PLACEMENT_3D ( 'NONE', #664, #209, #806 ) ;
#140 = VERTEX_POINT ( 'NONE', #598 ) ;
#141 = LOCAL_TIME ( 19, 10, 31.00000000000000000, #745 ) ;
#142 = TOROIDAL_SURFACE ( 'NONE', #558, 0.5860236220472442303, 0.02500000000000000139 ) ;
#143 = AXIS2_PLACEMENT_3D ( 'NONE', #332, #496, #877 ) ;
#144 = EDGE_CURVE ( 'NONE', #368, #28, #445, .T. ) ;
#145 = FACE_OUTER_BOUND ( 'NONE', #681, .T. ) ;
#146 = ORIENTED_EDGE ( 'NONE', *, *, #884, .T. ) ;
#147 = CARTESIAN_POINT ( 'NONE',  ( -0.07874015748031495954, 0.000000000000000000, 0.9248720472440874474 ) ) ;
#148 = FACE_OUTER_BOUND ( 'NONE', #374, .T. ) ;
#149 = ORIENTED_EDGE ( 'NONE', *, *, #497, .T. ) ;
#150 = DIRECTION ( 'NONE',  ( 0.000000000000000000, 0.000000000000000000, -1.000000000000000000 ) ) ;
#151 = DATE_AND_TIME ( #434, #141 ) ;
#152 = DIRECTION ( 'NONE',  ( 0.000000000000000000, 0.000000000000000000, 1.000000000000000000 ) ) ;
#153 = VERTEX_POINT ( 'NONE', #610 ) ;
#154 = ADVANCED_FACE ( 'NONE', ( #831 ), #57, .T. ) ;
#155 = AXIS2_PLACEMENT_3D ( 'NONE', #818, #53, #814 ) ;
#156 = CARTESIAN_POINT ( 'NONE',  ( -0.1181102362207383516, -0.2045729300276681595, 0.000000000000000000 ) ) ;
#157 = CIRCLE ( 'NONE', #811, 0.1000000000000000056 ) ;
#158 = AXIS2_PLACEMENT_3D ( 'NONE', #251, #391, #635 ) ;
#159 = VECTOR ( 'NONE', #150, 39.37007874015748143 ) ;
#160 = DATE_TIME_ROLE ( 'classification_date' ) ;
#161 = DIRECTION ( 'NONE',  ( -0.000000000000000000, -0.000000000000000000, -1.000000000000000000 ) ) ;
#162 = ORIENTED_EDGE ( 'NONE', *, *, #532, .T. ) ;
#163 = DIRECTION ( 'NONE',  ( 0.000000000000000000, -1.000000000000000000, 0.000000000000000000 ) ) ;
#164 = DIRECTION ( 'NONE',  ( 0.000000000000000000, 0.000000000000000000, -1.000000000000000000 ) ) ;
#165 = EDGE_LOOP ( 'NONE', ( #582, #896 ) ) ;
#166 = CARTESIAN_POINT ( 'NONE',  ( -0.7145669291338585527, 0.000000000000000000, 0.6736417322834576948 ) ) ;
#167 = CARTESIAN_POINT ( 'NONE',  ( -0.5860236220472442303, 0.000000000000000000, 0.8998720472440875362 ) ) ;
#168 = EDGE_LOOP ( 'NONE', ( #871, #927, #101, #597 ) ) ;
#169 = AXIS2_PLACEMENT_3D ( 'NONE', #180, #467, #331 ) ;
#170 = CARTESIAN_POINT ( 'NONE',  ( 0.7145669291338585527, 8.750921025403333759E-17, 0.6736417322834576948 ) ) ;
#171 = CIRCLE ( 'NONE', #91, 0.03937007874015747977 ) ;
#172 = ORIENTED_EDGE ( 'NONE', *, *, #516, .T. ) ;
#173 = ORIENTED_EDGE ( 'NONE', *, *, #222, .F. ) ;
#174 = EDGE_CURVE ( 'NONE', #879, #21, #510, .T. ) ;
#175 = DIRECTION ( 'NONE',  ( -0.000000000000000000, 0.000000000000000000, 1.000000000000000000 ) ) ;
#176 = FACE_OUTER_BOUND ( 'NONE', #853, .T. ) ;
#177 = VERTEX_POINT ( 'NONE', #530 ) ;
#178 = EDGE_CURVE ( 'NONE', #616, #798, #847, .T. ) ;
#179 = ORIENTED_EDGE ( 'NONE', *, *, #458, .F. ) ;
#180 = CARTESIAN_POINT ( 'NONE',  ( 0.000000000000000000, 0.000000000000000000, 0.9248720472440874474 ) ) ;
#181 = DIRECTION ( 'NONE',  ( -1.000000000000000000, 0.000000000000000000, 0.000000000000000000 ) ) ;
#182 = FACE_OUTER_BOUND ( 'NONE', #288, .T. ) ;
#183 = ORIENTED_EDGE ( 'NONE', *, *, #890, .F. ) ;
#184 = ORIENTED_EDGE ( 'NONE', *, *, #174, .T. ) ;
#185 = CIRCLE ( 'NONE', #573, 0.03937007874015747977 ) ;
#186 = FACE_OUTER_BOUND ( 'NONE', #691, .T. ) ;
#187 = LOCAL_TIME ( 19, 10, 31.00000000000000000, #520 ) ;
#188 = CIRCLE ( 'NONE', #216, 0.02500000000000000486 ) ;
#189 = DIRECTION ( 'NONE',  ( -1.000000000000000000, 0.000000000000000000, 0.000000000000000000 ) ) ;
#190 = CARTESIAN_POINT ( 'NONE',  ( 0.000000000000000000, 0.000000000000000000, 0.9248720472440874474 ) ) ;
#191 = ORIENTED_EDGE ( 'NONE', *, *, #15, .F. ) ;
#192 = DIRECTION ( 'NONE',  ( 0.000000000000000000, 0.000000000000000000, -1.000000000000000000 ) ) ;
#193 = DIRECTION ( 'NONE',  ( -0.000000000000000000, -0.000000000000000000, -1.000000000000000000 ) ) ;
#194 = CARTESIAN_POINT ( 'NONE',  ( 0.000000000000000000, 0.000000000000000000, 0.6736417322834576948 ) ) ;
#195 = DIRECTION ( 'NONE',  ( -1.000000000000000000, 0.000000000000000000, 0.000000000000000000 ) ) ;
#196 = EDGE_CURVE ( 'NONE', #13, #85, #928, .T. ) ;
#197 = ORIENTED_EDGE ( 'NONE', *, *, #849, .T. ) ;
#198 = DIRECTION ( 'NONE',  ( -1.000000000000000000, 0.000000000000000000, 0.000000000000000000 ) ) ;
#199 = FACE_OUTER_BOUND ( 'NONE', #316, .T. ) ;
#200 = ORIENTED_EDGE ( 'NONE', *, *, #497, .F. ) ;
#201 = DIRECTION ( 'NONE',  ( -1.000000000000000000, 0.000000000000000000, 0.000000000000000000 ) ) ;
#202 = AXIS2_PLACEMENT_3D ( 'NONE', #730, #282, #883 ) ;
#203 = CIRCLE ( 'NONE', #292, 0.03937007874015747977 ) ;
#204 = ORIENTED_EDGE ( 'NONE', *, *, #596, .T. ) ;
#205 = ADVANCED_FACE ( 'NONE', ( #7 ), #494, .F. ) ;
#206 = LINE ( 'NONE', #952, #278 ) ;
#207 = CYLINDRICAL_SURFACE ( 'NONE', #589, 0.03937007874015747977 ) ;
#208 = ORIENTED_EDGE ( 'NONE', *, *, #876, .F. ) ;
#209 = DIRECTION ( 'NONE',  ( -0.000000000000000000, -0.000000000000000000, -1.000000000000000000 ) ) ;
#210 = ORIENTED_EDGE ( 'NONE', *, *, #458, .T. ) ;
#211 = PRODUCT_DEFINITION ( 'UNKNOWN', '', #215, #570 ) ;
#212 = FACE_OUTER_BOUND ( 'NONE', #408, .T. ) ;
#213 = AXIS2_PLACEMENT_3D ( 'NONE', #76, #11, #531 ) ;
#214 = VERTEX_POINT ( 'NONE', #433 ) ;
#215 = PRODUCT_DEFINITION_FORMATION_WITH_SPECIFIED_SOURCE ( 'ANY', '', #841, .NOT_KNOWN. ) ;
#216 = AXIS2_PLACEMENT_3D ( 'NONE', #217, #836, #527 ) ;
#217 = CARTESIAN_POINT ( 'NONE',  ( -0.6935039370078742715, 0.000000000000000000, 0.8998720472440875362 ) ) ;
#218 = CARTESIAN_POINT ( 'NONE',  ( 0.000000000000000000, 0.000000000000000000, 0.8998720472440875362 ) ) ;
#219 = VERTEX_POINT ( 'NONE', #674 ) ;
#220 = ADVANCED_FACE ( 'NONE', ( #221 ), #401, .F. ) ;
#221 = FACE_OUTER_BOUND ( 'NONE', #250, .T. ) ;
#222 = EDGE_CURVE ( 'NONE', #362, #28, #171, .T. ) ;
#223 = PERSON_AND_ORGANIZATION ( #590, #473 ) ;
#224 = DIRECTION ( 'NONE',  ( -1.000000000000000000, 0.000000000000000000, 0.000000000000000000 ) ) ;
#225 = ORIENTED_EDGE ( 'NONE', *, *, #591, .F. ) ;
#226 = LINE ( 'NONE', #80, #472 ) ;
#227 = ADVANCED_FACE ( 'NONE', ( #940 ), #909, .T. ) ;
#228 = ORIENTED_EDGE ( 'NONE', *, *, #486, .F. ) ;
#229 = CIRCLE ( 'NONE', #780, 0.5610236220472442081 ) ;
#230 = CARTESIAN_POINT ( 'NONE',  ( 0.7145669291338585527, 8.750921025403333759E-17, 0.5798917322834576948 ) ) ;
#231 = AXIS2_PLACEMENT_3D ( 'NONE', #306, #900, #515 ) ;
#232 = AXIS2_PLACEMENT_3D ( 'NONE', #553, #779, #863 ) ;
#233 = CARTESIAN_POINT ( 'NONE',  ( 0.000000000000000000, 0.000000000000000000, 0.5798917322834576948 ) ) ;
#234 = ORIENTED_EDGE ( 'NONE', *, *, #802, .T. ) ;
#235 = CARTESIAN_POINT ( 'NONE',  ( 0.1968503937007857474, -3.057279385909518408E-13, 0.9248720472440874474 ) ) ;
#236 = PERSON_AND_ORGANIZATION ( #590, #473 ) ;
#237 = CARTESIAN_POINT ( 'NONE',  ( 0.000000000000000000, 0.000000000000000000, 0.8998720472440875362 ) ) ;
#238 = ORIENTED_EDGE ( 'NONE', *, *, #64, .T. ) ;
#239 = CYLINDRICAL_SURFACE ( 'NONE', #609, 0.03937007874015747977 ) ;
#240 = EDGE_CURVE ( 'NONE', #403, #123, #44, .T. ) ;
#241 = CARTESIAN_POINT ( 'NONE',  ( -0.1181102362202098993, 0.2045729300279721108, 0.9248720472440874474 ) ) ;
#242 = PLANE ( 'NONE',  #129 ) ;
#243 = ORIENTED_EDGE ( 'NONE', *, *, #629, .T. ) ;
#244 = ADVANCED_FACE ( 'NONE', ( #797 ), #633, .F. ) ;
#245 = AXIS2_PLACEMENT_3D ( 'NONE', #534, #309, #19 ) ;
#246 = VECTOR ( 'NONE', #628, 39.37007874015748143 ) ;
#247 = DIRECTION ( 'NONE',  ( 0.000000000000000000, -1.000000000000000000, 0.000000000000000000 ) ) ;
#248 = TOROIDAL_SURFACE ( 'NONE', #624, 0.6935039370078742715, 0.02500000000000000139 ) ;
#249 = DIRECTION ( 'NONE',  ( -0.000000000000000000, 0.000000000000000000, 1.000000000000000000 ) ) ;
#250 = EDGE_LOOP ( 'NONE', ( #776, #910, #627, #503 ) ) ;
#251 = CARTESIAN_POINT ( 'NONE',  ( 0.000000000000000000, 0.000000000000000000, 0.07874015748031493178 ) ) ;
#252 = ORIENTED_EDGE ( 'NONE', *, *, #767, .F. ) ;
#253 = CARTESIAN_POINT ( 'NONE',  ( -0.4610236220472441748, 5.645911030714766192E-17, 0.1787401574803149096 ) ) ;
#254 = CARTESIAN_POINT ( 'NONE',  ( 0.6185039370078742049, 7.574488667167294499E-17, 0.1000000000000000194 ) ) ;
#255 = ORIENTED_EDGE ( 'NONE', *, *, #816, .T. ) ;
#256 = DIRECTION ( 'NONE',  ( 0.000000000000000000, -1.000000000000000000, 0.000000000000000000 ) ) ;
#257 = ORIENTED_EDGE ( 'NONE', *, *, #944, .F. ) ;
#258 = DIRECTION ( 'NONE',  ( -0.000000000000000000, -0.000000000000000000, -1.000000000000000000 ) ) ;
#259 = CARTESIAN_POINT ( 'NONE',  ( 0.000000000000000000, 2.662424906525348512E-14, 0.7673917322834576948 ) ) ;
#260 = ORIENTED_EDGE ( 'NONE', *, *, #345, .T. ) ;
#261 = CIRCLE ( 'NONE', #941, 0.03937007874015747977 ) ;
#262 = DIRECTION ( 'NONE',  ( -0.000000000000000000, -0.000000000000000000, -1.000000000000000000 ) ) ;
#263 = CIRCLE ( 'NONE', #397, 0.07874015748031495954 ) ;
#264 = DIRECTION ( 'NONE',  ( 1.000000000000000000, 0.000000000000000000, 0.000000000000000000 ) ) ;
#265 = CARTESIAN_POINT ( 'NONE',  ( 0.000000000000000000, 0.000000000000000000, 0.07874015748031493178 ) ) ;
#266 = ORIENTED_EDGE ( 'NONE', *, *, #15, .T. ) ;
#267 = DIRECTION ( 'NONE',  ( -1.000000000000000000, 0.000000000000000000, 0.000000000000000000 ) ) ;
#268 = FACE_BOUND ( 'NONE', #555, .T. ) ;
#269 = VERTEX_POINT ( 'NONE', #716 ) ;
#270 = EDGE_CURVE ( 'NONE', #355, #771, #608, .T. ) ;
#271 = DIRECTION ( 'NONE',  ( -0.000000000000000000, -0.000000000000000000, -1.000000000000000000 ) ) ;
#272 = DIRECTION ( 'NONE',  ( 1.000000000000000000, 0.000000000000000000, -0.000000000000000000 ) ) ;
#273 = ORIENTED_EDGE ( 'NONE', *, *, #621, .T. ) ;
#274 = ADVANCED_FACE ( 'NONE', ( #127, #571, #268, #40, #874 ), #948, .T. ) ;
#275 = DIRECTION ( 'NONE',  ( -1.224646799147353207E-16, 1.000000000000000000, 0.000000000000000000 ) ) ;
#276 = DIRECTION ( 'NONE',  ( -0.000000000000000000, -0.000000000000000000, -1.000000000000000000 ) ) ;
#277 = EDGE_CURVE ( 'NONE', #819, #772, #882, .T. ) ;
#278 = VECTOR ( 'NONE', #271, 39.37007874015748143 ) ;
#279 = ORIENTED_EDGE ( 'NONE', *, *, #974, .T. ) ;
#280 = VECTOR ( 'NONE', #586, 39.37007874015748143 ) ;
#281 = APPLICATION_PROTOCOL_DEFINITION ( 'international standard', 'config_control_design', 1994, #67 ) ;
#282 = DIRECTION ( 'NONE',  ( -0.000000000000000000, 0.000000000000000000, 1.000000000000000000 ) ) ;
#283 = CC_DESIGN_PERSON_AND_ORGANIZATION_ASSIGNMENT ( #803, #576, ( #211 ) ) ;
#284 = EDGE_LOOP ( 'NONE', ( #551, #687, #536, #424 ) ) ;
#285 = ADVANCED_FACE ( 'NONE', ( #935, #199 ), #722, .F. ) ;
#286 = CARTESIAN_POINT ( 'NONE',  ( -0.07874015748005243343, 0.2045729300279721108, 0.000000000000000000 ) ) ;
#287 = FACE_OUTER_BOUND ( 'NONE', #858, .T. ) ;
#288 = EDGE_LOOP ( 'NONE', ( #208, #204, #273, #840 ) ) ;
#289 = FACE_OUTER_BOUND ( 'NONE', #284, .T. ) ;
#290 = EDGE_CURVE ( 'NONE', #798, #950, #417, .T. ) ;
#291 = EDGE_LOOP ( 'NONE', ( #443, #234, #888, #660 ) ) ;
#292 = AXIS2_PLACEMENT_3D ( 'NONE', #926, #249, #856 ) ;
#293 = CIRCLE ( 'NONE', #784, 0.5610236220472442081 ) ;
#294 = DIRECTION ( 'NONE',  ( 0.000000000000000000, 0.000000000000000000, 1.000000000000000000 ) ) ;
#295 = DIRECTION ( 'NONE',  ( -0.000000000000000000, -0.000000000000000000, -1.000000000000000000 ) ) ;
#296 = ORIENTED_EDGE ( 'NONE', *, *, #359, .F. ) ;
#297 = DIRECTION ( 'NONE',  ( 1.000000000000000000, 0.000000000000000000, 0.000000000000000000 ) ) ;
#298 = PERSON_AND_ORGANIZATION_ROLE ( 'creator' ) ;
#299 = DIRECTION ( 'NONE',  ( -1.000000000000000000, 0.000000000000000000, 0.000000000000000000 ) ) ;
#300 = ORIENTED_EDGE ( 'NONE', *, *, #656, .T. ) ;
#301 = DIRECTION ( 'NONE',  ( -0.000000000000000000, -0.000000000000000000, -1.000000000000000000 ) ) ;
#302 = DIRECTION ( 'NONE',  ( -1.000000000000000000, 0.000000000000000000, 0.000000000000000000 ) ) ;
#303 = ADVANCED_FACE ( 'NONE', ( #407 ), #559, .F. ) ;
#304 = EDGE_LOOP ( 'NONE', ( #728, #747, #975, #20 ) ) ;
#305 = AXIS2_PLACEMENT_3D ( 'NONE', #233, #528, #400 ) ;
#306 = CARTESIAN_POINT ( 'NONE',  ( -0.1181102362202098993, 0.2045729300279721108, 0.000000000000000000 ) ) ;
#307 = LOCAL_TIME ( 19, 10, 31.00000000000000000, #505 ) ;
#308 = CLOSED_SHELL ( 'NONE', ( #220, #675, #124, #46, #205, #154, #398, #491, #314, #50, #381, #920, #414, #769, #311, #303, #285, #625, #913, #319, #274, #763, #440, #244, #945, #347, #550, #227, #851, #744, #388 ) ) ;
#309 = DIRECTION ( 'NONE',  ( -0.000000000000000000, -0.000000000000000000, -1.000000000000000000 ) ) ;
#310 = ORIENTED_EDGE ( 'NONE', *, *, #87, .F. ) ;
#311 = ADVANCED_FACE ( 'NONE', ( #645, #792 ), #383, .T. ) ;
#312 = EDGE_CURVE ( 'NONE', #954, #350, #654, .T. ) ;
#313 = DIRECTION ( 'NONE',  ( -1.000000000000000000, 0.000000000000000000, 0.000000000000000000 ) ) ;
#314 = ADVANCED_FACE ( 'NONE', ( #917 ), #239, .F. ) ;
#315 = DIRECTION ( 'NONE',  ( -0.000000000000000000, -0.000000000000000000, -1.000000000000000000 ) ) ;
#316 = EDGE_LOOP ( 'NONE', ( #3, #646 ) ) ;
#317 = ORIENTED_EDGE ( 'NONE', *, *, #833, .T. ) ;
#318 = CARTESIAN_POINT ( 'NONE',  ( -0.5610236220472442081, 0.000000000000000000, 0.8998720472440875362 ) ) ;
#319 = ADVANCED_FACE ( 'NONE', ( #182 ), #468, .F. ) ;
#320 = EDGE_LOOP ( 'NONE', ( #266, #260 ) ) ;
#321 = ORIENTED_EDGE ( 'NONE', *, *, #144, .F. ) ;
#322 = CARTESIAN_POINT ( 'NONE',  ( -0.1181102362207383516, -0.2045729300276681595, 0.07874015748031489015 ) ) ;
#323 = AXIS2_PLACEMENT_3D ( 'NONE', #561, #116, #804 ) ;
#324 = EDGE_LOOP ( 'NONE', ( #603, #498, #846, #173 ) ) ;
#325 = EDGE_LOOP ( 'NONE', ( #712, #452 ) ) ;
#326 = PLANE ( 'NONE',  #337 ) ;
#327 = CARTESIAN_POINT ( 'NONE',  ( 0.7185039370078742937, 8.799135466314647460E-17, 0.7673917322834575838 ) ) ;
#328 = DIRECTION ( 'NONE',  ( -0.000000000000000000, -0.000000000000000000, -1.000000000000000000 ) ) ;
#329 = EDGE_LOOP ( 'NONE', ( #296, #607, #183, #321 ) ) ;
#330 = EDGE_LOOP ( 'NONE', ( #579, #197 ) ) ;
#331 = DIRECTION ( 'NONE',  ( -1.000000000000000000, 0.000000000000000000, 0.000000000000000000 ) ) ;
#332 = CARTESIAN_POINT ( 'NONE',  ( 0.000000000000000000, 0.000000000000000000, 0.1000000000000000194 ) ) ;
#333 = DIRECTION ( 'NONE',  ( -1.000000000000000000, 0.000000000000000000, 0.000000000000000000 ) ) ;
#334 = ORIENTED_EDGE ( 'NONE', *, *, #904, .F. ) ;
#335 = AXIS2_PLACEMENT_3D ( 'NONE', #842, #521, #827 ) ;
#336 = CARTESIAN_POINT ( 'NONE',  ( -0.7185039370078742937, 0.000000000000000000, -0.2025850384618715083 ) ) ;
#337 = AXIS2_PLACEMENT_3D ( 'NONE', #777, #125, #198 ) ;
#338 = CIRCLE ( 'NONE', #459, 0.1000000000000000056 ) ;
#339 = DIRECTION ( 'NONE',  ( -0.000000000000000000, -0.000000000000000000, -1.000000000000000000 ) ) ;
#340 = ORIENTED_EDGE ( 'NONE', *, *, #890, .T. ) ;
#341 = UNCERTAINTY_MEASURE_WITH_UNIT (LENGTH_MEASURE( 1.000000000000000082E-05 ), #583, 'distance_accuracy_value', 'NONE');
#342 = CARTESIAN_POINT ( 'NONE',  ( 0.000000000000000000, 0.000000000000000000, 0.6736417322834576948 ) ) ;
#343 = APPROVAL_STATUS ( 'not_yet_approved' ) ;
#344 = DIRECTION ( 'NONE',  ( -1.000000000000000000, 0.000000000000000000, 0.000000000000000000 ) ) ;
#345 = EDGE_CURVE ( 'NONE', #899, #18, #58, .T. ) ;
#346 = ORIENTED_EDGE ( 'NONE', *, *, #641, .T. ) ;
#347 = ADVANCED_FACE ( 'NONE', ( #148 ), #207, .F. ) ;
#348 = DIRECTION ( 'NONE',  ( 0.000000000000000000, 0.000000000000000000, 1.000000000000000000 ) ) ;
#349 = CARTESIAN_POINT ( 'NONE',  ( -0.07874015748058087183, -0.2045729300276681595, 0.000000000000000000 ) ) ;
#350 = VERTEX_POINT ( 'NONE', #431 ) ;
#351 = VECTOR ( 'NONE', #315, 39.37007874015748143 ) ;
#352 = CYLINDRICAL_SURFACE ( 'NONE', #825, 0.7185039370078742937 ) ;
#353 =( GEOMETRIC_REPRESENTATION_CONTEXT ( 3 ) GLOBAL_UNCERTAINTY_ASSIGNED_CONTEXT ( ( #341 ) ) GLOBAL_UNIT_ASSIGNED_CONTEXT ( ( #583, #356, #501 ) ) REPRESENTATION_CONTEXT ( 'NONE', 'WORKASPACE' ) );
#354 = AXIS2_PLACEMENT_3D ( 'NONE', #753, #78, #604 ) ;
#355 = VERTEX_POINT ( 'NONE', #889 ) ;
#356 =( NAMED_UNIT ( * ) PLANE_ANGLE_UNIT ( ) SI_UNIT ( $, .RADIAN. ) );
#357 = CYLINDRICAL_SURFACE ( 'NONE', #139, 0.7185039370078742937 ) ;
#358 = ORIENTED_EDGE ( 'NONE', *, *, #34, .T. ) ;
#359 = EDGE_CURVE ( 'NONE', #219, #368, #476, .T. ) ;
#360 = PERSON_AND_ORGANIZATION_ROLE ( 'classification_officer' ) ;
#361 = DIRECTION ( 'NONE',  ( 0.000000000000000000, 0.000000000000000000, 1.000000000000000000 ) ) ;
#362 = VERTEX_POINT ( 'NONE', #349 ) ;
#363 = CARTESIAN_POINT ( 'NONE',  ( 0.000000000000000000, 0.000000000000000000, 0.1000000000000000194 ) ) ;
#364 = ADVANCED_BREP_SHAPE_REPRESENTATION ( 'O Ring Holder for motor_Vf', ( #649, #384 ), #353 ) ;
#365 = SECURITY_CLASSIFICATION_LEVEL ( 'unclassified' ) ;
#366 = DIRECTION ( 'NONE',  ( 1.000000000000000000, 0.000000000000000000, 0.000000000000000000 ) ) ;
#367 = CIRCLE ( 'NONE', #748, 0.6935039370078742715 ) ;
#368 = VERTEX_POINT ( 'NONE', #69 ) ;
#369 = TOROIDAL_SURFACE ( 'NONE', #444, 0.7145669291338585527, 0.09374999999999998612 ) ;
#370 = CIRCLE ( 'NONE', #653, 0.7185039370078742937 ) ;
#371 = DIRECTION ( 'NONE',  ( 1.000000000000000000, 0.000000000000000000, 0.000000000000000000 ) ) ;
#372 = LINE ( 'NONE', #16, #351 ) ;
#373 = EDGE_CURVE ( 'NONE', #929, #936, #367, .T. ) ;
#374 = EDGE_LOOP ( 'NONE', ( #334, #665, #184, #701 ) ) ;
#375 = DIRECTION ( 'NONE',  ( 0.000000000000000000, 0.000000000000000000, -1.000000000000000000 ) ) ;
#376 = DIRECTION ( 'NONE',  ( 0.000000000000000000, 0.000000000000000000, -1.000000000000000000 ) ) ;
#377 = ORIENTED_EDGE ( 'NONE', *, *, #587, .T. ) ;
#378 = FACE_OUTER_BOUND ( 'NONE', #835, .T. ) ;
#379 = APPROVAL_DATE_TIME ( #151, #439 ) ;
#380 = CARTESIAN_POINT ( 'NONE',  ( -0.5860236220472442303, 0.000000000000000000, 0.9248720472440874474 ) ) ;
#381 = ADVANCED_FACE ( 'NONE', ( #287 ), #357, .T. ) ;
#382 = EDGE_LOOP ( 'NONE', ( #756, #600 ) ) ;
#383 = PLANE ( 'NONE',  #110 ) ;
#384 = AXIS2_PLACEMENT_3D ( 'NONE', #962, #348, #131 ) ;
#385 = CIRCLE ( 'NONE', #575, 0.7185039370078742937 ) ;
#386 = DIRECTION ( 'NONE',  ( -1.000000000000000000, 0.000000000000000000, 0.000000000000000000 ) ) ;
#387 = DIRECTION ( 'NONE',  ( -0.000000000000000000, -0.000000000000000000, -1.000000000000000000 ) ) ;
#388 = ADVANCED_FACE ( 'NONE', ( #145 ), #396, .T. ) ;
#389 = DIRECTION ( 'NONE',  ( 0.000000000000000000, 0.000000000000000000, 1.000000000000000000 ) ) ;
#390 = DIRECTION ( 'NONE',  ( -1.000000000000000000, 0.000000000000000000, 0.000000000000000000 ) ) ;
#391 = DIRECTION ( 'NONE',  ( 0.000000000000000000, 0.000000000000000000, 1.000000000000000000 ) ) ;
#392 = ORIENTED_EDGE ( 'NONE', *, *, #373, .F. ) ;
#393 = DIRECTION ( 'NONE',  ( -0.000000000000000000, -0.000000000000000000, -1.000000000000000000 ) ) ;
#394 = DIRECTION ( 'NONE',  ( -0.000000000000000000, -0.000000000000000000, -1.000000000000000000 ) ) ;
#395 = ORIENTED_EDGE ( 'NONE', *, *, #118, .F. ) ;
#396 = TOROIDAL_SURFACE ( 'NONE', #880, 0.6935039370078742715, 0.02500000000000000139 ) ;
#397 = AXIS2_PLACEMENT_3D ( 'NONE', #29, #709, #22 ) ;
#398 = ADVANCED_FACE ( 'NONE', ( #289 ), #506, .F. ) ;
#399 = VECTOR ( 'NONE', #453, 39.37007874015748143 ) ;
#400 = DIRECTION ( 'NONE',  ( -1.000000000000000000, 0.000000000000000000, 0.000000000000000000 ) ) ;
#401 = TOROIDAL_SURFACE ( 'NONE', #354, 0.7145669291338585527, 0.09374999999999998612 ) ;
#402 = DIRECTION ( 'NONE',  ( -0.000000000000000000, 0.000000000000000000, 1.000000000000000000 ) ) ;
#403 = VERTEX_POINT ( 'NONE', #423 ) ;
#404 = LINE ( 'NONE', #411, #427 ) ;
#405 = CARTESIAN_POINT ( 'NONE',  ( -0.6208169291338584417, 0.000000000000000000, 0.6736417322834576948 ) ) ;
#406 = CARTESIAN_POINT ( 'NONE',  ( 0.000000000000000000, 0.000000000000000000, 0.7673917322834575838 ) ) ;
#407 = FACE_OUTER_BOUND ( 'NONE', #419, .T. ) ;
#408 = EDGE_LOOP ( 'NONE', ( #60, #932, #650, #657 ) ) ;
#409 = FACE_OUTER_BOUND ( 'NONE', #320, .T. ) ;
#410 = EDGE_CURVE ( 'NONE', #957, #43, #23, .T. ) ;
#411 = CARTESIAN_POINT ( 'NONE',  ( 0.07874015748031495954, 9.642888182262621507E-18, 0.9248720472440874474 ) ) ;
#412 = ORIENTED_EDGE ( 'NONE', *, *, #99, .F. ) ;
#413 = AXIS2_PLACEMENT_3D ( 'NONE', #593, #960, #224 ) ;
#414 = ADVANCED_FACE ( 'NONE', ( #212 ), #502, .T. ) ;
#415 = DIRECTION ( 'NONE',  ( -1.000000000000000000, 0.000000000000000000, 0.000000000000000000 ) ) ;
#416 = APPROVAL_PERSON_ORGANIZATION ( #676, #837, #1 ) ;
#417 = CIRCLE ( 'NONE', #12, 0.6208169291338584417 ) ;
#418 = DIRECTION ( 'NONE',  ( -0.000000000000000000, -0.000000000000000000, -1.000000000000000000 ) ) ;
#419 = EDGE_LOOP ( 'NONE', ( #461, #619, #172, #200 ) ) ;
#420 = CARTESIAN_POINT ( 'NONE',  ( 0.2362204724409432133, -3.057279385909518408E-13, 0.07874015748031489015 ) ) ;
#421 = ORIENTED_EDGE ( 'NONE', *, *, #767, .T. ) ;
#422 = DIRECTION ( 'NONE',  ( -1.000000000000000000, 0.000000000000000000, 0.000000000000000000 ) ) ;
#423 = CARTESIAN_POINT ( 'NONE',  ( 0.07874015748031495954, 9.642888182262621507E-18, 0.07874015748031489015 ) ) ;
#424 = ORIENTED_EDGE ( 'NONE', *, *, #629, .F. ) ;
#425 = CIRCLE ( 'NONE', #685, 0.7185039370078742937 ) ;
#426 = CARTESIAN_POINT ( 'NONE',  ( 0.000000000000000000, 0.000000000000000000, 0.9248720472440874474 ) ) ;
#427 = VECTOR ( 'NONE', #192, 39.37007874015748143 ) ;
#428 = AXIS2_PLACEMENT_3D ( 'NONE', #567, #339, #344 ) ;
#429 = ORIENTED_EDGE ( 'NONE', *, *, #196, .T. ) ;
#430 = CALENDAR_DATE ( 2026, 20, 3 ) ;
#431 = CARTESIAN_POINT ( 'NONE',  ( -0.7185039370078742937, 0.000000000000000000, 0.5798917322834576948 ) ) ;
#432 = EDGE_LOOP ( 'NONE', ( #783, #130, #964, #179 ) ) ;
#433 = CARTESIAN_POINT ( 'NONE',  ( 0.4610236220472441748, 0.000000000000000000, 0.07874015748031493178 ) ) ;
#434 = CALENDAR_DATE ( 2026, 20, 3 ) ;
#435 = DIRECTION ( 'NONE',  ( -0.000000000000000000, -0.000000000000000000, -1.000000000000000000 ) ) ;
#436 = EDGE_CURVE ( 'NONE', #697, #21, #8, .T. ) ;
#437 = ORIENTED_EDGE ( 'NONE', *, *, #481, .F. ) ;
#438 = DIRECTION ( 'NONE',  ( -1.000000000000000000, 0.000000000000000000, 0.000000000000000000 ) ) ;
#439 = APPROVAL ( #902, 'UNSPECIFIED' ) ;
#440 = ADVANCED_FACE ( 'NONE', ( #581 ), #352, .T. ) ;
#441 = DIRECTION ( 'NONE',  ( -1.000000000000000000, 0.000000000000000000, 0.000000000000000000 ) ) ;
#442 = AXIS2_PLACEMENT_3D ( 'NONE', #898, #517, #809 ) ;
#443 = ORIENTED_EDGE ( 'NONE', *, *, #596, .F. ) ;
#444 = AXIS2_PLACEMENT_3D ( 'NONE', #342, #560, #267 ) ;
#445 = LINE ( 'NONE', #743, #280 ) ;
#446 = DIRECTION ( 'NONE',  ( 1.000000000000000000, 0.000000000000000000, 0.000000000000000000 ) ) ;
#447 = ORIENTED_EDGE ( 'NONE', *, *, #808, .F. ) ;
#448 = DIRECTION ( 'NONE',  ( 0.000000000000000000, 0.000000000000000000, -1.000000000000000000 ) ) ;
#449 = EDGE_CURVE ( 'NONE', #879, #140, #185, .T. ) ;
#450 = FACE_OUTER_BOUND ( 'NONE', #885, .T. ) ;
#451 = EDGE_CURVE ( 'NONE', #85, #957, #669, .T. ) ;
#452 = ORIENTED_EDGE ( 'NONE', *, *, #808, .T. ) ;
#453 = DIRECTION ( 'NONE',  ( -0.000000000000000000, -0.000000000000000000, -1.000000000000000000 ) ) ;
#454 = DIRECTION ( 'NONE',  ( -0.000000000000000000, -0.000000000000000000, -1.000000000000000000 ) ) ;
#455 = FACE_OUTER_BOUND ( 'NONE', #569, .T. ) ;
#456 = CIRCLE ( 'NONE', #557, 0.7145669291338585527 ) ;
#457 = AXIS2_PLACEMENT_3D ( 'NONE', #845, #394, #699 ) ;
#458 = EDGE_CURVE ( 'NONE', #177, #615, #537, .T. ) ;
#459 = AXIS2_PLACEMENT_3D ( 'NONE', #892, #824, #375 ) ;
#460 = DIRECTION ( 'NONE',  ( -1.000000000000000000, 0.000000000000000000, 0.000000000000000000 ) ) ;
#461 = ORIENTED_EDGE ( 'NONE', *, *, #290, .F. ) ;
#462 = ORIENTED_EDGE ( 'NONE', *, *, #974, .F. ) ;
#463 = DIRECTION ( 'NONE',  ( 1.000000000000000000, 0.000000000000000000, 0.000000000000000000 ) ) ;
#464 = VERTEX_POINT ( 'NONE', #138 ) ;
#465 = CARTESIAN_POINT ( 'NONE',  ( -0.7145669291338585527, 0.000000000000000000, 0.6736417322834576948 ) ) ;
#466 = ORIENTED_EDGE ( 'NONE', *, *, #816, .F. ) ;
#467 = DIRECTION ( 'NONE',  ( -0.000000000000000000, -0.000000000000000000, -1.000000000000000000 ) ) ;
#468 = CYLINDRICAL_SURFACE ( 'NONE', #232, 0.5610236220472442081 ) ;
#469 = DIRECTION ( 'NONE',  ( -0.000000000000000000, -0.000000000000000000, -1.000000000000000000 ) ) ;
#470 = DIRECTION ( 'NONE',  ( 0.000000000000000000, 0.000000000000000000, 1.000000000000000000 ) ) ;
#471 = ORIENTED_EDGE ( 'NONE', *, *, #99, .T. ) ;
#472 = VECTOR ( 'NONE', #376, 39.37007874015748143 ) ;
#473 = ORGANIZATION ( 'UNSPECIFIED', 'UNSPECIFIED', '' ) ;
#474 = CIRCLE ( 'NONE', #525, 0.7185039370078742937 ) ;
#475 = DIRECTION ( 'NONE',  ( -1.000000000000000000, 0.000000000000000000, 0.000000000000000000 ) ) ;
#476 = CIRCLE ( 'NONE', #637, 0.03937007874015747977 ) ;
#477 = CYLINDRICAL_SURFACE ( 'NONE', #457, 0.5610236220472442081 ) ;
#478 = DIRECTION ( 'NONE',  ( -0.000000000000000000, 0.000000000000000000, 1.000000000000000000 ) ) ;
#479 = CARTESIAN_POINT ( 'NONE',  ( -0.6185039370078742049, 0.000000000000000000, 0.000000000000000000 ) ) ;
#480 = ORIENTED_EDGE ( 'NONE', *, *, #884, .F. ) ;
#481 = EDGE_CURVE ( 'NONE', #214, #815, #157, .T. ) ;
#482 = FACE_BOUND ( 'NONE', #572, .T. ) ;
#483 = FACE_BOUND ( 'NONE', #643, .T. ) ;
#484 = DIRECTION ( 'NONE',  ( -1.000000000000000000, 0.000000000000000000, 0.000000000000000000 ) ) ;
#485 = CARTESIAN_POINT ( 'NONE',  ( -0.1181102362202098993, 0.2045729300279721108, 0.07874015748031489015 ) ) ;
#486 = EDGE_CURVE ( 'NONE', #936, #929, #128, .T. ) ;
#487 = VERTEX_POINT ( 'NONE', #94 ) ;
#488 = FACE_BOUND ( 'NONE', #165, .T. ) ;
#489 = CARTESIAN_POINT ( 'NONE',  ( 0.000000000000000000, 0.000000000000000000, 0.5798917322834576948 ) ) ;
#490 = ORIENTED_EDGE ( 'NONE', *, *, #713, .T. ) ;
#491 = ADVANCED_FACE ( 'NONE', ( #834 ), #759, .F. ) ;
#492 = CIRCLE ( 'NONE', #72, 0.6208169291338584417 ) ;
#493 = CIRCLE ( 'NONE', #638, 0.1000000000000000194 ) ;
#494 = TOROIDAL_SURFACE ( 'NONE', #75, 0.4610236220472441748, 0.1000000000000000056 ) ;
#495 = CARTESIAN_POINT ( 'NONE',  ( 0.7185039370078742937, 8.799135466314647460E-17, 0.5798917322834576948 ) ) ;
#496 = DIRECTION ( 'NONE',  ( -0.000000000000000000, -0.000000000000000000, -1.000000000000000000 ) ) ;
#497 = EDGE_CURVE ( 'NONE', #950, #487, #702, .T. ) ;
#498 = ORIENTED_EDGE ( 'NONE', *, *, #662, .F. ) ;
#499 = CARTESIAN_POINT ( 'NONE',  ( 0.2362204724409432133, -3.057279385909518408E-13, 0.9248720472440874474 ) ) ;
#500 = EDGE_LOOP ( 'NONE', ( #52, #300, #490, #554 ) ) ;
#501 =( NAMED_UNIT ( * ) SI_UNIT ( $, .STERADIAN. ) SOLID_ANGLE_UNIT ( ) );
#502 = CYLINDRICAL_SURFACE ( 'NONE', #413, 0.7185039370078742937 ) ;
#503 = ORIENTED_EDGE ( 'NONE', *, *, #641, .F. ) ;
#504 = CIRCLE ( 'NONE', #88, 0.1000000000000000194 ) ;
#505 = COORDINATED_UNIVERSAL_TIME_OFFSET ( 8, 0, .BEHIND. ) ;
#506 = CYLINDRICAL_SURFACE ( 'NONE', #620, 0.03937007874015746589 ) ;
#507 = AXIS2_PLACEMENT_3D ( 'NONE', #796, #872, #705 ) ;
#508 = AXIS2_PLACEMENT_3D ( 'NONE', #166, #163, #448 ) ;
#509 = ORIENTED_EDGE ( 'NONE', *, *, #436, .T. ) ;
#510 = LINE ( 'NONE', #235, #895 ) ;
#511 = PERSON_AND_ORGANIZATION_ROLE ( 'design_supplier' ) ;
#512 = DIRECTION ( 'NONE',  ( -1.000000000000000000, 0.000000000000000000, 0.000000000000000000 ) ) ;
#513 = CC_DESIGN_PERSON_AND_ORGANIZATION_ASSIGNMENT ( #223, #511, ( #215 ) ) ;
#514 = ORIENTED_EDGE ( 'NONE', *, *, #524, .T. ) ;
#515 = DIRECTION ( 'NONE',  ( 1.000000000000000000, 0.000000000000000000, 0.000000000000000000 ) ) ;
#516 = EDGE_CURVE ( 'NONE', #632, #487, #456, .T. ) ;
#517 = DIRECTION ( 'NONE',  ( -0.000000000000000000, -0.000000000000000000, -1.000000000000000000 ) ) ;
#518 = ORIENTED_EDGE ( 'NONE', *, *, #359, .T. ) ;
#519 = DIRECTION ( 'NONE',  ( 0.000000000000000000, 0.000000000000000000, 1.000000000000000000 ) ) ;
#520 = COORDINATED_UNIVERSAL_TIME_OFFSET ( 8, 0, .BEHIND. ) ;
#521 = DIRECTION ( 'NONE',  ( -1.224646799147353207E-16, 1.000000000000000000, 0.000000000000000000 ) ) ;
#522 = AXIS2_PLACEMENT_3D ( 'NONE', #134, #126, #422 ) ;
#523 = ORIENTED_EDGE ( 'NONE', *, *, #373, .T. ) ;
#524 = EDGE_CURVE ( 'NONE', #21, #697, #956, .T. ) ;
#525 = AXIS2_PLACEMENT_3D ( 'NONE', #109, #921, #390 ) ;
#526 = AXIS2_PLACEMENT_3D ( 'NONE', #194, #418, #484 ) ;
#527 = DIRECTION ( 'NONE',  ( 0.000000000000000000, 0.000000000000000000, -1.000000000000000000 ) ) ;
#528 = DIRECTION ( 'NONE',  ( -0.000000000000000000, -0.000000000000000000, -1.000000000000000000 ) ) ;
#529 = ORIENTED_EDGE ( 'NONE', *, *, #656, .F. ) ;
#530 = CARTESIAN_POINT ( 'NONE',  ( 0.5860236220472442303, 7.176719529648959242E-17, 0.9248720472440874474 ) ) ;
#531 = DIRECTION ( 'NONE',  ( -1.000000000000000000, 0.000000000000000000, 0.000000000000000000 ) ) ;
#532 = EDGE_CURVE ( 'NONE', #136, #950, #799, .T. ) ;
#533 = CARTESIAN_POINT ( 'NONE',  ( -0.1574803149608958452, -0.2045729300276681595, 0.000000000000000000 ) ) ;
#534 = CARTESIAN_POINT ( 'NONE',  ( 0.000000000000000000, 0.000000000000000000, 0.1787401574803149096 ) ) ;
#535 = CARTESIAN_POINT ( 'NONE',  ( 0.000000000000000000, 0.000000000000000000, 0.9248720472440874474 ) ) ;
#536 = ORIENTED_EDGE ( 'NONE', *, *, #68, .F. ) ;
#537 = CIRCLE ( 'NONE', #442, 0.5860236220472442303 ) ;
#538 = ORIENTED_EDGE ( 'NONE', *, *, #944, .T. ) ;
#539 = CIRCLE ( 'NONE', #574, 0.07874015748031495954 ) ;
#540 = AXIS2_PLACEMENT_3D ( 'NONE', #931, #469, #781 ) ;
#541 = CARTESIAN_POINT ( 'NONE',  ( 0.000000000000000000, 0.000000000000000000, 0.8998720472440875362 ) ) ;
#542 = DIRECTION ( 'NONE',  ( -0.000000000000000000, -0.000000000000000000, -1.000000000000000000 ) ) ;
#543 = VERTEX_POINT ( 'NONE', #318 ) ;
#544 = ORIENTED_EDGE ( 'NONE', *, *, #66, .T. ) ;
#545 = EDGE_CURVE ( 'NONE', #543, #615, #41, .T. ) ;
#546 = DIRECTION ( 'NONE',  ( 1.000000000000000000, 0.000000000000000000, 0.000000000000000000 ) ) ;
#547 = DIRECTION ( 'NONE',  ( 0.000000000000000000, 0.000000000000000000, -1.000000000000000000 ) ) ;
#548 = EDGE_LOOP ( 'NONE', ( #673, #789, #768, #739 ) ) ;
#549 = LINE ( 'NONE', #782, #844 ) ;
#550 = ADVANCED_FACE ( 'NONE', ( #450 ), #694, .F. ) ;
#551 = ORIENTED_EDGE ( 'NONE', *, *, #66, .F. ) ;
#552 = CARTESIAN_POINT ( 'NONE',  ( -0.4610236220472441748, 6.258234430288443905E-17, 0.07874015748031493178 ) ) ;
#553 = CARTESIAN_POINT ( 'NONE',  ( 0.000000000000000000, 0.000000000000000000, -0.2025850384618715083 ) ) ;
#554 = ORIENTED_EDGE ( 'NONE', *, *, #901, .F. ) ;
#555 = EDGE_LOOP ( 'NONE', ( #612, #377 ) ) ;
#556 = CC_DESIGN_PERSON_AND_ORGANIZATION_ASSIGNMENT ( #10, #298, ( #215 ) ) ;
#557 = AXIS2_PLACEMENT_3D ( 'NONE', #822, #677, #386 ) ;
#558 = AXIS2_PLACEMENT_3D ( 'NONE', #714, #861, #415 ) ;
#559 = TOROIDAL_SURFACE ( 'NONE', #526, 0.7145669291338585527, 0.09374999999999998612 ) ;
#560 = DIRECTION ( 'NONE',  ( -0.000000000000000000, -0.000000000000000000, -1.000000000000000000 ) ) ;
#561 = CARTESIAN_POINT ( 'NONE',  ( 0.000000000000000000, -9.585431556716700802E-18, 0.07874015748031493178 ) ) ;
#562 = DIRECTION ( 'NONE',  ( 0.000000000000000000, 0.000000000000000000, 1.000000000000000000 ) ) ;
#563 = EDGE_LOOP ( 'NONE', ( #480, #937, #133, #805 ) ) ;
#564 = DIRECTION ( 'NONE',  ( -1.000000000000000000, 0.000000000000000000, 0.000000000000000000 ) ) ;
#565 = CARTESIAN_POINT ( 'NONE',  ( 0.7185039370078742937, 8.799135466314647460E-17, 0.8998720472440875362 ) ) ;
#566 = APPROVAL_DATE_TIME ( #39, #659 ) ;
#567 = CARTESIAN_POINT ( 'NONE',  ( 0.000000000000000000, 0.000000000000000000, 0.8998720472440875362 ) ) ;
#568 = EDGE_CURVE ( 'NONE', #153, #815, #103, .T. ) ;
#569 = EDGE_LOOP ( 'NONE', ( #95, #752, #692, #412 ) ) ;
#570 = DESIGN_CONTEXT ( 'detailed design', #588, 'design' ) ;
#571 = FACE_BOUND ( 'NONE', #96, .T. ) ;
#572 = EDGE_LOOP ( 'NONE', ( #514, #509 ) ) ;
#573 = AXIS2_PLACEMENT_3D ( 'NONE', #420, #435, #366 ) ;
#574 = AXIS2_PLACEMENT_3D ( 'NONE', #644, #175, #463 ) ;
#575 = AXIS2_PLACEMENT_3D ( 'NONE', #363, #294, #82 ) ;
#576 = PERSON_AND_ORGANIZATION_ROLE ( 'creator' ) ;
#577 = DIRECTION ( 'NONE',  ( -0.000000000000000000, -0.000000000000000000, -1.000000000000000000 ) ) ;
#578 = EDGE_CURVE ( 'NONE', #543, #6, #651, .T. ) ;
#579 = ORIENTED_EDGE ( 'NONE', *, *, #63, .T. ) ;
#580 =( LENGTH_UNIT ( ) NAMED_UNIT ( * ) SI_UNIT ( $, .METRE. ) );
#581 = FACE_OUTER_BOUND ( 'NONE', #32, .T. ) ;
#582 = ORIENTED_EDGE ( 'NONE', *, *, #68, .T. ) ;
#583 =( CONVERSION_BASED_UNIT ( 'INCH', #886 ) LENGTH_UNIT ( ) NAMED_UNIT ( #832 ) );
#584 = DIRECTION ( 'NONE',  ( -1.000000000000000000, 0.000000000000000000, 0.000000000000000000 ) ) ;
#585 = EDGE_LOOP ( 'NONE', ( #922, #257 ) ) ;
#586 = DIRECTION ( 'NONE',  ( 0.000000000000000000, 0.000000000000000000, -1.000000000000000000 ) ) ;
#587 = EDGE_CURVE ( 'NONE', #140, #879, #924, .T. ) ;
#588 = APPLICATION_CONTEXT ( 'configuration controlled 3d designs of mechanical parts and assemblies' ) ;
#589 = AXIS2_PLACEMENT_3D ( 'NONE', #499, #59, #887 ) ;
#590 = PERSON ( 'UNSPECIFIED', 'UNSPECIFIED', 'UNSPECIFIED', ('UNSPECIFIED'), ('UNSPECIFIED'), ('UNSPECIFIED') ) ;
#591 = EDGE_CURVE ( 'NONE', #950, #798, #492, .T. ) ;
#592 = CC_DESIGN_APPROVAL ( #439, ( #42 ) ) ;
#593 = CARTESIAN_POINT ( 'NONE',  ( 0.000000000000000000, 0.000000000000000000, -0.2025850384618715083 ) ) ;
#594 = CIRCLE ( 'NONE', #812, 0.7145669291338585527 ) ;
#595 = AXIS2_PLACEMENT_3D ( 'NONE', #689, #328, #48 ) ;
#596 = EDGE_CURVE ( 'NONE', #6, #543, #229, .T. ) ;
#597 = ORIENTED_EDGE ( 'NONE', *, *, #568, .F. ) ;
#598 = CARTESIAN_POINT ( 'NONE',  ( 0.2755905511811007069, -3.057231171468607296E-13, 0.07874015748031489015 ) ) ;
#599 = DIRECTION ( 'NONE',  ( 0.000000000000000000, 0.000000000000000000, -1.000000000000000000 ) ) ;
#600 = ORIENTED_EDGE ( 'NONE', *, *, #312, .F. ) ;
#601 = CARTESIAN_POINT ( 'NONE',  ( 0.000000000000000000, 0.000000000000000000, 0.1000000000000000194 ) ) ;
#602 = DIRECTION ( 'NONE',  ( -0.000000000000000000, 0.000000000000000000, 1.000000000000000000 ) ) ;
#603 = ORIENTED_EDGE ( 'NONE', *, *, #617, .F. ) ;
#604 = DIRECTION ( 'NONE',  ( -1.000000000000000000, 0.000000000000000000, 0.000000000000000000 ) ) ;
#605 = CARTESIAN_POINT ( 'NONE',  ( -0.7145669291338585527, 0.000000000000000000, 0.5798917322834576948 ) ) ;
#606 = APPROVAL_PERSON_ORGANIZATION ( #47, #659, #947 ) ;
#607 = ORIENTED_EDGE ( 'NONE', *, *, #617, .T. ) ;
#608 = CIRCLE ( 'NONE', #867, 0.07874015748031495954 ) ;
#609 = AXIS2_PLACEMENT_3D ( 'NONE', #35, #547, #857 ) ;
#610 = CARTESIAN_POINT ( 'NONE',  ( -0.5610236220472442081, 0.000000000000000000, 0.1787401574803149096 ) ) ;
#611 = CARTESIAN_POINT ( 'NONE',  ( 0.000000000000000000, 0.000000000000000000, 0.8998720472440875362 ) ) ;
#612 = ORIENTED_EDGE ( 'NONE', *, *, #449, .T. ) ;
#613 = DIRECTION ( 'NONE',  ( 1.000000000000000000, 0.000000000000000000, -0.000000000000000000 ) ) ;
#614 = CYLINDRICAL_SURFACE ( 'NONE', #54, 0.7185039370078742937 ) ;
#615 = VERTEX_POINT ( 'NONE', #380 ) ;
#616 = VERTEX_POINT ( 'NONE', #605 ) ;
#617 = EDGE_CURVE ( 'NONE', #219, #362, #755, .T. ) ;
#618 = CARTESIAN_POINT ( 'NONE',  ( 0.2362204724409432133, -3.057279385909518408E-13, 0.07874015748031489015 ) ) ;
#619 = ORIENTED_EDGE ( 'NONE', *, *, #859, .T. ) ;
#620 = AXIS2_PLACEMENT_3D ( 'NONE', #135, #967, #584 ) ;
#621 = EDGE_CURVE ( 'NONE', #543, #153, #372, .T. ) ;
#622 = VERTEX_POINT ( 'NONE', #2 ) ;
#623 = CIRCLE ( 'NONE', #169, 0.5860236220472442303 ) ;
#624 = AXIS2_PLACEMENT_3D ( 'NONE', #897, #301, #679 ) ;
#625 = ADVANCED_FACE ( 'NONE', ( #680 ), #614, .T. ) ;
#626 = CARTESIAN_POINT ( 'NONE',  ( -0.6935039370078742715, 0.000000000000000000, 0.9248720472440874474 ) ) ;
#627 = ORIENTED_EDGE ( 'NONE', *, *, #532, .F. ) ;
#628 = DIRECTION ( 'NONE',  ( -0.000000000000000000, -0.000000000000000000, -1.000000000000000000 ) ) ;
#629 = EDGE_CURVE ( 'NONE', #13, #43, #226, .T. ) ;
#630 = DIRECTION ( 'NONE',  ( 1.000000000000000000, 0.000000000000000000, 0.000000000000000000 ) ) ;
#631 = EDGE_LOOP ( 'NONE', ( #340, #854 ) ) ;
#632 = VERTEX_POINT ( 'NONE', #908 ) ;
#633 = CYLINDRICAL_SURFACE ( 'NONE', #751, 0.07874015748031495954 ) ;
#634 = DIRECTION ( 'NONE',  ( 0.000000000000000000, 0.000000000000000000, -1.000000000000000000 ) ) ;
#635 = DIRECTION ( 'NONE',  ( 1.000000000000000000, 0.000000000000000000, 0.000000000000000000 ) ) ;
#636 = EDGE_LOOP ( 'NONE', ( #346, #317 ) ) ;
#637 = AXIS2_PLACEMENT_3D ( 'NONE', #741, #276, #738 ) ;
#638 = AXIS2_PLACEMENT_3D ( 'NONE', #254, #919, #778 ) ;
#639 = CIRCLE ( 'NONE', #813, 0.4610236220472441748 ) ;
#640 = FACE_OUTER_BOUND ( 'NONE', #432, .T. ) ;
#641 = EDGE_CURVE ( 'NONE', #616, #136, #732, .T. ) ;
#642 = DIRECTION ( 'NONE',  ( -1.000000000000000000, -1.224646799147351728E-16, 0.000000000000000000 ) ) ;
#643 = EDGE_LOOP ( 'NONE', ( #77, #210 ) ) ;
#644 = CARTESIAN_POINT ( 'NONE',  ( 0.000000000000000000, 0.000000000000000000, 0.000000000000000000 ) ) ;
#645 = FACE_BOUND ( 'NONE', #636, .T. ) ;
#646 = ORIENTED_EDGE ( 'NONE', *, *, #901, .T. ) ;
#647 = PERSON_AND_ORGANIZATION_ROLE ( 'design_owner' ) ;
#648 = DIRECTION ( 'NONE',  ( 0.000000000000000000, 0.000000000000000000, -1.000000000000000000 ) ) ;
#649 = MANIFOLD_SOLID_BREP ( 'Fillet2', #308 ) ;
#650 = ORIENTED_EDGE ( 'NONE', *, *, #695, .F. ) ;
#651 = CIRCLE ( 'NONE', #893, 0.5610236220472442081 ) ;
#652 = AXIS2_PLACEMENT_3D ( 'NONE', #860, #470, #122 ) ;
#653 = AXIS2_PLACEMENT_3D ( 'NONE', #711, #870, #195 ) ;
#654 = CIRCLE ( 'NONE', #785, 0.7185039370078742937 ) ;
#655 = DIRECTION ( 'NONE',  ( -1.000000000000000000, 0.000000000000000000, 0.000000000000000000 ) ) ;
#656 = EDGE_CURVE ( 'NONE', #772, #819, #425, .T. ) ;
#657 = ORIENTED_EDGE ( 'NONE', *, *, #713, .F. ) ;
#658 = DIRECTION ( 'NONE',  ( -0.000000000000000000, -0.000000000000000000, -1.000000000000000000 ) ) ;
#659 = APPROVAL ( #343, 'UNSPECIFIED' ) ;
#660 = ORIENTED_EDGE ( 'NONE', *, *, #545, .F. ) ;
#661 = DIRECTION ( 'NONE',  ( 1.000000000000000000, 0.000000000000000000, 0.000000000000000000 ) ) ;
#662 = EDGE_CURVE ( 'NONE', #368, #219, #261, .T. ) ;
#663 = CALENDAR_DATE ( 2026, 20, 3 ) ;
#664 = CARTESIAN_POINT ( 'NONE',  ( 0.000000000000000000, 0.000000000000000000, -0.2025850384618715083 ) ) ;
#665 = ORIENTED_EDGE ( 'NONE', *, *, #449, .F. ) ;
#666 = DIRECTION ( 'NONE',  ( -0.000000000000000000, -0.000000000000000000, -1.000000000000000000 ) ) ;
#667 = AXIS2_PLACEMENT_3D ( 'NONE', #426, #770, #460 ) ;
#668 = COORDINATED_UNIVERSAL_TIME_OFFSET ( 8, 0, .BEHIND. ) ;
#669 = LINE ( 'NONE', #973, #970 ) ;
#670 = CIRCLE ( 'NONE', #828, 0.02500000000000000486 ) ;
#671 = EDGE_CURVE ( 'NONE', #790, #153, #504, .T. ) ;
#672 = AXIS2_PLACEMENT_3D ( 'NONE', #766, #387, #333 ) ;
#673 = ORIENTED_EDGE ( 'NONE', *, *, #578, .T. ) ;
#674 = CARTESIAN_POINT ( 'NONE',  ( -0.07874015748058087183, -0.2045729300276681595, 0.07874015748031489015 ) ) ;
#675 = ADVANCED_FACE ( 'NONE', ( #186 ), #733, .F. ) ;
#676 = PERSON_AND_ORGANIZATION ( #590, #473 ) ;
#677 = DIRECTION ( 'NONE',  ( -0.000000000000000000, -0.000000000000000000, -1.000000000000000000 ) ) ;
#678 = EDGE_LOOP ( 'NONE', ( #255, #830 ) ) ;
#679 = DIRECTION ( 'NONE',  ( -1.000000000000000000, 0.000000000000000000, 0.000000000000000000 ) ) ;
#680 = FACE_OUTER_BOUND ( 'NONE', #500, .T. ) ;
#681 = EDGE_LOOP ( 'NONE', ( #462, #392, #891, #529 ) ) ;
#682 = DIRECTION ( 'NONE',  ( -0.000000000000000000, -0.000000000000000000, -1.000000000000000000 ) ) ;
#683 = SHAPE_DEFINITION_REPRESENTATION ( #93, #364 ) ;
#684 = DIRECTION ( 'NONE',  ( -1.000000000000000000, 0.000000000000000000, 0.000000000000000000 ) ) ;
#685 = AXIS2_PLACEMENT_3D ( 'NONE', #541, #393, #119 ) ;
#686 = CIRCLE ( 'NONE', #158, 0.4610236220472441748 ) ;
#687 = ORIENTED_EDGE ( 'NONE', *, *, #451, .T. ) ;
#688 = AXIS2_PLACEMENT_3D ( 'NONE', #259, #108, #613 ) ;
#689 = CARTESIAN_POINT ( 'NONE',  ( 0.000000000000000000, 0.000000000000000000, 0.07874015748031489015 ) ) ;
#690 = CARTESIAN_POINT ( 'NONE',  ( 0.000000000000000000, 0.000000000000000000, 0.6736417322834576948 ) ) ;
#691 = EDGE_LOOP ( 'NONE', ( #162, #795, #70, #717 ) ) ;
#692 = ORIENTED_EDGE ( 'NONE', *, *, #270, .F. ) ;
#693 = PRODUCT_RELATED_PRODUCT_CATEGORY ( 'detail', '', ( #841 ) ) ;
#694 = CYLINDRICAL_SURFACE ( 'NONE', #864, 0.03937007874015746589 ) ;
#695 = EDGE_CURVE ( 'NONE', #622, #905, #958, .T. ) ;
#696 = FACE_OUTER_BOUND ( 'NONE', #291, .T. ) ;
#697 = VERTEX_POINT ( 'NONE', #114 ) ;
#698 = DIRECTION ( 'NONE',  ( -0.000000000000000000, -0.000000000000000000, -1.000000000000000000 ) ) ;
#699 = DIRECTION ( 'NONE',  ( -1.000000000000000000, 0.000000000000000000, 0.000000000000000000 ) ) ;
#700 = AXIS2_PLACEMENT_3D ( 'NONE', #170, #5, #84 ) ;
#701 = ORIENTED_EDGE ( 'NONE', *, *, #436, .F. ) ;
#702 = CIRCLE ( 'NONE', #700, 0.09375000000000005551 ) ;
#703 = AXIS2_PLACEMENT_3D ( 'NONE', #933, #258, #564 ) ;
#704 = TOROIDAL_SURFACE ( 'NONE', #672, 0.5860236220472442303, 0.02500000000000000139 ) ;
#705 = DIRECTION ( 'NONE',  ( -1.000000000000000000, 0.000000000000000000, 0.000000000000000000 ) ) ;
#706 = CARTESIAN_POINT ( 'NONE',  ( 0.6935039370078742715, 8.646054616421228032E-17, 0.9248720472440874474 ) ) ;
#707 = CARTESIAN_POINT ( 'NONE',  ( 0.000000000000000000, 0.000000000000000000, 0.6736417322834576948 ) ) ;
#708 = CARTESIAN_POINT ( 'NONE',  ( -0.1574803149603673513, 0.2045729300279721108, 0.000000000000000000 ) ) ;
#709 = DIRECTION ( 'NONE',  ( -0.000000000000000000, -0.000000000000000000, -1.000000000000000000 ) ) ;
#710 = CARTESIAN_POINT ( 'NONE',  ( 0.000000000000000000, 0.000000000000000000, 0.000000000000000000 ) ) ;
#711 = CARTESIAN_POINT ( 'NONE',  ( 0.000000000000000000, 0.000000000000000000, 0.5798917322834576948 ) ) ;
#712 = ORIENTED_EDGE ( 'NONE', *, *, #270, .T. ) ;
#713 = EDGE_CURVE ( 'NONE', #819, #622, #38, .T. ) ;
#714 = CARTESIAN_POINT ( 'NONE',  ( 0.000000000000000000, 0.000000000000000000, 0.8998720472440875362 ) ) ;
#715 = CALENDAR_DATE ( 2026, 20, 3 ) ;
#716 = CARTESIAN_POINT ( 'NONE',  ( -0.7185039370078742937, 0.000000000000000000, 0.1000000000000000194 ) ) ;
#717 = ORIENTED_EDGE ( 'NONE', *, *, #833, .F. ) ;
#718 = AXIS2_PLACEMENT_3D ( 'NONE', #618, #161, #446 ) ;
#719 = AXIS2_PLACEMENT_3D ( 'NONE', #465, #256, #27 ) ;
#720 = AXIS2_PLACEMENT_3D ( 'NONE', #36, #634, #942 ) ;
#721 = MECHANICAL_CONTEXT ( 'NONE', #67, 'mechanical' ) ;
#722 = PLANE ( 'NONE',  #688 ) ;
#723 = ORIENTED_EDGE ( 'NONE', *, *, #859, .F. ) ;
#724 = CC_DESIGN_DATE_AND_TIME_ASSIGNMENT ( #914, #160, ( #42 ) ) ;
#725 = CARTESIAN_POINT ( 'NONE',  ( 0.6208169291338584417, 7.602814651202690513E-17, 0.6736417322834576948 ) ) ;
#726 = CARTESIAN_POINT ( 'NONE',  ( 0.4610236220472441748, 0.000000000000000000, 0.1787401574803149096 ) ) ;
#727 = EDGE_CURVE ( 'NONE', #615, #177, #623, .T. ) ;
#728 = ORIENTED_EDGE ( 'NONE', *, *, #587, .F. ) ;
#729 = CARTESIAN_POINT ( 'NONE',  ( 0.6935039370078742715, 8.492973766527808603E-17, 0.8998720472440875362 ) ) ;
#730 = CARTESIAN_POINT ( 'NONE',  ( -0.1181102362202098993, 0.2045729300279721108, 0.000000000000000000 ) ) ;
#731 = ORIENTED_EDGE ( 'NONE', *, *, #451, .F. ) ;
#732 = CIRCLE ( 'NONE', #305, 0.7145669291338585527 ) ;
#733 = TOROIDAL_SURFACE ( 'NONE', #507, 0.7145669291338585527, 0.09374999999999998612 ) ;
#734 = AXIS2_PLACEMENT_3D ( 'NONE', #601, #666, #438 ) ;
#735 = CC_DESIGN_DATE_AND_TIME_ASSIGNMENT ( #754, #83, ( #211 ) ) ;
#736 = AXIS2_PLACEMENT_3D ( 'NONE', #746, #658, #132 ) ;
#737 = APPLICATION_PROTOCOL_DEFINITION ( 'international standard', 'config_control_design', 1994, #588 ) ;
#738 = DIRECTION ( 'NONE',  ( 1.000000000000000000, 0.000000000000000000, 0.000000000000000000 ) ) ;
#739 = ORIENTED_EDGE ( 'NONE', *, *, #621, .F. ) ;
#740 = COORDINATED_UNIVERSAL_TIME_OFFSET ( 8, 0, .BEHIND. ) ;
#741 = CARTESIAN_POINT ( 'NONE',  ( -0.1181102362207383516, -0.2045729300276681595, 0.07874015748031489015 ) ) ;
#742 = EDGE_LOOP ( 'NONE', ( #49, #466, #471, #447 ) ) ;
#743 = CARTESIAN_POINT ( 'NONE',  ( -0.1574803149608958452, -0.2045729300276681595, 0.9248720472440874474 ) ) ;
#744 = ADVANCED_FACE ( 'NONE', ( #640 ), #142, .T. ) ;
#745 = COORDINATED_UNIVERSAL_TIME_OFFSET ( 8, 0, .BEHIND. ) ;
#746 = CARTESIAN_POINT ( 'NONE',  ( 0.000000000000000000, 0.000000000000000000, 0.000000000000000000 ) ) ;
#747 = ORIENTED_EDGE ( 'NONE', *, *, #904, .T. ) ;
#748 = AXIS2_PLACEMENT_3D ( 'NONE', #62, #361, #955 ) ;
#749 = CARTESIAN_POINT ( 'NONE',  ( -0.07874015748058087183, -0.2045729300276681595, 0.9248720472440874474 ) ) ;
#750 = VECTOR ( 'NONE', #774, 39.37007874015748143 ) ;
#751 = AXIS2_PLACEMENT_3D ( 'NONE', #190, #788, #31 ) ;
#752 = ORIENTED_EDGE ( 'NONE', *, *, #878, .T. ) ;
#753 = CARTESIAN_POINT ( 'NONE',  ( 0.000000000000000000, 0.000000000000000000, 0.6736417322834576948 ) ) ;
#754 = DATE_AND_TIME ( #663, #800 ) ;
#755 = LINE ( 'NONE', #749, #843 ) ;
#756 = ORIENTED_EDGE ( 'NONE', *, *, #64, .F. ) ;
#757 = CARTESIAN_POINT ( 'NONE',  ( -0.1181102362202098993, 0.2045729300279721108, 0.07874015748031489015 ) ) ;
#758 = CALENDAR_DATE ( 2026, 20, 3 ) ;
#759 = CYLINDRICAL_SURFACE ( 'NONE', #213, 0.03937007874015747977 ) ;
#760 = ORIENTED_EDGE ( 'NONE', *, *, #73, .F. ) ;
#761 = CARTESIAN_POINT ( 'NONE',  ( 0.7185039370078742937, 8.799135466314647460E-17, -0.2025850384618715083 ) ) ;
#762 = DIRECTION ( 'NONE',  ( 0.000000000000000000, 0.000000000000000000, -1.000000000000000000 ) ) ;
#763 = ADVANCED_FACE ( 'NONE', ( #409, #488, #482, #938, #98 ), #326, .T. ) ;
#764 = AXIS2_PLACEMENT_3D ( 'NONE', #915, #602, #838 ) ;
#765 = AXIS2_PLACEMENT_3D ( 'NONE', #868, #698, #475 ) ;
#766 = CARTESIAN_POINT ( 'NONE',  ( 0.000000000000000000, 0.000000000000000000, 0.8998720472440875362 ) ) ;
#767 = EDGE_CURVE ( 'NONE', #350, #269, #786, .T. ) ;
#768 = ORIENTED_EDGE ( 'NONE', *, *, #87, .T. ) ;
#769 = ADVANCED_FACE ( 'NONE', ( #951 ), #369, .F. ) ;
#770 = DIRECTION ( 'NONE',  ( 0.000000000000000000, 0.000000000000000000, 1.000000000000000000 ) ) ;
#771 = VERTEX_POINT ( 'NONE', #104 ) ;
#772 = VERTEX_POINT ( 'NONE', #565 ) ;
#773 = CARTESIAN_POINT ( 'NONE',  ( 0.5610236220472442081, 6.870557829862121618E-17, 0.1787401574803149096 ) ) ;
#774 = DIRECTION ( 'NONE',  ( 0.000000000000000000, 0.000000000000000000, -1.000000000000000000 ) ) ;
#775 = ORIENTED_EDGE ( 'NONE', *, *, #73, .T. ) ;
#776 = ORIENTED_EDGE ( 'NONE', *, *, #178, .T. ) ;
#777 = CARTESIAN_POINT ( 'NONE',  ( 0.000000000000000000, 0.000000000000000000, 0.000000000000000000 ) ) ;
#778 = DIRECTION ( 'NONE',  ( -1.000000000000000000, -1.224646799147353454E-16, 0.000000000000000000 ) ) ;
#779 = DIRECTION ( 'NONE',  ( -0.000000000000000000, -0.000000000000000000, -1.000000000000000000 ) ) ;
#780 = AXIS2_PLACEMENT_3D ( 'NONE', #237, #152, #441 ) ;
#781 = DIRECTION ( 'NONE',  ( -1.000000000000000000, 0.000000000000000000, 0.000000000000000000 ) ) ;
#782 = CARTESIAN_POINT ( 'NONE',  ( 0.5610236220472442081, 6.870557829862121618E-17, -0.2025850384618715083 ) ) ;
#783 = ORIENTED_EDGE ( 'NONE', *, *, #802, .F. ) ;
#784 = AXIS2_PLACEMENT_3D ( 'NONE', #4, #86, #661 ) ;
#785 = AXIS2_PLACEMENT_3D ( 'NONE', #120, #14, #313 ) ;
#786 = LINE ( 'NONE', #946, #246 ) ;
#787 = DIRECTION ( 'NONE',  ( -0.000000000000000000, 0.000000000000000000, -1.000000000000000000 ) ) ;
#788 = DIRECTION ( 'NONE',  ( 0.000000000000000000, 0.000000000000000000, -1.000000000000000000 ) ) ;
#789 = ORIENTED_EDGE ( 'NONE', *, *, #876, .T. ) ;
#790 = VERTEX_POINT ( 'NONE', #552 ) ;
#791 = DIRECTION ( 'NONE',  ( -1.000000000000000000, -1.224646799147351728E-16, 0.000000000000000000 ) ) ;
#792 = FACE_OUTER_BOUND ( 'NONE', #382, .T. ) ;
#793 = DIRECTION ( 'NONE',  ( 1.000000000000000000, 0.000000000000000000, 0.000000000000000000 ) ) ;
#794 = FACE_OUTER_BOUND ( 'NONE', #168, .T. ) ;
#795 = ORIENTED_EDGE ( 'NONE', *, *, #591, .T. ) ;
#796 = CARTESIAN_POINT ( 'NONE',  ( 0.000000000000000000, 0.000000000000000000, 0.6736417322834576948 ) ) ;
#797 = FACE_OUTER_BOUND ( 'NONE', #742, .T. ) ;
#798 = VERTEX_POINT ( 'NONE', #405 ) ;
#799 = CIRCLE ( 'NONE', #335, 0.09375000000000005551 ) ;
#800 = LOCAL_TIME ( 19, 10, 31.00000000000000000, #740 ) ;
#801 = CIRCLE ( 'NONE', #540, 0.6185039370078742049 ) ;
#802 = EDGE_CURVE ( 'NONE', #6, #177, #971, .T. ) ;
#803 = PERSON_AND_ORGANIZATION ( #590, #473 ) ;
#804 = DIRECTION ( 'NONE',  ( 1.000000000000000000, 0.000000000000000000, -0.000000000000000000 ) ) ;
#805 = ORIENTED_EDGE ( 'NONE', *, *, #345, .F. ) ;
#806 = DIRECTION ( 'NONE',  ( -1.000000000000000000, 0.000000000000000000, 0.000000000000000000 ) ) ;
#807 = ORIENTED_EDGE ( 'NONE', *, *, #410, .F. ) ;
#808 = EDGE_CURVE ( 'NONE', #771, #355, #539, .T. ) ;
#809 = DIRECTION ( 'NONE',  ( -1.000000000000000000, 0.000000000000000000, 0.000000000000000000 ) ) ;
#810 = ORIENTED_EDGE ( 'NONE', *, *, #312, .T. ) ;
#811 = AXIS2_PLACEMENT_3D ( 'NONE', #726, #51, #648 ) ;
#812 = AXIS2_PLACEMENT_3D ( 'NONE', #30, #934, #189 ) ;
#813 = AXIS2_PLACEMENT_3D ( 'NONE', #265, #562, #793 ) ;
#814 = DIRECTION ( 'NONE',  ( 1.000000000000000000, 0.000000000000000000, 0.000000000000000000 ) ) ;
#815 = VERTEX_POINT ( 'NONE', #773 ) ;
#816 = EDGE_CURVE ( 'NONE', #123, #403, #263, .T. ) ;
#817 = CARTESIAN_POINT ( 'NONE',  ( 0.000000000000000000, 0.000000000000000000, 0.1787401574803149096 ) ) ;
#818 = CARTESIAN_POINT ( 'NONE',  ( 0.2362204724409432133, -3.057279385909518408E-13, 0.000000000000000000 ) ) ;
#819 = VERTEX_POINT ( 'NONE', #930 ) ;
#820 = CARTESIAN_POINT ( 'NONE',  ( -0.07874015748005243343, 0.2045729300279721108, 0.07874015748031489015 ) ) ;
#821 = APPROVAL_DATE_TIME ( #826, #837 ) ;
#822 = CARTESIAN_POINT ( 'NONE',  ( 0.000000000000000000, 0.000000000000000000, 0.7673917322834578059 ) ) ;
#823 = ORIENTED_EDGE ( 'NONE', *, *, #277, .F. ) ;
#824 = DIRECTION ( 'NONE',  ( 0.000000000000000000, -1.000000000000000000, 0.000000000000000000 ) ) ;
#825 = AXIS2_PLACEMENT_3D ( 'NONE', #963, #295, #655 ) ;
#826 = DATE_AND_TIME ( #430, #187 ) ;
#827 = DIRECTION ( 'NONE',  ( -1.000000000000000000, -1.224646799147351975E-16, 0.000000000000000000 ) ) ;
#828 = AXIS2_PLACEMENT_3D ( 'NONE', #729, #275, #642 ) ;
#829 = AXIS2_PLACEMENT_3D ( 'NONE', #757, #682, #71 ) ;
#830 = ORIENTED_EDGE ( 'NONE', *, *, #240, .T. ) ;
#831 = FACE_OUTER_BOUND ( 'NONE', #112, .T. ) ;
#832 = DIMENSIONAL_EXPONENTS ( 1.000000000000000000, 0.000000000000000000, 0.000000000000000000, 0.000000000000000000, 0.000000000000000000, 0.000000000000000000, 0.000000000000000000 ) ;
#833 = EDGE_CURVE ( 'NONE', #136, #616, #925, .T. ) ;
#834 = FACE_OUTER_BOUND ( 'NONE', #304, .T. ) ;
#835 = EDGE_LOOP ( 'NONE', ( #228, #279, #823, #395 ) ) ;
#836 = DIRECTION ( 'NONE',  ( 0.000000000000000000, -1.000000000000000000, 0.000000000000000000 ) ) ;
#837 = APPROVAL ( #61, 'UNSPECIFIED' ) ;
#838 = DIRECTION ( 'NONE',  ( 1.000000000000000000, 0.000000000000000000, 0.000000000000000000 ) ) ;
#839 = CARTESIAN_POINT ( 'NONE',  ( 0.1968503937007857474, -3.057279385909518408E-13, 0.000000000000000000 ) ) ;
#840 = ORIENTED_EDGE ( 'NONE', *, *, #568, .T. ) ;
#841 = PRODUCT ( 'O Ring Holder for motor_Vf', 'O Ring Holder for motor_Vf', '', ( #721 ) ) ;
#842 = CARTESIAN_POINT ( 'NONE',  ( 0.7145669291338585527, 8.750921025403333759E-17, 0.6736417322834576948 ) ) ;
#843 = VECTOR ( 'NONE', #164, 39.37007874015748143 ) ;
#844 = VECTOR ( 'NONE', #111, 39.37007874015748143 ) ;
#845 = CARTESIAN_POINT ( 'NONE',  ( 0.000000000000000000, 0.000000000000000000, -0.2025850384618715083 ) ) ;
#846 = ORIENTED_EDGE ( 'NONE', *, *, #144, .T. ) ;
#847 = CIRCLE ( 'NONE', #508, 0.09374999999999998612 ) ;
#848 = EDGE_LOOP ( 'NONE', ( #961, #518 ) ) ;
#849 = EDGE_CURVE ( 'NONE', #790, #214, #686, .T. ) ;
#850 = DIRECTION ( 'NONE',  ( -1.224646799147353207E-16, 1.000000000000000000, 0.000000000000000000 ) ) ;
#851 = ADVANCED_FACE ( 'NONE', ( #794 ), #89, .F. ) ;
#852 = DIRECTION ( 'NONE',  ( -1.000000000000000000, 0.000000000000000000, 0.000000000000000000 ) ) ;
#853 = EDGE_LOOP ( 'NONE', ( #523, #25 ) ) ;
#854 = ORIENTED_EDGE ( 'NONE', *, *, #222, .T. ) ;
#855 = DIRECTION ( 'NONE',  ( 1.224646799147353207E-16, 1.000000000000000000, -0.000000000000000000 ) ) ;
#856 = DIRECTION ( 'NONE',  ( 1.000000000000000000, 0.000000000000000000, 0.000000000000000000 ) ) ;
#857 = DIRECTION ( 'NONE',  ( -1.000000000000000000, 0.000000000000000000, 0.000000000000000000 ) ) ;
#858 = EDGE_LOOP ( 'NONE', ( #238, #775, #358, #252 ) ) ;
#859 = EDGE_CURVE ( 'NONE', #798, #632, #106, .T. ) ;
#860 = CARTESIAN_POINT ( 'NONE',  ( 0.000000000000000000, 0.000000000000000000, 0.1787401574803149096 ) ) ;
#861 = DIRECTION ( 'NONE',  ( -0.000000000000000000, -0.000000000000000000, -1.000000000000000000 ) ) ;
#862 = LINE ( 'NONE', #107, #750 ) ;
#863 = DIRECTION ( 'NONE',  ( -1.000000000000000000, 0.000000000000000000, 0.000000000000000000 ) ) ;
#864 = AXIS2_PLACEMENT_3D ( 'NONE', #241, #90, #302 ) ;
#865 = ORIENTED_EDGE ( 'NONE', *, *, #849, .F. ) ;
#866 = CC_DESIGN_APPROVAL ( #837, ( #215 ) ) ;
#867 = AXIS2_PLACEMENT_3D ( 'NONE', #710, #402, #630 ) ;
#868 = CARTESIAN_POINT ( 'NONE',  ( 0.000000000000000000, 0.000000000000000000, 0.7673917322834575838 ) ) ;
#869 = DIRECTION ( 'NONE',  ( -0.000000000000000000, -0.000000000000000000, -1.000000000000000000 ) ) ;
#870 = DIRECTION ( 'NONE',  ( -0.000000000000000000, -0.000000000000000000, -1.000000000000000000 ) ) ;
#871 = ORIENTED_EDGE ( 'NONE', *, *, #671, .F. ) ;
#872 = DIRECTION ( 'NONE',  ( -0.000000000000000000, -0.000000000000000000, -1.000000000000000000 ) ) ;
#873 = CYLINDRICAL_SURFACE ( 'NONE', #522, 0.03937007874015747977 ) ;
#874 = FACE_BOUND ( 'NONE', #678, .T. ) ;
#875 = EDGE_LOOP ( 'NONE', ( #225, #149, #538, #723 ) ) ;
#876 = EDGE_CURVE ( 'NONE', #6, #815, #549, .T. ) ;
#877 = DIRECTION ( 'NONE',  ( -1.000000000000000000, 0.000000000000000000, 0.000000000000000000 ) ) ;
#878 = EDGE_CURVE ( 'NONE', #403, #771, #404, .T. ) ;
#879 = VERTEX_POINT ( 'NONE', #939 ) ;
#880 = AXIS2_PLACEMENT_3D ( 'NONE', #218, #577, #512 ) ;
#881 = VECTOR ( 'NONE', #193, 39.37007874015748143 ) ;
#882 = CIRCLE ( 'NONE', #428, 0.7185039370078742937 ) ;
#883 = DIRECTION ( 'NONE',  ( 1.000000000000000000, 0.000000000000000000, 0.000000000000000000 ) ) ;
#884 = EDGE_CURVE ( 'NONE', #464, #899, #493, .T. ) ;
#885 = EDGE_LOOP ( 'NONE', ( #731, #81, #243, #807 ) ) ;
#886 = LENGTH_MEASURE_WITH_UNIT ( LENGTH_MEASURE( 0.02539999999999999897 ), #580 );
#887 = DIRECTION ( 'NONE',  ( -1.000000000000000000, 0.000000000000000000, 0.000000000000000000 ) ) ;
#888 = ORIENTED_EDGE ( 'NONE', *, *, #727, .F. ) ;
#889 = CARTESIAN_POINT ( 'NONE',  ( -0.07874015748031495954, 0.000000000000000000, 0.000000000000000000 ) ) ;
#890 = EDGE_CURVE ( 'NONE', #28, #362, #203, .T. ) ;
#891 = ORIENTED_EDGE ( 'NONE', *, *, #118, .T. ) ;
#892 = CARTESIAN_POINT ( 'NONE',  ( -0.6185039370078742049, 0.000000000000000000, 0.1000000000000000194 ) ) ;
#893 = AXIS2_PLACEMENT_3D ( 'NONE', #611, #389, #684 ) ;
#894 = AXIS2_PLACEMENT_3D ( 'NONE', #406, #542, #852 ) ;
#895 = VECTOR ( 'NONE', #965, 39.37007874015748143 ) ;
#896 = ORIENTED_EDGE ( 'NONE', *, *, #410, .T. ) ;
#897 = CARTESIAN_POINT ( 'NONE',  ( 0.000000000000000000, 0.000000000000000000, 0.8998720472440875362 ) ) ;
#898 = CARTESIAN_POINT ( 'NONE',  ( 0.000000000000000000, 0.000000000000000000, 0.9248720472440874474 ) ) ;
#899 = VERTEX_POINT ( 'NONE', #17 ) ;
#900 = DIRECTION ( 'NONE',  ( -0.000000000000000000, 0.000000000000000000, 1.000000000000000000 ) ) ;
#901 = EDGE_CURVE ( 'NONE', #905, #622, #74, .T. ) ;
#902 = APPROVAL_STATUS ( 'not_yet_approved' ) ;
#903 = CARTESIAN_POINT ( 'NONE',  ( 0.000000000000000000, 0.000000000000000000, -0.2025850384618715083 ) ) ;
#904 = EDGE_CURVE ( 'NONE', #140, #697, #862, .T. ) ;
#905 = VERTEX_POINT ( 'NONE', #327 ) ;
#906 = CARTESIAN_POINT ( 'NONE',  ( -0.07874015748031495954, 0.000000000000000000, 0.07874015748031489015 ) ) ;
#907 = AXIS2_PLACEMENT_3D ( 'NONE', #167, #247, #762 ) ;
#908 = CARTESIAN_POINT ( 'NONE',  ( -0.7145669291338585527, 0.000000000000000000, 0.7673917322834576948 ) ) ;
#909 = TOROIDAL_SURFACE ( 'NONE', #143, 0.6185039370078742049, 0.1000000000000000056 ) ;
#910 = ORIENTED_EDGE ( 'NONE', *, *, #290, .T. ) ;
#911 = CC_DESIGN_PERSON_AND_ORGANIZATION_ASSIGNMENT ( #137, #647, ( #841 ) ) ;
#912 = LINE ( 'NONE', #147, #159 ) ;
#913 = ADVANCED_FACE ( 'NONE', ( #483, #176 ), #242, .F. ) ;
#914 = DATE_AND_TIME ( #758, #9 ) ;
#915 = CARTESIAN_POINT ( 'NONE',  ( 0.2362204724409432133, -3.057279385909518408E-13, 0.000000000000000000 ) ) ;
#916 = CARTESIAN_POINT ( 'NONE',  ( 0.5610236220472442081, 6.870557829862121618E-17, 0.8998720472440875362 ) ) ;
#917 = FACE_OUTER_BOUND ( 'NONE', #329, .T. ) ;
#918 = DIRECTION ( 'NONE',  ( -0.000000000000000000, -0.000000000000000000, -1.000000000000000000 ) ) ;
#919 = DIRECTION ( 'NONE',  ( -1.224646799147353207E-16, 1.000000000000000000, 0.000000000000000000 ) ) ;
#920 = ADVANCED_FACE ( 'NONE', ( #100 ), #477, .F. ) ;
#921 = DIRECTION ( 'NONE',  ( 0.000000000000000000, 0.000000000000000000, 1.000000000000000000 ) ) ;
#922 = ORIENTED_EDGE ( 'NONE', *, *, #516, .F. ) ;
#923 = DIRECTION ( 'NONE',  ( -1.000000000000000000, 0.000000000000000000, 0.000000000000000000 ) ) ;
#924 = CIRCLE ( 'NONE', #718, 0.03937007874015747977 ) ;
#925 = CIRCLE ( 'NONE', #703, 0.7145669291338585527 ) ;
#926 = CARTESIAN_POINT ( 'NONE',  ( -0.1181102362207383516, -0.2045729300276681595, 0.000000000000000000 ) ) ;
#927 = ORIENTED_EDGE ( 'NONE', *, *, #63, .F. ) ;
#928 = CIRCLE ( 'NONE', #829, 0.03937007874015746589 ) ;
#929 = VERTEX_POINT ( 'NONE', #626 ) ;
#930 = CARTESIAN_POINT ( 'NONE',  ( -0.7185039370078742937, 0.000000000000000000, 0.8998720472440875362 ) ) ;
#931 = CARTESIAN_POINT ( 'NONE',  ( 0.000000000000000000, 0.000000000000000000, 0.000000000000000000 ) ) ;
#932 = ORIENTED_EDGE ( 'NONE', *, *, #949, .T. ) ;
#933 = CARTESIAN_POINT ( 'NONE',  ( 0.000000000000000000, 0.000000000000000000, 0.5798917322834576948 ) ) ;
#934 = DIRECTION ( 'NONE',  ( -0.000000000000000000, -0.000000000000000000, -1.000000000000000000 ) ) ;
#935 = FACE_BOUND ( 'NONE', #585, .T. ) ;
#936 = VERTEX_POINT ( 'NONE', #706 ) ;
#937 = ORIENTED_EDGE ( 'NONE', *, *, #113, .F. ) ;
#938 = FACE_BOUND ( 'NONE', #631, .T. ) ;
#939 = CARTESIAN_POINT ( 'NONE',  ( 0.1968503937007857474, -3.057279385909518408E-13, 0.07874015748031489015 ) ) ;
#940 = FACE_OUTER_BOUND ( 'NONE', #563, .T. ) ;
#941 = AXIS2_PLACEMENT_3D ( 'NONE', #322, #262, #546 ) ;
#942 = DIRECTION ( 'NONE',  ( -1.000000000000000000, 0.000000000000000000, 0.000000000000000000 ) ) ;
#943 = APPROVAL_PERSON_ORGANIZATION ( #79, #439, #966 ) ;
#944 = EDGE_CURVE ( 'NONE', #487, #632, #594, .T. ) ;
#945 = ADVANCED_FACE ( 'NONE', ( #115 ), #873, .F. ) ;
#946 = CARTESIAN_POINT ( 'NONE',  ( -0.7185039370078742937, 0.000000000000000000, -0.2025850384618715083 ) ) ;
#947 = APPROVAL_ROLE ( '' ) ;
#948 = PLANE ( 'NONE',  #323 ) ;
#949 = EDGE_CURVE ( 'NONE', #772, #905, #206, .T. ) ;
#950 = VERTEX_POINT ( 'NONE', #725 ) ;
#951 = FACE_OUTER_BOUND ( 'NONE', #875, .T. ) ;
#952 = CARTESIAN_POINT ( 'NONE',  ( 0.7185039370078742937, 8.799135466314647460E-17, -0.2025850384618715083 ) ) ;
#953 = DIRECTION ( 'NONE',  ( 0.000000000000000000, 0.000000000000000000, 1.000000000000000000 ) ) ;
#954 = VERTEX_POINT ( 'NONE', #495 ) ;
#955 = DIRECTION ( 'NONE',  ( -1.000000000000000000, 0.000000000000000000, 0.000000000000000000 ) ) ;
#956 = CIRCLE ( 'NONE', #764, 0.03937007874015747977 ) ;
#957 = VERTEX_POINT ( 'NONE', #286 ) ;
#958 = CIRCLE ( 'NONE', #765, 0.7185039370078742937 ) ;
#959 = CIRCLE ( 'NONE', #231, 0.03937007874015746589 ) ;
#960 = DIRECTION ( 'NONE',  ( -0.000000000000000000, -0.000000000000000000, -1.000000000000000000 ) ) ;
#961 = ORIENTED_EDGE ( 'NONE', *, *, #662, .T. ) ;
#962 = CARTESIAN_POINT ( 'NONE',  ( 0.000000000000000000, 0.000000000000000000, 0.000000000000000000 ) ) ;
#963 = CARTESIAN_POINT ( 'NONE',  ( 0.000000000000000000, 0.000000000000000000, -0.2025850384618715083 ) ) ;
#964 = ORIENTED_EDGE ( 'NONE', *, *, #545, .T. ) ;
#965 = DIRECTION ( 'NONE',  ( 0.000000000000000000, 0.000000000000000000, -1.000000000000000000 ) ) ;
#966 = APPROVAL_ROLE ( '' ) ;
#967 = DIRECTION ( 'NONE',  ( 0.000000000000000000, 0.000000000000000000, -1.000000000000000000 ) ) ;
#968 = ORIENTED_EDGE ( 'NONE', *, *, #113, .T. ) ;
#969 = LINE ( 'NONE', #761, #399 ) ;
#970 = VECTOR ( 'NONE', #599, 39.37007874015748143 ) ;
#971 = CIRCLE ( 'NONE', #24, 0.02500000000000000486 ) ;
#972 = AXIS2_PLACEMENT_3D ( 'NONE', #485, #976, #297 ) ;
#973 = CARTESIAN_POINT ( 'NONE',  ( -0.07874015748005243343, 0.2045729300279721108, 0.9248720472440874474 ) ) ;
#974 = EDGE_CURVE ( 'NONE', #936, #772, #670, .T. ) ;
#975 = ORIENTED_EDGE ( 'NONE', *, *, #524, .F. ) ;
#976 = DIRECTION ( 'NONE',  ( -0.000000000000000000, -0.000000000000000000, -1.000000000000000000 ) ) ;
ENDSEC;
END-ISO-10303-21;
