ISO-10303-21;
HEADER;
FILE_DESCRIPTION (( 'STEP AP203' ),
    '1' );
FILE_NAME ('O_ring holder base for Blade.STEP',
    '2026-03-20T23:29:53',
    ( '' ),
    ( '' ),
    'SwSTEP 2.0',
    'SolidWorks 2025',
    '' );
FILE_SCHEMA (( 'CONFIG_CONTROL_DESIGN' ));
ENDSEC;

DATA;
#1 = ORIENTED_EDGE ( 'NONE', *, *, #204, .T. ) ;
#2 = CIRCLE ( 'NONE', #98, 0.06250000000000001388 ) ;
#3 = AXIS2_PLACEMENT_3D ( 'NONE', #611, #497, #555 ) ;
#4 = DIRECTION ( 'NONE',  ( -0.000000000000000000, -1.000000000000000000, -9.963531394039649366E-17 ) ) ;
#5 = CARTESIAN_POINT ( 'NONE',  ( 0.000000000000000000, -0.1500000000000001055, 0.4249999999999999889 ) ) ;
#6 = EDGE_LOOP ( 'NONE', ( #426, #22, #489, #473 ) ) ;
#7 = DIRECTION ( 'NONE',  ( -0.000000000000000000, -1.000000000000000000, -9.963531394039649366E-17 ) ) ;
#8 = DIRECTION ( 'NONE',  ( 1.000000000000000000, 1.220180682991482309E-32, -1.224646799147353207E-16 ) ) ;
#9 = EDGE_LOOP ( 'NONE', ( #207, #26 ) ) ;
#10 = DIRECTION ( 'NONE',  ( 0.000000000000000000, -9.963531394039649366E-17, 1.000000000000000000 ) ) ;
#11 = DIRECTION ( 'NONE',  ( 0.000000000000000000, 9.963531394039649366E-17, -1.000000000000000000 ) ) ;
#12 = ADVANCED_FACE ( 'NONE', ( #433, #615, #330, #49 ), #670, .T. ) ;
#13 = ORIENTED_EDGE ( 'NONE', *, *, #283, .T. ) ;
#14 = CARTESIAN_POINT ( 'NONE',  ( 0.000000000000000000, -0.06250000000000013878, -6.227207121274794721E-18 ) ) ;
#15 = AXIS2_PLACEMENT_3D ( 'NONE', #5, #119, #130 ) ;
#16 = TOROIDAL_SURFACE ( 'NONE', #454, 0.5999999999999998668, 0.06250000000000000000 ) ;
#17 = CARTESIAN_POINT ( 'NONE',  ( 0.000000000000000000, 0.3499999999999997558, 3.487235987913875676E-17 ) ) ;
#18 = EDGE_CURVE ( 'NONE', #446, #83, #467, .T. ) ;
#19 = VERTEX_POINT ( 'NONE', #509 ) ;
#20 = DIRECTION ( 'NONE',  ( -0.000000000000000000, 1.000000000000000000, 9.963531394039648134E-17 ) ) ;
#21 = DIRECTION ( 'NONE',  ( 0.000000000000000000, 9.959862476900960267E-17, -1.000000000000000000 ) ) ;
#22 = ORIENTED_EDGE ( 'NONE', *, *, #287, .T. ) ;
#23 = CC_DESIGN_DATE_AND_TIME_ASSIGNMENT ( #212, #45, ( #731 ) ) ;
#24 = CARTESIAN_POINT ( 'NONE',  ( 0.000000000000000000, -0.04000000000000021594, -0.2362204700000000157 ) ) ;
#25 =( GEOMETRIC_REPRESENTATION_CONTEXT ( 3 ) GLOBAL_UNCERTAINTY_ASSIGNED_CONTEXT ( ( #656 ) ) GLOBAL_UNIT_ASSIGNED_CONTEXT ( ( #709, #205, #263 ) ) REPRESENTATION_CONTEXT ( 'NONE', 'WORKASPACE' ) );
#26 = ORIENTED_EDGE ( 'NONE', *, *, #47, .F. ) ;
#27 = CARTESIAN_POINT ( 'NONE',  ( 0.000000000000000000, 0.06250000000000016653, 6.227207121274797032E-18 ) ) ;
#28 = AXIS2_PLACEMENT_3D ( 'NONE', #337, #168, #744 ) ;
#29 = EDGE_LOOP ( 'NONE', ( #378, #708 ) ) ;
#30 = LENGTH_MEASURE_WITH_UNIT ( LENGTH_MEASURE( 0.02539999999999999897 ), #663 );
#31 = CARTESIAN_POINT ( 'NONE',  ( 7.232166368126291290E-18, 0.3499999999999997002, 0.3659448799999999724 ) ) ;
#32 = DIRECTION ( 'NONE',  ( 0.000000000000000000, 0.000000000000000000, 1.000000000000000000 ) ) ;
#33 = CC_DESIGN_SECURITY_CLASSIFICATION ( #177, ( #683 ) ) ;
#34 = DIRECTION ( 'NONE',  ( 0.000000000000000000, 9.963531394039649366E-17, -1.000000000000000000 ) ) ;
#35 = AXIS2_PLACEMENT_3D ( 'NONE', #308, #243, #699 ) ;
#36 = AXIS2_PLACEMENT_3D ( 'NONE', #298, #586, #11 ) ;
#37 = PERSON_AND_ORGANIZATION ( #231, #226 ) ;
#38 = ORIENTED_EDGE ( 'NONE', *, *, #272, .T. ) ;
#39 = CYLINDRICAL_SURFACE ( 'NONE', #121, 0.05905511999999997486 ) ;
#40 = ORIENTED_EDGE ( 'NONE', *, *, #18, .T. ) ;
#41 = COORDINATED_UNIVERSAL_TIME_OFFSET ( 8, 0, .BEHIND. ) ;
#42 = APPROVAL ( #203, 'UNSPECIFIED' ) ;
#43 = CARTESIAN_POINT ( 'NONE',  ( 0.000000000000000000, -0.06250000000000013878, -6.227207121274795491E-18 ) ) ;
#44 = DIRECTION ( 'NONE',  ( 0.000000000000000000, -1.000000000000000000, -9.963531394039649366E-17 ) ) ;
#45 = DATE_TIME_ROLE ( 'creation_date' ) ;
#46 = VERTEX_POINT ( 'NONE', #565 ) ;
#47 = EDGE_CURVE ( 'NONE', #460, #743, #479, .T. ) ;
#48 = DIRECTION ( 'NONE',  ( -0.000000000000000000, -1.000000000000000000, -9.963531394039649366E-17 ) ) ;
#49 = FACE_OUTER_BOUND ( 'NONE', #654, .T. ) ;
#50 = SECURITY_CLASSIFICATION_LEVEL ( 'unclassified' ) ;
#51 = ORIENTED_EDGE ( 'NONE', *, *, #690, .T. ) ;
#52 = CARTESIAN_POINT ( 'NONE',  ( 0.000000000000000000, 0.000000000000000000, 0.000000000000000000 ) ) ;
#53 = VECTOR ( 'NONE', #561, 39.37007874015748143 ) ;
#54 = PLANE ( 'NONE',  #700 ) ;
#55 = CARTESIAN_POINT ( 'NONE',  ( 6.582476545417021855E-17, 2.135166207927423806E-17, 0.5374999999999998668 ) ) ;
#56 = EDGE_CURVE ( 'NONE', #266, #71, #278, .T. ) ;
#57 = ORIENTED_EDGE ( 'NONE', *, *, #550, .T. ) ;
#58 = CYLINDRICAL_SURFACE ( 'NONE', #257, 0.2362204700000000157 ) ;
#59 = CARTESIAN_POINT ( 'NONE',  ( 7.232166368126292831E-18, -0.1500000000000001055, 0.3659448799999999724 ) ) ;
#60 = EDGE_LOOP ( 'NONE', ( #251, #91 ) ) ;
#61 = CARTESIAN_POINT ( 'NONE',  ( 0.000000000000000000, -0.06250000000000006939, -0.6049999999999999822 ) ) ;
#62 = ORIENTED_EDGE ( 'NONE', *, *, #79, .F. ) ;
#63 = EDGE_CURVE ( 'NONE', #583, #577, #179, .T. ) ;
#64 = VECTOR ( 'NONE', #211, 39.37007874015748143 ) ;
#65 = AXIS2_PLACEMENT_3D ( 'NONE', #548, #740, #101 ) ;
#66 = CARTESIAN_POINT ( 'NONE',  ( 0.000000000000000000, -0.06250000000000013878, -6.227207121274795491E-18 ) ) ;
#67 = CARTESIAN_POINT ( 'NONE',  ( 0.000000000000000000, -0.1500000000000000500, -0.3659448799999999724 ) ) ;
#68 = ORIENTED_EDGE ( 'NONE', *, *, #685, .T. ) ;
#69 = CARTESIAN_POINT ( 'NONE',  ( 0.000000000000000000, 0.000000000000000000, 0.000000000000000000 ) ) ;
#70 = CARTESIAN_POINT ( 'NONE',  ( 3.857155273869339231E-17, -0.04000000000000022288, -0.3149606300000000747 ) ) ;
#71 = VERTEX_POINT ( 'NONE', #444 ) ;
#72 = CARTESIAN_POINT ( 'NONE',  ( 0.000000000000000000, 0.2499999999999997224, 2.490882848509909568E-17 ) ) ;
#73 = FACE_BOUND ( 'NONE', #628, .T. ) ;
#74 = VERTEX_POINT ( 'NONE', #343 ) ;
#75 = FACE_OUTER_BOUND ( 'NONE', #519, .T. ) ;
#76 = CIRCLE ( 'NONE', #362, 0.2362204700000000157 ) ;
#77 = AXIS2_PLACEMENT_3D ( 'NONE', #715, #599, #32 ) ;
#78 = CARTESIAN_POINT ( 'NONE',  ( 0.000000000000000000, -0.1500000000000001055, 0.4840551199999999499 ) ) ;
#79 = EDGE_CURVE ( 'NONE', #232, #46, #165, .T. ) ;
#80 = ORIENTED_EDGE ( 'NONE', *, *, #63, .T. ) ;
#81 = FACE_OUTER_BOUND ( 'NONE', #637, .T. ) ;
#82 = PRODUCT_DEFINITION_SHAPE ( 'NONE', 'NONE',  #731 ) ;
#83 = VERTEX_POINT ( 'NONE', #61 ) ;
#84 = LINE ( 'NONE', #374, #140 ) ;
#85 = VERTEX_POINT ( 'NONE', #612 ) ;
#86 = AXIS2_PLACEMENT_3D ( 'NONE', #108, #562, #568 ) ;
#87 = CARTESIAN_POINT ( 'NONE',  ( 0.000000000000000000, -0.04000000000000025757, -3.985412557615883382E-18 ) ) ;
#88 = AXIS2_PLACEMENT_3D ( 'NONE', #535, #197, #90 ) ;
#89 = AXIS2_PLACEMENT_3D ( 'NONE', #242, #297, #176 ) ;
#90 = DIRECTION ( 'NONE',  ( 0.000000000000000000, -1.084202172214453676E-16, 1.000000000000000000 ) ) ;
#91 = ORIENTED_EDGE ( 'NONE', *, *, #678, .F. ) ;
#92 = DIRECTION ( 'NONE',  ( 0.000000000000000000, 1.000000000000000000, 9.963531394039649366E-17 ) ) ;
#93 = COORDINATED_UNIVERSAL_TIME_OFFSET ( 8, 0, .BEHIND. ) ;
#94 = ORIENTED_EDGE ( 'NONE', *, *, #314, .F. ) ;
#95 = CIRCLE ( 'NONE', #162, 0.6049999999999999822 ) ;
#96 = DIRECTION ( 'NONE',  ( 0.000000000000000000, 1.000000000000000000, 9.963531394039649366E-17 ) ) ;
#97 = VERTEX_POINT ( 'NONE', #59 ) ;
#98 = AXIS2_PLACEMENT_3D ( 'NONE', #173, #574, #522 ) ;
#99 = TOROIDAL_SURFACE ( 'NONE', #28, 0.5050000000000001155, 0.1000000000000000056 ) ;
#100 = DATE_TIME_ROLE ( 'classification_date' ) ;
#101 = DIRECTION ( 'NONE',  ( 0.000000000000000000, -1.128862807299282136E-16, 1.000000000000000000 ) ) ;
#102 = FACE_OUTER_BOUND ( 'NONE', #418, .T. ) ;
#103 = CALENDAR_DATE ( 2026, 20, 3 ) ;
#104 = ORIENTED_EDGE ( 'NONE', *, *, #18, .F. ) ;
#105 = CARTESIAN_POINT ( 'NONE',  ( 7.232166368126292831E-18, -0.1500000000000000500, -0.4840551199999999499 ) ) ;
#106 = CARTESIAN_POINT ( 'NONE',  ( 0.000000000000000000, -0.06250000000000013878, -6.227207121274794721E-18 ) ) ;
#107 = LINE ( 'NONE', #227, #53 ) ;
#108 = CARTESIAN_POINT ( 'NONE',  ( 0.000000000000000000, 0.000000000000000000, 0.000000000000000000 ) ) ;
#109 = TOROIDAL_SURFACE ( 'NONE', #527, 0.5999999999999998668, 0.06250000000000000000 ) ;
#110 = APPROVAL_DATE_TIME ( #335, #233 ) ;
#111 = AXIS2_PLACEMENT_3D ( 'NONE', #707, #8, #239 ) ;
#112 = ORIENTED_EDGE ( 'NONE', *, *, #521, .T. ) ;
#113 = CARTESIAN_POINT ( 'NONE',  ( 3.857155273869339231E-17, 0.3499999999999997558, -0.3149606299999999637 ) ) ;
#114 = DIRECTION ( 'NONE',  ( -0.000000000000000000, 1.000000000000000000, 9.963531394039648134E-17 ) ) ;
#115 = ORIENTED_EDGE ( 'NONE', *, *, #407, .F. ) ;
#116 = CARTESIAN_POINT ( 'NONE',  ( 0.000000000000000000, 6.027936493393988187E-17, -0.6049999999999999822 ) ) ;
#117 = ORIENTED_EDGE ( 'NONE', *, *, #644, .F. ) ;
#118 = DIRECTION ( 'NONE',  ( -0.000000000000000000, -1.000000000000000000, -9.963531394039649366E-17 ) ) ;
#119 = DIRECTION ( 'NONE',  ( 0.000000000000000000, 1.000000000000000000, 9.963531394039649366E-17 ) ) ;
#120 = ORIENTED_EDGE ( 'NONE', *, *, #187, .T. ) ;
#121 = AXIS2_PLACEMENT_3D ( 'NONE', #269, #210, #669 ) ;
#122 = CYLINDRICAL_SURFACE ( 'NONE', #501, 0.6050000000000000933 ) ;
#123 = LINE ( 'NONE', #704, #719 ) ;
#124 = EDGE_LOOP ( 'NONE', ( #112, #492, #534, #396 ) ) ;
#125 = PERSON_AND_ORGANIZATION ( #231, #226 ) ;
#126 = DIRECTION ( 'NONE',  ( -0.000000000000000000, -1.000000000000000000, -9.963531394039649366E-17 ) ) ;
#127 = FACE_BOUND ( 'NONE', #503, .T. ) ;
#128 = ORIENTED_EDGE ( 'NONE', *, *, #198, .F. ) ;
#129 = ADVANCED_FACE ( 'NONE', ( #102 ), #158, .T. ) ;
#130 = DIRECTION ( 'NONE',  ( 0.000000000000000000, 0.000000000000000000, 1.000000000000000000 ) ) ;
#131 = ORIENTED_EDGE ( 'NONE', *, *, #63, .F. ) ;
#132 = AXIS2_PLACEMENT_3D ( 'NONE', #717, #655, #138 ) ;
#133 = CARTESIAN_POINT ( 'NONE',  ( 0.000000000000000000, -0.1500000000000001055, 0.4249999999999999889 ) ) ;
#134 = EDGE_CURVE ( 'NONE', #714, #19, #244, .T. ) ;
#135 = EDGE_LOOP ( 'NONE', ( #549, #57 ) ) ;
#136 = CARTESIAN_POINT ( 'NONE',  ( 0.000000000000000000, 7.347880794884117764E-17, -0.5999999999999998668 ) ) ;
#137 = EDGE_LOOP ( 'NONE', ( #400, #609, #184, #652 ) ) ;
#138 = DIRECTION ( 'NONE',  ( 0.000000000000000000, 9.963531394039650599E-17, -1.000000000000000000 ) ) ;
#139 = AXIS2_PLACEMENT_3D ( 'NONE', #732, #215, #290 ) ;
#140 = VECTOR ( 'NONE', #593, 39.37007874015748143 ) ;
#141 = ADVANCED_FACE ( 'NONE', ( #505 ), #313, .F. ) ;
#142 = CARTESIAN_POINT ( 'NONE',  ( 0.000000000000000000, 0.3499999999999998113, -0.4249999999999999889 ) ) ;
#143 = CALENDAR_DATE ( 2026, 20, 3 ) ;
#144 = FACE_OUTER_BOUND ( 'NONE', #149, .T. ) ;
#145 = DESIGN_CONTEXT ( 'detailed design', #440, 'design' ) ;
#146 = EDGE_CURVE ( 'NONE', #19, #366, #351, .T. ) ;
#147 = VERTEX_POINT ( 'NONE', #339 ) ;
#148 = PERSON_AND_ORGANIZATION_ROLE ( 'design_supplier' ) ;
#149 = EDGE_LOOP ( 'NONE', ( #94, #602, #360, #672 ) ) ;
#150 = DIRECTION ( 'NONE',  ( 0.000000000000000000, -1.000000000000000000, -9.963531394039649366E-17 ) ) ;
#151 = EDGE_CURVE ( 'NONE', #83, #380, #386, .T. ) ;
#152 = DIRECTION ( 'NONE',  ( -0.000000000000000000, -1.000000000000000000, -9.963531394039649366E-17 ) ) ;
#153 = CIRCLE ( 'NONE', #3, 0.3149606300000000747 ) ;
#154 = FACE_OUTER_BOUND ( 'NONE', #689, .T. ) ;
#155 = CARTESIAN_POINT ( 'NONE',  ( 0.000000000000000000, 1.369761958460329746E-17, 0.000000000000000000 ) ) ;
#156 = DATE_AND_TIME ( #271, #190 ) ;
#157 = DIRECTION ( 'NONE',  ( 0.000000000000000000, 1.000000000000000000, 9.963531394039649366E-17 ) ) ;
#158 = CYLINDRICAL_SURFACE ( 'NONE', #139, 0.6050000000000000933 ) ;
#159 = PERSON_AND_ORGANIZATION_ROLE ( 'creator' ) ;
#160 = ADVANCED_FACE ( 'NONE', ( #618 ), #682, .T. ) ;
#161 = EDGE_LOOP ( 'NONE', ( #480, #225, #606, #270 ) ) ;
#162 = AXIS2_PLACEMENT_3D ( 'NONE', #645, #126, #358 ) ;
#163 = FACE_OUTER_BOUND ( 'NONE', #137, .T. ) ;
#164 = CYLINDRICAL_SURFACE ( 'NONE', #338, 0.3149606300000000747 ) ;
#165 = CIRCLE ( 'NONE', #229, 0.05905511999999997486 ) ;
#166 = AXIS2_PLACEMENT_3D ( 'NONE', #451, #325, #431 ) ;
#167 = ORIENTED_EDGE ( 'NONE', *, *, #56, .T. ) ;
#168 = DIRECTION ( 'NONE',  ( 0.000000000000000000, 1.000000000000000000, 9.963531394039649366E-17 ) ) ;
#169 = DIRECTION ( 'NONE',  ( 0.000000000000000000, 0.000000000000000000, 1.000000000000000000 ) ) ;
#170 = ORIENTED_EDGE ( 'NONE', *, *, #716, .T. ) ;
#171 = MECHANICAL_CONTEXT ( 'NONE', #427, 'mechanical' ) ;
#172 = DIRECTION ( 'NONE',  ( 0.000000000000000000, 0.000000000000000000, 1.000000000000000000 ) ) ;
#173 = CARTESIAN_POINT ( 'NONE',  ( 7.347880794884117764E-17, -4.608356877963458887E-17, 0.5999999999999998668 ) ) ;
#174 = CC_DESIGN_DATE_AND_TIME_ASSIGNMENT ( #218, #100, ( #177 ) ) ;
#175 = VERTEX_POINT ( 'NONE', #55 ) ;
#176 = DIRECTION ( 'NONE',  ( 0.000000000000000000, 0.000000000000000000, 1.000000000000000000 ) ) ;
#177 = SECURITY_CLASSIFICATION ( '', '', #50 ) ;
#178 = DIRECTION ( 'NONE',  ( 0.000000000000000000, 0.000000000000000000, 1.000000000000000000 ) ) ;
#179 = CIRCLE ( 'NONE', #671, 0.05905511999999997486 ) ;
#180 = ORIENTED_EDGE ( 'NONE', *, *, #533, .T. ) ;
#181 = AXIS2_PLACEMENT_3D ( 'NONE', #142, #92, #320 ) ;
#182 = FACE_OUTER_BOUND ( 'NONE', #341, .T. ) ;
#183 = DIRECTION ( 'NONE',  ( -0.000000000000000000, -1.000000000000000000, -9.963531394039649366E-17 ) ) ;
#184 = ORIENTED_EDGE ( 'NONE', *, *, #292, .T. ) ;
#185 = FACE_OUTER_BOUND ( 'NONE', #723, .T. ) ;
#186 = ORIENTED_EDGE ( 'NONE', *, *, #533, .F. ) ;
#187 = EDGE_CURVE ( 'NONE', #213, #643, #282, .T. ) ;
#188 = DIRECTION ( 'NONE',  ( -0.000000000000000000, -1.000000000000000000, -9.963531394039649366E-17 ) ) ;
#189 = DIRECTION ( 'NONE',  ( -0.000000000000000000, 1.000000000000000000, 9.963531394039649366E-17 ) ) ;
#190 = LOCAL_TIME ( 16, 29, 53.00000000000000000, #41 ) ;
#191 = EDGE_LOOP ( 'NONE', ( #51, #728, #523, #571 ) ) ;
#192 = CIRCLE ( 'NONE', #596, 0.6049999999999999822 ) ;
#193 = DIRECTION ( 'NONE',  ( 0.000000000000000000, -1.084202183688926978E-16, 1.000000000000000000 ) ) ;
#194 = ADVANCED_FACE ( 'NONE', ( #224 ), #164, .F. ) ;
#195 = ORIENTED_EDGE ( 'NONE', *, *, #474, .T. ) ;
#196 = CARTESIAN_POINT ( 'NONE',  ( 2.892866424785834137E-17, -0.1500000000000000500, 0.2362204700000000157 ) ) ;
#197 = DIRECTION ( 'NONE',  ( 0.000000000000000000, 1.000000000000000000, 9.963531394039649366E-17 ) ) ;
#198 = EDGE_CURVE ( 'NONE', #266, #97, #697, .T. ) ;
#199 = CIRCLE ( 'NONE', #621, 0.5999999999999998668 ) ;
#200 = FACE_OUTER_BOUND ( 'NONE', #191, .T. ) ;
#201 = AXIS2_PLACEMENT_3D ( 'NONE', #133, #646, #582 ) ;
#202 = CIRCLE ( 'NONE', #371, 0.05905511999999997486 ) ;
#203 = APPROVAL_STATUS ( 'not_yet_approved' ) ;
#204 = EDGE_CURVE ( 'NONE', #412, #496, #462, .T. ) ;
#205 =( NAMED_UNIT ( * ) PLANE_ANGLE_UNIT ( ) SI_UNIT ( $, .RADIAN. ) );
#206 = CARTESIAN_POINT ( 'NONE',  ( 6.796789735267812506E-17, 0.3499999999999998113, -0.5050000000000001155 ) ) ;
#207 = ORIENTED_EDGE ( 'NONE', *, *, #221, .F. ) ;
#208 = PERSON_AND_ORGANIZATION_ROLE ( 'classification_officer' ) ;
#209 = ADVANCED_FACE ( 'NONE', ( #466 ), #109, .F. ) ;
#210 = DIRECTION ( 'NONE',  ( -0.000000000000000000, 1.000000000000000000, 9.963531394039649366E-17 ) ) ;
#211 = DIRECTION ( 'NONE',  ( -0.000000000000000000, 1.000000000000000000, 9.963531394039649366E-17 ) ) ;
#212 = DATE_AND_TIME ( #675, #478 ) ;
#213 = VERTEX_POINT ( 'NONE', #413 ) ;
#214 = FACE_BOUND ( 'NONE', #9, .T. ) ;
#215 = DIRECTION ( 'NONE',  ( -0.000000000000000000, -1.000000000000000000, -9.963531394039649366E-17 ) ) ;
#216 = CLOSED_SHELL ( 'NONE', ( #347, #141, #622, #511, #541, #605, #281, #428, #209, #657, #129, #576, #357, #650, #160, #12, #194, #631, #710, #662, #616, #336, #445 ) ) ;
#217 = AXIS2_PLACEMENT_3D ( 'NONE', #17, #249, #472 ) ;
#218 = DATE_AND_TIME ( #724, #434 ) ;
#219 = CARTESIAN_POINT ( 'NONE',  ( 0.000000000000000000, -0.1500000000000000500, -0.4249999999999999889 ) ) ;
#220 = CARTESIAN_POINT ( 'NONE',  ( 0.000000000000000000, -0.1500000000000000500, -0.4249999999999999889 ) ) ;
#221 = EDGE_CURVE ( 'NONE', #743, #460, #199, .T. ) ;
#222 = ORIENTED_EDGE ( 'NONE', *, *, #737, .F. ) ;
#223 = CARTESIAN_POINT ( 'NONE',  ( 0.000000000000000000, 0.06250000000000015266, -0.6049999999999999822 ) ) ;
#224 = FACE_OUTER_BOUND ( 'NONE', #284, .T. ) ;
#225 = ORIENTED_EDGE ( 'NONE', *, *, #250, .T. ) ;
#226 = ORGANIZATION ( 'UNSPECIFIED', 'UNSPECIFIED', '' ) ;
#227 = CARTESIAN_POINT ( 'NONE',  ( 7.232166368126283586E-18, -0.1500000000000000500, -0.4840551199999999499 ) ) ;
#228 = DIRECTION ( 'NONE',  ( 0.000000000000000000, 9.877549563868719001E-17, -1.000000000000000000 ) ) ;
#229 = AXIS2_PLACEMENT_3D ( 'NONE', #383, #677, #498 ) ;
#230 = AXIS2_PLACEMENT_3D ( 'NONE', #603, #367, #317 ) ;
#231 = PERSON ( 'UNSPECIFIED', 'UNSPECIFIED', 'UNSPECIFIED', ('UNSPECIFIED'), ('UNSPECIFIED'), ('UNSPECIFIED') ) ;
#232 = VERTEX_POINT ( 'NONE', #350 ) ;
#233 = APPROVAL ( #727, 'UNSPECIFIED' ) ;
#234 = CARTESIAN_POINT ( 'NONE',  ( 0.000000000000000000, -0.04000000000000023676, -3.985412557615884922E-18 ) ) ;
#235 = CARTESIAN_POINT ( 'NONE',  ( 0.000000000000000000, 0.06250000000000001388, 6.227207121274782395E-18 ) ) ;
#236 = ORIENTED_EDGE ( 'NONE', *, *, #321, .T. ) ;
#237 = APPLICATION_PROTOCOL_DEFINITION ( 'international standard', 'config_control_design', 1994, #440 ) ;
#238 = DIRECTION ( 'NONE',  ( 0.000000000000000000, 9.959862476900960267E-17, -1.000000000000000000 ) ) ;
#239 = DIRECTION ( 'NONE',  ( -1.224646799147352961E-16, 0.000000000000000000, -1.000000000000000000 ) ) ;
#240 = ORIENTED_EDGE ( 'NONE', *, *, #260, .F. ) ;
#241 = PERSON_AND_ORGANIZATION ( #231, #226 ) ;
#242 = CARTESIAN_POINT ( 'NONE',  ( 0.000000000000000000, -0.1500000000000001055, 0.4249999999999999889 ) ) ;
#243 = DIRECTION ( 'NONE',  ( -0.000000000000000000, 1.000000000000000000, 9.963531394039648134E-17 ) ) ;
#244 = CIRCLE ( 'NONE', #559, 0.1000000000000000194 ) ;
#245 = ORIENTED_EDGE ( 'NONE', *, *, #600, .F. ) ;
#246 = CIRCLE ( 'NONE', #36, 0.5374999999999998668 ) ;
#247 = CIRCLE ( 'NONE', #597, 0.2362204700000000157 ) ;
#248 = CARTESIAN_POINT ( 'NONE',  ( 2.892866424785834137E-17, -0.04000000000000026451, 0.2362204700000000157 ) ) ;
#249 = DIRECTION ( 'NONE',  ( 0.000000000000000000, 1.000000000000000000, 9.963531394039649366E-17 ) ) ;
#250 = EDGE_CURVE ( 'NONE', #97, #420, #123, .T. ) ;
#251 = ORIENTED_EDGE ( 'NONE', *, *, #474, .F. ) ;
#252 = DIRECTION ( 'NONE',  ( -0.000000000000000000, -1.000000000000000000, -9.963531394039649366E-17 ) ) ;
#253 = CARTESIAN_POINT ( 'NONE',  ( 0.000000000000000000, -0.1500000000000000500, -0.4249999999999999889 ) ) ;
#254 = ORIENTED_EDGE ( 'NONE', *, *, #544, .F. ) ;
#255 = FACE_OUTER_BOUND ( 'NONE', #594, .T. ) ;
#256 = ORIENTED_EDGE ( 'NONE', *, *, #79, .T. ) ;
#257 = AXIS2_PLACEMENT_3D ( 'NONE', #333, #48, #275 ) ;
#258 = CARTESIAN_POINT ( 'NONE',  ( 0.000000000000000000, 1.369761958460329746E-17, 0.000000000000000000 ) ) ;
#259 = DIRECTION ( 'NONE',  ( -1.000000000000000000, 0.000000000000000000, 0.000000000000000000 ) ) ;
#260 = EDGE_CURVE ( 'NONE', #446, #403, #355, .T. ) ;
#261 = PERSON_AND_ORGANIZATION_ROLE ( 'creator' ) ;
#262 = ORIENTED_EDGE ( 'NONE', *, *, #204, .F. ) ;
#263 =( NAMED_UNIT ( * ) SI_UNIT ( $, .STERADIAN. ) SOLID_ANGLE_UNIT ( ) );
#264 = AXIS2_PLACEMENT_3D ( 'NONE', #448, #630, #388 ) ;
#265 = CARTESIAN_POINT ( 'NONE',  ( 7.409113134841487754E-17, -0.1500000000000001332, 0.6050000000000000933 ) ) ;
#266 = VERTEX_POINT ( 'NONE', #78 ) ;
#267 = APPROVAL_ROLE ( '' ) ;
#268 = ORIENTED_EDGE ( 'NONE', *, *, #544, .T. ) ;
#269 = CARTESIAN_POINT ( 'NONE',  ( 0.000000000000000000, -0.1500000000000001055, 0.4249999999999999889 ) ) ;
#270 = ORIENTED_EDGE ( 'NONE', *, *, #56, .F. ) ;
#271 = CALENDAR_DATE ( 2026, 20, 3 ) ;
#272 = EDGE_CURVE ( 'NONE', #470, #376, #76, .T. ) ;
#273 = PLANE ( 'NONE',  #642 ) ;
#274 = CARTESIAN_POINT ( 'NONE',  ( 0.000000000000000000, -0.1500000000000001055, 0.4840551199999999499 ) ) ;
#275 = DIRECTION ( 'NONE',  ( 0.000000000000000000, 7.228014557926179442E-17, -1.000000000000000000 ) ) ;
#276 = CC_DESIGN_PERSON_AND_ORGANIZATION_ASSIGNMENT ( #241, #633, ( #591 ) ) ;
#277 = AXIS2_PLACEMENT_3D ( 'NONE', #106, #513, #228 ) ;
#278 = LINE ( 'NONE', #274, #64 ) ;
#279 = CIRCLE ( 'NONE', #382, 0.2362204700000000157 ) ;
#280 = DIRECTION ( 'NONE',  ( 0.000000000000000000, 9.963531394039649366E-17, -1.000000000000000000 ) ) ;
#281 = ADVANCED_FACE ( 'NONE', ( #81 ), #402, .F. ) ;
#282 = LINE ( 'NONE', #394, #659 ) ;
#283 = EDGE_CURVE ( 'NONE', #577, #583, #452, .T. ) ;
#284 = EDGE_LOOP ( 'NONE', ( #326, #288, #1, #299 ) ) ;
#285 = FACE_OUTER_BOUND ( 'NONE', #356, .T. ) ;
#286 = DIRECTION ( 'NONE',  ( 0.000000000000000000, 9.963531394039649366E-17, -1.000000000000000000 ) ) ;
#287 = EDGE_CURVE ( 'NONE', #175, #460, #2, .T. ) ;
#288 = ORIENTED_EDGE ( 'NONE', *, *, #463, .F. ) ;
#289 = DIRECTION ( 'NONE',  ( 0.000000000000000000, -9.963531394039649366E-17, 1.000000000000000000 ) ) ;
#290 = DIRECTION ( 'NONE',  ( 0.000000000000000000, 9.963531394039648134E-17, -1.000000000000000000 ) ) ;
#291 = CIRCLE ( 'NONE', #720, 0.3149606300000000747 ) ;
#292 = EDGE_CURVE ( 'NONE', #577, #46, #476, .T. ) ;
#293 = ORIENTED_EDGE ( 'NONE', *, *, #625, .T. ) ;
#294 = LINE ( 'NONE', #634, #304 ) ;
#295 = DIRECTION ( 'NONE',  ( -0.000000000000000000, -1.000000000000000000, -9.963531394039649366E-17 ) ) ;
#296 = VERTEX_POINT ( 'NONE', #70 ) ;
#297 = DIRECTION ( 'NONE',  ( -0.000000000000000000, 1.000000000000000000, 9.963531394039649366E-17 ) ) ;
#298 = CARTESIAN_POINT ( 'NONE',  ( 0.000000000000000000, 2.135166207927425347E-17, 7.626129268696763574E-34 ) ) ;
#299 = ORIENTED_EDGE ( 'NONE', *, *, #468, .T. ) ;
#300 = AXIS2_PLACEMENT_3D ( 'NONE', #52, #679, #739 ) ;
#301 = DIRECTION ( 'NONE',  ( -0.000000000000000000, 1.000000000000000000, 9.963531394039648134E-17 ) ) ;
#302 = ORIENTED_EDGE ( 'NONE', *, *, #550, .F. ) ;
#303 = CIRCLE ( 'NONE', #88, 0.3149606300000000747 ) ;
#304 = VECTOR ( 'NONE', #20, 39.37007874015748143 ) ;
#305 = CARTESIAN_POINT ( 'NONE',  ( 7.409113134841485289E-17, -6.027936493393988187E-17, 0.6049999999999999822 ) ) ;
#306 = EDGE_CURVE ( 'NONE', #322, #175, #488, .T. ) ;
#307 = ORIENTED_EDGE ( 'NONE', *, *, #737, .T. ) ;
#308 = CARTESIAN_POINT ( 'NONE',  ( 0.000000000000000000, -0.04000000000000025757, -3.985412557615883382E-18 ) ) ;
#309 = ORIENTED_EDGE ( 'NONE', *, *, #398, .T. ) ;
#310 = DIRECTION ( 'NONE',  ( 0.000000000000000000, 1.000000000000000000, 9.963531394039649366E-17 ) ) ;
#311 = AXIS2_PLACEMENT_3D ( 'NONE', #415, #252, #573 ) ;
#312 = EDGE_LOOP ( 'NONE', ( #240, #40, #455, #222 ) ) ;
#313 = TOROIDAL_SURFACE ( 'NONE', #639, 0.5999999999999998668, 0.06250000000000000000 ) ;
#314 = EDGE_CURVE ( 'NONE', #147, #175, #246, .T. ) ;
#315 = AXIS2_PLACEMENT_3D ( 'NONE', #508, #437, #280 ) ;
#316 = AXIS2_PLACEMENT_3D ( 'NONE', #258, #545, #34 ) ;
#317 = DIRECTION ( 'NONE',  ( 0.000000000000000000, -9.963531394039649366E-17, 1.000000000000000000 ) ) ;
#318 = DIRECTION ( 'NONE',  ( 1.224646799147352468E-16, 0.000000000000000000, -1.000000000000000000 ) ) ;
#319 = ORIENTED_EDGE ( 'NONE', *, *, #198, .T. ) ;
#320 = DIRECTION ( 'NONE',  ( 0.000000000000000000, 0.000000000000000000, 1.000000000000000000 ) ) ;
#321 = EDGE_CURVE ( 'NONE', #380, #403, #192, .T. ) ;
#322 = VERTEX_POINT ( 'NONE', #411 ) ;
#323 = APPLICATION_PROTOCOL_DEFINITION ( 'international standard', 'config_control_design', 1994, #427 ) ;
#324 = AXIS2_PLACEMENT_3D ( 'NONE', #253, #635, #178 ) ;
#325 = DIRECTION ( 'NONE',  ( -0.000000000000000000, 1.000000000000000000, 9.963531394039649366E-17 ) ) ;
#326 = ORIENTED_EDGE ( 'NONE', *, *, #685, .F. ) ;
#327 = EDGE_CURVE ( 'NONE', #97, #266, #734, .T. ) ;
#328 = ORIENTED_EDGE ( 'NONE', *, *, #463, .T. ) ;
#329 = FACE_OUTER_BOUND ( 'NONE', #613, .T. ) ;
#330 = FACE_BOUND ( 'NONE', #29, .T. ) ;
#331 = CC_DESIGN_PERSON_AND_ORGANIZATION_ASSIGNMENT ( #37, #148, ( #683 ) ) ;
#332 = ORIENTED_EDGE ( 'NONE', *, *, #457, .F. ) ;
#333 = CARTESIAN_POINT ( 'NONE',  ( 0.000000000000000000, 0.1499999999999998557, 1.494529709105945618E-17 ) ) ;
#334 = DIRECTION ( 'NONE',  ( -0.000000000000000000, -1.000000000000000000, -9.963531394039649366E-17 ) ) ;
#335 = DATE_AND_TIME ( #103, #636 ) ;
#336 = ADVANCED_FACE ( 'NONE', ( #364, #127, #359, #73 ), #526, .T. ) ;
#337 = CARTESIAN_POINT ( 'NONE',  ( 0.000000000000000000, 0.2499999999999997224, 2.490882848509909568E-17 ) ) ;
#338 = AXIS2_PLACEMENT_3D ( 'NONE', #627, #114, #346 ) ;
#339 = CARTESIAN_POINT ( 'NONE',  ( 0.000000000000000000, 2.135166207927426888E-17, -0.5374999999999998668 ) ) ;
#340 = CIRCLE ( 'NONE', #181, 0.05905511999999997486 ) ;
#341 = EDGE_LOOP ( 'NONE', ( #647, #309, #414, #38 ) ) ;
#342 = CARTESIAN_POINT ( 'NONE',  ( 0.000000000000000000, -0.1500000000000000500, -0.3659448799999999724 ) ) ;
#343 = CARTESIAN_POINT ( 'NONE',  ( 0.000000000000000000, -0.06250000000000000000, -0.5999999999999998668 ) ) ;
#344 = ORIENTED_EDGE ( 'NONE', *, *, #327, .T. ) ;
#345 = PLANE ( 'NONE',  #529 ) ;
#346 = DIRECTION ( 'NONE',  ( 0.000000000000000000, -1.084202172214453676E-16, 1.000000000000000000 ) ) ;
#347 = ADVANCED_FACE ( 'NONE', ( #185 ), #16, .F. ) ;
#348 = ORIENTED_EDGE ( 'NONE', *, *, #250, .F. ) ;
#349 = DIRECTION ( 'NONE',  ( 0.000000000000000000, 9.877549563868719001E-17, -1.000000000000000000 ) ) ;
#350 = CARTESIAN_POINT ( 'NONE',  ( 7.232166368126291290E-18, 0.3499999999999998113, -0.4840551199999999499 ) ) ;
#351 = CIRCLE ( 'NONE', #264, 0.5050000000000001155 ) ;
#352 = AXIS2_PLACEMENT_3D ( 'NONE', #219, #676, #687 ) ;
#353 = ORIENTED_EDGE ( 'NONE', *, *, #506, .F. ) ;
#354 = FACE_OUTER_BOUND ( 'NONE', #589, .T. ) ;
#355 = LINE ( 'NONE', #305, #393 ) ;
#356 = EDGE_LOOP ( 'NONE', ( #546, #667, #592, #464 ) ) ;
#357 = ADVANCED_FACE ( 'NONE', ( #144 ), #640, .F. ) ;
#358 = DIRECTION ( 'NONE',  ( 0.000000000000000000, 1.128862807299282383E-16, -1.000000000000000000 ) ) ;
#359 = FACE_BOUND ( 'NONE', #60, .T. ) ;
#360 = ORIENTED_EDGE ( 'NONE', *, *, #221, .T. ) ;
#361 = DIRECTION ( 'NONE',  ( -0.000000000000000000, 1.000000000000000000, 9.963531394039649366E-17 ) ) ;
#362 = AXIS2_PLACEMENT_3D ( 'NONE', #579, #641, #590 ) ;
#363 = VERTEX_POINT ( 'NONE', #24 ) ;
#364 = FACE_OUTER_BOUND ( 'NONE', #442, .T. ) ;
#365 = CC_DESIGN_PERSON_AND_ORGANIZATION_ASSIGNMENT ( #558, #208, ( #177 ) ) ;
#366 = VERTEX_POINT ( 'NONE', #206 ) ;
#367 = DIRECTION ( 'NONE',  ( 0.000000000000000000, 1.000000000000000000, 9.963531394039649366E-17 ) ) ;
#368 = ORIENTED_EDGE ( 'NONE', *, *, #457, .T. ) ;
#369 = DIRECTION ( 'NONE',  ( -0.000000000000000000, -1.000000000000000000, -9.963531394039649366E-17 ) ) ;
#370 = CIRCLE ( 'NONE', #77, 0.05905511999999997486 ) ;
#371 = AXIS2_PLACEMENT_3D ( 'NONE', #465, #456, #172 ) ;
#372 = CYLINDRICAL_SURFACE ( 'NONE', #132, 0.6049999999999999822 ) ;
#373 = PRODUCT_RELATED_PRODUCT_CATEGORY ( 'detail', '', ( #591 ) ) ;
#374 = CARTESIAN_POINT ( 'NONE',  ( 2.892866424785834137E-17, 0.1499999999999998279, 0.2362204700000000157 ) ) ;
#375 = DATE_AND_TIME ( #143, #404 ) ;
#376 = VERTEX_POINT ( 'NONE', #196 ) ;
#377 = DIRECTION ( 'NONE',  ( -0.000000000000000000, -1.000000000000000000, -9.963531394039649366E-17 ) ) ;
#378 = ORIENTED_EDGE ( 'NONE', *, *, #272, .F. ) ;
#379 = EDGE_CURVE ( 'NONE', #643, #85, #406, .T. ) ;
#380 = VERTEX_POINT ( 'NONE', #482 ) ;
#381 = DIRECTION ( 'NONE',  ( -0.000000000000000000, -1.000000000000000000, -9.963531394039649366E-17 ) ) ;
#382 = AXIS2_PLACEMENT_3D ( 'NONE', #614, #150, #392 ) ;
#383 = CARTESIAN_POINT ( 'NONE',  ( 0.000000000000000000, 0.3499999999999998113, -0.4249999999999999889 ) ) ;
#384 = MANIFOLD_SOLID_BREP ( 'Fillet1', #216 ) ;
#385 = FACE_OUTER_BOUND ( 'NONE', #161, .T. ) ;
#386 = LINE ( 'NONE', #116, #436 ) ;
#387 = ORIENTED_EDGE ( 'NONE', *, *, #314, .T. ) ;
#388 = DIRECTION ( 'NONE',  ( 0.000000000000000000, -1.352399996863496235E-16, 1.000000000000000000 ) ) ;
#389 = APPROVAL_ROLE ( '' ) ;
#390 = ORIENTED_EDGE ( 'NONE', *, *, #665, .T. ) ;
#391 = EDGE_CURVE ( 'NONE', #632, #376, #84, .T. ) ;
#392 = DIRECTION ( 'NONE',  ( 0.000000000000000000, 7.228014557926179442E-17, -1.000000000000000000 ) ) ;
#393 = VECTOR ( 'NONE', #691, 39.37007874015748143 ) ;
#394 = CARTESIAN_POINT ( 'NONE',  ( 0.000000000000000000, 6.027936493393988187E-17, -0.6050000000000000933 ) ) ;
#395 = CIRCLE ( 'NONE', #698, 0.06250000000000001388 ) ;
#396 = ORIENTED_EDGE ( 'NONE', *, *, #187, .F. ) ;
#397 = FACE_OUTER_BOUND ( 'NONE', #701, .T. ) ;
#398 = EDGE_CURVE ( 'NONE', #632, #363, #651, .T. ) ;
#399 = DIRECTION ( 'NONE',  ( 0.000000000000000000, 9.963531394039649366E-17, -1.000000000000000000 ) ) ;
#400 = ORIENTED_EDGE ( 'NONE', *, *, #625, .F. ) ;
#401 = DIRECTION ( 'NONE',  ( 0.000000000000000000, 0.000000000000000000, 1.000000000000000000 ) ) ;
#402 = CYLINDRICAL_SURFACE ( 'NONE', #35, 0.3149606300000000747 ) ;
#403 = VERTEX_POINT ( 'NONE', #265 ) ;
#404 = LOCAL_TIME ( 16, 29, 53.00000000000000000, #487 ) ;
#405 = DIRECTION ( 'NONE',  ( 0.000000000000000000, 9.963531394039648134E-17, -1.000000000000000000 ) ) ;
#406 = CIRCLE ( 'NONE', #500, 0.6049999999999999822 ) ;
#407 = EDGE_CURVE ( 'NONE', #74, #147, #395, .T. ) ;
#408 = AXIS2_PLACEMENT_3D ( 'NONE', #14, #118, #349 ) ;
#409 = EDGE_LOOP ( 'NONE', ( #580, #180 ) ) ;
#410 = DIRECTION ( 'NONE',  ( 0.000000000000000000, -1.128862807299282136E-16, 1.000000000000000000 ) ) ;
#411 = CARTESIAN_POINT ( 'NONE',  ( 7.347880794884117764E-17, -0.06250000000000012490, 0.5999999999999998668 ) ) ;
#412 = VERTEX_POINT ( 'NONE', #419 ) ;
#413 = CARTESIAN_POINT ( 'NONE',  ( 0.000000000000000000, 0.2499999999999998057, -0.6050000000000000933 ) ) ;
#414 = ORIENTED_EDGE ( 'NONE', *, *, #449, .T. ) ;
#415 = CARTESIAN_POINT ( 'NONE',  ( 0.000000000000000000, 0.1499999999999998557, 1.494529709105945618E-17 ) ) ;
#416 = CIRCLE ( 'NONE', #486, 0.6050000000000000933 ) ;
#417 = CARTESIAN_POINT ( 'NONE',  ( 0.000000000000000000, -0.1500000000000000777, -1.494529709105948083E-17 ) ) ;
#418 = EDGE_LOOP ( 'NONE', ( #117, #170, #120, #186 ) ) ;
#419 = CARTESIAN_POINT ( 'NONE',  ( 0.000000000000000000, -0.04000000000000029227, 0.3149606300000000747 ) ) ;
#420 = VERTEX_POINT ( 'NONE', #31 ) ;
#421 = CARTESIAN_POINT ( 'NONE',  ( 0.000000000000000000, -0.04000000000000023676, -3.985412557615884922E-18 ) ) ;
#422 = CARTESIAN_POINT ( 'NONE',  ( 0.000000000000000000, 0.3499999999999997558, 3.487235987913875676E-17 ) ) ;
#423 = VECTOR ( 'NONE', #301, 39.37007874015748143 ) ;
#424 = VECTOR ( 'NONE', #567, 39.37007874015748143 ) ;
#425 = DIRECTION ( 'NONE',  ( 1.000000000000000000, -1.220180682991482309E-32, 1.224646799147353207E-16 ) ) ;
#426 = ORIENTED_EDGE ( 'NONE', *, *, #587, .F. ) ;
#427 = APPLICATION_CONTEXT ( 'configuration controlled 3d designs of mechanical parts and assemblies' ) ;
#428 = ADVANCED_FACE ( 'NONE', ( #200 ), #372, .T. ) ;
#429 = DIRECTION ( 'NONE',  ( 0.000000000000000000, 1.000000000000000000, 9.963531394039649366E-17 ) ) ;
#430 = ORIENTED_EDGE ( 'NONE', *, *, #484, .F. ) ;
#431 = DIRECTION ( 'NONE',  ( 0.000000000000000000, 0.000000000000000000, 1.000000000000000000 ) ) ;
#432 = APPROVAL ( #702, 'UNSPECIFIED' ) ;
#433 = FACE_BOUND ( 'NONE', #735, .T. ) ;
#434 = LOCAL_TIME ( 16, 29, 53.00000000000000000, #93 ) ;
#435 = PERSON_AND_ORGANIZATION ( #231, #226 ) ;
#436 = VECTOR ( 'NONE', #334, 39.37007874015748143 ) ;
#437 = DIRECTION ( 'NONE',  ( -0.000000000000000000, -1.000000000000000000, -9.963531394039649366E-17 ) ) ;
#438 = AXIS2_PLACEMENT_3D ( 'NONE', #725, #381, #564 ) ;
#439 = CARTESIAN_POINT ( 'NONE',  ( 0.000000000000000000, 0.2499999999999996947, 0.5050000000000001155 ) ) ;
#440 = APPLICATION_CONTEXT ( 'configuration controlled 3d designs of mechanical parts and assemblies' ) ;
#441 = PERSON_AND_ORGANIZATION ( #231, #226 ) ;
#442 = EDGE_LOOP ( 'NONE', ( #668, #268 ) ) ;
#443 = DIRECTION ( 'NONE',  ( 0.000000000000000000, 9.959862476900960267E-17, -1.000000000000000000 ) ) ;
#444 = CARTESIAN_POINT ( 'NONE',  ( 0.000000000000000000, 0.3499999999999997002, 0.4840551199999999499 ) ) ;
#445 = ADVANCED_FACE ( 'NONE', ( #255 ), #547, .T. ) ;
#446 = VERTEX_POINT ( 'NONE', #666 ) ;
#447 = DIRECTION ( 'NONE',  ( 0.000000000000000000, -1.352399996863496235E-16, 1.000000000000000000 ) ) ;
#448 = CARTESIAN_POINT ( 'NONE',  ( 0.000000000000000000, 0.3499999999999997558, 3.487235987913874443E-17 ) ) ;
#449 = EDGE_CURVE ( 'NONE', #363, #470, #664, .T. ) ;
#450 = EDGE_LOOP ( 'NONE', ( #510, #705, #115, #302 ) ) ;
#451 = CARTESIAN_POINT ( 'NONE',  ( 0.000000000000000000, -0.1500000000000000500, -0.4249999999999999889 ) ) ;
#452 = CIRCLE ( 'NONE', #324, 0.05905511999999997486 ) ;
#453 = DIRECTION ( 'NONE',  ( -1.000000000000000000, 0.000000000000000000, 0.000000000000000000 ) ) ;
#454 = AXIS2_PLACEMENT_3D ( 'NONE', #658, #377, #653 ) ;
#455 = ORIENTED_EDGE ( 'NONE', *, *, #151, .T. ) ;
#456 = DIRECTION ( 'NONE',  ( 0.000000000000000000, 1.000000000000000000, 9.963531394039649366E-17 ) ) ;
#457 = EDGE_CURVE ( 'NONE', #296, #412, #528, .T. ) ;
#458 = CARTESIAN_POINT ( 'NONE',  ( 0.000000000000000000, 1.369761958460329746E-17, 0.000000000000000000 ) ) ;
#459 = ADVANCED_BREP_SHAPE_REPRESENTATION ( 'O_ring holder base for Blade', ( #384, #300 ), #25 ) ;
#460 = VERTEX_POINT ( 'NONE', #598 ) ;
#461 = CARTESIAN_POINT ( 'NONE',  ( 0.000000000000000000, 7.347880794884117764E-17, -0.5999999999999998668 ) ) ;
#462 = LINE ( 'NONE', #532, #423 ) ;
#463 = EDGE_CURVE ( 'NONE', #412, #296, #303, .T. ) ;
#464 = ORIENTED_EDGE ( 'NONE', *, *, #134, .F. ) ;
#465 = CARTESIAN_POINT ( 'NONE',  ( 0.000000000000000000, 0.3499999999999997002, 0.4249999999999999889 ) ) ;
#466 = FACE_OUTER_BOUND ( 'NONE', #6, .T. ) ;
#467 = CIRCLE ( 'NONE', #277, 0.6049999999999999822 ) ;
#468 = EDGE_CURVE ( 'NONE', #496, #563, #291, .T. ) ;
#469 = CIRCLE ( 'NONE', #660, 0.5050000000000001155 ) ;
#470 = VERTEX_POINT ( 'NONE', #538 ) ;
#471 = CARTESIAN_POINT ( 'NONE',  ( 7.409113134841488986E-17, -6.027936493393988187E-17, 0.6050000000000000933 ) ) ;
#472 = DIRECTION ( 'NONE',  ( 0.000000000000000000, -9.963531394039649366E-17, 1.000000000000000000 ) ) ;
#473 = ORIENTED_EDGE ( 'NONE', *, *, #680, .F. ) ;
#474 = EDGE_CURVE ( 'NONE', #71, #420, #370, .T. ) ;
#475 = CARTESIAN_POINT ( 'NONE',  ( 7.409113134841488986E-17, 0.2499999999999996669, 0.6050000000000000933 ) ) ;
#476 = LINE ( 'NONE', #67, #560 ) ;
#477 = ORIENTED_EDGE ( 'NONE', *, *, #306, .F. ) ;
#478 = LOCAL_TIME ( 16, 29, 53.00000000000000000, #495 ) ;
#479 = CIRCLE ( 'NONE', #712, 0.5999999999999998668 ) ;
#480 = ORIENTED_EDGE ( 'NONE', *, *, #327, .F. ) ;
#481 = CIRCLE ( 'NONE', #315, 0.5374999999999998668 ) ;
#482 = CARTESIAN_POINT ( 'NONE',  ( 0.000000000000000000, -0.1499999999999999944, -0.6049999999999999822 ) ) ;
#483 = DIRECTION ( 'NONE',  ( 0.000000000000000000, 0.000000000000000000, 1.000000000000000000 ) ) ;
#484 = EDGE_CURVE ( 'NONE', #213, #366, #713, .T. ) ;
#485 = DIRECTION ( 'NONE',  ( 0.000000000000000000, 0.000000000000000000, 1.000000000000000000 ) ) ;
#486 = AXIS2_PLACEMENT_3D ( 'NONE', #72, #188, #410 ) ;
#487 = COORDINATED_UNIVERSAL_TIME_OFFSET ( 8, 0, .BEHIND. ) ;
#488 = CIRCLE ( 'NONE', #111, 0.06250000000000001388 ) ;
#489 = ORIENTED_EDGE ( 'NONE', *, *, #47, .T. ) ;
#490 = APPROVAL_DATE_TIME ( #156, #42 ) ;
#491 = CC_DESIGN_PERSON_AND_ORGANIZATION_ASSIGNMENT ( #499, #261, ( #731 ) ) ;
#492 = ORIENTED_EDGE ( 'NONE', *, *, #644, .T. ) ;
#493 = DIRECTION ( 'NONE',  ( 0.000000000000000000, -1.000000000000000000, -9.963531394039649366E-17 ) ) ;
#494 = ORIENTED_EDGE ( 'NONE', *, *, #398, .F. ) ;
#495 = COORDINATED_UNIVERSAL_TIME_OFFSET ( 8, 0, .BEHIND. ) ;
#496 = VERTEX_POINT ( 'NONE', #718 ) ;
#497 = DIRECTION ( 'NONE',  ( 0.000000000000000000, 1.000000000000000000, 9.963531394039649366E-17 ) ) ;
#498 = DIRECTION ( 'NONE',  ( 0.000000000000000000, 0.000000000000000000, 1.000000000000000000 ) ) ;
#499 = PERSON_AND_ORGANIZATION ( #231, #226 ) ;
#500 = AXIS2_PLACEMENT_3D ( 'NONE', #27, #369, #711 ) ;
#501 = AXIS2_PLACEMENT_3D ( 'NONE', #69, #4, #405 ) ;
#502 = CARTESIAN_POINT ( 'NONE',  ( 0.000000000000000000, -0.1500000000000000222, -2.978158735200410236E-33 ) ) ;
#503 = EDGE_LOOP ( 'NONE', ( #353, #62 ) ) ;
#504 = CARTESIAN_POINT ( 'NONE',  ( 0.000000000000000000, -0.04000000000000025757, -3.985412557615883382E-18 ) ) ;
#505 = FACE_OUTER_BOUND ( 'NONE', #450, .T. ) ;
#506 = EDGE_CURVE ( 'NONE', #46, #232, #340, .T. ) ;
#507 = ORIENTED_EDGE ( 'NONE', *, *, #600, .T. ) ;
#508 = CARTESIAN_POINT ( 'NONE',  ( 0.000000000000000000, 2.135166207927425347E-17, 7.626129268696763574E-34 ) ) ;
#509 = CARTESIAN_POINT ( 'NONE',  ( 0.000000000000000000, 0.3499999999999997002, 0.5050000000000001155 ) ) ;
#510 = ORIENTED_EDGE ( 'NONE', *, *, #306, .T. ) ;
#511 = ADVANCED_FACE ( 'NONE', ( #329 ), #624, .F. ) ;
#512 = FACE_BOUND ( 'NONE', #135, .T. ) ;
#513 = DIRECTION ( 'NONE',  ( -0.000000000000000000, -1.000000000000000000, -9.963531394039649366E-17 ) ) ;
#514 = CIRCLE ( 'NONE', #588, 0.5999999999999998668 ) ;
#515 = ORIENTED_EDGE ( 'NONE', *, *, #134, .T. ) ;
#516 = EDGE_CURVE ( 'NONE', #376, #470, #279, .T. ) ;
#517 = CYLINDRICAL_SURFACE ( 'NONE', #311, 0.2362204700000000157 ) ;
#518 = DIRECTION ( 'NONE',  ( 0.000000000000000000, 9.963531394039649366E-17, -1.000000000000000000 ) ) ;
#519 = EDGE_LOOP ( 'NONE', ( #348, #128, #167, #195 ) ) ;
#520 = DIRECTION ( 'NONE',  ( 0.000000000000000000, -1.084202183688926978E-16, 1.000000000000000000 ) ) ;
#521 = EDGE_CURVE ( 'NONE', #213, #714, #610, .T. ) ;
#522 = DIRECTION ( 'NONE',  ( -1.224646799147352961E-16, 0.000000000000000000, -1.000000000000000000 ) ) ;
#523 = ORIENTED_EDGE ( 'NONE', *, *, #321, .F. ) ;
#524 = APPROVAL_PERSON_ORGANIZATION ( #441, #42, #389 ) ;
#525 = CARTESIAN_POINT ( 'NONE',  ( 0.000000000000000000, 0.06250000000000006939, -0.5999999999999998668 ) ) ;
#526 = PLANE ( 'NONE',  #217 ) ;
#527 = AXIS2_PLACEMENT_3D ( 'NONE', #458, #295, #518 ) ;
#528 = CIRCLE ( 'NONE', #623, 0.3149606300000000747 ) ;
#529 = AXIS2_PLACEMENT_3D ( 'NONE', #703, #578, #10 ) ;
#530 = ORIENTED_EDGE ( 'NONE', *, *, #742, .F. ) ;
#531 = CYLINDRICAL_SURFACE ( 'NONE', #89, 0.05905511999999997486 ) ;
#532 = CARTESIAN_POINT ( 'NONE',  ( 0.000000000000000000, -0.04000000000000029227, 0.3149606300000000747 ) ) ;
#533 = EDGE_CURVE ( 'NONE', #85, #643, #540, .T. ) ;
#534 = ORIENTED_EDGE ( 'NONE', *, *, #379, .F. ) ;
#535 = CARTESIAN_POINT ( 'NONE',  ( 0.000000000000000000, -0.04000000000000025757, -3.985412557615883382E-18 ) ) ;
#536 = ORIENTED_EDGE ( 'NONE', *, *, #516, .T. ) ;
#537 = CC_DESIGN_APPROVAL ( #42, ( #177 ) ) ;
#538 = CARTESIAN_POINT ( 'NONE',  ( 0.000000000000000000, -0.1499999999999999944, -0.2362204700000000157 ) ) ;
#539 = EDGE_LOOP ( 'NONE', ( #620, #494 ) ) ;
#540 = CIRCLE ( 'NONE', #438, 0.6049999999999999822 ) ;
#541 = ADVANCED_FACE ( 'NONE', ( #385 ), #39, .F. ) ;
#542 = DIRECTION ( 'NONE',  ( 0.000000000000000000, -1.084202172214453676E-16, 1.000000000000000000 ) ) ;
#543 = CARTESIAN_POINT ( 'NONE',  ( 6.184466335694134793E-17, 0.2499999999999997502, -0.5050000000000001155 ) ) ;
#544 = EDGE_CURVE ( 'NONE', #366, #19, #469, .T. ) ;
#545 = DIRECTION ( 'NONE',  ( -0.000000000000000000, -1.000000000000000000, -9.963531394039649366E-17 ) ) ;
#546 = ORIENTED_EDGE ( 'NONE', *, *, #521, .F. ) ;
#547 = TOROIDAL_SURFACE ( 'NONE', #230, 0.5050000000000001155, 0.1000000000000000056 ) ;
#548 = CARTESIAN_POINT ( 'NONE',  ( 0.000000000000000000, 0.2499999999999997224, 2.490882848509909568E-17 ) ) ;
#549 = ORIENTED_EDGE ( 'NONE', *, *, #742, .T. ) ;
#550 = EDGE_CURVE ( 'NONE', #322, #74, #514, .T. ) ;
#551 = DIMENSIONAL_EXPONENTS ( 1.000000000000000000, 0.000000000000000000, 0.000000000000000000, 0.000000000000000000, 0.000000000000000000, 0.000000000000000000, 0.000000000000000000 ) ;
#552 = CARTESIAN_POINT ( 'NONE',  ( 0.000000000000000000, 0.3499999999999997558, 3.487235987913874443E-17 ) ) ;
#553 = DIRECTION ( 'NONE',  ( 0.000000000000000000, 9.959862476900960267E-17, -1.000000000000000000 ) ) ;
#554 = ORIENTED_EDGE ( 'NONE', *, *, #468, .F. ) ;
#555 = DIRECTION ( 'NONE',  ( 0.000000000000000000, 0.000000000000000000, 1.000000000000000000 ) ) ;
#556 = DIRECTION ( 'NONE',  ( 0.000000000000000000, 0.000000000000000000, 1.000000000000000000 ) ) ;
#557 = CC_DESIGN_APPROVAL ( #432, ( #731 ) ) ;
#558 = PERSON_AND_ORGANIZATION ( #231, #226 ) ;
#559 = AXIS2_PLACEMENT_3D ( 'NONE', #439, #453, #556 ) ;
#560 = VECTOR ( 'NONE', #361, 39.37007874015748143 ) ;
#561 = DIRECTION ( 'NONE',  ( -0.000000000000000000, 1.000000000000000000, 9.963531394039649366E-17 ) ) ;
#562 = DIRECTION ( 'NONE',  ( -0.000000000000000000, -1.000000000000000000, -9.963531394039649366E-17 ) ) ;
#563 = VERTEX_POINT ( 'NONE', #113 ) ;
#564 = DIRECTION ( 'NONE',  ( 0.000000000000000000, 9.877549563868719001E-17, -1.000000000000000000 ) ) ;
#565 = CARTESIAN_POINT ( 'NONE',  ( 0.000000000000000000, 0.3499999999999998113, -0.3659448799999999724 ) ) ;
#566 = ORIENTED_EDGE ( 'NONE', *, *, #391, .T. ) ;
#567 = DIRECTION ( 'NONE',  ( -0.000000000000000000, -1.000000000000000000, -9.963531394039649366E-17 ) ) ;
#568 = DIRECTION ( 'NONE',  ( 0.000000000000000000, 9.963531394039650599E-17, -1.000000000000000000 ) ) ;
#569 = AXIS2_PLACEMENT_3D ( 'NONE', #66, #7, #238 ) ;
#570 = CC_DESIGN_PERSON_AND_ORGANIZATION_ASSIGNMENT ( #733, #159, ( #683 ) ) ;
#571 = ORIENTED_EDGE ( 'NONE', *, *, #151, .F. ) ;
#572 = APPROVAL_ROLE ( '' ) ;
#573 = DIRECTION ( 'NONE',  ( 0.000000000000000000, 7.228014557926179442E-17, -1.000000000000000000 ) ) ;
#574 = DIRECTION ( 'NONE',  ( 1.000000000000000000, 1.220180682991482309E-32, -1.224646799147353207E-16 ) ) ;
#575 = AXIS2_PLACEMENT_3D ( 'NONE', #421, #429, #193 ) ;
#576 = ADVANCED_FACE ( 'NONE', ( #730, #214 ), #273, .T. ) ;
#577 = VERTEX_POINT ( 'NONE', #342 ) ;
#578 = DIRECTION ( 'NONE',  ( 0.000000000000000000, 1.000000000000000000, 9.963531394039649366E-17 ) ) ;
#579 = CARTESIAN_POINT ( 'NONE',  ( 0.000000000000000000, -0.1500000000000000222, -1.494529709105947775E-17 ) ) ;
#580 = ORIENTED_EDGE ( 'NONE', *, *, #379, .T. ) ;
#581 = DIRECTION ( 'NONE',  ( 0.000000000000000000, 1.000000000000000000, 9.963531394039649366E-17 ) ) ;
#582 = DIRECTION ( 'NONE',  ( 0.000000000000000000, 0.000000000000000000, 1.000000000000000000 ) ) ;
#583 = VERTEX_POINT ( 'NONE', #105 ) ;
#584 = APPROVAL_PERSON_ORGANIZATION ( #125, #432, #572 ) ;
#585 = FACE_OUTER_BOUND ( 'NONE', #124, .T. ) ;
#586 = DIRECTION ( 'NONE',  ( -0.000000000000000000, -1.000000000000000000, -9.963531394039649366E-17 ) ) ;
#587 = EDGE_CURVE ( 'NONE', #175, #147, #481, .T. ) ;
#588 = AXIS2_PLACEMENT_3D ( 'NONE', #43, #674, #443 ) ;
#589 = EDGE_LOOP ( 'NONE', ( #695, #104 ) ) ;
#590 = DIRECTION ( 'NONE',  ( 0.000000000000000000, 7.228014557926179442E-17, -1.000000000000000000 ) ) ;
#591 = PRODUCT ( 'O_ring holder base for Blade', 'O_ring holder base for Blade', '', ( #171 ) ) ;
#592 = ORIENTED_EDGE ( 'NONE', *, *, #146, .F. ) ;
#593 = DIRECTION ( 'NONE',  ( -0.000000000000000000, -1.000000000000000000, -9.963531394039649366E-17 ) ) ;
#594 = EDGE_LOOP ( 'NONE', ( #430, #684, #515, #254 ) ) ;
#595 = DIRECTION ( 'NONE',  ( -0.000000000000000000, -1.000000000000000000, -9.963531394039649366E-17 ) ) ;
#596 = AXIS2_PLACEMENT_3D ( 'NONE', #417, #183, #649 ) ;
#597 = AXIS2_PLACEMENT_3D ( 'NONE', #234, #581, #520 ) ;
#598 = CARTESIAN_POINT ( 'NONE',  ( 7.347880794884117764E-17, 0.06249999999999995837, 0.5999999999999998668 ) ) ;
#599 = DIRECTION ( 'NONE',  ( 0.000000000000000000, 1.000000000000000000, 9.963531394039649366E-17 ) ) ;
#600 = EDGE_CURVE ( 'NONE', #563, #496, #153, .T. ) ;
#601 = APPROVAL_DATE_TIME ( #375, #432 ) ;
#602 = ORIENTED_EDGE ( 'NONE', *, *, #680, .T. ) ;
#603 = CARTESIAN_POINT ( 'NONE',  ( 0.000000000000000000, 0.2499999999999997224, 2.490882848509909568E-17 ) ) ;
#604 = CC_DESIGN_APPROVAL ( #233, ( #683 ) ) ;
#605 = ADVANCED_FACE ( 'NONE', ( #154 ), #58, .F. ) ;
#606 = ORIENTED_EDGE ( 'NONE', *, *, #678, .T. ) ;
#607 = COORDINATED_UNIVERSAL_TIME_OFFSET ( 8, 0, .BEHIND. ) ;
#608 = AXIS2_PLACEMENT_3D ( 'NONE', #502, #44, #286 ) ;
#609 = ORIENTED_EDGE ( 'NONE', *, *, #283, .F. ) ;
#610 = CIRCLE ( 'NONE', #65, 0.6050000000000000933 ) ;
#611 = CARTESIAN_POINT ( 'NONE',  ( 0.000000000000000000, 0.3499999999999997558, 3.487235987913875676E-17 ) ) ;
#612 = CARTESIAN_POINT ( 'NONE',  ( 7.409113134841487754E-17, 0.06250000000000011102, 0.6049999999999999822 ) ) ;
#613 = EDGE_LOOP ( 'NONE', ( #131, #293, #256, #692 ) ) ;
#614 = CARTESIAN_POINT ( 'NONE',  ( 0.000000000000000000, -0.1500000000000000222, -1.494529709105947775E-17 ) ) ;
#615 = FACE_BOUND ( 'NONE', #617, .T. ) ;
#616 = ADVANCED_FACE ( 'NONE', ( #163 ), #736, .F. ) ;
#617 = EDGE_LOOP ( 'NONE', ( #319, #344 ) ) ;
#618 = FACE_OUTER_BOUND ( 'NONE', #312, .T. ) ;
#619 = SHAPE_DEFINITION_REPRESENTATION ( #82, #459 ) ;
#620 = ORIENTED_EDGE ( 'NONE', *, *, #665, .F. ) ;
#621 = AXIS2_PLACEMENT_3D ( 'NONE', #235, #694, #21 ) ;
#622 = ADVANCED_FACE ( 'NONE', ( #285 ), #99, .T. ) ;
#623 = AXIS2_PLACEMENT_3D ( 'NONE', #87, #96, #542 ) ;
#624 = CYLINDRICAL_SURFACE ( 'NONE', #166, 0.05905511999999997486 ) ;
#625 = EDGE_CURVE ( 'NONE', #583, #232, #107, .T. ) ;
#626 = AXIS2_PLACEMENT_3D ( 'NONE', #461, #696, #401 ) ;
#627 = CARTESIAN_POINT ( 'NONE',  ( 0.000000000000000000, -0.04000000000000025757, -3.985412557615883382E-18 ) ) ;
#628 = EDGE_LOOP ( 'NONE', ( #554, #245 ) ) ;
#629 = FACE_BOUND ( 'NONE', #539, .T. ) ;
#630 = DIRECTION ( 'NONE',  ( 0.000000000000000000, 1.000000000000000000, 9.963531394039649366E-17 ) ) ;
#631 = ADVANCED_FACE ( 'NONE', ( #629, #397 ), #54, .T. ) ;
#632 = VERTEX_POINT ( 'NONE', #248 ) ;
#633 = PERSON_AND_ORGANIZATION_ROLE ( 'design_owner' ) ;
#634 = CARTESIAN_POINT ( 'NONE',  ( 3.857155273869339231E-17, -0.04000000000000022288, -0.3149606300000000747 ) ) ;
#635 = DIRECTION ( 'NONE',  ( 0.000000000000000000, 1.000000000000000000, 9.963531394039649366E-17 ) ) ;
#636 = LOCAL_TIME ( 16, 29, 53.00000000000000000, #607 ) ;
#637 = EDGE_LOOP ( 'NONE', ( #332, #68, #507, #262 ) ) ;
#638 = DIRECTION ( 'NONE',  ( 0.000000000000000000, 1.000000000000000000, 9.963531394039649366E-17 ) ) ;
#639 = AXIS2_PLACEMENT_3D ( 'NONE', #155, #688, #399 ) ;
#640 = TOROIDAL_SURFACE ( 'NONE', #316, 0.5999999999999998668, 0.06250000000000000000 ) ;
#641 = DIRECTION ( 'NONE',  ( 0.000000000000000000, -1.000000000000000000, -9.963531394039649366E-17 ) ) ;
#642 = AXIS2_PLACEMENT_3D ( 'NONE', #223, #493, #681 ) ;
#643 = VERTEX_POINT ( 'NONE', #693 ) ;
#644 = EDGE_CURVE ( 'NONE', #714, #85, #706, .T. ) ;
#645 = CARTESIAN_POINT ( 'NONE',  ( 0.000000000000000000, -0.1500000000000000777, -1.494529709105948083E-17 ) ) ;
#646 = DIRECTION ( 'NONE',  ( 0.000000000000000000, 1.000000000000000000, 9.963531394039649366E-17 ) ) ;
#647 = ORIENTED_EDGE ( 'NONE', *, *, #391, .F. ) ;
#648 = ORIENTED_EDGE ( 'NONE', *, *, #449, .F. ) ;
#649 = DIRECTION ( 'NONE',  ( 0.000000000000000000, 1.128862807299282383E-16, -1.000000000000000000 ) ) ;
#650 = ADVANCED_FACE ( 'NONE', ( #512, #354 ), #345, .T. ) ;
#651 = CIRCLE ( 'NONE', #575, 0.2362204700000000157 ) ;
#652 = ORIENTED_EDGE ( 'NONE', *, *, #506, .T. ) ;
#653 = DIRECTION ( 'NONE',  ( 0.000000000000000000, 9.963531394039649366E-17, -1.000000000000000000 ) ) ;
#654 = EDGE_LOOP ( 'NONE', ( #236, #307 ) ) ;
#655 = DIRECTION ( 'NONE',  ( -0.000000000000000000, -1.000000000000000000, -9.963531394039649366E-17 ) ) ;
#656 = UNCERTAINTY_MEASURE_WITH_UNIT (LENGTH_MEASURE( 1.000000000000000082E-05 ), #709, 'distance_accuracy_value', 'NONE');
#657 = ADVANCED_FACE ( 'NONE', ( #585 ), #122, .T. ) ;
#658 = CARTESIAN_POINT ( 'NONE',  ( 0.000000000000000000, 1.369761958460329746E-17, 0.000000000000000000 ) ) ;
#659 = VECTOR ( 'NONE', #741, 39.37007874015748143 ) ;
#660 = AXIS2_PLACEMENT_3D ( 'NONE', #552, #157, #447 ) ;
#661 = CIRCLE ( 'NONE', #626, 0.06250000000000001388 ) ;
#662 = ADVANCED_FACE ( 'NONE', ( #75 ), #531, .F. ) ;
#663 =( LENGTH_UNIT ( ) NAMED_UNIT ( * ) SI_UNIT ( $, .METRE. ) );
#664 = LINE ( 'NONE', #722, #686 ) ;
#665 = EDGE_CURVE ( 'NONE', #363, #632, #247, .T. ) ;
#666 = CARTESIAN_POINT ( 'NONE',  ( 7.409113134841485289E-17, -0.06250000000000019429, 0.6049999999999999822 ) ) ;
#667 = ORIENTED_EDGE ( 'NONE', *, *, #484, .T. ) ;
#668 = ORIENTED_EDGE ( 'NONE', *, *, #146, .T. ) ;
#669 = DIRECTION ( 'NONE',  ( 0.000000000000000000, 0.000000000000000000, 1.000000000000000000 ) ) ;
#670 = PLANE ( 'NONE',  #608 ) ;
#671 = AXIS2_PLACEMENT_3D ( 'NONE', #220, #745, #169 ) ;
#672 = ORIENTED_EDGE ( 'NONE', *, *, #287, .F. ) ;
#673 = AXIS2_PLACEMENT_3D ( 'NONE', #543, #425, #318 ) ;
#674 = DIRECTION ( 'NONE',  ( -0.000000000000000000, -1.000000000000000000, -9.963531394039649366E-17 ) ) ;
#675 = CALENDAR_DATE ( 2026, 20, 3 ) ;
#676 = DIRECTION ( 'NONE',  ( -0.000000000000000000, 1.000000000000000000, 9.963531394039649366E-17 ) ) ;
#677 = DIRECTION ( 'NONE',  ( 0.000000000000000000, 1.000000000000000000, 9.963531394039649366E-17 ) ) ;
#678 = EDGE_CURVE ( 'NONE', #420, #71, #202, .T. ) ;
#679 = DIRECTION ( 'NONE',  ( 0.000000000000000000, 0.000000000000000000, 1.000000000000000000 ) ) ;
#680 = EDGE_CURVE ( 'NONE', #147, #743, #661, .T. ) ;
#681 = DIRECTION ( 'NONE',  ( 0.000000000000000000, 9.963531394039649366E-17, -1.000000000000000000 ) ) ;
#682 = CYLINDRICAL_SURFACE ( 'NONE', #86, 0.6049999999999999822 ) ;
#683 = PRODUCT_DEFINITION_FORMATION_WITH_SPECIFIED_SOURCE ( 'ANY', '', #591, .NOT_KNOWN. ) ;
#684 = ORIENTED_EDGE ( 'NONE', *, *, #716, .F. ) ;
#685 = EDGE_CURVE ( 'NONE', #296, #563, #294, .T. ) ;
#686 = VECTOR ( 'NONE', #595, 39.37007874015748143 ) ;
#687 = DIRECTION ( 'NONE',  ( 0.000000000000000000, 0.000000000000000000, 1.000000000000000000 ) ) ;
#688 = DIRECTION ( 'NONE',  ( -0.000000000000000000, -1.000000000000000000, -9.963531394039649366E-17 ) ) ;
#689 = EDGE_LOOP ( 'NONE', ( #390, #566, #536, #648 ) ) ;
#690 = EDGE_CURVE ( 'NONE', #83, #446, #721, .T. ) ;
#691 = DIRECTION ( 'NONE',  ( -0.000000000000000000, -1.000000000000000000, -9.963531394039649366E-17 ) ) ;
#692 = ORIENTED_EDGE ( 'NONE', *, *, #292, .F. ) ;
#693 = CARTESIAN_POINT ( 'NONE',  ( 0.000000000000000000, 0.06250000000000023592, -0.6049999999999999822 ) ) ;
#694 = DIRECTION ( 'NONE',  ( -0.000000000000000000, -1.000000000000000000, -9.963531394039649366E-17 ) ) ;
#695 = ORIENTED_EDGE ( 'NONE', *, *, #690, .F. ) ;
#696 = DIRECTION ( 'NONE',  ( -1.000000000000000000, 0.000000000000000000, 0.000000000000000000 ) ) ;
#697 = CIRCLE ( 'NONE', #15, 0.05905511999999997486 ) ;
#698 = AXIS2_PLACEMENT_3D ( 'NONE', #136, #259, #483 ) ;
#699 = DIRECTION ( 'NONE',  ( 0.000000000000000000, -1.084202172214453676E-16, 1.000000000000000000 ) ) ;
#700 = AXIS2_PLACEMENT_3D ( 'NONE', #504, #638, #289 ) ;
#701 = EDGE_LOOP ( 'NONE', ( #328, #368 ) ) ;
#702 = APPROVAL_STATUS ( 'not_yet_approved' ) ;
#703 = CARTESIAN_POINT ( 'NONE',  ( 0.000000000000000000, -0.06250000000000008327, -0.6049999999999999822 ) ) ;
#704 = CARTESIAN_POINT ( 'NONE',  ( 7.232166368126283586E-18, -0.1500000000000001055, 0.3659448799999999724 ) ) ;
#705 = ORIENTED_EDGE ( 'NONE', *, *, #587, .T. ) ;
#706 = LINE ( 'NONE', #471, #424 ) ;
#707 = CARTESIAN_POINT ( 'NONE',  ( 7.347880794884117764E-17, -4.608356877963458887E-17, 0.5999999999999998668 ) ) ;
#708 = ORIENTED_EDGE ( 'NONE', *, *, #516, .F. ) ;
#709 =( CONVERSION_BASED_UNIT ( 'INCH', #30 ) LENGTH_UNIT ( ) NAMED_UNIT ( #551 ) );
#710 = ADVANCED_FACE ( 'NONE', ( #182 ), #517, .F. ) ;
#711 = DIRECTION ( 'NONE',  ( 0.000000000000000000, 9.877549563868719001E-17, -1.000000000000000000 ) ) ;
#712 = AXIS2_PLACEMENT_3D ( 'NONE', #738, #152, #553 ) ;
#713 = CIRCLE ( 'NONE', #673, 0.1000000000000000194 ) ;
#714 = VERTEX_POINT ( 'NONE', #475 ) ;
#715 = CARTESIAN_POINT ( 'NONE',  ( 0.000000000000000000, 0.3499999999999997002, 0.4249999999999999889 ) ) ;
#716 = EDGE_CURVE ( 'NONE', #714, #213, #416, .T. ) ;
#717 = CARTESIAN_POINT ( 'NONE',  ( 0.000000000000000000, 0.000000000000000000, 0.000000000000000000 ) ) ;
#718 = CARTESIAN_POINT ( 'NONE',  ( 0.000000000000000000, 0.3499999999999997558, 0.3149606300000001302 ) ) ;
#719 = VECTOR ( 'NONE', #189, 39.37007874015748143 ) ;
#720 = AXIS2_PLACEMENT_3D ( 'NONE', #422, #310, #485 ) ;
#721 = CIRCLE ( 'NONE', #408, 0.6049999999999999822 ) ;
#722 = CARTESIAN_POINT ( 'NONE',  ( 0.000000000000000000, 0.1499999999999998557, -0.2362204700000000157 ) ) ;
#723 = EDGE_LOOP ( 'NONE', ( #726, #387, #477, #530 ) ) ;
#724 = CALENDAR_DATE ( 2026, 20, 3 ) ;
#725 = CARTESIAN_POINT ( 'NONE',  ( 0.000000000000000000, 0.06250000000000016653, 6.227207121274797032E-18 ) ) ;
#726 = ORIENTED_EDGE ( 'NONE', *, *, #407, .T. ) ;
#727 = APPROVAL_STATUS ( 'not_yet_approved' ) ;
#728 = ORIENTED_EDGE ( 'NONE', *, *, #260, .T. ) ;
#729 = CIRCLE ( 'NONE', #569, 0.5999999999999998668 ) ;
#730 = FACE_OUTER_BOUND ( 'NONE', #409, .T. ) ;
#731 = PRODUCT_DEFINITION ( 'UNKNOWN', '', #683, #145 ) ;
#732 = CARTESIAN_POINT ( 'NONE',  ( 0.000000000000000000, 0.000000000000000000, 0.000000000000000000 ) ) ;
#733 = PERSON_AND_ORGANIZATION ( #231, #226 ) ;
#734 = CIRCLE ( 'NONE', #201, 0.05905511999999997486 ) ;
#735 = EDGE_LOOP ( 'NONE', ( #13, #80 ) ) ;
#736 = CYLINDRICAL_SURFACE ( 'NONE', #352, 0.05905511999999997486 ) ;
#737 = EDGE_CURVE ( 'NONE', #403, #380, #95, .T. ) ;
#738 = CARTESIAN_POINT ( 'NONE',  ( 0.000000000000000000, 0.06250000000000001388, 6.227207121274782395E-18 ) ) ;
#739 = DIRECTION ( 'NONE',  ( 1.000000000000000000, 0.000000000000000000, 0.000000000000000000 ) ) ;
#740 = DIRECTION ( 'NONE',  ( -0.000000000000000000, -1.000000000000000000, -9.963531394039649366E-17 ) ) ;
#741 = DIRECTION ( 'NONE',  ( -0.000000000000000000, -1.000000000000000000, -9.963531394039649366E-17 ) ) ;
#742 = EDGE_CURVE ( 'NONE', #74, #322, #729, .T. ) ;
#743 = VERTEX_POINT ( 'NONE', #525 ) ;
#744 = DIRECTION ( 'NONE',  ( 0.000000000000000000, -9.963531394039649366E-17, 1.000000000000000000 ) ) ;
#745 = DIRECTION ( 'NONE',  ( 0.000000000000000000, 1.000000000000000000, 9.963531394039649366E-17 ) ) ;
#746 = APPROVAL_PERSON_ORGANIZATION ( #435, #233, #267 ) ;
ENDSEC;
END-ISO-10303-21;
