ISO-10303-21;
HEADER;
FILE_DESCRIPTION (( 'STEP AP203' ),
    '1' );
FILE_NAME ('Side Wall_Vf.STEP',
    '2026-03-21T02:08:01',
    ( '' ),
    ( '' ),
    'SwSTEP 2.0',
    'SolidWorks 2025',
    '' );
FILE_SCHEMA (( 'CONFIG_CONTROL_DESIGN' ));
ENDSEC;

DATA;
#1 = CARTESIAN_POINT ( 'NONE',  ( 0.3155309269044272447, -3.014469073095572771, 0.2499999999999988065 ) ) ;
#2 = ORIENTED_EDGE ( 'NONE', *, *, #835, .T. ) ;
#3 = DIRECTION ( 'NONE',  ( 1.000000000000000000, -0.000000000000000000, -0.000000000000000000 ) ) ;
#4 = ORIENTED_EDGE ( 'NONE', *, *, #1079, .T. ) ;
#5 = DIRECTION ( 'NONE',  ( 0.000000000000000000, 0.000000000000000000, 1.000000000000000000 ) ) ;
#6 = AXIS2_PLACEMENT_3D ( 'NONE', #825, #1097, #169 ) ;
#7 = AXIS2_PLACEMENT_3D ( 'NONE', #465, #1230, #200 ) ;
#8 = DIRECTION ( 'NONE',  ( 0.000000000000000000, 0.000000000000000000, -1.000000000000000000 ) ) ;
#9 = AXIS2_PLACEMENT_3D ( 'NONE', #241, #400, #723 ) ;
#10 = ORIENTED_EDGE ( 'NONE', *, *, #190, .T. ) ;
#11 = DIRECTION ( 'NONE',  ( -0.000000000000000000, -1.000000000000000000, 2.561107494060247075E-17 ) ) ;
#12 = LOCAL_TIME ( 19, 8, 1.000000000000000000, #320 ) ;
#13 = ORIENTED_EDGE ( 'NONE', *, *, #602, .F. ) ;
#14 = DIRECTION ( 'NONE',  ( 0.000000000000000000, 0.000000000000000000, 1.000000000000000000 ) ) ;
#15 = DIRECTION ( 'NONE',  ( -1.000000000000000000, -0.000000000000000000, -0.000000000000000000 ) ) ;
#16 = VERTEX_POINT ( 'NONE', #521 ) ;
#17 = DIRECTION ( 'NONE',  ( -1.000000000000000000, -0.000000000000000000, -0.000000000000000000 ) ) ;
#18 = ORIENTED_EDGE ( 'NONE', *, *, #418, .T. ) ;
#19 = DIRECTION ( 'NONE',  ( -1.000000000000000000, -0.000000000000000000, -0.000000000000000000 ) ) ;
#20 = CARTESIAN_POINT ( 'NONE',  ( 1.260000000000000009, -0.6250000000000180966, 0.1742125984251954030 ) ) ;
#21 = ORIENTED_EDGE ( 'NONE', *, *, #61, .F. ) ;
#22 =( NAMED_UNIT ( * ) SI_UNIT ( $, .STERADIAN. ) SOLID_ANGLE_UNIT ( ) );
#23 = ORIENTED_EDGE ( 'NONE', *, *, #886, .T. ) ;
#24 = CC_DESIGN_DATE_AND_TIME_ASSIGNMENT ( #877, #522, ( #527 ) ) ;
#25 = PLANE ( 'NONE',  #144 ) ;
#26 = CARTESIAN_POINT ( 'NONE',  ( 0.000000000000000000, -1.625000000000017764, 0.1250000000000015266 ) ) ;
#27 = EDGE_CURVE ( 'NONE', #100, #1154, #623, .T. ) ;
#28 = VECTOR ( 'NONE', #629, 39.37007874015748854 ) ;
#29 = APPROVAL_ROLE ( '' ) ;
#30 = CONICAL_SURFACE ( 'NONE', #708, 0.04921259842519689481, 1.029744258676655200 ) ;
#31 = VERTEX_POINT ( 'NONE', #890 ) ;
#32 = ADVANCED_FACE ( 'NONE', ( #425 ), #876, .F. ) ;
#33 = FACE_BOUND ( 'NONE', #786, .T. ) ;
#34 = CARTESIAN_POINT ( 'NONE',  ( 0.8944690730955725533, -2.485530926904428117, 0.2499999999999988065 ) ) ;
#35 = EDGE_LOOP ( 'NONE', ( #1132, #1126, #955, #612 ) ) ;
#36 = LINE ( 'NONE', #220, #787 ) ;
#37 = VERTEX_POINT ( 'NONE', #792 ) ;
#38 = ORIENTED_EDGE ( 'NONE', *, *, #97, .T. ) ;
#39 = LINE ( 'NONE', #433, #669 ) ;
#40 = EDGE_CURVE ( 'NONE', #233, #518, #330, .T. ) ;
#41 = CARTESIAN_POINT ( 'NONE',  ( 1.260000000000000009, -1.625000000000017764, 0.1742125984251978732 ) ) ;
#42 = EDGE_CURVE ( 'NONE', #46, #722, #884, .T. ) ;
#43 = DIRECTION ( 'NONE',  ( -1.000000000000000000, 0.000000000000000000, 0.000000000000000000 ) ) ;
#44 = AXIS2_PLACEMENT_3D ( 'NONE', #461, #275, #161 ) ;
#45 = VECTOR ( 'NONE', #702, 39.37007874015748143 ) ;
#46 = VERTEX_POINT ( 'NONE', #127 ) ;
#47 = CARTESIAN_POINT ( 'NONE',  ( -5.520553484345342928E-17, -3.625000000000017764, 0.1250000000000064393 ) ) ;
#48 = AXIS2_PLACEMENT_3D ( 'NONE', #1091, #1108, #645 ) ;
#49 = CONICAL_SURFACE ( 'NONE', #396, 0.04921259842519675604, 1.029744258676652757 ) ;
#50 = CARTESIAN_POINT ( 'NONE',  ( 0.000000000000000000, -4.000000000000000888, 0.2499999999999988065 ) ) ;
#51 = CARTESIAN_POINT ( 'NONE',  ( 0.8944690730955725533, -3.014469073095572771, 0.2499999999999988065 ) ) ;
#52 = CALENDAR_DATE ( 2026, 20, 3 ) ;
#53 = EDGE_LOOP ( 'NONE', ( #616, #523 ) ) ;
#54 = CARTESIAN_POINT ( 'NONE',  ( 0.3300000000000000155, -1.625000000000017764, 0.1250000000000015266 ) ) ;
#55 = CARTESIAN_POINT ( 'NONE',  ( -5.520553484345342928E-17, -3.625000000000017764, 0.07578740157481010653 ) ) ;
#56 = DIRECTION ( 'NONE',  ( 0.000000000000000000, 0.000000000000000000, -1.000000000000000000 ) ) ;
#57 = ADVANCED_FACE ( 'NONE', ( #699 ), #136, .F. ) ;
#58 = ORIENTED_EDGE ( 'NONE', *, *, #282, .T. ) ;
#59 = CARTESIAN_POINT ( 'NONE',  ( 0.3300000000000000155, -3.625000000000017764, 0.1250000000000064393 ) ) ;
#60 = EDGE_LOOP ( 'NONE', ( #1205, #317, #997, #745 ) ) ;
#61 = EDGE_CURVE ( 'NONE', #1154, #536, #1070, .T. ) ;
#62 = LINE ( 'NONE', #243, #789 ) ;
#63 = DIRECTION ( 'NONE',  ( -1.000000000000000000, -0.000000000000000000, -0.000000000000000000 ) ) ;
#64 = ADVANCED_FACE ( 'NONE', ( #976 ), #715, .F. ) ;
#65 = ORIENTED_EDGE ( 'NONE', *, *, #671, .F. ) ;
#66 = DIRECTION ( 'NONE',  ( 1.000000000000000000, -0.000000000000000000, -0.000000000000000000 ) ) ;
#67 = EDGE_CURVE ( 'NONE', #1081, #904, #431, .T. ) ;
#68 = AXIS2_PLACEMENT_3D ( 'NONE', #236, #342, #993 ) ;
#69 = CYLINDRICAL_SURFACE ( 'NONE', #48, 0.2499999999999998057 ) ;
#70 =( GEOMETRIC_REPRESENTATION_CONTEXT ( 3 ) GLOBAL_UNCERTAINTY_ASSIGNED_CONTEXT ( ( #920 ) ) GLOBAL_UNIT_ASSIGNED_CONTEXT ( ( #409, #504, #22 ) ) REPRESENTATION_CONTEXT ( 'NONE', 'WORKASPACE' ) );
#71 = DIRECTION ( 'NONE',  ( -1.000000000000000000, 0.000000000000000000, 0.000000000000000000 ) ) ;
#72 = ORIENTED_EDGE ( 'NONE', *, *, #61, .T. ) ;
#73 = PLANE ( 'NONE',  #923 ) ;
#74 = PERSON ( 'UNSPECIFIED', 'UNSPECIFIED', 'UNSPECIFIED', ('UNSPECIFIED'), ('UNSPECIFIED'), ('UNSPECIFIED') ) ;
#75 = CARTESIAN_POINT ( 'NONE',  ( 1.260000000000000009, -0.6250000000000180966, 0.1249999999999988065 ) ) ;
#76 = CARTESIAN_POINT ( 'NONE',  ( 1.260000000000000009, -0.6250000000000180966, 0.07578740157480239048 ) ) ;
#77 = ORIENTED_EDGE ( 'NONE', *, *, #641, .F. ) ;
#78 = DIRECTION ( 'NONE',  ( 0.000000000000000000, -2.561107494060247075E-17, -1.000000000000000000 ) ) ;
#79 = EDGE_CURVE ( 'NONE', #1158, #842, #238, .T. ) ;
#80 = CARTESIAN_POINT ( 'NONE',  ( 0.8944690730955725533, -3.014469073095572771, 0.000000000000000000 ) ) ;
#81 = CARTESIAN_POINT ( 'NONE',  ( 0.9004300876462814074, -0.6250000000000182077, 0.1249999999999988065 ) ) ;
#82 = ORIENTED_EDGE ( 'NONE', *, *, #1090, .F. ) ;
#83 = CARTESIAN_POINT ( 'NONE',  ( 1.260000000000000009, -7.512581982576723358E-16, 0.2499999999999986955 ) ) ;
#84 = VECTOR ( 'NONE', #1087, 39.37007874015748854 ) ;
#85 = CARTESIAN_POINT ( 'NONE',  ( 0.3655309269044274556, -3.014469073095572771, 0.000000000000000000 ) ) ;
#86 = DIRECTION ( 'NONE',  ( 0.000000000000000000, 0.000000000000000000, -1.000000000000000000 ) ) ;
#87 = CONICAL_SURFACE ( 'NONE', #1002, 0.04921259842519675604, 1.029744258676652757 ) ;
#88 = APPROVAL_PERSON_ORGANIZATION ( #802, #1125, #534 ) ;
#89 = ORIENTED_EDGE ( 'NONE', *, *, #198, .F. ) ;
#90 = EDGE_LOOP ( 'NONE', ( #794, #862 ) ) ;
#91 = CARTESIAN_POINT ( 'NONE',  ( 0.6300000000000001155, -2.750000000000000444, 0.000000000000000000 ) ) ;
#92 = DIRECTION ( 'NONE',  ( -1.000000000000000000, -0.000000000000000000, -0.000000000000000000 ) ) ;
#93 = ORIENTED_EDGE ( 'NONE', *, *, #566, .F. ) ;
#94 = ADVANCED_FACE ( 'NONE', ( #1008 ), #901, .F. ) ;
#95 = LENGTH_MEASURE_WITH_UNIT ( LENGTH_MEASURE( 0.02539999999999999897 ), #404 );
#96 = ORIENTED_EDGE ( 'NONE', *, *, #347, .T. ) ;
#97 = EDGE_CURVE ( 'NONE', #581, #703, #244, .T. ) ;
#98 = CARTESIAN_POINT ( 'NONE',  ( 0.3655309269044274556, -3.014469073095572771, 0.2499999999999988065 ) ) ;
#99 = CARTESIAN_POINT ( 'NONE',  ( 0.3655309269044274556, -3.014469073095572771, 0.000000000000000000 ) ) ;
#100 = VERTEX_POINT ( 'NONE', #1110 ) ;
#101 = DIRECTION ( 'NONE',  ( 0.000000000000000000, 0.000000000000000000, -1.000000000000000000 ) ) ;
#102 = EDGE_CURVE ( 'NONE', #1142, #638, #557, .T. ) ;
#103 = ORIENTED_EDGE ( 'NONE', *, *, #531, .F. ) ;
#104 = DIRECTION ( 'NONE',  ( 0.000000000000000000, 0.000000000000000000, -1.000000000000000000 ) ) ;
#105 = DIRECTION ( 'NONE',  ( 0.000000000000000000, 0.000000000000000000, -1.000000000000000000 ) ) ;
#106 = CIRCLE ( 'NONE', #899, 0.2499999999999998057 ) ;
#107 = AXIS2_PLACEMENT_3D ( 'NONE', #946, #953, #278 ) ;
#108 = ORIENTED_EDGE ( 'NONE', *, *, #122, .F. ) ;
#109 = LINE ( 'NONE', #478, #769 ) ;
#110 = AXIS2_PLACEMENT_3D ( 'NONE', #202, #17, #287 ) ;
#111 = EDGE_LOOP ( 'NONE', ( #115, #1061, #695, #114 ) ) ;
#112 = CYLINDRICAL_SURFACE ( 'NONE', #943, 0.04921259842519662420 ) ;
#113 = CARTESIAN_POINT ( 'NONE',  ( 0.4155309269044276665, -3.014469073095572771, 0.000000000000000000 ) ) ;
#114 = ORIENTED_EDGE ( 'NONE', *, *, #519, .F. ) ;
#115 = ORIENTED_EDGE ( 'NONE', *, *, #1069, .F. ) ;
#116 = ADVANCED_BREP_SHAPE_REPRESENTATION ( 'Side Wall_Vf', ( #1098, #474 ), #70 ) ;
#117 = CARTESIAN_POINT ( 'NONE',  ( 1.260000000000000009, -3.625000000000017764, 0.1250000000000064393 ) ) ;
#118 = ADVANCED_FACE ( 'NONE', ( #1189 ), #345, .F. ) ;
#119 = CARTESIAN_POINT ( 'NONE',  ( 1.260000000000000009, -3.625000000000017764, 0.1742125984252028137 ) ) ;
#120 = ORIENTED_EDGE ( 'NONE', *, *, #781, .T. ) ;
#121 = PERSON_AND_ORGANIZATION ( #74, #945 ) ;
#122 = EDGE_CURVE ( 'NONE', #366, #1048, #1178, .T. ) ;
#123 = ORIENTED_EDGE ( 'NONE', *, *, #1000, .T. ) ;
#124 = VECTOR ( 'NONE', #509, 39.37007874015748854 ) ;
#125 = DIRECTION ( 'NONE',  ( -0.000000000000000000, -0.000000000000000000, -1.000000000000000000 ) ) ;
#126 = AXIS2_PLACEMENT_3D ( 'NONE', #751, #954, #568 ) ;
#127 = CARTESIAN_POINT ( 'NONE',  ( 0.9444690730955729308, -2.485530926904428117, 0.2499999999999988065 ) ) ;
#128 = CIRCLE ( 'NONE', #226, 0.04921259842519675604 ) ;
#129 = ORIENTED_EDGE ( 'NONE', *, *, #547, .T. ) ;
#130 = CIRCLE ( 'NONE', #274, 0.04921259842519641603 ) ;
#131 = CARTESIAN_POINT ( 'NONE',  ( 1.260000000000000009, -0.6250000000000180966, 0.1249999999999988065 ) ) ;
#132 = EDGE_LOOP ( 'NONE', ( #103, #188, #162, #739 ) ) ;
#133 = EDGE_CURVE ( 'NONE', #1048, #366, #351, .T. ) ;
#134 = ORIENTED_EDGE ( 'NONE', *, *, #387, .F. ) ;
#135 = FACE_BOUND ( 'NONE', #1067, .T. ) ;
#136 = CYLINDRICAL_SURFACE ( 'NONE', #627, 0.04921259842519662420 ) ;
#137 = PERSON_AND_ORGANIZATION_ROLE ( 'creator' ) ;
#138 = VERTEX_POINT ( 'NONE', #1204 ) ;
#139 = LINE ( 'NONE', #1063, #251 ) ;
#140 = DIRECTION ( 'NONE',  ( 0.5150380749100536004, 1.049727191138618942E-16, 0.8571673007021125557 ) ) ;
#141 = EDGE_LOOP ( 'NONE', ( #1212, #972, #712, #182 ) ) ;
#142 = CALENDAR_DATE ( 2026, 20, 3 ) ;
#143 = CIRCLE ( 'NONE', #1036, 0.04921259842519689481 ) ;
#144 = AXIS2_PLACEMENT_3D ( 'NONE', #328, #984, #691 ) ;
#145 = ORIENTED_EDGE ( 'NONE', *, *, #190, .F. ) ;
#146 = LINE ( 'NONE', #215, #293 ) ;
#147 = AXIS2_PLACEMENT_3D ( 'NONE', #173, #560, #931 ) ;
#148 = LOCAL_TIME ( 19, 8, 1.000000000000000000, #1071 ) ;
#149 = ADVANCED_FACE ( 'NONE', ( #1092 ), #364, .F. ) ;
#150 = CARTESIAN_POINT ( 'NONE',  ( 0.000000000000000000, -0.6250000000000180966, 0.1742125984251954030 ) ) ;
#151 = DIRECTION ( 'NONE',  ( -0.5150380749100536004, 0.000000000000000000, 0.8571673007021125557 ) ) ;
#152 = ORIENTED_EDGE ( 'NONE', *, *, #1040, .T. ) ;
#153 = DIRECTION ( 'NONE',  ( 0.000000000000000000, 0.000000000000000000, -1.000000000000000000 ) ) ;
#154 = CARTESIAN_POINT ( 'NONE',  ( 0.9299999999999999378, -1.625000000000017764, 0.1742125984251984283 ) ) ;
#155 = EDGE_CURVE ( 'NONE', #873, #758, #1113, .T. ) ;
#156 = CARTESIAN_POINT ( 'NONE',  ( 0.3800000000000003375, -2.750000000000000444, 0.000000000000000000 ) ) ;
#157 = ORIENTED_EDGE ( 'NONE', *, *, #79, .T. ) ;
#158 = PLANE ( 'NONE',  #1141 ) ;
#159 = ADVANCED_FACE ( 'NONE', ( #1103 ), #642, .F. ) ;
#160 = CARTESIAN_POINT ( 'NONE',  ( -5.520553484345342928E-17, -0.6250000000000180966, 0.1249999999999988065 ) ) ;
#161 = DIRECTION ( 'NONE',  ( -1.000000000000000000, 0.000000000000000000, 0.000000000000000000 ) ) ;
#162 = ORIENTED_EDGE ( 'NONE', *, *, #519, .T. ) ;
#163 = DIRECTION ( 'NONE',  ( 0.000000000000000000, 1.000000000000000000, -2.561107494060247075E-17 ) ) ;
#164 = AXIS2_PLACEMENT_3D ( 'NONE', #761, #377, #382 ) ;
#165 = CIRCLE ( 'NONE', #1039, 0.04921259842519689481 ) ;
#166 = AXIS2_PLACEMENT_3D ( 'NONE', #670, #1045, #192 ) ;
#167 = DIRECTION ( 'NONE',  ( 0.000000000000000000, 0.000000000000000000, -1.000000000000000000 ) ) ;
#168 = CC_DESIGN_SECURITY_CLASSIFICATION ( #1202, ( #212 ) ) ;
#169 = DIRECTION ( 'NONE',  ( -1.000000000000000000, 0.000000000000000000, 0.000000000000000000 ) ) ;
#170 = ORIENTED_EDGE ( 'NONE', *, *, #696, .F. ) ;
#171 = CARTESIAN_POINT ( 'NONE',  ( 0.3300000000000000155, -0.6250000000000180966, 0.1742125984251955695 ) ) ;
#172 = EDGE_CURVE ( 'NONE', #1149, #1216, #1094, .T. ) ;
#173 = CARTESIAN_POINT ( 'NONE',  ( 0.8944690730955725533, -2.485530926904428117, 0.000000000000000000 ) ) ;
#174 = CARTESIAN_POINT ( 'NONE',  ( 1.260000000000000009, -4.000000000000000888, 0.2499999999999988065 ) ) ;
#175 = VERTEX_POINT ( 'NONE', #653 ) ;
#176 = FACE_OUTER_BOUND ( 'NONE', #879, .T. ) ;
#177 = CYLINDRICAL_SURFACE ( 'NONE', #790, 0.05000000000000021788 ) ;
#178 = DIRECTION ( 'NONE',  ( 1.000000000000000000, -0.000000000000000000, -0.000000000000000000 ) ) ;
#179 = VERTEX_POINT ( 'NONE', #156 ) ;
#180 = DIRECTION ( 'NONE',  ( 1.000000000000000000, -0.000000000000000000, -0.000000000000000000 ) ) ;
#181 = AXIS2_PLACEMENT_3D ( 'NONE', #540, #437, #56 ) ;
#182 = ORIENTED_EDGE ( 'NONE', *, *, #133, .T. ) ;
#183 = VECTOR ( 'NONE', #1007, 39.37007874015748143 ) ;
#184 = DIRECTION ( 'NONE',  ( -1.000000000000000000, -0.000000000000000000, -0.000000000000000000 ) ) ;
#185 = CIRCLE ( 'NONE', #166, 0.05000000000000021788 ) ;
#186 = EDGE_CURVE ( 'NONE', #1149, #1048, #259, .T. ) ;
#187 = DIRECTION ( 'NONE',  ( 1.000000000000000000, -0.000000000000000000, -0.000000000000000000 ) ) ;
#188 = ORIENTED_EDGE ( 'NONE', *, *, #749, .F. ) ;
#189 = CARTESIAN_POINT ( 'NONE',  ( 0.9299999999999999378, -3.625000000000017764, 0.07578740157480955142 ) ) ;
#190 = EDGE_CURVE ( 'NONE', #1142, #818, #637, .T. ) ;
#191 = ORIENTED_EDGE ( 'NONE', *, *, #1079, .F. ) ;
#192 = DIRECTION ( 'NONE',  ( -1.000000000000000000, 0.000000000000000000, 0.000000000000000000 ) ) ;
#193 = CYLINDRICAL_SURFACE ( 'NONE', #126, 0.2499999999999998057 ) ;
#194 = ADVANCED_FACE ( 'NONE', ( #1194 ), #734, .F. ) ;
#195 = EDGE_LOOP ( 'NONE', ( #848, #93 ) ) ;
#196 = CARTESIAN_POINT ( 'NONE',  ( 0.4155309269044277221, -2.485530926904428117, 0.2499999999999988065 ) ) ;
#197 = ORIENTED_EDGE ( 'NONE', *, *, #456, .F. ) ;
#198 = EDGE_CURVE ( 'NONE', #904, #1179, #143, .T. ) ;
#199 = CARTESIAN_POINT ( 'NONE',  ( 0.3155309269044272447, -3.014469073095572771, 0.000000000000000000 ) ) ;
#200 = DIRECTION ( 'NONE',  ( -1.000000000000000000, 0.000000000000000000, 0.000000000000000000 ) ) ;
#201 = EDGE_LOOP ( 'NONE', ( #223, #1099 ) ) ;
#202 = CARTESIAN_POINT ( 'NONE',  ( -5.520553484345342928E-17, -1.625000000000017764, 0.1250000000000015266 ) ) ;
#203 = ORIENTED_EDGE ( 'NONE', *, *, #186, .F. ) ;
#204 = DIRECTION ( 'NONE',  ( 0.000000000000000000, 0.000000000000000000, 1.000000000000000000 ) ) ;
#205 = CIRCLE ( 'NONE', #311, 0.05000000000000042605 ) ;
#206 = CYLINDRICAL_SURFACE ( 'NONE', #372, 0.05000000000000021788 ) ;
#207 = AXIS2_PLACEMENT_3D ( 'NONE', #75, #237, #258 ) ;
#208 = CIRCLE ( 'NONE', #1021, 0.05000000000000042605 ) ;
#209 = VERTEX_POINT ( 'NONE', #76 ) ;
#210 = LINE ( 'NONE', #1147, #651 ) ;
#211 = APPROVAL ( #716, 'UNSPECIFIED' ) ;
#212 = PRODUCT_DEFINITION_FORMATION_WITH_SPECIFIED_SOURCE ( 'ANY', '', #334, .NOT_KNOWN. ) ;
#213 = EDGE_LOOP ( 'NONE', ( #1083, #866, #129, #1023 ) ) ;
#214 = EDGE_CURVE ( 'NONE', #298, #722, #205, .T. ) ;
#215 = CARTESIAN_POINT ( 'NONE',  ( 1.260000000000000009, -4.000000000000000888, -1.195183497228115133E-15 ) ) ;
#216 = DIRECTION ( 'NONE',  ( 1.000000000000000000, -0.000000000000000000, -0.000000000000000000 ) ) ;
#217 = EDGE_LOOP ( 'NONE', ( #599, #256, #1169 ) ) ;
#218 = DATE_TIME_ROLE ( 'classification_date' ) ;
#219 = EDGE_LOOP ( 'NONE', ( #389, #477, #4 ) ) ;
#220 = CARTESIAN_POINT ( 'NONE',  ( 0.000000000000000000, -1.625000000000017764, 0.1742125984251981508 ) ) ;
#221 = CARTESIAN_POINT ( 'NONE',  ( 0.000000000000000000, -3.625000000000017764, 0.07578740157480982897 ) ) ;
#222 = CALENDAR_DATE ( 2026, 20, 3 ) ;
#223 = ORIENTED_EDGE ( 'NONE', *, *, #762, .F. ) ;
#224 = DIRECTION ( 'NONE',  ( 1.000000000000000000, -0.000000000000000000, -0.000000000000000000 ) ) ;
#225 = VERTEX_POINT ( 'NONE', #834 ) ;
#226 = AXIS2_PLACEMENT_3D ( 'NONE', #1214, #1096, #640 ) ;
#227 = APPROVAL_ROLE ( '' ) ;
#228 = AXIS2_PLACEMENT_3D ( 'NONE', #1106, #180, #445 ) ;
#229 = ORIENTED_EDGE ( 'NONE', *, *, #102, .F. ) ;
#230 = CIRCLE ( 'NONE', #337, 0.04921259842519634664 ) ;
#231 = EDGE_CURVE ( 'NONE', #1216, #366, #1215, .T. ) ;
#232 = LINE ( 'NONE', #1171, #353 ) ;
#233 = VERTEX_POINT ( 'NONE', #81 ) ;
#234 = PERSON_AND_ORGANIZATION_ROLE ( 'creator' ) ;
#235 = ORIENTED_EDGE ( 'NONE', *, *, #42, .F. ) ;
#236 = CARTESIAN_POINT ( 'NONE',  ( 0.3300000000000000155, -0.6250000000000180966, 0.1249999999999988065 ) ) ;
#237 = DIRECTION ( 'NONE',  ( 1.000000000000000000, -0.000000000000000000, -0.000000000000000000 ) ) ;
#238 = LINE ( 'NONE', #245, #820 ) ;
#239 = COORDINATED_UNIVERSAL_TIME_OFFSET ( 8, 0, .BEHIND. ) ;
#240 = ORIENTED_EDGE ( 'NONE', *, *, #1148, .T. ) ;
#241 = CARTESIAN_POINT ( 'NONE',  ( 0.9299999999999999378, -0.6250000000000180966, 0.1249999999999988065 ) ) ;
#242 = EDGE_CURVE ( 'NONE', #100, #175, #663, .T. ) ;
#243 = CARTESIAN_POINT ( 'NONE',  ( 1.260000000000000009, -4.000000000000000888, 0.2499999999999988065 ) ) ;
#244 = CIRCLE ( 'NONE', #390, 0.05000000000000042605 ) ;
#245 = CARTESIAN_POINT ( 'NONE',  ( 1.260000000000000009, -1.625000000000017764, 0.07578740157480491624 ) ) ;
#246 = CIRCLE ( 'NONE', #329, 0.04921259842519634664 ) ;
#247 = ORIENTED_EDGE ( 'NONE', *, *, #1184, .T. ) ;
#248 = EDGE_CURVE ( 'NONE', #175, #655, #1046, .T. ) ;
#249 = DIRECTION ( 'NONE',  ( 1.000000000000000000, -0.000000000000000000, -0.000000000000000000 ) ) ;
#250 = AXIS2_PLACEMENT_3D ( 'NONE', #160, #548, #919 ) ;
#251 = VECTOR ( 'NONE', #1187, 39.37007874015748143 ) ;
#252 = EDGE_CURVE ( 'NONE', #319, #492, #865, .T. ) ;
#253 = LINE ( 'NONE', #1201, #610 ) ;
#254 = EDGE_CURVE ( 'NONE', #138, #179, #666, .T. ) ;
#255 = DIRECTION ( 'NONE',  ( -1.000000000000000000, 0.000000000000000000, 0.000000000000000000 ) ) ;
#256 = ORIENTED_EDGE ( 'NONE', *, *, #476, .T. ) ;
#257 = LINE ( 'NONE', #1213, #1041 ) ;
#258 = DIRECTION ( 'NONE',  ( 0.000000000000000000, 0.000000000000000000, -1.000000000000000000 ) ) ;
#259 = LINE ( 'NONE', #1012, #664 ) ;
#260 = ORIENTED_EDGE ( 'NONE', *, *, #1225, .T. ) ;
#261 = FACE_BOUND ( 'NONE', #552, .T. ) ;
#262 = VERTEX_POINT ( 'NONE', #1137 ) ;
#263 = DIRECTION ( 'NONE',  ( -1.000000000000000000, -0.000000000000000000, -0.000000000000000000 ) ) ;
#264 = DIRECTION ( 'NONE',  ( -1.000000000000000000, 0.000000000000000000, 0.000000000000000000 ) ) ;
#265 = EDGE_CURVE ( 'NONE', #1042, #516, #246, .T. ) ;
#266 = ORIENTED_EDGE ( 'NONE', *, *, #912, .F. ) ;
#267 = CLOSED_SHELL ( 'NONE', ( #118, #952, #32, #967, #799, #270, #948, #698, #980, #1101, #658, #936, #480, #493, #770, #1144, #362, #1130, #1109, #324, #496, #1122, #565, #675, #149, #194, #64, #733, #1198, #159, #1172, #1013, #441, #1210, #709, #927, #759, #57, #1074, #94 ) ) ;
#268 = CARTESIAN_POINT ( 'NONE',  ( 0.3300000000000000155, -0.6250000000000180966, 0.1249999999999988065 ) ) ;
#269 = AXIS2_PLACEMENT_3D ( 'NONE', #971, #1157, #875 ) ;
#270 = ADVANCED_FACE ( 'NONE', ( #1031 ), #1136, .F. ) ;
#271 = VECTOR ( 'NONE', #140, 39.37007874015748854 ) ;
#272 = AXIS2_PLACEMENT_3D ( 'NONE', #780, #1192, #620 ) ;
#273 = DIRECTION ( 'NONE',  ( -0.000000000000000000, -0.000000000000000000, -1.000000000000000000 ) ) ;
#274 = AXIS2_PLACEMENT_3D ( 'NONE', #398, #680, #384 ) ;
#275 = DIRECTION ( 'NONE',  ( 0.000000000000000000, 0.000000000000000000, -1.000000000000000000 ) ) ;
#276 = EDGE_LOOP ( 'NONE', ( #957, #1186, #325, #910 ) ) ;
#277 = FACE_BOUND ( 'NONE', #1146, .T. ) ;
#278 = DIRECTION ( 'NONE',  ( 0.000000000000000000, 0.000000000000000000, 1.000000000000000000 ) ) ;
#279 = CARTESIAN_POINT ( 'NONE',  ( 1.260000000000000009, -1.625000000000017764, 0.1742125984251981508 ) ) ;
#280 = ORIENTED_EDGE ( 'NONE', *, *, #387, .T. ) ;
#281 = DIRECTION ( 'NONE',  ( 0.000000000000000000, 0.000000000000000000, -1.000000000000000000 ) ) ;
#282 = EDGE_CURVE ( 'NONE', #37, #370, #1131, .T. ) ;
#283 = CARTESIAN_POINT ( 'NONE',  ( 0.3300000000000000155, -3.625000000000017764, 0.1250000000000064393 ) ) ;
#284 = CARTESIAN_POINT ( 'NONE',  ( 0.000000000000000000, 0.000000000000000000, 0.000000000000000000 ) ) ;
#285 = EDGE_CURVE ( 'NONE', #951, #37, #678, .T. ) ;
#286 = ORIENTED_EDGE ( 'NONE', *, *, #1029, .F. ) ;
#287 = DIRECTION ( 'NONE',  ( 0.000000000000000000, 0.000000000000000000, 1.000000000000000000 ) ) ;
#288 = VECTOR ( 'NONE', #151, 39.37007874015748854 ) ;
#289 = ORIENTED_EDGE ( 'NONE', *, *, #453, .F. ) ;
#290 = VECTOR ( 'NONE', #772, 39.37007874015748143 ) ;
#291 = EDGE_CURVE ( 'NONE', #516, #1042, #1017, .T. ) ;
#292 = CARTESIAN_POINT ( 'NONE',  ( 0.3300000000000000155, -1.625000000000017764, 0.1250000000000015266 ) ) ;
#293 = VECTOR ( 'NONE', #682, 39.37007874015748143 ) ;
#294 = DIRECTION ( 'NONE',  ( 1.000000000000000000, -0.000000000000000000, -0.000000000000000000 ) ) ;
#295 = EDGE_CURVE ( 'NONE', #511, #403, #706, .T. ) ;
#296 = VERTEX_POINT ( 'NONE', #561 ) ;
#297 = FACE_OUTER_BOUND ( 'NONE', #217, .T. ) ;
#298 = VERTEX_POINT ( 'NONE', #1124 ) ;
#299 = DIRECTION ( 'NONE',  ( -0.000000000000000000, -0.000000000000000000, -1.000000000000000000 ) ) ;
#300 = DIRECTION ( 'NONE',  ( -0.5150380749100536004, 0.000000000000000000, 0.8571673007021125557 ) ) ;
#301 = ORIENTED_EDGE ( 'NONE', *, *, #696, .T. ) ;
#302 = DIRECTION ( 'NONE',  ( 0.000000000000000000, 0.000000000000000000, -1.000000000000000000 ) ) ;
#303 = EDGE_LOOP ( 'NONE', ( #831, #419, #157, #23 ) ) ;
#304 = DIRECTION ( 'NONE',  ( 0.000000000000000000, 0.000000000000000000, 1.000000000000000000 ) ) ;
#305 = CARTESIAN_POINT ( 'NONE',  ( 1.260000000000000009, -4.000000000000000888, -1.195183497228115133E-15 ) ) ;
#306 = ORIENTED_EDGE ( 'NONE', *, *, #912, .T. ) ;
#307 = FACE_OUTER_BOUND ( 'NONE', #446, .T. ) ;
#308 = APPLICATION_CONTEXT ( 'configuration controlled 3d designs of mechanical parts and assemblies' ) ;
#309 = ORIENTED_EDGE ( 'NONE', *, *, #172, .T. ) ;
#310 = CARTESIAN_POINT ( 'NONE',  ( 0.3300000000000000155, -0.6250000000000180966, 0.1249999999999988065 ) ) ;
#311 = AXIS2_PLACEMENT_3D ( 'NONE', #1020, #726, #448 ) ;
#312 = LINE ( 'NONE', #323, #822 ) ;
#313 = AXIS2_PLACEMENT_3D ( 'NONE', #117, #500, #1095 ) ;
#314 = EDGE_LOOP ( 'NONE', ( #229, #10, #913 ) ) ;
#315 = CARTESIAN_POINT ( 'NONE',  ( 0.9299999999999999378, -1.625000000000017764, 0.07578740157480463868 ) ) ;
#316 = CIRCLE ( 'NONE', #1119, 0.2499999999999998057 ) ;
#317 = ORIENTED_EDGE ( 'NONE', *, *, #784, .T. ) ;
#318 = CARTESIAN_POINT ( 'NONE',  ( 0.3655309269044275111, -2.485530926904428117, 0.2499999999999988065 ) ) ;
#319 = VERTEX_POINT ( 'NONE', #580 ) ;
#320 = COORDINATED_UNIVERSAL_TIME_OFFSET ( 8, 0, .BEHIND. ) ;
#321 = ORIENTED_EDGE ( 'NONE', *, *, #295, .F. ) ;
#322 = EDGE_CURVE ( 'NONE', #586, #827, #1151, .T. ) ;
#323 = CARTESIAN_POINT ( 'NONE',  ( 0.9444690730955729308, -3.014469073095572771, 0.2499999999999988065 ) ) ;
#324 = ADVANCED_FACE ( 'NONE', ( #959 ), #388, .F. ) ;
#325 = ORIENTED_EDGE ( 'NONE', *, *, #908, .T. ) ;
#326 = DIRECTION ( 'NONE',  ( 0.000000000000000000, 0.000000000000000000, 1.000000000000000000 ) ) ;
#327 = ORIENTED_EDGE ( 'NONE', *, *, #762, .T. ) ;
#328 = CARTESIAN_POINT ( 'NONE',  ( 1.260000000000000009, -4.000000000000000888, -1.195183497228115133E-15 ) ) ;
#329 = AXIS2_PLACEMENT_3D ( 'NONE', #938, #294, #86 ) ;
#330 = LINE ( 'NONE', #1176, #1016 ) ;
#331 = CIRCLE ( 'NONE', #1019, 0.04921259842519689481 ) ;
#332 = APPROVAL_DATE_TIME ( #721, #1125 ) ;
#333 = AXIS2_PLACEMENT_3D ( 'NONE', #584, #104, #494 ) ;
#334 = PRODUCT ( 'Side Wall_Vf', 'Side Wall_Vf', '', ( #1190 ) ) ;
#335 = ORIENTED_EDGE ( 'NONE', *, *, #1055, .T. ) ;
#336 = DIRECTION ( 'NONE',  ( 0.000000000000000000, 0.000000000000000000, 1.000000000000000000 ) ) ;
#337 = AXIS2_PLACEMENT_3D ( 'NONE', #1160, #942, #766 ) ;
#338 = FACE_OUTER_BOUND ( 'NONE', #944, .T. ) ;
#339 = DIRECTION ( 'NONE',  ( 0.000000000000000000, 0.000000000000000000, 1.000000000000000000 ) ) ;
#340 = APPROVAL_DATE_TIME ( #996, #729 ) ;
#341 = VERTEX_POINT ( 'NONE', #495 ) ;
#342 = DIRECTION ( 'NONE',  ( -1.000000000000000000, -0.000000000000000000, -0.000000000000000000 ) ) ;
#343 = CARTESIAN_POINT ( 'NONE',  ( -5.520553484345342928E-17, -0.6250000000000180966, 0.07578740157480239048 ) ) ;
#344 = CC_DESIGN_PERSON_AND_ORGANIZATION_ASSIGNMENT ( #1077, #600, ( #334 ) ) ;
#345 = CYLINDRICAL_SURFACE ( 'NONE', #1078, 0.04921259842519658950 ) ;
#346 = PERSON_AND_ORGANIZATION_ROLE ( 'classification_officer' ) ;
#347 = EDGE_CURVE ( 'NONE', #262, #951, #683, .T. ) ;
#348 = EDGE_LOOP ( 'NONE', ( #1174, #280 ) ) ;
#349 = DIRECTION ( 'NONE',  ( 0.000000000000000000, 0.000000000000000000, -1.000000000000000000 ) ) ;
#350 = CARTESIAN_POINT ( 'NONE',  ( 0.9299999999999999378, -1.625000000000017764, 0.07578740157480463868 ) ) ;
#351 = CIRCLE ( 'NONE', #6, 0.05000000000000021788 ) ;
#352 = DIRECTION ( 'NONE',  ( -0.000000000000000000, -0.000000000000000000, -1.000000000000000000 ) ) ;
#353 = VECTOR ( 'NONE', #502, 39.37007874015748143 ) ;
#354 = EDGE_LOOP ( 'NONE', ( #410, #1054, #1084 ) ) ;
#355 = DIRECTION ( 'NONE',  ( 0.000000000000000000, 0.000000000000000000, 1.000000000000000000 ) ) ;
#356 = CIRCLE ( 'NONE', #333, 0.05000000000000042605 ) ;
#357 = CARTESIAN_POINT ( 'NONE',  ( 0.000000000000000000, 0.000000000000000000, 0.000000000000000000 ) ) ;
#358 = DIRECTION ( 'NONE',  ( 0.000000000000000000, 0.000000000000000000, -1.000000000000000000 ) ) ;
#359 = ORIENTED_EDGE ( 'NONE', *, *, #551, .F. ) ;
#360 = DIRECTION ( 'NONE',  ( -1.000000000000000000, -0.000000000000000000, -0.000000000000000000 ) ) ;
#361 = ORIENTED_EDGE ( 'NONE', *, *, #322, .F. ) ;
#362 = ADVANCED_FACE ( 'NONE', ( #672 ), #193, .F. ) ;
#363 = LINE ( 'NONE', #154, #271 ) ;
#364 = CYLINDRICAL_SURFACE ( 'NONE', #411, 0.05000000000000042605 ) ;
#365 = EDGE_CURVE ( 'NONE', #827, #458, #765, .T. ) ;
#366 = VERTEX_POINT ( 'NONE', #395 ) ;
#367 = DIRECTION ( 'NONE',  ( -1.000000000000000000, 0.000000000000000000, 0.000000000000000000 ) ) ;
#368 = DIRECTION ( 'NONE',  ( -1.000000000000000000, -0.000000000000000000, -0.000000000000000000 ) ) ;
#369 = DIRECTION ( 'NONE',  ( 0.000000000000000000, 0.000000000000000000, 1.000000000000000000 ) ) ;
#370 = VERTEX_POINT ( 'NONE', #284 ) ;
#371 = LINE ( 'NONE', #746, #593 ) ;
#372 = AXIS2_PLACEMENT_3D ( 'NONE', #318, #125, #966 ) ;
#373 = CONICAL_SURFACE ( 'NONE', #647, 0.04921259842519689481, 1.029744258676655200 ) ;
#374 = CIRCLE ( 'NONE', #747, 0.04921259842519689481 ) ;
#375 = CARTESIAN_POINT ( 'NONE',  ( 0.9444690730955729308, -3.014469073095572771, 0.000000000000000000 ) ) ;
#376 = CC_DESIGN_APPROVAL ( #1125, ( #1202 ) ) ;
#377 = DIRECTION ( 'NONE',  ( -0.000000000000000000, 1.000000000000000000, 0.000000000000000000 ) ) ;
#378 = ORIENTED_EDGE ( 'NONE', *, *, #1073, .F. ) ;
#379 = EDGE_CURVE ( 'NONE', #209, #503, #744, .T. ) ;
#380 = DIRECTION ( 'NONE',  ( -1.000000000000000000, -0.000000000000000000, -0.000000000000000000 ) ) ;
#381 = CARTESIAN_POINT ( 'NONE',  ( 0.9444690730955729308, -2.485530926904428117, 0.000000000000000000 ) ) ;
#382 = DIRECTION ( 'NONE',  ( 0.000000000000000000, -0.000000000000000000, 1.000000000000000000 ) ) ;
#383 = ORIENTED_EDGE ( 'NONE', *, *, #1104, .T. ) ;
#384 = DIRECTION ( 'NONE',  ( 0.000000000000000000, 0.000000000000000000, 1.000000000000000000 ) ) ;
#385 = ORIENTED_EDGE ( 'NONE', *, *, #27, .F. ) ;
#386 = LINE ( 'NONE', #846, #452 ) ;
#387 = EDGE_CURVE ( 'NONE', #403, #511, #688, .T. ) ;
#388 = PLANE ( 'NONE',  #164 ) ;
#389 = ORIENTED_EDGE ( 'NONE', *, *, #67, .F. ) ;
#390 = AXIS2_PLACEMENT_3D ( 'NONE', #738, #909, #812 ) ;
#391 = ORIENTED_EDGE ( 'NONE', *, *, #214, .T. ) ;
#392 = VECTOR ( 'NONE', #105, 39.37007874015748143 ) ;
#393 = FACE_OUTER_BOUND ( 'NONE', #895, .T. ) ;
#394 = VECTOR ( 'NONE', #911, 39.37007874015748143 ) ;
#395 = CARTESIAN_POINT ( 'NONE',  ( 0.4155309269044277221, -2.485530926904428117, 0.000000000000000000 ) ) ;
#396 = AXIS2_PLACEMENT_3D ( 'NONE', #950, #849, #489 ) ;
#397 = EDGE_LOOP ( 'NONE', ( #673, #1163, #988, #1051 ) ) ;
#398 = CARTESIAN_POINT ( 'NONE',  ( -5.520553484345342928E-17, -0.6250000000000180966, 0.1249999999999988065 ) ) ;
#399 = ORIENTED_EDGE ( 'NONE', *, *, #198, .T. ) ;
#400 = DIRECTION ( 'NONE',  ( 1.000000000000000000, -0.000000000000000000, -0.000000000000000000 ) ) ;
#401 = EDGE_CURVE ( 'NONE', #16, #458, #424, .T. ) ;
#402 = DIRECTION ( 'NONE',  ( 0.000000000000000000, 0.000000000000000000, 1.000000000000000000 ) ) ;
#403 = VERTEX_POINT ( 'NONE', #795 ) ;
#404 =( LENGTH_UNIT ( ) NAMED_UNIT ( * ) SI_UNIT ( $, .METRE. ) );
#405 = ORIENTED_EDGE ( 'NONE', *, *, #214, .F. ) ;
#406 = DIRECTION ( 'NONE',  ( 1.000000000000000000, -0.000000000000000000, -0.000000000000000000 ) ) ;
#407 = FACE_BOUND ( 'NONE', #201, .T. ) ;
#408 = ORIENTED_EDGE ( 'NONE', *, *, #242, .F. ) ;
#409 =( CONVERSION_BASED_UNIT ( 'INCH', #95 ) LENGTH_UNIT ( ) NAMED_UNIT ( #562 ) );
#410 = ORIENTED_EDGE ( 'NONE', *, *, #1040, .F. ) ;
#411 = AXIS2_PLACEMENT_3D ( 'NONE', #51, #544, #255 ) ;
#412 = VECTOR ( 'NONE', #932, 39.37007874015748143 ) ;
#413 = CARTESIAN_POINT ( 'NONE',  ( 0.8444690730955720648, -3.014469073095572771, 0.2499999999999988065 ) ) ;
#414 = CIRCLE ( 'NONE', #228, 0.04921259842519689481 ) ;
#415 = VECTOR ( 'NONE', #451, 39.37007874015748143 ) ;
#416 = ORIENTED_EDGE ( 'NONE', *, *, #67, .T. ) ;
#417 = PERSON_AND_ORGANIZATION ( #74, #945 ) ;
#418 = EDGE_CURVE ( 'NONE', #1216, #1149, #1159, .T. ) ;
#419 = ORIENTED_EDGE ( 'NONE', *, *, #606, .F. ) ;
#420 = DIRECTION ( 'NONE',  ( -1.000000000000000000, 0.000000000000000000, 0.000000000000000000 ) ) ;
#421 = DIRECTION ( 'NONE',  ( -0.000000000000000000, -0.000000000000000000, -1.000000000000000000 ) ) ;
#422 = ORIENTED_EDGE ( 'NONE', *, *, #551, .T. ) ;
#423 = EDGE_CURVE ( 'NONE', #526, #370, #232, .T. ) ;
#424 = LINE ( 'NONE', #1082, #841 ) ;
#425 = FACE_OUTER_BOUND ( 'NONE', #111, .T. ) ;
#426 = SECURITY_CLASSIFICATION_LEVEL ( 'unclassified' ) ;
#427 = ORIENTED_EDGE ( 'NONE', *, *, #781, .F. ) ;
#428 = FACE_OUTER_BOUND ( 'NONE', #303, .T. ) ;
#429 = LINE ( 'NONE', #20, #45 ) ;
#430 = AXIS2_PLACEMENT_3D ( 'NONE', #131, #216, #598 ) ;
#431 = LINE ( 'NONE', #808, #84 ) ;
#432 = ORIENTED_EDGE ( 'NONE', *, *, #508, .F. ) ;
#433 = CARTESIAN_POINT ( 'NONE',  ( 1.260000000000000009, -3.625000000000017764, 0.07578740157480982897 ) ) ;
#434 = APPROVAL_PERSON_ORGANIZATION ( #438, #211, #29 ) ;
#435 = CC_DESIGN_DATE_AND_TIME_ASSIGNMENT ( #813, #218, ( #1202 ) ) ;
#436 = FACE_OUTER_BOUND ( 'NONE', #1231, .T. ) ;
#437 = DIRECTION ( 'NONE',  ( 1.000000000000000000, -0.000000000000000000, -0.000000000000000000 ) ) ;
#438 = PERSON_AND_ORGANIZATION ( #74, #945 ) ;
#439 = EDGE_LOOP ( 'NONE', ( #1093, #783, #96, #306 ) ) ;
#440 = FACE_OUTER_BOUND ( 'NONE', #717, .T. ) ;
#441 = ADVANCED_FACE ( 'NONE', ( #800 ), #1080, .F. ) ;
#442 = FACE_BOUND ( 'NONE', #1105, .T. ) ;
#443 = CARTESIAN_POINT ( 'NONE',  ( 0.3655309269044275111, -2.485530926904428117, 0.2499999999999988065 ) ) ;
#444 = ORIENTED_EDGE ( 'NONE', *, *, #456, .T. ) ;
#445 = DIRECTION ( 'NONE',  ( 0.000000000000000000, 0.000000000000000000, -1.000000000000000000 ) ) ;
#446 = EDGE_LOOP ( 'NONE', ( #134, #545, #588, #1218 ) ) ;
#447 = DIRECTION ( 'NONE',  ( 1.000000000000000000, -0.000000000000000000, -0.000000000000000000 ) ) ;
#448 = DIRECTION ( 'NONE',  ( -1.000000000000000000, 0.000000000000000000, 0.000000000000000000 ) ) ;
#449 = AXIS2_PLACEMENT_3D ( 'NONE', #811, #1001, #760 ) ;
#450 = ORIENTED_EDGE ( 'NONE', *, *, #97, .F. ) ;
#451 = DIRECTION ( 'NONE',  ( 1.000000000000000000, -0.000000000000000000, -0.000000000000000000 ) ) ;
#452 = VECTOR ( 'NONE', #273, 39.37007874015748143 ) ;
#453 = EDGE_CURVE ( 'NONE', #403, #703, #312, .T. ) ;
#454 = VECTOR ( 'NONE', #577, 39.37007874015748143 ) ;
#455 = CARTESIAN_POINT ( 'NONE',  ( 0.000000000000000000, -1.625000000000017764, 0.07578740157480491624 ) ) ;
#456 = EDGE_CURVE ( 'NONE', #655, #536, #589, .T. ) ;
#457 = DIRECTION ( 'NONE',  ( 0.000000000000000000, 0.000000000000000000, 1.000000000000000000 ) ) ;
#458 = VERTEX_POINT ( 'NONE', #113 ) ;
#459 = CARTESIAN_POINT ( 'NONE',  ( 1.260000000000000009, 0.000000000000000000, 0.000000000000000000 ) ) ;
#460 = DIRECTION ( 'NONE',  ( -1.000000000000000000, -0.000000000000000000, -0.000000000000000000 ) ) ;
#461 = CARTESIAN_POINT ( 'NONE',  ( 0.6300000000000001155, -2.750000000000000444, 0.2499999999999988065 ) ) ;
#462 = ORIENTED_EDGE ( 'NONE', *, *, #508, .T. ) ;
#463 = FACE_BOUND ( 'NONE', #195, .T. ) ;
#464 = DIRECTION ( 'NONE',  ( 0.000000000000000000, 0.000000000000000000, -1.000000000000000000 ) ) ;
#465 = CARTESIAN_POINT ( 'NONE',  ( 0.8944690730955725533, -3.014469073095572771, 0.2499999999999988065 ) ) ;
#466 = AXIS2_PLACEMENT_3D ( 'NONE', #34, #421, #43 ) ;
#467 = ORIENTED_EDGE ( 'NONE', *, *, #1208, .F. ) ;
#468 = DIRECTION ( 'NONE',  ( 0.000000000000000000, -1.000000000000000000, -3.005032793030704331E-15 ) ) ;
#469 = VECTOR ( 'NONE', #15, 39.37007874015748143 ) ;
#470 = VECTOR ( 'NONE', #829, 39.37007874015748143 ) ;
#471 = AXIS2_PLACEMENT_3D ( 'NONE', #1180, #1089, #626 ) ;
#472 = FACE_OUTER_BOUND ( 'NONE', #992, .T. ) ;
#473 = CC_DESIGN_PERSON_AND_ORGANIZATION_ASSIGNMENT ( #987, #137, ( #212 ) ) ;
#474 = AXIS2_PLACEMENT_3D ( 'NONE', #902, #326, #704 ) ;
#475 = DIRECTION ( 'NONE',  ( 0.000000000000000000, 0.000000000000000000, -1.000000000000000000 ) ) ;
#476 = EDGE_CURVE ( 'NONE', #233, #1227, #871, .T. ) ;
#477 = ORIENTED_EDGE ( 'NONE', *, *, #986, .T. ) ;
#478 = CARTESIAN_POINT ( 'NONE',  ( 0.000000000000000000, -4.000000000000000888, 0.2499999999999988065 ) ) ;
#479 = EDGE_LOOP ( 'NONE', ( #378, #191, #123, #705 ) ) ;
#480 = ADVANCED_FACE ( 'NONE', ( #520 ), #206, .F. ) ;
#481 = DIRECTION ( 'NONE',  ( -1.000000000000000000, 0.000000000000000000, 0.000000000000000000 ) ) ;
#482 = CARTESIAN_POINT ( 'NONE',  ( 1.260000000000000009, -3.625000000000017764, 0.1250000000000064393 ) ) ;
#483 = VERTEX_POINT ( 'NONE', #883 ) ;
#484 = FACE_OUTER_BOUND ( 'NONE', #541, .T. ) ;
#485 = VERTEX_POINT ( 'NONE', #1175 ) ;
#486 = DIRECTION ( 'NONE',  ( -0.000000000000000000, -0.000000000000000000, -1.000000000000000000 ) ) ;
#487 = DIRECTION ( 'NONE',  ( -1.000000000000000000, 0.000000000000000000, 0.000000000000000000 ) ) ;
#488 = ORIENTED_EDGE ( 'NONE', *, *, #582, .F. ) ;
#489 = DIRECTION ( 'NONE',  ( 0.000000000000000000, 0.000000000000000000, -1.000000000000000000 ) ) ;
#490 = EDGE_CURVE ( 'NONE', #518, #503, #429, .T. ) ;
#491 = VECTOR ( 'NONE', #604, 39.37007874015748143 ) ;
#492 = VERTEX_POINT ( 'NONE', #41 ) ;
#493 = ADVANCED_FACE ( 'NONE', ( #338 ), #782, .F. ) ;
#494 = DIRECTION ( 'NONE',  ( -1.000000000000000000, 0.000000000000000000, 0.000000000000000000 ) ) ;
#495 = CARTESIAN_POINT ( 'NONE',  ( -5.520553484345342928E-17, -1.625000000000017764, 0.1742125984251978732 ) ) ;
#496 = ADVANCED_FACE ( 'NONE', ( #135, #603, #974, #33, #407, #611 ), #25, .F. ) ;
#497 = ORIENTED_EDGE ( 'NONE', *, *, #231, .T. ) ;
#498 = FACE_OUTER_BOUND ( 'NONE', #479, .T. ) ;
#499 = ORIENTED_EDGE ( 'NONE', *, *, #566, .T. ) ;
#500 = DIRECTION ( 'NONE',  ( 1.000000000000000000, -0.000000000000000000, -0.000000000000000000 ) ) ;
#501 = APPLICATION_CONTEXT ( 'configuration controlled 3d designs of mechanical parts and assemblies' ) ;
#502 = DIRECTION ( 'NONE',  ( -1.000000000000000000, -0.000000000000000000, -0.000000000000000000 ) ) ;
#503 = VERTEX_POINT ( 'NONE', #1064 ) ;
#504 =( NAMED_UNIT ( * ) PLANE_ANGLE_UNIT ( ) SI_UNIT ( $, .RADIAN. ) );
#505 = ORIENTED_EDGE ( 'NONE', *, *, #788, .F. ) ;
#506 = FACE_OUTER_BOUND ( 'NONE', #314, .T. ) ;
#507 = LINE ( 'NONE', #697, #1114 ) ;
#508 = EDGE_CURVE ( 'NONE', #503, #209, #805, .T. ) ;
#509 = DIRECTION ( 'NONE',  ( -0.5150380749100536004, 1.049727191138618942E-16, -0.8571673007021125557 ) ) ;
#510 = CALENDAR_DATE ( 2026, 20, 3 ) ;
#511 = VERTEX_POINT ( 'NONE', #413 ) ;
#512 = VECTOR ( 'NONE', #1223, 39.37007874015748143 ) ;
#513 = CC_DESIGN_PERSON_AND_ORGANIZATION_ASSIGNMENT ( #624, #346, ( #1202 ) ) ;
#514 = DIRECTION ( 'NONE',  ( -0.000000000000000000, -0.000000000000000000, -1.000000000000000000 ) ) ;
#515 = AXIS2_PLACEMENT_3D ( 'NONE', #268, #740, #917 ) ;
#516 = VERTEX_POINT ( 'NONE', #119 ) ;
#517 = EDGE_CURVE ( 'NONE', #511, #581, #507, .T. ) ;
#518 = VERTEX_POINT ( 'NONE', #889 ) ;
#519 = EDGE_CURVE ( 'NONE', #638, #341, #36, .T. ) ;
#520 = FACE_OUTER_BOUND ( 'NONE', #868, .T. ) ;
#521 = CARTESIAN_POINT ( 'NONE',  ( 0.4155309269044276665, -3.014469073095572771, 0.2499999999999988065 ) ) ;
#522 = DATE_TIME_ROLE ( 'creation_date' ) ;
#523 = ORIENTED_EDGE ( 'NONE', *, *, #291, .F. ) ;
#524 = DIRECTION ( 'NONE',  ( 0.000000000000000000, 0.000000000000000000, 1.000000000000000000 ) ) ;
#525 = CARTESIAN_POINT ( 'NONE',  ( 0.000000000000000000, -1.625000000000017764, 0.1250000000000015266 ) ) ;
#526 = VERTEX_POINT ( 'NONE', #543 ) ;
#527 = PRODUCT_DEFINITION ( 'UNKNOWN', '', #212, #1222 ) ;
#528 = DIRECTION ( 'NONE',  ( 0.5150380749100536004, 0.000000000000000000, -0.8571673007021125557 ) ) ;
#529 = AXIS2_PLACEMENT_3D ( 'NONE', #921, #352, #71 ) ;
#530 = FACE_BOUND ( 'NONE', #583, .T. ) ;
#531 = EDGE_CURVE ( 'NONE', #818, #687, #1086, .T. ) ;
#532 = DIRECTION ( 'NONE',  ( 0.000000000000000000, 0.000000000000000000, -1.000000000000000000 ) ) ;
#533 = AXIS2_PLACEMENT_3D ( 'NONE', #725, #898, #1011 ) ;
#534 = APPROVAL_ROLE ( '' ) ;
#535 = AXIS2_PLACEMENT_3D ( 'NONE', #1206, #281, #367 ) ;
#536 = VERTEX_POINT ( 'NONE', #55 ) ;
#537 = CARTESIAN_POINT ( 'NONE',  ( 1.260000000000000009, -4.000000000000000888, -1.195183497228115133E-15 ) ) ;
#538 = AXIS2_PLACEMENT_3D ( 'NONE', #559, #66, #930 ) ;
#539 = CARTESIAN_POINT ( 'NONE',  ( 1.260000000000000009, -1.625000000000017764, 0.1250000000000015266 ) ) ;
#540 = CARTESIAN_POINT ( 'NONE',  ( 1.260000000000000009, -0.6250000000000180966, 0.1249999999999988065 ) ) ;
#541 = EDGE_LOOP ( 'NONE', ( #359, #872, #1034 ) ) ;
#542 = CARTESIAN_POINT ( 'NONE',  ( 1.260000000000000009, -1.625000000000017764, 0.1250000000000015266 ) ) ;
#543 = CARTESIAN_POINT ( 'NONE',  ( 1.260000000000000009, 0.000000000000000000, 0.000000000000000000 ) ) ;
#544 = DIRECTION ( 'NONE',  ( -0.000000000000000000, -0.000000000000000000, -1.000000000000000000 ) ) ;
#545 = ORIENTED_EDGE ( 'NONE', *, *, #453, .T. ) ;
#546 = CARTESIAN_POINT ( 'NONE',  ( 0.3155309269044273002, -2.485530926904428117, 0.000000000000000000 ) ) ;
#547 = EDGE_CURVE ( 'NONE', #485, #225, #1193, .T. ) ;
#548 = DIRECTION ( 'NONE',  ( -1.000000000000000000, -0.000000000000000000, -0.000000000000000000 ) ) ;
#549 = DIRECTION ( 'NONE',  ( -0.000000000000000000, -0.000000000000000000, -1.000000000000000000 ) ) ;
#550 = VECTOR ( 'NONE', #989, 39.37007874015748143 ) ;
#551 = EDGE_CURVE ( 'NONE', #31, #319, #363, .T. ) ;
#552 = EDGE_LOOP ( 'NONE', ( #309, #18 ) ) ;
#553 = FACE_BOUND ( 'NONE', #53, .T. ) ;
#554 = CIRCLE ( 'NONE', #922, 0.05000000000000021788 ) ;
#555 = CC_DESIGN_APPROVAL ( #729, ( #527 ) ) ;
#556 = CARTESIAN_POINT ( 'NONE',  ( 0.3300000000000000155, -3.625000000000017764, 0.1250000000000064393 ) ) ;
#557 = LINE ( 'NONE', #720, #288 ) ;
#558 = ORIENTED_EDGE ( 'NONE', *, *, #731, .T. ) ;
#559 = CARTESIAN_POINT ( 'NONE',  ( 0.9299999999999999378, -1.625000000000017764, 0.1250000000000015266 ) ) ;
#560 = DIRECTION ( 'NONE',  ( 0.000000000000000000, 0.000000000000000000, -1.000000000000000000 ) ) ;
#561 = CARTESIAN_POINT ( 'NONE',  ( 0.3595699123537185460, -0.6250000000000182077, 0.1249999999999988065 ) ) ;
#562 = DIMENSIONAL_EXPONENTS ( 1.000000000000000000, 0.000000000000000000, 0.000000000000000000, 0.000000000000000000, 0.000000000000000000, 0.000000000000000000, 0.000000000000000000 ) ;
#563 = ORIENTED_EDGE ( 'NONE', *, *, #1073, .T. ) ;
#564 = CARTESIAN_POINT ( 'NONE',  ( 1.260000000000000009, -3.625000000000017764, 0.1742125984252030635 ) ) ;
#565 = ADVANCED_FACE ( 'NONE', ( #442, #914, #530, #737 ), #719, .F. ) ;
#566 = EDGE_CURVE ( 'NONE', #492, #842, #880, .T. ) ;
#567 = CYLINDRICAL_SURFACE ( 'NONE', #863, 0.04921259842519662420 ) ;
#568 = DIRECTION ( 'NONE',  ( -1.000000000000000000, 0.000000000000000000, 0.000000000000000000 ) ) ;
#569 = VERTEX_POINT ( 'NONE', #1018 ) ;
#570 = AXIS2_PLACEMENT_3D ( 'NONE', #482, #178, #852 ) ;
#571 = ORIENTED_EDGE ( 'NONE', *, *, #857, .F. ) ;
#572 = AXIS2_PLACEMENT_3D ( 'NONE', #310, #810, #718 ) ;
#573 = FACE_OUTER_BOUND ( 'NONE', #973, .T. ) ;
#574 = AXIS2_PLACEMENT_3D ( 'NONE', #83, #468, #843 ) ;
#575 = CARTESIAN_POINT ( 'NONE',  ( 0.000000000000000000, -4.000000000000000888, -1.195183497228115133E-15 ) ) ;
#576 = ORIENTED_EDGE ( 'NONE', *, *, #401, .F. ) ;
#577 = DIRECTION ( 'NONE',  ( -0.000000000000000000, -0.000000000000000000, -1.000000000000000000 ) ) ;
#578 = ORIENTED_EDGE ( 'NONE', *, *, #1052, .T. ) ;
#579 = DIRECTION ( 'NONE',  ( -1.000000000000000000, -0.000000000000000000, -0.000000000000000000 ) ) ;
#580 = CARTESIAN_POINT ( 'NONE',  ( 0.9299999999999999378, -1.625000000000017764, 0.1742125984251984283 ) ) ;
#581 = VERTEX_POINT ( 'NONE', #907 ) ;
#582 = EDGE_CURVE ( 'NONE', #31, #1158, #823, .T. ) ;
#583 = EDGE_LOOP ( 'NONE', ( #197, #643 ) ) ;
#584 = CARTESIAN_POINT ( 'NONE',  ( 0.8944690730955725533, -2.485530926904428117, 0.2499999999999988065 ) ) ;
#585 = DIRECTION ( 'NONE',  ( 0.000000000000000000, 1.000000000000000000, 2.987958743070287834E-16 ) ) ;
#586 = VERTEX_POINT ( 'NONE', #926 ) ;
#587 = CARTESIAN_POINT ( 'NONE',  ( 1.260000000000000009, -3.625000000000017764, 0.1250000000000064393 ) ) ;
#588 = ORIENTED_EDGE ( 'NONE', *, *, #857, .T. ) ;
#589 = CIRCLE ( 'NONE', #918, 0.04921259842519634664 ) ;
#590 = CARTESIAN_POINT ( 'NONE',  ( 1.260000000000000009, -1.625000000000017764, 0.1250000000000015266 ) ) ;
#591 = VECTOR ( 'NONE', #528, 39.37007874015748854 ) ;
#592 = CARTESIAN_POINT ( 'NONE',  ( 0.9299999999999999378, -0.6250000000000180966, 0.07578740157480204354 ) ) ;
#593 = VECTOR ( 'NONE', #1028, 39.37007874015748143 ) ;
#594 = EDGE_LOOP ( 'NONE', ( #576, #1058, #929, #693 ) ) ;
#595 = CARTESIAN_POINT ( 'NONE',  ( 0.9299999999999999378, -0.6250000000000180966, 0.07578740157480204354 ) ) ;
#596 = ORIENTED_EDGE ( 'NONE', *, *, #731, .F. ) ;
#597 = FACE_OUTER_BOUND ( 'NONE', #892, .T. ) ;
#598 = DIRECTION ( 'NONE',  ( 0.000000000000000000, 0.000000000000000000, -1.000000000000000000 ) ) ;
#599 = ORIENTED_EDGE ( 'NONE', *, *, #40, .F. ) ;
#600 = PERSON_AND_ORGANIZATION_ROLE ( 'design_owner' ) ;
#601 = ORIENTED_EDGE ( 'NONE', *, *, #1104, .F. ) ;
#602 = EDGE_CURVE ( 'NONE', #175, #1154, #165, .T. ) ;
#603 = FACE_BOUND ( 'NONE', #735, .T. ) ;
#604 = DIRECTION ( 'NONE',  ( -1.000000000000000000, -0.000000000000000000, -0.000000000000000000 ) ) ;
#605 = COORDINATED_UNIVERSAL_TIME_OFFSET ( 8, 0, .BEHIND. ) ;
#606 = EDGE_CURVE ( 'NONE', #1158, #319, #939, .T. ) ;
#607 = ORIENTED_EDGE ( 'NONE', *, *, #1003, .F. ) ;
#608 = AXIS2_PLACEMENT_3D ( 'NONE', #743, #1117, #264 ) ;
#609 = AXIS2_PLACEMENT_3D ( 'NONE', #858, #187, #8 ) ;
#610 = VECTOR ( 'NONE', #994, 39.37007874015748143 ) ;
#611 = FACE_OUTER_BOUND ( 'NONE', #665, .T. ) ;
#612 = ORIENTED_EDGE ( 'NONE', *, *, #821, .T. ) ;
#613 = APPLICATION_PROTOCOL_DEFINITION ( 'international standard', 'config_control_design', 1994, #501 ) ;
#614 = ORIENTED_EDGE ( 'NONE', *, *, #1170, .T. ) ;
#615 = DIRECTION ( 'NONE',  ( -1.000000000000000000, -0.000000000000000000, -0.000000000000000000 ) ) ;
#616 = ORIENTED_EDGE ( 'NONE', *, *, #265, .F. ) ;
#617 = DATE_AND_TIME ( #222, #635 ) ;
#618 = EDGE_CURVE ( 'NONE', #1227, #518, #128, .T. ) ;
#619 = ORIENTED_EDGE ( 'NONE', *, *, #888, .T. ) ;
#620 = DIRECTION ( 'NONE',  ( -1.000000000000000000, 0.000000000000000000, 0.000000000000000000 ) ) ;
#621 = PRODUCT_DEFINITION_SHAPE ( 'NONE', 'NONE',  #527 ) ;
#622 = DIRECTION ( 'NONE',  ( 1.000000000000000000, -0.000000000000000000, 0.000000000000000000 ) ) ;
#623 = LINE ( 'NONE', #1185, #124 ) ;
#624 = PERSON_AND_ORGANIZATION ( #74, #945 ) ;
#625 = EDGE_LOOP ( 'NONE', ( #82, #152, #1065 ) ) ;
#626 = DIRECTION ( 'NONE',  ( 0.000000000000000000, 0.000000000000000000, -1.000000000000000000 ) ) ;
#627 = AXIS2_PLACEMENT_3D ( 'NONE', #525, #894, #796 ) ;
#628 = VECTOR ( 'NONE', #840, 39.37007874015748143 ) ;
#629 = DIRECTION ( 'NONE',  ( 0.5150380749100536004, 0.000000000000000000, -0.8571673007021125557 ) ) ;
#630 = DIRECTION ( 'NONE',  ( -1.000000000000000000, -0.000000000000000000, -0.000000000000000000 ) ) ;
#631 = CONICAL_SURFACE ( 'NONE', #107, 0.04921259842519689481, 1.029744258676655200 ) ;
#632 = CIRCLE ( 'NONE', #881, 0.04921259842519634664 ) ;
#633 = VERTEX_POINT ( 'NONE', #50 ) ;
#634 = LINE ( 'NONE', #1150, #591 ) ;
#635 = LOCAL_TIME ( 19, 8, 1.000000000000000000, #239 ) ;
#636 = CARTESIAN_POINT ( 'NONE',  ( -5.520553484345342928E-17, -3.625000000000017764, 0.1742125984252028137 ) ) ;
#637 = LINE ( 'NONE', #1026, #763 ) ;
#638 = VERTEX_POINT ( 'NONE', #714 ) ;
#639 = FACE_BOUND ( 'NONE', #1207, .T. ) ;
#640 = DIRECTION ( 'NONE',  ( 0.000000000000000000, 0.000000000000000000, -1.000000000000000000 ) ) ;
#641 = EDGE_CURVE ( 'NONE', #838, #262, #62, .T. ) ;
#642 = CYLINDRICAL_SURFACE ( 'NONE', #181, 0.04921259842519658950 ) ;
#643 = ORIENTED_EDGE ( 'NONE', *, *, #888, .F. ) ;
#644 = FACE_OUTER_BOUND ( 'NONE', #1139, .T. ) ;
#645 = DIRECTION ( 'NONE',  ( -1.000000000000000000, 0.000000000000000000, 0.000000000000000000 ) ) ;
#646 = CARTESIAN_POINT ( 'NONE',  ( 0.9299999999999999378, -3.625000000000017764, 0.1250000000000064393 ) ) ;
#647 = AXIS2_PLACEMENT_3D ( 'NONE', #283, #579, #1220 ) ;
#648 = ORIENTED_EDGE ( 'NONE', *, *, #517, .T. ) ;
#649 = DIRECTION ( 'NONE',  ( -0.000000000000000000, -3.005032793030705120E-15, 1.000000000000000000 ) ) ;
#650 = CIRCLE ( 'NONE', #272, 0.05000000000000021788 ) ;
#651 = VECTOR ( 'NONE', #860, 39.37007874015748143 ) ;
#652 = DIRECTION ( 'NONE',  ( -1.000000000000000000, -0.000000000000000000, -0.000000000000000000 ) ) ;
#653 = CARTESIAN_POINT ( 'NONE',  ( 0.3300000000000000155, -3.625000000000017764, 0.1742125984252033410 ) ) ;
#654 = EDGE_CURVE ( 'NONE', #633, #37, #253, .T. ) ;
#655 = VERTEX_POINT ( 'NONE', #636 ) ;
#656 = DIRECTION ( 'NONE',  ( 1.000000000000000000, -0.000000000000000000, 0.000000000000000000 ) ) ;
#657 = CARTESIAN_POINT ( 'NONE',  ( 0.3300000000000000155, -0.6250000000000180966, 0.07578740157480204354 ) ) ;
#658 = ADVANCED_FACE ( 'NONE', ( #732 ), #1209, .F. ) ;
#659 = CARTESIAN_POINT ( 'NONE',  ( 0.6300000000000001155, -2.750000000000000444, 0.000000000000000000 ) ) ;
#660 = VERTEX_POINT ( 'NONE', #343 ) ;
#661 = CARTESIAN_POINT ( 'NONE',  ( 0.000000000000000000, -7.512581982576723358E-16, 0.2499999999999986955 ) ) ;
#662 = FACE_OUTER_BOUND ( 'NONE', #1044, .T. ) ;
#663 = LINE ( 'NONE', #847, #1196 ) ;
#664 = VECTOR ( 'NONE', #549, 39.37007874015748143 ) ;
#665 = EDGE_LOOP ( 'NONE', ( #58, #1120, #266, #1014 ) ) ;
#666 = CIRCLE ( 'NONE', #978, 0.2499999999999998057 ) ;
#667 = DIRECTION ( 'NONE',  ( -1.000000000000000000, 0.000000000000000000, 0.000000000000000000 ) ) ;
#668 = ORIENTED_EDGE ( 'NONE', *, *, #1203, .T. ) ;
#669 = VECTOR ( 'NONE', #406, 39.37007874015748143 ) ;
#670 = CARTESIAN_POINT ( 'NONE',  ( 0.3655309269044274556, -3.014469073095572771, 0.2499999999999988065 ) ) ;
#671 = EDGE_CURVE ( 'NONE', #225, #660, #1116, .T. ) ;
#672 = FACE_OUTER_BOUND ( 'NONE', #60, .T. ) ;
#673 = ORIENTED_EDGE ( 'NONE', *, *, #1055, .F. ) ;
#674 = CARTESIAN_POINT ( 'NONE',  ( 0.9299999999999999378, -0.6250000000000180966, 0.1249999999999988065 ) ) ;
#675 = ADVANCED_FACE ( 'NONE', ( #436 ), #69, .F. ) ;
#676 = ORIENTED_EDGE ( 'NONE', *, *, #1184, .F. ) ;
#677 = LINE ( 'NONE', #1049, #1164 ) ;
#678 = LINE ( 'NONE', #305, #628 ) ;
#679 = EDGE_LOOP ( 'NONE', ( #850, #427 ) ) ;
#680 = DIRECTION ( 'NONE',  ( -1.000000000000000000, -0.000000000000000000, -0.000000000000000000 ) ) ;
#681 = ORIENTED_EDGE ( 'NONE', *, *, #122, .T. ) ;
#682 = DIRECTION ( 'NONE',  ( 0.000000000000000000, 1.000000000000000000, 2.987958743070287834E-16 ) ) ;
#683 = LINE ( 'NONE', #174, #392 ) ;
#684 = ORIENTED_EDGE ( 'NONE', *, *, #42, .T. ) ;
#685 = LINE ( 'NONE', #956, #983 ) ;
#686 = AXIS2_PLACEMENT_3D ( 'NONE', #1211, #630, #369 ) ;
#687 = VERTEX_POINT ( 'NONE', #833 ) ;
#688 = CIRCLE ( 'NONE', #878, 0.05000000000000042605 ) ;
#689 = CARTESIAN_POINT ( 'NONE',  ( 0.9299999999999999378, -3.625000000000017764, 0.1742125984252033410 ) ) ;
#690 = CIRCLE ( 'NONE', #147, 0.05000000000000042605 ) ;
#691 = DIRECTION ( 'NONE',  ( 0.000000000000000000, -1.000000000000000000, -2.987958743070287834E-16 ) ) ;
#692 = APPROVAL_PERSON_ORGANIZATION ( #793, #729, #227 ) ;
#693 = ORIENTED_EDGE ( 'NONE', *, *, #365, .T. ) ;
#694 = DIRECTION ( 'NONE',  ( -0.000000000000000000, -0.000000000000000000, -1.000000000000000000 ) ) ;
#695 = ORIENTED_EDGE ( 'NONE', *, *, #1162, .T. ) ;
#696 = EDGE_CURVE ( 'NONE', #319, #1158, #824, .T. ) ;
#697 = CARTESIAN_POINT ( 'NONE',  ( 0.8444690730955720648, -3.014469073095572771, 0.2499999999999988065 ) ) ;
#698 = ADVANCED_FACE ( 'NONE', ( #472 ), #1221, .F. ) ;
#699 = FACE_OUTER_BOUND ( 'NONE', #132, .T. ) ;
#700 = APPLICATION_PROTOCOL_DEFINITION ( 'international standard', 'config_control_design', 1994, #308 ) ;
#701 = ORIENTED_EDGE ( 'NONE', *, *, #854, .F. ) ;
#702 = DIRECTION ( 'NONE',  ( 1.000000000000000000, -0.000000000000000000, -0.000000000000000000 ) ) ;
#703 = VERTEX_POINT ( 'NONE', #375 ) ;
#704 = DIRECTION ( 'NONE',  ( 1.000000000000000000, 0.000000000000000000, 0.000000000000000000 ) ) ;
#705 = ORIENTED_EDGE ( 'NONE', *, *, #265, .T. ) ;
#706 = CIRCLE ( 'NONE', #7, 0.05000000000000042605 ) ;
#707 = DIRECTION ( 'NONE',  ( 0.000000000000000000, 0.000000000000000000, -1.000000000000000000 ) ) ;
#708 = AXIS2_PLACEMENT_3D ( 'NONE', #54, #19, #204 ) ;
#709 = ADVANCED_FACE ( 'NONE', ( #662 ), #373, .F. ) ;
#710 = CC_DESIGN_APPROVAL ( #211, ( #212 ) ) ;
#711 = DIRECTION ( 'NONE',  ( 0.5150380749100555988, 1.049727191138617463E-16, 0.8571673007021114454 ) ) ;
#712 = ORIENTED_EDGE ( 'NONE', *, *, #186, .T. ) ;
#713 = CARTESIAN_POINT ( 'NONE',  ( 0.3300000000000000155, -0.6250000000000180966, 0.1249999999999988065 ) ) ;
#714 = CARTESIAN_POINT ( 'NONE',  ( 0.3300000000000000155, -1.625000000000017764, 0.1742125984251984283 ) ) ;
#715 = CYLINDRICAL_SURFACE ( 'NONE', #466, 0.05000000000000042605 ) ;
#716 = APPROVAL_STATUS ( 'not_yet_approved' ) ;
#717 = EDGE_LOOP ( 'NONE', ( #170, #778, #499, #1005 ) ) ;
#718 = DIRECTION ( 'NONE',  ( 0.000000000000000000, 0.000000000000000000, 1.000000000000000000 ) ) ;
#719 = PLANE ( 'NONE',  #981 ) ;
#720 = CARTESIAN_POINT ( 'NONE',  ( 0.3300000000000000155, -1.625000000000017764, 0.1742125984251984283 ) ) ;
#721 = DATE_AND_TIME ( #1167, #882 ) ;
#722 = VERTEX_POINT ( 'NONE', #381 ) ;
#723 = DIRECTION ( 'NONE',  ( 0.000000000000000000, 0.000000000000000000, -1.000000000000000000 ) ) ;
#724 = VECTOR ( 'NONE', #585, 39.37007874015748143 ) ;
#725 = CARTESIAN_POINT ( 'NONE',  ( 0.9299999999999999378, -1.625000000000017764, 0.1250000000000015266 ) ) ;
#726 = DIRECTION ( 'NONE',  ( 0.000000000000000000, 0.000000000000000000, -1.000000000000000000 ) ) ;
#727 = CIRCLE ( 'NONE', #572, 0.04921259842519675604 ) ;
#728 = ORIENTED_EDGE ( 'NONE', *, *, #1000, .F. ) ;
#729 = APPROVAL ( #885, 'UNSPECIFIED' ) ;
#730 = DIRECTION ( 'NONE',  ( -1.000000000000000000, 0.000000000000000000, 0.000000000000000000 ) ) ;
#731 = EDGE_CURVE ( 'NONE', #569, #298, #1035, .T. ) ;
#732 = FACE_OUTER_BOUND ( 'NONE', #979, .T. ) ;
#733 = ADVANCED_FACE ( 'NONE', ( #750 ), #1135, .F. ) ;
#734 = CYLINDRICAL_SURFACE ( 'NONE', #529, 0.05000000000000021788 ) ;
#735 = EDGE_LOOP ( 'NONE', ( #405, #701 ) ) ;
#736 = CARTESIAN_POINT ( 'NONE',  ( 0.6300000000000001155, -2.750000000000000444, 0.2499999999999988065 ) ) ;
#737 = FACE_OUTER_BOUND ( 'NONE', #397, .T. ) ;
#738 = CARTESIAN_POINT ( 'NONE',  ( 0.8944690730955725533, -3.014469073095572771, 0.000000000000000000 ) ) ;
#739 = ORIENTED_EDGE ( 'NONE', *, *, #1168, .T. ) ;
#740 = DIRECTION ( 'NONE',  ( -1.000000000000000000, -0.000000000000000000, -0.000000000000000000 ) ) ;
#741 = CARTESIAN_POINT ( 'NONE',  ( 0.9299999999999999378, -3.625000000000017764, 0.1250000000000064393 ) ) ;
#742 = AXIS2_PLACEMENT_3D ( 'NONE', #443, #358, #928 ) ;
#743 = CARTESIAN_POINT ( 'NONE',  ( 0.3655309269044275111, -2.485530926904428117, 0.000000000000000000 ) ) ;
#744 = CIRCLE ( 'NONE', #609, 0.04921259842519641603 ) ;
#745 = ORIENTED_EDGE ( 'NONE', *, *, #1225, .F. ) ;
#746 = CARTESIAN_POINT ( 'NONE',  ( 1.260000000000000009, -7.512581982576723358E-16, 0.2499999999999986955 ) ) ;
#747 = AXIS2_PLACEMENT_3D ( 'NONE', #59, #380, #355 ) ;
#748 = AXIS2_PLACEMENT_3D ( 'NONE', #1140, #1043, #101 ) ;
#749 = EDGE_CURVE ( 'NONE', #638, #818, #331, .T. ) ;
#750 = FACE_OUTER_BOUND ( 'NONE', #141, .T. ) ;
#751 = CARTESIAN_POINT ( 'NONE',  ( 0.6300000000000001155, -2.750000000000000444, 0.2499999999999988065 ) ) ;
#752 = EDGE_LOOP ( 'NONE', ( #21, #13, #1191, #444 ) ) ;
#753 = DIRECTION ( 'NONE',  ( 0.000000000000000000, 0.000000000000000000, 1.000000000000000000 ) ) ;
#754 = DIRECTION ( 'NONE',  ( 0.000000000000000000, 0.000000000000000000, 1.000000000000000000 ) ) ;
#755 = DIRECTION ( 'NONE',  ( 0.000000000000000000, 0.000000000000000000, -1.000000000000000000 ) ) ;
#756 = ORIENTED_EDGE ( 'NONE', *, *, #1029, .T. ) ;
#757 = CARTESIAN_POINT ( 'NONE',  ( 0.3595699123537185460, -1.625000000000017764, 0.1250000000000015266 ) ) ;
#758 = VERTEX_POINT ( 'NONE', #1123 ) ;
#759 = ADVANCED_FACE ( 'NONE', ( #573 ), #631, .F. ) ;
#760 = DIRECTION ( 'NONE',  ( 0.000000000000000000, 0.000000000000000000, -1.000000000000000000 ) ) ;
#761 = CARTESIAN_POINT ( 'NONE',  ( 1.260000000000000009, -4.000000000000000888, 0.2499999999999988065 ) ) ;
#762 = EDGE_CURVE ( 'NONE', #179, #138, #106, .T. ) ;
#763 = VECTOR ( 'NONE', #817, 39.37007874015748854 ) ;
#764 = ORIENTED_EDGE ( 'NONE', *, *, #418, .F. ) ;
#765 = CIRCLE ( 'NONE', #897, 0.05000000000000021788 ) ;
#766 = DIRECTION ( 'NONE',  ( 0.000000000000000000, 0.000000000000000000, 1.000000000000000000 ) ) ;
#767 = VERTEX_POINT ( 'NONE', #657 ) ;
#768 = AXIS2_PLACEMENT_3D ( 'NONE', #1033, #360, #753 ) ;
#769 = VECTOR ( 'NONE', #11, 39.37007874015748143 ) ;
#770 = ADVANCED_FACE ( 'NONE', ( #1030 ), #177, .F. ) ;
#771 = DIRECTION ( 'NONE',  ( -1.000000000000000000, 0.000000000000000000, 0.000000000000000000 ) ) ;
#772 = DIRECTION ( 'NONE',  ( 1.000000000000000000, -0.000000000000000000, -0.000000000000000000 ) ) ;
#773 = EDGE_LOOP ( 'NONE', ( #408, #1088, #756 ) ) ;
#774 = DIRECTION ( 'NONE',  ( 0.000000000000000000, 0.000000000000000000, -1.000000000000000000 ) ) ;
#775 = ORIENTED_EDGE ( 'NONE', *, *, #476, .F. ) ;
#776 = FACE_OUTER_BOUND ( 'NONE', #625, .T. ) ;
#777 = DIRECTION ( 'NONE',  ( -1.000000000000000000, 0.000000000000000000, 0.000000000000000000 ) ) ;
#778 = ORIENTED_EDGE ( 'NONE', *, *, #252, .T. ) ;
#779 = ORIENTED_EDGE ( 'NONE', *, *, #749, .T. ) ;
#780 = CARTESIAN_POINT ( 'NONE',  ( 0.3655309269044274556, -3.014469073095572771, 0.2499999999999988065 ) ) ;
#781 = EDGE_CURVE ( 'NONE', #458, #827, #554, .T. ) ;
#782 = CYLINDRICAL_SURFACE ( 'NONE', #269, 0.05000000000000042605 ) ;
#783 = ORIENTED_EDGE ( 'NONE', *, *, #641, .T. ) ;
#784 = EDGE_CURVE ( 'NONE', #873, #138, #386, .T. ) ;
#785 = CARTESIAN_POINT ( 'NONE',  ( 0.8944690730955725533, -3.014469073095572771, 0.2499999999999988065 ) ) ;
#786 = EDGE_LOOP ( 'NONE', ( #450, #571 ) ) ;
#787 = VECTOR ( 'NONE', #460, 39.37007874015748143 ) ;
#788 = EDGE_CURVE ( 'NONE', #16, #586, #185, .T. ) ;
#789 = VECTOR ( 'NONE', #1102, 39.37007874015748143 ) ;
#790 = AXIS2_PLACEMENT_3D ( 'NONE', #98, #1229, #481 ) ;
#791 = DIRECTION ( 'NONE',  ( 0.000000000000000000, 0.000000000000000000, -1.000000000000000000 ) ) ;
#792 = CARTESIAN_POINT ( 'NONE',  ( 0.000000000000000000, -4.000000000000000888, -1.195183497228115133E-15 ) ) ;
#793 = PERSON_AND_ORGANIZATION ( #74, #945 ) ;
#794 = ORIENTED_EDGE ( 'NONE', *, *, #1168, .F. ) ;
#795 = CARTESIAN_POINT ( 'NONE',  ( 0.9444690730955729308, -3.014469073095572771, 0.2499999999999988065 ) ) ;
#796 = DIRECTION ( 'NONE',  ( 0.000000000000000000, 0.000000000000000000, 1.000000000000000000 ) ) ;
#797 = COORDINATED_UNIVERSAL_TIME_OFFSET ( 8, 0, .BEHIND. ) ;
#798 = EDGE_LOOP ( 'NONE', ( #607, #240, #1111, #855 ) ) ;
#799 = ADVANCED_FACE ( 'NONE', ( #393 ), #567, .F. ) ;
#800 = FACE_OUTER_BOUND ( 'NONE', #219, .T. ) ;
#801 = DIRECTION ( 'NONE',  ( -1.000000000000000000, -0.000000000000000000, -0.000000000000000000 ) ) ;
#802 = PERSON_AND_ORGANIZATION ( #74, #945 ) ;
#803 = EDGE_LOOP ( 'NONE', ( #235, #809, #558, #391 ) ) ;
#804 = CYLINDRICAL_SURFACE ( 'NONE', #471, 0.04921259842519662420 ) ;
#805 = CIRCLE ( 'NONE', #430, 0.04921259842519641603 ) ;
#806 = DIRECTION ( 'NONE',  ( -1.000000000000000000, 0.000000000000000000, 0.000000000000000000 ) ) ;
#807 = CIRCLE ( 'NONE', #68, 0.04921259842519675604 ) ;
#808 = CARTESIAN_POINT ( 'NONE',  ( 0.9299999999999999378, -3.625000000000017764, 0.1742125984252033410 ) ) ;
#809 = ORIENTED_EDGE ( 'NONE', *, *, #835, .F. ) ;
#810 = DIRECTION ( 'NONE',  ( -1.000000000000000000, -0.000000000000000000, -0.000000000000000000 ) ) ;
#811 = CARTESIAN_POINT ( 'NONE',  ( 0.9299999999999999378, -1.625000000000017764, 0.1250000000000015266 ) ) ;
#812 = DIRECTION ( 'NONE',  ( -1.000000000000000000, 0.000000000000000000, 0.000000000000000000 ) ) ;
#813 = DATE_AND_TIME ( #142, #900 ) ;
#814 = EDGE_LOOP ( 'NONE', ( #289, #321, #648, #38 ) ) ;
#815 = CYLINDRICAL_SURFACE ( 'NONE', #1118, 0.04921259842519662420 ) ;
#816 = DIRECTION ( 'NONE',  ( 0.000000000000000000, 0.000000000000000000, 1.000000000000000000 ) ) ;
#817 = DIRECTION ( 'NONE',  ( -0.5150380749100536004, 1.049727191138618942E-16, -0.8571673007021125557 ) ) ;
#818 = VERTEX_POINT ( 'NONE', #1143 ) ;
#819 = FACE_OUTER_BOUND ( 'NONE', #924, .T. ) ;
#820 = VECTOR ( 'NONE', #1004, 39.37007874015748143 ) ;
#821 = EDGE_CURVE ( 'NONE', #262, #633, #677, .T. ) ;
#822 = VECTOR ( 'NONE', #1057, 39.37007874015748143 ) ;
#823 = LINE ( 'NONE', #350, #28 ) ;
#824 = CIRCLE ( 'NONE', #449, 0.04921259842519689481 ) ;
#825 = CARTESIAN_POINT ( 'NONE',  ( 0.3655309269044275111, -2.485530926904428117, 0.000000000000000000 ) ) ;
#826 = AXIS2_PLACEMENT_3D ( 'NONE', #674, #962, #302 ) ;
#827 = VERTEX_POINT ( 'NONE', #199 ) ;
#828 = FACE_OUTER_BOUND ( 'NONE', #354, .T. ) ;
#829 = DIRECTION ( 'NONE',  ( -1.000000000000000000, -0.000000000000000000, -0.000000000000000000 ) ) ;
#830 = CARTESIAN_POINT ( 'NONE',  ( 0.000000000000000000, -0.6250000000000180966, 0.1249999999999988065 ) ) ;
#831 = ORIENTED_EDGE ( 'NONE', *, *, #252, .F. ) ;
#832 = CARTESIAN_POINT ( 'NONE',  ( 1.260000000000000009, -3.625000000000017764, 0.07578740157481010653 ) ) ;
#833 = CARTESIAN_POINT ( 'NONE',  ( -5.520553484345342928E-17, -1.625000000000017764, 0.07578740157480517992 ) ) ;
#834 = CARTESIAN_POINT ( 'NONE',  ( -5.520553484345342928E-17, -0.6250000000000180966, 0.1742125984251952087 ) ) ;
#835 = EDGE_CURVE ( 'NONE', #569, #46, #356, .T. ) ;
#836 = EDGE_LOOP ( 'NONE', ( #89, #563, #969, #728 ) ) ;
#837 = CARTESIAN_POINT ( 'NONE',  ( 0.9004300876462814074, -3.625000000000017764, 0.1250000000000064393 ) ) ;
#838 = VERTEX_POINT ( 'NONE', #864 ) ;
#839 = DIRECTION ( 'NONE',  ( 0.000000000000000000, 0.000000000000000000, -1.000000000000000000 ) ) ;
#840 = DIRECTION ( 'NONE',  ( -1.000000000000000000, -0.000000000000000000, -0.000000000000000000 ) ) ;
#841 = VECTOR ( 'NONE', #514, 39.37007874015748143 ) ;
#842 = VERTEX_POINT ( 'NONE', #1025 ) ;
#843 = DIRECTION ( 'NONE',  ( 0.000000000000000000, 3.005032793030704331E-15, -1.000000000000000000 ) ) ;
#844 = CONICAL_SURFACE ( 'NONE', #9, 0.04921259842519675604, 1.029744258676652757 ) ;
#845 = CONICAL_SURFACE ( 'NONE', #538, 0.04921259842519689481, 1.029744258676655200 ) ;
#846 = CARTESIAN_POINT ( 'NONE',  ( 0.8799999999999998934, -2.750000000000000444, 0.2499999999999988065 ) ) ;
#847 = CARTESIAN_POINT ( 'NONE',  ( 0.3300000000000000155, -3.625000000000017764, 0.1742125984252033410 ) ) ;
#848 = ORIENTED_EDGE ( 'NONE', *, *, #886, .F. ) ;
#849 = DIRECTION ( 'NONE',  ( 1.000000000000000000, -0.000000000000000000, -0.000000000000000000 ) ) ;
#850 = ORIENTED_EDGE ( 'NONE', *, *, #365, .F. ) ;
#851 = DIRECTION ( 'NONE',  ( 0.000000000000000000, 0.000000000000000000, -1.000000000000000000 ) ) ;
#852 = DIRECTION ( 'NONE',  ( 0.000000000000000000, 0.000000000000000000, -1.000000000000000000 ) ) ;
#853 = ORIENTED_EDGE ( 'NONE', *, *, #1203, .F. ) ;
#854 = EDGE_CURVE ( 'NONE', #722, #298, #690, .T. ) ;
#855 = ORIENTED_EDGE ( 'NONE', *, *, #547, .F. ) ;
#856 = DIRECTION ( 'NONE',  ( 1.000000000000000000, -0.000000000000000000, -0.000000000000000000 ) ) ;
#857 = EDGE_CURVE ( 'NONE', #703, #581, #208, .T. ) ;
#858 = CARTESIAN_POINT ( 'NONE',  ( 1.260000000000000009, -0.6250000000000180966, 0.1249999999999988065 ) ) ;
#859 = ORIENTED_EDGE ( 'NONE', *, *, #155, .T. ) ;
#860 = DIRECTION ( 'NONE',  ( -1.000000000000000000, -0.000000000000000000, -0.000000000000000000 ) ) ;
#861 = AXIS2_PLACEMENT_3D ( 'NONE', #741, #856, #839 ) ;
#862 = ORIENTED_EDGE ( 'NONE', *, *, #1162, .F. ) ;
#863 = AXIS2_PLACEMENT_3D ( 'NONE', #958, #652, #754 ) ;
#864 = CARTESIAN_POINT ( 'NONE',  ( 1.260000000000000009, -7.512581982576723358E-16, 0.2499999999999986955 ) ) ;
#865 = LINE ( 'NONE', #279, #290 ) ;
#866 = ORIENTED_EDGE ( 'NONE', *, *, #975, .F. ) ;
#867 = CARTESIAN_POINT ( 'NONE',  ( 0.3800000000000003375, -2.750000000000000444, 0.2499999999999988065 ) ) ;
#868 = EDGE_LOOP ( 'NONE', ( #764, #497, #681, #203 ) ) ;
#869 = CC_DESIGN_PERSON_AND_ORGANIZATION_ASSIGNMENT ( #121, #234, ( #527 ) ) ;
#870 = DIRECTION ( 'NONE',  ( -1.000000000000000000, -0.000000000000000000, -0.000000000000000000 ) ) ;
#871 = LINE ( 'NONE', #592, #550 ) ;
#872 = ORIENTED_EDGE ( 'NONE', *, *, #582, .T. ) ;
#873 = VERTEX_POINT ( 'NONE', #905 ) ;
#874 = DIRECTION ( 'NONE',  ( -1.000000000000000000, -0.000000000000000000, -0.000000000000000000 ) ) ;
#875 = DIRECTION ( 'NONE',  ( -1.000000000000000000, 0.000000000000000000, 0.000000000000000000 ) ) ;
#876 = CYLINDRICAL_SURFACE ( 'NONE', #960, 0.04921259842519662420 ) ;
#877 = DATE_AND_TIME ( #510, #12 ) ;
#878 = AXIS2_PLACEMENT_3D ( 'NONE', #947, #707, #420 ) ;
#879 = EDGE_LOOP ( 'NONE', ( #335, #676, #1173, #887 ) ) ;
#880 = CIRCLE ( 'NONE', #1199, 0.04921259842519634664 ) ;
#881 = AXIS2_PLACEMENT_3D ( 'NONE', #542, #249, #153 ) ;
#882 = LOCAL_TIME ( 19, 8, 1.000000000000000000, #797 ) ;
#883 = CARTESIAN_POINT ( 'NONE',  ( 0.000000000000000000, -7.512581982576723358E-16, 0.2499999999999986955 ) ) ;
#884 = LINE ( 'NONE', #990, #1156 ) ;
#885 = APPROVAL_STATUS ( 'not_yet_approved' ) ;
#886 = EDGE_CURVE ( 'NONE', #842, #492, #632, .T. ) ;
#887 = ORIENTED_EDGE ( 'NONE', *, *, #423, .T. ) ;
#888 = EDGE_CURVE ( 'NONE', #536, #655, #1181, .T. ) ;
#889 = CARTESIAN_POINT ( 'NONE',  ( 0.9299999999999999378, -0.6250000000000180966, 0.1742125984251955695 ) ) ;
#890 = CARTESIAN_POINT ( 'NONE',  ( 0.9004300876462814074, -1.625000000000017764, 0.1250000000000015266 ) ) ;
#891 = PERSON_AND_ORGANIZATION_ROLE ( 'design_supplier' ) ;
#892 = EDGE_LOOP ( 'NONE', ( #775, #941, #668 ) ) ;
#893 = CARTESIAN_POINT ( 'NONE',  ( 0.9299999999999999378, -3.625000000000017764, 0.1250000000000064393 ) ) ;
#894 = DIRECTION ( 'NONE',  ( -1.000000000000000000, -0.000000000000000000, -0.000000000000000000 ) ) ;
#895 = EDGE_LOOP ( 'NONE', ( #286, #72, #619, #995 ) ) ;
#896 = DIRECTION ( 'NONE',  ( -1.000000000000000000, 0.000000000000000000, 0.000000000000000000 ) ) ;
#897 = AXIS2_PLACEMENT_3D ( 'NONE', #99, #755, #487 ) ;
#898 = DIRECTION ( 'NONE',  ( 1.000000000000000000, -0.000000000000000000, -0.000000000000000000 ) ) ;
#899 = AXIS2_PLACEMENT_3D ( 'NONE', #91, #464, #935 ) ;
#900 = LOCAL_TIME ( 19, 8, 1.000000000000000000, #605 ) ;
#901 = CYLINDRICAL_SURFACE ( 'NONE', #686, 0.04921259842519658950 ) ;
#902 = CARTESIAN_POINT ( 'NONE',  ( 0.000000000000000000, 0.000000000000000000, 0.000000000000000000 ) ) ;
#903 = EDGE_CURVE ( 'NONE', #586, #16, #650, .T. ) ;
#904 = VERTEX_POINT ( 'NONE', #689 ) ;
#905 = CARTESIAN_POINT ( 'NONE',  ( 0.8799999999999998934, -2.750000000000000444, 0.2499999999999988065 ) ) ;
#906 = PRODUCT_RELATED_PRODUCT_CATEGORY ( 'detail', '', ( #334 ) ) ;
#907 = CARTESIAN_POINT ( 'NONE',  ( 0.8444690730955720648, -3.014469073095572771, 0.000000000000000000 ) ) ;
#908 = EDGE_CURVE ( 'NONE', #1227, #209, #139, .T. ) ;
#909 = DIRECTION ( 'NONE',  ( 0.000000000000000000, 0.000000000000000000, -1.000000000000000000 ) ) ;
#910 = ORIENTED_EDGE ( 'NONE', *, *, #379, .T. ) ;
#911 = DIRECTION ( 'NONE',  ( -0.5150380749100555988, 0.000000000000000000, 0.8571673007021114454 ) ) ;
#912 = EDGE_CURVE ( 'NONE', #951, #526, #146, .T. ) ;
#913 = ORIENTED_EDGE ( 'NONE', *, *, #1069, .T. ) ;
#914 = FACE_BOUND ( 'NONE', #90, .T. ) ;
#915 = DIRECTION ( 'NONE',  ( 1.000000000000000000, -0.000000000000000000, -0.000000000000000000 ) ) ;
#916 = ORIENTED_EDGE ( 'NONE', *, *, #908, .F. ) ;
#917 = DIRECTION ( 'NONE',  ( 0.000000000000000000, 0.000000000000000000, 1.000000000000000000 ) ) ;
#918 = AXIS2_PLACEMENT_3D ( 'NONE', #1183, #615, #524 ) ;
#919 = DIRECTION ( 'NONE',  ( 0.000000000000000000, 0.000000000000000000, 1.000000000000000000 ) ) ;
#920 = UNCERTAINTY_MEASURE_WITH_UNIT (LENGTH_MEASURE( 1.000000000000000082E-05 ), #409, 'distance_accuracy_value', 'NONE');
#921 = CARTESIAN_POINT ( 'NONE',  ( 0.3655309269044274556, -3.014469073095572771, 0.2499999999999988065 ) ) ;
#922 = AXIS2_PLACEMENT_3D ( 'NONE', #85, #851, #771 ) ;
#923 = AXIS2_PLACEMENT_3D ( 'NONE', #459, #656, #1217 ) ;
#924 = EDGE_LOOP ( 'NONE', ( #488, #422, #301 ) ) ;
#925 = FACE_OUTER_BOUND ( 'NONE', #439, .T. ) ;
#926 = CARTESIAN_POINT ( 'NONE',  ( 0.3155309269044272447, -3.014469073095572771, 0.2499999999999988065 ) ) ;
#927 = ADVANCED_FACE ( 'NONE', ( #1056 ), #112, .F. ) ;
#928 = DIRECTION ( 'NONE',  ( -1.000000000000000000, 0.000000000000000000, 0.000000000000000000 ) ) ;
#929 = ORIENTED_EDGE ( 'NONE', *, *, #322, .T. ) ;
#930 = DIRECTION ( 'NONE',  ( 0.000000000000000000, 0.000000000000000000, -1.000000000000000000 ) ) ;
#931 = DIRECTION ( 'NONE',  ( -1.000000000000000000, 0.000000000000000000, 0.000000000000000000 ) ) ;
#932 = DIRECTION ( 'NONE',  ( -0.000000000000000000, -0.000000000000000000, -1.000000000000000000 ) ) ;
#933 = ORIENTED_EDGE ( 'NONE', *, *, #784, .F. ) ;
#934 = PLANE ( 'NONE',  #574 ) ;
#935 = DIRECTION ( 'NONE',  ( -1.000000000000000000, 0.000000000000000000, 0.000000000000000000 ) ) ;
#936 = ADVANCED_FACE ( 'NONE', ( #597 ), #844, .F. ) ;
#937 = AXIS2_PLACEMENT_3D ( 'NONE', #1075, #791, #806 ) ;
#938 = CARTESIAN_POINT ( 'NONE',  ( 1.260000000000000009, -3.625000000000017764, 0.1250000000000064393 ) ) ;
#939 = CIRCLE ( 'NONE', #533, 0.04921259842519689481 ) ;
#940 = CONICAL_SURFACE ( 'NONE', #515, 0.04921259842519675604, 1.029744258676652757 ) ;
#941 = ORIENTED_EDGE ( 'NONE', *, *, #40, .T. ) ;
#942 = DIRECTION ( 'NONE',  ( -1.000000000000000000, -0.000000000000000000, -0.000000000000000000 ) ) ;
#943 = AXIS2_PLACEMENT_3D ( 'NONE', #999, #874, #336 ) ;
#944 = EDGE_LOOP ( 'NONE', ( #1032, #684, #985, #596 ) ) ;
#945 = ORGANIZATION ( 'UNSPECIFIED', 'UNSPECIFIED', '' ) ;
#946 = CARTESIAN_POINT ( 'NONE',  ( 0.3300000000000000155, -1.625000000000017764, 0.1250000000000015266 ) ) ;
#947 = CARTESIAN_POINT ( 'NONE',  ( 0.8944690730955725533, -3.014469073095572771, 0.2499999999999988065 ) ) ;
#948 = ADVANCED_FACE ( 'NONE', ( #1085 ), #970, .F. ) ;
#949 = ORIENTED_EDGE ( 'NONE', *, *, #903, .T. ) ;
#950 = CARTESIAN_POINT ( 'NONE',  ( 0.9299999999999999378, -0.6250000000000180966, 0.1249999999999988065 ) ) ;
#951 = VERTEX_POINT ( 'NONE', #537 ) ;
#952 = ADVANCED_FACE ( 'NONE', ( #776 ), #87, .F. ) ;
#953 = DIRECTION ( 'NONE',  ( -1.000000000000000000, -0.000000000000000000, -0.000000000000000000 ) ) ;
#954 = DIRECTION ( 'NONE',  ( -0.000000000000000000, -0.000000000000000000, -1.000000000000000000 ) ) ;
#955 = ORIENTED_EDGE ( 'NONE', *, *, #347, .F. ) ;
#956 = CARTESIAN_POINT ( 'NONE',  ( 1.260000000000000009, -7.512581982576723358E-16, 0.2499999999999986955 ) ) ;
#957 = ORIENTED_EDGE ( 'NONE', *, *, #490, .F. ) ;
#958 = CARTESIAN_POINT ( 'NONE',  ( 0.000000000000000000, -3.625000000000017764, 0.1250000000000064393 ) ) ;
#959 = FACE_OUTER_BOUND ( 'NONE', #35, .T. ) ;
#960 = AXIS2_PLACEMENT_3D ( 'NONE', #26, #801, #339 ) ;
#961 = ORIENTED_EDGE ( 'NONE', *, *, #602, .T. ) ;
#962 = DIRECTION ( 'NONE',  ( 1.000000000000000000, -0.000000000000000000, -0.000000000000000000 ) ) ;
#963 = ORIENTED_EDGE ( 'NONE', *, *, #821, .F. ) ;
#964 = AXIS2_PLACEMENT_3D ( 'NONE', #587, #3, #774 ) ;
#965 = DIRECTION ( 'NONE',  ( 1.000000000000000000, -0.000000000000000000, -0.000000000000000000 ) ) ;
#966 = DIRECTION ( 'NONE',  ( -1.000000000000000000, 0.000000000000000000, 0.000000000000000000 ) ) ;
#967 = ADVANCED_FACE ( 'NONE', ( #506 ), #30, .F. ) ;
#968 = ORIENTED_EDGE ( 'NONE', *, *, #133, .F. ) ;
#969 = ORIENTED_EDGE ( 'NONE', *, *, #291, .T. ) ;
#970 = CYLINDRICAL_SURFACE ( 'NONE', #313, 0.04921259842519662420 ) ;
#971 = CARTESIAN_POINT ( 'NONE',  ( 0.8944690730955725533, -2.485530926904428117, 0.2499999999999988065 ) ) ;
#972 = ORIENTED_EDGE ( 'NONE', *, *, #172, .F. ) ;
#973 = EDGE_LOOP ( 'NONE', ( #145, #1047, #779 ) ) ;
#974 = FACE_BOUND ( 'NONE', #679, .T. ) ;
#975 = EDGE_CURVE ( 'NONE', #485, #767, #807, .T. ) ;
#976 = FACE_OUTER_BOUND ( 'NONE', #803, .T. ) ;
#977 = SHAPE_DEFINITION_REPRESENTATION ( #621, #116 ) ;
#978 = AXIS2_PLACEMENT_3D ( 'NONE', #659, #475, #777 ) ;
#979 = EDGE_LOOP ( 'NONE', ( #853, #1107, #462, #916 ) ) ;
#980 = ADVANCED_FACE ( 'NONE', ( #440 ), #815, .F. ) ;
#981 = AXIS2_PLACEMENT_3D ( 'NONE', #357, #622, #1188 ) ;
#982 = CIRCLE ( 'NONE', #768, 0.04921259842519689481 ) ;
#983 = VECTOR ( 'NONE', #1133, 39.37007874015748143 ) ;
#984 = DIRECTION ( 'NONE',  ( 0.000000000000000000, -2.987958743070287834E-16, 1.000000000000000000 ) ) ;
#985 = ORIENTED_EDGE ( 'NONE', *, *, #854, .T. ) ;
#986 = EDGE_CURVE ( 'NONE', #1081, #1179, #634, .T. ) ;
#987 = PERSON_AND_ORGANIZATION ( #74, #945 ) ;
#988 = ORIENTED_EDGE ( 'NONE', *, *, #654, .F. ) ;
#989 = DIRECTION ( 'NONE',  ( 0.5150380749100555988, 0.000000000000000000, -0.8571673007021114454 ) ) ;
#990 = CARTESIAN_POINT ( 'NONE',  ( 0.9444690730955729308, -2.485530926904428117, 0.2499999999999988065 ) ) ;
#991 = APPROVAL_DATE_TIME ( #617, #211 ) ;
#992 = EDGE_LOOP ( 'NONE', ( #1152, #416, #399 ) ) ;
#993 = DIRECTION ( 'NONE',  ( 0.000000000000000000, 0.000000000000000000, 1.000000000000000000 ) ) ;
#994 = DIRECTION ( 'NONE',  ( 0.000000000000000000, 0.000000000000000000, -1.000000000000000000 ) ) ;
#995 = ORIENTED_EDGE ( 'NONE', *, *, #248, .F. ) ;
#996 = DATE_AND_TIME ( #52, #148 ) ;
#997 = ORIENTED_EDGE ( 'NONE', *, *, #254, .T. ) ;
#998 = CC_DESIGN_PERSON_AND_ORGANIZATION_ASSIGNMENT ( #417, #891, ( #212 ) ) ;
#999 = CARTESIAN_POINT ( 'NONE',  ( 0.000000000000000000, -3.625000000000017764, 0.1250000000000064393 ) ) ;
#1000 = EDGE_CURVE ( 'NONE', #1179, #1042, #39, .T. ) ;
#1001 = DIRECTION ( 'NONE',  ( 1.000000000000000000, -0.000000000000000000, -0.000000000000000000 ) ) ;
#1002 = AXIS2_PLACEMENT_3D ( 'NONE', #713, #1155, #14 ) ;
#1003 = EDGE_CURVE ( 'NONE', #767, #485, #727, .T. ) ;
#1004 = DIRECTION ( 'NONE',  ( 1.000000000000000000, -0.000000000000000000, -0.000000000000000000 ) ) ;
#1005 = ORIENTED_EDGE ( 'NONE', *, *, #79, .F. ) ;
#1006 = DIRECTION ( 'NONE',  ( 0.000000000000000000, 0.000000000000000000, -1.000000000000000000 ) ) ;
#1007 = DIRECTION ( 'NONE',  ( -1.000000000000000000, -0.000000000000000000, -0.000000000000000000 ) ) ;
#1008 = FACE_OUTER_BOUND ( 'NONE', #213, .T. ) ;
#1009 = ORIENTED_EDGE ( 'NONE', *, *, #242, .T. ) ;
#1010 = DIRECTION ( 'NONE',  ( 0.000000000000000000, 0.000000000000000000, -1.000000000000000000 ) ) ;
#1011 = DIRECTION ( 'NONE',  ( 0.000000000000000000, 0.000000000000000000, -1.000000000000000000 ) ) ;
#1012 = CARTESIAN_POINT ( 'NONE',  ( 0.3155309269044273002, -2.485530926904428117, 0.2499999999999988065 ) ) ;
#1013 = ADVANCED_FACE ( 'NONE', ( #428 ), #804, .F. ) ;
#1014 = ORIENTED_EDGE ( 'NONE', *, *, #285, .T. ) ;
#1015 = CARTESIAN_POINT ( 'NONE',  ( 1.260000000000000009, -4.000000000000000888, 0.2499999999999988065 ) ) ;
#1016 = VECTOR ( 'NONE', #711, 39.37007874015748143 ) ;
#1017 = CIRCLE ( 'NONE', #570, 0.04921259842519634664 ) ;
#1018 = CARTESIAN_POINT ( 'NONE',  ( 0.8444690730955720648, -2.485530926904428117, 0.2499999999999988065 ) ) ;
#1019 = AXIS2_PLACEMENT_3D ( 'NONE', #292, #184, #5 ) ;
#1020 = CARTESIAN_POINT ( 'NONE',  ( 0.8944690730955725533, -2.485530926904428117, 0.000000000000000000 ) ) ;
#1021 = AXIS2_PLACEMENT_3D ( 'NONE', #80, #1006, #896 ) ;
#1022 = CONICAL_SURFACE ( 'NONE', #748, 0.04921259842519689481, 1.029744258676655200 ) ;
#1023 = ORIENTED_EDGE ( 'NONE', *, *, #671, .T. ) ;
#1024 = DIRECTION ( 'NONE',  ( -0.5150380749100555988, 1.049727191138617463E-16, -0.8571673007021114454 ) ) ;
#1025 = CARTESIAN_POINT ( 'NONE',  ( 1.260000000000000009, -1.625000000000017764, 0.07578740157480517992 ) ) ;
#1026 = CARTESIAN_POINT ( 'NONE',  ( 0.3300000000000000155, -1.625000000000017764, 0.07578740157480463868 ) ) ;
#1027 = EDGE_LOOP ( 'NONE', ( #1076, #432 ) ) ;
#1028 = DIRECTION ( 'NONE',  ( -0.000000000000000000, -3.005032793030705120E-15, 1.000000000000000000 ) ) ;
#1029 = EDGE_CURVE ( 'NONE', #1154, #175, #374, .T. ) ;
#1030 = FACE_OUTER_BOUND ( 'NONE', #1233, .T. ) ;
#1031 = FACE_OUTER_BOUND ( 'NONE', #773, .T. ) ;
#1032 = ORIENTED_EDGE ( 'NONE', *, *, #1052, .F. ) ;
#1033 = CARTESIAN_POINT ( 'NONE',  ( 0.3300000000000000155, -1.625000000000017764, 0.1250000000000015266 ) ) ;
#1034 = ORIENTED_EDGE ( 'NONE', *, *, #606, .T. ) ;
#1035 = LINE ( 'NONE', #1234, #1060 ) ;
#1036 = AXIS2_PLACEMENT_3D ( 'NONE', #646, #915, #532 ) ;
#1037 = AXIS2_PLACEMENT_3D ( 'NONE', #893, #224, #1165 ) ;
#1038 = CARTESIAN_POINT ( 'NONE',  ( 0.000000000000000000, -3.625000000000017764, 0.1742125984252030635 ) ) ;
#1039 = AXIS2_PLACEMENT_3D ( 'NONE', #556, #263, #816 ) ;
#1040 = EDGE_CURVE ( 'NONE', #296, #767, #257, .T. ) ;
#1041 = VECTOR ( 'NONE', #1024, 39.37007874015748143 ) ;
#1042 = VERTEX_POINT ( 'NONE', #832 ) ;
#1043 = DIRECTION ( 'NONE',  ( 1.000000000000000000, -0.000000000000000000, -0.000000000000000000 ) ) ;
#1044 = EDGE_LOOP ( 'NONE', ( #385, #1009, #961 ) ) ;
#1045 = DIRECTION ( 'NONE',  ( 0.000000000000000000, 0.000000000000000000, -1.000000000000000000 ) ) ;
#1046 = LINE ( 'NONE', #1038, #469 ) ;
#1047 = ORIENTED_EDGE ( 'NONE', *, *, #102, .T. ) ;
#1048 = VERTEX_POINT ( 'NONE', #546 ) ;
#1049 = CARTESIAN_POINT ( 'NONE',  ( 1.260000000000000009, -4.000000000000000888, 0.2499999999999988065 ) ) ;
#1050 = CARTESIAN_POINT ( 'NONE',  ( 0.4155309269044277221, -2.485530926904428117, 0.2499999999999988065 ) ) ;
#1051 = ORIENTED_EDGE ( 'NONE', *, *, #1170, .F. ) ;
#1052 = EDGE_CURVE ( 'NONE', #46, #569, #1200, .T. ) ;
#1053 = CARTESIAN_POINT ( 'NONE',  ( 0.3155309269044273002, -2.485530926904428117, 0.2499999999999988065 ) ) ;
#1054 = ORIENTED_EDGE ( 'NONE', *, *, #1090, .T. ) ;
#1055 = EDGE_CURVE ( 'NONE', #370, #483, #1228, .T. ) ;
#1056 = FACE_OUTER_BOUND ( 'NONE', #752, .T. ) ;
#1057 = DIRECTION ( 'NONE',  ( -0.000000000000000000, -0.000000000000000000, -1.000000000000000000 ) ) ;
#1058 = ORIENTED_EDGE ( 'NONE', *, *, #903, .F. ) ;
#1059 = LINE ( 'NONE', #867, #454 ) ;
#1060 = VECTOR ( 'NONE', #299, 39.37007874015748143 ) ;
#1061 = ORIENTED_EDGE ( 'NONE', *, *, #531, .T. ) ;
#1062 = CIRCLE ( 'NONE', #826, 0.04921259842519675604 ) ;
#1063 = CARTESIAN_POINT ( 'NONE',  ( 1.260000000000000009, -0.6250000000000180966, 0.07578740157480221007 ) ) ;
#1064 = CARTESIAN_POINT ( 'NONE',  ( 1.260000000000000009, -0.6250000000000180966, 0.1742125984251952087 ) ) ;
#1065 = ORIENTED_EDGE ( 'NONE', *, *, #1003, .T. ) ;
#1066 = CYLINDRICAL_SURFACE ( 'NONE', #1182, 0.05000000000000042605 ) ;
#1067 = EDGE_LOOP ( 'NONE', ( #968, #108 ) ) ;
#1068 = DIRECTION ( 'NONE',  ( -0.000000000000000000, -0.000000000000000000, -1.000000000000000000 ) ) ;
#1069 = EDGE_CURVE ( 'NONE', #818, #638, #982, .T. ) ;
#1070 = LINE ( 'NONE', #221, #491 ) ;
#1071 = COORDINATED_UNIVERSAL_TIME_OFFSET ( 8, 0, .BEHIND. ) ;
#1072 = ORIENTED_EDGE ( 'NONE', *, *, #401, .T. ) ;
#1073 = EDGE_CURVE ( 'NONE', #904, #516, #1127, .T. ) ;
#1074 = ADVANCED_FACE ( 'NONE', ( #828 ), #940, .F. ) ;
#1075 = CARTESIAN_POINT ( 'NONE',  ( 0.3655309269044275111, -2.485530926904428117, 0.2499999999999988065 ) ) ;
#1076 = ORIENTED_EDGE ( 'NONE', *, *, #379, .F. ) ;
#1077 = PERSON_AND_ORGANIZATION ( #74, #945 ) ;
#1078 = AXIS2_PLACEMENT_3D ( 'NONE', #830, #63, #457 ) ;
#1079 = EDGE_CURVE ( 'NONE', #1179, #904, #414, .T. ) ;
#1080 = CONICAL_SURFACE ( 'NONE', #1037, 0.04921259842519689481, 1.029744258676655200 ) ;
#1081 = VERTEX_POINT ( 'NONE', #837 ) ;
#1082 = CARTESIAN_POINT ( 'NONE',  ( 0.4155309269044276665, -3.014469073095572771, 0.2499999999999988065 ) ) ;
#1083 = ORIENTED_EDGE ( 'NONE', *, *, #1148, .F. ) ;
#1084 = ORIENTED_EDGE ( 'NONE', *, *, #975, .T. ) ;
#1085 = FACE_OUTER_BOUND ( 'NONE', #836, .T. ) ;
#1086 = LINE ( 'NONE', #455, #183 ) ;
#1087 = DIRECTION ( 'NONE',  ( 0.5150380749100536004, 1.049727191138618942E-16, 0.8571673007021125557 ) ) ;
#1088 = ORIENTED_EDGE ( 'NONE', *, *, #27, .T. ) ;
#1089 = DIRECTION ( 'NONE',  ( 1.000000000000000000, -0.000000000000000000, -0.000000000000000000 ) ) ;
#1090 = EDGE_CURVE ( 'NONE', #296, #485, #1112, .T. ) ;
#1091 = CARTESIAN_POINT ( 'NONE',  ( 0.6300000000000001155, -2.750000000000000444, 0.2499999999999988065 ) ) ;
#1092 = FACE_OUTER_BOUND ( 'NONE', #814, .T. ) ;
#1093 = ORIENTED_EDGE ( 'NONE', *, *, #1128, .T. ) ;
#1094 = CIRCLE ( 'NONE', #742, 0.05000000000000021788 ) ;
#1095 = DIRECTION ( 'NONE',  ( 0.000000000000000000, 0.000000000000000000, -1.000000000000000000 ) ) ;
#1096 = DIRECTION ( 'NONE',  ( 1.000000000000000000, -0.000000000000000000, -0.000000000000000000 ) ) ;
#1097 = DIRECTION ( 'NONE',  ( 0.000000000000000000, 0.000000000000000000, -1.000000000000000000 ) ) ;
#1098 = MANIFOLD_SOLID_BREP ( 'M3x0.5 Tapped Hole2', #267 ) ;
#1099 = ORIENTED_EDGE ( 'NONE', *, *, #254, .F. ) ;
#1100 = FACE_BOUND ( 'NONE', #1195, .T. ) ;
#1101 = ADVANCED_FACE ( 'NONE', ( #819 ), #845, .F. ) ;
#1102 = DIRECTION ( 'NONE',  ( -0.000000000000000000, -1.000000000000000000, 2.561107494060247075E-17 ) ) ;
#1103 = FACE_OUTER_BOUND ( 'NONE', #276, .T. ) ;
#1104 = EDGE_CURVE ( 'NONE', #758, #873, #316, .T. ) ;
#1105 = EDGE_LOOP ( 'NONE', ( #65, #467 ) ) ;
#1106 = CARTESIAN_POINT ( 'NONE',  ( 0.9299999999999999378, -3.625000000000017764, 0.1250000000000064393 ) ) ;
#1107 = ORIENTED_EDGE ( 'NONE', *, *, #490, .T. ) ;
#1108 = DIRECTION ( 'NONE',  ( -0.000000000000000000, -0.000000000000000000, -1.000000000000000000 ) ) ;
#1109 = ADVANCED_FACE ( 'NONE', ( #261, #639, #277, #1197, #1100, #644 ), #158, .F. ) ;
#1110 = CARTESIAN_POINT ( 'NONE',  ( 0.3595699123537185460, -3.625000000000017764, 0.1250000000000064393 ) ) ;
#1111 = ORIENTED_EDGE ( 'NONE', *, *, #1208, .T. ) ;
#1112 = LINE ( 'NONE', #171, #394 ) ;
#1113 = CIRCLE ( 'NONE', #44, 0.2499999999999998057 ) ;
#1114 = VECTOR ( 'NONE', #1068, 39.37007874015748143 ) ;
#1115 = DIRECTION ( 'NONE',  ( -1.000000000000000000, 0.000000000000000000, 0.000000000000000000 ) ) ;
#1116 = CIRCLE ( 'NONE', #250, 0.04921259842519641603 ) ;
#1117 = DIRECTION ( 'NONE',  ( 0.000000000000000000, 0.000000000000000000, -1.000000000000000000 ) ) ;
#1118 = AXIS2_PLACEMENT_3D ( 'NONE', #590, #965, #349 ) ;
#1119 = AXIS2_PLACEMENT_3D ( 'NONE', #736, #1010, #730 ) ;
#1120 = ORIENTED_EDGE ( 'NONE', *, *, #423, .F. ) ;
#1121 = FACE_BOUND ( 'NONE', #1027, .T. ) ;
#1122 = ADVANCED_FACE ( 'NONE', ( #553, #463, #1121, #925 ), #73, .T. ) ;
#1123 = CARTESIAN_POINT ( 'NONE',  ( 0.3800000000000003375, -2.750000000000000444, 0.2499999999999988065 ) ) ;
#1124 = CARTESIAN_POINT ( 'NONE',  ( 0.8444690730955720648, -2.485530926904428117, 0.000000000000000000 ) ) ;
#1125 = APPROVAL ( #1177, 'UNSPECIFIED' ) ;
#1126 = ORIENTED_EDGE ( 'NONE', *, *, #285, .F. ) ;
#1127 = LINE ( 'NONE', #564, #415 ) ;
#1128 = EDGE_CURVE ( 'NONE', #526, #838, #371, .T. ) ;
#1129 = CARTESIAN_POINT ( 'NONE',  ( 0.3655309269044275111, -2.485530926904428117, 0.2499999999999988065 ) ) ;
#1130 = ADVANCED_FACE ( 'NONE', ( #176 ), #934, .F. ) ;
#1131 = LINE ( 'NONE', #575, #724 ) ;
#1132 = ORIENTED_EDGE ( 'NONE', *, *, #654, .T. ) ;
#1133 = DIRECTION ( 'NONE',  ( -1.000000000000000000, -0.000000000000000000, -0.000000000000000000 ) ) ;
#1134 = ORIENTED_EDGE ( 'NONE', *, *, #788, .T. ) ;
#1135 = CYLINDRICAL_SURFACE ( 'NONE', #1161, 0.05000000000000021788 ) ;
#1136 = CONICAL_SURFACE ( 'NONE', #1219, 0.04921259842519689481, 1.029744258676655200 ) ;
#1137 = CARTESIAN_POINT ( 'NONE',  ( 1.260000000000000009, -4.000000000000000888, 0.2499999999999988065 ) ) ;
#1138 = AXIS2_PLACEMENT_3D ( 'NONE', #47, #870, #304 ) ;
#1139 = EDGE_LOOP ( 'NONE', ( #614, #963, #77, #247 ) ) ;
#1140 = CARTESIAN_POINT ( 'NONE',  ( 0.9299999999999999378, -1.625000000000017764, 0.1250000000000015266 ) ) ;
#1141 = AXIS2_PLACEMENT_3D ( 'NONE', #1015, #78, #163 ) ;
#1142 = VERTEX_POINT ( 'NONE', #757 ) ;
#1143 = CARTESIAN_POINT ( 'NONE',  ( 0.3300000000000000155, -1.625000000000017764, 0.07578740157480463868 ) ) ;
#1144 = ADVANCED_FACE ( 'NONE', ( #307 ), #1066, .F. ) ;
#1145 = CARTESIAN_POINT ( 'NONE',  ( 0.3300000000000000155, -3.625000000000017764, 0.1250000000000064393 ) ) ;
#1146 = EDGE_LOOP ( 'NONE', ( #949, #1134 ) ) ;
#1147 = CARTESIAN_POINT ( 'NONE',  ( 0.000000000000000000, -0.6250000000000180966, 0.07578740157480221007 ) ) ;
#1148 = EDGE_CURVE ( 'NONE', #767, #660, #210, .T. ) ;
#1149 = VERTEX_POINT ( 'NONE', #1053 ) ;
#1150 = CARTESIAN_POINT ( 'NONE',  ( 0.9299999999999999378, -3.625000000000017764, 0.07578740157480955142 ) ) ;
#1151 = LINE ( 'NONE', #1, #412 ) ;
#1152 = ORIENTED_EDGE ( 'NONE', *, *, #986, .F. ) ;
#1153 = CYLINDRICAL_SURFACE ( 'NONE', #964, 0.04921259842519662420 ) ;
#1154 = VERTEX_POINT ( 'NONE', #1232 ) ;
#1155 = DIRECTION ( 'NONE',  ( -1.000000000000000000, -0.000000000000000000, -0.000000000000000000 ) ) ;
#1156 = VECTOR ( 'NONE', #1166, 39.37007874015748143 ) ;
#1157 = DIRECTION ( 'NONE',  ( -0.000000000000000000, -0.000000000000000000, -1.000000000000000000 ) ) ;
#1158 = VERTEX_POINT ( 'NONE', #315 ) ;
#1159 = CIRCLE ( 'NONE', #937, 0.05000000000000021788 ) ;
#1160 = CARTESIAN_POINT ( 'NONE',  ( -5.520553484345342928E-17, -1.625000000000017764, 0.1250000000000015266 ) ) ;
#1161 = AXIS2_PLACEMENT_3D ( 'NONE', #1129, #486, #1115 ) ;
#1162 = EDGE_CURVE ( 'NONE', #687, #341, #230, .T. ) ;
#1163 = ORIENTED_EDGE ( 'NONE', *, *, #282, .F. ) ;
#1164 = VECTOR ( 'NONE', #368, 39.37007874015748143 ) ;
#1165 = DIRECTION ( 'NONE',  ( 0.000000000000000000, 0.000000000000000000, -1.000000000000000000 ) ) ;
#1166 = DIRECTION ( 'NONE',  ( -0.000000000000000000, -0.000000000000000000, -1.000000000000000000 ) ) ;
#1167 = CALENDAR_DATE ( 2026, 20, 3 ) ;
#1168 = EDGE_CURVE ( 'NONE', #341, #687, #1226, .T. ) ;
#1169 = ORIENTED_EDGE ( 'NONE', *, *, #618, .T. ) ;
#1170 = EDGE_CURVE ( 'NONE', #483, #633, #109, .T. ) ;
#1171 = CARTESIAN_POINT ( 'NONE',  ( 1.260000000000000009, 0.000000000000000000, 0.000000000000000000 ) ) ;
#1172 = ADVANCED_FACE ( 'NONE', ( #484 ), #1022, .F. ) ;
#1173 = ORIENTED_EDGE ( 'NONE', *, *, #1128, .F. ) ;
#1174 = ORIENTED_EDGE ( 'NONE', *, *, #295, .T. ) ;
#1175 = CARTESIAN_POINT ( 'NONE',  ( 0.3300000000000000155, -0.6250000000000180966, 0.1742125984251955695 ) ) ;
#1176 = CARTESIAN_POINT ( 'NONE',  ( 0.9299999999999999378, -0.6250000000000180966, 0.1742125984251955695 ) ) ;
#1177 = APPROVAL_STATUS ( 'not_yet_approved' ) ;
#1178 = CIRCLE ( 'NONE', #608, 0.05000000000000021788 ) ;
#1179 = VERTEX_POINT ( 'NONE', #189 ) ;
#1180 = CARTESIAN_POINT ( 'NONE',  ( 1.260000000000000009, -1.625000000000017764, 0.1250000000000015266 ) ) ;
#1181 = CIRCLE ( 'NONE', #1138, 0.04921259842519634664 ) ;
#1182 = AXIS2_PLACEMENT_3D ( 'NONE', #785, #694, #667 ) ;
#1183 = CARTESIAN_POINT ( 'NONE',  ( -5.520553484345342928E-17, -3.625000000000017764, 0.1250000000000064393 ) ) ;
#1184 = EDGE_CURVE ( 'NONE', #838, #483, #685, .T. ) ;
#1185 = CARTESIAN_POINT ( 'NONE',  ( 0.3300000000000000155, -3.625000000000017764, 0.07578740157480955142 ) ) ;
#1186 = ORIENTED_EDGE ( 'NONE', *, *, #618, .F. ) ;
#1187 = DIRECTION ( 'NONE',  ( 1.000000000000000000, -0.000000000000000000, -0.000000000000000000 ) ) ;
#1188 = DIRECTION ( 'NONE',  ( 0.000000000000000000, 0.000000000000000000, -1.000000000000000000 ) ) ;
#1189 = FACE_OUTER_BOUND ( 'NONE', #798, .T. ) ;
#1190 = MECHANICAL_CONTEXT ( 'NONE', #308, 'mechanical' ) ;
#1191 = ORIENTED_EDGE ( 'NONE', *, *, #248, .T. ) ;
#1192 = DIRECTION ( 'NONE',  ( 0.000000000000000000, 0.000000000000000000, -1.000000000000000000 ) ) ;
#1193 = LINE ( 'NONE', #150, #470 ) ;
#1194 = FACE_OUTER_BOUND ( 'NONE', #594, .T. ) ;
#1195 = EDGE_LOOP ( 'NONE', ( #383, #859 ) ) ;
#1196 = VECTOR ( 'NONE', #300, 39.37007874015748854 ) ;
#1197 = FACE_BOUND ( 'NONE', #348, .T. ) ;
#1198 = ADVANCED_FACE ( 'NONE', ( #297 ), #49, .F. ) ;
#1199 = AXIS2_PLACEMENT_3D ( 'NONE', #539, #447, #167 ) ;
#1200 = CIRCLE ( 'NONE', #535, 0.05000000000000042605 ) ;
#1201 = CARTESIAN_POINT ( 'NONE',  ( 0.000000000000000000, -4.000000000000000888, 0.2499999999999988065 ) ) ;
#1202 = SECURITY_CLASSIFICATION ( '', '', #426 ) ;
#1203 = EDGE_CURVE ( 'NONE', #518, #1227, #1062, .T. ) ;
#1204 = CARTESIAN_POINT ( 'NONE',  ( 0.8799999999999998934, -2.750000000000000444, 0.000000000000000000 ) ) ;
#1205 = ORIENTED_EDGE ( 'NONE', *, *, #155, .F. ) ;
#1206 = CARTESIAN_POINT ( 'NONE',  ( 0.8944690730955725533, -2.485530926904428117, 0.2499999999999988065 ) ) ;
#1207 = EDGE_LOOP ( 'NONE', ( #2, #578 ) ) ;
#1208 = EDGE_CURVE ( 'NONE', #660, #225, #130, .T. ) ;
#1209 = CYLINDRICAL_SURFACE ( 'NONE', #207, 0.04921259842519658950 ) ;
#1210 = ADVANCED_FACE ( 'NONE', ( #498 ), #1153, .F. ) ;
#1211 = CARTESIAN_POINT ( 'NONE',  ( 0.000000000000000000, -0.6250000000000180966, 0.1249999999999988065 ) ) ;
#1212 = ORIENTED_EDGE ( 'NONE', *, *, #231, .F. ) ;
#1213 = CARTESIAN_POINT ( 'NONE',  ( 0.3300000000000000155, -0.6250000000000180966, 0.07578740157480204354 ) ) ;
#1214 = CARTESIAN_POINT ( 'NONE',  ( 0.9299999999999999378, -0.6250000000000180966, 0.1249999999999988065 ) ) ;
#1215 = LINE ( 'NONE', #1050, #512 ) ;
#1216 = VERTEX_POINT ( 'NONE', #196 ) ;
#1217 = DIRECTION ( 'NONE',  ( 0.000000000000000000, 0.000000000000000000, -1.000000000000000000 ) ) ;
#1218 = ORIENTED_EDGE ( 'NONE', *, *, #517, .F. ) ;
#1219 = AXIS2_PLACEMENT_3D ( 'NONE', #1145, #92, #402 ) ;
#1220 = DIRECTION ( 'NONE',  ( 0.000000000000000000, 0.000000000000000000, 1.000000000000000000 ) ) ;
#1221 = CONICAL_SURFACE ( 'NONE', #861, 0.04921259842519689481, 1.029744258676655200 ) ;
#1222 = DESIGN_CONTEXT ( 'detailed design', #501, 'design' ) ;
#1223 = DIRECTION ( 'NONE',  ( -0.000000000000000000, -0.000000000000000000, -1.000000000000000000 ) ) ;
#1224 = VECTOR ( 'NONE', #649, 39.37007874015748143 ) ;
#1225 = EDGE_CURVE ( 'NONE', #758, #179, #1059, .T. ) ;
#1226 = CIRCLE ( 'NONE', #110, 0.04921259842519634664 ) ;
#1227 = VERTEX_POINT ( 'NONE', #595 ) ;
#1228 = LINE ( 'NONE', #661, #1224 ) ;
#1229 = DIRECTION ( 'NONE',  ( -0.000000000000000000, -0.000000000000000000, -1.000000000000000000 ) ) ;
#1230 = DIRECTION ( 'NONE',  ( 0.000000000000000000, 0.000000000000000000, -1.000000000000000000 ) ) ;
#1231 = EDGE_LOOP ( 'NONE', ( #933, #601, #260, #327 ) ) ;
#1232 = CARTESIAN_POINT ( 'NONE',  ( 0.3300000000000000155, -3.625000000000017764, 0.07578740157480955142 ) ) ;
#1233 = EDGE_LOOP ( 'NONE', ( #505, #1072, #120, #361 ) ) ;
#1234 = CARTESIAN_POINT ( 'NONE',  ( 0.8444690730955720648, -2.485530926904428117, 0.2499999999999988065 ) ) ;
ENDSEC;
END-ISO-10303-21;
