ISO-10303-21;
HEADER;
FILE_DESCRIPTION (( 'STEP AP203' ),
    '1' );
FILE_NAME ('t60 hub_Vf.STEP',
    '2026-03-21T02:14:34',
    ( '' ),
    ( '' ),
    'SwSTEP 2.0',
    'SolidWorks 2025',
    '' );
FILE_SCHEMA (( 'CONFIG_CONTROL_DESIGN' ));
ENDSEC;

DATA;
#1 = CIRCLE ( 'NONE', #142, 0.2999999999999999334 ) ;
#2 = VECTOR ( 'NONE', #393, 39.37007874015748143 ) ;
#3 = AXIS2_PLACEMENT_3D ( 'NONE', #389, #525, #277 ) ;
#4 = DIRECTION ( 'NONE',  ( 0.000000000000000000, 0.000000000000000000, 1.000000000000000000 ) ) ;
#5 = EDGE_LOOP ( 'NONE', ( #284, #307, #319, #209 ) ) ;
#6 = LINE ( 'NONE', #323, #408 ) ;
#7 = CYLINDRICAL_SURFACE ( 'NONE', #89, 0.1875000000000000278 ) ;
#8 = VERTEX_POINT ( 'NONE', #291 ) ;
#9 = DIRECTION ( 'NONE',  ( 0.000000000000000000, 1.000000000000000000, 0.000000000000000000 ) ) ;
#10 = CARTESIAN_POINT ( 'NONE',  ( -0.1658312395177699294, 0.000000000000000000, -0.2500000000000000000 ) ) ;
#11 = CARTESIAN_POINT ( 'NONE',  ( 0.000000000000000000, 0.5800000000000000711, 0.000000000000000000 ) ) ;
#12 = ORIENTED_EDGE ( 'NONE', *, *, #466, .F. ) ;
#13 = DIRECTION ( 'NONE',  ( -0.000000000000000000, 1.000000000000000000, -0.000000000000000000 ) ) ;
#14 = APPROVAL_STATUS ( 'not_yet_approved' ) ;
#15 = LINE ( 'NONE', #251, #263 ) ;
#16 = COORDINATED_UNIVERSAL_TIME_OFFSET ( 8, 0, .BEHIND. ) ;
#17 = LINE ( 'NONE', #222, #95 ) ;
#18 = APPROVAL_PERSON_ORGANIZATION ( #216, #37, #19 ) ;
#19 = APPROVAL_ROLE ( '' ) ;
#20 = DIRECTION ( 'NONE',  ( -1.000000000000000000, 0.000000000000000000, 3.491481338843132961E-15 ) ) ;
#21 = DIRECTION ( 'NONE',  ( 1.000000000000000000, 0.000000000000000000, 0.000000000000000000 ) ) ;
#22 = DIRECTION ( 'NONE',  ( -0.000000000000000000, -1.000000000000000000, -0.000000000000000000 ) ) ;
#23 = CARTESIAN_POINT ( 'NONE',  ( 2.296212748401287726E-17, 0.5800000000000000711, 0.1875000000000000278 ) ) ;
#24 = ORIENTED_EDGE ( 'NONE', *, *, #47, .F. ) ;
#25 = DIRECTION ( 'NONE',  ( -0.000000000000000000, -1.000000000000000000, -0.000000000000000000 ) ) ;
#26 = AXIS2_PLACEMENT_3D ( 'NONE', #225, #102, #227 ) ;
#27 = ORIENTED_EDGE ( 'NONE', *, *, #257, .T. ) ;
#28 = VECTOR ( 'NONE', #387, 39.37007874015748143 ) ;
#29 = VERTEX_POINT ( 'NONE', #133 ) ;
#30 = PLANE ( 'NONE',  #211 ) ;
#31 = ORIENTED_EDGE ( 'NONE', *, *, #386, .F. ) ;
#32 = FACE_OUTER_BOUND ( 'NONE', #163, .T. ) ;
#33 = EDGE_LOOP ( 'NONE', ( #339, #114 ) ) ;
#34 = VECTOR ( 'NONE', #169, 39.37007874015748143 ) ;
#35 = VECTOR ( 'NONE', #141, 39.37007874015748143 ) ;
#36 = DIRECTION ( 'NONE',  ( 0.000000000000000000, 1.000000000000000000, 0.000000000000000000 ) ) ;
#37 = APPROVAL ( #379, 'UNSPECIFIED' ) ;
#38 = VERTEX_POINT ( 'NONE', #168 ) ;
#39 = ORIENTED_EDGE ( 'NONE', *, *, #199, .F. ) ;
#40 = EDGE_CURVE ( 'NONE', #315, #242, #213, .T. ) ;
#41 = CARTESIAN_POINT ( 'NONE',  ( -0.06528789641134757904, 0.5799999999999998490, 0.09842519685039369248 ) ) ;
#42 = ORIENTED_EDGE ( 'NONE', *, *, #530, .F. ) ;
#43 = CARTESIAN_POINT ( 'NONE',  ( 0.2499999999999982514, 0.1799999999999999933, -0.1658312395177725385 ) ) ;
#44 = AXIS2_PLACEMENT_3D ( 'NONE', #205, #412, #88 ) ;
#45 = DIRECTION ( 'NONE',  ( 0.000000000000000000, 1.000000000000000000, 0.000000000000000000 ) ) ;
#46 = CARTESIAN_POINT ( 'NONE',  ( -0.1658312395177690413, 0.000000000000000000, 0.2500000000000005551 ) ) ;
#47 = EDGE_CURVE ( 'NONE', #242, #286, #421, .T. ) ;
#48 = LINE ( 'NONE', #98, #220 ) ;
#49 = CC_DESIGN_PERSON_AND_ORGANIZATION_ASSIGNMENT ( #260, #463, ( #335 ) ) ;
#50 = ORIENTED_EDGE ( 'NONE', *, *, #388, .T. ) ;
#51 = LINE ( 'NONE', #212, #345 ) ;
#52 = CARTESIAN_POINT ( 'NONE',  ( 0.000000000000000000, 0.5800000000000000711, 0.000000000000000000 ) ) ;
#53 = VECTOR ( 'NONE', #415, 39.37007874015748143 ) ;
#54 = EDGE_CURVE ( 'NONE', #262, #157, #373, .T. ) ;
#55 = PERSON_AND_ORGANIZATION ( #155, #290 ) ;
#56 = DIRECTION ( 'NONE',  ( 0.000000000000000000, 0.000000000000000000, 1.000000000000000000 ) ) ;
#57 = EDGE_CURVE ( 'NONE', #325, #91, #15, .T. ) ;
#58 = DATE_AND_TIME ( #512, #118 ) ;
#59 = DIRECTION ( 'NONE',  ( -0.000000000000000000, -1.000000000000000000, -0.000000000000000000 ) ) ;
#60 = PERSON_AND_ORGANIZATION ( #155, #290 ) ;
#61 = CC_DESIGN_PERSON_AND_ORGANIZATION_ASSIGNMENT ( #60, #417, ( #180 ) ) ;
#62 = AXIS2_PLACEMENT_3D ( 'NONE', #287, #452, #369 ) ;
#63 = DIRECTION ( 'NONE',  ( 0.000000000000000000, 0.000000000000000000, -1.000000000000000000 ) ) ;
#64 = CIRCLE ( 'NONE', #125, 0.2999999999999999334 ) ;
#65 = ORIENTED_EDGE ( 'NONE', *, *, #314, .F. ) ;
#66 = APPROVAL_ROLE ( '' ) ;
#67 = CARTESIAN_POINT ( 'NONE',  ( 0.000000000000000000, 0.1799999999999999933, 0.000000000000000000 ) ) ;
#68 = COORDINATED_UNIVERSAL_TIME_OFFSET ( 8, 0, .BEHIND. ) ;
#69 = DIRECTION ( 'NONE',  ( -3.491481338843132961E-15, 0.000000000000000000, -1.000000000000000000 ) ) ;
#70 = LINE ( 'NONE', #504, #35 ) ;
#71 = VECTOR ( 'NONE', #384, 39.37007874015748143 ) ;
#72 = ADVANCED_FACE ( 'NONE', ( #411 ), #100, .F. ) ;
#73 = AXIS2_PLACEMENT_3D ( 'NONE', #11, #9, #254 ) ;
#74 = FACE_OUTER_BOUND ( 'NONE', #80, .T. ) ;
#75 = ORIENTED_EDGE ( 'NONE', *, *, #97, .T. ) ;
#76 = EDGE_CURVE ( 'NONE', #436, #236, #367, .T. ) ;
#77 = APPROVAL_DATE_TIME ( #154, #37 ) ;
#78 = DIRECTION ( 'NONE',  ( -0.000000000000000000, -1.000000000000000000, -0.000000000000000000 ) ) ;
#79 = ORIENTED_EDGE ( 'NONE', *, *, #259, .F. ) ;
#80 = EDGE_LOOP ( 'NONE', ( #198, #477, #12, #360, #276, #482, #310, #447 ) ) ;
#81 = AXIS2_PLACEMENT_3D ( 'NONE', #135, #182, #382 ) ;
#82 = CARTESIAN_POINT ( 'NONE',  ( -0.1658312395177699294, 0.1799999999999999933, -0.2500000000000000000 ) ) ;
#83 = VERTEX_POINT ( 'NONE', #460 ) ;
#84 = CYLINDRICAL_SURFACE ( 'NONE', #96, 0.2999999999999999334 ) ;
#85 = ORIENTED_EDGE ( 'NONE', *, *, #54, .T. ) ;
#86 = ORIENTED_EDGE ( 'NONE', *, *, #199, .T. ) ;
#87 = EDGE_CURVE ( 'NONE', #321, #468, #48, .T. ) ;
#88 = DIRECTION ( 'NONE',  ( 0.000000000000000000, 0.000000000000000000, -1.000000000000000000 ) ) ;
#89 = AXIS2_PLACEMENT_3D ( 'NONE', #132, #474, #336 ) ;
#90 = CARTESIAN_POINT ( 'NONE',  ( 0.1658312395177672927, 0.1799999999999999933, -0.2500000000000017208 ) ) ;
#91 = VERTEX_POINT ( 'NONE', #215 ) ;
#92 = ADVANCED_FACE ( 'NONE', ( #177 ), #293, .T. ) ;
#93 = VERTEX_POINT ( 'NONE', #248 ) ;
#94 = VECTOR ( 'NONE', #348, 39.37007874015748143 ) ;
#95 = VECTOR ( 'NONE', #25, 39.37007874015748143 ) ;
#96 = AXIS2_PLACEMENT_3D ( 'NONE', #113, #119, #531 ) ;
#97 = EDGE_CURVE ( 'NONE', #357, #29, #459, .T. ) ;
#98 = CARTESIAN_POINT ( 'NONE',  ( -0.1658312395177690413, 0.1799999999999999933, 0.2500000000000005551 ) ) ;
#99 = APPROVAL_ROLE ( '' ) ;
#100 = PLANE ( 'NONE',  #311 ) ;
#101 = PERSON_AND_ORGANIZATION ( #155, #290 ) ;
#102 = DIRECTION ( 'NONE',  ( 0.000000000000000000, 1.000000000000000000, 0.000000000000000000 ) ) ;
#103 = PERSON_AND_ORGANIZATION ( #155, #290 ) ;
#104 = APPROVAL_PERSON_ORGANIZATION ( #103, #337, #99 ) ;
#105 = ORIENTED_EDGE ( 'NONE', *, *, #530, .T. ) ;
#106 = LINE ( 'NONE', #429, #231 ) ;
#107 = FACE_OUTER_BOUND ( 'NONE', #166, .T. ) ;
#108 = CARTESIAN_POINT ( 'NONE',  ( -0.1658312395177690413, 0.1799999999999999933, 0.2500000000000005551 ) ) ;
#109 = EDGE_CURVE ( 'NONE', #112, #83, #1, .T. ) ;
#110 = EDGE_LOOP ( 'NONE', ( #161, #202, #484, #478, #485, #527, #326, #272 ) ) ;
#111 = CYLINDRICAL_SURFACE ( 'NONE', #471, 0.2999999999999999334 ) ;
#112 = VERTEX_POINT ( 'NONE', #410 ) ;
#113 = CARTESIAN_POINT ( 'NONE',  ( 0.000000000000000000, 0.1799999999999999933, 0.000000000000000000 ) ) ;
#114 = ORIENTED_EDGE ( 'NONE', *, *, #97, .F. ) ;
#115 = DIRECTION ( 'NONE',  ( 1.000000000000000000, 0.000000000000000000, -0.000000000000000000 ) ) ;
#116 = ORIENTED_EDGE ( 'NONE', *, *, #40, .T. ) ;
#117 = CIRCLE ( 'NONE', #26, 0.1875000000000000278 ) ;
#118 = LOCAL_TIME ( 19, 14, 34.00000000000000000, #343 ) ;
#119 = DIRECTION ( 'NONE',  ( -0.000000000000000000, -1.000000000000000000, -0.000000000000000000 ) ) ;
#120 = EDGE_LOOP ( 'NONE', ( #529, #270, #238, #402 ) ) ;
#121 = CARTESIAN_POINT ( 'NONE',  ( 0.000000000000000000, 0.5800000000000000711, 0.000000000000000000 ) ) ;
#122 = FACE_OUTER_BOUND ( 'NONE', #123, .T. ) ;
#123 = EDGE_LOOP ( 'NONE', ( #434, #355, #510, #507 ) ) ;
#124 = CARTESIAN_POINT ( 'NONE',  ( 0.000000000000000000, 0.000000000000000000, 0.000000000000000000 ) ) ;
#125 = AXIS2_PLACEMENT_3D ( 'NONE', #456, #365, #370 ) ;
#126 = EDGE_LOOP ( 'NONE', ( #50, #281, #404, #349 ) ) ;
#127 = ORIENTED_EDGE ( 'NONE', *, *, #501, .F. ) ;
#128 = CARTESIAN_POINT ( 'NONE',  ( -0.2499999999999994171, 0.000000000000000000, 0.1658312395177708176 ) ) ;
#129 = EDGE_CURVE ( 'NONE', #315, #8, #378, .T. ) ;
#130 = DIRECTION ( 'NONE',  ( -0.000000000000000000, 0.000000000000000000, 1.000000000000000000 ) ) ;
#131 = AXIS2_PLACEMENT_3D ( 'NONE', #313, #78, #240 ) ;
#132 = CARTESIAN_POINT ( 'NONE',  ( 0.000000000000000000, 0.5800000000000000711, 0.000000000000000000 ) ) ;
#133 = CARTESIAN_POINT ( 'NONE',  ( 0.000000000000000000, 0.1799999999999999933, -0.1875000000000000278 ) ) ;
#134 = DATE_TIME_ROLE ( 'creation_date' ) ;
#135 = CARTESIAN_POINT ( 'NONE',  ( 0.000000000000000000, 0.000000000000000000, 0.000000000000000000 ) ) ;
#136 = PLANE ( 'NONE',  #334 ) ;
#137 = EDGE_CURVE ( 'NONE', #236, #112, #332, .T. ) ;
#138 = ORIENTED_EDGE ( 'NONE', *, *, #358, .T. ) ;
#139 = PERSON_AND_ORGANIZATION_ROLE ( 'creator' ) ;
#140 = CALENDAR_DATE ( 2026, 20, 3 ) ;
#141 = DIRECTION ( 'NONE',  ( 1.000000000000000000, 0.000000000000000000, 0.000000000000000000 ) ) ;
#142 = AXIS2_PLACEMENT_3D ( 'NONE', #124, #256, #174 ) ;
#143 = FACE_BOUND ( 'NONE', #33, .T. ) ;
#144 =( NAMED_UNIT ( * ) PLANE_ANGLE_UNIT ( ) SI_UNIT ( $, .RADIAN. ) );
#145 = ADVANCED_FACE ( 'NONE', ( #376 ), #327, .T. ) ;
#146 = EDGE_LOOP ( 'NONE', ( #42, #363, #75, #493 ) ) ;
#147 = EDGE_CURVE ( 'NONE', #29, #357, #117, .T. ) ;
#148 = APPLICATION_CONTEXT ( 'configuration controlled 3d designs of mechanical parts and assemblies' ) ;
#149 = CC_DESIGN_PERSON_AND_ORGANIZATION_ASSIGNMENT ( #55, #139, ( #176 ) ) ;
#150 = AXIS2_PLACEMENT_3D ( 'NONE', #258, #208, #375 ) ;
#151 = ORIENTED_EDGE ( 'NONE', *, *, #289, .F. ) ;
#152 = VECTOR ( 'NONE', #440, 39.37007874015748143 ) ;
#153 = CC_DESIGN_APPROVAL ( #37, ( #180 ) ) ;
#154 = DATE_AND_TIME ( #140, #380 ) ;
#155 = PERSON ( 'UNSPECIFIED', 'UNSPECIFIED', 'UNSPECIFIED', ('UNSPECIFIED'), ('UNSPECIFIED'), ('UNSPECIFIED') ) ;
#156 = DIRECTION ( 'NONE',  ( -0.000000000000000000, -1.000000000000000000, -0.000000000000000000 ) ) ;
#157 = VERTEX_POINT ( 'NONE', #514 ) ;
#158 = EDGE_CURVE ( 'NONE', #93, #357, #426, .T. ) ;
#159 = PRODUCT_DEFINITION_SHAPE ( 'NONE', 'NONE',  #176 ) ;
#160 = CARTESIAN_POINT ( 'NONE',  ( 0.2500000000000000000, 0.000000000000000000, 0.1658312395177699294 ) ) ;
#161 = ORIENTED_EDGE ( 'NONE', *, *, #57, .T. ) ;
#162 = APPROVAL ( #14, 'UNSPECIFIED' ) ;
#163 = EDGE_LOOP ( 'NONE', ( #317, #381, #151, #27 ) ) ;
#164 = PLANE ( 'NONE',  #73 ) ;
#165 = CARTESIAN_POINT ( 'NONE',  ( 0.1658312395177699294, 0.000000000000000000, 0.2500000000000000000 ) ) ;
#166 = EDGE_LOOP ( 'NONE', ( #438, #391, #385, #116 ) ) ;
#167 = ADVANCED_FACE ( 'NONE', ( #269 ), #308, .F. ) ;
#168 = CARTESIAN_POINT ( 'NONE',  ( 0.2500000000000000000, 0.1799999999999999933, 0.1658312395177699294 ) ) ;
#169 = DIRECTION ( 'NONE',  ( -1.000000000000000000, -0.000000000000000000, -0.000000000000000000 ) ) ;
#170 = VECTOR ( 'NONE', #261, 39.37007874015748143 ) ;
#171 = CC_DESIGN_APPROVAL ( #162, ( #335 ) ) ;
#172 = DIRECTION ( 'NONE',  ( 0.000000000000000000, 0.000000000000000000, -1.000000000000000000 ) ) ;
#173 = CARTESIAN_POINT ( 'NONE',  ( -0.1658312395177690413, 0.1799999999999999933, 0.2500000000000005551 ) ) ;
#174 = DIRECTION ( 'NONE',  ( 0.000000000000000000, 0.000000000000000000, 1.000000000000000000 ) ) ;
#175 = PERSON_AND_ORGANIZATION_ROLE ( 'creator' ) ;
#176 = PRODUCT_DEFINITION ( 'UNKNOWN', '', #335, #467 ) ;
#177 = FACE_OUTER_BOUND ( 'NONE', #394, .T. ) ;
#178 = AXIS2_PLACEMENT_3D ( 'NONE', #487, #237, #4 ) ;
#179 = EDGE_CURVE ( 'NONE', #436, #407, #186, .T. ) ;
#180 = SECURITY_CLASSIFICATION ( '', '', #428 ) ;
#181 = APPLICATION_PROTOCOL_DEFINITION ( 'international standard', 'config_control_design', 1994, #392 ) ;
#182 = DIRECTION ( 'NONE',  ( -0.000000000000000000, 1.000000000000000000, -0.000000000000000000 ) ) ;
#183 = CARTESIAN_POINT ( 'NONE',  ( 0.2499999999999982514, 0.1799999999999999933, -0.1658312395177725385 ) ) ;
#184 = DATE_TIME_ROLE ( 'classification_date' ) ;
#185 = CARTESIAN_POINT ( 'NONE',  ( -0.1658312395177699294, 0.1799999999999999933, -0.2500000000000000000 ) ) ;
#186 = LINE ( 'NONE', #473, #170 ) ;
#187 = DATE_AND_TIME ( #219, #480 ) ;
#188 = DIRECTION ( 'NONE',  ( -0.000000000000000000, -1.000000000000000000, -0.000000000000000000 ) ) ;
#189 = ORIENTED_EDGE ( 'NONE', *, *, #397, .T. ) ;
#190 = ADVANCED_FACE ( 'NONE', ( #306, #143 ), #338, .T. ) ;
#191 = CARTESIAN_POINT ( 'NONE',  ( 0.2499999999999982514, 0.000000000000000000, -0.1658312395177725385 ) ) ;
#192 = DIRECTION ( 'NONE',  ( -0.000000000000000000, -1.000000000000000000, -0.000000000000000000 ) ) ;
#193 = ORIENTED_EDGE ( 'NONE', *, *, #466, .T. ) ;
#194 = CARTESIAN_POINT ( 'NONE',  ( -0.1658312395177699294, 0.1799999999999999933, -0.2500000000000000000 ) ) ;
#195 = AXIS2_PLACEMENT_3D ( 'NONE', #295, #13, #206 ) ;
#196 = ORIENTED_EDGE ( 'NONE', *, *, #204, .T. ) ;
#197 = ORIENTED_EDGE ( 'NONE', *, *, #204, .F. ) ;
#198 = ORIENTED_EDGE ( 'NONE', *, *, #109, .F. ) ;
#199 = EDGE_CURVE ( 'NONE', #457, #233, #430, .T. ) ;
#200 = CARTESIAN_POINT ( 'NONE',  ( 0.1658312395177699294, 0.1799999999999999933, 0.2500000000000000000 ) ) ;
#201 = CARTESIAN_POINT ( 'NONE',  ( 0.06528789641134759292, 0.5799999999999998490, 0.09842519685039369248 ) ) ;
#202 = ORIENTED_EDGE ( 'NONE', *, *, #433, .T. ) ;
#203 = CC_DESIGN_APPROVAL ( #337, ( #176 ) ) ;
#204 = EDGE_CURVE ( 'NONE', #91, #449, #419, .T. ) ;
#205 = CARTESIAN_POINT ( 'NONE',  ( 0.000000000000000000, 0.1799999999999999933, 0.000000000000000000 ) ) ;
#206 = DIRECTION ( 'NONE',  ( 0.000000000000000000, 0.000000000000000000, 1.000000000000000000 ) ) ;
#207 = LENGTH_MEASURE_WITH_UNIT ( LENGTH_MEASURE( 0.02539999999999999897 ), #247 );
#208 = DIRECTION ( 'NONE',  ( -0.000000000000000000, -1.000000000000000000, -0.000000000000000000 ) ) ;
#209 = ORIENTED_EDGE ( 'NONE', *, *, #76, .T. ) ;
#210 = CARTESIAN_POINT ( 'NONE',  ( 0.2500000000000000000, 0.1799999999999999933, 0.1658312395177699294 ) ) ;
#211 = AXIS2_PLACEMENT_3D ( 'NONE', #356, #361, #528 ) ;
#212 = CARTESIAN_POINT ( 'NONE',  ( 0.2500000000000000000, 0.1799999999999999933, 0.1658312395177699294 ) ) ;
#213 = LINE ( 'NONE', #500, #495 ) ;
#214 = CALENDAR_DATE ( 2026, 20, 3 ) ;
#215 = CARTESIAN_POINT ( 'NONE',  ( -0.2499999999999994171, 0.1799999999999999933, 0.1658312395177708176 ) ) ;
#216 = PERSON_AND_ORGANIZATION ( #155, #290 ) ;
#217 = CYLINDRICAL_SURFACE ( 'NONE', #81, 0.1181102400000000052 ) ;
#218 = DIRECTION ( 'NONE',  ( 0.000000000000000000, 1.000000000000000000, 0.000000000000000000 ) ) ;
#219 = CALENDAR_DATE ( 2026, 20, 3 ) ;
#220 = VECTOR ( 'NONE', #252, 39.37007874015748143 ) ;
#221 = EDGE_CURVE ( 'NONE', #441, #29, #17, .T. ) ;
#222 = CARTESIAN_POINT ( 'NONE',  ( 0.000000000000000000, 0.5800000000000000711, -0.1875000000000000278 ) ) ;
#223 = ORIENTED_EDGE ( 'NONE', *, *, #433, .F. ) ;
#224 = PERSON_AND_ORGANIZATION ( #155, #290 ) ;
#225 = CARTESIAN_POINT ( 'NONE',  ( 0.000000000000000000, 0.1799999999999999933, 0.000000000000000000 ) ) ;
#226 = APPROVAL_STATUS ( 'not_yet_approved' ) ;
#227 = DIRECTION ( 'NONE',  ( 0.000000000000000000, 0.000000000000000000, 1.000000000000000000 ) ) ;
#228 = CARTESIAN_POINT ( 'NONE',  ( 2.296212748401287726E-17, 0.1799999999999999933, 0.1875000000000000278 ) ) ;
#229 = AXIS2_PLACEMENT_3D ( 'NONE', #298, #416, #172 ) ;
#230 = DIRECTION ( 'NONE',  ( 0.000000000000000000, -0.000000000000000000, 1.000000000000000000 ) ) ;
#231 = VECTOR ( 'NONE', #274, 39.37007874015748143 ) ;
#232 = LINE ( 'NONE', #390, #362 ) ;
#233 = VERTEX_POINT ( 'NONE', #191 ) ;
#234 = ADVANCED_FACE ( 'NONE', ( #506 ), #136, .F. ) ;
#235 = CYLINDRICAL_SURFACE ( 'NONE', #131, 0.2999999999999999334 ) ;
#236 = VERTEX_POINT ( 'NONE', #359 ) ;
#237 = DIRECTION ( 'NONE',  ( 0.000000000000000000, 1.000000000000000000, 0.000000000000000000 ) ) ;
#238 = ORIENTED_EDGE ( 'NONE', *, *, #358, .F. ) ;
#239 = SHAPE_DEFINITION_REPRESENTATION ( #159, #275 ) ;
#240 = DIRECTION ( 'NONE',  ( 0.000000000000000000, 0.000000000000000000, -1.000000000000000000 ) ) ;
#241 = ADVANCED_FACE ( 'NONE', ( #526 ), #84, .T. ) ;
#242 = VERTEX_POINT ( 'NONE', #201 ) ;
#243 = ORIENTED_EDGE ( 'NONE', *, *, #250, .T. ) ;
#244 = ORIENTED_EDGE ( 'NONE', *, *, #431, .T. ) ;
#245 = LOCAL_TIME ( 19, 14, 34.00000000000000000, #469 ) ;
#246 = CC_DESIGN_DATE_AND_TIME_ASSIGNMENT ( #423, #134, ( #176 ) ) ;
#247 =( LENGTH_UNIT ( ) NAMED_UNIT ( * ) SI_UNIT ( $, .METRE. ) );
#248 = CARTESIAN_POINT ( 'NONE',  ( 2.296212748401287726E-17, 0.5800000000000000711, 0.1875000000000000278 ) ) ;
#249 = CARTESIAN_POINT ( 'NONE',  ( 0.000000000000000000, 0.5800000000000000711, -0.1875000000000000278 ) ) ;
#250 = EDGE_CURVE ( 'NONE', #157, #233, #403, .T. ) ;
#251 = CARTESIAN_POINT ( 'NONE',  ( -0.2500000000000000000, 0.1799999999999999933, -0.1658312395177699294 ) ) ;
#252 = DIRECTION ( 'NONE',  ( -0.000000000000000000, -1.000000000000000000, -0.000000000000000000 ) ) ;
#253 = VECTOR ( 'NONE', #498, 39.37007874015748143 ) ;
#254 = DIRECTION ( 'NONE',  ( 0.000000000000000000, -0.000000000000000000, 1.000000000000000000 ) ) ;
#255 = AXIS2_PLACEMENT_3D ( 'NONE', #210, #292, #454 ) ;
#256 = DIRECTION ( 'NONE',  ( 0.000000000000000000, 1.000000000000000000, 0.000000000000000000 ) ) ;
#257 = EDGE_CURVE ( 'NONE', #407, #112, #282, .T. ) ;
#258 = CARTESIAN_POINT ( 'NONE',  ( 0.000000000000000000, 0.1799999999999999933, 0.000000000000000000 ) ) ;
#259 = EDGE_CURVE ( 'NONE', #286, #242, #354, .T. ) ;
#260 = PERSON_AND_ORGANIZATION ( #155, #290 ) ;
#261 = DIRECTION ( 'NONE',  ( -1.000000000000000000, -0.000000000000000000, -0.000000000000000000 ) ) ;
#262 = VERTEX_POINT ( 'NONE', #165 ) ;
#263 = VECTOR ( 'NONE', #56, 39.37007874015748143 ) ;
#264 = LINE ( 'NONE', #425, #414 ) ;
#265 = CIRCLE ( 'NONE', #329, 0.1875000000000000278 ) ;
#266 = ORIENTED_EDGE ( 'NONE', *, *, #57, .F. ) ;
#267 = PERSON_AND_ORGANIZATION ( #155, #290 ) ;
#268 = DATE_AND_TIME ( #383, #245 ) ;
#269 = FACE_OUTER_BOUND ( 'NONE', #126, .T. ) ;
#270 = ORIENTED_EDGE ( 'NONE', *, *, #40, .F. ) ;
#271 = DIRECTION ( 'NONE',  ( 0.000000000000000000, 0.000000000000000000, -1.000000000000000000 ) ) ;
#272 = ORIENTED_EDGE ( 'NONE', *, *, #289, .T. ) ;
#273 = EDGE_CURVE ( 'NONE', #441, #93, #422, .T. ) ;
#274 = DIRECTION ( 'NONE',  ( 0.000000000000000000, 0.000000000000000000, 1.000000000000000000 ) ) ;
#275 = ADVANCED_BREP_SHAPE_REPRESENTATION ( 't60 hub_Vf', ( #515, #488 ), #347 ) ;
#276 = ORIENTED_EDGE ( 'NONE', *, *, #54, .F. ) ;
#277 = DIRECTION ( 'NONE',  ( 1.000000000000000000, 0.000000000000000000, -3.491481338843133355E-15 ) ) ;
#278 = CARTESIAN_POINT ( 'NONE',  ( -0.06528789641134756516, 0.5799999999999998490, 0.09842519685039370636 ) ) ;
#279 = EDGE_LOOP ( 'NONE', ( #85, #65, #127, #465 ) ) ;
#280 = FACE_OUTER_BOUND ( 'NONE', #532, .T. ) ;
#281 = ORIENTED_EDGE ( 'NONE', *, *, #283, .F. ) ;
#282 = LINE ( 'NONE', #82, #152 ) ;
#283 = EDGE_CURVE ( 'NONE', #520, #262, #396, .T. ) ;
#284 = ORIENTED_EDGE ( 'NONE', *, *, #137, .T. ) ;
#285 = DIRECTION ( 'NONE',  ( 0.000000000000000000, 1.000000000000000000, 0.000000000000000000 ) ) ;
#286 = VERTEX_POINT ( 'NONE', #41 ) ;
#287 = CARTESIAN_POINT ( 'NONE',  ( 0.000000000000000000, 0.000000000000000000, 0.000000000000000000 ) ) ;
#288 = CIRCLE ( 'NONE', #479, 0.2999999999999999334 ) ;
#289 = EDGE_CURVE ( 'NONE', #407, #325, #288, .T. ) ;
#290 = ORGANIZATION ( 'UNSPECIFIED', 'UNSPECIFIED', '' ) ;
#291 = CARTESIAN_POINT ( 'NONE',  ( -0.06528789641134756516, 0.000000000000000000, 0.09842519685039370636 ) ) ;
#292 = DIRECTION ( 'NONE',  ( -1.000000000000000000, 0.000000000000000000, 0.000000000000000000 ) ) ;
#293 = CYLINDRICAL_SURFACE ( 'NONE', #150, 0.2999999999999999334 ) ;
#294 = ADVANCED_FACE ( 'NONE', ( #32 ), #111, .T. ) ;
#295 = CARTESIAN_POINT ( 'NONE',  ( 0.000000000000000000, 0.5799999999999998490, 0.000000000000000000 ) ) ;
#296 = VECTOR ( 'NONE', #59, 39.37007874015748143 ) ;
#297 = ADVANCED_FACE ( 'NONE', ( #437 ), #521, .F. ) ;
#298 = CARTESIAN_POINT ( 'NONE',  ( 0.000000000000000000, 0.000000000000000000, 0.000000000000000000 ) ) ;
#299 = CARTESIAN_POINT ( 'NONE',  ( -0.2500000000000000000, 0.1799999999999999933, -0.1658312395177699294 ) ) ;
#300 = ORIENTED_EDGE ( 'NONE', *, *, #314, .T. ) ;
#301 = PERSON_AND_ORGANIZATION_ROLE ( 'design_owner' ) ;
#302 = LINE ( 'NONE', #470, #28 ) ;
#303 = APPLICATION_PROTOCOL_DEFINITION ( 'international standard', 'config_control_design', 1994, #148 ) ;
#304 = AXIS2_PLACEMENT_3D ( 'NONE', #346, #344, #513 ) ;
#305 = DIRECTION ( 'NONE',  ( 0.000000000000000000, 0.000000000000000000, 1.000000000000000000 ) ) ;
#306 = FACE_OUTER_BOUND ( 'NONE', #110, .T. ) ;
#307 = ORIENTED_EDGE ( 'NONE', *, *, #257, .F. ) ;
#308 = PLANE ( 'NONE',  #328 ) ;
#309 = ADVANCED_FACE ( 'NONE', ( #435, #74 ), #30, .F. ) ;
#310 = ORIENTED_EDGE ( 'NONE', *, *, #409, .F. ) ;
#311 = AXIS2_PLACEMENT_3D ( 'NONE', #330, #130, #494 ) ;
#312 = AXIS2_PLACEMENT_3D ( 'NONE', #194, #483, #115 ) ;
#313 = CARTESIAN_POINT ( 'NONE',  ( 0.000000000000000000, 0.1799999999999999933, 0.000000000000000000 ) ) ;
#314 = EDGE_CURVE ( 'NONE', #38, #157, #232, .T. ) ;
#315 = VERTEX_POINT ( 'NONE', #318 ) ;
#316 = DIRECTION ( 'NONE',  ( 0.000000000000000000, 0.000000000000000000, -1.000000000000000000 ) ) ;
#317 = ORIENTED_EDGE ( 'NONE', *, *, #109, .T. ) ;
#318 = CARTESIAN_POINT ( 'NONE',  ( 0.06528789641134756516, 0.000000000000000000, 0.09842519685039370636 ) ) ;
#319 = ORIENTED_EDGE ( 'NONE', *, *, #179, .F. ) ;
#320 = ADVANCED_FACE ( 'NONE', ( #352 ), #235, .T. ) ;
#321 = VERTEX_POINT ( 'NONE', #400 ) ;
#322 = CIRCLE ( 'NONE', #44, 0.2999999999999999334 ) ;
#323 = CARTESIAN_POINT ( 'NONE',  ( -0.06528789641134756516, 0.000000000000000000, 0.09842519685039370636 ) ) ;
#324 = DIRECTION ( 'NONE',  ( 1.000000000000000000, 0.000000000000000000, 0.000000000000000000 ) ) ;
#325 = VERTEX_POINT ( 'NONE', #371 ) ;
#326 = ORIENTED_EDGE ( 'NONE', *, *, #179, .T. ) ;
#327 = CYLINDRICAL_SURFACE ( 'NONE', #442, 0.1875000000000000278 ) ;
#328 = AXIS2_PLACEMENT_3D ( 'NONE', #108, #69, #20 ) ;
#329 = AXIS2_PLACEMENT_3D ( 'NONE', #121, #285, #448 ) ;
#330 = CARTESIAN_POINT ( 'NONE',  ( -0.06528789641134756516, 0.000000000000000000, 0.09842519685039370636 ) ) ;
#331 = EDGE_CURVE ( 'NONE', #38, #457, #51, .T. ) ;
#332 = LINE ( 'NONE', #10, #34 ) ;
#333 = DIRECTION ( 'NONE',  ( 0.000000000000000000, 0.000000000000000000, 1.000000000000000000 ) ) ;
#334 = AXIS2_PLACEMENT_3D ( 'NONE', #299, #342, #509 ) ;
#335 = PRODUCT_DEFINITION_FORMATION_WITH_SPECIFIED_SOURCE ( 'ANY', '', #401, .NOT_KNOWN. ) ;
#336 = DIRECTION ( 'NONE',  ( 0.000000000000000000, 0.000000000000000000, -1.000000000000000000 ) ) ;
#337 = APPROVAL ( #226, 'UNSPECIFIED' ) ;
#338 = PLANE ( 'NONE',  #395 ) ;
#339 = ORIENTED_EDGE ( 'NONE', *, *, #147, .F. ) ;
#340 = COORDINATED_UNIVERSAL_TIME_OFFSET ( 8, 0, .BEHIND. ) ;
#341 = DIRECTION ( 'NONE',  ( 0.000000000000000000, 1.000000000000000000, 0.000000000000000000 ) ) ;
#342 = DIRECTION ( 'NONE',  ( 1.000000000000000000, 0.000000000000000000, 0.000000000000000000 ) ) ;
#343 = COORDINATED_UNIVERSAL_TIME_OFFSET ( 8, 0, .BEHIND. ) ;
#344 = DIRECTION ( 'NONE',  ( 0.000000000000000000, 1.000000000000000000, 0.000000000000000000 ) ) ;
#345 = VECTOR ( 'NONE', #374, 39.37007874015748143 ) ;
#346 = CARTESIAN_POINT ( 'NONE',  ( 0.000000000000000000, 0.000000000000000000, 0.000000000000000000 ) ) ;
#347 =( GEOMETRIC_REPRESENTATION_CONTEXT ( 3 ) GLOBAL_UNCERTAINTY_ASSIGNED_CONTEXT ( ( #497 ) ) GLOBAL_UNIT_ASSIGNED_CONTEXT ( ( #368, #144, #377 ) ) REPRESENTATION_CONTEXT ( 'NONE', 'WORKASPACE' ) );
#348 = DIRECTION ( 'NONE',  ( -0.000000000000000000, -1.000000000000000000, -0.000000000000000000 ) ) ;
#349 = ORIENTED_EDGE ( 'NONE', *, *, #87, .T. ) ;
#350 = PLANE ( 'NONE',  #255 ) ;
#351 = ADVANCED_FACE ( 'NONE', ( #122 ), #7, .T. ) ;
#352 = FACE_OUTER_BOUND ( 'NONE', #279, .T. ) ;
#353 = ORIENTED_EDGE ( 'NONE', *, *, #76, .F. ) ;
#354 = LINE ( 'NONE', #278, #461 ) ;
#355 = ORIENTED_EDGE ( 'NONE', *, *, #273, .F. ) ;
#356 = CARTESIAN_POINT ( 'NONE',  ( 0.000000000000000000, 0.000000000000000000, 0.000000000000000000 ) ) ;
#357 = VERTEX_POINT ( 'NONE', #228 ) ;
#358 = EDGE_CURVE ( 'NONE', #8, #315, #70, .T. ) ;
#359 = CARTESIAN_POINT ( 'NONE',  ( 0.1658312395177672927, 0.000000000000000000, -0.2500000000000017208 ) ) ;
#360 = ORIENTED_EDGE ( 'NONE', *, *, #250, .F. ) ;
#361 = DIRECTION ( 'NONE',  ( 0.000000000000000000, 1.000000000000000000, 0.000000000000000000 ) ) ;
#362 = VECTOR ( 'NONE', #192, 39.37007874015748143 ) ;
#363 = ORIENTED_EDGE ( 'NONE', *, *, #158, .T. ) ;
#364 = CIRCLE ( 'NONE', #3, 0.2999999999999999334 ) ;
#365 = DIRECTION ( 'NONE',  ( 0.000000000000000000, 1.000000000000000000, 0.000000000000000000 ) ) ;
#366 = ADVANCED_FACE ( 'NONE', ( #107 ), #217, .F. ) ;
#367 = LINE ( 'NONE', #90, #253 ) ;
#368 =( CONVERSION_BASED_UNIT ( 'INCH', #207 ) LENGTH_UNIT ( ) NAMED_UNIT ( #490 ) );
#369 = DIRECTION ( 'NONE',  ( 0.000000000000000000, 0.000000000000000000, 1.000000000000000000 ) ) ;
#370 = DIRECTION ( 'NONE',  ( -1.000000000000000000, 0.000000000000000000, 1.047444401652940007E-14 ) ) ;
#371 = CARTESIAN_POINT ( 'NONE',  ( -0.2500000000000000000, 0.1799999999999999933, -0.1658312395177699294 ) ) ;
#372 = ORIENTED_EDGE ( 'NONE', *, *, #409, .T. ) ;
#373 = CIRCLE ( 'NONE', #229, 0.2999999999999999334 ) ;
#374 = DIRECTION ( 'NONE',  ( 0.000000000000000000, 0.000000000000000000, -1.000000000000000000 ) ) ;
#375 = DIRECTION ( 'NONE',  ( 0.000000000000000000, 0.000000000000000000, -1.000000000000000000 ) ) ;
#376 = FACE_OUTER_BOUND ( 'NONE', #146, .T. ) ;
#377 =( NAMED_UNIT ( * ) SI_UNIT ( $, .STERADIAN. ) SOLID_ANGLE_UNIT ( ) );
#378 = CIRCLE ( 'NONE', #62, 0.1181102400000000052 ) ;
#379 = APPROVAL_STATUS ( 'not_yet_approved' ) ;
#380 = LOCAL_TIME ( 19, 14, 34.00000000000000000, #340 ) ;
#381 = ORIENTED_EDGE ( 'NONE', *, *, #397, .F. ) ;
#382 = DIRECTION ( 'NONE',  ( 0.000000000000000000, 0.000000000000000000, 1.000000000000000000 ) ) ;
#383 = CALENDAR_DATE ( 2026, 20, 3 ) ;
#384 = DIRECTION ( 'NONE',  ( -0.000000000000000000, -1.000000000000000000, -0.000000000000000000 ) ) ;
#385 = ORIENTED_EDGE ( 'NONE', *, *, #129, .F. ) ;
#386 = EDGE_CURVE ( 'NONE', #457, #436, #444, .T. ) ;
#387 = DIRECTION ( 'NONE',  ( 1.000000000000000000, 0.000000000000000000, -3.491481338843132961E-15 ) ) ;
#388 = EDGE_CURVE ( 'NONE', #468, #262, #302, .T. ) ;
#389 = CARTESIAN_POINT ( 'NONE',  ( 0.000000000000000000, 0.1799999999999999933, 0.000000000000000000 ) ) ;
#390 = CARTESIAN_POINT ( 'NONE',  ( 0.2500000000000000000, 0.1799999999999999933, 0.1658312395177699294 ) ) ;
#391 = ORIENTED_EDGE ( 'NONE', *, *, #522, .F. ) ;
#392 = APPLICATION_CONTEXT ( 'configuration controlled 3d designs of mechanical parts and assemblies' ) ;
#393 = DIRECTION ( 'NONE',  ( -0.000000000000000000, -1.000000000000000000, -0.000000000000000000 ) ) ;
#394 = EDGE_LOOP ( 'NONE', ( #193, #353, #31, #86 ) ) ;
#395 = AXIS2_PLACEMENT_3D ( 'NONE', #432, #218, #230 ) ;
#396 = LINE ( 'NONE', #481, #2 ) ;
#397 = EDGE_CURVE ( 'NONE', #325, #83, #264, .T. ) ;
#398 = LOCAL_TIME ( 19, 14, 34.00000000000000000, #16 ) ;
#399 = ORIENTED_EDGE ( 'NONE', *, *, #273, .T. ) ;
#400 = CARTESIAN_POINT ( 'NONE',  ( -0.1658312395177690413, 0.1799999999999999933, 0.2500000000000005551 ) ) ;
#401 = PRODUCT ( 't60 hub_Vf', 't60 hub_Vf', '', ( #503 ) ) ;
#402 = ORIENTED_EDGE ( 'NONE', *, *, #522, .T. ) ;
#403 = LINE ( 'NONE', #160, #406 ) ;
#404 = ORIENTED_EDGE ( 'NONE', *, *, #505, .F. ) ;
#405 = FACE_OUTER_BOUND ( 'NONE', #517, .T. ) ;
#406 = VECTOR ( 'NONE', #316, 39.37007874015748143 ) ;
#407 = VERTEX_POINT ( 'NONE', #185 ) ;
#408 = VECTOR ( 'NONE', #491, 39.37007874015748143 ) ;
#409 = EDGE_CURVE ( 'NONE', #449, #468, #516, .T. ) ;
#410 = CARTESIAN_POINT ( 'NONE',  ( -0.1658312395177699294, 0.000000000000000000, -0.2500000000000000000 ) ) ;
#411 = FACE_OUTER_BOUND ( 'NONE', #120, .T. ) ;
#412 = DIRECTION ( 'NONE',  ( 0.000000000000000000, 1.000000000000000000, 0.000000000000000000 ) ) ;
#413 = CARTESIAN_POINT ( 'NONE',  ( 0.000000000000000000, 0.1799999999999999933, 0.000000000000000000 ) ) ;
#414 = VECTOR ( 'NONE', #22, 39.37007874015748143 ) ;
#415 = DIRECTION ( 'NONE',  ( 1.000000000000000000, 0.000000000000000000, -3.491481338843132961E-15 ) ) ;
#416 = DIRECTION ( 'NONE',  ( 0.000000000000000000, 1.000000000000000000, 0.000000000000000000 ) ) ;
#417 = PERSON_AND_ORGANIZATION_ROLE ( 'classification_officer' ) ;
#418 = APPROVAL_DATE_TIME ( #268, #337 ) ;
#419 = LINE ( 'NONE', #476, #71 ) ;
#420 = EDGE_LOOP ( 'NONE', ( #24, #79 ) ) ;
#421 = CIRCLE ( 'NONE', #195, 0.1181102400000000052 ) ;
#422 = CIRCLE ( 'NONE', #178, 0.1875000000000000278 ) ;
#423 = DATE_AND_TIME ( #214, #398 ) ;
#424 = APPROVAL_PERSON_ORGANIZATION ( #267, #162, #66 ) ;
#425 = CARTESIAN_POINT ( 'NONE',  ( -0.2500000000000000000, 0.1799999999999999933, -0.1658312395177699294 ) ) ;
#426 = LINE ( 'NONE', #23, #94 ) ;
#427 = EDGE_LOOP ( 'NONE', ( #244, #197, #266, #189 ) ) ;
#428 = SECURITY_CLASSIFICATION_LEVEL ( 'unclassified' ) ;
#429 = CARTESIAN_POINT ( 'NONE',  ( -0.2500000000000000000, 0.000000000000000000, -0.1658312395177699294 ) ) ;
#430 = LINE ( 'NONE', #183, #296 ) ;
#431 = EDGE_CURVE ( 'NONE', #83, #449, #106, .T. ) ;
#432 = CARTESIAN_POINT ( 'NONE',  ( 0.000000000000000000, 0.1799999999999999933, 0.000000000000000000 ) ) ;
#433 = EDGE_CURVE ( 'NONE', #91, #321, #364, .T. ) ;
#434 = ORIENTED_EDGE ( 'NONE', *, *, #158, .F. ) ;
#435 = FACE_BOUND ( 'NONE', #445, .T. ) ;
#436 = VERTEX_POINT ( 'NONE', #518 ) ;
#437 = FACE_OUTER_BOUND ( 'NONE', #5, .T. ) ;
#438 = ORIENTED_EDGE ( 'NONE', *, *, #47, .T. ) ;
#439 = ADVANCED_FACE ( 'NONE', ( #280 ), #350, .F. ) ;
#440 = DIRECTION ( 'NONE',  ( -0.000000000000000000, -1.000000000000000000, -0.000000000000000000 ) ) ;
#441 = VERTEX_POINT ( 'NONE', #249 ) ;
#442 = AXIS2_PLACEMENT_3D ( 'NONE', #52, #188, #63 ) ;
#443 = CARTESIAN_POINT ( 'NONE',  ( 0.000000000000000000, 0.1799999999999999933, 0.000000000000000000 ) ) ;
#444 = CIRCLE ( 'NONE', #462, 0.2999999999999999334 ) ;
#445 = EDGE_LOOP ( 'NONE', ( #138, #502 ) ) ;
#446 = DIRECTION ( 'NONE',  ( 0.000000000000000000, 0.000000000000000000, 1.000000000000000000 ) ) ;
#447 = ORIENTED_EDGE ( 'NONE', *, *, #431, .F. ) ;
#448 = DIRECTION ( 'NONE',  ( 0.000000000000000000, 0.000000000000000000, 1.000000000000000000 ) ) ;
#449 = VERTEX_POINT ( 'NONE', #128 ) ;
#450 = CC_DESIGN_PERSON_AND_ORGANIZATION_ASSIGNMENT ( #101, #301, ( #401 ) ) ;
#451 = FACE_BOUND ( 'NONE', #420, .T. ) ;
#452 = DIRECTION ( 'NONE',  ( 0.000000000000000000, 1.000000000000000000, 0.000000000000000000 ) ) ;
#453 = CC_DESIGN_SECURITY_CLASSIFICATION ( #180, ( #335 ) ) ;
#454 = DIRECTION ( 'NONE',  ( 0.000000000000000000, 0.000000000000000000, 1.000000000000000000 ) ) ;
#455 = DIRECTION ( 'NONE',  ( -0.000000000000000000, 1.000000000000000000, -0.000000000000000000 ) ) ;
#456 = CARTESIAN_POINT ( 'NONE',  ( 0.000000000000000000, 0.000000000000000000, 0.000000000000000000 ) ) ;
#457 = VERTEX_POINT ( 'NONE', #43 ) ;
#458 = LINE ( 'NONE', #173, #53 ) ;
#459 = CIRCLE ( 'NONE', #524, 0.1875000000000000278 ) ;
#460 = CARTESIAN_POINT ( 'NONE',  ( -0.2500000000000000000, 0.000000000000000000, -0.1658312395177699294 ) ) ;
#461 = VECTOR ( 'NONE', #324, 39.37007874015748143 ) ;
#462 = AXIS2_PLACEMENT_3D ( 'NONE', #67, #341, #464 ) ;
#463 = PERSON_AND_ORGANIZATION_ROLE ( 'design_supplier' ) ;
#464 = DIRECTION ( 'NONE',  ( -1.000000000000000000, 0.000000000000000000, 1.047444401652940007E-14 ) ) ;
#465 = ORIENTED_EDGE ( 'NONE', *, *, #283, .T. ) ;
#466 = EDGE_CURVE ( 'NONE', #233, #236, #64, .T. ) ;
#467 = DESIGN_CONTEXT ( 'detailed design', #148, 'design' ) ;
#468 = VERTEX_POINT ( 'NONE', #46 ) ;
#469 = COORDINATED_UNIVERSAL_TIME_OFFSET ( 8, 0, .BEHIND. ) ;
#470 = CARTESIAN_POINT ( 'NONE',  ( -0.1658312395177690413, 0.000000000000000000, 0.2500000000000005551 ) ) ;
#471 = AXIS2_PLACEMENT_3D ( 'NONE', #443, #156, #271 ) ;
#472 = APPROVAL_DATE_TIME ( #58, #162 ) ;
#473 = CARTESIAN_POINT ( 'NONE',  ( -0.1658312395177699294, 0.1799999999999999933, -0.2500000000000000000 ) ) ;
#474 = DIRECTION ( 'NONE',  ( -0.000000000000000000, -1.000000000000000000, -0.000000000000000000 ) ) ;
#475 = ADVANCED_FACE ( 'NONE', ( #451, #405 ), #164, .T. ) ;
#476 = CARTESIAN_POINT ( 'NONE',  ( -0.2499999999999994171, 0.1799999999999999933, 0.1658312395177708176 ) ) ;
#477 = ORIENTED_EDGE ( 'NONE', *, *, #137, .F. ) ;
#478 = ORIENTED_EDGE ( 'NONE', *, *, #501, .T. ) ;
#479 = AXIS2_PLACEMENT_3D ( 'NONE', #492, #36, #446 ) ;
#480 = LOCAL_TIME ( 19, 14, 34.00000000000000000, #68 ) ;
#481 = CARTESIAN_POINT ( 'NONE',  ( 0.1658312395177699294, 0.1799999999999999933, 0.2500000000000000000 ) ) ;
#482 = ORIENTED_EDGE ( 'NONE', *, *, #388, .F. ) ;
#483 = DIRECTION ( 'NONE',  ( 0.000000000000000000, 0.000000000000000000, 1.000000000000000000 ) ) ;
#484 = ORIENTED_EDGE ( 'NONE', *, *, #505, .T. ) ;
#485 = ORIENTED_EDGE ( 'NONE', *, *, #331, .T. ) ;
#486 = CLOSED_SHELL ( 'NONE', ( #145, #190, #294, #234, #297, #309, #351, #475, #241, #167, #320, #439, #92, #366, #72 ) ) ;
#487 = CARTESIAN_POINT ( 'NONE',  ( 0.000000000000000000, 0.5800000000000000711, 0.000000000000000000 ) ) ;
#488 = AXIS2_PLACEMENT_3D ( 'NONE', #508, #305, #21 ) ;
#489 = ORIENTED_EDGE ( 'NONE', *, *, #331, .F. ) ;
#490 = DIMENSIONAL_EXPONENTS ( 1.000000000000000000, 0.000000000000000000, 0.000000000000000000, 0.000000000000000000, 0.000000000000000000, 0.000000000000000000, 0.000000000000000000 ) ;
#491 = DIRECTION ( 'NONE',  ( -0.000000000000000000, 1.000000000000000000, -0.000000000000000000 ) ) ;
#492 = CARTESIAN_POINT ( 'NONE',  ( 0.000000000000000000, 0.1799999999999999933, 0.000000000000000000 ) ) ;
#493 = ORIENTED_EDGE ( 'NONE', *, *, #221, .F. ) ;
#494 = DIRECTION ( 'NONE',  ( 1.000000000000000000, 0.000000000000000000, 0.000000000000000000 ) ) ;
#495 = VECTOR ( 'NONE', #455, 39.37007874015748143 ) ;
#496 = EDGE_LOOP ( 'NONE', ( #372, #523, #223, #196 ) ) ;
#497 = UNCERTAINTY_MEASURE_WITH_UNIT (LENGTH_MEASURE( 1.000000000000000082E-05 ), #368, 'distance_accuracy_value', 'NONE');
#498 = DIRECTION ( 'NONE',  ( -0.000000000000000000, -1.000000000000000000, -0.000000000000000000 ) ) ;
#499 = CC_DESIGN_DATE_AND_TIME_ASSIGNMENT ( #187, #184, ( #180 ) ) ;
#500 = CARTESIAN_POINT ( 'NONE',  ( 0.06528789641134756516, 0.000000000000000000, 0.09842519685039370636 ) ) ;
#501 = EDGE_CURVE ( 'NONE', #520, #38, #322, .T. ) ;
#502 = ORIENTED_EDGE ( 'NONE', *, *, #129, .T. ) ;
#503 = MECHANICAL_CONTEXT ( 'NONE', #392, 'mechanical' ) ;
#504 = CARTESIAN_POINT ( 'NONE',  ( -0.06528789641134756516, 0.000000000000000000, 0.09842519685039370636 ) ) ;
#505 = EDGE_CURVE ( 'NONE', #321, #520, #458, .T. ) ;
#506 = FACE_OUTER_BOUND ( 'NONE', #427, .T. ) ;
#507 = ORIENTED_EDGE ( 'NONE', *, *, #147, .T. ) ;
#508 = CARTESIAN_POINT ( 'NONE',  ( 0.000000000000000000, 0.000000000000000000, 0.000000000000000000 ) ) ;
#509 = DIRECTION ( 'NONE',  ( 0.000000000000000000, 0.000000000000000000, -1.000000000000000000 ) ) ;
#510 = ORIENTED_EDGE ( 'NONE', *, *, #221, .T. ) ;
#511 = CC_DESIGN_PERSON_AND_ORGANIZATION_ASSIGNMENT ( #224, #175, ( #335 ) ) ;
#512 = CALENDAR_DATE ( 2026, 20, 3 ) ;
#513 = DIRECTION ( 'NONE',  ( 1.000000000000000000, 0.000000000000000000, -3.491481338843133355E-15 ) ) ;
#514 = CARTESIAN_POINT ( 'NONE',  ( 0.2500000000000000000, 0.000000000000000000, 0.1658312395177699294 ) ) ;
#515 = MANIFOLD_SOLID_BREP ( 'Cut-Extrude1', #486 ) ;
#516 = CIRCLE ( 'NONE', #304, 0.2999999999999999334 ) ;
#517 = EDGE_LOOP ( 'NONE', ( #399, #105 ) ) ;
#518 = CARTESIAN_POINT ( 'NONE',  ( 0.1658312395177672927, 0.1799999999999999933, -0.2500000000000017208 ) ) ;
#519 = PRODUCT_RELATED_PRODUCT_CATEGORY ( 'detail', '', ( #401 ) ) ;
#520 = VERTEX_POINT ( 'NONE', #200 ) ;
#521 = PLANE ( 'NONE',  #312 ) ;
#522 = EDGE_CURVE ( 'NONE', #8, #286, #6, .T. ) ;
#523 = ORIENTED_EDGE ( 'NONE', *, *, #87, .F. ) ;
#524 = AXIS2_PLACEMENT_3D ( 'NONE', #413, #45, #333 ) ;
#525 = DIRECTION ( 'NONE',  ( 0.000000000000000000, 1.000000000000000000, 0.000000000000000000 ) ) ;
#526 = FACE_OUTER_BOUND ( 'NONE', #496, .T. ) ;
#527 = ORIENTED_EDGE ( 'NONE', *, *, #386, .T. ) ;
#528 = DIRECTION ( 'NONE',  ( 0.000000000000000000, -0.000000000000000000, 1.000000000000000000 ) ) ;
#529 = ORIENTED_EDGE ( 'NONE', *, *, #259, .T. ) ;
#530 = EDGE_CURVE ( 'NONE', #93, #441, #265, .T. ) ;
#531 = DIRECTION ( 'NONE',  ( 0.000000000000000000, 0.000000000000000000, -1.000000000000000000 ) ) ;
#532 = EDGE_LOOP ( 'NONE', ( #243, #39, #489, #300 ) ) ;
ENDSEC;
END-ISO-10303-21;
