ISO-10303-21;
HEADER;
FILE_DESCRIPTION (( 'STEP AP203' ),
    '1' );
FILE_NAME ('Tattu 4S Battery (1).STEP',
    '2026-03-20T23:23:29',
    ( '' ),
    ( '' ),
    'SwSTEP 2.0',
    'SolidWorks 2025',
    '' );
FILE_SCHEMA (( 'CONFIG_CONTROL_DESIGN' ));
ENDSEC;

DATA;
#1 = CALENDAR_DATE ( 2026, 20, 3 ) ;
#2 = APPROVAL_DATE_TIME ( #64, #27 ) ;
#3 = UNCERTAINTY_MEASURE_WITH_UNIT (LENGTH_MEASURE( 1.000000000000000082E-05 ), #56, 'distance_accuracy_value', 'NONE');
#4 = COORDINATED_UNIVERSAL_TIME_OFFSET ( 8, 0, .BEHIND. ) ;
#5 = VECTOR ( 'NONE', #73, 39.37007874015748143 ) ;
#6 = VECTOR ( 'NONE', #12, 39.37007874015748143 ) ;
#7 = CARTESIAN_POINT ( 'NONE',  ( -1.159999999999999698, -0.6299999999999997824, 0.000000000000000000 ) ) ;
#8 = APPROVAL ( #167, 'UNSPECIFIED' ) ;
#9 = DIRECTION ( 'NONE',  ( 0.000000000000000000, 1.000000000000000000, 0.000000000000000000 ) ) ;
#10 = VERTEX_POINT ( 'NONE', #53 ) ;
#11 = ORIENTED_EDGE ( 'NONE', *, *, #118, .F. ) ;
#12 = DIRECTION ( 'NONE',  ( -1.000000000000000000, -0.000000000000000000, -0.000000000000000000 ) ) ;
#13 = LINE ( 'NONE', #200, #110 ) ;
#14 = DIRECTION ( 'NONE',  ( -1.000000000000000000, -0.000000000000000000, -0.000000000000000000 ) ) ;
#15 = CARTESIAN_POINT ( 'NONE',  ( -1.159999999999999698, -0.6299999999999997824, 1.179999999999999938 ) ) ;
#16 = CARTESIAN_POINT ( 'NONE',  ( -1.159999999999999698, -0.6299999999999997824, 1.179999999999999938 ) ) ;
#17 = AXIS2_PLACEMENT_3D ( 'NONE', #182, #181, #239 ) ;
#18 = APPROVAL_ROLE ( '' ) ;
#19 = PERSON_AND_ORGANIZATION_ROLE ( 'design_supplier' ) ;
#20 = EDGE_CURVE ( 'NONE', #155, #137, #194, .T. ) ;
#21 = LOCAL_TIME ( 16, 23, 29.00000000000000000, #76 ) ;
#22 = APPROVAL_DATE_TIME ( #61, #8 ) ;
#23 = PERSON_AND_ORGANIZATION_ROLE ( 'design_owner' ) ;
#24 = VECTOR ( 'NONE', #201, 39.37007874015748143 ) ;
#25 = ADVANCED_FACE ( 'NONE', ( #212 ), #81, .T. ) ;
#26 = EDGE_LOOP ( 'NONE', ( #30, #85, #68, #231 ) ) ;
#27 = APPROVAL ( #223, 'UNSPECIFIED' ) ;
#28 = FACE_OUTER_BOUND ( 'NONE', #26, .T. ) ;
#29 = CC_DESIGN_PERSON_AND_ORGANIZATION_ASSIGNMENT ( #187, #113, ( #60 ) ) ;
#30 = ORIENTED_EDGE ( 'NONE', *, *, #207, .T. ) ;
#31 = VECTOR ( 'NONE', #9, 39.37007874015748143 ) ;
#32 = LINE ( 'NONE', #121, #31 ) ;
#33 = CARTESIAN_POINT ( 'NONE',  ( -1.159999999999999698, -0.6299999999999997824, 1.179999999999999938 ) ) ;
#34 = CC_DESIGN_DATE_AND_TIME_ASSIGNMENT ( #59, #145, ( #60 ) ) ;
#35 = DIRECTION ( 'NONE',  ( 0.000000000000000000, -0.000000000000000000, 1.000000000000000000 ) ) ;
#36 = VECTOR ( 'NONE', #234, 39.37007874015748143 ) ;
#37 = CARTESIAN_POINT ( 'NONE',  ( -1.159999999999999698, -0.6299999999999997824, 1.179999999999999938 ) ) ;
#38 =( NAMED_UNIT ( * ) SI_UNIT ( $, .STERADIAN. ) SOLID_ANGLE_UNIT ( ) );
#39 = EDGE_CURVE ( 'NONE', #137, #210, #32, .T. ) ;
#40 = DESIGN_CONTEXT ( 'detailed design', #65, 'design' ) ;
#41 = CARTESIAN_POINT ( 'NONE',  ( -1.159999999999999698, -0.6299999999999997824, 0.000000000000000000 ) ) ;
#42 = AXIS2_PLACEMENT_3D ( 'NONE', #126, #159, #91 ) ;
#43 = CALENDAR_DATE ( 2026, 20, 3 ) ;
#44 = PERSON_AND_ORGANIZATION ( #225, #90 ) ;
#45 = PERSON_AND_ORGANIZATION ( #225, #90 ) ;
#46 = DIRECTION ( 'NONE',  ( 0.000000000000000000, 0.000000000000000000, 1.000000000000000000 ) ) ;
#47 = APPROVAL_STATUS ( 'not_yet_approved' ) ;
#48 = ORIENTED_EDGE ( 'NONE', *, *, #123, .T. ) ;
#49 = AXIS2_PLACEMENT_3D ( 'NONE', #58, #72, #237 ) ;
#50 = ORIENTED_EDGE ( 'NONE', *, *, #39, .F. ) ;
#51 = ORIENTED_EDGE ( 'NONE', *, *, #168, .T. ) ;
#52 = CARTESIAN_POINT ( 'NONE',  ( 0.000000000000000000, 0.000000000000000000, 0.000000000000000000 ) ) ;
#53 = CARTESIAN_POINT ( 'NONE',  ( -1.159999999999999698, 0.6300000000000001155, 0.000000000000000000 ) ) ;
#54 =( LENGTH_UNIT ( ) NAMED_UNIT ( * ) SI_UNIT ( $, .METRE. ) );
#55 = CC_DESIGN_APPROVAL ( #8, ( #67 ) ) ;
#56 =( CONVERSION_BASED_UNIT ( 'INCH', #139 ) LENGTH_UNIT ( ) NAMED_UNIT ( #166 ) );
#57 = PLANE ( 'NONE',  #17 ) ;
#58 = CARTESIAN_POINT ( 'NONE',  ( 0.000000000000000000, 0.000000000000000000, 1.179999999999999938 ) ) ;
#59 = DATE_AND_TIME ( #43, #96 ) ;
#60 = SECURITY_CLASSIFICATION ( '', '', #77 ) ;
#61 = DATE_AND_TIME ( #188, #21 ) ;
#62 = COORDINATED_UNIVERSAL_TIME_OFFSET ( 8, 0, .BEHIND. ) ;
#63 = COORDINATED_UNIVERSAL_TIME_OFFSET ( 8, 0, .BEHIND. ) ;
#64 = DATE_AND_TIME ( #130, #185 ) ;
#65 = APPLICATION_CONTEXT ( 'configuration controlled 3d designs of mechanical parts and assemblies' ) ;
#66 = ORIENTED_EDGE ( 'NONE', *, *, #104, .T. ) ;
#67 = PRODUCT_DEFINITION_FORMATION_WITH_SPECIFIED_SOURCE ( 'ANY', '', #158, .NOT_KNOWN. ) ;
#68 = ORIENTED_EDGE ( 'NONE', *, *, #224, .F. ) ;
#69 = EDGE_LOOP ( 'NONE', ( #48, #153, #71, #213 ) ) ;
#70 = ORIENTED_EDGE ( 'NONE', *, *, #207, .F. ) ;
#71 = ORIENTED_EDGE ( 'NONE', *, *, #104, .F. ) ;
#72 = DIRECTION ( 'NONE',  ( 0.000000000000000000, 0.000000000000000000, -1.000000000000000000 ) ) ;
#73 = DIRECTION ( 'NONE',  ( 1.000000000000000000, 0.000000000000000000, 0.000000000000000000 ) ) ;
#74 = DIRECTION ( 'NONE',  ( 0.000000000000000000, 1.000000000000000000, 0.000000000000000000 ) ) ;
#75 = APPLICATION_PROTOCOL_DEFINITION ( 'international standard', 'config_control_design', 1994, #140 ) ;
#76 = COORDINATED_UNIVERSAL_TIME_OFFSET ( 8, 0, .BEHIND. ) ;
#77 = SECURITY_CLASSIFICATION_LEVEL ( 'unclassified' ) ;
#78 = COORDINATED_UNIVERSAL_TIME_OFFSET ( 8, 0, .BEHIND. ) ;
#79 = CC_DESIGN_APPROVAL ( #27, ( #171 ) ) ;
#80 = LINE ( 'NONE', #179, #6 ) ;
#81 = PLANE ( 'NONE',  #170 ) ;
#82 = VECTOR ( 'NONE', #134, 39.37007874015748143 ) ;
#83 = CC_DESIGN_PERSON_AND_ORGANIZATION_ASSIGNMENT ( #220, #111, ( #171 ) ) ;
#84 = ORIENTED_EDGE ( 'NONE', *, *, #224, .T. ) ;
#85 = ORIENTED_EDGE ( 'NONE', *, *, #20, .F. ) ;
#86 = LINE ( 'NONE', #7, #133 ) ;
#87 =( GEOMETRIC_REPRESENTATION_CONTEXT ( 3 ) GLOBAL_UNCERTAINTY_ASSIGNED_CONTEXT ( ( #3 ) ) GLOBAL_UNIT_ASSIGNED_CONTEXT ( ( #56, #109, #38 ) ) REPRESENTATION_CONTEXT ( 'NONE', 'WORKASPACE' ) );
#88 = CARTESIAN_POINT ( 'NONE',  ( -1.159999999999999698, -0.6299999999999997824, 1.179999999999999938 ) ) ;
#89 = FACE_OUTER_BOUND ( 'NONE', #69, .T. ) ;
#90 = ORGANIZATION ( 'UNSPECIFIED', 'UNSPECIFIED', '' ) ;
#91 = DIRECTION ( 'NONE',  ( 0.000000000000000000, -0.000000000000000000, -1.000000000000000000 ) ) ;
#92 = DIRECTION ( 'NONE',  ( 0.000000000000000000, 0.000000000000000000, -1.000000000000000000 ) ) ;
#93 = CALENDAR_DATE ( 2026, 20, 3 ) ;
#94 = APPROVAL_DATE_TIME ( #112, #178 ) ;
#95 = DATE_TIME_ROLE ( 'creation_date' ) ;
#96 = LOCAL_TIME ( 16, 23, 29.00000000000000000, #63 ) ;
#97 = CARTESIAN_POINT ( 'NONE',  ( -1.159999999999999698, 0.6300000000000001155, 1.179999999999999938 ) ) ;
#98 = CC_DESIGN_PERSON_AND_ORGANIZATION_ASSIGNMENT ( #203, #23, ( #158 ) ) ;
#99 = ORIENTED_EDGE ( 'NONE', *, *, #204, .T. ) ;
#100 = EDGE_LOOP ( 'NONE', ( #174, #136, #66, #84 ) ) ;
#101 = EDGE_CURVE ( 'NONE', #117, #10, #196, .T. ) ;
#102 = VECTOR ( 'NONE', #105, 39.37007874015748143 ) ;
#103 = ORIENTED_EDGE ( 'NONE', *, *, #20, .T. ) ;
#104 = EDGE_CURVE ( 'NONE', #117, #175, #177, .T. ) ;
#105 = DIRECTION ( 'NONE',  ( -0.000000000000000000, -1.000000000000000000, -0.000000000000000000 ) ) ;
#106 = PLANE ( 'NONE',  #42 ) ;
#107 = PLANE ( 'NONE',  #161 ) ;
#108 = FACE_OUTER_BOUND ( 'NONE', #119, .T. ) ;
#109 =( NAMED_UNIT ( * ) PLANE_ANGLE_UNIT ( ) SI_UNIT ( $, .RADIAN. ) );
#110 = VECTOR ( 'NONE', #14, 39.37007874015748143 ) ;
#111 = PERSON_AND_ORGANIZATION_ROLE ( 'creator' ) ;
#112 = DATE_AND_TIME ( #93, #149 ) ;
#113 = PERSON_AND_ORGANIZATION_ROLE ( 'classification_officer' ) ;
#114 = CARTESIAN_POINT ( 'NONE',  ( 0.000000000000000000, 0.000000000000000000, 0.000000000000000000 ) ) ;
#115 = PERSON_AND_ORGANIZATION ( #225, #90 ) ;
#116 = ORIENTED_EDGE ( 'NONE', *, *, #123, .F. ) ;
#117 = VERTEX_POINT ( 'NONE', #233 ) ;
#118 = EDGE_CURVE ( 'NONE', #227, #117, #80, .T. ) ;
#119 = EDGE_LOOP ( 'NONE', ( #51, #135, #11, #99 ) ) ;
#120 = DIRECTION ( 'NONE',  ( 0.000000000000000000, 0.000000000000000000, -1.000000000000000000 ) ) ;
#121 = CARTESIAN_POINT ( 'NONE',  ( 1.160000000000000142, -0.6299999999999997824, 0.000000000000000000 ) ) ;
#122 = CARTESIAN_POINT ( 'NONE',  ( 1.160000000000000142, -0.6299999999999997824, 1.179999999999999938 ) ) ;
#123 = EDGE_CURVE ( 'NONE', #10, #208, #86, .T. ) ;
#124 = PRODUCT_DEFINITION_SHAPE ( 'NONE', 'NONE',  #171 ) ;
#125 = VECTOR ( 'NONE', #127, 39.37007874015748143 ) ;
#126 = CARTESIAN_POINT ( 'NONE',  ( -1.159999999999999698, 0.6300000000000001155, 1.179999999999999938 ) ) ;
#127 = DIRECTION ( 'NONE',  ( 1.000000000000000000, 0.000000000000000000, 0.000000000000000000 ) ) ;
#128 = CARTESIAN_POINT ( 'NONE',  ( -1.159999999999999698, -0.6299999999999997824, 1.179999999999999938 ) ) ;
#129 = CC_DESIGN_APPROVAL ( #178, ( #60 ) ) ;
#130 = CALENDAR_DATE ( 2026, 20, 3 ) ;
#131 = MECHANICAL_CONTEXT ( 'NONE', #140, 'mechanical' ) ;
#132 = CLOSED_SHELL ( 'NONE', ( #169, #199, #176, #147, #211, #25 ) ) ;
#133 = VECTOR ( 'NONE', #209, 39.37007874015748143 ) ;
#134 = DIRECTION ( 'NONE',  ( -0.000000000000000000, -0.000000000000000000, -1.000000000000000000 ) ) ;
#135 = ORIENTED_EDGE ( 'NONE', *, *, #101, .F. ) ;
#136 = ORIENTED_EDGE ( 'NONE', *, *, #118, .T. ) ;
#137 = VERTEX_POINT ( 'NONE', #193 ) ;
#138 = LINE ( 'NONE', #16, #5 ) ;
#139 = LENGTH_MEASURE_WITH_UNIT ( LENGTH_MEASURE( 0.02539999999999999897 ), #54 );
#140 = APPLICATION_CONTEXT ( 'configuration controlled 3d designs of mechanical parts and assemblies' ) ;
#141 = CARTESIAN_POINT ( 'NONE',  ( 1.160000000000000142, 0.6300000000000001155, 1.179999999999999938 ) ) ;
#142 = AXIS2_PLACEMENT_3D ( 'NONE', #15, #197, #92 ) ;
#143 = CARTESIAN_POINT ( 'NONE',  ( 1.160000000000000142, 0.6300000000000001155, 0.000000000000000000 ) ) ;
#144 = PERSON_AND_ORGANIZATION_ROLE ( 'creator' ) ;
#145 = DATE_TIME_ROLE ( 'classification_date' ) ;
#146 = PERSON_AND_ORGANIZATION ( #225, #90 ) ;
#147 = ADVANCED_FACE ( 'NONE', ( #28 ), #107, .F. ) ;
#148 = DIRECTION ( 'NONE',  ( 1.000000000000000000, 0.000000000000000000, 0.000000000000000000 ) ) ;
#149 = LOCAL_TIME ( 16, 23, 29.00000000000000000, #62 ) ;
#150 = EDGE_LOOP ( 'NONE', ( #50, #70, #116, #192 ) ) ;
#151 = EDGE_LOOP ( 'NONE', ( #228, #152, #189, #103 ) ) ;
#152 = ORIENTED_EDGE ( 'NONE', *, *, #204, .F. ) ;
#153 = ORIENTED_EDGE ( 'NONE', *, *, #230, .F. ) ;
#154 = CC_DESIGN_PERSON_AND_ORGANIZATION_ASSIGNMENT ( #115, #19, ( #67 ) ) ;
#155 = VERTEX_POINT ( 'NONE', #215 ) ;
#156 = AXIS2_PLACEMENT_3D ( 'NONE', #114, #46, #148 ) ;
#157 = FACE_OUTER_BOUND ( 'NONE', #151, .T. ) ;
#158 = PRODUCT ( 'Tattu 4S Battery (1)', 'Tattu 4S Battery (1)', '', ( #131 ) ) ;
#159 = DIRECTION ( 'NONE',  ( 0.000000000000000000, -1.000000000000000000, 0.000000000000000000 ) ) ;
#160 = LINE ( 'NONE', #236, #125 ) ;
#161 = AXIS2_PLACEMENT_3D ( 'NONE', #37, #74, #35 ) ;
#162 = PLANE ( 'NONE',  #142 ) ;
#163 = PERSON_AND_ORGANIZATION ( #225, #90 ) ;
#164 = LOCAL_TIME ( 16, 23, 29.00000000000000000, #4 ) ;
#165 = APPROVAL_ROLE ( '' ) ;
#166 = DIMENSIONAL_EXPONENTS ( 1.000000000000000000, 0.000000000000000000, 0.000000000000000000, 0.000000000000000000, 0.000000000000000000, 0.000000000000000000, 0.000000000000000000 ) ;
#167 = APPROVAL_STATUS ( 'not_yet_approved' ) ;
#168 = EDGE_CURVE ( 'NONE', #210, #10, #13, .T. ) ;
#169 = ADVANCED_FACE ( 'NONE', ( #157 ), #57, .F. ) ;
#170 = AXIS2_PLACEMENT_3D ( 'NONE', #52, #120, #195 ) ;
#171 = PRODUCT_DEFINITION ( 'UNKNOWN', '', #67, #40 ) ;
#172 = DIRECTION ( 'NONE',  ( -0.000000000000000000, -0.000000000000000000, -1.000000000000000000 ) ) ;
#173 = CC_DESIGN_PERSON_AND_ORGANIZATION_ASSIGNMENT ( #146, #144, ( #67 ) ) ;
#174 = ORIENTED_EDGE ( 'NONE', *, *, #216, .T. ) ;
#175 = VERTEX_POINT ( 'NONE', #88 ) ;
#176 = ADVANCED_FACE ( 'NONE', ( #89 ), #162, .F. ) ;
#177 = LINE ( 'NONE', #33, #102 ) ;
#178 = APPROVAL ( #47, 'UNSPECIFIED' ) ;
#179 = CARTESIAN_POINT ( 'NONE',  ( -1.159999999999999698, 0.6300000000000001155, 1.179999999999999938 ) ) ;
#180 = DIRECTION ( 'NONE',  ( 0.000000000000000000, 1.000000000000000000, 0.000000000000000000 ) ) ;
#181 = DIRECTION ( 'NONE',  ( -1.000000000000000000, 0.000000000000000000, 0.000000000000000000 ) ) ;
#182 = CARTESIAN_POINT ( 'NONE',  ( 1.160000000000000142, -0.6299999999999997824, 1.179999999999999938 ) ) ;
#183 = ADVANCED_BREP_SHAPE_REPRESENTATION ( 'Tattu 4S Battery (1)', ( #218, #156 ), #87 ) ;
#184 = LINE ( 'NONE', #122, #238 ) ;
#185 = LOCAL_TIME ( 16, 23, 29.00000000000000000, #78 ) ;
#186 = CARTESIAN_POINT ( 'NONE',  ( 1.160000000000000142, 0.6300000000000001155, 1.179999999999999938 ) ) ;
#187 = PERSON_AND_ORGANIZATION ( #225, #90 ) ;
#188 = CALENDAR_DATE ( 2026, 20, 3 ) ;
#189 = ORIENTED_EDGE ( 'NONE', *, *, #216, .F. ) ;
#190 = SHAPE_DEFINITION_REPRESENTATION ( #124, #183 ) ;
#191 = DATE_AND_TIME ( #1, #164 ) ;
#192 = ORIENTED_EDGE ( 'NONE', *, *, #168, .F. ) ;
#193 = CARTESIAN_POINT ( 'NONE',  ( 1.160000000000000142, -0.6299999999999997824, 0.000000000000000000 ) ) ;
#194 = LINE ( 'NONE', #229, #82 ) ;
#195 = DIRECTION ( 'NONE',  ( -1.000000000000000000, 0.000000000000000000, -0.000000000000000000 ) ) ;
#196 = LINE ( 'NONE', #97, #206 ) ;
#197 = DIRECTION ( 'NONE',  ( 1.000000000000000000, 0.000000000000000000, 0.000000000000000000 ) ) ;
#198 = APPROVAL_PERSON_ORGANIZATION ( #163, #8, #165 ) ;
#199 = ADVANCED_FACE ( 'NONE', ( #108 ), #106, .F. ) ;
#200 = CARTESIAN_POINT ( 'NONE',  ( -1.159999999999999698, 0.6300000000000001155, 0.000000000000000000 ) ) ;
#201 = DIRECTION ( 'NONE',  ( -0.000000000000000000, -0.000000000000000000, -1.000000000000000000 ) ) ;
#202 = APPROVAL_PERSON_ORGANIZATION ( #45, #27, #226 ) ;
#203 = PERSON_AND_ORGANIZATION ( #225, #90 ) ;
#204 = EDGE_CURVE ( 'NONE', #227, #210, #214, .T. ) ;
#205 = APPLICATION_PROTOCOL_DEFINITION ( 'international standard', 'config_control_design', 1994, #65 ) ;
#206 = VECTOR ( 'NONE', #172, 39.37007874015748143 ) ;
#207 = EDGE_CURVE ( 'NONE', #208, #137, #160, .T. ) ;
#208 = VERTEX_POINT ( 'NONE', #41 ) ;
#209 = DIRECTION ( 'NONE',  ( -0.000000000000000000, -1.000000000000000000, -0.000000000000000000 ) ) ;
#210 = VERTEX_POINT ( 'NONE', #143 ) ;
#211 = ADVANCED_FACE ( 'NONE', ( #240 ), #219, .F. ) ;
#212 = FACE_OUTER_BOUND ( 'NONE', #150, .T. ) ;
#213 = ORIENTED_EDGE ( 'NONE', *, *, #101, .T. ) ;
#214 = LINE ( 'NONE', #186, #36 ) ;
#215 = CARTESIAN_POINT ( 'NONE',  ( 1.160000000000000142, -0.6299999999999997824, 1.179999999999999938 ) ) ;
#216 = EDGE_CURVE ( 'NONE', #155, #227, #184, .T. ) ;
#217 = LINE ( 'NONE', #128, #24 ) ;
#218 = MANIFOLD_SOLID_BREP ( 'Boss-Extrude1', #132 ) ;
#219 = PLANE ( 'NONE',  #49 ) ;
#220 = PERSON_AND_ORGANIZATION ( #225, #90 ) ;
#221 = CC_DESIGN_SECURITY_CLASSIFICATION ( #60, ( #67 ) ) ;
#222 = CC_DESIGN_DATE_AND_TIME_ASSIGNMENT ( #191, #95, ( #171 ) ) ;
#223 = APPROVAL_STATUS ( 'not_yet_approved' ) ;
#224 = EDGE_CURVE ( 'NONE', #175, #155, #138, .T. ) ;
#225 = PERSON ( 'UNSPECIFIED', 'UNSPECIFIED', 'UNSPECIFIED', ('UNSPECIFIED'), ('UNSPECIFIED'), ('UNSPECIFIED') ) ;
#226 = APPROVAL_ROLE ( '' ) ;
#227 = VERTEX_POINT ( 'NONE', #141 ) ;
#228 = ORIENTED_EDGE ( 'NONE', *, *, #39, .T. ) ;
#229 = CARTESIAN_POINT ( 'NONE',  ( 1.160000000000000142, -0.6299999999999997824, 1.179999999999999938 ) ) ;
#230 = EDGE_CURVE ( 'NONE', #175, #208, #217, .T. ) ;
#231 = ORIENTED_EDGE ( 'NONE', *, *, #230, .T. ) ;
#232 = APPROVAL_PERSON_ORGANIZATION ( #44, #178, #18 ) ;
#233 = CARTESIAN_POINT ( 'NONE',  ( -1.159999999999999698, 0.6300000000000001155, 1.179999999999999938 ) ) ;
#234 = DIRECTION ( 'NONE',  ( -0.000000000000000000, -0.000000000000000000, -1.000000000000000000 ) ) ;
#235 = PRODUCT_RELATED_PRODUCT_CATEGORY ( 'detail', '', ( #158 ) ) ;
#236 = CARTESIAN_POINT ( 'NONE',  ( -1.159999999999999698, -0.6299999999999997824, 0.000000000000000000 ) ) ;
#237 = DIRECTION ( 'NONE',  ( -1.000000000000000000, 0.000000000000000000, -0.000000000000000000 ) ) ;
#238 = VECTOR ( 'NONE', #180, 39.37007874015748143 ) ;
#239 = DIRECTION ( 'NONE',  ( 0.000000000000000000, 0.000000000000000000, 1.000000000000000000 ) ) ;
#240 = FACE_OUTER_BOUND ( 'NONE', #100, .T. ) ;
ENDSEC;
END-ISO-10303-21;
