ISO-10303-21;
HEADER;
FILE_DESCRIPTION (( 'STEP AP203' ),
    '1' );
FILE_NAME ('Tattu 4S Battery (1)_Vf.STEP',
    '2026-03-21T02:17:53',
    ( '' ),
    ( '' ),
    'SwSTEP 2.0',
    'SolidWorks 2025',
    '' );
FILE_SCHEMA (( 'CONFIG_CONTROL_DESIGN' ));
ENDSEC;

DATA;
#1 = FACE_OUTER_BOUND ( 'NONE', #186, .T. ) ;
#2 = ORIENTED_EDGE ( 'NONE', *, *, #85, .T. ) ;
#3 = DATE_AND_TIME ( #19, #138 ) ;
#4 = ORIENTED_EDGE ( 'NONE', *, *, #167, .F. ) ;
#5 = ORIENTED_EDGE ( 'NONE', *, *, #157, .F. ) ;
#6 = PERSON_AND_ORGANIZATION ( #199, #8 ) ;
#7 = VERTEX_POINT ( 'NONE', #107 ) ;
#8 = ORGANIZATION ( 'UNSPECIFIED', 'UNSPECIFIED', '' ) ;
#9 = DIRECTION ( 'NONE',  ( 0.000000000000000000, 0.000000000000000000, 1.000000000000000000 ) ) ;
#10 = PERSON_AND_ORGANIZATION ( #199, #8 ) ;
#11 = VECTOR ( 'NONE', #12, 39.37007874015748143 ) ;
#12 = DIRECTION ( 'NONE',  ( 1.000000000000000000, 0.000000000000000000, 0.000000000000000000 ) ) ;
#13 = DIRECTION ( 'NONE',  ( -0.000000000000000000, -1.000000000000000000, -0.000000000000000000 ) ) ;
#14 = CC_DESIGN_APPROVAL ( #101, ( #82 ) ) ;
#15 = DIRECTION ( 'NONE',  ( 0.000000000000000000, 1.000000000000000000, 0.000000000000000000 ) ) ;
#16 = DIRECTION ( 'NONE',  ( -0.000000000000000000, -0.000000000000000000, -1.000000000000000000 ) ) ;
#17 = CC_DESIGN_DATE_AND_TIME_ASSIGNMENT ( #98, #136, ( #82 ) ) ;
#18 = VERTEX_POINT ( 'NONE', #202 ) ;
#19 = CALENDAR_DATE ( 2026, 20, 3 ) ;
#20 = ORIENTED_EDGE ( 'NONE', *, *, #157, .T. ) ;
#21 = VECTOR ( 'NONE', #105, 39.37007874015748143 ) ;
#22 = APPROVAL_ROLE ( '' ) ;
#23 = EDGE_CURVE ( 'NONE', #166, #95, #198, .T. ) ;
#24 = PRODUCT ( 'Tattu 4S Battery (1)_Vf', 'Tattu 4S Battery (1)_Vf', '', ( #62 ) ) ;
#25 = LOCAL_TIME ( 19, 17, 53.00000000000000000, #96 ) ;
#26 = COORDINATED_UNIVERSAL_TIME_OFFSET ( 8, 0, .BEHIND. ) ;
#27 = PERSON_AND_ORGANIZATION_ROLE ( 'creator' ) ;
#28 = AXIS2_PLACEMENT_3D ( 'NONE', #206, #9, #170 ) ;
#29 = ADVANCED_FACE ( 'NONE', ( #1 ), #239, .F. ) ;
#30 = PERSON_AND_ORGANIZATION_ROLE ( 'classification_officer' ) ;
#31 = VECTOR ( 'NONE', #197, 39.37007874015748143 ) ;
#32 = DIRECTION ( 'NONE',  ( -1.000000000000000000, 0.000000000000000000, -0.000000000000000000 ) ) ;
#33 = EDGE_CURVE ( 'NONE', #90, #152, #125, .T. ) ;
#34 = DIRECTION ( 'NONE',  ( 0.000000000000000000, -0.000000000000000000, -1.000000000000000000 ) ) ;
#35 = CARTESIAN_POINT ( 'NONE',  ( 1.160000000000000142, -0.6299999999999997824, 0.000000000000000000 ) ) ;
#36 = EDGE_CURVE ( 'NONE', #95, #205, #163, .T. ) ;
#37 = CARTESIAN_POINT ( 'NONE',  ( -1.159999999999999698, 0.6300000000000001155, 1.179999999999999938 ) ) ;
#38 = LINE ( 'NONE', #235, #113 ) ;
#39 = DATE_AND_TIME ( #108, #25 ) ;
#40 = ADVANCED_FACE ( 'NONE', ( #103 ), #69, .F. ) ;
#41 = ORIENTED_EDGE ( 'NONE', *, *, #167, .T. ) ;
#42 = VECTOR ( 'NONE', #230, 39.37007874015748143 ) ;
#43 = PERSON_AND_ORGANIZATION_ROLE ( 'design_owner' ) ;
#44 = ORIENTED_EDGE ( 'NONE', *, *, #48, .T. ) ;
#45 = CARTESIAN_POINT ( 'NONE',  ( -1.159999999999999698, -0.6299999999999997824, 1.179999999999999938 ) ) ;
#46 = LOCAL_TIME ( 19, 17, 53.00000000000000000, #211 ) ;
#47 =( CONVERSION_BASED_UNIT ( 'INCH', #74 ) LENGTH_UNIT ( ) NAMED_UNIT ( #161 ) );
#48 = EDGE_CURVE ( 'NONE', #95, #90, #162, .T. ) ;
#49 = AXIS2_PLACEMENT_3D ( 'NONE', #89, #102, #158 ) ;
#50 = APPROVAL_ROLE ( '' ) ;
#51 = CARTESIAN_POINT ( 'NONE',  ( -1.159999999999999698, 0.6300000000000001155, 1.179999999999999938 ) ) ;
#52 = AXIS2_PLACEMENT_3D ( 'NONE', #45, #132, #168 ) ;
#53 = LOCAL_TIME ( 19, 17, 53.00000000000000000, #151 ) ;
#54 = CARTESIAN_POINT ( 'NONE',  ( 1.160000000000000142, 0.6300000000000001155, 1.179999999999999938 ) ) ;
#55 = CARTESIAN_POINT ( 'NONE',  ( -1.159999999999999698, -0.6299999999999997824, 1.179999999999999938 ) ) ;
#56 = DIRECTION ( 'NONE',  ( 0.000000000000000000, 0.000000000000000000, -1.000000000000000000 ) ) ;
#57 = DIRECTION ( 'NONE',  ( -1.000000000000000000, 0.000000000000000000, 0.000000000000000000 ) ) ;
#58 = ORIENTED_EDGE ( 'NONE', *, *, #236, .F. ) ;
#59 = DATE_AND_TIME ( #226, #53 ) ;
#60 =( NAMED_UNIT ( * ) SI_UNIT ( $, .STERADIAN. ) SOLID_ANGLE_UNIT ( ) );
#61 = EDGE_CURVE ( 'NONE', #205, #152, #203, .T. ) ;
#62 = MECHANICAL_CONTEXT ( 'NONE', #189, 'mechanical' ) ;
#63 = VECTOR ( 'NONE', #182, 39.37007874015748143 ) ;
#64 = DATE_AND_TIME ( #193, #46 ) ;
#65 = LINE ( 'NONE', #66, #63 ) ;
#66 = CARTESIAN_POINT ( 'NONE',  ( -1.159999999999999698, 0.6300000000000001155, 0.000000000000000000 ) ) ;
#67 = LINE ( 'NONE', #175, #11 ) ;
#68 = EDGE_CURVE ( 'NONE', #7, #90, #65, .T. ) ;
#69 = PLANE ( 'NONE',  #232 ) ;
#70 = DIRECTION ( 'NONE',  ( -0.000000000000000000, -0.000000000000000000, -1.000000000000000000 ) ) ;
#71 = EDGE_LOOP ( 'NONE', ( #149, #109, #147, #41 ) ) ;
#72 = APPROVAL_ROLE ( '' ) ;
#73 = ORIENTED_EDGE ( 'NONE', *, *, #216, .F. ) ;
#74 = LENGTH_MEASURE_WITH_UNIT ( LENGTH_MEASURE( 0.02539999999999999897 ), #231 );
#75 = ORIENTED_EDGE ( 'NONE', *, *, #236, .T. ) ;
#76 = APPROVAL_STATUS ( 'not_yet_approved' ) ;
#77 = EDGE_LOOP ( 'NONE', ( #127, #224, #171, #44 ) ) ;
#78 = AXIS2_PLACEMENT_3D ( 'NONE', #55, #215, #56 ) ;
#79 = PLANE ( 'NONE',  #52 ) ;
#80 = CC_DESIGN_PERSON_AND_ORGANIZATION_ASSIGNMENT ( #172, #43, ( #24 ) ) ;
#81 = APPROVAL_PERSON_ORGANIZATION ( #148, #174, #72 ) ;
#82 = SECURITY_CLASSIFICATION ( '', '', #99 ) ;
#83 = PLANE ( 'NONE',  #49 ) ;
#84 = CARTESIAN_POINT ( 'NONE',  ( -1.159999999999999698, -0.6299999999999997824, 1.179999999999999938 ) ) ;
#85 = EDGE_CURVE ( 'NONE', #18, #207, #38, .T. ) ;
#86 = VECTOR ( 'NONE', #180, 39.37007874015748143 ) ;
#87 = CARTESIAN_POINT ( 'NONE',  ( 1.160000000000000142, -0.6299999999999997824, 1.179999999999999938 ) ) ;
#88 = CARTESIAN_POINT ( 'NONE',  ( -1.159999999999999698, -0.6299999999999997824, 0.000000000000000000 ) ) ;
#89 = CARTESIAN_POINT ( 'NONE',  ( 0.000000000000000000, 0.000000000000000000, 0.000000000000000000 ) ) ;
#90 = VERTEX_POINT ( 'NONE', #218 ) ;
#91 = VECTOR ( 'NONE', #15, 39.37007874015748143 ) ;
#92 = ORIENTED_EDGE ( 'NONE', *, *, #68, .F. ) ;
#93 = PRODUCT_DEFINITION ( 'UNKNOWN', '', #146, #185 ) ;
#94 =( NAMED_UNIT ( * ) PLANE_ANGLE_UNIT ( ) SI_UNIT ( $, .RADIAN. ) );
#95 = VERTEX_POINT ( 'NONE', #144 ) ;
#96 = COORDINATED_UNIVERSAL_TIME_OFFSET ( 8, 0, .BEHIND. ) ;
#97 = APPLICATION_PROTOCOL_DEFINITION ( 'international standard', 'config_control_design', 1994, #189 ) ;
#98 = DATE_AND_TIME ( #117, #134 ) ;
#99 = SECURITY_CLASSIFICATION_LEVEL ( 'unclassified' ) ;
#100 = SHAPE_DEFINITION_REPRESENTATION ( #190, #212 ) ;
#101 = APPROVAL ( #213, 'UNSPECIFIED' ) ;
#102 = DIRECTION ( 'NONE',  ( 0.000000000000000000, 0.000000000000000000, -1.000000000000000000 ) ) ;
#103 = FACE_OUTER_BOUND ( 'NONE', #71, .T. ) ;
#104 = LINE ( 'NONE', #179, #91 ) ;
#105 = DIRECTION ( 'NONE',  ( -1.000000000000000000, -0.000000000000000000, -0.000000000000000000 ) ) ;
#106 = ORIENTED_EDGE ( 'NONE', *, *, #68, .T. ) ;
#107 = CARTESIAN_POINT ( 'NONE',  ( 1.160000000000000142, 0.6300000000000001155, 0.000000000000000000 ) ) ;
#108 = CALENDAR_DATE ( 2026, 20, 3 ) ;
#109 = ORIENTED_EDGE ( 'NONE', *, *, #23, .T. ) ;
#110 = APPROVAL_STATUS ( 'not_yet_approved' ) ;
#111 = ADVANCED_FACE ( 'NONE', ( #140 ), #83, .T. ) ;
#112 = DIRECTION ( 'NONE',  ( 0.000000000000000000, 1.000000000000000000, 0.000000000000000000 ) ) ;
#113 = VECTOR ( 'NONE', #119, 39.37007874015748143 ) ;
#114 = COORDINATED_UNIVERSAL_TIME_OFFSET ( 8, 0, .BEHIND. ) ;
#115 = PERSON_AND_ORGANIZATION ( #199, #8 ) ;
#116 = CC_DESIGN_PERSON_AND_ORGANIZATION_ASSIGNMENT ( #115, #27, ( #146 ) ) ;
#117 = CALENDAR_DATE ( 2026, 20, 3 ) ;
#118 = APPROVAL_PERSON_ORGANIZATION ( #6, #164, #22 ) ;
#119 = DIRECTION ( 'NONE',  ( -0.000000000000000000, -0.000000000000000000, -1.000000000000000000 ) ) ;
#120 = ORIENTED_EDGE ( 'NONE', *, *, #61, .T. ) ;
#121 = CARTESIAN_POINT ( 'NONE',  ( -1.159999999999999698, -0.6299999999999997824, 0.000000000000000000 ) ) ;
#122 = CARTESIAN_POINT ( 'NONE',  ( -1.159999999999999698, -0.6299999999999997824, 1.179999999999999938 ) ) ;
#123 = LINE ( 'NONE', #191, #225 ) ;
#124 = CC_DESIGN_PERSON_AND_ORGANIZATION_ASSIGNMENT ( #128, #126, ( #93 ) ) ;
#125 = LINE ( 'NONE', #88, #194 ) ;
#126 = PERSON_AND_ORGANIZATION_ROLE ( 'creator' ) ;
#127 = ORIENTED_EDGE ( 'NONE', *, *, #33, .T. ) ;
#128 = PERSON_AND_ORGANIZATION ( #199, #8 ) ;
#129 = CC_DESIGN_DATE_AND_TIME_ASSIGNMENT ( #39, #184, ( #93 ) ) ;
#130 = EDGE_LOOP ( 'NONE', ( #106, #222, #204, #75 ) ) ;
#131 = APPROVAL_DATE_TIME ( #59, #164 ) ;
#132 = DIRECTION ( 'NONE',  ( 0.000000000000000000, 1.000000000000000000, 0.000000000000000000 ) ) ;
#133 = AXIS2_PLACEMENT_3D ( 'NONE', #87, #57, #200 ) ;
#134 = LOCAL_TIME ( 19, 17, 53.00000000000000000, #26 ) ;
#135 = ADVANCED_FACE ( 'NONE', ( #145 ), #165, .F. ) ;
#136 = DATE_TIME_ROLE ( 'classification_date' ) ;
#137 = PRODUCT_RELATED_PRODUCT_CATEGORY ( 'detail', '', ( #24 ) ) ;
#138 = LOCAL_TIME ( 19, 17, 53.00000000000000000, #114 ) ;
#139 = PERSON_AND_ORGANIZATION ( #199, #8 ) ;
#140 = FACE_OUTER_BOUND ( 'NONE', #150, .T. ) ;
#141 = VECTOR ( 'NONE', #70, 39.37007874015748143 ) ;
#142 = CARTESIAN_POINT ( 'NONE',  ( -1.159999999999999698, -0.6299999999999997824, 0.000000000000000000 ) ) ;
#143 = DIRECTION ( 'NONE',  ( 0.000000000000000000, 0.000000000000000000, -1.000000000000000000 ) ) ;
#144 = CARTESIAN_POINT ( 'NONE',  ( -1.159999999999999698, 0.6300000000000001155, 1.179999999999999938 ) ) ;
#145 = FACE_OUTER_BOUND ( 'NONE', #130, .T. ) ;
#146 = PRODUCT_DEFINITION_FORMATION_WITH_SPECIFIED_SOURCE ( 'ANY', '', #24, .NOT_KNOWN. ) ;
#147 = ORIENTED_EDGE ( 'NONE', *, *, #36, .T. ) ;
#148 = PERSON_AND_ORGANIZATION ( #199, #8 ) ;
#149 = ORIENTED_EDGE ( 'NONE', *, *, #216, .T. ) ;
#150 = EDGE_LOOP ( 'NONE', ( #229, #5, #169, #92 ) ) ;
#151 = COORDINATED_UNIVERSAL_TIME_OFFSET ( 8, 0, .BEHIND. ) ;
#152 = VERTEX_POINT ( 'NONE', #142 ) ;
#153 = FACE_OUTER_BOUND ( 'NONE', #188, .T. ) ;
#154 = APPLICATION_PROTOCOL_DEFINITION ( 'international standard', 'config_control_design', 1994, #227 ) ;
#155 = APPROVAL_DATE_TIME ( #64, #101 ) ;
#156 = AXIS2_PLACEMENT_3D ( 'NONE', #51, #214, #34 ) ;
#157 = EDGE_CURVE ( 'NONE', #152, #207, #221, .T. ) ;
#158 = DIRECTION ( 'NONE',  ( -1.000000000000000000, 0.000000000000000000, -0.000000000000000000 ) ) ;
#159 = CC_DESIGN_PERSON_AND_ORGANIZATION_ASSIGNMENT ( #139, #195, ( #146 ) ) ;
#160 = FACE_OUTER_BOUND ( 'NONE', #77, .T. ) ;
#161 = DIMENSIONAL_EXPONENTS ( 1.000000000000000000, 0.000000000000000000, 0.000000000000000000, 0.000000000000000000, 0.000000000000000000, 0.000000000000000000, 0.000000000000000000 ) ;
#162 = LINE ( 'NONE', #177, #201 ) ;
#163 = LINE ( 'NONE', #84, #86 ) ;
#164 = APPROVAL ( #76, 'UNSPECIFIED' ) ;
#165 = PLANE ( 'NONE',  #156 ) ;
#166 = VERTEX_POINT ( 'NONE', #54 ) ;
#167 = EDGE_CURVE ( 'NONE', #205, #18, #67, .T. ) ;
#168 = DIRECTION ( 'NONE',  ( 0.000000000000000000, -0.000000000000000000, 1.000000000000000000 ) ) ;
#169 = ORIENTED_EDGE ( 'NONE', *, *, #33, .F. ) ;
#170 = DIRECTION ( 'NONE',  ( 1.000000000000000000, 0.000000000000000000, 0.000000000000000000 ) ) ;
#171 = ORIENTED_EDGE ( 'NONE', *, *, #36, .F. ) ;
#172 = PERSON_AND_ORGANIZATION ( #199, #8 ) ;
#173 = ADVANCED_FACE ( 'NONE', ( #160 ), #219, .F. ) ;
#174 = APPROVAL ( #110, 'UNSPECIFIED' ) ;
#175 = CARTESIAN_POINT ( 'NONE',  ( -1.159999999999999698, -0.6299999999999997824, 1.179999999999999938 ) ) ;
#176 = MANIFOLD_SOLID_BREP ( 'Boss-Extrude1', #209 ) ;
#177 = CARTESIAN_POINT ( 'NONE',  ( -1.159999999999999698, 0.6300000000000001155, 1.179999999999999938 ) ) ;
#178 = CC_DESIGN_PERSON_AND_ORGANIZATION_ASSIGNMENT ( #192, #30, ( #82 ) ) ;
#179 = CARTESIAN_POINT ( 'NONE',  ( 1.160000000000000142, -0.6299999999999997824, 1.179999999999999938 ) ) ;
#180 = DIRECTION ( 'NONE',  ( -0.000000000000000000, -1.000000000000000000, -0.000000000000000000 ) ) ;
#181 = ORIENTED_EDGE ( 'NONE', *, *, #85, .F. ) ;
#182 = DIRECTION ( 'NONE',  ( -1.000000000000000000, -0.000000000000000000, -0.000000000000000000 ) ) ;
#183 = ORIENTED_EDGE ( 'NONE', *, *, #228, .T. ) ;
#184 = DATE_TIME_ROLE ( 'creation_date' ) ;
#185 = DESIGN_CONTEXT ( 'detailed design', #227, 'design' ) ;
#186 = EDGE_LOOP ( 'NONE', ( #183, #58, #73, #2 ) ) ;
#187 = LINE ( 'NONE', #208, #42 ) ;
#188 = EDGE_LOOP ( 'NONE', ( #20, #181, #4, #120 ) ) ;
#189 = APPLICATION_CONTEXT ( 'configuration controlled 3d designs of mechanical parts and assemblies' ) ;
#190 = PRODUCT_DEFINITION_SHAPE ( 'NONE', 'NONE',  #93 ) ;
#191 = CARTESIAN_POINT ( 'NONE',  ( 1.160000000000000142, -0.6299999999999997824, 0.000000000000000000 ) ) ;
#192 = PERSON_AND_ORGANIZATION ( #199, #8 ) ;
#193 = CALENDAR_DATE ( 2026, 20, 3 ) ;
#194 = VECTOR ( 'NONE', #13, 39.37007874015748143 ) ;
#195 = PERSON_AND_ORGANIZATION_ROLE ( 'design_supplier' ) ;
#196 = CC_DESIGN_APPROVAL ( #164, ( #146 ) ) ;
#197 = DIRECTION ( 'NONE',  ( 1.000000000000000000, 0.000000000000000000, 0.000000000000000000 ) ) ;
#198 = LINE ( 'NONE', #37, #21 ) ;
#199 = PERSON ( 'UNSPECIFIED', 'UNSPECIFIED', 'UNSPECIFIED', ('UNSPECIFIED'), ('UNSPECIFIED'), ('UNSPECIFIED') ) ;
#200 = DIRECTION ( 'NONE',  ( 0.000000000000000000, 0.000000000000000000, 1.000000000000000000 ) ) ;
#201 = VECTOR ( 'NONE', #16, 39.37007874015748143 ) ;
#202 = CARTESIAN_POINT ( 'NONE',  ( 1.160000000000000142, -0.6299999999999997824, 1.179999999999999938 ) ) ;
#203 = LINE ( 'NONE', #237, #141 ) ;
#204 = ORIENTED_EDGE ( 'NONE', *, *, #23, .F. ) ;
#205 = VERTEX_POINT ( 'NONE', #122 ) ;
#206 = CARTESIAN_POINT ( 'NONE',  ( 0.000000000000000000, 0.000000000000000000, 0.000000000000000000 ) ) ;
#207 = VERTEX_POINT ( 'NONE', #35 ) ;
#208 = CARTESIAN_POINT ( 'NONE',  ( 1.160000000000000142, 0.6300000000000001155, 1.179999999999999938 ) ) ;
#209 = CLOSED_SHELL ( 'NONE', ( #29, #135, #173, #233, #40, #111 ) ) ;
#210 = CC_DESIGN_SECURITY_CLASSIFICATION ( #82, ( #146 ) ) ;
#211 = COORDINATED_UNIVERSAL_TIME_OFFSET ( 8, 0, .BEHIND. ) ;
#212 = ADVANCED_BREP_SHAPE_REPRESENTATION ( 'Tattu 4S Battery (1)_Vf', ( #176, #28 ), #238 ) ;
#213 = APPROVAL_STATUS ( 'not_yet_approved' ) ;
#214 = DIRECTION ( 'NONE',  ( 0.000000000000000000, -1.000000000000000000, 0.000000000000000000 ) ) ;
#215 = DIRECTION ( 'NONE',  ( 1.000000000000000000, 0.000000000000000000, 0.000000000000000000 ) ) ;
#216 = EDGE_CURVE ( 'NONE', #18, #166, #104, .T. ) ;
#217 = UNCERTAINTY_MEASURE_WITH_UNIT (LENGTH_MEASURE( 1.000000000000000082E-05 ), #47, 'distance_accuracy_value', 'NONE');
#218 = CARTESIAN_POINT ( 'NONE',  ( -1.159999999999999698, 0.6300000000000001155, 0.000000000000000000 ) ) ;
#219 = PLANE ( 'NONE',  #78 ) ;
#220 = APPROVAL_PERSON_ORGANIZATION ( #10, #101, #50 ) ;
#221 = LINE ( 'NONE', #121, #31 ) ;
#222 = ORIENTED_EDGE ( 'NONE', *, *, #48, .F. ) ;
#223 = APPROVAL_DATE_TIME ( #3, #174 ) ;
#224 = ORIENTED_EDGE ( 'NONE', *, *, #61, .F. ) ;
#225 = VECTOR ( 'NONE', #112, 39.37007874015748143 ) ;
#226 = CALENDAR_DATE ( 2026, 20, 3 ) ;
#227 = APPLICATION_CONTEXT ( 'configuration controlled 3d designs of mechanical parts and assemblies' ) ;
#228 = EDGE_CURVE ( 'NONE', #207, #7, #123, .T. ) ;
#229 = ORIENTED_EDGE ( 'NONE', *, *, #228, .F. ) ;
#230 = DIRECTION ( 'NONE',  ( -0.000000000000000000, -0.000000000000000000, -1.000000000000000000 ) ) ;
#231 =( LENGTH_UNIT ( ) NAMED_UNIT ( * ) SI_UNIT ( $, .METRE. ) );
#232 = AXIS2_PLACEMENT_3D ( 'NONE', #240, #143, #32 ) ;
#233 = ADVANCED_FACE ( 'NONE', ( #153 ), #79, .F. ) ;
#234 = CC_DESIGN_APPROVAL ( #174, ( #93 ) ) ;
#235 = CARTESIAN_POINT ( 'NONE',  ( 1.160000000000000142, -0.6299999999999997824, 1.179999999999999938 ) ) ;
#236 = EDGE_CURVE ( 'NONE', #166, #7, #187, .T. ) ;
#237 = CARTESIAN_POINT ( 'NONE',  ( -1.159999999999999698, -0.6299999999999997824, 1.179999999999999938 ) ) ;
#238 =( GEOMETRIC_REPRESENTATION_CONTEXT ( 3 ) GLOBAL_UNCERTAINTY_ASSIGNED_CONTEXT ( ( #217 ) ) GLOBAL_UNIT_ASSIGNED_CONTEXT ( ( #47, #94, #60 ) ) REPRESENTATION_CONTEXT ( 'NONE', 'WORKASPACE' ) );
#239 = PLANE ( 'NONE',  #133 ) ;
#240 = CARTESIAN_POINT ( 'NONE',  ( 0.000000000000000000, 0.000000000000000000, 1.179999999999999938 ) ) ;
ENDSEC;
END-ISO-10303-21;
