ISO-10303-21;
HEADER;
FILE_DESCRIPTION (( 'STEP AP203' ),
    '1' );
FILE_NAME ('Weapon Shaft.STEP',
    '2026-03-20T23:27:38',
    ( '' ),
    ( '' ),
    'SwSTEP 2.0',
    'SolidWorks 2025',
    '' );
FILE_SCHEMA (( 'CONFIG_CONTROL_DESIGN' ));
ENDSEC;

DATA;
#1 = CARTESIAN_POINT ( 'NONE',  ( 0.000000000000000000, 0.000000000000000000, 0.000000000000000000 ) ) ;
#2 = VECTOR ( 'NONE', #416, 39.37007874015748143 ) ;
#3 = CARTESIAN_POINT ( 'NONE',  ( 0.000000000000000000, 0.000000000000000000, 0.000000000000000000 ) ) ;
#4 = EDGE_LOOP ( 'NONE', ( #69, #398, #38, #135 ) ) ;
#5 = DIRECTION ( 'NONE',  ( 0.000000000000000000, 1.000000000000000000, 0.000000000000000000 ) ) ;
#6 = DIRECTION ( 'NONE',  ( 0.000000000000000000, 0.000000000000000000, 1.000000000000000000 ) ) ;
#7 = ORIENTED_EDGE ( 'NONE', *, *, #163, .T. ) ;
#8 = AXIS2_PLACEMENT_3D ( 'NONE', #62, #5, #287 ) ;
#9 = VERTEX_POINT ( 'NONE', #424 ) ;
#10 = CARTESIAN_POINT ( 'NONE',  ( 0.7499999999999998890, 0.000000000000000000, 0.000000000000000000 ) ) ;
#11 = CARTESIAN_POINT ( 'NONE',  ( 0.7499999999999998890, 0.000000000000000000, 0.000000000000000000 ) ) ;
#12 = EDGE_CURVE ( 'NONE', #246, #103, #64, .T. ) ;
#13 = PLANE ( 'NONE',  #45 ) ;
#14 = EDGE_LOOP ( 'NONE', ( #362, #209 ) ) ;
#15 = EDGE_LOOP ( 'NONE', ( #368, #319, #168, #25, #97, #293, #324, #27 ) ) ;
#16 = EDGE_LOOP ( 'NONE', ( #468, #312, #327, #230 ) ) ;
#17 = FACE_OUTER_BOUND ( 'NONE', #182, .T. ) ;
#18 = ORIENTED_EDGE ( 'NONE', *, *, #221, .F. ) ;
#19 = CALENDAR_DATE ( 2026, 20, 3 ) ;
#20 = CIRCLE ( 'NONE', #200, 0.05900000000000011485 ) ;
#21 = VERTEX_POINT ( 'NONE', #244 ) ;
#22 = CC_DESIGN_APPROVAL ( #322, ( #358 ) ) ;
#23 = DIRECTION ( 'NONE',  ( 0.000000000000000000, 0.000000000000000000, 1.000000000000000000 ) ) ;
#24 = LINE ( 'NONE', #222, #420 ) ;
#25 = ORIENTED_EDGE ( 'NONE', *, *, #304, .F. ) ;
#26 = SECURITY_CLASSIFICATION_LEVEL ( 'unclassified' ) ;
#27 = ORIENTED_EDGE ( 'NONE', *, *, #12, .T. ) ;
#28 = DIRECTION ( 'NONE',  ( -0.000000000000000000, 1.000000000000000000, -0.000000000000000000 ) ) ;
#29 = EDGE_CURVE ( 'NONE', #21, #393, #54, .T. ) ;
#30 = CYLINDRICAL_SURFACE ( 'NONE', #270, 0.05900000000000011485 ) ;
#31 = DATE_TIME_ROLE ( 'creation_date' ) ;
#32 = LINE ( 'NONE', #269, #2 ) ;
#33 = VECTOR ( 'NONE', #100, 39.37007874015748143 ) ;
#34 = APPROVAL_PERSON_ORGANIZATION ( #301, #189, #181 ) ;
#35 = EDGE_CURVE ( 'NONE', #240, #357, #164, .T. ) ;
#36 = CARTESIAN_POINT ( 'NONE',  ( 2.000000000000000000, 0.000000000000000000, 0.000000000000000000 ) ) ;
#37 = CARTESIAN_POINT ( 'NONE',  ( -5.520553484345342928E-17, 0.000000000000000000, 0.000000000000000000 ) ) ;
#38 = ORIENTED_EDGE ( 'NONE', *, *, #53, .F. ) ;
#39 = CYLINDRICAL_SURFACE ( 'NONE', #344, 0.04921259842519634664 ) ;
#40 = AXIS2_PLACEMENT_3D ( 'NONE', #172, #431, #320 ) ;
#41 = ADVANCED_FACE ( 'NONE', ( #60 ), #132, .F. ) ;
#42 = CIRCLE ( 'NONE', #159, 0.2362204700000000157 ) ;
#43 = CC_DESIGN_PERSON_AND_ORGANIZATION_ASSIGNMENT ( #130, #101, ( #156 ) ) ;
#44 = VECTOR ( 'NONE', #177, 39.37007874015748143 ) ;
#45 = AXIS2_PLACEMENT_3D ( 'NONE', #425, #203, #440 ) ;
#46 = ORIENTED_EDGE ( 'NONE', *, *, #76, .F. ) ;
#47 = VERTEX_POINT ( 'NONE', #145 ) ;
#48 = DIRECTION ( 'NONE',  ( 1.000000000000000000, 0.000000000000000000, 0.000000000000000000 ) ) ;
#49 = CARTESIAN_POINT ( 'NONE',  ( 1.875000000000000000, -0.1599999999999999201, -0.05900000000000011485 ) ) ;
#50 = ORIENTED_EDGE ( 'NONE', *, *, #422, .F. ) ;
#51 = DIRECTION ( 'NONE',  ( 0.000000000000000000, 0.000000000000000000, -1.000000000000000000 ) ) ;
#52 = DIRECTION ( 'NONE',  ( 0.000000000000000000, 0.000000000000000000, 1.000000000000000000 ) ) ;
#53 = EDGE_CURVE ( 'NONE', #185, #246, #445, .T. ) ;
#54 = LINE ( 'NONE', #109, #326 ) ;
#55 = AXIS2_PLACEMENT_3D ( 'NONE', #37, #302, #271 ) ;
#56 = LOCAL_TIME ( 16, 27, 38.00000000000000000, #227 ) ;
#57 = DIRECTION ( 'NONE',  ( 1.000000000000000000, 0.000000000000000000, 0.000000000000000000 ) ) ;
#58 = VERTEX_POINT ( 'NONE', #443 ) ;
#59 = PLANE ( 'NONE',  #40 ) ;
#60 = FACE_OUTER_BOUND ( 'NONE', #105, .T. ) ;
#61 = EDGE_CURVE ( 'NONE', #175, #202, #24, .T. ) ;
#62 = CARTESIAN_POINT ( 'NONE',  ( 1.875000000000000000, 0.1599999999999999201, 0.000000000000000000 ) ) ;
#63 = ORIENTED_EDGE ( 'NONE', *, *, #414, .T. ) ;
#64 = LINE ( 'NONE', #237, #33 ) ;
#65 = PLANE ( 'NONE',  #248 ) ;
#66 = CARTESIAN_POINT ( 'NONE',  ( -5.520553484345342928E-17, 6.026805113914086249E-18, -0.04921259842519641603 ) ) ;
#67 = DIRECTION ( 'NONE',  ( 1.000000000000000000, 0.000000000000000000, 0.000000000000000000 ) ) ;
#68 = PERSON_AND_ORGANIZATION_ROLE ( 'design_supplier' ) ;
#69 = ORIENTED_EDGE ( 'NONE', *, *, #274, .T. ) ;
#70 = LOCAL_TIME ( 16, 27, 38.00000000000000000, #447 ) ;
#71 = DIRECTION ( 'NONE',  ( 0.000000000000000000, 0.000000000000000000, -1.000000000000000000 ) ) ;
#72 = DIRECTION ( 'NONE',  ( 0.000000000000000000, -0.000000000000000000, 1.000000000000000000 ) ) ;
#73 = DIRECTION ( 'NONE',  ( -1.000000000000000000, -0.000000000000000000, -0.000000000000000000 ) ) ;
#74 = PERSON_AND_ORGANIZATION_ROLE ( 'creator' ) ;
#75 = DIRECTION ( 'NONE',  ( 1.000000000000000000, 0.000000000000000000, 0.000000000000000000 ) ) ;
#76 = EDGE_CURVE ( 'NONE', #330, #316, #380, .T. ) ;
#77 = SHAPE_DEFINITION_REPRESENTATION ( #78, #260 ) ;
#78 = PRODUCT_DEFINITION_SHAPE ( 'NONE', 'NONE',  #358 ) ;
#79 = DIRECTION ( 'NONE',  ( -1.000000000000000000, -0.000000000000000000, -0.000000000000000000 ) ) ;
#80 = AXIS2_PLACEMENT_3D ( 'NONE', #11, #211, #479 ) ;
#81 = SECURITY_CLASSIFICATION ( '', '', #26 ) ;
#82 = EDGE_LOOP ( 'NONE', ( #353, #91 ) ) ;
#83 = CALENDAR_DATE ( 2026, 20, 3 ) ;
#84 = CARTESIAN_POINT ( 'NONE',  ( 1.750000000000000000, -0.1599999999999999201, 0.1737817897451310323 ) ) ;
#85 = ADVANCED_FACE ( 'NONE', ( #114, #255 ), #408, .F. ) ;
#86 = FACE_OUTER_BOUND ( 'NONE', #308, .T. ) ;
#87 = CC_DESIGN_PERSON_AND_ORGANIZATION_ASSIGNMENT ( #487, #74, ( #358 ) ) ;
#88 = AXIS2_PLACEMENT_3D ( 'NONE', #217, #294, #72 ) ;
#89 = EDGE_CURVE ( 'NONE', #107, #47, #108, .T. ) ;
#90 = CARTESIAN_POINT ( 'NONE',  ( 1.875000000000000000, -0.1599999999999999201, 0.000000000000000000 ) ) ;
#91 = ORIENTED_EDGE ( 'NONE', *, *, #53, .T. ) ;
#92 = VECTOR ( 'NONE', #385, 39.37007874015748143 ) ;
#93 = CARTESIAN_POINT ( 'NONE',  ( 0.7499999999999998890, 6.026805113914070071E-18, -0.04921259842519628419 ) ) ;
#94 = VECTOR ( 'NONE', #373, 39.37007874015748143 ) ;
#95 =( NAMED_UNIT ( * ) PLANE_ANGLE_UNIT ( ) SI_UNIT ( $, .RADIAN. ) );
#96 = DIRECTION ( 'NONE',  ( 1.000000000000000000, -0.000000000000000000, -0.000000000000000000 ) ) ;
#97 = ORIENTED_EDGE ( 'NONE', *, *, #458, .F. ) ;
#98 = CARTESIAN_POINT ( 'NONE',  ( 0.000000000000000000, 2.892866424785834137E-17, -0.2362204700000000157 ) ) ;
#99 = EDGE_CURVE ( 'NONE', #21, #328, #466, .T. ) ;
#100 = DIRECTION ( 'NONE',  ( 1.000000000000000000, -0.000000000000000000, -0.000000000000000000 ) ) ;
#101 = PERSON_AND_ORGANIZATION_ROLE ( 'design_owner' ) ;
#102 = PERSON ( 'UNSPECIFIED', 'UNSPECIFIED', 'UNSPECIFIED', ('UNSPECIFIED'), ('UNSPECIFIED'), ('UNSPECIFIED') ) ;
#103 = VERTEX_POINT ( 'NONE', #214 ) ;
#104 = FACE_BOUND ( 'NONE', #14, .T. ) ;
#105 = EDGE_LOOP ( 'NONE', ( #340, #437, #150 ) ) ;
#106 = APPROVAL_DATE_TIME ( #392, #322 ) ;
#107 = VERTEX_POINT ( 'NONE', #331 ) ;
#108 = LINE ( 'NONE', #397, #262 ) ;
#109 = CARTESIAN_POINT ( 'NONE',  ( 2.000000000000000000, -0.1599999999999999201, 0.1737817897451310323 ) ) ;
#110 = ORIENTED_EDGE ( 'NONE', *, *, #304, .T. ) ;
#111 = LINE ( 'NONE', #162, #438 ) ;
#112 = ORIENTED_EDGE ( 'NONE', *, *, #115, .F. ) ;
#113 = LINE ( 'NONE', #401, #179 ) ;
#114 = FACE_BOUND ( 'NONE', #116, .T. ) ;
#115 = EDGE_CURVE ( 'NONE', #9, #357, #383, .T. ) ;
#116 = EDGE_LOOP ( 'NONE', ( #193, #351 ) ) ;
#117 = DIRECTION ( 'NONE',  ( 0.000000000000000000, 0.000000000000000000, 1.000000000000000000 ) ) ;
#118 = ORIENTED_EDGE ( 'NONE', *, *, #414, .F. ) ;
#119 = VECTOR ( 'NONE', #290, 39.37007874015748143 ) ;
#120 = DIRECTION ( 'NONE',  ( -0.000000000000000000, 0.000000000000000000, 1.000000000000000000 ) ) ;
#121 = DIRECTION ( 'NONE',  ( 0.000000000000000000, 0.000000000000000000, -1.000000000000000000 ) ) ;
#122 = APPROVAL_DATE_TIME ( #256, #189 ) ;
#123 = FACE_OUTER_BOUND ( 'NONE', #16, .T. ) ;
#124 = DATE_AND_TIME ( #409, #315 ) ;
#125 = LINE ( 'NONE', #488, #218 ) ;
#126 =( GEOMETRIC_REPRESENTATION_CONTEXT ( 3 ) GLOBAL_UNCERTAINTY_ASSIGNED_CONTEXT ( ( #452 ) ) GLOBAL_UNIT_ASSIGNED_CONTEXT ( ( #205, #95, #361 ) ) REPRESENTATION_CONTEXT ( 'NONE', 'WORKASPACE' ) );
#127 = DIRECTION ( 'NONE',  ( 0.000000000000000000, 0.000000000000000000, -1.000000000000000000 ) ) ;
#128 = CC_DESIGN_PERSON_AND_ORGANIZATION_ASSIGNMENT ( #335, #157, ( #207 ) ) ;
#129 = EDGE_CURVE ( 'NONE', #328, #103, #297, .T. ) ;
#130 = PERSON_AND_ORGANIZATION ( #102, #457 ) ;
#131 = ORIENTED_EDGE ( 'NONE', *, *, #332, .F. ) ;
#132 = CONICAL_SURFACE ( 'NONE', #80, 0.04921259842519628419, 1.029744258676645874 ) ;
#133 = AXIS2_PLACEMENT_3D ( 'NONE', #341, #449, #120 ) ;
#134 = MECHANICAL_CONTEXT ( 'NONE', #481, 'mechanical' ) ;
#135 = ORIENTED_EDGE ( 'NONE', *, *, #474, .T. ) ;
#136 = CYLINDRICAL_SURFACE ( 'NONE', #273, 0.04921259842519634664 ) ;
#137 = ORIENTED_EDGE ( 'NONE', *, *, #336, .T. ) ;
#138 = DIRECTION ( 'NONE',  ( 1.000000000000000000, 0.000000000000000000, 0.000000000000000000 ) ) ;
#139 = EDGE_CURVE ( 'NONE', #47, #202, #20, .T. ) ;
#140 = DIRECTION ( 'NONE',  ( -0.000000000000000000, -0.000000000000000000, 1.000000000000000000 ) ) ;
#141 = DIRECTION ( 'NONE',  ( 1.000000000000000000, -0.000000000000000000, -0.000000000000000000 ) ) ;
#142 = LOCAL_TIME ( 16, 27, 38.00000000000000000, #291 ) ;
#143 = VERTEX_POINT ( 'NONE', #66 ) ;
#144 = CARTESIAN_POINT ( 'NONE',  ( 2.000000000000000000, 0.000000000000000000, 0.000000000000000000 ) ) ;
#145 = CARTESIAN_POINT ( 'NONE',  ( 1.875000000000000000, 0.1599999999999999201, 0.05900000000000011485 ) ) ;
#146 = ORIENTED_EDGE ( 'NONE', *, *, #300, .T. ) ;
#147 = DATE_AND_TIME ( #19, #56 ) ;
#148 = ORIENTED_EDGE ( 'NONE', *, *, #76, .T. ) ;
#149 = CARTESIAN_POINT ( 'NONE',  ( 2.000000000000000000, 0.000000000000000000, 0.000000000000000000 ) ) ;
#150 = ORIENTED_EDGE ( 'NONE', *, *, #257, .T. ) ;
#151 = CARTESIAN_POINT ( 'NONE',  ( 2.000000000000000000, 2.892866424785834137E-17, -0.2362204700000000157 ) ) ;
#152 = CC_DESIGN_APPROVAL ( #483, ( #81 ) ) ;
#153 = CYLINDRICAL_SURFACE ( 'NONE', #456, 0.05900000000000011485 ) ;
#154 = ORIENTED_EDGE ( 'NONE', *, *, #492, .T. ) ;
#155 = LINE ( 'NONE', #158, #201 ) ;
#156 = PRODUCT ( 'Weapon Shaft', 'Weapon Shaft', '', ( #134 ) ) ;
#157 = PERSON_AND_ORGANIZATION_ROLE ( 'creator' ) ;
#158 = CARTESIAN_POINT ( 'NONE',  ( 0.000000000000000000, 6.026805113914078545E-18, -0.04921259842519634664 ) ) ;
#159 = AXIS2_PLACEMENT_3D ( 'NONE', #215, #251, #51 ) ;
#160 = AXIS2_PLACEMENT_3D ( 'NONE', #470, #247, #254 ) ;
#161 = VECTOR ( 'NONE', #489, 39.37007874015748143 ) ;
#162 = CARTESIAN_POINT ( 'NONE',  ( 1.750000000000000000, 0.1599999999999999201, 0.1737817897451310323 ) ) ;
#163 = EDGE_CURVE ( 'NONE', #330, #393, #289, .T. ) ;
#164 = LINE ( 'NONE', #93, #92 ) ;
#165 = LINE ( 'NONE', #394, #44 ) ;
#166 = VERTEX_POINT ( 'NONE', #98 ) ;
#167 = AXIS2_PLACEMENT_3D ( 'NONE', #184, #67, #367 ) ;
#168 = ORIENTED_EDGE ( 'NONE', *, *, #422, .T. ) ;
#169 = AXIS2_PLACEMENT_3D ( 'NONE', #276, #57, #428 ) ;
#170 = APPLICATION_PROTOCOL_DEFINITION ( 'international standard', 'config_control_design', 1994, #197 ) ;
#171 = ORIENTED_EDGE ( 'NONE', *, *, #458, .T. ) ;
#172 = CARTESIAN_POINT ( 'NONE',  ( 1.750000000000000000, 0.1599999999999999201, 0.1737817897451310323 ) ) ;
#173 = DIRECTION ( 'NONE',  ( 0.000000000000000000, 0.000000000000000000, -1.000000000000000000 ) ) ;
#174 = ORIENTED_EDGE ( 'NONE', *, *, #163, .F. ) ;
#175 = VERTEX_POINT ( 'NONE', #49 ) ;
#176 = ORIENTED_EDGE ( 'NONE', *, *, #61, .F. ) ;
#177 = DIRECTION ( 'NONE',  ( -1.000000000000000000, -0.000000000000000000, -0.000000000000000000 ) ) ;
#178 = EDGE_LOOP ( 'NONE', ( #279, #258, #430, #283, #171, #146 ) ) ;
#179 = VECTOR ( 'NONE', #140, 39.37007874015748143 ) ;
#180 = AXIS2_PLACEMENT_3D ( 'NONE', #433, #284, #48 ) ;
#181 = APPROVAL_ROLE ( '' ) ;
#182 = EDGE_LOOP ( 'NONE', ( #213, #137, #242, #118 ) ) ;
#183 = DIRECTION ( 'NONE',  ( -1.000000000000000000, -0.000000000000000000, -0.000000000000000000 ) ) ;
#184 = CARTESIAN_POINT ( 'NONE',  ( 1.750000000000000000, 1.707404996040164561E-15, 0.000000000000000000 ) ) ;
#185 = VERTEX_POINT ( 'NONE', #427 ) ;
#186 = COORDINATED_UNIVERSAL_TIME_OFFSET ( 8, 0, .BEHIND. ) ;
#187 = FACE_OUTER_BOUND ( 'NONE', #82, .T. ) ;
#188 = DIRECTION ( 'NONE',  ( 0.000000000000000000, 0.000000000000000000, 1.000000000000000000 ) ) ;
#189 = APPROVAL ( #377, 'UNSPECIFIED' ) ;
#190 = DIRECTION ( 'NONE',  ( 0.000000000000000000, 0.000000000000000000, 1.000000000000000000 ) ) ;
#191 = APPROVAL_ROLE ( '' ) ;
#192 = DIRECTION ( 'NONE',  ( -1.000000000000000000, -0.000000000000000000, -0.000000000000000000 ) ) ;
#193 = ORIENTED_EDGE ( 'NONE', *, *, #448, .T. ) ;
#194 = DIRECTION ( 'NONE',  ( -1.000000000000000000, -0.000000000000000000, -0.000000000000000000 ) ) ;
#195 = AXIS2_PLACEMENT_3D ( 'NONE', #370, #298, #482 ) ;
#196 = CC_DESIGN_APPROVAL ( #189, ( #207 ) ) ;
#197 = APPLICATION_CONTEXT ( 'configuration controlled 3d designs of mechanical parts and assemblies' ) ;
#198 = ADVANCED_FACE ( 'NONE', ( #216 ), #243, .T. ) ;
#199 = EDGE_LOOP ( 'NONE', ( #310, #404, #321, #46, #7, #432, #110, #154 ) ) ;
#200 = AXIS2_PLACEMENT_3D ( 'NONE', #210, #323, #239 ) ;
#201 = VECTOR ( 'NONE', #79, 39.37007874015748143 ) ;
#202 = VERTEX_POINT ( 'NONE', #363 ) ;
#203 = DIRECTION ( 'NONE',  ( 1.000000000000000000, 0.000000000000000000, 0.000000000000000000 ) ) ;
#204 = CARTESIAN_POINT ( 'NONE',  ( -5.520553484345342928E-17, 0.000000000000000000, 0.000000000000000000 ) ) ;
#205 =( CONVERSION_BASED_UNIT ( 'INCH', #388 ) LENGTH_UNIT ( ) NAMED_UNIT ( #412 ) );
#206 = DIRECTION ( 'NONE',  ( -1.000000000000000000, -0.000000000000000000, -0.000000000000000000 ) ) ;
#207 = PRODUCT_DEFINITION_FORMATION_WITH_SPECIFIED_SOURCE ( 'ANY', '', #156, .NOT_KNOWN. ) ;
#208 = FACE_BOUND ( 'NONE', #219, .T. ) ;
#209 = ORIENTED_EDGE ( 'NONE', *, *, #465, .F. ) ;
#210 = CARTESIAN_POINT ( 'NONE',  ( 1.875000000000000000, 0.1599999999999999201, 0.000000000000000000 ) ) ;
#211 = DIRECTION ( 'NONE',  ( -1.000000000000000000, -0.000000000000000000, -0.000000000000000000 ) ) ;
#212 =( LENGTH_UNIT ( ) NAMED_UNIT ( * ) SI_UNIT ( $, .METRE. ) );
#213 = ORIENTED_EDGE ( 'NONE', *, *, #257, .F. ) ;
#214 = CARTESIAN_POINT ( 'NONE',  ( 2.000000000000000000, 0.1599999999999999201, -0.1737817897451310323 ) ) ;
#215 = CARTESIAN_POINT ( 'NONE',  ( 2.000000000000000000, 0.000000000000000000, 0.000000000000000000 ) ) ;
#216 = FACE_OUTER_BOUND ( 'NONE', #15, .T. ) ;
#217 = CARTESIAN_POINT ( 'NONE',  ( 1.750000000000000000, -0.1599999999999999201, 0.1737817897451310323 ) ) ;
#218 = VECTOR ( 'NONE', #121, 39.37007874015748143 ) ;
#219 = EDGE_LOOP ( 'NONE', ( #18, #131 ) ) ;
#220 = DIRECTION ( 'NONE',  ( 1.000000000000000000, 0.000000000000000000, 0.000000000000000000 ) ) ;
#221 = EDGE_CURVE ( 'NONE', #446, #143, #355, .T. ) ;
#222 = CARTESIAN_POINT ( 'NONE',  ( 1.875000000000000000, -0.2362204699999999880, -0.05900000000000011485 ) ) ;
#223 = DIRECTION ( 'NONE',  ( -1.000000000000000000, -0.000000000000000000, -0.000000000000000000 ) ) ;
#224 = ADVANCED_FACE ( 'NONE', ( #17 ), #136, .F. ) ;
#225 = PERSON_AND_ORGANIZATION_ROLE ( 'classification_officer' ) ;
#226 = DIRECTION ( 'NONE',  ( -0.000000000000000000, 1.000000000000000000, -0.000000000000000000 ) ) ;
#227 = COORDINATED_UNIVERSAL_TIME_OFFSET ( 8, 0, .BEHIND. ) ;
#228 = AXIS2_PLACEMENT_3D ( 'NONE', #379, #194, #451 ) ;
#229 = CARTESIAN_POINT ( 'NONE',  ( 1.750000000000000000, -0.1599999999999999201, -0.1737817897451310323 ) ) ;
#230 = ORIENTED_EDGE ( 'NONE', *, *, #89, .F. ) ;
#231 = FACE_OUTER_BOUND ( 'NONE', #275, .T. ) ;
#232 = VECTOR ( 'NONE', #141, 39.37007874015748143 ) ;
#233 = CIRCLE ( 'NONE', #366, 0.2362204700000000157 ) ;
#234 = EDGE_CURVE ( 'NONE', #328, #166, #165, .T. ) ;
#235 = AXIS2_PLACEMENT_3D ( 'NONE', #144, #435, #23 ) ;
#236 = APPROVAL_PERSON_ORGANIZATION ( #475, #322, #469 ) ;
#237 = CARTESIAN_POINT ( 'NONE',  ( 1.750000000000000000, 0.1599999999999999201, -0.1737817897451310323 ) ) ;
#238 = ADVANCED_FACE ( 'NONE', ( #104, #280 ), #59, .F. ) ;
#239 = DIRECTION ( 'NONE',  ( 0.000000000000000000, 0.000000000000000000, 1.000000000000000000 ) ) ;
#240 = VERTEX_POINT ( 'NONE', #473 ) ;
#241 = CARTESIAN_POINT ( 'NONE',  ( 2.000000000000000000, 0.000000000000000000, 0.000000000000000000 ) ) ;
#242 = ORIENTED_EDGE ( 'NONE', *, *, #332, .T. ) ;
#243 = CYLINDRICAL_SURFACE ( 'NONE', #235, 0.2362204700000000157 ) ;
#244 = CARTESIAN_POINT ( 'NONE',  ( 2.000000000000000000, -0.1599999999999999201, -0.1737817897451310323 ) ) ;
#245 = CALENDAR_DATE ( 2026, 20, 3 ) ;
#246 = VERTEX_POINT ( 'NONE', #325 ) ;
#247 = DIRECTION ( 'NONE',  ( 1.000000000000000000, 0.000000000000000000, 0.000000000000000000 ) ) ;
#248 = AXIS2_PLACEMENT_3D ( 'NONE', #241, #138, #173 ) ;
#249 = EDGE_CURVE ( 'NONE', #316, #330, #113, .T. ) ;
#250 = DIRECTION ( 'NONE',  ( -0.000000000000000000, -0.000000000000000000, 1.000000000000000000 ) ) ;
#251 = DIRECTION ( 'NONE',  ( 1.000000000000000000, 0.000000000000000000, 0.000000000000000000 ) ) ;
#252 = FACE_OUTER_BOUND ( 'NONE', #178, .T. ) ;
#253 = ORIENTED_EDGE ( 'NONE', *, *, #29, .T. ) ;
#254 = DIRECTION ( 'NONE',  ( 0.000000000000000000, 0.000000000000000000, -1.000000000000000000 ) ) ;
#255 = FACE_OUTER_BOUND ( 'NONE', #467, .T. ) ;
#256 = DATE_AND_TIME ( #263, #70 ) ;
#257 = EDGE_CURVE ( 'NONE', #357, #9, #365, .T. ) ;
#258 = ORIENTED_EDGE ( 'NONE', *, *, #99, .T. ) ;
#259 = DIRECTION ( 'NONE',  ( 0.000000000000000000, 0.000000000000000000, -1.000000000000000000 ) ) ;
#260 = ADVANCED_BREP_SHAPE_REPRESENTATION ( 'Weapon Shaft', ( #360, #180 ), #126 ) ;
#261 = CARTESIAN_POINT ( 'NONE',  ( 1.750000000000000000, 0.1599999999999999201, 0.1737817897451310323 ) ) ;
#262 = VECTOR ( 'NONE', #364, 39.37007874015748143 ) ;
#263 = CALENDAR_DATE ( 2026, 20, 3 ) ;
#264 = LINE ( 'NONE', #267, #161 ) ;
#265 = ADVANCED_FACE ( 'NONE', ( #231 ), #153, .F. ) ;
#266 = PERSON_AND_ORGANIZATION ( #102, #457 ) ;
#267 = CARTESIAN_POINT ( 'NONE',  ( 1.750000000000000000, -0.1599999999999999201, -0.1737817897451310323 ) ) ;
#268 = PERSON_AND_ORGANIZATION ( #102, #457 ) ;
#269 = CARTESIAN_POINT ( 'NONE',  ( 0.000000000000000000, 0.000000000000000000, 0.04921259842519634664 ) ) ;
#270 = AXIS2_PLACEMENT_3D ( 'NONE', #378, #226, #188 ) ;
#271 = DIRECTION ( 'NONE',  ( 0.000000000000000000, 0.000000000000000000, 1.000000000000000000 ) ) ;
#272 = DIRECTION ( 'NONE',  ( 0.000000000000000000, 0.000000000000000000, 1.000000000000000000 ) ) ;
#273 = AXIS2_PLACEMENT_3D ( 'NONE', #352, #206, #6 ) ;
#274 = EDGE_CURVE ( 'NONE', #58, #103, #125, .T. ) ;
#275 = EDGE_LOOP ( 'NONE', ( #176, #338, #286, #381 ) ) ;
#276 = CARTESIAN_POINT ( 'NONE',  ( 1.750000000000000000, -1.365923996832131609E-16, 0.000000000000000000 ) ) ;
#277 = CC_DESIGN_SECURITY_CLASSIFICATION ( #81, ( #207 ) ) ;
#278 = ORIENTED_EDGE ( 'NONE', *, *, #492, .F. ) ;
#279 = ORIENTED_EDGE ( 'NONE', *, *, #29, .F. ) ;
#280 = FACE_OUTER_BOUND ( 'NONE', #4, .T. ) ;
#281 = APPROVAL_STATUS ( 'not_yet_approved' ) ;
#282 = CARTESIAN_POINT ( 'NONE',  ( 0.7499999999999998890, 0.000000000000000000, 0.000000000000000000 ) ) ;
#283 = ORIENTED_EDGE ( 'NONE', *, *, #274, .F. ) ;
#284 = DIRECTION ( 'NONE',  ( 0.000000000000000000, 0.000000000000000000, 1.000000000000000000 ) ) ;
#285 = AXIS2_PLACEMENT_3D ( 'NONE', #90, #306, #272 ) ;
#286 = ORIENTED_EDGE ( 'NONE', *, *, #89, .T. ) ;
#287 = DIRECTION ( 'NONE',  ( 0.000000000000000000, 0.000000000000000000, 1.000000000000000000 ) ) ;
#288 = EDGE_LOOP ( 'NONE', ( #441, #400, #439 ) ) ;
#289 = LINE ( 'NONE', #386, #232 ) ;
#290 = DIRECTION ( 'NONE',  ( 0.000000000000000000, 0.000000000000000000, -1.000000000000000000 ) ) ;
#291 = COORDINATED_UNIVERSAL_TIME_OFFSET ( 8, 0, .BEHIND. ) ;
#292 = DIRECTION ( 'NONE',  ( 0.000000000000000000, 0.000000000000000000, 1.000000000000000000 ) ) ;
#293 = ORIENTED_EDGE ( 'NONE', *, *, #474, .F. ) ;
#294 = DIRECTION ( 'NONE',  ( 0.000000000000000000, 1.000000000000000000, 0.000000000000000000 ) ) ;
#295 = CC_DESIGN_PERSON_AND_ORGANIZATION_ASSIGNMENT ( #454, #225, ( #81 ) ) ;
#296 = PLANE ( 'NONE',  #133 ) ;
#297 = CIRCLE ( 'NONE', #160, 0.2362204700000000157 ) ;
#298 = DIRECTION ( 'NONE',  ( 0.000000000000000000, 1.000000000000000000, 0.000000000000000000 ) ) ;
#299 = CYLINDRICAL_SURFACE ( 'NONE', #384, 0.2362204700000000157 ) ;
#300 = EDGE_CURVE ( 'NONE', #477, #393, #343, .T. ) ;
#301 = PERSON_AND_ORGANIZATION ( #102, #457 ) ;
#302 = DIRECTION ( 'NONE',  ( -1.000000000000000000, -0.000000000000000000, -0.000000000000000000 ) ) ;
#303 = AXIS2_PLACEMENT_3D ( 'NONE', #455, #75, #259 ) ;
#304 = EDGE_CURVE ( 'NONE', #477, #395, #486, .T. ) ;
#305 = DIRECTION ( 'NONE',  ( -1.000000000000000000, -0.000000000000000000, -0.000000000000000000 ) ) ;
#306 = DIRECTION ( 'NONE',  ( 0.000000000000000000, 1.000000000000000000, 0.000000000000000000 ) ) ;
#307 = CONICAL_SURFACE ( 'NONE', #228, 0.04921259842519628419, 1.029744258676645874 ) ;
#308 = EDGE_LOOP ( 'NONE', ( #471, #112, #63, #460 ) ) ;
#309 = EDGE_CURVE ( 'NONE', #175, #107, #406, .T. ) ;
#310 = ORIENTED_EDGE ( 'NONE', *, *, #234, .F. ) ;
#311 = APPLICATION_PROTOCOL_DEFINITION ( 'international standard', 'config_control_design', 1994, #481 ) ;
#312 = ORIENTED_EDGE ( 'NONE', *, *, #61, .T. ) ;
#313 = VECTOR ( 'NONE', #73, 39.37007874015748143 ) ;
#314 = DIRECTION ( 'NONE',  ( 1.000000000000000000, 0.000000000000000000, 0.000000000000000000 ) ) ;
#315 = LOCAL_TIME ( 16, 27, 38.00000000000000000, #186 ) ;
#316 = VERTEX_POINT ( 'NONE', #229 ) ;
#317 = ORIENTED_EDGE ( 'NONE', *, *, #371, .T. ) ;
#318 = DIRECTION ( 'NONE',  ( 1.000000000000000000, 0.000000000000000000, 0.000000000000000000 ) ) ;
#319 = ORIENTED_EDGE ( 'NONE', *, *, #234, .T. ) ;
#320 = DIRECTION ( 'NONE',  ( 0.000000000000000000, 0.000000000000000000, -1.000000000000000000 ) ) ;
#321 = ORIENTED_EDGE ( 'NONE', *, *, #371, .F. ) ;
#322 = APPROVAL ( #281, 'UNSPECIFIED' ) ;
#323 = DIRECTION ( 'NONE',  ( 0.000000000000000000, 1.000000000000000000, 0.000000000000000000 ) ) ;
#324 = ORIENTED_EDGE ( 'NONE', *, *, #463, .F. ) ;
#325 = CARTESIAN_POINT ( 'NONE',  ( 1.750000000000000000, 0.1599999999999999201, -0.1737817897451310323 ) ) ;
#326 = VECTOR ( 'NONE', #250, 39.37007874015748143 ) ;
#327 = ORIENTED_EDGE ( 'NONE', *, *, #465, .T. ) ;
#328 = VERTEX_POINT ( 'NONE', #151 ) ;
#329 = DATE_AND_TIME ( #83, #142 ) ;
#330 = VERTEX_POINT ( 'NONE', #84 ) ;
#331 = CARTESIAN_POINT ( 'NONE',  ( 1.875000000000000000, -0.1599999999999999201, 0.05900000000000011485 ) ) ;
#332 = EDGE_CURVE ( 'NONE', #143, #446, #476, .T. ) ;
#333 = CARTESIAN_POINT ( 'NONE',  ( 2.000000000000000000, 0.000000000000000000, 0.2362204700000000157 ) ) ;
#334 = LINE ( 'NONE', #484, #94 ) ;
#335 = PERSON_AND_ORGANIZATION ( #102, #457 ) ;
#336 = EDGE_CURVE ( 'NONE', #357, #143, #155, .T. ) ;
#337 = CARTESIAN_POINT ( 'NONE',  ( 1.875000000000000000, -0.2362204699999999880, 0.000000000000000000 ) ) ;
#338 = ORIENTED_EDGE ( 'NONE', *, *, #448, .F. ) ;
#339 = FACE_OUTER_BOUND ( 'NONE', #199, .T. ) ;
#340 = ORIENTED_EDGE ( 'NONE', *, *, #411, .F. ) ;
#341 = CARTESIAN_POINT ( 'NONE',  ( 1.750000000000000000, -1.365923996832131609E-16, 0.000000000000000000 ) ) ;
#342 = ADVANCED_FACE ( 'NONE', ( #369 ), #307, .F. ) ;
#343 = CIRCLE ( 'NONE', #417, 0.2362204700000000157 ) ;
#344 = AXIS2_PLACEMENT_3D ( 'NONE', #346, #305, #459 ) ;
#345 = CC_DESIGN_DATE_AND_TIME_ASSIGNMENT ( #124, #372, ( #81 ) ) ;
#346 = CARTESIAN_POINT ( 'NONE',  ( 0.000000000000000000, 0.000000000000000000, 0.000000000000000000 ) ) ;
#347 = DESIGN_CONTEXT ( 'detailed design', #197, 'design' ) ;
#348 = AXIS2_PLACEMENT_3D ( 'NONE', #282, #223, #190 ) ;
#349 = APPROVAL_PERSON_ORGANIZATION ( #266, #483, #191 ) ;
#350 = ADVANCED_FACE ( 'NONE', ( #187 ), #296, .F. ) ;
#351 = ORIENTED_EDGE ( 'NONE', *, *, #309, .T. ) ;
#352 = CARTESIAN_POINT ( 'NONE',  ( 0.000000000000000000, 0.000000000000000000, 0.000000000000000000 ) ) ;
#353 = ORIENTED_EDGE ( 'NONE', *, *, #463, .T. ) ;
#354 = FACE_OUTER_BOUND ( 'NONE', #389, .T. ) ;
#355 = CIRCLE ( 'NONE', #485, 0.04921259842519641603 ) ;
#356 = CIRCLE ( 'NONE', #8, 0.05900000000000011485 ) ;
#357 = VERTEX_POINT ( 'NONE', #418 ) ;
#358 = PRODUCT_DEFINITION ( 'UNKNOWN', '', #207, #347 ) ;
#359 = DIRECTION ( 'NONE',  ( 0.000000000000000000, 0.000000000000000000, -1.000000000000000000 ) ) ;
#360 = MANIFOLD_SOLID_BREP ( 'M3x0.5 Tapped Hole1', #462 ) ;
#361 =( NAMED_UNIT ( * ) SI_UNIT ( $, .STERADIAN. ) SOLID_ANGLE_UNIT ( ) );
#362 = ORIENTED_EDGE ( 'NONE', *, *, #139, .F. ) ;
#363 = CARTESIAN_POINT ( 'NONE',  ( 1.875000000000000000, 0.1599999999999999201, -0.05900000000000011485 ) ) ;
#364 = DIRECTION ( 'NONE',  ( -0.000000000000000000, 1.000000000000000000, -0.000000000000000000 ) ) ;
#365 = CIRCLE ( 'NONE', #348, 0.04921259842519628419 ) ;
#366 = AXIS2_PLACEMENT_3D ( 'NONE', #1, #423, #127 ) ;
#367 = DIRECTION ( 'NONE',  ( 0.000000000000000000, 0.000000000000000000, -1.000000000000000000 ) ) ;
#368 = ORIENTED_EDGE ( 'NONE', *, *, #129, .F. ) ;
#369 = FACE_OUTER_BOUND ( 'NONE', #288, .T. ) ;
#370 = CARTESIAN_POINT ( 'NONE',  ( 1.875000000000000000, -0.1599999999999999201, 0.000000000000000000 ) ) ;
#371 = EDGE_CURVE ( 'NONE', #316, #21, #264, .T. ) ;
#372 = DATE_TIME_ROLE ( 'classification_date' ) ;
#373 = DIRECTION ( 'NONE',  ( -0.5150380749100615940, 0.000000000000000000, 0.8571673007021078927 ) ) ;
#374 = AXIS2_PLACEMENT_3D ( 'NONE', #149, #314, #478 ) ;
#375 = CIRCLE ( 'NONE', #285, 0.05900000000000011485 ) ;
#376 = CC_DESIGN_DATE_AND_TIME_ASSIGNMENT ( #147, #31, ( #358 ) ) ;
#377 = APPROVAL_STATUS ( 'not_yet_approved' ) ;
#378 = CARTESIAN_POINT ( 'NONE',  ( 1.875000000000000000, -0.2362204699999999880, 0.000000000000000000 ) ) ;
#379 = CARTESIAN_POINT ( 'NONE',  ( 0.7499999999999998890, 0.000000000000000000, 0.000000000000000000 ) ) ;
#380 = CIRCLE ( 'NONE', #167, 0.2362204700000011814 ) ;
#381 = ORIENTED_EDGE ( 'NONE', *, *, #139, .T. ) ;
#382 = ADVANCED_FACE ( 'NONE', ( #339 ), #299, .T. ) ;
#383 = CIRCLE ( 'NONE', #450, 0.04921259842519628419 ) ;
#384 = AXIS2_PLACEMENT_3D ( 'NONE', #444, #192, #117 ) ;
#385 = DIRECTION ( 'NONE',  ( -0.5150380749100615940, 1.049727191138613272E-16, -0.8571673007021078927 ) ) ;
#386 = CARTESIAN_POINT ( 'NONE',  ( 1.750000000000000000, -0.1599999999999999201, 0.1737817897451310323 ) ) ;
#387 = ADVANCED_FACE ( 'NONE', ( #413 ), #410, .T. ) ;
#388 = LENGTH_MEASURE_WITH_UNIT ( LENGTH_MEASURE( 0.02539999999999999897 ), #212 );
#389 = EDGE_LOOP ( 'NONE', ( #278, #50 ) ) ;
#390 = DIRECTION ( 'NONE',  ( -1.000000000000000000, -0.000000000000000000, -0.000000000000000000 ) ) ;
#391 = PRODUCT_RELATED_PRODUCT_CATEGORY ( 'detail', '', ( #156 ) ) ;
#392 = DATE_AND_TIME ( #245, #490 ) ;
#393 = VERTEX_POINT ( 'NONE', #453 ) ;
#394 = CARTESIAN_POINT ( 'NONE',  ( 2.000000000000000000, 2.892866424785834137E-17, -0.2362204700000000157 ) ) ;
#395 = VERTEX_POINT ( 'NONE', #405 ) ;
#396 = CARTESIAN_POINT ( 'NONE',  ( 2.000000000000000000, 0.000000000000000000, 0.2362204700000000157 ) ) ;
#397 = CARTESIAN_POINT ( 'NONE',  ( 1.875000000000000000, -0.2362204699999999880, 0.05900000000000011485 ) ) ;
#398 = ORIENTED_EDGE ( 'NONE', *, *, #12, .F. ) ;
#399 = ADVANCED_FACE ( 'NONE', ( #123 ), #30, .F. ) ;
#400 = ORIENTED_EDGE ( 'NONE', *, *, #411, .T. ) ;
#401 = CARTESIAN_POINT ( 'NONE',  ( 1.750000000000000000, -0.1599999999999999201, 0.1737817897451310323 ) ) ;
#402 = DIRECTION ( 'NONE',  ( -0.000000000000000000, 1.000000000000000000, -0.000000000000000000 ) ) ;
#403 = APPROVAL_STATUS ( 'not_yet_approved' ) ;
#404 = ORIENTED_EDGE ( 'NONE', *, *, #99, .F. ) ;
#405 = CARTESIAN_POINT ( 'NONE',  ( 0.000000000000000000, 0.000000000000000000, 0.2362204700000000157 ) ) ;
#406 = CIRCLE ( 'NONE', #195, 0.05900000000000011485 ) ;
#407 = AXIS2_PLACEMENT_3D ( 'NONE', #3, #318, #359 ) ;
#408 = PLANE ( 'NONE',  #88 ) ;
#409 = CALENDAR_DATE ( 2026, 20, 3 ) ;
#410 = PLANE ( 'NONE',  #303 ) ;
#411 = EDGE_CURVE ( 'NONE', #240, #9, #334, .T. ) ;
#412 = DIMENSIONAL_EXPONENTS ( 1.000000000000000000, 0.000000000000000000, 0.000000000000000000, 0.000000000000000000, 0.000000000000000000, 0.000000000000000000, 0.000000000000000000 ) ;
#413 = FACE_OUTER_BOUND ( 'NONE', #464, .T. ) ;
#414 = EDGE_CURVE ( 'NONE', #9, #446, #32, .T. ) ;
#415 = APPROVAL_DATE_TIME ( #329, #483 ) ;
#416 = DIRECTION ( 'NONE',  ( -1.000000000000000000, -0.000000000000000000, -0.000000000000000000 ) ) ;
#417 = AXIS2_PLACEMENT_3D ( 'NONE', #36, #220, #71 ) ;
#418 = CARTESIAN_POINT ( 'NONE',  ( 0.7499999999999998890, 6.026805113914070071E-18, -0.04921259842519628419 ) ) ;
#419 = ADVANCED_FACE ( 'NONE', ( #86 ), #39, .F. ) ;
#420 = VECTOR ( 'NONE', #402, 39.37007874015748143 ) ;
#421 = CIRCLE ( 'NONE', #407, 0.2362204700000000157 ) ;
#422 = EDGE_CURVE ( 'NONE', #166, #395, #233, .T. ) ;
#423 = DIRECTION ( 'NONE',  ( 1.000000000000000000, 0.000000000000000000, 0.000000000000000000 ) ) ;
#424 = CARTESIAN_POINT ( 'NONE',  ( 0.7499999999999998890, 0.000000000000000000, 0.04921259842519628419 ) ) ;
#425 = CARTESIAN_POINT ( 'NONE',  ( 0.000000000000000000, 0.000000000000000000, 0.000000000000000000 ) ) ;
#426 = CIRCLE ( 'NONE', #169, 0.2362204700000001267 ) ;
#427 = CARTESIAN_POINT ( 'NONE',  ( 1.750000000000000000, 0.1599999999999999201, 0.1737817897451310323 ) ) ;
#428 = DIRECTION ( 'NONE',  ( 0.000000000000000000, 0.000000000000000000, 1.000000000000000000 ) ) ;
#429 = CC_DESIGN_PERSON_AND_ORGANIZATION_ASSIGNMENT ( #268, #68, ( #207 ) ) ;
#430 = ORIENTED_EDGE ( 'NONE', *, *, #129, .T. ) ;
#431 = DIRECTION ( 'NONE',  ( 0.000000000000000000, -1.000000000000000000, -0.000000000000000000 ) ) ;
#432 = ORIENTED_EDGE ( 'NONE', *, *, #300, .F. ) ;
#433 = CARTESIAN_POINT ( 'NONE',  ( 0.000000000000000000, 0.000000000000000000, 0.000000000000000000 ) ) ;
#434 = ORIENTED_EDGE ( 'NONE', *, *, #249, .F. ) ;
#435 = DIRECTION ( 'NONE',  ( -1.000000000000000000, -0.000000000000000000, -0.000000000000000000 ) ) ;
#436 = COORDINATED_UNIVERSAL_TIME_OFFSET ( 8, 0, .BEHIND. ) ;
#437 = ORIENTED_EDGE ( 'NONE', *, *, #35, .T. ) ;
#438 = VECTOR ( 'NONE', #96, 39.37007874015748143 ) ;
#439 = ORIENTED_EDGE ( 'NONE', *, *, #115, .T. ) ;
#440 = DIRECTION ( 'NONE',  ( 0.000000000000000000, 0.000000000000000000, -1.000000000000000000 ) ) ;
#441 = ORIENTED_EDGE ( 'NONE', *, *, #35, .F. ) ;
#442 = DIRECTION ( 'NONE',  ( 0.000000000000000000, 0.000000000000000000, 1.000000000000000000 ) ) ;
#443 = CARTESIAN_POINT ( 'NONE',  ( 2.000000000000000000, 0.1599999999999999201, 0.1737817897451310323 ) ) ;
#444 = CARTESIAN_POINT ( 'NONE',  ( 2.000000000000000000, 0.000000000000000000, 0.000000000000000000 ) ) ;
#445 = LINE ( 'NONE', #261, #119 ) ;
#446 = VERTEX_POINT ( 'NONE', #491 ) ;
#447 = COORDINATED_UNIVERSAL_TIME_OFFSET ( 8, 0, .BEHIND. ) ;
#448 = EDGE_CURVE ( 'NONE', #107, #175, #375, .T. ) ;
#449 = DIRECTION ( 'NONE',  ( -1.000000000000000000, 0.000000000000000000, -0.000000000000000000 ) ) ;
#450 = AXIS2_PLACEMENT_3D ( 'NONE', #10, #183, #442 ) ;
#451 = DIRECTION ( 'NONE',  ( 0.000000000000000000, 0.000000000000000000, 1.000000000000000000 ) ) ;
#452 = UNCERTAINTY_MEASURE_WITH_UNIT (LENGTH_MEASURE( 1.000000000000000082E-05 ), #205, 'distance_accuracy_value', 'NONE');
#453 = CARTESIAN_POINT ( 'NONE',  ( 2.000000000000000000, -0.1599999999999999201, 0.1737817897451310323 ) ) ;
#454 = PERSON_AND_ORGANIZATION ( #102, #457 ) ;
#455 = CARTESIAN_POINT ( 'NONE',  ( 1.750000000000000000, 1.707404996040164561E-15, 0.000000000000000000 ) ) ;
#456 = AXIS2_PLACEMENT_3D ( 'NONE', #337, #28, #292 ) ;
#457 = ORGANIZATION ( 'UNSPECIFIED', 'UNSPECIFIED', '' ) ;
#458 = EDGE_CURVE ( 'NONE', #58, #477, #42, .T. ) ;
#459 = DIRECTION ( 'NONE',  ( 0.000000000000000000, 0.000000000000000000, 1.000000000000000000 ) ) ;
#460 = ORIENTED_EDGE ( 'NONE', *, *, #221, .T. ) ;
#461 = ADVANCED_FACE ( 'NONE', ( #208, #354 ), #13, .F. ) ;
#462 = CLOSED_SHELL ( 'NONE', ( #224, #41, #399, #198, #382, #480, #461, #238, #350, #85, #387, #265, #342, #419 ) ) ;
#463 = EDGE_CURVE ( 'NONE', #246, #185, #426, .T. ) ;
#464 = EDGE_LOOP ( 'NONE', ( #148, #472 ) ) ;
#465 = EDGE_CURVE ( 'NONE', #202, #47, #356, .T. ) ;
#466 = CIRCLE ( 'NONE', #374, 0.2362204700000000157 ) ;
#467 = EDGE_LOOP ( 'NONE', ( #253, #174, #434, #317 ) ) ;
#468 = ORIENTED_EDGE ( 'NONE', *, *, #309, .F. ) ;
#469 = APPROVAL_ROLE ( '' ) ;
#470 = CARTESIAN_POINT ( 'NONE',  ( 2.000000000000000000, 0.000000000000000000, 0.000000000000000000 ) ) ;
#471 = ORIENTED_EDGE ( 'NONE', *, *, #336, .F. ) ;
#472 = ORIENTED_EDGE ( 'NONE', *, *, #249, .T. ) ;
#473 = CARTESIAN_POINT ( 'NONE',  ( 0.7795699123537185304, -1.909395595751127695E-16, 0.000000000000000000 ) ) ;
#474 = EDGE_CURVE ( 'NONE', #185, #58, #111, .T. ) ;
#475 = PERSON_AND_ORGANIZATION ( #102, #457 ) ;
#476 = CIRCLE ( 'NONE', #55, 0.04921259842519641603 ) ;
#477 = VERTEX_POINT ( 'NONE', #396 ) ;
#478 = DIRECTION ( 'NONE',  ( 0.000000000000000000, 0.000000000000000000, -1.000000000000000000 ) ) ;
#479 = DIRECTION ( 'NONE',  ( 0.000000000000000000, 0.000000000000000000, 1.000000000000000000 ) ) ;
#480 = ADVANCED_FACE ( 'NONE', ( #252 ), #65, .T. ) ;
#481 = APPLICATION_CONTEXT ( 'configuration controlled 3d designs of mechanical parts and assemblies' ) ;
#482 = DIRECTION ( 'NONE',  ( 0.000000000000000000, 0.000000000000000000, 1.000000000000000000 ) ) ;
#483 = APPROVAL ( #403, 'UNSPECIFIED' ) ;
#484 = CARTESIAN_POINT ( 'NONE',  ( 0.7499999999999998890, 0.000000000000000000, 0.04921259842519628419 ) ) ;
#485 = AXIS2_PLACEMENT_3D ( 'NONE', #204, #390, #52 ) ;
#486 = LINE ( 'NONE', #333, #313 ) ;
#487 = PERSON_AND_ORGANIZATION ( #102, #457 ) ;
#488 = CARTESIAN_POINT ( 'NONE',  ( 2.000000000000000000, 0.1599999999999999201, 0.1737817897451310323 ) ) ;
#489 = DIRECTION ( 'NONE',  ( 1.000000000000000000, -0.000000000000000000, -0.000000000000000000 ) ) ;
#490 = LOCAL_TIME ( 16, 27, 38.00000000000000000, #436 ) ;
#491 = CARTESIAN_POINT ( 'NONE',  ( -5.520553484345342928E-17, 0.000000000000000000, 0.04921259842519641603 ) ) ;
#492 = EDGE_CURVE ( 'NONE', #395, #166, #421, .T. ) ;
ENDSEC;
END-ISO-10303-21;
