ISO-10303-21;
HEADER;
FILE_DESCRIPTION (( 'STEP AP203' ),
    '1' );
FILE_NAME ('Weapon Axal_Vf.STEP',
    '2026-03-21T02:14:04',
    ( '' ),
    ( '' ),
    'SwSTEP 2.0',
    'SolidWorks 2025',
    '' );
FILE_SCHEMA (( 'CONFIG_CONTROL_DESIGN' ));
ENDSEC;

DATA;
#1 = CARTESIAN_POINT ( 'NONE',  ( 1.859999999999997433, 0.1599999999999999201, 0.1737817897451310323 ) ) ;
#2 = CC_DESIGN_PERSON_AND_ORGANIZATION_ASSIGNMENT ( #162, #246, ( #272 ) ) ;
#3 = DIRECTION ( 'NONE',  ( -1.000000000000000000, -0.000000000000000000, -0.000000000000000000 ) ) ;
#4 = CONICAL_SURFACE ( 'NONE', #456, 0.04921259842519674910, 1.029744258676648538 ) ;
#5 = APPROVAL_ROLE ( '' ) ;
#6 = LINE ( 'NONE', #172, #134 ) ;
#7 = ORIENTED_EDGE ( 'NONE', *, *, #438, .F. ) ;
#8 = ADVANCED_BREP_SHAPE_REPRESENTATION ( 'Weapon Axal_Vf', ( #401, #466 ), #433 ) ;
#9 = DIRECTION ( 'NONE',  ( -1.000000000000000000, -3.771356811665853443E-16, 8.165942964201878922E-32 ) ) ;
#10 = ORIENTED_EDGE ( 'NONE', *, *, #242, .T. ) ;
#11 = EDGE_CURVE ( 'NONE', #346, #499, #397, .T. ) ;
#12 = CARTESIAN_POINT ( 'NONE',  ( 1.859999999999997433, 0.000000000000000000, 0.000000000000000000 ) ) ;
#13 = DIRECTION ( 'NONE',  ( 0.000000000000000000, 0.000000000000000000, -1.000000000000000000 ) ) ;
#14 = VERTEX_POINT ( 'NONE', #440 ) ;
#15 = VECTOR ( 'NONE', #3, 39.37007874015748143 ) ;
#16 = LINE ( 'NONE', #90, #79 ) ;
#17 = PRODUCT_DEFINITION ( 'UNKNOWN', '', #272, #286 ) ;
#18 = DIRECTION ( 'NONE',  ( 1.000000000000000000, -0.000000000000000000, -0.000000000000000000 ) ) ;
#19 = DIRECTION ( 'NONE',  ( 0.000000000000000000, 1.000000000000000000, 8.881784197001252323E-16 ) ) ;
#20 = VERTEX_POINT ( 'NONE', #202 ) ;
#21 = DIRECTION ( 'NONE',  ( -0.000000000000000000, -0.000000000000000000, 1.000000000000000000 ) ) ;
#22 = ORIENTED_EDGE ( 'NONE', *, *, #498, .F. ) ;
#23 = AXIS2_PLACEMENT_3D ( 'NONE', #157, #237, #41 ) ;
#24 = ORIENTED_EDGE ( 'NONE', *, *, #313, .T. ) ;
#25 = APPLICATION_PROTOCOL_DEFINITION ( 'international standard', 'config_control_design', 1994, #257 ) ;
#26 = ORIENTED_EDGE ( 'NONE', *, *, #153, .F. ) ;
#27 = ADVANCED_FACE ( 'NONE', ( #118 ), #282, .F. ) ;
#28 =( LENGTH_UNIT ( ) NAMED_UNIT ( * ) SI_UNIT ( $, .METRE. ) );
#29 = ORIENTED_EDGE ( 'NONE', *, *, #11, .T. ) ;
#30 = LENGTH_MEASURE_WITH_UNIT ( LENGTH_MEASURE( 0.02539999999999999897 ), #28 );
#31 = CONICAL_SURFACE ( 'NONE', #508, 0.04921259842519628419, 1.029744258676645874 ) ;
#32 = EDGE_LOOP ( 'NONE', ( #434, #56, #176, #233, #187, #22, #385, #104 ) ) ;
#33 = LINE ( 'NONE', #106, #210 ) ;
#34 = EDGE_CURVE ( 'NONE', #499, #453, #278, .T. ) ;
#35 = DIRECTION ( 'NONE',  ( 0.000000000000000000, 1.000000000000000000, 0.000000000000000000 ) ) ;
#36 = DIRECTION ( 'NONE',  ( -1.000000000000000000, -1.972152263052529514E-31, 8.165942964201880017E-32 ) ) ;
#37 = AXIS2_PLACEMENT_3D ( 'NONE', #484, #197, #402 ) ;
#38 = CIRCLE ( 'NONE', #167, 0.2362204700000000157 ) ;
#39 = FACE_OUTER_BOUND ( 'NONE', #469, .T. ) ;
#40 = DIRECTION ( 'NONE',  ( 1.000000000000000000, -0.000000000000000000, -0.000000000000000000 ) ) ;
#41 = DIRECTION ( 'NONE',  ( 0.000000000000000000, 0.000000000000000000, 1.000000000000000000 ) ) ;
#42 = PERSON_AND_ORGANIZATION ( #503, #110 ) ;
#43 = LINE ( 'NONE', #211, #185 ) ;
#44 = CIRCLE ( 'NONE', #343, 0.04921259842519628419 ) ;
#45 = SECURITY_CLASSIFICATION ( '', '', #209 ) ;
#46 = DATE_AND_TIME ( #446, #307 ) ;
#47 = EDGE_CURVE ( 'NONE', #226, #300, #89, .T. ) ;
#48 = CYLINDRICAL_SURFACE ( 'NONE', #465, 0.04921259842519658950 ) ;
#49 = FACE_OUTER_BOUND ( 'NONE', #149, .T. ) ;
#50 = DIRECTION ( 'NONE',  ( -1.000000000000000000, -1.972152263052529514E-31, 8.165942964201880017E-32 ) ) ;
#51 = DIRECTION ( 'NONE',  ( 0.000000000000000000, 1.000000000000000000, 0.000000000000000000 ) ) ;
#52 = ORIENTED_EDGE ( 'NONE', *, *, #390, .F. ) ;
#53 = EDGE_CURVE ( 'NONE', #179, #346, #521, .T. ) ;
#54 = CARTESIAN_POINT ( 'NONE',  ( 1.859999999999997433, 3.668203209277699833E-31, -1.518865391341547467E-31 ) ) ;
#55 = DIRECTION ( 'NONE',  ( 0.000000000000000000, 0.000000000000000000, -1.000000000000000000 ) ) ;
#56 = ORIENTED_EDGE ( 'NONE', *, *, #123, .T. ) ;
#57 = CARTESIAN_POINT ( 'NONE',  ( -0.2075000000000097600, -7.825565384207015735E-17, 1.694433165071969824E-32 ) ) ;
#58 = EDGE_LOOP ( 'NONE', ( #268, #481, #270, #194 ) ) ;
#59 = ORIENTED_EDGE ( 'NONE', *, *, #474, .F. ) ;
#60 = VECTOR ( 'NONE', #160, 39.37007874015748143 ) ;
#61 = AXIS2_PLACEMENT_3D ( 'NONE', #175, #86, #219 ) ;
#62 = LOCAL_TIME ( 19, 14, 4.000000000000000000, #83 ) ;
#63 = ORIENTED_EDGE ( 'NONE', *, *, #354, .F. ) ;
#64 = CARTESIAN_POINT ( 'NONE',  ( 0.5424999999999902123, -7.825565384207015735E-17, 1.694433165071969824E-32 ) ) ;
#65 = ORIENTED_EDGE ( 'NONE', *, *, #53, .F. ) ;
#66 = CARTESIAN_POINT ( 'NONE',  ( 1.859999999999997433, -0.1599999999999999201, 0.1737817897451310323 ) ) ;
#67 = CARTESIAN_POINT ( 'NONE',  ( 0.000000000000000000, 0.000000000000000000, 0.000000000000000000 ) ) ;
#68 = ORIENTED_EDGE ( 'NONE', *, *, #123, .F. ) ;
#69 = CC_DESIGN_PERSON_AND_ORGANIZATION_ASSIGNMENT ( #353, #435, ( #143 ) ) ;
#70 = CIRCLE ( 'NONE', #371, 0.2362204700000011814 ) ;
#71 = FACE_OUTER_BOUND ( 'NONE', #32, .T. ) ;
#72 = CONICAL_SURFACE ( 'NONE', #227, 0.04921259842519628419, 1.029744258676645874 ) ;
#73 = ORIENTED_EDGE ( 'NONE', *, *, #415, .F. ) ;
#74 = FACE_OUTER_BOUND ( 'NONE', #310, .T. ) ;
#75 = FACE_OUTER_BOUND ( 'NONE', #220, .T. ) ;
#76 = CARTESIAN_POINT ( 'NONE',  ( 1.359999999999997433, 3.668203209277699833E-31, -1.518865391341547467E-31 ) ) ;
#77 = CARTESIAN_POINT ( 'NONE',  ( 1.859999999999997433, 3.668203209277699833E-31, -1.518865391341547467E-31 ) ) ;
#78 = PERSON_AND_ORGANIZATION_ROLE ( 'classification_officer' ) ;
#79 = VECTOR ( 'NONE', #181, 39.37007874015748854 ) ;
#80 = LOCAL_TIME ( 19, 14, 4.000000000000000000, #279 ) ;
#81 = ORIENTED_EDGE ( 'NONE', *, *, #367, .T. ) ;
#82 = EDGE_CURVE ( 'NONE', #376, #114, #361, .T. ) ;
#83 = COORDINATED_UNIVERSAL_TIME_OFFSET ( 8, 0, .BEHIND. ) ;
#84 = CARTESIAN_POINT ( 'NONE',  ( -0.2075000000000098432, -7.222884872815606186E-17, -0.04921259842519641603 ) ) ;
#85 = DATE_AND_TIME ( #517, #392 ) ;
#86 = DIRECTION ( 'NONE',  ( 1.000000000000000000, -0.000000000000000000, -0.000000000000000000 ) ) ;
#87 = DATE_AND_TIME ( #164, #62 ) ;
#88 = EDGE_CURVE ( 'NONE', #292, #20, #165, .T. ) ;
#89 = CIRCLE ( 'NONE', #158, 0.04921259842519641603 ) ;
#90 = CARTESIAN_POINT ( 'NONE',  ( 1.359999999999997433, 6.026805113914494546E-18, 0.04921259842519674910 ) ) ;
#91 = EDGE_LOOP ( 'NONE', ( #511, #63, #422, #261 ) ) ;
#92 = LINE ( 'NONE', #66, #150 ) ;
#93 = DIRECTION ( 'NONE',  ( -1.000000000000000000, -3.771356811665853936E-16, 8.165942964201880017E-32 ) ) ;
#94 = VERTEX_POINT ( 'NONE', #285 ) ;
#95 = DIRECTION ( 'NONE',  ( 0.000000000000000000, 1.000000000000000000, 0.000000000000000000 ) ) ;
#96 = CARTESIAN_POINT ( 'NONE',  ( -0.2075000000000097600, -7.222884872815607418E-17, -0.04921259842519634664 ) ) ;
#97 = DIRECTION ( 'NONE',  ( 0.000000000000000000, 0.000000000000000000, -1.000000000000000000 ) ) ;
#98 = EDGE_CURVE ( 'NONE', #114, #376, #108, .T. ) ;
#99 = ORIENTED_EDGE ( 'NONE', *, *, #498, .T. ) ;
#100 = CARTESIAN_POINT ( 'NONE',  ( 1.859999999999997433, 7.500000000000000000, 1.157923368701052240E-15 ) ) ;
#101 = CLOSED_SHELL ( 'NONE', ( #273, #169, #27, #507, #520, #207, #180, #115, #130, #105, #252, #222, #145, #302, #384, #184 ) ) ;
#102 = ORIENTED_EDGE ( 'NONE', *, *, #88, .T. ) ;
#103 = LINE ( 'NONE', #420, #416 ) ;
#104 = ORIENTED_EDGE ( 'NONE', *, *, #296, .T. ) ;
#105 = ADVANCED_FACE ( 'NONE', ( #75 ), #163, .F. ) ;
#106 = CARTESIAN_POINT ( 'NONE',  ( 1.359999999999997433, 3.668203209277699833E-31, -0.04921259842519674910 ) ) ;
#107 = ORIENTED_EDGE ( 'NONE', *, *, #265, .T. ) ;
#108 = CIRCLE ( 'NONE', #472, 0.04921259842519641603 ) ;
#109 = AXIS2_PLACEMENT_3D ( 'NONE', #100, #331, #295 ) ;
#110 = ORGANIZATION ( 'UNSPECIFIED', 'UNSPECIFIED', '' ) ;
#111 = CARTESIAN_POINT ( 'NONE',  ( -0.2075000000000097600, 2.892866424785810101E-17, -0.2362204700000000157 ) ) ;
#112 = DIRECTION ( 'NONE',  ( 0.000000000000000000, 0.000000000000000000, 1.000000000000000000 ) ) ;
#113 = ORIENTED_EDGE ( 'NONE', *, *, #98, .F. ) ;
#114 = VERTEX_POINT ( 'NONE', #84 ) ;
#115 = ADVANCED_FACE ( 'NONE', ( #360 ), #244, .T. ) ;
#116 = DIRECTION ( 'NONE',  ( -1.000000000000000000, -0.000000000000000000, -0.000000000000000000 ) ) ;
#117 = VERTEX_POINT ( 'NONE', #395 ) ;
#118 = FACE_OUTER_BOUND ( 'NONE', #137, .T. ) ;
#119 = DIRECTION ( 'NONE',  ( 4.336808734755707912E-16, -1.000000000000000000, 0.000000000000000000 ) ) ;
#120 = APPROVAL_STATUS ( 'not_yet_approved' ) ;
#121 = CARTESIAN_POINT ( 'NONE',  ( 2.528132384768290830, 0.000000000000000000, 0.2362204700000000157 ) ) ;
#122 = DATE_AND_TIME ( #203, #80 ) ;
#123 = EDGE_CURVE ( 'NONE', #14, #429, #208, .T. ) ;
#124 = CARTESIAN_POINT ( 'NONE',  ( 1.859999999999997433, 0.000000000000000000, 0.000000000000000000 ) ) ;
#125 = VECTOR ( 'NONE', #129, 39.37007874015748143 ) ;
#126 = AXIS2_PLACEMENT_3D ( 'NONE', #54, #454, #341 ) ;
#127 = DIRECTION ( 'NONE',  ( -1.000000000000000000, 0.000000000000000000, -0.000000000000000000 ) ) ;
#128 = DATE_TIME_ROLE ( 'creation_date' ) ;
#129 = DIRECTION ( 'NONE',  ( 1.000000000000000000, -0.000000000000000000, -0.000000000000000000 ) ) ;
#130 = ADVANCED_FACE ( 'NONE', ( #439 ), #170, .F. ) ;
#131 = FACE_OUTER_BOUND ( 'NONE', #263, .T. ) ;
#132 = EDGE_LOOP ( 'NONE', ( #81, #10 ) ) ;
#133 = CARTESIAN_POINT ( 'NONE',  ( 1.609999999999997211, -0.1599999999999999201, 0.1737817897451310323 ) ) ;
#134 = VECTOR ( 'NONE', #330, 39.37007874015748143 ) ;
#135 = VERTEX_POINT ( 'NONE', #396 ) ;
#136 = CARTESIAN_POINT ( 'NONE',  ( 0.5720699123537088537, -2.691952134171829269E-16, 1.694433165071969824E-32 ) ) ;
#137 = EDGE_LOOP ( 'NONE', ( #506, #387, #368, #509 ) ) ;
#138 = CARTESIAN_POINT ( 'NONE',  ( 1.859999999999997433, -0.1599999999999999201, 0.1737817897451310323 ) ) ;
#139 = PLANE ( 'NONE',  #109 ) ;
#140 = FACE_OUTER_BOUND ( 'NONE', #174, .T. ) ;
#141 = CIRCLE ( 'NONE', #281, 0.2362204700000000157 ) ;
#142 = ORIENTED_EDGE ( 'NONE', *, *, #421, .T. ) ;
#143 = PRODUCT ( 'Weapon Axal_Vf', 'Weapon Axal_Vf', '', ( #267 ) ) ;
#144 = VERTEX_POINT ( 'NONE', #236 ) ;
#145 = ADVANCED_FACE ( 'NONE', ( #39 ), #31, .F. ) ;
#146 = DIRECTION ( 'NONE',  ( 0.000000000000000000, 0.000000000000000000, -1.000000000000000000 ) ) ;
#147 = ORIENTED_EDGE ( 'NONE', *, *, #443, .T. ) ;
#148 = CARTESIAN_POINT ( 'NONE',  ( 1.609999999999997211, 1.707404996040164955E-15, -1.518865391341547467E-31 ) ) ;
#149 = EDGE_LOOP ( 'NONE', ( #301, #430, #52, #471, #26, #345 ) ) ;
#150 = VECTOR ( 'NONE', #228, 39.37007874015748143 ) ;
#151 = DIRECTION ( 'NONE',  ( 0.5150380749100591515, 0.000000000000000000, -0.8571673007021091140 ) ) ;
#152 = LINE ( 'NONE', #309, #178 ) ;
#153 = EDGE_CURVE ( 'NONE', #499, #94, #432, .T. ) ;
#154 = VERTEX_POINT ( 'NONE', #340 ) ;
#155 = ORIENTED_EDGE ( 'NONE', *, *, #88, .F. ) ;
#156 =( CONVERSION_BASED_UNIT ( 'INCH', #30 ) LENGTH_UNIT ( ) NAMED_UNIT ( #276 ) );
#157 = CARTESIAN_POINT ( 'NONE',  ( 2.528132384768290830, 0.000000000000000000, 0.000000000000000000 ) ) ;
#158 = AXIS2_PLACEMENT_3D ( 'NONE', #77, #40, #477 ) ;
#159 = CARTESIAN_POINT ( 'NONE',  ( 2.528132384768290830, 0.000000000000000000, 0.000000000000000000 ) ) ;
#160 = DIRECTION ( 'NONE',  ( -1.000000000000000000, -0.000000000000000000, -0.000000000000000000 ) ) ;
#161 = EDGE_CURVE ( 'NONE', #135, #376, #214, .T. ) ;
#162 = PERSON_AND_ORGANIZATION ( #503, #110 ) ;
#163 = PLANE ( 'NONE',  #225 ) ;
#164 = CALENDAR_DATE ( 2026, 20, 3 ) ;
#165 = LINE ( 'NONE', #280, #333 ) ;
#166 = APPROVAL_ROLE ( '' ) ;
#167 = AXIS2_PLACEMENT_3D ( 'NONE', #201, #50, #95 ) ;
#168 = AXIS2_PLACEMENT_3D ( 'NONE', #256, #93, #418 ) ;
#169 = ADVANCED_FACE ( 'NONE', ( #216 ), #305, .F. ) ;
#170 = PLANE ( 'NONE',  #515 ) ;
#171 = APPROVAL_DATE_TIME ( #122, #245 ) ;
#172 = CARTESIAN_POINT ( 'NONE',  ( 1.609999999999997211, 0.1599999999999999201, -0.1737817897451310323 ) ) ;
#173 = CC_DESIGN_DATE_AND_TIME_ASSIGNMENT ( #46, #403, ( #45 ) ) ;
#174 = EDGE_LOOP ( 'NONE', ( #306, #65, #73, #332 ) ) ;
#175 = CARTESIAN_POINT ( 'NONE',  ( 1.859999999999997433, 3.668203209277699833E-31, -1.518865391341547467E-31 ) ) ;
#176 = ORIENTED_EDGE ( 'NONE', *, *, #367, .F. ) ;
#177 = PLANE ( 'NONE',  #448 ) ;
#178 = VECTOR ( 'NONE', #243, 39.37007874015748143 ) ;
#179 = VERTEX_POINT ( 'NONE', #133 ) ;
#180 = ADVANCED_FACE ( 'NONE', ( #412, #375 ), #177, .T. ) ;
#181 = DIRECTION ( 'NONE',  ( 0.5150380749100591515, 1.049727191138614751E-16, 0.8571673007021091140 ) ) ;
#182 = FACE_OUTER_BOUND ( 'NONE', #91, .T. ) ;
#183 = CARTESIAN_POINT ( 'NONE',  ( 1.609999999999997211, -1.365923996832127911E-16, -1.518865391341547467E-31 ) ) ;
#184 = ADVANCED_FACE ( 'NONE', ( #182 ), #291, .F. ) ;
#185 = VECTOR ( 'NONE', #374, 39.37007874015748143 ) ;
#186 = EDGE_LOOP ( 'NONE', ( #231, #147, #229 ) ) ;
#187 = ORIENTED_EDGE ( 'NONE', *, *, #153, .T. ) ;
#188 = DIRECTION ( 'NONE',  ( 0.000000000000000000, 0.000000000000000000, 1.000000000000000000 ) ) ;
#189 = EDGE_LOOP ( 'NONE', ( #68, #251, #389, #7, #391, #29, #338, #294 ) ) ;
#190 = EDGE_CURVE ( 'NONE', #275, #414, #16, .T. ) ;
#191 = DIRECTION ( 'NONE',  ( 0.000000000000000000, 0.000000000000000000, 1.000000000000000000 ) ) ;
#192 = EDGE_LOOP ( 'NONE', ( #382, #467, #502, #99 ) ) ;
#193 = CIRCLE ( 'NONE', #482, 0.2362204700000001267 ) ;
#194 = ORIENTED_EDGE ( 'NONE', *, *, #480, .F. ) ;
#195 = CARTESIAN_POINT ( 'NONE',  ( 1.609999999999997211, -0.1599999999999999201, -0.1737817897451310323 ) ) ;
#196 = CARTESIAN_POINT ( 'NONE',  ( 1.859999999999997433, 3.668203209277699833E-31, -0.04921259842519658950 ) ) ;
#197 = DIRECTION ( 'NONE',  ( -1.000000000000000000, -0.000000000000000000, -0.000000000000000000 ) ) ;
#198 =( NAMED_UNIT ( * ) SI_UNIT ( $, .STERADIAN. ) SOLID_ANGLE_UNIT ( ) );
#199 = CARTESIAN_POINT ( 'NONE',  ( 1.609999999999997211, 0.1599999999999999201, 0.1737817897451310323 ) ) ;
#200 = VECTOR ( 'NONE', #365, 39.37007874015748143 ) ;
#201 = CARTESIAN_POINT ( 'NONE',  ( 1.859999999999997433, 0.000000000000000000, 0.000000000000000000 ) ) ;
#202 = CARTESIAN_POINT ( 'NONE',  ( 0.5424999999999902123, -7.222884872815608651E-17, -0.04921259842519628419 ) ) ;
#203 = CALENDAR_DATE ( 2026, 20, 3 ) ;
#204 = LINE ( 'NONE', #1, #200 ) ;
#205 = VERTEX_POINT ( 'NONE', #452 ) ;
#206 = COORDINATED_UNIVERSAL_TIME_OFFSET ( 8, 0, .BEHIND. ) ;
#207 = ADVANCED_FACE ( 'NONE', ( #342, #49 ), #139, .T. ) ;
#208 = LINE ( 'NONE', #445, #15 ) ;
#209 = SECURITY_CLASSIFICATION_LEVEL ( 'unclassified' ) ;
#210 = VECTOR ( 'NONE', #151, 39.37007874015748854 ) ;
#211 = CARTESIAN_POINT ( 'NONE',  ( 1.609999999999997211, -0.1599999999999999201, -0.1737817897451310323 ) ) ;
#212 = UNCERTAINTY_MEASURE_WITH_UNIT (LENGTH_MEASURE( 1.000000000000000082E-05 ), #156, 'distance_accuracy_value', 'NONE');
#213 = DIRECTION ( 'NONE',  ( -1.000000000000000000, -0.000000000000000000, -0.000000000000000000 ) ) ;
#214 = LINE ( 'NONE', #250, #383 ) ;
#215 = DIRECTION ( 'NONE',  ( 1.000000000000000000, -0.000000000000000000, -0.000000000000000000 ) ) ;
#216 = FACE_OUTER_BOUND ( 'NONE', #266, .T. ) ;
#217 = FACE_OUTER_BOUND ( 'NONE', #186, .T. ) ;
#218 = CARTESIAN_POINT ( 'NONE',  ( 1.859999999999997433, 6.026805113914474517E-18, 0.04921259842519658950 ) ) ;
#219 = DIRECTION ( 'NONE',  ( 0.000000000000000000, 0.000000000000000000, -1.000000000000000000 ) ) ;
#220 = EDGE_LOOP ( 'NONE', ( #142, #381 ) ) ;
#221 = CARTESIAN_POINT ( 'NONE',  ( 1.359999999999997433, 3.668203209277699833E-31, -1.518865391341547467E-31 ) ) ;
#222 = ADVANCED_FACE ( 'NONE', ( #298 ), #491, .T. ) ;
#223 = APPLICATION_CONTEXT ( 'configuration controlled 3d designs of mechanical parts and assemblies' ) ;
#224 = ORIENTED_EDGE ( 'NONE', *, *, #513, .T. ) ;
#225 = AXIS2_PLACEMENT_3D ( 'NONE', #238, #127, #442 ) ;
#226 = VERTEX_POINT ( 'NONE', #337 ) ;
#227 = AXIS2_PLACEMENT_3D ( 'NONE', #308, #470, #191 ) ;
#228 = DIRECTION ( 'NONE',  ( -0.000000000000000000, -0.000000000000000000, 1.000000000000000000 ) ) ;
#229 = ORIENTED_EDGE ( 'NONE', *, *, #354, .T. ) ;
#230 = DIRECTION ( 'NONE',  ( -1.000000000000000000, -0.000000000000000000, -0.000000000000000000 ) ) ;
#231 = ORIENTED_EDGE ( 'NONE', *, *, #190, .F. ) ;
#232 = DIRECTION ( 'NONE',  ( 0.000000000000000000, 0.000000000000000000, 1.000000000000000000 ) ) ;
#233 = ORIENTED_EDGE ( 'NONE', *, *, #34, .F. ) ;
#234 = CIRCLE ( 'NONE', #351, 0.04921259842519674910 ) ;
#235 = DIRECTION ( 'NONE',  ( 1.000000000000000000, -0.000000000000000000, -0.000000000000000000 ) ) ;
#236 = CARTESIAN_POINT ( 'NONE',  ( 1.359999999999997433, 3.668203209277699833E-31, -0.04921259842519674910 ) ) ;
#237 = DIRECTION ( 'NONE',  ( -1.000000000000000000, -0.000000000000000000, -0.000000000000000000 ) ) ;
#238 = CARTESIAN_POINT ( 'NONE',  ( 1.609999999999997211, -1.365923996832127911E-16, -1.518865391341547467E-31 ) ) ;
#239 = VECTOR ( 'NONE', #213, 39.37007874015748143 ) ;
#240 = CC_DESIGN_APPROVAL ( #258, ( #17 ) ) ;
#241 = ORIENTED_EDGE ( 'NONE', *, *, #438, .T. ) ;
#242 = EDGE_CURVE ( 'NONE', #429, #453, #249, .T. ) ;
#243 = DIRECTION ( 'NONE',  ( -0.5150380749100615940, 0.000000000000000000, 0.8571673007021078927 ) ) ;
#244 = CYLINDRICAL_SURFACE ( 'NONE', #23, 0.2362204700000000157 ) ;
#245 = APPROVAL ( #321, 'UNSPECIFIED' ) ;
#246 = PERSON_AND_ORGANIZATION_ROLE ( 'design_supplier' ) ;
#247 = FACE_OUTER_BOUND ( 'NONE', #58, .T. ) ;
#248 = PERSON_AND_ORGANIZATION ( #503, #110 ) ;
#249 = CIRCLE ( 'NONE', #168, 0.2362204700000000157 ) ;
#250 = CARTESIAN_POINT ( 'NONE',  ( -0.2075000000000097600, -7.825565384207015735E-17, 0.04921259842519634664 ) ) ;
#251 = ORIENTED_EDGE ( 'NONE', *, *, #373, .T. ) ;
#252 = ADVANCED_FACE ( 'NONE', ( #140 ), #413, .F. ) ;
#253 = CARTESIAN_POINT ( 'NONE',  ( 1.859999999999997433, 3.668203209277699833E-31, -1.518865391341547467E-31 ) ) ;
#254 = LINE ( 'NONE', #218, #297 ) ;
#255 = CARTESIAN_POINT ( 'NONE',  ( -0.2075000000000097600, 0.000000000000000000, 0.000000000000000000 ) ) ;
#256 = CARTESIAN_POINT ( 'NONE',  ( -0.2075000000000097600, 0.000000000000000000, 0.000000000000000000 ) ) ;
#257 = APPLICATION_CONTEXT ( 'configuration controlled 3d designs of mechanical parts and assemblies' ) ;
#258 = APPROVAL ( #522, 'UNSPECIFIED' ) ;
#259 = CC_DESIGN_DATE_AND_TIME_ASSIGNMENT ( #87, #128, ( #17 ) ) ;
#260 = DIRECTION ( 'NONE',  ( 1.000000000000000000, 0.000000000000000000, 0.000000000000000000 ) ) ;
#261 = ORIENTED_EDGE ( 'NONE', *, *, #47, .T. ) ;
#262 = CIRCLE ( 'NONE', #362, 0.04921259842519674910 ) ;
#263 = EDGE_LOOP ( 'NONE', ( #461, #59, #419, #487 ) ) ;
#264 = CYLINDRICAL_SURFACE ( 'NONE', #426, 0.2362204700000000157 ) ;
#265 = EDGE_CURVE ( 'NONE', #414, #144, #262, .T. ) ;
#266 = EDGE_LOOP ( 'NONE', ( #394, #355, #107 ) ) ;
#267 = MECHANICAL_CONTEXT ( 'NONE', #257, 'mechanical' ) ;
#268 = ORIENTED_EDGE ( 'NONE', *, *, #265, .F. ) ;
#269 = CARTESIAN_POINT ( 'NONE',  ( 0.5424999999999902123, -7.825565384207015735E-17, 1.694433165071969824E-32 ) ) ;
#270 = ORIENTED_EDGE ( 'NONE', *, *, #398, .T. ) ;
#271 = VECTOR ( 'NONE', #464, 39.37007874015748143 ) ;
#272 = PRODUCT_DEFINITION_FORMATION_WITH_SPECIFIED_SOURCE ( 'ANY', '', #143, .NOT_KNOWN. ) ;
#273 = ADVANCED_FACE ( 'NONE', ( #247 ), #48, .F. ) ;
#274 = CARTESIAN_POINT ( 'NONE',  ( -0.2075000000000097600, 0.000000000000000000, 0.000000000000000000 ) ) ;
#275 = VERTEX_POINT ( 'NONE', #407 ) ;
#276 = DIMENSIONAL_EXPONENTS ( 1.000000000000000000, 0.000000000000000000, 0.000000000000000000, 0.000000000000000000, 0.000000000000000000, 0.000000000000000000, 0.000000000000000000 ) ;
#277 = CALENDAR_DATE ( 2026, 20, 3 ) ;
#278 = LINE ( 'NONE', #121, #60 ) ;
#279 = COORDINATED_UNIVERSAL_TIME_OFFSET ( 8, 0, .BEHIND. ) ;
#280 = CARTESIAN_POINT ( 'NONE',  ( 0.5424999999999902123, -7.222884872815608651E-17, -0.04921259842519628419 ) ) ;
#281 = AXIS2_PLACEMENT_3D ( 'NONE', #12, #335, #417 ) ;
#282 = CYLINDRICAL_SURFACE ( 'NONE', #37, 0.04921259842519634664 ) ;
#283 = APPROVAL_ROLE ( '' ) ;
#284 = LINE ( 'NONE', #96, #239 ) ;
#285 = CARTESIAN_POINT ( 'NONE',  ( 1.859999999999997433, 0.1599999999999999201, 0.1737817897451310323 ) ) ;
#286 = DESIGN_CONTEXT ( 'detailed design', #223, 'design' ) ;
#287 = DIRECTION ( 'NONE',  ( -1.000000000000000000, -0.000000000000000000, -0.000000000000000000 ) ) ;
#288 = EDGE_CURVE ( 'NONE', #352, #117, #43, .T. ) ;
#289 = AXIS2_PLACEMENT_3D ( 'NONE', #293, #51, #379 ) ;
#290 = APPROVAL_PERSON_ORGANIZATION ( #42, #258, #166 ) ;
#291 = CYLINDRICAL_SURFACE ( 'NONE', #61, 0.04921259842519658950 ) ;
#292 = VERTEX_POINT ( 'NONE', #136 ) ;
#293 = CARTESIAN_POINT ( 'NONE',  ( 1.609999999999997211, -0.1599999999999999201, 0.1737817897451310323 ) ) ;
#294 = ORIENTED_EDGE ( 'NONE', *, *, #242, .F. ) ;
#295 = DIRECTION ( 'NONE',  ( -2.775557561562895295E-16, 1.000000000000000000, 1.224646799147353207E-16 ) ) ;
#296 = EDGE_CURVE ( 'NONE', #154, #489, #6, .T. ) ;
#297 = VECTOR ( 'NONE', #18, 39.37007874015748143 ) ;
#298 = FACE_OUTER_BOUND ( 'NONE', #504, .T. ) ;
#299 = APPROVAL ( #120, 'UNSPECIFIED' ) ;
#300 = VERTEX_POINT ( 'NONE', #486 ) ;
#301 = ORIENTED_EDGE ( 'NONE', *, *, #347, .F. ) ;
#302 = ADVANCED_FACE ( 'NONE', ( #131 ), #501, .F. ) ;
#303 = DIRECTION ( 'NONE',  ( 0.000000000000000000, 0.000000000000000000, -1.000000000000000000 ) ) ;
#304 = DIRECTION ( 'NONE',  ( -1.000000000000000000, -0.000000000000000000, -0.000000000000000000 ) ) ;
#305 = CONICAL_SURFACE ( 'NONE', #425, 0.04921259842519674910, 1.029744258676648538 ) ;
#306 = ORIENTED_EDGE ( 'NONE', *, *, #347, .T. ) ;
#307 = LOCAL_TIME ( 19, 14, 4.000000000000000000, #319 ) ;
#308 = CARTESIAN_POINT ( 'NONE',  ( 0.5424999999999902123, -7.825565384207015735E-17, 1.694433165071969824E-32 ) ) ;
#309 = CARTESIAN_POINT ( 'NONE',  ( 0.5424999999999902123, -7.825565384207015735E-17, 0.04921259842519628419 ) ) ;
#310 = EDGE_LOOP ( 'NONE', ( #459, #102, #224 ) ) ;
#311 = LINE ( 'NONE', #349, #271 ) ;
#312 = EDGE_LOOP ( 'NONE', ( #492, #113 ) ) ;
#313 = EDGE_CURVE ( 'NONE', #292, #135, #152, .T. ) ;
#314 = DIRECTION ( 'NONE',  ( 1.000000000000000000, -0.000000000000000000, -0.000000000000000000 ) ) ;
#315 = CARTESIAN_POINT ( 'NONE',  ( 1.859999999999997433, 3.804208518991094095E-63, 0.2362204700000000157 ) ) ;
#316 = DIRECTION ( 'NONE',  ( 0.000000000000000000, 0.000000000000000000, -1.000000000000000000 ) ) ;
#317 = PRODUCT_RELATED_PRODUCT_CATEGORY ( 'detail', '', ( #143 ) ) ;
#318 = AXIS2_PLACEMENT_3D ( 'NONE', #269, #230, #359 ) ;
#319 = COORDINATED_UNIVERSAL_TIME_OFFSET ( 8, 0, .BEHIND. ) ;
#320 = EDGE_LOOP ( 'NONE', ( #427, #411 ) ) ;
#321 = APPROVAL_STATUS ( 'not_yet_approved' ) ;
#322 = DIRECTION ( 'NONE',  ( 0.000000000000000000, 0.000000000000000000, 1.000000000000000000 ) ) ;
#323 = PERSON_AND_ORGANIZATION ( #503, #110 ) ;
#324 = EDGE_CURVE ( 'NONE', #94, #489, #204, .T. ) ;
#325 = DIRECTION ( 'NONE',  ( 0.000000000000000000, 0.000000000000000000, 1.000000000000000000 ) ) ;
#326 = AXIS2_PLACEMENT_3D ( 'NONE', #124, #455, #19 ) ;
#327 = PERSON_AND_ORGANIZATION_ROLE ( 'creator' ) ;
#328 = CARTESIAN_POINT ( 'NONE',  ( 1.859999999999997433, 0.000000000000000000, 0.000000000000000000 ) ) ;
#329 = SHAPE_DEFINITION_REPRESENTATION ( #460, #8 ) ;
#330 = DIRECTION ( 'NONE',  ( 1.000000000000000000, -0.000000000000000000, -0.000000000000000000 ) ) ;
#331 = DIRECTION ( 'NONE',  ( 1.000000000000000000, 2.775557561562895295E-16, -4.766865280584650599E-32 ) ) ;
#332 = ORIENTED_EDGE ( 'NONE', *, *, #288, .T. ) ;
#333 = VECTOR ( 'NONE', #516, 39.37007874015748143 ) ;
#334 = CIRCLE ( 'NONE', #126, 0.04921259842519641603 ) ;
#335 = DIRECTION ( 'NONE',  ( -1.000000000000000000, -1.972152263052529514E-31, 8.165942964201880017E-32 ) ) ;
#336 = VECTOR ( 'NONE', #431, 39.37007874015748143 ) ;
#337 = CARTESIAN_POINT ( 'NONE',  ( 1.859999999999997433, 3.668203209277699833E-31, -0.04921259842519641603 ) ) ;
#338 = ORIENTED_EDGE ( 'NONE', *, *, #34, .T. ) ;
#339 = EDGE_CURVE ( 'NONE', #20, #114, #284, .T. ) ;
#340 = CARTESIAN_POINT ( 'NONE',  ( 1.609999999999997211, 0.1599999999999999201, -0.1737817897451310323 ) ) ;
#341 = DIRECTION ( 'NONE',  ( 0.000000000000000000, 0.000000000000000000, -1.000000000000000000 ) ) ;
#342 = FACE_BOUND ( 'NONE', #320, .T. ) ;
#343 = AXIS2_PLACEMENT_3D ( 'NONE', #64, #116, #188 ) ;
#344 = CC_DESIGN_APPROVAL ( #299, ( #272 ) ) ;
#345 = ORIENTED_EDGE ( 'NONE', *, *, #11, .F. ) ;
#346 = VERTEX_POINT ( 'NONE', #138 ) ;
#347 = EDGE_CURVE ( 'NONE', #117, #346, #92, .T. ) ;
#348 = ORIENTED_EDGE ( 'NONE', *, *, #474, .T. ) ;
#349 = CARTESIAN_POINT ( 'NONE',  ( 1.609999999999997211, 0.1599999999999999201, 0.1737817897451310323 ) ) ;
#350 = AXIS2_PLACEMENT_3D ( 'NONE', #328, #36, #35 ) ;
#351 = AXIS2_PLACEMENT_3D ( 'NONE', #76, #314, #519 ) ;
#352 = VERTEX_POINT ( 'NONE', #195 ) ;
#353 = PERSON_AND_ORGANIZATION ( #503, #110 ) ;
#354 = EDGE_CURVE ( 'NONE', #144, #414, #234, .T. ) ;
#355 = ORIENTED_EDGE ( 'NONE', *, *, #190, .T. ) ;
#356 = CARTESIAN_POINT ( 'NONE',  ( 1.609999999999997211, 0.1599999999999999201, 0.1737817897451310323 ) ) ;
#357 = CC_DESIGN_PERSON_AND_ORGANIZATION_ASSIGNMENT ( #364, #327, ( #17 ) ) ;
#358 = CARTESIAN_POINT ( 'NONE',  ( 1.609999999999997211, -0.1599999999999999201, 0.1737817897451310323 ) ) ;
#359 = DIRECTION ( 'NONE',  ( 0.000000000000000000, 0.000000000000000000, 1.000000000000000000 ) ) ;
#360 = FACE_OUTER_BOUND ( 'NONE', #189, .T. ) ;
#361 = CIRCLE ( 'NONE', #423, 0.04921259842519641603 ) ;
#362 = AXIS2_PLACEMENT_3D ( 'NONE', #410, #215, #55 ) ;
#363 = APPROVAL_PERSON_ORGANIZATION ( #437, #299, #283 ) ;
#364 = PERSON_AND_ORGANIZATION ( #503, #110 ) ;
#365 = DIRECTION ( 'NONE',  ( 0.000000000000000000, 0.000000000000000000, -1.000000000000000000 ) ) ;
#366 = DIRECTION ( 'NONE',  ( -1.000000000000000000, -0.000000000000000000, -0.000000000000000000 ) ) ;
#367 = EDGE_CURVE ( 'NONE', #453, #429, #457, .T. ) ;
#368 = ORIENTED_EDGE ( 'NONE', *, *, #98, .T. ) ;
#369 = APPROVAL_DATE_TIME ( #476, #258 ) ;
#370 = CARTESIAN_POINT ( 'NONE',  ( -0.2075000000000098432, -7.825565384207015735E-17, 1.694433165071969824E-32 ) ) ;
#371 = AXIS2_PLACEMENT_3D ( 'NONE', #148, #514, #303 ) ;
#372 = PERSON_AND_ORGANIZATION ( #503, #110 ) ;
#373 = EDGE_CURVE ( 'NONE', #14, #117, #38, .T. ) ;
#374 = DIRECTION ( 'NONE',  ( 1.000000000000000000, -0.000000000000000000, -0.000000000000000000 ) ) ;
#375 = FACE_OUTER_BOUND ( 'NONE', #132, .T. ) ;
#376 = VERTEX_POINT ( 'NONE', #493 ) ;
#377 = DIRECTION ( 'NONE',  ( 1.000000000000000000, -0.000000000000000000, -0.000000000000000000 ) ) ;
#378 = CC_DESIGN_APPROVAL ( #245, ( #45 ) ) ;
#379 = DIRECTION ( 'NONE',  ( 0.000000000000000000, -0.000000000000000000, 1.000000000000000000 ) ) ;
#380 = DIRECTION ( 'NONE',  ( 1.000000000000000000, -0.000000000000000000, -0.000000000000000000 ) ) ;
#381 = ORIENTED_EDGE ( 'NONE', *, *, #451, .T. ) ;
#382 = ORIENTED_EDGE ( 'NONE', *, *, #324, .T. ) ;
#383 = VECTOR ( 'NONE', #287, 39.37007874015748143 ) ;
#384 = ADVANCED_FACE ( 'NONE', ( #217 ), #4, .F. ) ;
#385 = ORIENTED_EDGE ( 'NONE', *, *, #421, .F. ) ;
#386 = CARTESIAN_POINT ( 'NONE',  ( -0.2075000000000097600, -2.318124046351818290E-31, 0.2362204700000000157 ) ) ;
#387 = ORIENTED_EDGE ( 'NONE', *, *, #339, .T. ) ;
#388 = DIRECTION ( 'NONE',  ( -1.000000000000000000, -0.000000000000000000, -0.000000000000000000 ) ) ;
#389 = ORIENTED_EDGE ( 'NONE', *, *, #288, .F. ) ;
#390 = EDGE_CURVE ( 'NONE', #489, #14, #141, .T. ) ;
#391 = ORIENTED_EDGE ( 'NONE', *, *, #53, .T. ) ;
#392 = LOCAL_TIME ( 19, 14, 4.000000000000000000, #444 ) ;
#393 = LINE ( 'NONE', #196, #408 ) ;
#394 = ORIENTED_EDGE ( 'NONE', *, *, #443, .F. ) ;
#395 = CARTESIAN_POINT ( 'NONE',  ( 1.859999999999997433, -0.1599999999999999201, -0.1737817897451310323 ) ) ;
#396 = CARTESIAN_POINT ( 'NONE',  ( 0.5424999999999902123, -7.825565384207015735E-17, 0.04921259842519628419 ) ) ;
#397 = CIRCLE ( 'NONE', #350, 0.2362204700000000157 ) ;
#398 = EDGE_CURVE ( 'NONE', #300, #226, #334, .T. ) ;
#399 = AXIS2_PLACEMENT_3D ( 'NONE', #488, #497, #97 ) ;
#400 = APPROVAL_PERSON_ORGANIZATION ( #372, #245, #5 ) ;
#401 = MANIFOLD_SOLID_BREP ( 'M3x0.5 Tapped Hole2', #101 ) ;
#402 = DIRECTION ( 'NONE',  ( 0.000000000000000000, 0.000000000000000000, 1.000000000000000000 ) ) ;
#403 = DATE_TIME_ROLE ( 'classification_date' ) ;
#404 = DIRECTION ( 'NONE',  ( -1.000000000000000000, -0.000000000000000000, -0.000000000000000000 ) ) ;
#405 = APPROVAL_DATE_TIME ( #85, #299 ) ;
#406 = EDGE_CURVE ( 'NONE', #414, #300, #254, .T. ) ;
#407 = CARTESIAN_POINT ( 'NONE',  ( 1.330430087646278681, -1.297072196177448010E-16, -1.518865391341547467E-31 ) ) ;
#408 = VECTOR ( 'NONE', #235, 39.37007874015748143 ) ;
#409 = CC_DESIGN_PERSON_AND_ORGANIZATION_ASSIGNMENT ( #323, #479, ( #272 ) ) ;
#410 = CARTESIAN_POINT ( 'NONE',  ( 1.359999999999997433, 3.668203209277699833E-31, -1.518865391341547467E-31 ) ) ;
#411 = ORIENTED_EDGE ( 'NONE', *, *, #398, .F. ) ;
#412 = FACE_BOUND ( 'NONE', #312, .T. ) ;
#413 = PLANE ( 'NONE',  #289 ) ;
#414 = VERTEX_POINT ( 'NONE', #496 ) ;
#415 = EDGE_CURVE ( 'NONE', #352, #179, #103, .T. ) ;
#416 = VECTOR ( 'NONE', #21, 39.37007874015748143 ) ;
#417 = DIRECTION ( 'NONE',  ( 0.000000000000000000, 1.000000000000000000, 0.000000000000000000 ) ) ;
#418 = DIRECTION ( 'NONE',  ( 4.336808734755707912E-16, -1.000000000000000000, 0.000000000000000000 ) ) ;
#419 = ORIENTED_EDGE ( 'NONE', *, *, #161, .T. ) ;
#420 = CARTESIAN_POINT ( 'NONE',  ( 1.609999999999997211, -0.1599999999999999201, 0.1737817897451310323 ) ) ;
#421 = EDGE_CURVE ( 'NONE', #154, #205, #193, .T. ) ;
#422 = ORIENTED_EDGE ( 'NONE', *, *, #480, .T. ) ;
#423 = AXIS2_PLACEMENT_3D ( 'NONE', #370, #518, #436 ) ;
#424 = CARTESIAN_POINT ( 'NONE',  ( 1.859999999999997433, 0.1599999999999999201, -0.1737817897451310323 ) ) ;
#425 = AXIS2_PLACEMENT_3D ( 'NONE', #450, #380, #495 ) ;
#426 = AXIS2_PLACEMENT_3D ( 'NONE', #159, #388, #462 ) ;
#427 = ORIENTED_EDGE ( 'NONE', *, *, #47, .F. ) ;
#428 = LINE ( 'NONE', #356, #336 ) ;
#429 = VERTEX_POINT ( 'NONE', #111 ) ;
#430 = ORIENTED_EDGE ( 'NONE', *, *, #373, .F. ) ;
#431 = DIRECTION ( 'NONE',  ( 1.000000000000000000, -0.000000000000000000, -0.000000000000000000 ) ) ;
#432 = CIRCLE ( 'NONE', #326, 0.2362204700000000157 ) ;
#433 =( GEOMETRIC_REPRESENTATION_CONTEXT ( 3 ) GLOBAL_UNCERTAINTY_ASSIGNED_CONTEXT ( ( #212 ) ) GLOBAL_UNIT_ASSIGNED_CONTEXT ( ( #156, #468, #198 ) ) REPRESENTATION_CONTEXT ( 'NONE', 'WORKASPACE' ) );
#434 = ORIENTED_EDGE ( 'NONE', *, *, #390, .T. ) ;
#435 = PERSON_AND_ORGANIZATION_ROLE ( 'design_owner' ) ;
#436 = DIRECTION ( 'NONE',  ( 0.000000000000000000, 0.000000000000000000, 1.000000000000000000 ) ) ;
#437 = PERSON_AND_ORGANIZATION ( #503, #110 ) ;
#438 = EDGE_CURVE ( 'NONE', #179, #352, #70, .T. ) ;
#439 = FACE_OUTER_BOUND ( 'NONE', #192, .T. ) ;
#440 = CARTESIAN_POINT ( 'NONE',  ( 1.859999999999997433, 2.892866424785833520E-17, -0.2362204700000000157 ) ) ;
#441 = AXIS2_PLACEMENT_3D ( 'NONE', #274, #475, #119 ) ;
#442 = DIRECTION ( 'NONE',  ( -0.000000000000000000, 0.000000000000000000, 1.000000000000000000 ) ) ;
#443 = EDGE_CURVE ( 'NONE', #275, #144, #33, .T. ) ;
#444 = COORDINATED_UNIVERSAL_TIME_OFFSET ( 8, 0, .BEHIND. ) ;
#445 = CARTESIAN_POINT ( 'NONE',  ( 2.528132384768290830, 2.892866424785833520E-17, -0.2362204700000000157 ) ) ;
#446 = CALENDAR_DATE ( 2026, 20, 3 ) ;
#447 = DIRECTION ( 'NONE',  ( 3.771356811665853443E-16, -1.000000000000000000, 0.000000000000000000 ) ) ;
#448 = AXIS2_PLACEMENT_3D ( 'NONE', #255, #9, #447 ) ;
#449 = CIRCLE ( 'NONE', #318, 0.04921259842519628419 ) ;
#450 = CARTESIAN_POINT ( 'NONE',  ( 1.359999999999997433, 3.668203209277699833E-31, -1.518865391341547467E-31 ) ) ;
#451 = EDGE_CURVE ( 'NONE', #205, #154, #311, .T. ) ;
#452 = CARTESIAN_POINT ( 'NONE',  ( 1.609999999999997211, 0.1599999999999999201, 0.1737817897451310323 ) ) ;
#453 = VERTEX_POINT ( 'NONE', #386 ) ;
#454 = DIRECTION ( 'NONE',  ( 1.000000000000000000, -0.000000000000000000, -0.000000000000000000 ) ) ;
#455 = DIRECTION ( 'NONE',  ( -1.000000000000000000, -1.972152263052529514E-31, 8.165942964201880017E-32 ) ) ;
#456 = AXIS2_PLACEMENT_3D ( 'NONE', #221, #494, #146 ) ;
#457 = CIRCLE ( 'NONE', #441, 0.2362204700000000157 ) ;
#458 = CC_DESIGN_SECURITY_CLASSIFICATION ( #45, ( #272 ) ) ;
#459 = ORIENTED_EDGE ( 'NONE', *, *, #313, .F. ) ;
#460 = PRODUCT_DEFINITION_SHAPE ( 'NONE', 'NONE',  #17 ) ;
#461 = ORIENTED_EDGE ( 'NONE', *, *, #339, .F. ) ;
#462 = DIRECTION ( 'NONE',  ( 0.000000000000000000, 0.000000000000000000, 1.000000000000000000 ) ) ;
#463 = ORIENTED_EDGE ( 'NONE', *, *, #415, .T. ) ;
#464 = DIRECTION ( 'NONE',  ( 0.000000000000000000, 0.000000000000000000, -1.000000000000000000 ) ) ;
#465 = AXIS2_PLACEMENT_3D ( 'NONE', #253, #377, #13 ) ;
#466 = AXIS2_PLACEMENT_3D ( 'NONE', #67, #232, #510 ) ;
#467 = ORIENTED_EDGE ( 'NONE', *, *, #296, .F. ) ;
#468 =( NAMED_UNIT ( * ) PLANE_ANGLE_UNIT ( ) SI_UNIT ( $, .RADIAN. ) );
#469 = EDGE_LOOP ( 'NONE', ( #155, #24, #348 ) ) ;
#470 = DIRECTION ( 'NONE',  ( -1.000000000000000000, -0.000000000000000000, -0.000000000000000000 ) ) ;
#471 = ORIENTED_EDGE ( 'NONE', *, *, #324, .F. ) ;
#472 = AXIS2_PLACEMENT_3D ( 'NONE', #512, #404, #325 ) ;
#473 = CARTESIAN_POINT ( 'NONE',  ( 0.5424999999999902123, -7.825565384207015735E-17, 1.694433165071969824E-32 ) ) ;
#474 = EDGE_CURVE ( 'NONE', #135, #20, #44, .T. ) ;
#475 = DIRECTION ( 'NONE',  ( -1.000000000000000000, -3.771356811665853936E-16, 8.165942964201880017E-32 ) ) ;
#476 = DATE_AND_TIME ( #277, #500 ) ;
#477 = DIRECTION ( 'NONE',  ( 0.000000000000000000, 0.000000000000000000, -1.000000000000000000 ) ) ;
#478 = DIRECTION ( 'NONE',  ( 0.000000000000000000, -1.000000000000000000, -0.000000000000000000 ) ) ;
#479 = PERSON_AND_ORGANIZATION_ROLE ( 'creator' ) ;
#480 = EDGE_CURVE ( 'NONE', #144, #226, #393, .T. ) ;
#481 = ORIENTED_EDGE ( 'NONE', *, *, #406, .T. ) ;
#482 = AXIS2_PLACEMENT_3D ( 'NONE', #183, #260, #505 ) ;
#483 = APPLICATION_PROTOCOL_DEFINITION ( 'international standard', 'config_control_design', 1994, #223 ) ;
#484 = CARTESIAN_POINT ( 'NONE',  ( -0.2075000000000097600, -7.825565384207015735E-17, 1.694433165071969824E-32 ) ) ;
#485 = CC_DESIGN_PERSON_AND_ORGANIZATION_ASSIGNMENT ( #248, #78, ( #45 ) ) ;
#486 = CARTESIAN_POINT ( 'NONE',  ( 1.859999999999997433, 6.026805113914463731E-18, 0.04921259842519641603 ) ) ;
#487 = ORIENTED_EDGE ( 'NONE', *, *, #82, .T. ) ;
#488 = CARTESIAN_POINT ( 'NONE',  ( 1.609999999999997211, 1.707404996040164955E-15, -1.518865391341547467E-31 ) ) ;
#489 = VERTEX_POINT ( 'NONE', #424 ) ;
#490 = AXIS2_PLACEMENT_3D ( 'NONE', #57, #304, #112 ) ;
#491 = PLANE ( 'NONE',  #399 ) ;
#492 = ORIENTED_EDGE ( 'NONE', *, *, #82, .F. ) ;
#493 = CARTESIAN_POINT ( 'NONE',  ( -0.2075000000000098432, -7.825565384207015735E-17, 0.04921259842519641603 ) ) ;
#494 = DIRECTION ( 'NONE',  ( 1.000000000000000000, -0.000000000000000000, -0.000000000000000000 ) ) ;
#495 = DIRECTION ( 'NONE',  ( 0.000000000000000000, 0.000000000000000000, -1.000000000000000000 ) ) ;
#496 = CARTESIAN_POINT ( 'NONE',  ( 1.359999999999997433, 6.026805113914494546E-18, 0.04921259842519674910 ) ) ;
#497 = DIRECTION ( 'NONE',  ( 1.000000000000000000, 0.000000000000000000, 0.000000000000000000 ) ) ;
#498 = EDGE_CURVE ( 'NONE', #205, #94, #428, .T. ) ;
#499 = VERTEX_POINT ( 'NONE', #315 ) ;
#500 = LOCAL_TIME ( 19, 14, 4.000000000000000000, #206 ) ;
#501 = CYLINDRICAL_SURFACE ( 'NONE', #490, 0.04921259842519634664 ) ;
#502 = ORIENTED_EDGE ( 'NONE', *, *, #451, .F. ) ;
#503 = PERSON ( 'UNSPECIFIED', 'UNSPECIFIED', 'UNSPECIFIED', ('UNSPECIFIED'), ('UNSPECIFIED'), ('UNSPECIFIED') ) ;
#504 = EDGE_LOOP ( 'NONE', ( #241, #463 ) ) ;
#505 = DIRECTION ( 'NONE',  ( 0.000000000000000000, 0.000000000000000000, 1.000000000000000000 ) ) ;
#506 = ORIENTED_EDGE ( 'NONE', *, *, #513, .F. ) ;
#507 = ADVANCED_FACE ( 'NONE', ( #74 ), #72, .F. ) ;
#508 = AXIS2_PLACEMENT_3D ( 'NONE', #473, #366, #322 ) ;
#509 = ORIENTED_EDGE ( 'NONE', *, *, #161, .F. ) ;
#510 = DIRECTION ( 'NONE',  ( 1.000000000000000000, 0.000000000000000000, 0.000000000000000000 ) ) ;
#511 = ORIENTED_EDGE ( 'NONE', *, *, #406, .F. ) ;
#512 = CARTESIAN_POINT ( 'NONE',  ( -0.2075000000000098432, -7.825565384207015735E-17, 1.694433165071969824E-32 ) ) ;
#513 = EDGE_CURVE ( 'NONE', #20, #135, #449, .T. ) ;
#514 = DIRECTION ( 'NONE',  ( 1.000000000000000000, 0.000000000000000000, 0.000000000000000000 ) ) ;
#515 = AXIS2_PLACEMENT_3D ( 'NONE', #199, #478, #316 ) ;
#516 = DIRECTION ( 'NONE',  ( -0.5150380749100615940, 1.049727191138613272E-16, -0.8571673007021078927 ) ) ;
#517 = CALENDAR_DATE ( 2026, 20, 3 ) ;
#518 = DIRECTION ( 'NONE',  ( -1.000000000000000000, -0.000000000000000000, -0.000000000000000000 ) ) ;
#519 = DIRECTION ( 'NONE',  ( 0.000000000000000000, 0.000000000000000000, -1.000000000000000000 ) ) ;
#520 = ADVANCED_FACE ( 'NONE', ( #71 ), #264, .T. ) ;
#521 = LINE ( 'NONE', #358, #125 ) ;
#522 = APPROVAL_STATUS ( 'not_yet_approved' ) ;
ENDSEC;
END-ISO-10303-21;
