ISO-10303-21;
HEADER;
FILE_DESCRIPTION (( 'STEP AP203' ),
    '1' );
FILE_NAME ('Wheel Nut chamber.STEP',
    '2026-03-20T23:23:53',
    ( '' ),
    ( '' ),
    'SwSTEP 2.0',
    'SolidWorks 2025',
    '' );
FILE_SCHEMA (( 'CONFIG_CONTROL_DESIGN' ));
ENDSEC;

DATA;
#1 = VECTOR ( 'NONE', #253, 39.37007874015748854 ) ;
#2 = LINE ( 'NONE', #418, #422 ) ;
#3 = CARTESIAN_POINT ( 'NONE',  ( 0.2886751345948127545, -1.366127110592026947E-16, 0.000000000000000000 ) ) ;
#4 = DATE_AND_TIME ( #179, #83 ) ;
#5 = VECTOR ( 'NONE', #138, 39.37007874015748143 ) ;
#6 = ORIENTED_EDGE ( 'NONE', *, *, #107, .T. ) ;
#7 = ADVANCED_FACE ( 'NONE', ( #442 ), #329, .F. ) ;
#8 = EDGE_LOOP ( 'NONE', ( #71, #429, #376, #189 ) ) ;
#9 = LINE ( 'NONE', #3, #5 ) ;
#10 = CARTESIAN_POINT ( 'NONE',  ( -0.2886751345948138647, -6.421739195725611660E-18, 0.5000000000000000000 ) ) ;
#11 = VECTOR ( 'NONE', #257, 39.37007874015748143 ) ;
#12 = EDGE_LOOP ( 'NONE', ( #112, #109, #291, #337 ) ) ;
#13 = PLANE ( 'NONE',  #221 ) ;
#14 = ORIENTED_EDGE ( 'NONE', *, *, #140, .F. ) ;
#15 = DIRECTION ( 'NONE',  ( -0.000000000000000000, 0.000000000000000000, -1.000000000000000000 ) ) ;
#16 = DIRECTION ( 'NONE',  ( -0.000000000000000000, -0.000000000000000000, 1.000000000000000000 ) ) ;
#17 = LINE ( 'NONE', #370, #341 ) ;
#18 = EDGE_LOOP ( 'NONE', ( #23, #332, #300, #43 ) ) ;
#19 = AXIS2_PLACEMENT_3D ( 'NONE', #24, #198, #89 ) ;
#20 = ADVANCED_FACE ( 'NONE', ( #232 ), #306, .F. ) ;
#21 = DIRECTION ( 'NONE',  ( 0.000000000000000000, 1.000000000000000000, 0.000000000000000000 ) ) ;
#22 = DIRECTION ( 'NONE',  ( -0.5000000000000002220, 0.8660254037844384856, 0.000000000000000000 ) ) ;
#23 = ORIENTED_EDGE ( 'NONE', *, *, #45, .T. ) ;
#24 = CARTESIAN_POINT ( 'NONE',  ( 0.000000000000000000, 0.000000000000000000, 0.5000000000000000000 ) ) ;
#25 = ORIENTED_EDGE ( 'NONE', *, *, #434, .F. ) ;
#26 = ADVANCED_FACE ( 'NONE', ( #440 ), #161, .F. ) ;
#27 = VECTOR ( 'NONE', #331, 39.37007874015748143 ) ;
#28 = SECURITY_CLASSIFICATION ( '', '', #383 ) ;
#29 = DIRECTION ( 'NONE',  ( -1.000000000000000000, 0.000000000000000000, 0.000000000000000000 ) ) ;
#30 = CARTESIAN_POINT ( 'NONE',  ( 0.000000000000000000, 0.000000000000000000, 0.000000000000000000 ) ) ;
#31 = LINE ( 'NONE', #96, #128 ) ;
#32 = COORDINATED_UNIVERSAL_TIME_OFFSET ( 8, 0, .BEHIND. ) ;
#33 = EDGE_CURVE ( 'NONE', #38, #90, #88, .T. ) ;
#34 = DIRECTION ( 'NONE',  ( -0.000000000000000000, -0.000000000000000000, 1.000000000000000000 ) ) ;
#35 = CIRCLE ( 'NONE', #74, 0.1181102349999999940 ) ;
#36 = PRODUCT_DEFINITION_FORMATION_WITH_SPECIFIED_SOURCE ( 'ANY', '', #212, .NOT_KNOWN. ) ;
#37 = CARTESIAN_POINT ( 'NONE',  ( -0.1443375672974068491, 0.2500000000000011657, 0.000000000000000000 ) ) ;
#38 = VERTEX_POINT ( 'NONE', #61 ) ;
#39 = DATE_AND_TIME ( #172, #351 ) ;
#40 = VECTOR ( 'NONE', #65, 39.37007874015748143 ) ;
#41 = ORIENTED_EDGE ( 'NONE', *, *, #148, .F. ) ;
#42 = CARTESIAN_POINT ( 'NONE',  ( 0.1443375672974064605, -0.2500000000000008882, 0.000000000000000000 ) ) ;
#43 = ORIENTED_EDGE ( 'NONE', *, *, #134, .T. ) ;
#44 = CARTESIAN_POINT ( 'NONE',  ( -0.1443375672974067936, -0.2500000000000008882, 0.5000000000000000000 ) ) ;
#45 = EDGE_CURVE ( 'NONE', #327, #90, #235, .T. ) ;
#46 = PLANE ( 'NONE',  #297 ) ;
#47 = AXIS2_PLACEMENT_3D ( 'NONE', #403, #80, #225 ) ;
#48 = VERTEX_POINT ( 'NONE', #416 ) ;
#49 = LINE ( 'NONE', #84, #136 ) ;
#50 = ORIENTED_EDGE ( 'NONE', *, *, #234, .T. ) ;
#51 = CARTESIAN_POINT ( 'NONE',  ( 0.000000000000000000, 0.000000000000000000, 0.000000000000000000 ) ) ;
#52 = ORIENTED_EDGE ( 'NONE', *, *, #248, .T. ) ;
#53 = EDGE_CURVE ( 'NONE', #265, #79, #310, .T. ) ;
#54 = DIRECTION ( 'NONE',  ( -0.000000000000000000, -0.000000000000000000, -1.000000000000000000 ) ) ;
#55 = EDGE_LOOP ( 'NONE', ( #75, #366, #195, #56 ) ) ;
#56 = ORIENTED_EDGE ( 'NONE', *, *, #381, .T. ) ;
#57 = MECHANICAL_CONTEXT ( 'NONE', #338, 'mechanical' ) ;
#58 = CC_DESIGN_PERSON_AND_ORGANIZATION_ASSIGNMENT ( #407, #63, ( #212 ) ) ;
#59 = ORIENTED_EDGE ( 'NONE', *, *, #381, .F. ) ;
#60 = DIRECTION ( 'NONE',  ( -0.000000000000000000, -0.000000000000000000, 1.000000000000000000 ) ) ;
#61 = CARTESIAN_POINT ( 'NONE',  ( 0.1443375672974064605, -0.2500000000000008882, 0.5000000000000000000 ) ) ;
#62 = AXIS2_PLACEMENT_3D ( 'NONE', #165, #120, #339 ) ;
#63 = PERSON_AND_ORGANIZATION_ROLE ( 'design_owner' ) ;
#64 = CYLINDRICAL_SURFACE ( 'NONE', #325, 0.1181102349999999940 ) ;
#65 = DIRECTION ( 'NONE',  ( 1.000000000000000000, 0.000000000000000000, 0.000000000000000000 ) ) ;
#66 = COORDINATED_UNIVERSAL_TIME_OFFSET ( 8, 0, .BEHIND. ) ;
#67 = DIRECTION ( 'NONE',  ( 0.8660254037844388186, -0.4999999999999997224, 0.000000000000000000 ) ) ;
#68 = APPROVAL_DATE_TIME ( #39, #375 ) ;
#69 = VECTOR ( 'NONE', #147, 39.37007874015748143 ) ;
#70 = ORIENTED_EDGE ( 'NONE', *, *, #270, .T. ) ;
#71 = ORIENTED_EDGE ( 'NONE', *, *, #287, .T. ) ;
#72 = DATE_AND_TIME ( #385, #388 ) ;
#73 = CARTESIAN_POINT ( 'NONE',  ( -0.2886751345948138647, -6.421739195725611660E-18, 0.5000000000000000000 ) ) ;
#74 = AXIS2_PLACEMENT_3D ( 'NONE', #171, #281, #419 ) ;
#75 = ORIENTED_EDGE ( 'NONE', *, *, #367, .T. ) ;
#76 = CARTESIAN_POINT ( 'NONE',  ( 0.06528789015558088271, -0.09842519500000000698, -3.937007874012855732E-05 ) ) ;
#77 = EDGE_LOOP ( 'NONE', ( #152, #302, #445, #258, #377, #14 ) ) ;
#78 = DIRECTION ( 'NONE',  ( -0.8660254037844394848, 0.4999999999999986122, 0.000000000000000000 ) ) ;
#79 = VERTEX_POINT ( 'NONE', #98 ) ;
#80 = DIRECTION ( 'NONE',  ( 0.000000000000000000, -1.000000000000000000, 0.000000000000000000 ) ) ;
#81 = CIRCLE ( 'NONE', #166, 0.1181102349999999940 ) ;
#82 = VERTEX_POINT ( 'NONE', #37 ) ;
#83 = LOCAL_TIME ( 16, 23, 53.00000000000000000, #243 ) ;
#84 = CARTESIAN_POINT ( 'NONE',  ( 0.1443375672974057666, 0.2500000000000011657, 0.000000000000000000 ) ) ;
#85 = ORIENTED_EDGE ( 'NONE', *, *, #181, .F. ) ;
#86 = EDGE_CURVE ( 'NONE', #389, #197, #2, .T. ) ;
#87 = LINE ( 'NONE', #10, #288 ) ;
#88 = LINE ( 'NONE', #226, #238 ) ;
#89 = DIRECTION ( 'NONE',  ( 1.000000000000000000, 0.000000000000000000, 0.000000000000000000 ) ) ;
#90 = VERTEX_POINT ( 'NONE', #42 ) ;
#91 = CIRCLE ( 'NONE', #402, 0.1181102349999999940 ) ;
#92 = FACE_OUTER_BOUND ( 'NONE', #77, .T. ) ;
#93 = EDGE_CURVE ( 'NONE', #90, #79, #208, .T. ) ;
#94 = ORIENTED_EDGE ( 'NONE', *, *, #400, .F. ) ;
#95 = COORDINATED_UNIVERSAL_TIME_OFFSET ( 8, 0, .BEHIND. ) ;
#96 = CARTESIAN_POINT ( 'NONE',  ( 0.1443375672974064605, -0.2500000000000008882, 0.5000000000000000000 ) ) ;
#97 = DIRECTION ( 'NONE',  ( 1.000000000000000000, 0.000000000000000000, -0.000000000000000000 ) ) ;
#98 = CARTESIAN_POINT ( 'NONE',  ( 0.2886751345948127545, -1.366127110592026947E-16, 0.000000000000000000 ) ) ;
#99 =( CONVERSION_BASED_UNIT ( 'INCH', #272 ) LENGTH_UNIT ( ) NAMED_UNIT ( #173 ) );
#100 = DIRECTION ( 'NONE',  ( -0.4999999999999997224, -0.8660254037844388186, 0.000000000000000000 ) ) ;
#101 = COORDINATED_UNIVERSAL_TIME_OFFSET ( 8, 0, .BEHIND. ) ;
#102 = DIRECTION ( 'NONE',  ( -0.000000000000000000, -0.000000000000000000, 1.000000000000000000 ) ) ;
#103 = APPROVAL_ROLE ( '' ) ;
#104 = CARTESIAN_POINT ( 'NONE',  ( -0.06528789015558088271, -0.09842519500000000698, 0.5000000000000000000 ) ) ;
#105 = PERSON_AND_ORGANIZATION_ROLE ( 'creator' ) ;
#106 = VECTOR ( 'NONE', #349, 39.37007874015748143 ) ;
#107 = EDGE_CURVE ( 'NONE', #438, #219, #201, .T. ) ;
#108 = EDGE_LOOP ( 'NONE', ( #391, #191, #369, #443 ) ) ;
#109 = ORIENTED_EDGE ( 'NONE', *, *, #270, .F. ) ;
#110 = ADVANCED_FACE ( 'NONE', ( #358, #177 ), #249, .T. ) ;
#111 = LINE ( 'NONE', #121, #69 ) ;
#112 = ORIENTED_EDGE ( 'NONE', *, *, #140, .T. ) ;
#113 = FACE_OUTER_BOUND ( 'NONE', #254, .T. ) ;
#114 = ORIENTED_EDGE ( 'NONE', *, *, #187, .T. ) ;
#115 = DIRECTION ( 'NONE',  ( 1.000000000000000000, 0.000000000000000000, 0.000000000000000000 ) ) ;
#116 = ORIENTED_EDGE ( 'NONE', *, *, #234, .F. ) ;
#117 = CARTESIAN_POINT ( 'NONE',  ( -0.2886751345948138647, -6.421739195725611660E-18, 0.5000000000000000000 ) ) ;
#118 = EDGE_CURVE ( 'NONE', #48, #404, #205, .T. ) ;
#119 = VECTOR ( 'NONE', #380, 39.37007874015748143 ) ;
#120 = DIRECTION ( 'NONE',  ( -0.000000000000000000, -0.000000000000000000, 1.000000000000000000 ) ) ;
#121 = CARTESIAN_POINT ( 'NONE',  ( 0.2886751345948127545, -1.366127110592026947E-16, 0.5000000000000000000 ) ) ;
#122 = DIRECTION ( 'NONE',  ( 1.000000000000000000, 0.000000000000000000, 0.000000000000000000 ) ) ;
#123 = DIRECTION ( 'NONE',  ( 1.000000000000000000, 0.000000000000000000, 0.000000000000000000 ) ) ;
#124 = EDGE_LOOP ( 'NONE', ( #114, #318, #268, #6, #334, #397 ) ) ;
#125 = PRODUCT_RELATED_PRODUCT_CATEGORY ( 'detail', '', ( #212 ) ) ;
#126 = CARTESIAN_POINT ( 'NONE',  ( -0.2886751345948138647, -6.421739195725611660E-18, 0.5000000000000000000 ) ) ;
#127 = ORIENTED_EDGE ( 'NONE', *, *, #434, .T. ) ;
#128 = VECTOR ( 'NONE', #421, 39.37007874015748854 ) ;
#129 = LINE ( 'NONE', #269, #319 ) ;
#130 = ORIENTED_EDGE ( 'NONE', *, *, #187, .F. ) ;
#131 = APPROVAL_DATE_TIME ( #446, #193 ) ;
#132 = FACE_OUTER_BOUND ( 'NONE', #55, .T. ) ;
#133 =( NAMED_UNIT ( * ) PLANE_ANGLE_UNIT ( ) SI_UNIT ( $, .RADIAN. ) );
#134 = EDGE_CURVE ( 'NONE', #284, #327, #273, .T. ) ;
#135 = DIRECTION ( 'NONE',  ( 0.4999999999999997224, 0.8660254037844388186, 0.000000000000000000 ) ) ;
#136 = VECTOR ( 'NONE', #153, 39.37007874015748143 ) ;
#137 = APPROVAL_STATUS ( 'not_yet_approved' ) ;
#138 = DIRECTION ( 'NONE',  ( -0.4999999999999994449, 0.8660254037844389297, 0.000000000000000000 ) ) ;
#139 = LINE ( 'NONE', #413, #157 ) ;
#140 = EDGE_CURVE ( 'NONE', #79, #411, #9, .T. ) ;
#141 = PERSON_AND_ORGANIZATION ( #372, #374 ) ;
#142 = DATE_AND_TIME ( #144, #246 ) ;
#143 = AXIS2_PLACEMENT_3D ( 'NONE', #126, #414, #22 ) ;
#144 = CALENDAR_DATE ( 2026, 20, 3 ) ;
#145 = UNCERTAINTY_MEASURE_WITH_UNIT (LENGTH_MEASURE( 1.000000000000000082E-05 ), #99, 'distance_accuracy_value', 'NONE');
#146 = EDGE_LOOP ( 'NONE', ( #355, #116, #41, #423 ) ) ;
#147 = DIRECTION ( 'NONE',  ( -0.4999999999999994449, 0.8660254037844389297, 0.000000000000000000 ) ) ;
#148 = EDGE_CURVE ( 'NONE', #261, #197, #229, .T. ) ;
#149 = VERTEX_POINT ( 'NONE', #347 ) ;
#150 = CARTESIAN_POINT ( 'NONE',  ( -0.1443375672974067936, -0.2500000000000008882, 0.5000000000000000000 ) ) ;
#151 = APPLICATION_CONTEXT ( 'configuration controlled 3d designs of mechanical parts and assemblies' ) ;
#152 = ORIENTED_EDGE ( 'NONE', *, *, #93, .F. ) ;
#153 = DIRECTION ( 'NONE',  ( -1.000000000000000000, 0.000000000000000000, 0.000000000000000000 ) ) ;
#154 = FACE_OUTER_BOUND ( 'NONE', #12, .T. ) ;
#155 = ORIENTED_EDGE ( 'NONE', *, *, #86, .T. ) ;
#156 = LINE ( 'NONE', #44, #266 ) ;
#157 = VECTOR ( 'NONE', #34, 39.37007874015748143 ) ;
#158 = ORIENTED_EDGE ( 'NONE', *, *, #400, .T. ) ;
#159 = DIRECTION ( 'NONE',  ( 1.000000000000000000, 0.000000000000000000, 0.000000000000000000 ) ) ;
#160 = CC_DESIGN_DATE_AND_TIME_ASSIGNMENT ( #72, #345, ( #393 ) ) ;
#161 = CYLINDRICAL_SURFACE ( 'NONE', #430, 0.1181102349999999940 ) ;
#162 = DIRECTION ( 'NONE',  ( 0.000000000000000000, -0.000000000000000000, 1.000000000000000000 ) ) ;
#163 = ORIENTED_EDGE ( 'NONE', *, *, #181, .T. ) ;
#164 = CARTESIAN_POINT ( 'NONE',  ( 0.000000000000000000, 0.000000000000000000, 0.000000000000000000 ) ) ;
#165 = CARTESIAN_POINT ( 'NONE',  ( 0.000000000000000000, 0.000000000000000000, -3.937007874012855732E-05 ) ) ;
#166 = AXIS2_PLACEMENT_3D ( 'NONE', #51, #15, #394 ) ;
#167 = APPROVAL_ROLE ( '' ) ;
#168 = CARTESIAN_POINT ( 'NONE',  ( -0.1443375672974067936, -0.2500000000000008882, 0.5000000000000000000 ) ) ;
#169 = PLANE ( 'NONE',  #252 ) ;
#170 = EDGE_CURVE ( 'NONE', #295, #261, #139, .T. ) ;
#171 = CARTESIAN_POINT ( 'NONE',  ( 0.000000000000000000, 0.000000000000000000, 0.000000000000000000 ) ) ;
#172 = CALENDAR_DATE ( 2026, 20, 3 ) ;
#173 = DIMENSIONAL_EXPONENTS ( 1.000000000000000000, 0.000000000000000000, 0.000000000000000000, 0.000000000000000000, 0.000000000000000000, 0.000000000000000000, 0.000000000000000000 ) ;
#174 = CARTESIAN_POINT ( 'NONE',  ( -0.1443375672974067936, -0.2500000000000008882, 0.000000000000000000 ) ) ;
#175 = AXIS2_PLACEMENT_3D ( 'NONE', #183, #78, #439 ) ;
#176 = DATE_TIME_ROLE ( 'classification_date' ) ;
#177 = FACE_OUTER_BOUND ( 'NONE', #124, .T. ) ;
#178 = CC_DESIGN_PERSON_AND_ORGANIZATION_ASSIGNMENT ( #282, #105, ( #36 ) ) ;
#179 = CALENDAR_DATE ( 2026, 20, 3 ) ;
#180 = DIRECTION ( 'NONE',  ( 0.4999999999999985567, 0.8660254037844393737, 0.000000000000000000 ) ) ;
#181 = EDGE_CURVE ( 'NONE', #48, #285, #35, .T. ) ;
#182 = ORIENTED_EDGE ( 'NONE', *, *, #415, .F. ) ;
#183 = CARTESIAN_POINT ( 'NONE',  ( 0.1443375672974064605, -0.2500000000000008882, 0.5000000000000000000 ) ) ;
#184 = ORIENTED_EDGE ( 'NONE', *, *, #287, .F. ) ;
#185 = CARTESIAN_POINT ( 'NONE',  ( -0.1181102349999999940, 1.446433212392916760E-17, 0.000000000000000000 ) ) ;
#186 = VECTOR ( 'NONE', #188, 39.37007874015748143 ) ;
#187 = EDGE_CURVE ( 'NONE', #38, #265, #31, .T. ) ;
#188 = DIRECTION ( 'NONE',  ( -0.000000000000000000, -0.000000000000000000, -1.000000000000000000 ) ) ;
#189 = ORIENTED_EDGE ( 'NONE', *, *, #86, .F. ) ;
#190 = CARTESIAN_POINT ( 'NONE',  ( -0.1443375672974068491, 0.2500000000000011657, 0.000000000000000000 ) ) ;
#191 = ORIENTED_EDGE ( 'NONE', *, *, #134, .F. ) ;
#192 = FACE_OUTER_BOUND ( 'NONE', #108, .T. ) ;
#193 = APPROVAL ( #203, 'UNSPECIFIED' ) ;
#194 = VECTOR ( 'NONE', #100, 39.37007874015748143 ) ;
#195 = ORIENTED_EDGE ( 'NONE', *, *, #107, .F. ) ;
#196 = DIRECTION ( 'NONE',  ( -1.000000000000000000, 0.000000000000000000, 0.000000000000000000 ) ) ;
#197 = VERTEX_POINT ( 'NONE', #104 ) ;
#198 = DIRECTION ( 'NONE',  ( 0.000000000000000000, 0.000000000000000000, 1.000000000000000000 ) ) ;
#199 = ORIENTED_EDGE ( 'NONE', *, *, #170, .F. ) ;
#200 = DIRECTION ( 'NONE',  ( 0.000000000000000000, 0.000000000000000000, 1.000000000000000000 ) ) ;
#201 = LINE ( 'NONE', #275, #194 ) ;
#202 = AXIS2_PLACEMENT_3D ( 'NONE', #240, #67, #135 ) ;
#203 = APPROVAL_STATUS ( 'not_yet_approved' ) ;
#204 = CARTESIAN_POINT ( 'NONE',  ( 0.000000000000000000, 0.000000000000000000, -3.937007874012855732E-05 ) ) ;
#205 = LINE ( 'NONE', #342, #119 ) ;
#206 = APPROVAL_STATUS ( 'not_yet_approved' ) ;
#207 = ADVANCED_FACE ( 'NONE', ( #309 ), #64, .F. ) ;
#208 = LINE ( 'NONE', #237, #305 ) ;
#209 =( GEOMETRIC_REPRESENTATION_CONTEXT ( 3 ) GLOBAL_UNCERTAINTY_ASSIGNED_CONTEXT ( ( #145 ) ) GLOBAL_UNIT_ASSIGNED_CONTEXT ( ( #99, #133, #274 ) ) REPRESENTATION_CONTEXT ( 'NONE', 'WORKASPACE' ) );
#210 = PERSON_AND_ORGANIZATION_ROLE ( 'classification_officer' ) ;
#211 = EDGE_LOOP ( 'NONE', ( #224, #163, #433, #401 ) ) ;
#212 = PRODUCT ( 'Wheel Nut chamber', 'Wheel Nut chamber', '', ( #57 ) ) ;
#213 = ORIENTED_EDGE ( 'NONE', *, *, #227, .F. ) ;
#214 = CIRCLE ( 'NONE', #19, 0.1181102349999999940 ) ;
#215 = LINE ( 'NONE', #378, #444 ) ;
#216 = DIRECTION ( 'NONE',  ( 0.000000000000000000, -1.000000000000000000, -0.000000000000000000 ) ) ;
#217 = CARTESIAN_POINT ( 'NONE',  ( 0.06528789015558088271, -0.09842519500000000698, 0.000000000000000000 ) ) ;
#218 = ADVANCED_FACE ( 'NONE', ( #132 ), #384, .F. ) ;
#219 = VERTEX_POINT ( 'NONE', #73 ) ;
#220 = CARTESIAN_POINT ( 'NONE',  ( -0.2886751345948138647, -6.421739195725611660E-18, 0.000000000000000000 ) ) ;
#221 = AXIS2_PLACEMENT_3D ( 'NONE', #76, #216, #435 ) ;
#222 = CARTESIAN_POINT ( 'NONE',  ( -0.1443375672974067936, -0.2500000000000008882, 0.5000000000000000000 ) ) ;
#223 = CARTESIAN_POINT ( 'NONE',  ( 0.06528789015558088271, -0.09842519500000000698, 0.5000000000000000000 ) ) ;
#224 = ORIENTED_EDGE ( 'NONE', *, *, #118, .F. ) ;
#225 = DIRECTION ( 'NONE',  ( 0.000000000000000000, -0.000000000000000000, -1.000000000000000000 ) ) ;
#226 = CARTESIAN_POINT ( 'NONE',  ( 0.1443375672974064605, -0.2500000000000008882, 0.5000000000000000000 ) ) ;
#227 = EDGE_CURVE ( 'NONE', #149, #438, #215, .T. ) ;
#228 =( LENGTH_UNIT ( ) NAMED_UNIT ( * ) SI_UNIT ( $, .METRE. ) );
#229 = CIRCLE ( 'NONE', #387, 0.1181102349999999940 ) ;
#230 = ORIENTED_EDGE ( 'NONE', *, *, #53, .F. ) ;
#231 = DIRECTION ( 'NONE',  ( -0.000000000000000000, 0.000000000000000000, -1.000000000000000000 ) ) ;
#232 = FACE_OUTER_BOUND ( 'NONE', #18, .T. ) ;
#233 = CALENDAR_DATE ( 2026, 20, 3 ) ;
#234 = EDGE_CURVE ( 'NONE', #197, #427, #344, .T. ) ;
#235 = LINE ( 'NONE', #174, #40 ) ;
#236 = CARTESIAN_POINT ( 'NONE',  ( 0.06528789015558088271, -0.09842519500000000698, 0.5000000000000000000 ) ) ;
#237 = CARTESIAN_POINT ( 'NONE',  ( 0.1443375672974064605, -0.2500000000000008882, 0.000000000000000000 ) ) ;
#238 = VECTOR ( 'NONE', #371, 39.37007874015748143 ) ;
#239 = CC_DESIGN_APPROVAL ( #193, ( #393 ) ) ;
#240 = CARTESIAN_POINT ( 'NONE',  ( -0.1443375672974068491, 0.2500000000000011657, 0.5000000000000000000 ) ) ;
#241 = PERSON_AND_ORGANIZATION ( #372, #374 ) ;
#242 = DIRECTION ( 'NONE',  ( -0.000000000000000000, -0.000000000000000000, 1.000000000000000000 ) ) ;
#243 = COORDINATED_UNIVERSAL_TIME_OFFSET ( 8, 0, .BEHIND. ) ;
#244 = CC_DESIGN_PERSON_AND_ORGANIZATION_ASSIGNMENT ( #141, #316, ( #36 ) ) ;
#245 = AXIS2_PLACEMENT_3D ( 'NONE', #382, #317, #447 ) ;
#246 = LOCAL_TIME ( 16, 23, 53.00000000000000000, #66 ) ;
#247 = PERSON_AND_ORGANIZATION_ROLE ( 'creator' ) ;
#248 = EDGE_CURVE ( 'NONE', #411, #82, #49, .T. ) ;
#249 = PLANE ( 'NONE',  #245 ) ;
#250 = EDGE_LOOP ( 'NONE', ( #436, #230, #130, #362 ) ) ;
#251 = CC_DESIGN_PERSON_AND_ORGANIZATION_ASSIGNMENT ( #280, #210, ( #28 ) ) ;
#252 = AXIS2_PLACEMENT_3D ( 'NONE', #30, #162, #97 ) ;
#253 = DIRECTION ( 'NONE',  ( 0.5000000000000002220, -0.8660254037844384856, 0.000000000000000000 ) ) ;
#254 = EDGE_LOOP ( 'NONE', ( #52, #59, #213, #70 ) ) ;
#255 = EDGE_CURVE ( 'NONE', #265, #149, #111, .T. ) ;
#256 = PLANE ( 'NONE',  #47 ) ;
#257 = DIRECTION ( 'NONE',  ( -0.000000000000000000, -0.000000000000000000, -1.000000000000000000 ) ) ;
#258 = ORIENTED_EDGE ( 'NONE', *, *, #367, .F. ) ;
#259 = CARTESIAN_POINT ( 'NONE',  ( -0.1443375672974067936, -0.2500000000000008882, 0.000000000000000000 ) ) ;
#260 = VECTOR ( 'NONE', #448, 39.37007874015748143 ) ;
#261 = VERTEX_POINT ( 'NONE', #324 ) ;
#262 = DIRECTION ( 'NONE',  ( 0.4999999999999995559, -0.8660254037844388186, 0.000000000000000000 ) ) ;
#263 = EDGE_LOOP ( 'NONE', ( #127, #155, #50, #182 ) ) ;
#264 = ADVANCED_FACE ( 'NONE', ( #361 ), #293, .F. ) ;
#265 = VERTEX_POINT ( 'NONE', #437 ) ;
#266 = VECTOR ( 'NONE', #115, 39.37007874015748143 ) ;
#267 = APPROVAL_PERSON_ORGANIZATION ( #311, #307, #424 ) ;
#268 = ORIENTED_EDGE ( 'NONE', *, *, #227, .T. ) ;
#269 = CARTESIAN_POINT ( 'NONE',  ( 0.06528789015558088271, -0.09842519500000000698, 0.000000000000000000 ) ) ;
#270 = EDGE_CURVE ( 'NONE', #149, #411, #405, .T. ) ;
#271 = DIRECTION ( 'NONE',  ( 1.000000000000000000, 0.000000000000000000, 0.000000000000000000 ) ) ;
#272 = LENGTH_MEASURE_WITH_UNIT ( LENGTH_MEASURE( 0.02539999999999999897 ), #228 );
#273 = LINE ( 'NONE', #168, #260 ) ;
#274 =( NAMED_UNIT ( * ) SI_UNIT ( $, .STERADIAN. ) SOLID_ANGLE_UNIT ( ) );
#275 = CARTESIAN_POINT ( 'NONE',  ( -0.1443375672974068491, 0.2500000000000011657, 0.5000000000000000000 ) ) ;
#276 = AXIS2_PLACEMENT_3D ( 'NONE', #222, #21, #298 ) ;
#277 = EDGE_CURVE ( 'NONE', #284, #38, #156, .T. ) ;
#278 = CC_DESIGN_APPROVAL ( #307, ( #28 ) ) ;
#279 = DIRECTION ( 'NONE',  ( 0.000000000000000000, 0.000000000000000000, 1.000000000000000000 ) ) ;
#280 = PERSON_AND_ORGANIZATION ( #372, #374 ) ;
#281 = DIRECTION ( 'NONE',  ( -0.000000000000000000, 0.000000000000000000, -1.000000000000000000 ) ) ;
#282 = PERSON_AND_ORGANIZATION ( #372, #374 ) ;
#283 = EDGE_CURVE ( 'NONE', #219, #284, #87, .T. ) ;
#284 = VERTEX_POINT ( 'NONE', #150 ) ;
#285 = VERTEX_POINT ( 'NONE', #217 ) ;
#286 = DIRECTION ( 'NONE',  ( 0.000000000000000000, 0.000000000000000000, 1.000000000000000000 ) ) ;
#287 = EDGE_CURVE ( 'NONE', #389, #295, #81, .T. ) ;
#288 = VECTOR ( 'NONE', #328, 39.37007874015748854 ) ;
#289 = CARTESIAN_POINT ( 'NONE',  ( 0.000000000000000000, 0.000000000000000000, 0.5000000000000000000 ) ) ;
#290 = CC_DESIGN_SECURITY_CLASSIFICATION ( #28, ( #36 ) ) ;
#291 = ORIENTED_EDGE ( 'NONE', *, *, #255, .F. ) ;
#292 = CC_DESIGN_DATE_AND_TIME_ASSIGNMENT ( #4, #176, ( #28 ) ) ;
#293 = PLANE ( 'NONE',  #175 ) ;
#294 = DIRECTION ( 'NONE',  ( 1.000000000000000000, -0.000000000000000000, -0.000000000000000000 ) ) ;
#295 = VERTEX_POINT ( 'NONE', #185 ) ;
#296 = CARTESIAN_POINT ( 'NONE',  ( -0.2886751345948138647, -6.421739195725611660E-18, 0.000000000000000000 ) ) ;
#297 = AXIS2_PLACEMENT_3D ( 'NONE', #399, #326, #262 ) ;
#298 = DIRECTION ( 'NONE',  ( 0.000000000000000000, -0.000000000000000000, 1.000000000000000000 ) ) ;
#299 = FACE_BOUND ( 'NONE', #359, .T. ) ;
#300 = ORIENTED_EDGE ( 'NONE', *, *, #277, .F. ) ;
#301 = CARTESIAN_POINT ( 'NONE',  ( -0.1443375672974068491, 0.2500000000000011657, 0.5000000000000000000 ) ) ;
#302 = ORIENTED_EDGE ( 'NONE', *, *, #45, .F. ) ;
#303 = EDGE_CURVE ( 'NONE', #219, #356, #365, .T. ) ;
#304 = APPLICATION_PROTOCOL_DEFINITION ( 'international standard', 'config_control_design', 1994, #151 ) ;
#305 = VECTOR ( 'NONE', #180, 39.37007874015748854 ) ;
#306 = PLANE ( 'NONE',  #276 ) ;
#307 = APPROVAL ( #137, 'UNSPECIFIED' ) ;
#308 = CARTESIAN_POINT ( 'NONE',  ( 0.1443375672974057666, 0.2500000000000011657, 0.000000000000000000 ) ) ;
#309 = FACE_OUTER_BOUND ( 'NONE', #406, .T. ) ;
#310 = LINE ( 'NONE', #313, #106 ) ;
#311 = PERSON_AND_ORGANIZATION ( #372, #374 ) ;
#312 = ADVANCED_FACE ( 'NONE', ( #154 ), #46, .F. ) ;
#313 = CARTESIAN_POINT ( 'NONE',  ( 0.2886751345948127545, -1.366127110592026947E-16, 0.5000000000000000000 ) ) ;
#314 = AXIS2_PLACEMENT_3D ( 'NONE', #164, #200, #123 ) ;
#315 = APPROVAL_PERSON_ORGANIZATION ( #412, #193, #167 ) ;
#316 = PERSON_AND_ORGANIZATION_ROLE ( 'design_supplier' ) ;
#317 = DIRECTION ( 'NONE',  ( 0.000000000000000000, -0.000000000000000000, 1.000000000000000000 ) ) ;
#318 = ORIENTED_EDGE ( 'NONE', *, *, #255, .T. ) ;
#319 = VECTOR ( 'NONE', #196, 39.37007874015748143 ) ;
#320 = PRODUCT_DEFINITION_SHAPE ( 'NONE', 'NONE',  #393 ) ;
#321 = CARTESIAN_POINT ( 'NONE',  ( 0.000000000000000000, 0.000000000000000000, 0.5000000000000000000 ) ) ;
#322 = CC_DESIGN_PERSON_AND_ORGANIZATION_ASSIGNMENT ( #343, #247, ( #393 ) ) ;
#323 = ORIENTED_EDGE ( 'NONE', *, *, #330, .T. ) ;
#324 = CARTESIAN_POINT ( 'NONE',  ( -0.1181102349999999940, 1.446433212392916760E-17, 0.5000000000000000000 ) ) ;
#325 = AXIS2_PLACEMENT_3D ( 'NONE', #204, #242, #390 ) ;
#326 = DIRECTION ( 'NONE',  ( -0.8660254037844389297, -0.4999999999999996114, 0.000000000000000000 ) ) ;
#327 = VERTEX_POINT ( 'NONE', #259 ) ;
#328 = DIRECTION ( 'NONE',  ( 0.5000000000000002220, -0.8660254037844384856, 0.000000000000000000 ) ) ;
#329 = CYLINDRICAL_SURFACE ( 'NONE', #62, 0.1181102349999999940 ) ;
#330 = EDGE_CURVE ( 'NONE', #404, #261, #363, .T. ) ;
#331 = DIRECTION ( 'NONE',  ( -0.4999999999999997224, -0.8660254037844388186, 0.000000000000000000 ) ) ;
#332 = ORIENTED_EDGE ( 'NONE', *, *, #33, .F. ) ;
#333 = PLANE ( 'NONE',  #143 ) ;
#334 = ORIENTED_EDGE ( 'NONE', *, *, #283, .T. ) ;
#335 = CARTESIAN_POINT ( 'NONE',  ( 0.000000000000000000, 0.000000000000000000, 0.000000000000000000 ) ) ;
#336 = EDGE_CURVE ( 'NONE', #356, #327, #428, .T. ) ;
#337 = ORIENTED_EDGE ( 'NONE', *, *, #53, .T. ) ;
#338 = APPLICATION_CONTEXT ( 'configuration controlled 3d designs of mechanical parts and assemblies' ) ;
#339 = DIRECTION ( 'NONE',  ( 1.000000000000000000, 0.000000000000000000, 0.000000000000000000 ) ) ;
#340 = APPLICATION_PROTOCOL_DEFINITION ( 'international standard', 'config_control_design', 1994, #338 ) ;
#341 = VECTOR ( 'NONE', #54, 39.37007874015748143 ) ;
#342 = CARTESIAN_POINT ( 'NONE',  ( 0.1181102349999999940, 0.000000000000000000, -3.937007874012855732E-05 ) ) ;
#343 = PERSON_AND_ORGANIZATION ( #372, #374 ) ;
#344 = LINE ( 'NONE', #223, #379 ) ;
#345 = DATE_TIME_ROLE ( 'creation_date' ) ;
#346 = ADVANCED_FACE ( 'NONE', ( #432 ), #13, .F. ) ;
#347 = CARTESIAN_POINT ( 'NONE',  ( 0.1443375672974057666, 0.2500000000000011657, 0.5000000000000000000 ) ) ;
#348 = ADVANCED_BREP_SHAPE_REPRESENTATION ( 'Wheel Nut chamber', ( #398, #314 ), #209 ) ;
#349 = DIRECTION ( 'NONE',  ( -0.000000000000000000, -0.000000000000000000, -1.000000000000000000 ) ) ;
#350 = VECTOR ( 'NONE', #60, 39.37007874015748143 ) ;
#351 = LOCAL_TIME ( 16, 23, 53.00000000000000000, #32 ) ;
#352 = APPROVAL_DATE_TIME ( #142, #307 ) ;
#353 = ADVANCED_FACE ( 'NONE', ( #113 ), #256, .F. ) ;
#354 = SHAPE_DEFINITION_REPRESENTATION ( #320, #348 ) ;
#355 = ORIENTED_EDGE ( 'NONE', *, *, #420, .F. ) ;
#356 = VERTEX_POINT ( 'NONE', #220 ) ;
#357 = CLOSED_SHELL ( 'NONE', ( #7, #207, #264, #312, #353, #218, #386, #20, #110, #426, #26, #346 ) ) ;
#358 = FACE_BOUND ( 'NONE', #146, .T. ) ;
#359 = EDGE_LOOP ( 'NONE', ( #25, #85, #94, #184 ) ) ;
#360 = CARTESIAN_POINT ( 'NONE',  ( 0.1443375672974057666, 0.2500000000000011657, 0.5000000000000000000 ) ) ;
#361 = FACE_OUTER_BOUND ( 'NONE', #250, .T. ) ;
#362 = ORIENTED_EDGE ( 'NONE', *, *, #33, .T. ) ;
#363 = CIRCLE ( 'NONE', #409, 0.1181102349999999940 ) ;
#364 = APPROVAL_PERSON_ORGANIZATION ( #241, #375, #103 ) ;
#365 = LINE ( 'NONE', #117, #11 ) ;
#366 = ORIENTED_EDGE ( 'NONE', *, *, #303, .F. ) ;
#367 = EDGE_CURVE ( 'NONE', #82, #356, #368, .T. ) ;
#368 = LINE ( 'NONE', #190, #27 ) ;
#369 = ORIENTED_EDGE ( 'NONE', *, *, #283, .F. ) ;
#370 = CARTESIAN_POINT ( 'NONE',  ( -0.1443375672974068491, 0.2500000000000011657, 0.5000000000000000000 ) ) ;
#371 = DIRECTION ( 'NONE',  ( -0.000000000000000000, -0.000000000000000000, -1.000000000000000000 ) ) ;
#372 = PERSON ( 'UNSPECIFIED', 'UNSPECIFIED', 'UNSPECIFIED', ('UNSPECIFIED'), ('UNSPECIFIED'), ('UNSPECIFIED') ) ;
#373 = CARTESIAN_POINT ( 'NONE',  ( 0.06528789015558088271, -0.09842519500000000698, -3.937007874012855732E-05 ) ) ;
#374 = ORGANIZATION ( 'UNSPECIFIED', 'UNSPECIFIED', '' ) ;
#375 = APPROVAL ( #206, 'UNSPECIFIED' ) ;
#376 = ORIENTED_EDGE ( 'NONE', *, *, #148, .T. ) ;
#377 = ORIENTED_EDGE ( 'NONE', *, *, #248, .F. ) ;
#378 = CARTESIAN_POINT ( 'NONE',  ( 0.1443375672974057666, 0.2500000000000011657, 0.5000000000000000000 ) ) ;
#379 = VECTOR ( 'NONE', #294, 39.37007874015748143 ) ;
#380 = DIRECTION ( 'NONE',  ( -0.000000000000000000, -0.000000000000000000, 1.000000000000000000 ) ) ;
#381 = EDGE_CURVE ( 'NONE', #438, #82, #17, .T. ) ;
#382 = CARTESIAN_POINT ( 'NONE',  ( 0.000000000000000000, 0.000000000000000000, 0.5000000000000000000 ) ) ;
#383 = SECURITY_CLASSIFICATION_LEVEL ( 'unclassified' ) ;
#384 = PLANE ( 'NONE',  #202 ) ;
#385 = CALENDAR_DATE ( 2026, 20, 3 ) ;
#386 = ADVANCED_FACE ( 'NONE', ( #192 ), #333, .F. ) ;
#387 = AXIS2_PLACEMENT_3D ( 'NONE', #321, #279, #271 ) ;
#388 = LOCAL_TIME ( 16, 23, 53.00000000000000000, #101 ) ;
#389 = VERTEX_POINT ( 'NONE', #410 ) ;
#390 = DIRECTION ( 'NONE',  ( 1.000000000000000000, 0.000000000000000000, 0.000000000000000000 ) ) ;
#391 = ORIENTED_EDGE ( 'NONE', *, *, #336, .T. ) ;
#392 = LOCAL_TIME ( 16, 23, 53.00000000000000000, #95 ) ;
#393 = PRODUCT_DEFINITION ( 'UNKNOWN', '', #36, #425 ) ;
#394 = DIRECTION ( 'NONE',  ( 1.000000000000000000, 0.000000000000000000, 0.000000000000000000 ) ) ;
#395 = ORIENTED_EDGE ( 'NONE', *, *, #118, .T. ) ;
#396 = DIRECTION ( 'NONE',  ( 1.000000000000000000, 0.000000000000000000, 0.000000000000000000 ) ) ;
#397 = ORIENTED_EDGE ( 'NONE', *, *, #277, .T. ) ;
#398 = MANIFOLD_SOLID_BREP ( 'Cut-Extrude1', #357 ) ;
#399 = CARTESIAN_POINT ( 'NONE',  ( 0.2886751345948127545, -1.366127110592026947E-16, 0.5000000000000000000 ) ) ;
#400 = EDGE_CURVE ( 'NONE', #295, #48, #91, .T. ) ;
#401 = ORIENTED_EDGE ( 'NONE', *, *, #420, .T. ) ;
#402 = AXIS2_PLACEMENT_3D ( 'NONE', #335, #231, #159 ) ;
#403 = CARTESIAN_POINT ( 'NONE',  ( 0.1443375672974057666, 0.2500000000000011657, 0.5000000000000000000 ) ) ;
#404 = VERTEX_POINT ( 'NONE', #441 ) ;
#405 = LINE ( 'NONE', #360, #186 ) ;
#406 = EDGE_LOOP ( 'NONE', ( #199, #158, #395, #323 ) ) ;
#407 = PERSON_AND_ORGANIZATION ( #372, #374 ) ;
#408 = CARTESIAN_POINT ( 'NONE',  ( 0.000000000000000000, 0.000000000000000000, -3.937007874012855732E-05 ) ) ;
#409 = AXIS2_PLACEMENT_3D ( 'NONE', #289, #286, #396 ) ;
#410 = CARTESIAN_POINT ( 'NONE',  ( -0.06528789015558086883, -0.09842519500000000698, 0.000000000000000000 ) ) ;
#411 = VERTEX_POINT ( 'NONE', #308 ) ;
#412 = PERSON_AND_ORGANIZATION ( #372, #374 ) ;
#413 = CARTESIAN_POINT ( 'NONE',  ( -0.1181102349999999940, 1.446433212392916760E-17, -3.937007874012855732E-05 ) ) ;
#414 = DIRECTION ( 'NONE',  ( 0.8660254037844385966, 0.5000000000000003331, -0.000000000000000000 ) ) ;
#415 = EDGE_CURVE ( 'NONE', #285, #427, #417, .T. ) ;
#416 = CARTESIAN_POINT ( 'NONE',  ( 0.1181102349999999940, 0.000000000000000000, 0.000000000000000000 ) ) ;
#417 = LINE ( 'NONE', #373, #350 ) ;
#418 = CARTESIAN_POINT ( 'NONE',  ( -0.06528789015558088271, -0.09842519500000000698, -3.937007874012855732E-05 ) ) ;
#419 = DIRECTION ( 'NONE',  ( 1.000000000000000000, 0.000000000000000000, 0.000000000000000000 ) ) ;
#420 = EDGE_CURVE ( 'NONE', #427, #404, #214, .T. ) ;
#421 = DIRECTION ( 'NONE',  ( 0.4999999999999985567, 0.8660254037844393737, 0.000000000000000000 ) ) ;
#422 = VECTOR ( 'NONE', #102, 39.37007874015748143 ) ;
#423 = ORIENTED_EDGE ( 'NONE', *, *, #330, .F. ) ;
#424 = APPROVAL_ROLE ( '' ) ;
#425 = DESIGN_CONTEXT ( 'detailed design', #151, 'design' ) ;
#426 = ADVANCED_FACE ( 'NONE', ( #299, #92 ), #169, .F. ) ;
#427 = VERTEX_POINT ( 'NONE', #236 ) ;
#428 = LINE ( 'NONE', #296, #1 ) ;
#429 = ORIENTED_EDGE ( 'NONE', *, *, #170, .T. ) ;
#430 = AXIS2_PLACEMENT_3D ( 'NONE', #408, #16, #122 ) ;
#431 = CC_DESIGN_APPROVAL ( #375, ( #36 ) ) ;
#432 = FACE_OUTER_BOUND ( 'NONE', #263, .T. ) ;
#433 = ORIENTED_EDGE ( 'NONE', *, *, #415, .T. ) ;
#434 = EDGE_CURVE ( 'NONE', #285, #389, #129, .T. ) ;
#435 = DIRECTION ( 'NONE',  ( 0.000000000000000000, 0.000000000000000000, -1.000000000000000000 ) ) ;
#436 = ORIENTED_EDGE ( 'NONE', *, *, #93, .T. ) ;
#437 = CARTESIAN_POINT ( 'NONE',  ( 0.2886751345948127545, -1.366127110592026947E-16, 0.5000000000000000000 ) ) ;
#438 = VERTEX_POINT ( 'NONE', #301 ) ;
#439 = DIRECTION ( 'NONE',  ( -0.4999999999999985567, -0.8660254037844393737, 0.000000000000000000 ) ) ;
#440 = FACE_OUTER_BOUND ( 'NONE', #211, .T. ) ;
#441 = CARTESIAN_POINT ( 'NONE',  ( 0.1181102349999999940, 0.000000000000000000, 0.5000000000000000000 ) ) ;
#442 = FACE_OUTER_BOUND ( 'NONE', #8, .T. ) ;
#443 = ORIENTED_EDGE ( 'NONE', *, *, #303, .T. ) ;
#444 = VECTOR ( 'NONE', #29, 39.37007874015748143 ) ;
#445 = ORIENTED_EDGE ( 'NONE', *, *, #336, .F. ) ;
#446 = DATE_AND_TIME ( #233, #392 ) ;
#447 = DIRECTION ( 'NONE',  ( 1.000000000000000000, 0.000000000000000000, -0.000000000000000000 ) ) ;
#448 = DIRECTION ( 'NONE',  ( -0.000000000000000000, -0.000000000000000000, -1.000000000000000000 ) ) ;
ENDSEC;
END-ISO-10303-21;
